<svg width="25" height="24" viewBox="0 0 25 24" fill="none" xmlns="http://www.w3.org/2000/svg">
<path d="M9.98979 13.2399C9.91443 13.2399 8.33355 13.2404 7.60443 13.2396C7.22907 13.2394 7.09515 13.1045 7.09515 12.7268C7.09467 11.7564 7.09443 10.7861 7.09515 9.81581C7.09539 9.44285 7.23699 9.30053 7.60755 9.30029C8.33667 9.29981 9.90891 9.30005 9.98979 9.30005C9.98979 9.23357 9.98955 7.83269 9.98979 7.18757C9.99027 6.23381 10.1604 5.32085 10.645 4.48493C11.1411 3.62933 11.863 3.04325 12.7882 2.70437C13.3808 2.48717 13.9959 2.40053 14.6247 2.40005C15.4114 2.39957 16.1981 2.40029 16.9851 2.40173C17.3232 2.40221 17.4732 2.55173 17.474 2.89229C17.4754 3.80501 17.4754 4.71773 17.474 5.63021C17.4735 5.97437 17.3297 6.11261 16.9839 6.11645C16.339 6.12341 15.6936 6.11909 15.0495 6.14501C14.3988 6.14501 14.0566 6.46277 14.0566 7.13621C14.041 7.84853 14.0501 8.56157 14.0501 9.29981C14.1111 9.29981 15.9627 9.29957 16.8281 9.29981C17.2212 9.29981 17.3556 9.43493 17.3556 9.83021C17.3556 10.7952 17.3554 11.7605 17.3547 12.7256C17.3544 13.1151 17.2282 13.2394 16.8327 13.2396C15.9672 13.2401 14.1228 13.2399 14.0422 13.2399V21.0507C14.0422 21.4671 13.9112 21.5998 13.5003 21.5998C12.4985 21.5998 11.4965 21.6 10.4948 21.5998C10.1316 21.5998 9.99003 21.4587 9.99003 21.0956C9.98979 18.5518 9.98979 13.3292 9.98979 13.2399Z" fill="#3D6AD6"/>
</svg>
