<svg width="25" height="24" viewBox="0 0 25 24" fill="none" xmlns="http://www.w3.org/2000/svg">
<g clip-path="url(#clip0_5403_5275)">
<path d="M5.60382 14.5034L4.76841 17.6221L1.71502 17.6867C0.802506 15.9942 0.284912 14.0577 0.284912 11.9999C0.284912 10.01 0.76885 8.1335 1.62666 6.4812H1.62732L4.34569 6.97958L5.53651 9.68164C5.28727 10.4082 5.15143 11.1882 5.15143 11.9999C5.15152 12.8808 5.31108 13.7247 5.60382 14.5034Z" fill="#FBBB00"/>
<path d="M24.0753 9.7583C24.2131 10.4842 24.2849 11.2339 24.2849 12.0001C24.2849 12.8592 24.1946 13.6972 24.0225 14.5056C23.4384 17.2563 21.912 19.6583 19.7975 21.3581L19.7968 21.3574L16.3729 21.1827L15.8883 18.1576C17.2914 17.3348 18.3879 16.0471 18.9655 14.5056H12.5487V9.7583H19.0591H24.0753Z" fill="#518EF8"/>
<path d="M19.7968 21.3575L19.7974 21.3581C17.741 23.0111 15.1286 24.0001 12.2849 24.0001C7.71503 24.0001 3.74185 21.4458 1.71503 17.6869L5.60382 14.5037C6.61721 17.2083 9.22623 19.1336 12.2849 19.1336C13.5996 19.1336 14.8313 18.7781 15.8882 18.1577L19.7968 21.3575Z" fill="#28B446"/>
<path d="M19.9445 2.76262L16.057 5.94525C14.9631 5.26153 13.6701 4.86656 12.2849 4.86656C9.15698 4.86656 6.49916 6.88017 5.53654 9.68175L1.6273 6.48131H1.62665C3.6238 2.63077 7.64709 0 12.2849 0C15.1965 0 17.8662 1.03716 19.9445 2.76262Z" fill="#F14336"/>
</g>
<defs>
<clipPath id="clip0_5403_5275">
<rect width="24" height="24" fill="white" transform="translate(0.284912)"/>
</clipPath>
</defs>
</svg>
