<svg width="291" height="72" viewBox="0 0 291 72" fill="none" xmlns="http://www.w3.org/2000/svg">
<g clip-path="url(#clip0_3173_42103)">
<path d="M71.2253 0.0309398C73.4345 0.959134 73.7768 1.42323 73.7768 3.96029V22.0291L74.8348 20.9772C78.5687 17.5119 82.645 14.9439 87.8725 14.3251C92.54 13.7992 96.7718 14.9749 100.568 17.5119C107.787 22.3076 111.459 29.0834 110.401 37.7156C109.281 46.8119 103.929 52.9999 94.9048 55.4441C82.6139 58.8166 70.1362 51.0507 68.3937 38.1797C68.2894 37.3693 68.2478 36.5522 68.2692 35.7355C68.2692 25.185 68.2692 14.5417 68.207 3.99123C68.207 2.07297 68.6737 0.742555 70.5407 0C70.7681 0.0237844 70.9967 0.0341159 71.2253 0.0309398ZM105.049 35.4261C105.066 33.3743 104.675 31.3395 103.898 29.4387C103.121 27.5378 101.973 25.8086 100.522 24.3506C99.0697 22.8926 97.3421 21.7346 95.4382 20.9432C93.5344 20.1518 91.4919 19.7428 89.4283 19.7396C80.8713 19.7396 73.8079 26.9176 73.8079 35.4879C73.8079 43.8417 80.9647 50.8341 89.4283 50.8341C91.4715 50.8422 93.4962 50.4501 95.387 49.6802C97.2777 48.9103 98.9974 47.7776 100.448 46.3469C101.898 44.9161 103.051 43.2152 103.841 41.3415C104.63 39.4677 105.041 37.4576 105.049 35.4261Z" fill="#F8F8F8"/>
<path d="M249.522 0.0309398C251.451 0.680675 251.98 2.01109 251.98 4.02217C251.918 12.9328 251.918 21.8744 251.918 30.7851V32.2393C252.322 31.837 252.665 31.5895 252.914 31.3111C258.515 25.68 264.209 20.018 269.81 14.387C270.681 13.4588 271.739 13.2732 272.89 13.5826C273.362 13.715 273.784 13.9819 274.105 14.3503C274.426 14.7187 274.631 15.1725 274.695 15.6555C274.882 16.6456 274.571 17.45 273.824 18.1926L270.619 21.3794C266.356 25.711 262 30.0116 257.737 34.2503C257.145 34.8382 257.208 35.1167 257.799 35.7045C263.213 40.8715 268.565 46.1312 273.886 51.391C275.286 52.7214 275.224 54.5159 273.886 55.6297C272.766 56.5579 271.21 56.4342 269.934 55.2275C267.538 52.907 265.111 50.5866 262.777 48.2661C259.292 44.7389 255.901 41.2118 252.416 37.6537C252.228 37.8161 252.087 38.0242 252.005 38.2575C251.923 38.4907 251.904 38.7412 251.949 38.9841V53.1236C251.949 54.98 250.891 56.2485 249.211 56.2485C247.53 56.2485 246.41 55.0419 246.41 53.1855V3.24868C246.41 1.51605 247.344 0.587856 248.868 0C249.085 0.0250254 249.304 0.0353625 249.522 0.0309398Z" fill="#F8F8F8"/>
<path d="M151.848 21.7506C152.128 21.3483 151.972 20.8842 151.972 20.5439V3.2795C151.972 1.0209 153.839 -0.309512 155.768 0.494922C157.044 1.0209 157.449 2.01097 157.449 3.34138V24.4733C157.449 28.4645 157.511 32.4557 157.386 36.416C157.044 46.8427 148.643 55.4131 138.157 56.0628C126.737 56.8053 117.246 49.5654 115.379 38.3962C113.855 29.238 118.927 20.3273 127.484 16.2123C135.045 12.6233 141.984 13.8919 148.456 18.8732C149.576 19.8323 150.665 20.7605 151.848 21.7506ZM136.352 50.834C144.909 50.834 152.034 43.7797 151.91 35.4259C151.848 26.7937 144.847 19.7704 136.29 19.7704C127.608 19.7704 120.514 26.8247 120.514 35.3641C120.669 43.9344 127.733 50.9268 136.352 50.834Z" fill="#F8F8F8"/>
<path d="M184.862 37.9632H168.557C167.624 37.9632 167.561 38.1488 167.748 39.0152C169.211 45.8528 176.087 51.1126 183.244 50.896C187.152 50.8485 190.898 49.3345 193.73 46.6573C195.131 45.3888 196.811 45.3887 197.869 46.5335C198.927 47.6783 198.802 49.2562 197.589 50.5866C194.664 53.7734 190.961 55.5061 186.698 56.032C181.222 56.6818 176.087 56.032 171.389 52.969C164.232 48.328 161.183 41.6141 161.961 33.2294C162.707 25.4635 166.908 19.8015 173.971 16.4291C188.596 9.46765 202.63 20.4822 203.968 32.8272C204.03 33.4769 204.092 34.1576 204.154 34.8073C204.217 36.7875 203.221 37.8704 201.136 37.9323H190.65C188.721 37.9632 186.791 37.9632 184.862 37.9632ZM183.057 32.4559H197.215C198.336 32.4559 198.429 32.1775 198.149 31.1874C196.282 24.5353 189.872 19.7087 182.933 19.7706C179.488 19.8227 176.154 20.9938 173.441 23.1054C170.727 25.2169 168.783 28.153 167.904 31.4658C167.717 32.3322 167.904 32.4559 168.713 32.4559H183.057Z" fill="#F8F8F8"/>
<path d="M63.9441 35.3641C63.9392 38.1195 63.3862 40.8468 62.3169 43.3888C61.2476 45.9309 59.6831 48.2374 57.7135 50.1757C55.7439 52.114 53.4082 53.6457 50.8407 54.6826C48.2733 55.7196 45.5249 56.2412 42.7538 56.2175C30.5873 56.2175 21.3769 46.5953 21.5636 34.9619C21.7503 23.607 31.3964 14.1704 43.2828 14.2322C54.3291 14.3251 64.2241 24.2877 63.9441 35.3641ZM27.1646 35.3641C27.1707 38.4421 28.0947 41.4492 29.8196 44.0051C31.5445 46.5609 33.9929 48.5508 36.8552 49.723C39.7175 50.8953 42.8651 51.1973 45.9 50.5908C48.9349 49.9843 51.7208 48.4966 53.9053 46.3158C56.0899 44.1349 57.575 41.359 58.1729 38.3389C58.7707 35.3189 58.4545 32.1904 57.2642 29.349C56.0739 26.5076 54.063 24.081 51.4857 22.3761C48.9084 20.6711 45.8805 19.7643 42.785 19.7705C40.7268 19.7647 38.6879 20.1645 36.786 20.9469C34.8842 21.7293 33.1571 22.8787 31.7047 24.3287C30.2522 25.7786 29.1031 27.5004 28.3239 29.3946C27.5446 31.2887 27.1506 33.3177 27.1646 35.3641Z" fill="#F8F8F8"/>
<path d="M221.331 56.2794H211.591C210.253 56.2794 209.257 55.6297 208.915 54.4849C208.72 53.9381 208.699 53.3448 208.855 52.7857C209.011 52.2266 209.336 51.7288 209.786 51.36C210.44 50.834 211.187 50.7721 211.996 50.7721H229.763C232.315 50.7721 234.306 49.9058 235.644 47.8638C236.257 46.9978 236.608 45.9762 236.658 44.9186C236.708 43.861 236.453 42.8112 235.924 41.8924C234.804 39.7575 232.999 38.5818 230.51 38.5818C227.118 38.5199 223.695 38.5818 220.21 38.5818C213.925 38.5818 208.386 33.7243 207.982 27.7529C207.453 20.8533 211.778 15.1913 218.406 14.2631C218.85 14.2117 219.297 14.191 219.744 14.2013H238.04C238.661 14.1764 239.27 14.371 239.76 14.7505C240.25 15.13 240.588 15.6699 240.716 16.2742C240.852 16.8444 240.802 17.4428 240.572 17.9826C240.343 18.5223 239.946 18.9752 239.44 19.2754C238.881 19.5511 238.257 19.6689 237.635 19.6157H220.521C215.916 19.6157 212.649 23.607 213.583 27.9695C214.236 30.9706 216.974 33.1364 220.273 33.1364H230.416C236.36 33.1983 241.307 37.5299 241.961 43.099C242.707 49.1323 239.098 54.4539 233.155 55.9081C231.879 56.2484 230.603 56.2484 229.265 56.2484C226.62 56.2794 224.007 56.2794 221.331 56.2794Z" fill="#F8F8F8"/>
<path d="M11.5753 37.3754V17.5739C11.5753 15.7175 12.6955 14.449 14.3135 14.449C15.9938 14.449 17.114 15.6556 17.114 17.512C17.114 30.9399 17.1762 44.2749 17.114 57.7028C17.114 64.6024 12.4465 70.2644 5.88099 71.6567C4.97693 71.8309 4.06213 71.9446 3.14275 71.997C1.27577 72.0589 0 71.0069 0 69.3362C0 67.6654 1.12019 66.5516 3.01828 66.5516C6.81448 66.4278 9.42825 64.4786 10.9529 61.1062C11.4663 59.8384 11.7202 58.4815 11.6997 57.115C11.5753 50.5248 11.5753 43.9346 11.5753 37.3754Z" fill="#F8F8F8"/>
<path d="M282.972 0.309465C284.043 0.307059 285.103 0.518076 286.091 0.93005C287.078 1.34202 287.972 1.9466 288.721 2.70805C289.469 3.46949 290.056 4.37237 290.448 5.36333C290.839 6.35429 291.027 7.41323 291 8.47757C290.977 10.609 290.107 12.6448 288.579 14.1405C287.052 15.6361 284.991 16.47 282.848 16.46C281.777 16.471 280.715 16.2683 279.724 15.864C278.734 15.4597 277.835 14.862 277.08 14.1063C276.326 13.3505 275.732 12.452 275.333 11.464C274.934 10.4759 274.738 9.41837 274.757 8.35381C274.74 7.28226 274.942 6.21842 275.351 5.22667C275.759 4.23491 276.366 3.33584 277.134 2.58385C277.901 1.83186 278.815 1.24258 279.818 0.85165C280.822 0.460722 281.895 0.276274 282.972 0.309465ZM289.538 8.41569C289.538 4.64104 286.613 1.63988 282.848 1.63988C281.069 1.66366 279.368 2.36836 278.099 3.60736C276.83 4.84636 276.09 6.52425 276.033 8.29193C276.045 10.0634 276.762 11.7581 278.027 13.0049C279.293 14.2517 281.004 14.9489 282.785 14.944C283.663 14.968 284.536 14.8169 285.354 14.4996C286.172 14.1824 286.918 13.7054 287.547 13.0969C288.177 12.4883 288.677 11.7606 289.019 10.9566C289.361 10.1526 289.537 9.2886 289.538 8.41569Z" fill="#F8F8F8"/>
<path d="M14.4069 8.26104C12.3221 8.26104 10.7351 6.80687 10.7351 4.79578C10.7351 2.66094 12.1976 1.14489 14.2824 1.08301C16.4294 1.08301 17.8919 2.53718 17.9541 4.67202C17.923 6.80687 16.4605 8.26104 14.4069 8.26104Z" fill="#F8F8F8"/>
<path d="M283.905 9.00336C285.119 10.0553 285.772 11.3857 286.644 12.7161C285.524 13.0565 284.715 12.8399 284.248 11.7261C283.968 11.0763 283.439 10.4575 283.034 9.86967C282.908 9.68555 282.741 9.53173 282.548 9.41935C282.354 9.30697 282.138 9.23886 281.914 9.21994C281.167 9.09618 280.576 9.15806 280.701 10.1481C280.763 10.7979 280.701 11.4785 280.701 12.1283C280.763 12.778 280.42 12.8708 279.891 12.8708C279.363 12.8708 279.145 12.6852 279.145 12.1283V4.82649C279.145 4.36239 279.269 4.02205 279.798 4.08393C281.074 4.14581 282.35 4.02205 283.594 4.20769C284.995 4.39333 285.741 5.07401 285.928 6.18784C286.053 7.30167 285.524 8.16799 284.248 8.78678C284.248 8.81772 284.123 8.8796 283.905 9.00336ZM282.194 5.35246C281.79 5.47622 281.136 5.01213 280.856 5.6928C280.327 7.02321 280.918 7.82765 282.381 7.82765C283.999 7.82765 284.59 7.48731 284.528 6.55912C284.466 5.6928 283.843 5.35246 282.194 5.35246Z" fill="#F8F8F8"/>
</g>
<defs>
<clipPath id="clip0_3173_42103">
<rect width="291" height="72" fill="white"/>
</clipPath>
</defs>
</svg>
