<svg width="202" height="50" viewBox="0 0 202 50" fill="none" xmlns="http://www.w3.org/2000/svg">
<g clip-path="url(#clip0_5470_327)">
<path d="M50.0315 0.021486C51.556 0.666065 51.7922 0.988355 51.7922 2.7502V15.298L52.5223 14.5675C55.0989 12.1611 57.9118 10.3777 61.5191 9.948C64.7399 9.58274 67.6601 10.3992 70.2796 12.1611C75.2612 15.4914 77.7949 20.1968 77.0648 26.1914C76.2918 32.5083 72.5986 36.8055 66.3717 38.5029C57.8903 40.8448 49.28 35.4518 48.0776 26.5137C48.0056 25.9509 47.9769 25.3835 47.9917 24.8163C47.9917 17.4896 47.9917 10.0984 47.9487 2.77169C47.9487 1.43956 48.2708 0.515663 49.5591 0C49.716 0.016517 49.8738 0.0236916 50.0315 0.021486ZM73.3716 24.6014C73.3835 23.1766 73.1136 21.7635 72.5775 20.4435C72.0413 19.1235 71.2495 17.9227 70.2476 16.9101C69.2457 15.8976 68.0536 15.0934 66.7398 14.5439C65.426 13.9943 64.0166 13.7103 62.5927 13.708C56.6878 13.708 51.8137 18.6928 51.8137 24.6444C51.8137 30.4456 56.7523 35.3014 62.5927 35.3014C64.0025 35.3071 65.3997 35.0348 66.7044 34.5002C68.0092 33.9655 69.1959 33.1789 70.1968 32.1853C71.1977 31.1917 71.9932 30.0106 72.538 28.7093C73.0827 27.4081 73.366 26.0122 73.3716 24.6014Z" fill="#373E41"/>
<path d="M173.066 0.021486C174.397 0.472691 174.762 1.39659 174.762 2.79318C174.719 8.98113 174.719 15.1906 174.719 21.3785V22.3884C174.999 22.1091 175.235 21.9372 175.407 21.7438C179.272 17.8334 183.201 13.9014 187.066 9.99098C187.667 9.3464 188.397 9.21748 189.192 9.43234C189.517 9.5243 189.808 9.70965 190.03 9.96549C190.251 10.2213 190.393 10.5364 190.437 10.8719C190.566 11.5595 190.351 12.1181 189.836 12.6337L187.624 14.8468C184.683 17.8548 181.676 20.8414 178.735 23.785C178.327 24.1932 178.37 24.3866 178.778 24.7948C182.514 28.383 186.207 32.0356 189.879 35.6882C190.845 36.6121 190.802 37.8583 189.879 38.6318C189.106 39.2764 188.032 39.1904 187.152 38.3525C185.498 36.741 183.824 35.1296 182.213 33.5181C179.808 31.0687 177.468 28.6193 175.063 26.1484C174.934 26.2612 174.836 26.4057 174.78 26.5677C174.723 26.7297 174.71 26.9036 174.741 27.0723V36.8914C174.741 38.1806 174.011 39.0615 172.851 39.0615C171.692 39.0615 170.919 38.2235 170.919 36.9344V2.25603C170.919 1.05281 171.563 0.408233 172.615 0C172.765 0.0173787 172.916 0.0245573 173.066 0.021486Z" fill="#1172BA"/>
<path d="M105.666 15.1045C105.859 14.8252 105.751 14.5029 105.751 14.2666V2.27741C105.751 0.70893 107.04 -0.214966 108.371 0.343669C109.251 0.70893 109.53 1.39648 109.53 2.32038V16.9953C109.53 19.767 109.573 22.5387 109.488 25.2889C109.251 32.5296 103.454 38.4813 96.2178 38.9325C88.3376 39.4481 81.7886 34.4204 80.5003 26.664C79.4482 20.3041 82.9481 14.1162 88.8529 11.2585C94.0706 8.76617 98.8589 9.64709 103.325 13.1063C104.098 13.7724 104.85 14.417 105.666 15.1045ZM94.9725 35.3013C100.877 35.3013 105.794 30.4025 105.708 24.6013C105.666 18.6067 100.834 13.7294 94.9295 13.7294C88.9388 13.7294 84.0432 18.6282 84.0432 24.5584C84.1505 30.51 89.0247 35.3658 94.9725 35.3013Z" fill="#1172BA"/>
<path d="M128.447 26.3634H117.196C116.552 26.3634 116.509 26.4923 116.637 27.0939C117.647 31.8423 122.392 35.4949 127.331 35.3445C130.027 35.3115 132.612 34.2601 134.567 32.4009C135.533 31.52 136.692 31.52 137.422 32.315C138.152 33.11 138.067 34.2057 137.229 35.1296C135.211 37.3427 132.656 38.5459 129.714 38.9112C125.935 39.3624 122.392 38.9112 119.15 36.7841C114.211 33.5612 112.107 28.8987 112.644 23.076C113.159 17.683 116.058 13.7511 120.932 11.4091C131.024 6.57479 140.708 14.2238 141.631 22.7967C141.674 23.2479 141.717 23.7206 141.76 24.1718C141.803 25.5469 141.116 26.2989 139.677 26.3419H132.441C131.11 26.3634 129.778 26.3634 128.447 26.3634ZM127.202 22.5389H136.971C137.744 22.5389 137.809 22.3455 137.616 21.6579C136.327 17.0385 131.904 13.6866 127.116 13.7296C124.738 13.7658 122.438 14.5791 120.566 16.0454C118.693 17.5118 117.351 19.5507 116.745 21.8513C116.616 22.4529 116.745 22.5389 117.303 22.5389H127.202Z" fill="#1172BA"/>
<path d="M45.0071 24.5584C45.0038 26.4719 44.6222 28.3658 43.8843 30.1311C43.1464 31.8964 42.0668 33.4982 40.7077 34.8443C39.3485 36.1903 37.7367 37.254 35.965 37.9741C34.1934 38.6942 32.2968 39.0564 30.3846 39.04C21.9891 39.04 15.6333 32.3578 15.7622 24.2791C15.891 16.3938 22.5473 9.84054 30.7497 9.88351C38.3722 9.94797 45.2003 16.8665 45.0071 24.5584ZM19.6271 24.5584C19.6314 26.6959 20.269 28.7842 21.4593 30.5591C22.6496 32.334 24.3391 33.7158 26.3143 34.5299C28.2894 35.344 30.4614 35.5537 32.5557 35.1325C34.6499 34.7113 36.5723 33.6782 38.0798 32.1637C39.5872 30.6493 40.6121 28.7215 41.0246 26.6243C41.4372 24.527 41.219 22.3544 40.3976 20.3813C39.5762 18.4081 38.1886 16.723 36.4101 15.539C34.6316 14.3549 32.5422 13.7253 30.4061 13.7295C28.9858 13.7255 27.5789 14.0032 26.2665 14.5465C24.9541 15.0898 23.7624 15.888 22.7601 16.8949C21.7578 17.9018 20.9649 19.0975 20.4271 20.4129C19.8894 21.7283 19.6175 23.1373 19.6271 24.5584Z" fill="#373E41"/>
<path d="M153.612 39.083H146.891C145.968 39.083 145.281 38.6318 145.045 37.8368C144.91 37.4571 144.896 37.0451 145.003 36.6569C145.111 36.2686 145.335 35.9229 145.646 35.6668C146.097 35.3015 146.612 35.2585 147.171 35.2585H159.431C161.192 35.2585 162.566 34.6569 163.489 33.2388C163.912 32.6375 164.155 31.928 164.189 31.1936C164.223 30.4591 164.048 29.7301 163.683 29.0921C162.91 27.6095 161.664 26.7931 159.946 26.7931C157.606 26.7501 155.244 26.7931 152.839 26.7931C148.502 26.7931 144.68 23.4198 144.401 19.273C144.036 14.4816 147.02 10.5497 151.594 9.90509C151.9 9.86937 152.209 9.85501 152.517 9.86211H165.143C165.571 9.84485 165.991 9.97998 166.329 10.2435C166.668 10.5071 166.901 10.882 166.989 11.3017C167.083 11.6976 167.049 12.1132 166.89 12.488C166.732 12.8628 166.458 13.1774 166.109 13.3858C165.723 13.5773 165.293 13.6591 164.864 13.6222H153.054C149.876 13.6222 147.622 16.3938 148.266 19.4234C148.717 21.5075 150.606 23.0115 152.882 23.0115H159.882C163.983 23.0545 167.397 26.0625 167.848 29.93C168.364 34.1198 165.873 37.8154 161.772 38.8252C160.891 39.0615 160.011 39.0615 159.088 39.0615C157.262 39.083 155.459 39.083 153.612 39.083Z" fill="#1172BA"/>
<path d="M8.86943 25.955V12.204C8.86943 10.9149 9.64243 10.0339 10.759 10.0339C11.9185 10.0339 12.6915 10.8719 12.6915 12.161C12.6915 21.486 12.7344 30.7464 12.6915 40.0713C12.6915 44.8627 9.47065 48.7946 4.94005 49.7615C4.3162 49.8825 3.68493 49.9615 3.05051 49.9978C1.76219 50.0408 0.881836 49.3103 0.881836 48.1501C0.881836 46.9898 1.65483 46.2163 2.96462 46.2163C5.58421 46.1304 7.38786 44.7768 8.43999 42.4348C8.79422 41.5544 8.96941 40.6121 8.95532 39.6631C8.86943 35.0866 8.86943 30.5101 8.86943 25.955Z" fill="#373E41"/>
<path d="M196.149 0.214798C196.887 0.213127 197.619 0.359667 198.3 0.64576C198.982 0.931853 199.599 1.35169 200.115 1.88048C200.632 2.40926 201.037 3.03626 201.307 3.72443C201.577 4.41259 201.707 5.14796 201.688 5.88709C201.672 7.36727 201.072 8.78104 200.018 9.81966C198.964 10.8583 197.542 11.4374 196.063 11.4305C195.324 11.4381 194.591 11.2973 193.907 11.0166C193.224 10.7358 192.603 10.3207 192.083 9.79591C191.562 9.27108 191.152 8.64715 190.877 7.961C190.602 7.27485 190.467 6.54042 190.48 5.80115C190.468 5.05701 190.608 4.31824 190.889 3.62952C191.171 2.9408 191.59 2.31645 192.12 1.79423C192.65 1.27202 193.28 0.862793 193.972 0.591315C194.665 0.319837 195.405 0.191749 196.149 0.214798ZM200.679 5.84412C200.679 3.22283 198.661 1.13869 196.063 1.13869C194.835 1.15521 193.662 1.64459 192.786 2.505C191.91 3.36542 191.399 4.53062 191.36 5.75818C191.368 6.98834 191.863 8.16521 192.736 9.03104C193.61 9.89687 194.79 10.3811 196.02 10.3777C196.625 10.3943 197.228 10.2894 197.792 10.0691C198.357 9.84875 198.871 9.51752 199.306 9.09493C199.74 8.67235 200.085 8.16696 200.321 7.60862C200.557 7.05029 200.679 6.45031 200.679 5.84412Z" fill="#1172BA"/>
<path d="M10.8233 5.7367C9.38462 5.7367 8.28955 4.72686 8.28955 3.33027C8.28955 1.84774 9.29874 0.794925 10.7374 0.751953C12.2189 0.751953 13.2281 1.76179 13.2711 3.24433C13.2496 4.72686 12.2404 5.7367 10.8233 5.7367Z" fill="#373E41"/>
<path d="M196.793 6.25237C197.63 6.9829 198.081 7.90679 198.682 8.83069C197.909 9.06704 197.351 8.91663 197.029 8.14314C196.835 7.69193 196.47 7.26221 196.191 6.85398C196.104 6.72612 195.989 6.6193 195.856 6.54126C195.722 6.46322 195.573 6.41591 195.418 6.40278C194.903 6.31683 194.495 6.3598 194.581 7.04735C194.624 7.49856 194.581 7.97125 194.581 8.42246C194.624 8.87366 194.388 8.93812 194.023 8.93812C193.658 8.93812 193.507 8.8092 193.507 8.42246V3.35177C193.507 3.02948 193.593 2.79313 193.958 2.8361C194.839 2.87908 195.719 2.79313 196.578 2.92205C197.544 3.05096 198.059 3.52366 198.188 4.29715C198.274 5.07065 197.909 5.67225 197.029 6.10197C197.029 6.12346 196.943 6.16643 196.793 6.25237ZM195.612 3.71703C195.332 3.80297 194.882 3.48068 194.688 3.95338C194.323 4.87727 194.731 5.43591 195.74 5.43591C196.857 5.43591 197.265 5.19956 197.222 4.55498C197.179 3.95338 196.75 3.71703 195.612 3.71703Z" fill="#1172BA"/>
</g>
<defs>
<clipPath id="clip0_5470_327">
<rect width="200.806" height="50" fill="white" transform="translate(0.881836)"/>
</clipPath>
</defs>
</svg>
