<svg width="157" height="103" viewBox="0 0 157 103" fill="none" xmlns="http://www.w3.org/2000/svg">
<g clip-path="url(#clip0_5533_4227)">
<path d="M79.3855 91.3C57.4855 91.3 39.6855 73.5 39.6855 51.6V7.9L79.6855 0L119.086 7.9V51.7C119.086 73.5 101.286 91.3 79.3855 91.3ZM43.7855 11.2V51.7C43.7855 71.4 59.7855 87.4 79.4855 87.4C99.1855 87.4 115.186 71.4 115.186 51.7V11.2L79.6855 4.1L43.7855 11.2Z" fill="#0A7ACC"/>
<path d="M89.9855 45.6H69.0854V31.7001C69.0854 25.9001 73.7855 21.3 79.4855 21.3C85.1855 21.3 89.8855 26.0001 89.8855 31.7001V45.6H89.9855ZM73.0854 41.6H85.9855V31.7001C85.9855 28.1001 83.0854 25.3 79.5854 25.3C76.0854 25.3 73.1854 28.2001 73.1854 31.7001V41.6H73.0854Z" fill="#6EC2FF"/>
<path d="M95.4855 65.4001H61.1855V63.4001V41.6001H63.1855H97.4855V43.6001V65.4001H95.4855ZM65.1855 61.4001H93.5855V45.6001H65.1855V61.4001Z" fill="#0A7ACC"/>
<path d="M9.18535 62.5999C13.9902 62.5999 17.8854 58.7048 17.8854 53.9C17.8854 49.0951 13.9902 45.2 9.18535 45.2C4.38047 45.2 0.485352 49.0951 0.485352 53.9C0.485352 58.7048 4.38047 62.5999 9.18535 62.5999Z" fill="#9ED6FF"/>
<path d="M144.785 103C150.971 103 155.985 97.9857 155.985 91.8001C155.985 85.6145 150.971 80.6001 144.785 80.6001C138.6 80.6001 133.585 85.6145 133.585 91.8001C133.585 97.9857 138.6 103 144.785 103Z" fill="#9ED6FF"/>
<path d="M138.786 13.2C141.878 13.2 144.386 10.6928 144.386 7.6C144.386 4.50721 141.878 2 138.786 2C135.693 2 133.186 4.50721 133.186 7.6C133.186 10.6928 135.693 13.2 138.786 13.2Z" fill="#9ED6FF"/>
</g>
<defs>
<clipPath id="clip0_5533_4227">
<rect width="155.6" height="103" fill="white" transform="translate(0.485352)"/>
</clipPath>
</defs>
</svg>
