<svg width="151" height="151" viewBox="0 0 151 151" fill="none" xmlns="http://www.w3.org/2000/svg">
<g clip-path="url(#clip0_5524_550)">
<path d="M150.285 0.5H0.285156V150.5H150.285V0.5Z" fill="white"/>
<path d="M131.09 27.8326C128.958 27.8326 127.224 26.0979 127.224 23.9659C127.224 21.8339 128.959 20.0996 131.09 20.0996C133.222 20.0996 134.957 21.8339 134.957 23.9659C134.957 26.0979 133.222 27.8326 131.09 27.8326ZM131.09 20.7666C129.326 20.7666 127.891 22.2019 127.891 23.9663C127.891 25.7306 129.326 27.1663 131.09 27.1663C132.855 27.1663 134.29 25.7309 134.29 23.9663C134.29 22.2016 132.855 20.7666 131.09 20.7666Z" fill="#3399FF"/>
<path d="M20.6809 34.0762C20.9062 35.0455 20.3036 36.0135 19.3342 36.2392C18.3649 36.4645 17.3969 35.8618 17.1712 34.8925C16.9459 33.9235 17.5486 32.9552 18.5179 32.7298C19.4869 32.5045 20.4552 33.1072 20.6806 34.0765L20.6809 34.0762Z" fill="#28C76F"/>
<path d="M11.8557 50.9746C11.1084 51.0269 10.3657 50.8436 9.71769 50.4402C8.90435 49.9339 8.33702 49.1412 8.12002 48.2079C7.67202 46.2819 8.87469 44.3502 10.8007 43.9022C12.7267 43.4542 14.6584 44.6569 15.1064 46.5829C15.5544 48.5092 14.352 50.4406 12.4257 50.8886C12.2364 50.9326 12.046 50.9612 11.8557 50.9746ZM11.4114 44.4826C11.259 44.4932 11.1054 44.5159 10.952 44.5519C9.38402 44.9166 8.40469 46.4892 8.76969 48.0572C8.94635 48.8169 9.40835 49.4622 10.0704 49.8746C10.7324 50.2869 11.5154 50.4166 12.275 50.2399C13.843 49.8752 14.822 48.3026 14.4574 46.7346C14.1284 45.3199 12.8164 44.3849 11.4117 44.4829L11.4114 44.4826Z" fill="#3399FF"/>
<path d="M27.95 137.976C26.828 137.976 25.915 137.063 25.915 135.941C25.915 134.819 26.828 133.906 27.95 133.906C29.072 133.906 29.985 134.819 29.985 135.941C29.985 137.063 29.072 137.976 27.95 137.976ZM27.95 134.439C27.122 134.439 26.4484 135.113 26.4484 135.941C26.4484 136.769 27.122 137.442 27.95 137.442C28.778 137.442 29.4517 136.769 29.4517 135.941C29.4517 135.113 28.778 134.439 27.95 134.439Z" fill="#28C76F"/>
<path d="M35.7358 44.9124C26.3777 51.9617 18.5394 60.5024 15.6461 70.865C11.9994 83.926 16.2927 98.1137 24.7384 108.703C40.3474 128.274 70.4041 135.718 94.4311 125.962C118.681 116.117 132.637 89.8381 135.783 65.875C137.08 55.9937 135.667 45.5441 130.047 37.3017C123.243 27.3234 110.847 21.6594 98.3591 20.8714C85.8708 20.0834 73.3381 23.7241 62.1247 29.3001C53.7551 33.4621 44.1334 38.5867 35.7361 44.9124H35.7358Z" fill="#0D99FF" fill-opacity="0.08"/>
<path d="M99.1822 139.127C99.0762 139.135 98.9823 139.058 98.9693 138.952C98.9559 138.842 99.0343 138.742 99.1439 138.729C99.4689 138.69 99.7786 138.599 100.064 138.458C100.163 138.409 100.283 138.45 100.332 138.549C100.38 138.648 100.34 138.768 100.241 138.817C99.9146 138.977 99.5616 139.081 99.1916 139.126C99.1882 139.126 99.1852 139.127 99.1819 139.127H99.1822ZM100.992 138.228C100.938 138.232 100.883 138.214 100.84 138.174C100.76 138.098 100.756 137.971 100.832 137.891C100.908 137.811 100.979 137.726 101.045 137.638C101.046 137.637 101.047 137.636 101.047 137.635C101.194 137.445 101.348 137.268 101.506 137.107C101.584 137.028 101.71 137.027 101.789 137.104C101.868 137.182 101.869 137.308 101.791 137.387C101.645 137.537 101.501 137.702 101.364 137.878C101.289 137.979 101.208 138.076 101.122 138.166C101.087 138.204 101.04 138.224 100.992 138.228H100.992ZM102.459 136.793C102.388 136.798 102.317 136.765 102.276 136.702C102.216 136.609 102.242 136.486 102.335 136.425C102.591 136.259 102.862 136.12 103.14 136.014C103.195 135.993 103.25 135.973 103.305 135.954C103.41 135.919 103.523 135.976 103.558 136.081C103.593 136.185 103.536 136.299 103.432 136.334C103.382 136.35 103.333 136.368 103.283 136.387C103.031 136.484 102.785 136.61 102.552 136.761C102.523 136.78 102.491 136.79 102.458 136.792L102.459 136.793ZM105.424 136.192C105.416 136.193 105.408 136.193 105.4 136.192C105.319 136.188 105.237 136.183 105.15 136.177C104.922 136.162 104.664 136.145 104.389 136.158C104.279 136.163 104.185 136.077 104.18 135.967C104.175 135.857 104.259 135.763 104.371 135.758C104.668 135.744 104.938 135.762 105.176 135.778C105.261 135.783 105.342 135.789 105.419 135.792C105.529 135.797 105.615 135.891 105.61 136.001C105.605 136.103 105.524 136.184 105.425 136.191L105.424 136.192ZM106.445 136.095C106.349 136.102 106.26 136.04 106.236 135.943C106.21 135.836 106.275 135.728 106.383 135.701C106.694 135.625 106.987 135.505 107.279 135.335C107.374 135.28 107.497 135.312 107.552 135.408C107.608 135.503 107.575 135.626 107.48 135.681C107.154 135.871 106.826 136.004 106.478 136.09C106.467 136.092 106.455 136.094 106.444 136.095L106.445 136.095ZM108.219 135.094C108.159 135.098 108.099 135.076 108.056 135.029C107.981 134.947 107.988 134.82 108.07 134.746C108.289 134.548 108.519 134.311 108.771 134.023C108.844 133.94 108.97 133.932 109.053 134.005C109.136 134.078 109.145 134.204 109.072 134.287C108.809 134.587 108.569 134.834 108.338 135.043C108.304 135.074 108.261 135.091 108.218 135.094L108.219 135.094ZM109.597 133.563C109.548 133.566 109.497 133.552 109.456 133.518C109.37 133.449 109.357 133.323 109.427 133.237L109.477 133.175C109.674 132.932 109.879 132.68 110.087 132.437C110.159 132.353 110.285 132.343 110.369 132.415C110.453 132.487 110.463 132.613 110.391 132.697C110.186 132.936 109.983 133.186 109.787 133.427L109.737 133.489C109.701 133.534 109.65 133.559 109.597 133.562V133.563ZM123.112 131.647C122.819 131.668 122.515 131.668 122.208 131.645C122.098 131.637 122.015 131.541 122.023 131.431C122.031 131.321 122.127 131.238 122.237 131.246C122.578 131.271 122.912 131.267 123.232 131.235C123.234 131.235 123.236 131.234 123.238 131.234C123.346 131.226 123.44 131.306 123.451 131.414C123.463 131.524 123.382 131.622 123.273 131.633C123.22 131.638 123.166 131.643 123.112 131.647L123.112 131.647ZM119.328 131.898C119.062 131.917 118.807 131.916 118.549 131.896C118.439 131.887 118.357 131.79 118.365 131.68C118.374 131.57 118.471 131.488 118.581 131.497C118.819 131.516 119.054 131.517 119.299 131.499C119.386 131.493 119.475 131.484 119.569 131.473C119.573 131.472 119.576 131.472 119.579 131.472C119.685 131.464 119.779 131.541 119.792 131.647C119.805 131.757 119.727 131.857 119.617 131.87C119.516 131.882 119.422 131.891 119.328 131.898V131.898ZM124.275 131.425C124.185 131.431 124.099 131.376 124.07 131.287C124.036 131.182 124.093 131.069 124.198 131.035C124.407 130.967 124.607 130.883 124.792 130.786C124.881 130.74 124.98 130.683 125.087 130.618C125.181 130.56 125.305 130.59 125.362 130.684C125.42 130.778 125.39 130.901 125.296 130.959C125.181 131.029 125.074 131.09 124.978 131.141C124.773 131.248 124.553 131.341 124.323 131.415C124.307 131.42 124.291 131.424 124.275 131.425H124.275ZM120.621 131.678C120.527 131.685 120.439 131.625 120.413 131.531C120.389 131.442 120.429 131.35 120.506 131.306C120.385 131.267 120.265 131.224 120.147 131.179C120.044 131.139 119.992 131.023 120.032 130.92C120.071 130.817 120.187 130.766 120.29 130.805C120.579 130.916 120.877 131.009 121.176 131.08C121.283 131.038 121.388 130.993 121.49 130.945C121.59 130.898 121.709 130.942 121.756 131.042C121.803 131.142 121.759 131.261 121.659 131.307C121.55 131.358 121.438 131.406 121.324 131.451C121.295 131.474 121.259 131.488 121.221 131.491C121.038 131.56 120.85 131.62 120.659 131.672C120.646 131.675 120.633 131.677 120.621 131.678V131.678ZM117.564 131.723C117.543 131.725 117.521 131.723 117.499 131.717C117.18 131.634 116.872 131.524 116.5 131.362C116.399 131.318 116.352 131.2 116.397 131.098C116.441 130.997 116.559 130.951 116.66 130.995C117.012 131.149 117.302 131.252 117.6 131.33C117.707 131.358 117.771 131.467 117.743 131.574C117.721 131.659 117.647 131.717 117.564 131.723ZM110.956 132.011C110.899 132.016 110.841 131.995 110.798 131.951C110.721 131.872 110.723 131.745 110.803 131.668C111.079 131.401 111.347 131.179 111.621 130.99C111.712 130.928 111.836 130.951 111.899 131.042C111.961 131.133 111.938 131.257 111.847 131.32C111.592 131.496 111.341 131.704 111.081 131.956C111.046 131.99 111.001 132.008 110.956 132.011ZM122.477 130.804C122.41 130.809 122.343 130.78 122.301 130.722C122.236 130.633 122.255 130.508 122.344 130.443C122.613 130.247 122.859 130.024 123.076 129.781C123.15 129.699 123.276 129.691 123.358 129.765C123.441 129.839 123.448 129.965 123.374 130.047C123.139 130.312 122.871 130.553 122.58 130.766C122.548 130.789 122.513 130.801 122.477 130.804L122.477 130.804ZM126.061 130.411C125.994 130.416 125.927 130.387 125.884 130.328C125.82 130.239 125.84 130.114 125.929 130.049C126.202 129.852 126.472 129.642 126.731 129.424C126.815 129.353 126.941 129.364 127.012 129.449C127.083 129.533 127.072 129.659 126.988 129.73C126.722 129.954 126.444 130.17 126.163 130.373C126.132 130.396 126.097 130.408 126.061 130.411H126.061ZM119.3 130.755C119.262 130.757 119.223 130.75 119.188 130.73C119.002 130.626 118.821 130.513 118.65 130.396C118.546 130.324 118.428 130.243 118.305 130.153C118.216 130.087 118.196 129.962 118.262 129.873C118.327 129.784 118.452 129.765 118.541 129.83C118.66 129.917 118.775 129.996 118.877 130.066C119.038 130.177 119.208 130.283 119.383 130.381C119.48 130.435 119.514 130.556 119.46 130.653C119.426 130.714 119.365 130.75 119.3 130.755L119.3 130.755ZM115.656 130.952C115.625 130.954 115.593 130.949 115.563 130.936C115.204 130.783 114.915 130.692 114.626 130.641C114.518 130.622 114.445 130.518 114.464 130.409C114.484 130.301 114.587 130.228 114.696 130.247C115.016 130.304 115.332 130.403 115.72 130.569C115.822 130.612 115.869 130.73 115.825 130.831C115.795 130.902 115.728 130.947 115.656 130.952ZM112.654 130.87C112.569 130.876 112.486 130.827 112.453 130.743C112.413 130.64 112.464 130.524 112.567 130.484C112.844 130.376 113.136 130.296 113.433 130.248C113.493 130.238 113.553 130.229 113.611 130.222C113.721 130.208 113.82 130.287 113.834 130.397C113.847 130.506 113.769 130.606 113.659 130.619C113.606 130.626 113.552 130.634 113.497 130.642C113.228 130.686 112.964 130.758 112.712 130.856C112.693 130.864 112.673 130.868 112.654 130.87V130.87ZM127.639 129.085C127.582 129.089 127.524 129.069 127.481 129.025C127.404 128.946 127.405 128.819 127.484 128.742C127.728 128.505 127.957 128.264 128.186 128.006C128.259 127.924 128.385 127.916 128.468 127.989C128.551 128.063 128.558 128.189 128.485 128.272C128.25 128.537 128.014 128.785 127.764 129.029C127.729 129.063 127.684 129.082 127.639 129.085ZM123.845 129.28C123.805 129.283 123.764 129.274 123.728 129.252C123.633 129.195 123.602 129.072 123.659 128.978C123.833 128.686 123.974 128.385 124.076 128.083C124.111 127.978 124.225 127.922 124.33 127.958C124.434 127.993 124.49 128.107 124.455 128.211C124.344 128.54 124.191 128.867 124.002 129.183C123.967 129.241 123.908 129.275 123.845 129.28ZM117.663 129.513C117.604 129.517 117.544 129.496 117.501 129.449C117.251 129.18 117.04 128.884 116.873 128.571C116.821 128.474 116.858 128.353 116.956 128.301C117.053 128.249 117.174 128.286 117.226 128.383C117.377 128.665 117.568 128.933 117.795 129.177C117.87 129.258 117.865 129.385 117.784 129.46C117.749 129.492 117.706 129.509 117.663 129.512V129.513ZM129.05 127.581C128.993 127.586 128.934 127.565 128.891 127.52C128.815 127.44 128.818 127.313 128.898 127.237C129.127 127.02 129.395 126.79 129.695 126.554C129.782 126.485 129.908 126.5 129.976 126.587C130.045 126.674 130.03 126.8 129.943 126.868C129.652 127.097 129.393 127.319 129.173 127.527C129.138 127.56 129.095 127.578 129.05 127.582V127.581ZM124.489 127.34C124.479 127.34 124.469 127.34 124.459 127.34C124.349 127.331 124.266 127.235 124.274 127.125C124.288 126.947 124.288 126.768 124.275 126.591C124.267 126.479 124.253 126.366 124.234 126.255C124.229 126.22 124.222 126.186 124.216 126.153C124.194 126.045 124.265 125.939 124.373 125.918C124.481 125.896 124.586 125.967 124.608 126.075C124.615 126.112 124.622 126.15 124.629 126.188C124.65 126.312 124.665 126.437 124.674 126.562C124.688 126.758 124.688 126.958 124.673 127.155C124.665 127.255 124.586 127.332 124.488 127.339L124.489 127.34ZM116.698 127.716C116.603 127.723 116.513 127.661 116.489 127.565C116.429 127.322 116.389 127.077 116.371 126.836C116.363 126.721 116.359 126.605 116.361 126.492C116.362 126.382 116.453 126.293 116.563 126.295C116.674 126.297 116.762 126.387 116.761 126.498C116.759 126.599 116.762 126.703 116.77 126.807C116.786 127.025 116.822 127.247 116.877 127.467C116.904 127.574 116.839 127.683 116.732 127.71C116.721 127.713 116.709 127.714 116.698 127.715V127.716ZM130.664 126.297C130.596 126.302 130.527 126.272 130.485 126.212C130.422 126.122 130.444 125.997 130.534 125.933C130.799 125.747 131.09 125.552 131.397 125.354C131.49 125.294 131.614 125.321 131.674 125.413C131.734 125.506 131.707 125.63 131.614 125.69C131.311 125.886 131.025 126.078 130.764 126.261C130.733 126.282 130.698 126.294 130.664 126.297ZM132.395 125.173C132.323 125.179 132.25 125.144 132.209 125.078C132.152 124.984 132.182 124.861 132.276 124.803C132.603 124.603 132.909 124.422 133.165 124.272C133.26 124.216 133.382 124.247 133.439 124.342C133.495 124.437 133.463 124.56 133.368 124.616C133.114 124.766 132.81 124.946 132.485 125.145C132.457 125.162 132.426 125.171 132.395 125.173H132.395ZM124.094 125.341C124.016 125.347 123.938 125.306 123.901 125.231C123.756 124.939 123.568 124.658 123.358 124.418C123.285 124.335 123.294 124.209 123.377 124.136C123.46 124.063 123.586 124.072 123.659 124.155C123.892 124.42 124.099 124.731 124.259 125.053C124.308 125.152 124.268 125.272 124.169 125.321C124.145 125.333 124.12 125.34 124.094 125.341ZM116.741 125.681C116.716 125.683 116.69 125.68 116.664 125.672C116.559 125.638 116.502 125.525 116.536 125.42C116.549 125.381 116.562 125.341 116.577 125.302C116.687 125 116.839 124.713 117.028 124.45C117.093 124.36 117.218 124.34 117.307 124.404C117.397 124.468 117.417 124.593 117.353 124.683C117.185 124.917 117.05 125.171 116.952 125.439C116.94 125.474 116.927 125.509 116.916 125.544C116.89 125.623 116.819 125.675 116.74 125.681H116.741ZM134.166 124.112C134.096 124.117 134.026 124.085 133.984 124.022C133.924 123.93 133.949 123.806 134.042 123.745C134.314 123.567 134.574 123.358 134.815 123.125C134.894 123.048 135.021 123.05 135.098 123.13C135.174 123.209 135.172 123.336 135.093 123.412C134.833 123.663 134.553 123.887 134.261 124.08C134.231 124.099 134.198 124.11 134.166 124.112H134.166ZM122.747 123.812C122.705 123.815 122.662 123.805 122.623 123.78C122.355 123.605 122.059 123.462 121.743 123.357C121.638 123.322 121.582 123.208 121.617 123.104C121.652 122.999 121.765 122.942 121.87 122.977C122.218 123.094 122.546 123.251 122.842 123.445C122.935 123.506 122.961 123.63 122.9 123.722C122.865 123.777 122.807 123.808 122.747 123.812V123.812ZM117.919 124.027C117.855 124.032 117.79 124.005 117.747 123.951C117.679 123.864 117.694 123.738 117.781 123.67C118.06 123.452 118.372 123.266 118.707 123.117C118.808 123.073 118.926 123.118 118.97 123.219C119.015 123.32 118.969 123.438 118.868 123.483C118.564 123.618 118.281 123.787 118.028 123.985C117.996 124.01 117.958 124.024 117.919 124.027V124.027ZM135.647 122.694C135.6 122.697 135.553 122.684 135.513 122.655C135.424 122.589 135.406 122.463 135.472 122.375C135.663 122.117 135.846 121.833 136.014 121.531C136.068 121.434 136.189 121.399 136.286 121.453C136.383 121.507 136.417 121.628 136.364 121.725C136.187 122.043 135.995 122.342 135.793 122.614C135.757 122.662 135.703 122.69 135.647 122.694ZM120.814 123.156C120.803 123.157 120.792 123.157 120.78 123.156C120.484 123.128 120.272 123.14 120.214 123.144H120.21C120.076 123.154 119.941 123.171 119.806 123.196C119.698 123.215 119.593 123.143 119.574 123.034C119.554 122.926 119.626 122.822 119.735 122.802C119.883 122.775 120.033 122.756 120.18 122.745H120.185C120.269 122.739 120.499 122.728 120.817 122.757C120.927 122.768 121.008 122.865 120.997 122.975C120.988 123.074 120.909 123.149 120.813 123.156H120.814ZM136.654 120.901C136.623 120.904 136.591 120.899 136.561 120.886C136.459 120.843 136.412 120.725 136.455 120.624C136.582 120.325 136.701 120.006 136.81 119.675C136.845 119.57 136.958 119.513 137.063 119.547C137.168 119.581 137.225 119.694 137.19 119.799C137.078 120.142 136.954 120.471 136.823 120.78C136.793 120.851 136.726 120.896 136.654 120.901ZM137.302 118.947C137.281 118.949 137.259 118.947 137.238 118.941C137.131 118.914 137.066 118.805 137.094 118.698C137.175 118.381 137.25 118.046 137.317 117.703C137.338 117.595 137.443 117.524 137.551 117.546C137.66 117.567 137.73 117.672 137.709 117.78C137.64 118.13 137.564 118.472 137.481 118.797C137.459 118.882 137.385 118.941 137.302 118.947L137.302 118.947ZM137.702 116.926C137.687 116.927 137.672 116.926 137.658 116.924C137.548 116.908 137.473 116.806 137.489 116.697C137.504 116.597 137.518 116.496 137.532 116.394C137.547 116.284 137.648 116.207 137.757 116.222C137.866 116.237 137.943 116.338 137.928 116.447C137.914 116.551 137.9 116.654 137.885 116.756C137.871 116.85 137.793 116.919 137.702 116.926Z" fill="#28C76F"/>
<path d="M137.418 116.107C140.355 116.107 142.736 113.726 142.736 110.789C142.736 107.852 140.355 105.471 137.418 105.471C134.481 105.471 132.1 107.852 132.1 110.789C132.1 113.726 134.481 116.107 137.418 116.107Z" fill="#28C76F"/>
<path d="M137.768 109.361C137.73 109.4 137.667 109.4 137.628 109.361C137.204 108.939 136.515 108.939 136.093 109.363C136.054 109.402 135.991 109.402 135.952 109.363C135.913 109.324 135.913 109.261 135.952 109.222C136.452 108.721 137.267 108.72 137.768 109.22C137.807 109.259 137.807 109.322 137.768 109.361L137.768 109.361Z" fill="white"/>
<path d="M140.341 112.953L138.946 111.559C139.194 111.172 139.342 110.714 139.342 110.221C139.342 108.847 138.228 107.733 136.854 107.733C135.48 107.733 134.366 108.847 134.366 110.221C134.366 111.595 135.48 112.708 136.854 112.708C137.348 112.708 137.805 112.56 138.192 112.312L139.587 113.707C139.795 113.915 140.132 113.915 140.341 113.707C140.549 113.499 140.549 113.162 140.341 112.953ZM136.859 111.929C135.917 111.929 135.152 111.165 135.152 110.222C135.152 109.279 135.917 108.515 136.859 108.515C137.802 108.515 138.566 109.279 138.566 110.222C138.566 111.164 137.802 111.929 136.859 111.929Z" fill="white"/>
<path d="M113.824 21.4031V129.598C113.824 130.086 113.777 130.565 113.687 131.028C113.471 132.141 113.007 133.164 112.355 134.04C110.997 135.867 108.823 137.051 106.371 137.051H63.0629C60.6112 137.051 58.4366 135.867 57.0789 134.04C56.4269 133.164 55.9636 132.141 55.7469 131.028C55.6559 130.566 55.6089 130.086 55.6089 129.598V21.4031C55.6089 21.3104 55.6106 21.2177 55.6152 21.1251C55.6162 21.0884 55.6179 21.0501 55.6196 21.0127C55.8219 17.0767 59.0772 13.9487 63.0629 13.9487H106.371C110.356 13.9487 113.611 17.0767 113.814 21.0127C113.816 21.0501 113.818 21.0884 113.819 21.1251C113.822 21.2177 113.824 21.3104 113.824 21.4031H113.824Z" fill="white"/>
<path d="M112.355 134.04C110.997 135.867 108.823 137.051 106.371 137.051H63.0631C60.6114 137.051 58.4368 135.867 57.0791 134.04H112.355Z" fill="#F0F2F5"/>
<path d="M106.345 13.949C110.462 13.949 113.799 17.2863 113.799 21.4027V129.597C113.799 133.714 110.462 137.051 106.345 137.051H63.0377C58.921 137.051 55.584 133.714 55.584 129.597V21.4027C55.584 17.286 58.9213 13.949 63.0377 13.949H106.345ZM106.345 12.0667H63.0377C57.8897 12.0667 53.7017 16.255 53.7017 21.4027V129.597C53.7017 134.745 57.89 138.933 63.0377 138.933H106.345C111.493 138.933 115.681 134.745 115.681 129.597V21.4027C115.681 16.2547 111.493 12.0667 106.345 12.0667Z" fill="#1F4168"/>
<path d="M106.345 14.4197C110.196 14.4197 113.329 17.5524 113.329 21.4031V129.597C113.329 133.448 110.196 136.581 106.345 136.581H63.0377C59.187 136.581 56.0543 133.448 56.0543 129.597V21.4027C56.0543 17.5521 59.187 14.4194 63.0377 14.4194H106.345M106.345 13.9487H63.0377C58.921 13.9487 55.584 17.2861 55.584 21.4024V129.597C55.584 133.713 58.9213 137.051 63.0377 137.051H106.345C110.462 137.051 113.799 133.713 113.799 129.597V21.4027C113.799 17.2861 110.462 13.9491 106.345 13.9491V13.9487Z" fill="#1B1A2E"/>
<path d="M108.292 16.7153H104.477V18.5843H108.292V16.7153Z" fill="#1F4168"/>
<path d="M104.325 17.0803H103.748V18.2193H104.325V17.0803Z" fill="#1F4168"/>
<path d="M64.993 17.6497H64.418V18.584H64.993V17.6497Z" fill="#1F4168"/>
<path d="M63.9275 17.3384H63.3525V18.5844H63.9275V17.3384Z" fill="#1F4168"/>
<path d="M62.8626 17.0266H62.2876V18.5839H62.8626V17.0266Z" fill="#1F4168"/>
<path d="M61.7977 16.7153H61.2227V18.5843H61.7977V16.7153Z" fill="#1F4168"/>
<path d="M95.3706 18.6013H74.4816C73.9606 18.6013 73.5386 18.179 73.5386 17.6583C73.5386 17.1377 73.9609 16.7153 74.4816 16.7153H95.3706C95.8912 16.7153 96.3136 17.1377 96.3136 17.6583C96.3136 18.1793 95.8912 18.6013 95.3706 18.6013Z" fill="#F0F2F5"/>
<path d="M93.9029 134.196H76.1676C76.0812 134.196 76.0112 134.126 76.0112 134.04C76.0112 133.953 76.0812 133.883 76.1676 133.883H93.9029C93.9892 133.883 94.0592 133.953 94.0592 134.04C94.0592 134.126 93.9892 134.196 93.9029 134.196Z" fill="#1F4168"/>
<path d="M107.643 27.7941H61.7404C61.0068 27.7941 60.4124 27.1991 60.4131 26.4654L60.4154 23.9544C60.4161 23.2218 61.0101 22.6284 61.7428 22.6284H107.64C108.373 22.6284 108.967 23.2221 108.967 23.9544L108.97 26.4654C108.97 27.1991 108.376 27.7941 107.642 27.7941H107.643Z" fill="#F0F2F5"/>
<path d="M107.488 36.2354H61.6117C60.8785 36.2354 60.2845 36.0321 60.2852 35.7815L60.2875 34.9237C60.2882 34.6734 60.8818 34.4707 61.6141 34.4707H107.486C108.218 34.4707 108.812 34.6735 108.812 34.9237L108.815 35.7815C108.815 36.0321 108.221 36.2354 107.488 36.2354H107.488Z" fill="#F0F2F5"/>
<path d="M107.488 58.2942H61.6117C60.8785 58.2942 60.2845 58.091 60.2852 57.8403L60.2875 56.9825C60.2882 56.7322 60.8818 56.5295 61.6141 56.5295H107.486C108.218 56.5295 108.812 56.7324 108.812 56.9825L108.815 57.8403C108.815 58.091 108.221 58.2942 107.488 58.2942H107.488Z" fill="#F0F2F5"/>
<path d="M107.488 115.647H61.6117C60.8785 115.647 60.2845 115.444 60.2852 115.193L60.2875 114.335C60.2882 114.085 60.8818 113.882 61.6141 113.882H107.486C108.218 113.882 108.812 114.085 108.812 114.335L108.815 115.193C108.815 115.444 108.221 115.647 107.488 115.647H107.488Z" fill="#F0F2F5"/>
<path d="M107.488 41.0884H61.6117C60.8785 41.0884 60.2845 40.8852 60.2852 40.6345L60.2875 39.7767C60.2882 39.5264 60.8818 39.3237 61.6141 39.3237H107.486C108.218 39.3237 108.812 39.5265 108.812 39.7767L108.815 40.6345C108.815 40.8852 108.221 41.0884 107.488 41.0884H107.488Z" fill="#F0F2F5"/>
<path d="M107.488 63.147H61.6117C60.8785 63.147 60.2845 62.9438 60.2852 62.6931L60.2875 61.8353C60.2882 61.585 60.8818 61.3823 61.6141 61.3823H107.486C108.218 61.3823 108.812 61.5851 108.812 61.8353L108.815 62.6931C108.815 62.9438 108.221 63.147 107.488 63.147H107.488Z" fill="#F0F2F5"/>
<path d="M107.488 120.5H61.6117C60.8785 120.5 60.2845 120.297 60.2852 120.046L60.2875 119.188C60.2882 118.938 60.8818 118.735 61.6141 118.735H107.486C108.218 118.735 108.812 118.938 108.812 119.188L108.815 120.046C108.815 120.297 108.221 120.5 107.488 120.5H107.488Z" fill="#F0F2F5"/>
<path d="M107.488 45.9412H61.6117C60.8785 45.9412 60.2845 45.738 60.2852 45.4873L60.2875 44.6295C60.2882 44.3792 60.8818 44.1765 61.6141 44.1765H107.486C108.218 44.1765 108.812 44.3793 108.812 44.6295L108.815 45.4873C108.815 45.738 108.221 45.9412 107.488 45.9412H107.488Z" fill="#F0F2F5"/>
<path d="M107.488 68.0001H61.6117C60.8785 68.0001 60.2845 67.7968 60.2852 67.5462L60.2875 66.6883C60.2882 66.438 60.8818 66.2354 61.6141 66.2354H107.486C108.218 66.2354 108.812 66.4382 108.812 66.6883L108.815 67.5462C108.815 67.7968 108.221 68.0001 107.488 68.0001H107.488Z" fill="#F0F2F5"/>
<path d="M107.488 125.353H61.6117C60.8785 125.353 60.2845 125.15 60.2852 124.899L60.2875 124.041C60.2882 123.791 60.8818 123.588 61.6141 123.588H107.486C108.218 123.588 108.812 123.791 108.812 124.041L108.815 124.899C108.815 125.15 108.221 125.353 107.488 125.353H107.488Z" fill="#F0F2F5"/>
<path d="M106.1 24.0799C106.1 24.2225 105.984 24.3382 105.841 24.3382C105.699 24.3382 105.583 24.2225 105.583 24.0799C105.583 23.9372 105.699 23.8215 105.841 23.8215C105.984 23.8215 106.1 23.9372 106.1 24.0799Z" fill="#D2D9E1"/>
<path d="M106.1 25.2112C106.1 25.3539 105.984 25.4695 105.841 25.4695C105.699 25.4695 105.583 25.3539 105.583 25.2112C105.583 25.0685 105.699 24.9529 105.841 24.9529C105.984 24.9529 106.1 25.0685 106.1 25.2112Z" fill="#D2D9E1"/>
<path d="M106.1 26.3426C106.1 26.4852 105.984 26.6009 105.841 26.6009C105.699 26.6009 105.583 26.4852 105.583 26.3426C105.583 26.1999 105.699 26.0842 105.841 26.0842C105.984 26.0842 106.1 26.1999 106.1 26.3426Z" fill="#D2D9E1"/>
<path d="M63.7174 26.0931C64.2046 26.0931 64.5995 25.6982 64.5995 25.2111C64.5995 24.724 64.2046 24.3291 63.7174 24.3291C63.2303 24.3291 62.8354 24.724 62.8354 25.2111C62.8354 25.6982 63.2303 26.0931 63.7174 26.0931Z" fill="#D2D9E1"/>
<path d="M98.2623 113.074L52.3486 121.632C50.14 122.044 48.0156 120.587 47.604 118.378L35.117 51.384C34.7053 49.1753 36.162 47.051 38.371 46.6393L84.2846 38.0813C86.4933 37.6697 88.6176 39.1263 89.0293 41.3353L101.516 108.33C101.928 110.538 100.471 112.663 98.2623 113.074Z" fill="#3399FF"/>
<path d="M51.6011 121.859C49.6065 121.859 47.8268 120.438 47.4485 118.407L34.9615 51.4129C34.7545 50.3032 34.9925 49.1796 35.6308 48.2486C36.2691 47.3176 37.2318 46.6912 38.3415 46.4842L84.2551 37.9262C86.5458 37.4992 88.7568 39.0156 89.1838 41.3062L101.671 108.301C102.098 110.591 100.581 112.802 98.2908 113.229L52.3771 121.787C52.1168 121.836 51.8568 121.859 51.6011 121.859ZM85.0311 38.1699C84.7941 38.1699 84.5541 38.1916 84.3128 38.2366L38.3991 46.7946C37.3721 46.9859 36.4815 47.5659 35.8908 48.4272C35.3001 49.2886 35.0801 50.3286 35.2715 51.3556L47.7585 118.35C48.1535 120.47 50.1995 121.873 52.3191 121.478L98.2328 112.92C100.352 112.525 101.755 110.479 101.36 108.359L88.8735 41.3646C88.5235 39.4859 86.8765 38.1702 85.0308 38.1702L85.0311 38.1699Z" fill="#003049"/>
<path d="M55.9979 119.652C55.8563 119.652 55.7133 119.645 55.5729 119.631C55.4879 119.622 55.4263 119.546 55.4349 119.461C55.4436 119.376 55.5193 119.315 55.6043 119.323C55.9719 119.361 56.3493 119.345 56.7166 119.277C56.8006 119.261 56.8809 119.317 56.8966 119.401C56.9123 119.485 56.8569 119.565 56.7729 119.581C56.5169 119.628 56.2563 119.652 55.9979 119.652ZM57.8859 119.371C57.8129 119.371 57.7483 119.319 57.7343 119.245C57.7186 119.161 57.7739 119.08 57.8579 119.065L58.9996 118.852C59.0836 118.836 59.1639 118.892 59.1796 118.976C59.1953 119.06 59.1399 119.14 59.0559 119.156L57.9143 119.368C57.9046 119.37 57.8953 119.371 57.8859 119.371V119.371ZM54.4659 119.351C54.4466 119.351 54.4266 119.347 54.4076 119.339C54.0353 119.187 53.6869 118.983 53.3716 118.732C53.3049 118.679 53.2939 118.582 53.3469 118.515C53.3999 118.448 53.4973 118.437 53.5639 118.49C53.8563 118.723 54.1793 118.912 54.5243 119.053C54.6033 119.086 54.6409 119.176 54.6086 119.255C54.5843 119.314 54.5266 119.351 54.4656 119.351L54.4659 119.351ZM60.1693 118.945C60.0963 118.945 60.0316 118.893 60.0176 118.819C60.0019 118.735 60.0573 118.655 60.1413 118.639L61.2829 118.427C61.3666 118.411 61.4473 118.466 61.4629 118.55C61.4786 118.634 61.4233 118.715 61.3393 118.73L60.1976 118.943C60.1879 118.945 60.1786 118.946 60.1693 118.946V118.945ZM62.4523 118.52C62.3793 118.52 62.3146 118.468 62.3006 118.394C62.2849 118.31 62.3403 118.229 62.4243 118.214L63.5659 118.001C63.6499 117.985 63.7303 118.041 63.7459 118.125C63.7616 118.209 63.7063 118.289 63.6223 118.305L62.4806 118.517C62.4709 118.519 62.4616 118.52 62.4523 118.52V118.52ZM64.7353 118.094C64.6623 118.094 64.5976 118.042 64.5836 117.968C64.5679 117.884 64.6233 117.804 64.7073 117.788L65.8489 117.575C65.9326 117.56 66.0133 117.615 66.0289 117.699C66.0446 117.783 65.9893 117.863 65.9053 117.879L64.7636 118.092C64.7539 118.093 64.7446 118.094 64.7353 118.094V118.094ZM52.6736 117.924C52.6249 117.924 52.5773 117.901 52.5473 117.858C52.3156 117.529 52.1326 117.169 52.0036 116.787C51.9763 116.706 52.0196 116.619 52.1003 116.591C52.1813 116.564 52.2686 116.607 52.2959 116.688C52.4156 117.042 52.5849 117.376 52.7996 117.68C52.8486 117.75 52.8319 117.846 52.7623 117.896C52.7353 117.915 52.7043 117.924 52.6736 117.924ZM67.0183 117.668C66.9453 117.668 66.8806 117.616 66.8666 117.542C66.8509 117.458 66.9063 117.378 66.9903 117.362L68.1319 117.15C68.2156 117.134 68.2963 117.189 68.3119 117.273C68.3276 117.357 68.2723 117.438 68.1883 117.453L67.0466 117.666C67.0369 117.668 67.0276 117.669 67.0183 117.669V117.668ZM69.3013 117.243C69.2283 117.243 69.1636 117.191 69.1496 117.117C69.1339 117.033 69.1893 116.952 69.2733 116.937L70.4149 116.724C70.4989 116.708 70.5793 116.764 70.5949 116.848C70.6106 116.932 70.5553 117.012 70.4713 117.028L69.3296 117.24C69.3199 117.242 69.3106 117.243 69.3013 117.243V117.243ZM71.5843 116.817C71.5113 116.817 71.4466 116.765 71.4326 116.691C71.4169 116.607 71.4723 116.527 71.5563 116.511L72.6979 116.298C72.7819 116.283 72.8623 116.338 72.8779 116.422C72.8936 116.506 72.8383 116.586 72.7543 116.602L71.6126 116.815C71.6029 116.816 71.5936 116.817 71.5843 116.817V116.817ZM73.8673 116.391C73.7943 116.391 73.7296 116.339 73.7156 116.265C73.6999 116.181 73.7553 116.101 73.8393 116.085L74.9809 115.873C75.0649 115.857 75.1453 115.912 75.1609 115.996C75.1766 116.08 75.1213 116.161 75.0373 116.176L73.8956 116.389C73.8859 116.391 73.8766 116.392 73.8673 116.392V116.391ZM76.1503 115.966C76.0773 115.966 76.0126 115.914 75.9986 115.84C75.9829 115.756 76.0383 115.675 76.1223 115.66L77.2639 115.447C77.3479 115.431 77.4283 115.487 77.4439 115.571C77.4596 115.655 77.4043 115.735 77.3203 115.751L76.1786 115.963C76.1689 115.965 76.1596 115.966 76.1503 115.966V115.966ZM51.8959 115.76C51.8229 115.76 51.7583 115.708 51.7443 115.634L51.5316 114.492C51.5159 114.408 51.5713 114.328 51.6553 114.312C51.7393 114.296 51.8196 114.352 51.8353 114.436L52.0479 115.577C52.0636 115.661 52.0083 115.742 51.9243 115.757C51.9146 115.759 51.9053 115.76 51.8959 115.76V115.76ZM78.4333 115.54C78.3603 115.54 78.2956 115.488 78.2816 115.414C78.2659 115.33 78.3213 115.25 78.4053 115.234L79.5469 115.021C79.6306 115.006 79.7113 115.061 79.7269 115.145C79.7426 115.229 79.6873 115.309 79.6033 115.325L78.4616 115.538C78.4519 115.539 78.4426 115.54 78.4333 115.54V115.54ZM80.7163 115.114C80.6433 115.114 80.5786 115.062 80.5646 114.988C80.5489 114.904 80.6043 114.824 80.6883 114.808L81.8299 114.596C81.9136 114.58 81.9943 114.635 82.0099 114.719C82.0256 114.803 81.9703 114.884 81.8863 114.899L80.7446 115.112C80.7349 115.114 80.7256 115.115 80.7163 115.115V115.114ZM82.9993 114.689C82.9263 114.689 82.8616 114.637 82.8476 114.563C82.8319 114.479 82.8873 114.398 82.9713 114.383L84.1129 114.17C84.1966 114.154 84.2773 114.21 84.2929 114.294C84.3086 114.378 84.2533 114.458 84.1693 114.474L83.0276 114.686C83.0179 114.688 83.0086 114.689 82.9993 114.689V114.689ZM85.2823 114.263C85.2093 114.263 85.1446 114.211 85.1306 114.137C85.1149 114.053 85.1703 113.973 85.2543 113.957L86.3959 113.744C86.4796 113.729 86.5603 113.784 86.5759 113.868C86.5916 113.952 86.5363 114.032 86.4523 114.048L85.3106 114.261C85.3009 114.262 85.2916 114.263 85.2823 114.263V114.263ZM87.5653 113.837C87.4923 113.837 87.4276 113.785 87.4136 113.711C87.3979 113.627 87.4533 113.547 87.5373 113.531L88.6789 113.319C88.7629 113.303 88.8433 113.358 88.8589 113.442C88.8746 113.526 88.8193 113.607 88.7353 113.622L87.5936 113.835C87.5839 113.837 87.5746 113.838 87.5653 113.838V113.837ZM51.4699 113.476C51.3969 113.476 51.3323 113.424 51.3183 113.35L51.1056 112.208C51.0899 112.124 51.1453 112.044 51.2293 112.028C51.3133 112.013 51.3936 112.068 51.4093 112.152L51.6219 113.294C51.6376 113.378 51.5823 113.458 51.4983 113.474C51.4886 113.475 51.4793 113.476 51.4699 113.476V113.476ZM89.8486 113.412C89.7756 113.412 89.7109 113.36 89.6969 113.286C89.6813 113.202 89.7366 113.121 89.8206 113.106L90.9623 112.893C91.0459 112.877 91.1266 112.933 91.1423 113.017C91.1579 113.101 91.1026 113.181 91.0186 113.197L89.8769 113.409C89.8673 113.411 89.8579 113.412 89.8486 113.412V113.412ZM92.1316 112.986C92.0586 112.986 91.9939 112.934 91.9799 112.86C91.9643 112.776 92.0196 112.696 92.1036 112.68L93.2453 112.467C93.3289 112.452 93.4096 112.507 93.4253 112.591C93.4409 112.675 93.3856 112.755 93.3016 112.771L92.1599 112.984C92.1503 112.985 92.1409 112.986 92.1316 112.986V112.986ZM94.4146 112.56C94.3416 112.56 94.2769 112.508 94.2629 112.434C94.2473 112.35 94.3026 112.27 94.3866 112.254L95.5283 112.042C95.6123 112.026 95.6926 112.081 95.7083 112.165C95.7239 112.249 95.6686 112.33 95.5846 112.345L94.4429 112.558C94.4333 112.56 94.4239 112.561 94.4146 112.561V112.56ZM96.6966 112.13C96.6266 112.13 96.5633 112.082 96.5466 112.011C96.5269 111.928 96.5779 111.845 96.6609 111.825C97.0249 111.738 97.3733 111.6 97.6959 111.415C97.7699 111.373 97.8643 111.399 97.9066 111.473C97.9489 111.547 97.9233 111.641 97.8493 111.683C97.5009 111.883 97.1253 112.032 96.7323 112.125C96.7203 112.128 96.7083 112.13 96.6963 112.13H96.6966ZM51.0439 111.192C50.9709 111.192 50.9063 111.14 50.8923 111.066L50.6796 109.925C50.6639 109.841 50.7193 109.76 50.8033 109.745C50.8873 109.729 50.9679 109.784 50.9833 109.868L51.1959 111.01C51.2116 111.094 51.1563 111.174 51.0723 111.19C51.0626 111.192 51.0533 111.193 51.0439 111.193V111.192ZM98.6843 110.991C98.6459 110.991 98.6073 110.977 98.5776 110.948C98.5159 110.889 98.5139 110.791 98.5729 110.73C98.8313 110.46 99.0496 110.156 99.2219 109.825C99.2613 109.749 99.3546 109.72 99.4303 109.759C99.5059 109.799 99.5353 109.892 99.4959 109.968C99.3099 110.325 99.0746 110.653 98.7959 110.943C98.7656 110.975 98.7249 110.991 98.6843 110.991ZM99.7423 108.959C99.7323 108.959 99.7223 108.958 99.7123 108.956C99.6286 108.94 99.5743 108.859 99.5906 108.775C99.6393 108.528 99.6639 108.275 99.6639 108.023C99.6639 107.904 99.6583 107.783 99.6473 107.663C99.6393 107.578 99.7019 107.503 99.7869 107.495C99.8719 107.488 99.9469 107.55 99.9549 107.635C99.9669 107.764 99.9729 107.894 99.9729 108.023C99.9729 108.295 99.9463 108.568 99.8936 108.835C99.8789 108.908 99.8146 108.959 99.7423 108.959ZM50.6186 108.909C50.5456 108.909 50.4809 108.857 50.4669 108.783L50.2543 107.642C50.2386 107.558 50.2939 107.477 50.3779 107.462C50.4616 107.446 50.5423 107.501 50.5579 107.585L50.7706 108.727C50.7863 108.811 50.7309 108.891 50.6469 108.907C50.6373 108.909 50.6279 108.91 50.6186 108.91V108.909ZM99.6056 106.66C99.5326 106.66 99.4679 106.608 99.4539 106.534L99.2413 105.392C99.2256 105.308 99.2809 105.228 99.3649 105.212C99.4489 105.196 99.5296 105.252 99.5449 105.336L99.7576 106.477C99.7733 106.561 99.7179 106.642 99.6339 106.657C99.6243 106.659 99.6149 106.66 99.6056 106.66V106.66ZM50.1933 106.626C50.1203 106.626 50.0556 106.574 50.0416 106.5L49.8289 105.359C49.8133 105.275 49.8686 105.194 49.9526 105.179C50.0366 105.163 50.1173 105.218 50.1326 105.302L50.3453 106.444C50.3609 106.528 50.3056 106.608 50.2216 106.624C50.2119 106.626 50.2026 106.627 50.1933 106.627V106.626ZM99.1803 104.377C99.1073 104.377 99.0426 104.325 99.0286 104.251L98.8159 103.109C98.8003 103.025 98.8556 102.945 98.9396 102.929C99.0236 102.913 99.1043 102.969 99.1196 103.053L99.3323 104.194C99.3479 104.278 99.2926 104.359 99.2086 104.374C99.1989 104.376 99.1896 104.377 99.1803 104.377V104.377ZM49.7679 104.343C49.6949 104.343 49.6303 104.291 49.6163 104.217L49.4036 103.076C49.3879 102.992 49.4433 102.911 49.5273 102.896C49.6113 102.88 49.6916 102.935 49.7073 103.019L49.9199 104.161C49.9356 104.245 49.8803 104.325 49.7963 104.341C49.7866 104.343 49.7773 104.344 49.7679 104.344V104.343ZM98.7549 102.094C98.6819 102.094 98.6173 102.042 98.6033 101.968L98.3906 100.826C98.3749 100.742 98.4303 100.662 98.5143 100.646C98.5983 100.63 98.6786 100.686 98.6943 100.77L98.9069 101.911C98.9226 101.995 98.8673 102.076 98.7833 102.091C98.7736 102.093 98.7643 102.094 98.7549 102.094V102.094ZM49.3426 102.06C49.2696 102.06 49.2049 102.008 49.1909 101.934L48.9783 100.793C48.9626 100.709 49.0179 100.628 49.1019 100.613C49.1859 100.597 49.2663 100.652 49.2819 100.736L49.4946 101.878C49.5103 101.962 49.4549 102.042 49.3709 102.058C49.3613 102.06 49.3519 102.061 49.3426 102.061V102.06ZM98.3296 99.8108C98.2566 99.8108 98.1919 99.7588 98.1779 99.6848L97.9653 98.5431C97.9496 98.4591 98.0049 98.3788 98.0889 98.3631C98.1729 98.3475 98.2533 98.4028 98.2689 98.4868L98.4816 99.6285C98.4973 99.7125 98.4419 99.7928 98.3579 99.8085C98.3483 99.8101 98.3389 99.8111 98.3296 99.8111V99.8108ZM48.9173 99.7775C48.8443 99.7775 48.7796 99.7255 48.7656 99.6515L48.5529 98.5098C48.5373 98.4258 48.5926 98.3455 48.6766 98.3298C48.7606 98.3141 48.8413 98.3695 48.8566 98.4535L49.0693 99.5951C49.0849 99.6791 49.0296 99.7595 48.9456 99.7751C48.9359 99.7768 48.9266 99.7778 48.9173 99.7778V99.7775ZM97.9043 97.5278C97.8313 97.5278 97.7666 97.4758 97.7526 97.4018L97.5399 96.2601C97.5243 96.1761 97.5796 96.0958 97.6636 96.0801C97.7476 96.0645 97.8279 96.1198 97.8436 96.2038L98.0563 97.3455C98.0719 97.4295 98.0166 97.5098 97.9326 97.5255C97.9229 97.5271 97.9136 97.5281 97.9043 97.5281V97.5278ZM48.4919 97.4945C48.4189 97.4945 48.3543 97.4425 48.3403 97.3685L48.1276 96.2268C48.1119 96.1428 48.1673 96.0625 48.2513 96.0468C48.3349 96.0311 48.4156 96.0865 48.4313 96.1705L48.6439 97.3121C48.6596 97.3961 48.6043 97.4765 48.5203 97.4921C48.5106 97.4938 48.5013 97.4948 48.4919 97.4948V97.4945ZM97.4789 95.2448C97.4059 95.2448 97.3413 95.1928 97.3273 95.1188L97.1146 93.9771C97.0989 93.8931 97.1543 93.8128 97.2383 93.7971C97.3223 93.7815 97.4026 93.8368 97.4183 93.9208L97.6309 95.0625C97.6466 95.1465 97.5913 95.2268 97.5073 95.2425C97.4976 95.2441 97.4883 95.2451 97.4789 95.2451V95.2448ZM48.0663 95.2115C47.9933 95.2115 47.9286 95.1595 47.9146 95.0855L47.7019 93.9438C47.6863 93.8598 47.7416 93.7795 47.8256 93.7638C47.9096 93.7481 47.9903 93.8035 48.0056 93.8875L48.2183 95.0291C48.2339 95.1131 48.1786 95.1935 48.0946 95.2091C48.0849 95.2108 48.0756 95.2118 48.0663 95.2118V95.2115ZM97.0533 92.9618C96.9803 92.9618 96.9156 92.9098 96.9016 92.8358L96.6889 91.6941C96.6733 91.6101 96.7286 91.5298 96.8126 91.5141C96.8966 91.4985 96.9769 91.5538 96.9926 91.6378L97.2053 92.7795C97.2209 92.8635 97.1656 92.9438 97.0816 92.9595C97.0719 92.9611 97.0626 92.9621 97.0533 92.9621V92.9618ZM47.6406 92.9285C47.5676 92.9285 47.5029 92.8765 47.4889 92.8025L47.2763 91.6608C47.2606 91.5768 47.3159 91.4965 47.3999 91.4808C47.4836 91.4651 47.5643 91.5205 47.5799 91.6045L47.7926 92.7461C47.8083 92.8301 47.7529 92.9105 47.6689 92.9261C47.6593 92.9278 47.6499 92.9288 47.6406 92.9288V92.9285ZM96.6276 90.6788C96.5546 90.6788 96.4899 90.6268 96.4759 90.5528L96.2633 89.4111C96.2476 89.3271 96.3029 89.2468 96.3869 89.2311C96.4709 89.2155 96.5513 89.2708 96.5669 89.3548L96.7796 90.4965C96.7953 90.5805 96.7399 90.6608 96.6559 90.6765C96.6463 90.6781 96.6369 90.6791 96.6276 90.6791V90.6788ZM47.2149 90.6455C47.1419 90.6455 47.0773 90.5935 47.0633 90.5195L46.8506 89.3778C46.8349 89.2938 46.8903 89.2135 46.9743 89.1978C47.0583 89.1821 47.1386 89.2375 47.1543 89.3215L47.3669 90.4631C47.3826 90.5471 47.3273 90.6275 47.2433 90.6431C47.2336 90.6448 47.2243 90.6458 47.2149 90.6458V90.6455ZM96.2019 88.3958C96.1289 88.3958 96.0643 88.3438 96.0503 88.2698L95.8376 87.1281C95.8219 87.0441 95.8773 86.9638 95.9613 86.9481C96.0453 86.9325 96.1256 86.9878 96.1413 87.0718L96.3539 88.2135C96.3696 88.2975 96.3143 88.3778 96.2303 88.3935C96.2206 88.3951 96.2113 88.3961 96.2019 88.3961V88.3958ZM46.7893 88.3625C46.7163 88.3625 46.6516 88.3105 46.6376 88.2365L46.4249 87.0948C46.4093 87.0108 46.4646 86.9305 46.5486 86.9148C46.6323 86.8991 46.7129 86.9545 46.7286 87.0385L46.9413 88.1801C46.9569 88.2641 46.9016 88.3445 46.8176 88.3601C46.8079 88.3618 46.7986 88.3628 46.7893 88.3628V88.3625ZM95.7763 86.1128C95.7033 86.1128 95.6386 86.0608 95.6246 85.9868L95.4119 84.8451C95.3963 84.7611 95.4516 84.6808 95.5356 84.6651C95.6196 84.6495 95.6999 84.7048 95.7156 84.7888L95.9283 85.9305C95.9439 86.0145 95.8886 86.0948 95.8046 86.1105C95.7949 86.1121 95.7856 86.1131 95.7763 86.1131V86.1128ZM46.3636 86.0795C46.2906 86.0795 46.2259 86.0275 46.2119 85.9535L45.9993 84.8118C45.9836 84.7278 46.0389 84.6475 46.1229 84.6318C46.2069 84.6161 46.2873 84.6715 46.3029 84.7555L46.5156 85.8971C46.5313 85.9811 46.4759 86.0615 46.3919 86.0771C46.3823 86.0788 46.3729 86.0798 46.3636 86.0798V86.0795ZM95.3506 83.8298C95.2776 83.8298 95.2129 83.7778 95.1989 83.7038L94.9863 82.5621C94.9706 82.4781 95.0259 82.3978 95.1099 82.3821C95.1939 82.3665 95.2743 82.4218 95.2899 82.5058L95.5026 83.6475C95.5183 83.7315 95.4629 83.8118 95.3789 83.8275C95.3693 83.8291 95.3599 83.8301 95.3506 83.8301V83.8298ZM45.9379 83.7965C45.8649 83.7965 45.8003 83.7445 45.7863 83.6705L45.5736 82.5288C45.5579 82.4448 45.6133 82.3645 45.6973 82.3488C45.7809 82.3331 45.8616 82.3885 45.8773 82.4725L46.0899 83.6141C46.1056 83.6981 46.0503 83.7785 45.9663 83.7941C45.9566 83.7958 45.9473 83.7968 45.9379 83.7968V83.7965ZM94.9249 81.5468C94.8519 81.5468 94.7873 81.4948 94.7733 81.4208L94.5606 80.2791C94.5449 80.1951 94.6003 80.1148 94.6843 80.0991C94.7683 80.0835 94.8486 80.1388 94.8643 80.2228L95.0769 81.3645C95.0926 81.4485 95.0373 81.5288 94.9533 81.5445C94.9436 81.5461 94.9343 81.5471 94.9249 81.5471V81.5468ZM45.5123 81.5135C45.4393 81.5135 45.3746 81.4615 45.3606 81.3875L45.1479 80.2458C45.1323 80.1618 45.1876 80.0815 45.2716 80.0658C45.3553 80.0501 45.4359 80.1055 45.4516 80.1895L45.6643 81.3311C45.6799 81.4151 45.6246 81.4955 45.5406 81.5111C45.5309 81.5128 45.5216 81.5138 45.5123 81.5138V81.5135ZM94.4993 79.2638C94.4263 79.2638 94.3616 79.2118 94.3476 79.1378L94.1349 77.9961C94.1193 77.9121 94.1746 77.8315 94.2586 77.8161C94.3426 77.8005 94.4229 77.8558 94.4386 77.9398L94.6513 79.0815C94.6669 79.1655 94.6116 79.2458 94.5276 79.2615C94.5179 79.2631 94.5086 79.2641 94.4993 79.2641V79.2638ZM45.0866 79.2305C45.0136 79.2305 44.9489 79.1785 44.9349 79.1045L44.7223 77.9628C44.7066 77.8788 44.7619 77.7985 44.8459 77.7828C44.9296 77.7671 45.0103 77.8225 45.0259 77.9065L45.2386 79.0481C45.2543 79.1321 45.1989 79.2125 45.1149 79.2281C45.1053 79.2298 45.0959 79.2308 45.0866 79.2308V79.2305ZM94.0736 76.9808C94.0006 76.9808 93.9359 76.9288 93.9219 76.8545L93.7093 75.7128C93.6936 75.6288 93.7489 75.5485 93.8329 75.5328C93.9169 75.5171 93.9973 75.5725 94.0129 75.6565L94.2256 76.7981C94.2413 76.8821 94.1859 76.9625 94.1019 76.9781C94.0923 76.9798 94.0829 76.9808 94.0736 76.9808ZM44.6609 76.9475C44.5879 76.9475 44.5233 76.8955 44.5093 76.8215L44.2966 75.6798C44.2809 75.5958 44.3363 75.5151 44.4203 75.4998C44.5039 75.4841 44.5846 75.5395 44.6003 75.6235L44.8129 76.7651C44.8286 76.8491 44.7733 76.9295 44.6893 76.9451C44.6796 76.9468 44.6703 76.9478 44.6609 76.9478V76.9475ZM93.6479 74.6978C93.5749 74.6978 93.5103 74.6458 93.4963 74.5718L93.2836 73.4301C93.2679 73.3461 93.3233 73.2658 93.4073 73.2501C93.4913 73.2345 93.5716 73.2898 93.5873 73.3738L93.7999 74.5155C93.8156 74.5995 93.7603 74.6801 93.6763 74.6955C93.6666 74.6971 93.6573 74.6981 93.6479 74.6981V74.6978ZM44.2353 74.6645C44.1623 74.6645 44.0976 74.6125 44.0836 74.5381L43.8709 73.3965C43.8553 73.3125 43.9106 73.2321 43.9946 73.2165C44.0783 73.2008 44.1589 73.2561 44.1746 73.3401L44.3873 74.4818C44.4029 74.5658 44.3476 74.6461 44.2636 74.6618C44.2539 74.6635 44.2446 74.6645 44.2353 74.6645ZM93.2223 72.4148C93.1493 72.4148 93.0846 72.3628 93.0706 72.2888L92.8579 71.1471C92.8423 71.0631 92.8976 70.9828 92.9816 70.9671C93.0656 70.9515 93.1459 71.0068 93.1616 71.0908L93.3743 72.2325C93.3899 72.3165 93.3346 72.3968 93.2506 72.4125C93.2409 72.4141 93.2316 72.4151 93.2223 72.4151V72.4148ZM43.8096 72.3815C43.7366 72.3815 43.6719 72.3295 43.6579 72.2555L43.4453 71.1138C43.4296 71.0298 43.4849 70.9491 43.5689 70.9338C43.6526 70.9181 43.7336 70.9735 43.7489 71.0575L43.9616 72.1991C43.9773 72.2831 43.9219 72.3638 43.8379 72.3791C43.8283 72.3808 43.8189 72.3818 43.8096 72.3818V72.3815ZM92.7966 70.1318C92.7236 70.1318 92.6589 70.0798 92.6449 70.0058L92.4323 68.8641C92.4166 68.7801 92.4719 68.6998 92.5559 68.6841C92.6399 68.6685 92.7203 68.7238 92.7359 68.8078L92.9486 69.9495C92.9643 70.0335 92.9089 70.1138 92.8249 70.1295C92.8153 70.1311 92.8059 70.1321 92.7966 70.1321V70.1318ZM43.3839 70.0985C43.3109 70.0985 43.2463 70.0465 43.2323 69.9725L43.0196 68.8308C43.0039 68.7468 43.0593 68.6665 43.1433 68.6508C43.2269 68.6351 43.3076 68.6905 43.3233 68.7745L43.5359 69.9161C43.5516 70.0001 43.4963 70.0805 43.4123 70.0961C43.4026 70.0978 43.3933 70.0988 43.3839 70.0988V70.0985ZM92.3709 67.8488C92.2979 67.8488 92.2333 67.7968 92.2193 67.7225L92.0066 66.5808C91.9909 66.4968 92.0463 66.4165 92.1303 66.4008C92.2143 66.3851 92.2946 66.4405 92.3103 66.5245L92.5229 67.6661C92.5386 67.7501 92.4833 67.8305 92.3993 67.8461C92.3896 67.8478 92.3803 67.8488 92.3709 67.8488ZM42.9583 67.8155C42.8853 67.8155 42.8206 67.7635 42.8066 67.6895L42.5939 66.5478C42.5783 66.4638 42.6336 66.3835 42.7176 66.3678C42.8013 66.3521 42.8819 66.4075 42.8976 66.4915L43.1103 67.6331C43.1259 67.7171 43.0706 67.7978 42.9866 67.8131C42.9769 67.8148 42.9676 67.8158 42.9583 67.8158V67.8155ZM91.9453 65.5658C91.8723 65.5658 91.8076 65.5138 91.7936 65.4398L91.5809 64.2981C91.5653 64.2141 91.6206 64.1338 91.7046 64.1181C91.7886 64.1025 91.8689 64.1578 91.8846 64.2418L92.0973 65.3835C92.1129 65.4675 92.0576 65.5478 91.9736 65.5635C91.9639 65.5651 91.9546 65.5661 91.9453 65.5661V65.5658ZM42.5326 65.5325C42.4596 65.5325 42.3949 65.4805 42.3809 65.4065L42.1683 64.2648C42.1526 64.1808 42.2079 64.1005 42.2919 64.0848C42.3756 64.0691 42.4563 64.1245 42.4719 64.2085L42.6846 65.3501C42.7003 65.4341 42.6449 65.5145 42.5609 65.5301C42.5513 65.5318 42.5419 65.5328 42.5326 65.5328V65.5325ZM91.5196 63.2828C91.4466 63.2828 91.3819 63.2308 91.3679 63.1568L91.1553 62.0151C91.1396 61.9311 91.1949 61.8508 91.2789 61.8351C91.3626 61.8195 91.4433 61.8748 91.4589 61.9588L91.6716 63.1005C91.6873 63.1845 91.6319 63.2648 91.5479 63.2805C91.5383 63.2821 91.5289 63.2831 91.5196 63.2831V63.2828ZM42.1069 63.2495C42.0339 63.2495 41.9693 63.1975 41.9553 63.1231L41.7426 61.9815C41.7269 61.8975 41.7823 61.8171 41.8663 61.8015C41.9499 61.7858 42.0306 61.8411 42.0463 61.9251L42.2589 63.0668C42.2746 63.1508 42.2193 63.2311 42.1353 63.2468C42.1256 63.2485 42.1163 63.2495 42.1069 63.2495ZM91.0939 60.9998C91.0209 60.9998 90.9563 60.9478 90.9423 60.8735L90.7296 59.7318C90.7139 59.6478 90.7693 59.5675 90.8533 59.5518C90.9369 59.5361 91.0176 59.5915 91.0333 59.6755L91.2459 60.8171C91.2616 60.9011 91.2063 60.9815 91.1223 60.9971C91.1126 60.9988 91.1033 60.9998 91.0939 60.9998ZM41.6816 60.9665C41.6086 60.9665 41.5439 60.9145 41.5299 60.8405L41.3173 59.6988C41.3016 59.6148 41.3569 59.5341 41.4409 59.5188C41.5249 59.5031 41.6053 59.5585 41.6209 59.6425L41.8336 60.7841C41.8493 60.8681 41.7939 60.9488 41.7099 60.9641C41.7003 60.9658 41.6909 60.9668 41.6816 60.9668V60.9665ZM90.6686 58.7168C90.5956 58.7168 90.5309 58.6648 90.5169 58.5908L90.3043 57.4491C90.2886 57.3651 90.3439 57.2845 90.4279 57.2691C90.5116 57.2535 90.5923 57.3088 90.6079 57.3928L90.8206 58.5345C90.8363 58.6185 90.7809 58.6991 90.6969 58.7145C90.6873 58.7161 90.6779 58.7171 90.6686 58.7171V58.7168ZM41.2563 58.6835C41.1833 58.6835 41.1186 58.6315 41.1046 58.5575L40.9609 57.7861C40.9373 57.6581 40.9189 57.5281 40.9069 57.3995C40.8989 57.3145 40.9616 57.2391 41.0463 57.2315C41.1313 57.2238 41.2066 57.2861 41.2143 57.3708C41.2253 57.4901 41.2423 57.6108 41.2643 57.7295L41.4079 58.5008C41.4236 58.5848 41.3683 58.6651 41.2843 58.6808C41.2746 58.6825 41.2653 58.6835 41.2559 58.6835H41.2563ZM90.2433 56.4338C90.1703 56.4338 90.1056 56.3818 90.0916 56.3075L89.8789 55.1658C89.8633 55.0818 89.9186 55.0015 90.0026 54.9858C90.0863 54.9701 90.1669 55.0255 90.1826 55.1095L90.3953 56.2511C90.4109 56.3351 90.3556 56.4155 90.2716 56.4311C90.2619 56.4328 90.2526 56.4338 90.2433 56.4338ZM41.1189 56.3838C41.1089 56.3838 41.0989 56.3828 41.0889 56.3808C41.0053 56.3645 40.9506 56.2831 40.9673 56.1995C41.0446 55.8051 41.1783 55.4241 41.3643 55.0661C41.4036 54.9905 41.4969 54.9611 41.5726 55.0005C41.6483 55.0398 41.6776 55.1331 41.6383 55.2088C41.4659 55.5405 41.3419 55.8938 41.2703 56.2591C41.2559 56.3328 41.1913 56.3838 41.1189 56.3838ZM42.1749 54.3511C42.1366 54.3511 42.0983 54.3368 42.0683 54.3081C42.0066 54.2491 42.0046 54.1515 42.0636 54.0898C42.3426 53.7985 42.6606 53.5491 43.0093 53.3491C43.0833 53.3068 43.1776 53.3321 43.2199 53.4061C43.2623 53.4801 43.2369 53.5745 43.1629 53.6168C42.8399 53.8021 42.5453 54.0331 42.2866 54.3031C42.2563 54.3348 42.2156 54.3508 42.1749 54.3508V54.3511ZM89.8176 54.1505C89.7446 54.1505 89.6799 54.0985 89.6659 54.0245L89.4533 52.8828C89.4376 52.7988 89.4929 52.7185 89.5769 52.7028C89.6606 52.6871 89.7413 52.7425 89.7569 52.8265L89.9696 53.9681C89.9853 54.0521 89.9299 54.1328 89.8459 54.1481C89.8363 54.1498 89.8269 54.1508 89.8176 54.1508V54.1505ZM44.1613 53.2108C44.0916 53.2108 44.0283 53.1631 44.0113 53.0921C43.9913 53.0091 44.0426 52.9258 44.1256 52.9061C44.1956 52.8895 44.2673 52.8741 44.3383 52.8608L45.2736 52.6865C45.3576 52.6708 45.4379 52.7261 45.4536 52.8101C45.4693 52.8941 45.4139 52.9745 45.3299 52.9901L44.3946 53.1645C44.3286 53.1768 44.2623 53.1908 44.1973 53.2065C44.1853 53.2095 44.1729 53.2108 44.1613 53.2108ZM46.4433 52.7801C46.3703 52.7801 46.3056 52.7281 46.2916 52.6538C46.2759 52.5698 46.3313 52.4895 46.4153 52.4738L47.5569 52.2611C47.6406 52.2455 47.7213 52.3008 47.7369 52.3848C47.7526 52.4688 47.6973 52.5491 47.6133 52.5648L46.4716 52.7775C46.4619 52.7791 46.4526 52.7801 46.4433 52.7801ZM48.7263 52.3545C48.6533 52.3545 48.5886 52.3025 48.5746 52.2281C48.5589 52.1441 48.6143 52.0638 48.6983 52.0481L49.8399 51.8355C49.9239 51.8198 50.0043 51.8751 50.0199 51.9591C50.0356 52.0431 49.9803 52.1235 49.8963 52.1391L48.7546 52.3518C48.7449 52.3535 48.7356 52.3545 48.7263 52.3545ZM51.0093 51.9288C50.9363 51.9288 50.8716 51.8768 50.8576 51.8025C50.8419 51.7185 50.8973 51.6381 50.9813 51.6225L52.1229 51.4098C52.2066 51.3941 52.2873 51.4495 52.3029 51.5335C52.3186 51.6175 52.2633 51.6978 52.1793 51.7135L51.0376 51.9261C51.0279 51.9278 51.0186 51.9288 51.0093 51.9288ZM89.3916 51.8671C89.3186 51.8671 89.2539 51.8151 89.2399 51.7411L89.0273 50.5995C89.0116 50.5155 89.0669 50.4351 89.1509 50.4195C89.2346 50.4038 89.3153 50.4591 89.3309 50.5431L89.5436 51.6848C89.5593 51.7688 89.5039 51.8491 89.4199 51.8648C89.4103 51.8665 89.4009 51.8675 89.3916 51.8675V51.8671ZM53.2923 51.5031C53.2193 51.5031 53.1546 51.4511 53.1406 51.3771C53.1249 51.2931 53.1803 51.2128 53.2643 51.1971L54.4059 50.9845C54.4896 50.9688 54.5703 51.0241 54.5859 51.1081C54.6016 51.1921 54.5463 51.2725 54.4623 51.2881L53.3206 51.5008C53.3109 51.5025 53.3016 51.5035 53.2923 51.5035V51.5031ZM55.5753 51.0775C55.5023 51.0775 55.4376 51.0255 55.4236 50.9515C55.4079 50.8675 55.4633 50.7871 55.5473 50.7715L56.6889 50.5588C56.7729 50.5431 56.8533 50.5985 56.8689 50.6825C56.8846 50.7665 56.8293 50.8468 56.7453 50.8625L55.6036 51.0751C55.5939 51.0768 55.5846 51.0778 55.5753 51.0778V51.0775ZM57.8583 50.6518C57.7853 50.6518 57.7206 50.5998 57.7066 50.5258C57.6909 50.4418 57.7463 50.3615 57.8303 50.3458L58.9719 50.1331C59.0556 50.1175 59.1363 50.1728 59.1519 50.2568C59.1676 50.3408 59.1123 50.4211 59.0283 50.4368L57.8866 50.6495C57.8769 50.6511 57.8676 50.6521 57.8583 50.6521V50.6518ZM60.1413 50.2261C60.0683 50.2261 60.0036 50.1741 59.9896 50.1001C59.9739 50.0161 60.0293 49.9358 60.1133 49.9201L61.2549 49.7075C61.3386 49.6918 61.4193 49.7471 61.4349 49.8311C61.4506 49.9151 61.3953 49.9955 61.3113 50.0111L60.1696 50.2238C60.1599 50.2255 60.1506 50.2265 60.1413 50.2265V50.2261ZM62.4243 49.8005C62.3513 49.8005 62.2866 49.7485 62.2726 49.6745C62.2569 49.5905 62.3123 49.5101 62.3963 49.4945L63.5379 49.2818C63.6216 49.2661 63.7023 49.3215 63.7179 49.4055C63.7336 49.4895 63.6783 49.5698 63.5943 49.5855L62.4526 49.7981C62.4429 49.7998 62.4336 49.8008 62.4243 49.8008V49.8005ZM88.9656 49.5835C88.8926 49.5835 88.8279 49.5315 88.8139 49.4571L88.7073 48.8851C88.6733 48.7025 88.6259 48.5211 88.5669 48.3461C88.5396 48.2655 88.5829 48.1778 88.6639 48.1505C88.7446 48.1231 88.8323 48.1665 88.8596 48.2475C88.9233 48.4361 88.9739 48.6315 89.0109 48.8285L89.1176 49.4005C89.1333 49.4845 89.0779 49.5651 88.9939 49.5805C88.9843 49.5821 88.9749 49.5831 88.9656 49.5831V49.5835ZM64.7076 49.3748C64.6346 49.3748 64.5699 49.3228 64.5559 49.2488C64.5403 49.1648 64.5956 49.0845 64.6796 49.0688L65.8213 48.8561C65.9049 48.8405 65.9856 48.8958 66.0013 48.9798C66.0169 49.0638 65.9616 49.1441 65.8776 49.1598L64.7359 49.3725C64.7263 49.3741 64.7169 49.3751 64.7076 49.3751V49.3748ZM66.9906 48.9491C66.9176 48.9491 66.8529 48.8971 66.8389 48.8231C66.8233 48.7391 66.8786 48.6588 66.9626 48.6431L68.1043 48.4305C68.1879 48.4148 68.2686 48.4701 68.2843 48.5541C68.2999 48.6381 68.2446 48.7185 68.1606 48.7341L67.0189 48.9468C67.0093 48.9485 66.9999 48.9495 66.9906 48.9495V48.9491ZM69.2736 48.5235C69.2006 48.5235 69.1359 48.4715 69.1219 48.3975C69.1063 48.3135 69.1616 48.2331 69.2456 48.2175L70.3873 48.0048C70.4713 47.9891 70.5516 48.0445 70.5673 48.1285C70.5829 48.2125 70.5276 48.2928 70.4436 48.3085L69.3019 48.5211C69.2923 48.5228 69.2829 48.5238 69.2736 48.5238V48.5235ZM71.5566 48.0978C71.4836 48.0978 71.4189 48.0458 71.4049 47.9718C71.3893 47.8878 71.4446 47.8075 71.5286 47.7918L72.6703 47.5791C72.7539 47.5635 72.8346 47.6188 72.8503 47.7028C72.8659 47.7868 72.8106 47.8675 72.7266 47.8828L71.5849 48.0955C71.5753 48.0971 71.5659 48.0981 71.5566 48.0981V48.0978ZM73.8396 47.6721C73.7666 47.6721 73.7019 47.6201 73.6879 47.5458C73.6723 47.4618 73.7276 47.3815 73.8116 47.3658L74.9533 47.1531C75.0373 47.1375 75.1176 47.1928 75.1333 47.2768C75.1489 47.3608 75.0936 47.4415 75.0096 47.4568L73.8679 47.6695C73.8583 47.6711 73.8489 47.6721 73.8396 47.6721ZM88.1903 47.4188C88.1416 47.4188 88.0939 47.3958 88.0639 47.3531C87.8499 47.0485 87.5929 46.7758 87.3006 46.5428C87.2339 46.4898 87.2229 46.3925 87.2763 46.3258C87.3293 46.2591 87.4266 46.2481 87.4933 46.3015C87.8086 46.5528 88.0856 46.8471 88.3166 47.1758C88.3656 47.2455 88.3489 47.3418 88.2789 47.3908C88.2519 47.4098 88.2209 47.4188 88.1903 47.4188ZM76.1229 47.2468C76.0499 47.2468 75.9853 47.1948 75.9713 47.1205C75.9556 47.0365 76.0109 46.9561 76.0949 46.9405L77.2366 46.7278C77.3206 46.7121 77.4009 46.7675 77.4166 46.8515C77.4323 46.9355 77.3769 47.0161 77.2929 47.0315L76.1513 47.2441C76.1416 47.2458 76.1323 47.2468 76.1229 47.2468ZM78.4059 46.8211C78.3329 46.8211 78.2683 46.7691 78.2543 46.6948C78.2386 46.6108 78.2939 46.5305 78.3779 46.5148L79.5196 46.3021C79.6036 46.2865 79.6839 46.3418 79.6996 46.4258C79.7153 46.5098 79.6599 46.5905 79.5759 46.6058L78.4343 46.8185C78.4246 46.8201 78.4153 46.8211 78.4059 46.8211ZM80.6889 46.3955C80.6159 46.3955 80.5513 46.3435 80.5373 46.2691C80.5216 46.1851 80.5769 46.1048 80.6609 46.0891L81.8026 45.8765C81.8866 45.8608 81.9669 45.9161 81.9826 46.0001C81.9983 46.0841 81.9429 46.1648 81.8589 46.1801L80.7173 46.3928C80.7076 46.3945 80.6983 46.3955 80.6889 46.3955ZM86.3989 45.9905C86.3793 45.9905 86.3596 45.9868 86.3403 45.9788C85.9946 45.8371 85.6313 45.7458 85.2609 45.7078C85.1873 45.7001 85.1313 45.6421 85.1233 45.5718L84.9669 45.6008C84.9669 45.6008 84.9659 45.6008 84.9653 45.6008L84.1503 45.7528C84.1503 45.7528 84.1489 45.7528 84.1483 45.7531L83.0006 45.9671C82.9166 45.9828 82.8363 45.9275 82.8206 45.8435C82.8049 45.7595 82.8603 45.6791 82.9443 45.6635L85.0676 45.2678C85.1513 45.2521 85.2319 45.3075 85.2476 45.3915C85.2483 45.3951 85.2489 45.3988 85.2493 45.4021C85.2633 45.3995 85.2779 45.3988 85.2926 45.4005C85.6926 45.4415 86.0846 45.5398 86.4576 45.6928C86.5366 45.7251 86.5743 45.8155 86.5419 45.8941C86.5176 45.9538 86.4599 45.9901 86.3989 45.9901V45.9905Z" fill="#003149"/>
<path d="M96.6403 97.7568C96.6296 98.3338 96.2566 98.9451 95.9369 99.4215L87.8073 111.529C87.5186 111.958 87.2829 112.252 86.8896 112.422C86.7696 112.473 86.6353 112.514 86.4799 112.543L53.1343 118.758C51.7696 119.012 50.4569 118.112 50.2029 116.747L38.7329 55.2108C38.4786 53.8461 39.3786 52.5335 40.7436 52.2795L84.1269 44.1931C85.4916 43.9388 86.8043 44.8388 87.0583 46.2038L96.6203 97.5038C96.6356 97.5868 96.6423 97.6715 96.6403 97.7568Z" fill="white"/>
<path d="M96.6402 97.7568C96.6295 98.3338 96.2565 98.9452 95.9369 99.4215L87.8072 111.529C87.5185 111.959 87.2829 112.252 86.8895 112.422C86.7772 112.341 86.6915 112.217 86.6645 112.054L85.3162 101.392C85.2055 100.728 85.6355 100.104 86.2765 99.9968L96.3372 97.7192C96.4475 97.7005 96.5509 97.7165 96.6405 97.7572L96.6402 97.7568Z" fill="#E2F1FF"/>
<path d="M80.5546 72.0176L48.269 78.0353C47.908 78.1026 47.5606 77.8646 47.4933 77.5036C47.426 77.1426 47.6643 76.7956 48.0253 76.7283L80.311 70.7106C80.672 70.6433 81.0193 70.8813 81.0866 71.2423C81.154 71.6033 80.9156 71.9503 80.5546 72.0176Z" fill="#E2F1FF"/>
<path d="M72.8348 109.8L54.7748 113.167C54.4484 113.227 54.1304 112.989 54.0644 112.634C53.9981 112.279 54.2091 111.942 54.5351 111.881L72.5951 108.515C72.9214 108.454 73.2394 108.692 73.3054 109.047C73.3718 109.402 73.1608 109.74 72.8348 109.8Z" fill="#E2F1FF"/>
<path d="M78.9554 81.3324L49.8287 86.7614C49.5031 86.8221 49.1844 86.5787 49.1171 86.2177C49.0497 85.8567 49.2594 85.5151 49.5851 85.4544L78.7117 80.0254C79.0374 79.9647 79.3561 80.2081 79.4234 80.5691C79.4907 80.9301 79.2811 81.2717 78.9554 81.3324Z" fill="#E2F1FF"/>
<path d="M85.7634 89.08L51.5564 95.456C51.1737 95.5274 50.8091 95.2927 50.7417 94.9317C50.6744 94.5707 50.9301 94.2204 51.3127 94.149L85.5197 87.773C85.9024 87.7017 86.2671 87.9364 86.3344 88.2974C86.4017 88.6584 86.1461 89.0087 85.7634 89.08Z" fill="#E2F1FF"/>
<path d="M84.8799 98.2609L53.1306 104.179C52.7756 104.245 52.4329 104.006 52.3656 103.645C52.2982 103.284 52.5316 102.938 52.8869 102.872L84.6362 96.9539C84.9912 96.8876 85.3339 97.1266 85.4012 97.4876C85.4686 97.8486 85.2352 98.1949 84.8799 98.2609Z" fill="#E2F1FF"/>
<mask id="mask0_5524_550" style="mask-type:luminance" maskUnits="userSpaceOnUse" x="55" y="52" width="19" height="18">
<path d="M70.5552 67.2348C73.9459 63.8441 73.9459 58.3468 70.5552 54.9561C67.1646 51.5655 61.6672 51.5655 58.2765 54.9561C54.8859 58.3468 54.8859 63.8441 58.2765 67.2348C61.6672 70.6255 67.1646 70.6255 70.5552 67.2348Z" fill="white"/>
</mask>
<g mask="url(#mask0_5524_550)">
<path d="M62.6057 61.6676C62.1433 61.8783 61.79 62.0939 61.5677 62.2403C61.2463 62.4516 60.2643 63.1199 59.4197 64.3513C58.2413 66.0689 57.864 68.4709 58.246 70.5189C58.2797 70.6989 58.4533 70.8176 58.6337 70.7839L73.3107 68.0483C73.4907 68.0146 73.6103 67.8416 73.5767 67.6616C73.1953 65.6136 71.978 63.5089 70.26 62.3309C69.056 61.5053 67.9363 61.2309 67.4957 61.1356C67.2357 61.0793 66.828 61.0053 66.321 60.9753C64.554 60.8706 63.2017 61.3959 62.6053 61.6679L62.6057 61.6676Z" fill="#E2F1FF"/>
<path d="M73.3124 68.0562L58.6354 70.7918C58.4507 70.8262 58.2724 70.7045 58.238 70.5202C58.0457 69.4889 58.0464 68.3789 58.2397 67.3099C58.441 66.1965 58.8467 65.1718 59.4127 64.3465C59.8114 63.7655 60.508 62.9268 61.5627 62.2332C61.8904 62.0178 62.24 61.8248 62.602 61.6598C63.411 61.2912 64.7134 60.8715 66.3217 60.9665C66.7187 60.9898 67.1144 61.0439 67.4977 61.1269C68.7317 61.3939 69.6837 61.9252 70.2647 62.3235C71.09 62.8895 71.8377 63.6992 72.4267 64.6652C72.9924 65.5928 73.3927 66.6282 73.585 67.6595C73.6194 67.8439 73.497 68.0215 73.3124 68.0559V68.0562ZM64.4277 61.1022C63.6854 61.2405 63.068 61.4658 62.6094 61.6752C62.2484 61.8398 61.8994 62.0322 61.5724 62.2472C60.5197 62.9395 59.8247 63.7762 59.4267 64.3559C58.862 65.1792 58.4574 66.2015 58.256 67.3125C58.063 68.3795 58.0624 69.4878 58.2544 70.5168C58.287 70.6922 58.4567 70.8078 58.6324 70.7752L73.3094 68.0395C73.485 68.0068 73.6014 67.8375 73.5687 67.6625C73.377 66.6332 72.977 65.5998 72.4127 64.6738C71.8247 63.7098 71.079 62.9018 70.2557 62.3372C69.6757 61.9395 68.726 61.4095 67.4944 61.1428C67.112 61.0602 66.717 61.0062 66.321 60.9828C65.628 60.9418 64.9917 60.9965 64.4277 61.1019V61.1022Z" fill="#E2F1FF"/>
<path d="M65.8756 59.6137C67.0524 58.4369 67.0524 56.5289 65.8756 55.3522C64.6989 54.1754 62.7909 54.1754 61.6141 55.3522C60.4374 56.5289 60.4374 58.4369 61.6141 59.6137C62.7909 60.7904 64.6989 60.7904 65.8756 59.6137Z" fill="#E2F1FF"/>
<path d="M64.2986 60.4533C62.6606 60.7587 61.08 59.6743 60.7746 58.0367C60.4693 56.3987 61.5536 54.818 63.1913 54.5127C64.8293 54.2073 66.41 55.2917 66.7153 56.9293C67.0206 58.5673 65.9363 60.148 64.2986 60.4533ZM63.1943 54.5287C61.5653 54.8323 60.4873 56.4047 60.7906 58.0333C61.0943 59.6623 62.6666 60.7403 64.2953 60.437C65.9243 60.1333 67.0023 58.561 66.699 56.9323C66.3953 55.3033 64.823 54.2253 63.1943 54.529V54.5287Z" fill="#E2F1FF"/>
</g>
<path d="M66.126 70.1714C63.7006 70.6234 61.2446 70.1041 59.2103 68.7087C57.1756 67.3134 55.8063 65.2094 55.3543 62.7844C54.9023 60.3591 55.4216 57.9031 56.817 55.8687C58.2123 53.8341 60.3163 52.4647 62.7413 52.0127C65.1666 51.5607 67.6226 52.0801 69.657 53.4754C71.6916 54.8707 73.061 56.9747 73.513 59.3997C73.965 61.8251 73.4456 64.2811 72.0503 66.3154C70.655 68.3497 68.551 69.7194 66.126 70.1714ZM62.9443 53.1007C60.8096 53.4987 58.958 54.7037 57.73 56.4944C56.502 58.2851 56.0446 60.4467 56.4426 62.5814C56.8406 64.7161 58.0456 66.5677 59.8363 67.7957C61.627 69.0237 63.7886 69.4811 65.9233 69.0831C68.058 68.6851 69.9096 67.4801 71.1376 65.6894C72.3656 63.8987 72.823 61.7371 72.425 59.6024C72.027 57.4677 70.8219 55.6161 69.0313 54.3881C67.2406 53.1601 65.079 52.7027 62.9443 53.1007Z" fill="#E2F1FF"/>
<path d="M96.1417 90.8423C102.408 90.8423 107.487 85.7628 107.487 79.4969C107.487 73.2311 102.408 68.1516 96.1417 68.1516C89.8759 68.1516 84.7964 73.2311 84.7964 79.4969C84.7964 85.7628 89.8759 90.8423 96.1417 90.8423Z" fill="#28C76F"/>
<path d="M96.1276 91.0254C95.306 91.0254 94.487 90.9367 93.6776 90.759C92.222 90.4397 90.858 89.8487 89.6236 89.002C88.3893 88.1554 87.3463 87.096 86.5243 85.853C85.673 84.5664 85.097 83.138 84.8116 81.6087C84.5266 80.0794 84.5496 78.5394 84.88 77.0324C85.1993 75.5767 85.7903 74.2127 86.6366 72.9784C87.4833 71.744 88.5426 70.701 89.7856 69.879C91.0726 69.0277 92.5006 68.4517 94.03 68.1664C95.5596 67.8814 97.0993 67.9044 98.6063 68.2347C100.062 68.554 101.426 69.145 102.66 69.9917C103.895 70.8384 104.938 71.8977 105.76 73.1407C106.611 74.4277 107.187 75.8557 107.472 77.385C107.757 78.9147 107.734 80.4544 107.404 81.9614C107.085 83.417 106.494 84.781 105.647 86.0154C104.8 87.2497 103.741 88.2927 102.498 89.1147C101.211 89.966 99.783 90.542 98.2536 90.8274C97.5456 90.9594 96.8356 91.0254 96.1273 91.0254H96.1276ZM96.1563 68.329C95.4703 68.329 94.7823 68.393 94.0963 68.5207C92.6143 68.797 91.231 69.355 89.9846 70.1794C88.7806 70.9757 87.7543 71.986 86.9343 73.182C86.114 74.378 85.5416 75.6994 85.2323 77.1094C84.9123 78.569 84.89 80.0607 85.1663 81.5424C85.4426 83.0244 86.0006 84.4074 86.825 85.654C87.6213 86.858 88.6316 87.8844 89.8276 88.7044C91.0236 89.5247 92.345 90.097 93.755 90.4064C95.2146 90.7264 96.7063 90.7487 98.188 90.4724C99.67 90.196 101.053 89.638 102.3 88.8137C103.504 88.0174 104.53 87.007 105.35 85.811C106.17 84.615 106.743 83.2937 107.052 81.8837C107.372 80.424 107.394 78.9324 107.118 77.4507C106.842 75.9687 106.284 74.5854 105.459 73.339C104.663 72.135 103.653 71.1087 102.457 70.2887C101.261 69.4684 99.9393 68.8957 98.5293 68.5867C97.7453 68.4147 96.9523 68.3287 96.1563 68.3287V68.329Z" fill="#0C3148"/>
<path d="M102.517 74.4598L100.693 73.2791C100.685 73.2738 100.316 73.8688 100.311 73.8768L95.1105 81.9111C95.1052 81.9191 95.0945 81.9214 95.0865 81.9161L90.2915 78.8124C90.2835 78.8071 90.2729 78.8094 90.2675 78.8174L89.0869 80.6411C89.0815 80.6491 89.0839 80.6597 89.0919 80.6651L93.9015 83.7778C93.8962 83.7861 93.8985 83.7968 93.9065 83.8021L95.7305 84.9828C95.7385 84.9881 95.7492 84.9858 95.7545 84.9778L95.7689 84.9871L96.9592 83.1484C96.9642 83.1404 96.9622 83.1301 96.9545 83.1248L102.164 75.0761C102.169 75.0681 102.526 74.4648 102.518 74.4594L102.517 74.4598Z" fill="white"/>
</g>
<defs>
<clipPath id="clip0_5524_550">
<rect width="150" height="150" fill="white" transform="translate(0.285156 0.5)"/>
</clipPath>
</defs>
</svg>
