<svg xmlns="http://www.w3.org/2000/svg" xmlns:xlink="http://www.w3.org/1999/xlink" width="500" height="128" viewBox="0 0 500 128">
  <defs>
    <clipPath id="clip-path">
      <path id="Rectangle_836" data-name="Rectangle 836" d="M10,0H490a10,10,0,0,1,10,10V128a0,0,0,0,1,0,0H0a0,0,0,0,1,0,0V10A10,10,0,0,1,10,0Z" transform="translate(787 282)" fill="#fff" stroke="#707070" stroke-width="1"/>
    </clipPath>
    <clipPath id="clip-path-2">
      <path id="Path_8171" data-name="Path 8171" d="M-5.457,9.193v128h500v-128Z" transform="translate(5.457 -9.193)" fill="none"/>
    </clipPath>
  </defs>
  <g id="email-header-image" transform="translate(-787 -282)">
    <g id="Mask_Group_74" data-name="Mask Group 74" clip-path="url(#clip-path)">
      <rect id="Rectangle_835" data-name="Rectangle 835" width="500" height="128" transform="translate(787 282)" fill="#dfdfdf"/>
      <g id="Group_2033" data-name="Group 2033" transform="translate(792.457 272.807)">
        <g id="Group_2032" data-name="Group 2032" transform="translate(-5.457 9.193)" clip-path="url(#clip-path-2)">
          <g id="Group_2031" data-name="Group 2031" transform="translate(-9.004 0)">
            <g id="Group_1979" data-name="Group 1979" transform="translate(9.005)">
              <path id="Path_8163" data-name="Path 8163" d="M178.052,109.58c-43.653,0-30.83-38.307-56.592-38.307-14.2,0-31.826,14.116-45.768,14.116-9.035,0-12.514-4.553-12.514-11.508,0-4.046.939-8.585.939-12.65,0-6.591-2.464-11.94-15.376-11.94-11.873,0-34.7,4.3-54.2,10.889v59.259H297.628C279.071,108.466,259.038,96.8,237.751,96.8,216.642,96.8,199.965,109.58,178.052,109.58Z" transform="translate(5.457 8.561)" fill="#03a9f5"/>
              <path id="Path_8164" data-name="Path 8164" d="M494.542,9.193h-500V77.934c19.5-6.588,42.325-10.889,54.2-10.889,12.912,0,15.376,5.35,15.376,11.94,0,4.066-.939,8.6-.939,12.65,0,6.954,3.479,11.508,12.514,11.508,13.942,0,31.566-14.116,45.768-14.116,25.762,0,12.939,38.307,56.592,38.307,21.913,0,38.59-12.784,59.7-12.784,21.287,0,41.32,11.671,59.877,22.643H494.542Z" transform="translate(5.457 -9.193)" fill="#287cc4"/>
            </g>
            <g id="Group_1980" data-name="Group 1980" transform="translate(0 43.99)">
              <path id="Path_8165" data-name="Path 8165" d="M361.374,126.349c-39.068,0-51.607-10.616-62.81-20.1-8.976-7.6-17.453-14.775-38.615-15.553-11.469-.418-24.961.812-38.012,2.005-11.2,1.024-22.785,2.082-33.006,2.082-28.662,0-37.128-10.222-43.93-18.437-5.027-6.068-9.367-11.31-20.511-11.31-5.552,0-12.4,1.756-19.022,3.455-6.707,1.72-13.043,3.344-18.314,3.344-10.234,0-11.417-6.3-11.417-11.034,0-1.542.119-3.176.237-4.755s.235-3.2.235-4.724c0-6.12-1.891-10.2-11.114-10.2-14.619,0-52.517,9.541-74.267,20.264l-1.032-1.21c22-10.845,60.433-20.5,75.3-20.5,11.465,0,13.011,5.884,13.011,11.639,0,1.565-.121,3.212-.239,4.8-.116,1.56-.233,3.173-.233,4.675,0,6.813,2.758,9.592,9.52,9.592,4.96,0,11.152-1.587,17.707-3.269,6.768-1.736,13.766-3.53,19.629-3.53,12.191,0,17.011,5.822,22.116,11.984,6.9,8.326,14.712,17.763,42.325,17.763,10.107,0,21.634-1.052,32.778-2.072,13.128-1.2,26.706-2.438,38.33-2.014,21.953.807,30.688,8.2,39.935,16.031,12.85,10.877,26.13,22.129,76.45,19.151l.148,1.438C371.1,126.2,366.046,126.349,361.374,126.349Z" transform="translate(10.204 -39.683)" fill="#aab9c5"/>
            </g>
            <path id="Path_8166" data-name="Path 8166" d="M10.221,40.936,1.094,34,15.2,30.719Z" transform="translate(20.337 0.338)" fill="#fff"/>
            <g id="Group_1981" data-name="Group 1981" transform="translate(44.488 31.781)">
              <path id="Path_8167" data-name="Path 8167" d="M84.064,61.853a.373.373,0,0,0,.121-.281h-1.9c0-1,1.669-1.45,6.44-2.487,1.144-.248,2.665-.58,3.716-.867-1.174-.153-2.906-.271-4.2-.361-4.492-.309-6.324-.473-6.577-1.436s1.244-1.674,5.59-3.447c1-.41,2.326-.949,3.268-1.392-1.168.081-2.783.278-4,.427-4.456.545-6.288.731-6.865-.143s.529-1.8,4.08-4.435c.8-.6,1.857-1.379,2.606-2-1.058.339-2.437.861-3.486,1.257-4.344,1.64-5.822,2.117-6.692,1.436s-.2-1.806,2.109-5.093c.554-.789,1.286-1.829,1.76-2.617-.878.551-2.013,1.356-2.872,1.966-3.6,2.555-4.852,3.341-5.952,2.861-1.144-.5-.764-1.9.285-5.311.283-.919.66-2.145.842-3.017-.7.687-1.61,1.713-2.291,2.483-2.6,2.946-3.7,4.134-4.991,3.819-1.267-.309-1.248-1.746-1.081-5.259.047-.974.108-2.284.059-3.17-.558.769-1.26,1.941-1.785,2.815-1.941,3.235-2.788,4.543-4.112,4.379s-1.574-1.6-2.049-5.116c-.133-.983-.313-2.308-.525-3.177-.442.817-.975,2.08-1.37,3.018-1.423,3.382-2.032,4.751-3.4,4.7-1.354-.053-1.794-1.47-2.745-4.957-.266-.971-.622-2.28-.95-3.122-.353.847-.744,2.174-1.032,3.155-1.015,3.447-1.481,4.848-2.826,4.881h-.049c-1.335,0-1.927-1.405-3.232-4.812-.36-.946-.852-2.225-1.263-3.038-.279.871-.552,2.249-.751,3.265-.687,3.466-1.019,4.875-2.346,4.978-1.371.094-2.1-1.277-3.727-4.695-.436-.913-1.026-2.148-1.5-2.93a33.438,33.438,0,0,0-.516,3.4c-.421,3.584-.632,4.83-1.914,4.985-1.417.185-2.309-1.3-4.2-4.653-.486-.863-1.144-2.03-1.65-2.763a30.133,30.133,0,0,0-.311,3.776c-.142,3.434-.245,4.53-1.43,4.727-2.085.349-3.342-1.948-4.793-4.607-.624-1.146-1.569-2.878-2.079-3.1a.535.535,0,0,0,.264.012l-.5-1.392c1.734-.362,2.711,1.44,4.069,3.93a16.314,16.314,0,0,0,2.331,3.555,26.767,26.767,0,0,0,.243-3.167c.156-3.724.3-5.524,1.791-5.736,1.275-.189,1.973.938,3.811,4.2a35.886,35.886,0,0,0,2,3.282c.2-.831.359-2.183.474-3.174.423-3.59.67-5.182,2.085-5.322,1.311-.14,2.03,1.2,3.6,4.493a35.042,35.042,0,0,0,1.667,3.222c.273-.835.546-2.218.747-3.227.711-3.6,1.055-5.057,2.458-5.131,1.343-.05,1.95,1.309,3.255,4.715a33.6,33.6,0,0,0,1.368,3.249,33.468,33.468,0,0,0,1.066-3.229c1.034-3.512,1.512-4.942,2.9-4.942h.009c1.385.006,1.827,1.427,2.783,4.93a32.244,32.244,0,0,0,1.021,3.3c.457-.8,1.039-2.18,1.463-3.186,1.438-3.418,2.054-4.793,3.46-4.7,1.39.108,1.643,1.565,2.128,5.146a30.609,30.609,0,0,0,.573,3.356c.584-.753,1.39-2.1,1.977-3.072,1.956-3.258,2.8-4.561,4.158-4.33,1.375.244,1.36,1.721,1.187,5.337a30.4,30.4,0,0,0-.04,3.4c.742-.665,1.844-1.913,2.642-2.816,2.629-2.976,3.75-4.16,5.036-3.744,1.309.429.92,1.88-.165,5.412a29.926,29.926,0,0,0-.9,3.367c.911-.512,2.375-1.551,3.431-2.3,3.466-2.463,4.917-3.437,6.047-2.78s.273,1.979-1.971,5.165A34.82,34.82,0,0,0,77.9,46.836c1.049-.284,2.834-.958,4.118-1.444,4.3-1.623,6.081-2.246,6.918-1.348.819.877-.51,1.925-3.868,4.419-1.062.788-2.54,1.886-3.249,2.564,1.1-.039,3.022-.274,4.406-.443,4.793-.586,6.757-.782,7.218.273.44,1-1.2,1.718-5.29,3.388-1.311.535-3.132,1.278-4.078,1.786,1.079.164,2.972.294,4.34.388,4.723.325,6.817.514,6.948,1.614.123,1.039-1.673,1.473-6.114,2.438A29.528,29.528,0,0,0,84.064,61.853Z" transform="translate(-13.249 -31.221)" fill="#fff"/>
            </g>
            <g id="Group_1982" data-name="Group 1982" transform="translate(51.125 11.838)">
              <path id="Path_8168" data-name="Path 8168" d="M25.965,31.419c-5.082,0-9.217-3.145-9.217-7.01s4.135-7.01,9.217-7.01,9.217,3.145,9.217,7.01S31.047,31.419,25.965,31.419Zm0-12.578c-4.037,0-7.32,2.5-7.32,5.568s3.284,5.568,7.32,5.568,7.32-2.5,7.32-5.568S30,18.841,25.965,18.841Z" transform="translate(-16.748 -17.398)" fill="#fff"/>
            </g>
            <g id="Group_1983" data-name="Group 1983" transform="translate(178.556 87.307)">
              <path id="Path_8169" data-name="Path 8169" d="M98.008,91.125c-7.764,0-14.081-4.8-14.081-10.71s6.317-10.71,14.081-10.71,14.081,4.8,14.081,10.71S105.772,91.125,98.008,91.125Zm0-19.977c-6.719,0-12.184,4.157-12.184,9.267s5.465,9.267,12.184,9.267,12.184-4.157,12.184-9.267S104.726,71.149,98.008,71.149Z" transform="translate(-83.927 -69.706)" fill="#fff"/>
            </g>
          </g>
        </g>
      </g>
      <path id="Path_8194" data-name="Path 8194" d="M-21053.424,15476c1.139,28.173,186.813,47.952,235.828,39.629s73.061,45.778,73.061,45.778v-105.429S-21054.562,15447.827-21053.424,15476Z" transform="translate(22069 -15194)" fill="#fff" opacity="0.38"/>
    </g>
    <g id="Group_2042" data-name="Group 2042" transform="translate(459.926 -665.149)">
      <circle id="Ellipse_291" data-name="Ellipse 291" cx="2.207" cy="2.207" r="2.207" transform="translate(672.79 1042.674)" fill="#63a4e5"/>
      <circle id="Ellipse_292" data-name="Ellipse 292" cx="2.827" cy="2.827" r="2.827" transform="translate(768.026 1006.28)" fill="#63a4e5"/>
      <g id="Group_2041" data-name="Group 2041" transform="translate(658.776 964.114)">
        <circle id="Ellipse_293" data-name="Ellipse 293" cx="44.812" cy="44.812" r="44.812" transform="translate(15.369 3.379)" fill="#ecf3fe"/>
        <path id="Path_8172" data-name="Path 8172" d="M746.354,1268.268h-.024a13.753,13.753,0,0,1-2.148-.29.376.376,0,0,1-.3-.451.4.4,0,0,1,.474-.282,12.936,12.936,0,0,0,2.019.272.383.383,0,0,1,.37.4A.387.387,0,0,1,746.354,1268.268Zm2.1-.02a.388.388,0,0,1-.394-.347.382.382,0,0,1,.364-.4,18.325,18.325,0,0,0,2.04-.268.394.394,0,0,1,.464.3.377.377,0,0,1-.311.442,19.145,19.145,0,0,1-2.133.28Zm4.128-.766a.394.394,0,0,1-.378-.265.373.373,0,0,1,.261-.47c.647-.19,1.3-.417,1.944-.673a.4.4,0,0,1,.517.2.37.37,0,0,1-.212.492c-.666.265-1.344.5-2.015.7A.408.408,0,0,1,752.586,1267.483Zm-10.309-.136a.409.409,0,0,1-.165-.035,8.705,8.705,0,0,1-1.869-1.109.364.364,0,0,1-.053-.529.408.408,0,0,1,.556-.051,7.908,7.908,0,0,0,1.7,1.006.369.369,0,0,1,.193.5A.4.4,0,0,1,742.278,1267.346Zm-3.195-2.538a.4.4,0,0,1-.326-.163,9.587,9.587,0,0,1-.743-1.208.408.408,0,0,1-.3-.036,12.64,12.64,0,0,1-1.783-1.183.363.363,0,0,1-.053-.53.408.408,0,0,1,.556-.05,12.312,12.312,0,0,0,1.284.888.385.385,0,0,1,.218-.207.4.4,0,0,1,.514.208,8.783,8.783,0,0,0,.957,1.691.365.365,0,0,1-.1.523A.408.408,0,0,1,739.083,1264.808Zm2.066-.417a5.858,5.858,0,0,1-1.4-.179.375.375,0,0,1-.283-.458.4.4,0,0,1,.482-.27,4.51,4.51,0,0,0,1.909.091.393.393,0,0,1,.464.3.377.377,0,0,1-.311.442A4.652,4.652,0,0,1,741.149,1264.392Zm2.657-.949a.4.4,0,0,1-.308-.14.364.364,0,0,1,.059-.529,4.976,4.976,0,0,0,1.256-1.413.406.406,0,0,1,.537-.146.367.367,0,0,1,.153.512,5.756,5.756,0,0,1-1.449,1.632A.407.407,0,0,1,743.807,1263.443Zm-6.26-2.331a.389.389,0,0,1-.392-.332,6.123,6.123,0,0,1-.048-.751,5.3,5.3,0,0,1,.178-1.378.4.4,0,0,1,.481-.271.375.375,0,0,1,.284.458,4.562,4.562,0,0,0-.153,1.19,5.4,5.4,0,0,0,.042.663.381.381,0,0,1-.346.418Zm-2.89-.187a.4.4,0,0,1-.291-.121,16.755,16.755,0,0,1-1.36-1.593.365.365,0,0,1,.092-.525.408.408,0,0,1,.551.087,15.955,15.955,0,0,0,1.3,1.52.363.363,0,0,1-.023.531A.4.4,0,0,1,734.658,1260.925Zm11.085-.913h-.016a.384.384,0,0,1-.379-.391c0-.043,0-.086,0-.129,0-.076,0-.153-.008-.23a3.842,3.842,0,0,0-.4-1.408.369.369,0,0,1,.189-.5.4.4,0,0,1,.526.18,4.575,4.575,0,0,1,.47,1.677q.01.142.01.281c0,.053,0,.106,0,.16A.387.387,0,0,1,745.743,1260.012Zm-13.525-2.348a.4.4,0,0,1-.349-.2,12.792,12.792,0,0,1-.767-1.625q-.052-.134-.1-.269a.372.372,0,0,1,.249-.476.4.4,0,0,1,.5.237q.044.125.092.249a12.009,12.009,0,0,0,.723,1.532.367.367,0,0,1-.164.509A.408.408,0,0,1,732.217,1257.665Zm6.368-.338a.407.407,0,0,1-.234-.073.365.365,0,0,1-.084-.526,5.235,5.235,0,0,1,1.675-1.445.406.406,0,0,1,.537.148.367.367,0,0,1-.156.511,4.459,4.459,0,0,0-1.42,1.232A.4.4,0,0,1,738.585,1257.327Zm5.456-.846a.405.405,0,0,1-.257-.091,3.454,3.454,0,0,0-1.677-.768.379.379,0,0,1-.332-.428.394.394,0,0,1,.449-.316,4.263,4.263,0,0,1,2.073.941.364.364,0,0,1,.043.53A.4.4,0,0,1,744.041,1256.481Zm-13.162-2.6a.39.39,0,0,1-.39-.319,12.291,12.291,0,0,1-.154-1.95v-.108a.386.386,0,0,1,.4-.373h0a.386.386,0,0,1,.392.379v.1a11.569,11.569,0,0,0,.145,1.836.379.379,0,0,1-.33.429A.428.428,0,0,1,730.878,1253.881Zm.023-4a.44.44,0,0,1-.06,0,.379.379,0,0,1-.331-.429,15.6,15.6,0,0,1,.464-2,.4.4,0,0,1,.489-.258.374.374,0,0,1,.271.465,14.82,14.82,0,0,0-.442,1.911A.39.39,0,0,1,730.9,1249.885Zm1.148-3.849a.412.412,0,0,1-.151-.029.37.37,0,0,1-.214-.491,19.768,19.768,0,0,1,.922-1.845.405.405,0,0,1,.535-.153.367.367,0,0,1,.16.51,19.049,19.049,0,0,0-.888,1.776A.4.4,0,0,1,732.05,1246.036Zm1.99-3.529a.408.408,0,0,1-.218-.063.365.365,0,0,1-.11-.521c.389-.558.814-1.112,1.261-1.647a.408.408,0,0,1,.555-.06.364.364,0,0,1,.063.528c-.433.518-.844,1.055-1.221,1.595A.4.4,0,0,1,734.039,1242.506Zm2.618-3.139a.4.4,0,0,1-.27-.1.364.364,0,0,1-.019-.532c.356-.362.731-.723,1.115-1.073a.409.409,0,0,1,.559.012.363.363,0,0,1-.013.532c-.374.34-.739.691-1.084,1.043A.4.4,0,0,1,736.657,1239.368Z" transform="translate(-727.171 -1219.071)" fill="#87d9ff"/>
        <path id="Path_8173" data-name="Path 8173" d="M1227.738,1438.185s0-.008,0-.011,0-.011,0-.016c0-.031,0-.065,0-.1s0-.067-.009-.1c0-.013,0-.027,0-.042s0-.018,0-.026-.005-.044-.01-.063a.662.662,0,0,0-.01-.065c-.008-.047-.016-.093-.026-.138l-.026-.116h0l-.086-.386h0l-8.166-36.574c-.01-.045-.023-.092-.035-.137a.777.777,0,0,0-.029-.1,1.084,1.084,0,0,0-.039-.113c-.011-.031-.023-.062-.036-.093s-.025-.06-.038-.091-.035-.076-.055-.114a2.463,2.463,0,0,0-.129-.226s0,0,0-.006c-.03-.045-.061-.09-.093-.133a2.532,2.532,0,0,0-.392-.431c-.034-.031-.07-.061-.108-.091a2.352,2.352,0,0,0-.257-.182c-.029-.018-.058-.037-.088-.053s-.078-.046-.121-.065l-.02-.009-.161-.075s0,0,0,0l-4.121-1.888-5.84-26.157a4.865,4.865,0,0,0-5.808-3.688L1150,1378.518a4.865,4.865,0,0,0-3.688,5.808l5.84,26.156-2.928,3.464-.114.136a.136.136,0,0,0-.014.017,2.707,2.707,0,0,0-.509,2.263l8.231,36.866.021.094h0l.026.116c.015.069.032.135.054.2,0,.015.01.03.014.045l.011.034.006.019h0c0,.006.005.012.008.019.013.039.028.079.043.118,0,.006.005.015.009.021l.02.044.021.047.011.025.01.021c.02.041.041.082.063.123l.014.024.03.05c.011.018.021.037.032.055.027.042.055.085.082.124l0,0c.019.027.041.052.061.079s.016.025.025.036c.026.035.056.069.084.1l.014.015.02.021c.018.02.035.04.055.059s.017.014.025.022c.034.034.068.069.1.1l.021.021c.035.032.073.062.11.092l.055.044c.027.021.054.042.081.06.011.008.023.014.034.021q.078.053.159.1l.052.03.065.037a2.739,2.739,0,0,0,.271.124l.047.017.069.025.11.037c.025.007.05.011.075.018l.084.02.082.018c.044.009.089.014.134.021l.023,0c.017,0,.033.007.05.009l.067.006.034,0h.006c.057.005.114.006.171.007a.315.315,0,0,0,.045,0h.054c.035,0,.07,0,.1,0h.008l.026,0,.03,0c.021,0,.042,0,.063-.006l.028,0,.022,0,.1-.016c.048-.008.1-.017.143-.027l65.356-14.592h0l.146-.032c.047-.011.094-.023.141-.036l.1-.029.028-.008.046-.017.025-.008.052-.018s0,0,.008,0l.064-.028a.448.448,0,0,0,.052-.021l.01,0h0l.069-.033c.051-.025.1-.05.152-.079l.005,0,.035-.021.045-.027.026-.015c.008,0,.014-.01.022-.014s.022-.018.034-.026a2.678,2.678,0,0,0,.3-.227l.008-.006c.015-.012.03-.027.045-.042a.352.352,0,0,0,.041-.038c.017-.015.033-.032.05-.049l.021-.023.022-.024.075-.082a.056.056,0,0,1,.01-.014c.016-.019.031-.039.046-.059l.042-.053.015-.019.012-.016c.014-.019.028-.038.039-.056a.335.335,0,0,0,.033-.046l.024-.038.026-.042c.017-.028.035-.055.05-.084s.032-.058.047-.088.018-.034.026-.052c.023-.046.045-.092.067-.139.007-.02.016-.04.024-.062l.015-.039c.012-.032.025-.064.035-.1s.013-.041.02-.061.013-.041.02-.063.012-.046.017-.065c.017-.062.03-.128.043-.192a.086.086,0,0,1,0-.019c0-.021.006-.042.01-.065s.007-.049.01-.074a.009.009,0,0,0,0-.007c0-.021,0-.042.006-.063s0-.039.005-.058,0-.019,0-.028a.043.043,0,0,0,0-.016c0-.027,0-.057,0-.086a.325.325,0,0,0,0-.047.091.091,0,0,0,0-.027C1227.737,1438.205,1227.738,1438.2,1227.738,1438.185Z" transform="translate(-1124.648 -1349.529)" fill="#306c9e" opacity="0.18" style="mix-blend-mode: multiply;isolation: isolate"/>
        <g id="Group_2035" data-name="Group 2035" transform="translate(23.837 13.28)">
          <path id="Path_8174" data-name="Path 8174" d="M1321.453,1994.638l8.278,37.076c.01.045.018.091.026.138,0,.021.007.043.01.065a.617.617,0,0,1,.01.063c0,.009,0,.018,0,.026s0,.029,0,.042c.005.033.006.066.009.1s0,.065,0,.1a.346.346,0,0,1,0,.048.1.1,0,0,1,0,.036.345.345,0,0,1,0,.048c0,.029,0,.059,0,.086a.042.042,0,0,1,0,.016c0,.051-.007.1-.014.15a.008.008,0,0,1,0,.007c0,.025-.007.051-.01.074s-.008.045-.01.065a.1.1,0,0,0,0,.019c-.013.064-.025.13-.043.192,0,.019-.011.043-.017.065s-.013.042-.02.063-.011.041-.02.061c-.013.041-.029.083-.045.123s-.02.05-.028.074c-.026.056-.05.111-.078.164s-.041.079-.062.115-.044.075-.067.112c-.01.018-.022.034-.033.053a.329.329,0,0,1-.033.045c-.012.018-.025.037-.039.056l-.012.016c-.033.046-.068.09-.1.132a.057.057,0,0,0-.01.014c-.029.031-.058.065-.089.1-.011.012-.02.023-.029.031s-.033.034-.05.05a.351.351,0,0,1-.041.038.545.545,0,0,1-.045.042,2.467,2.467,0,0,1-.339.259c-.008,0-.014.01-.022.014l-.026.015c-.028.017-.055.035-.086.051-.05.029-.1.054-.151.079l-.079.038a.422.422,0,0,1-.052.021l-.064.028s-.006,0-.008,0l-.052.018-.025.008-.046.017-.027.009-.1.028c-.047.013-.094.025-.141.036l-65.5,14.625c-.047.01-.095.019-.143.027l-.1.015a.95.95,0,0,1-.112.012.544.544,0,0,1-.064.005c-.053.005-.107.006-.159.006a.315.315,0,0,1-.045,0c-.057,0-.113,0-.171-.007l-.1-.009a2.915,2.915,0,0,1-.458-.09l-.11-.036c-.041-.013-.083-.029-.123-.045a2.739,2.739,0,0,1-.679-.387q-.073-.055-.141-.117a2.6,2.6,0,0,1-.412-.462c-.027-.039-.055-.083-.082-.124s-.051-.085-.076-.13-.047-.089-.068-.134-.039-.084-.058-.127c0-.006-.005-.015-.009-.021-.016-.042-.032-.085-.046-.127,0,0,0-.006,0-.01-.012-.033-.021-.065-.031-.1-.021-.065-.038-.131-.054-.2l-8.278-37.076a2.708,2.708,0,0,1,.51-2.263.112.112,0,0,1,.014-.017l.114-.136a2.7,2.7,0,0,1,1.423-.829l65.5-14.625a1.83,1.83,0,0,1,.191-.033.094.094,0,0,1,.035-.006c.061-.009.125-.017.185-.021l.042,0c.053,0,.107,0,.16,0a.282.282,0,0,1,.041,0c.066,0,.13.005.194.011s.122.013.181.023a2.162,2.162,0,0,1,.249.055,1.3,1.3,0,0,1,.135.037,1.773,1.773,0,0,1,.226.085s0,0,0,0l.161.074.02.009a1.371,1.371,0,0,1,.121.066c.03.016.059.034.088.052a2.4,2.4,0,0,1,.257.182q.057.045.108.091a2.561,2.561,0,0,1,.392.431c.032.042.062.088.093.133,0,0,0,0,0,.006a2.53,2.53,0,0,1,.129.226c.02.039.037.075.055.114s.027.059.038.091.025.062.037.093a1.065,1.065,0,0,1,.039.113.785.785,0,0,1,.028.1C1321.43,1994.546,1321.443,1994.593,1321.453,1994.638Z" transform="translate(-1248.253 -1960.872)" fill="#f9c067"/>
          <path id="Path_8175" data-name="Path 8175" d="M1321.577,1614.581l-70.49,15.738a2.718,2.718,0,0,1,.553-1.321.128.128,0,0,1,.014-.017l.114-.136,27.123-32.082a2.75,2.75,0,0,1,3.25-.725l38.191,17.5s0,0,0,0l.161.074.02.009a1.367,1.367,0,0,1,.121.065c.031.016.059.034.088.052a2.392,2.392,0,0,1,.257.182q.057.045.108.091a2.542,2.542,0,0,1,.392.431c.032.042.063.088.093.133C1321.573,1614.577,1321.576,1614.578,1321.577,1614.581Z" transform="translate(-1248.739 -1581.686)" fill="#dd9b31"/>
          <g id="Group_2034" data-name="Group 2034">
            <path id="Path_8176" data-name="Path 8176" d="M1272.059,1336.438l-61.514,13.734-12.462-55.815a4.865,4.865,0,0,1,3.688-5.808l52.017-11.614a4.866,4.866,0,0,1,5.809,3.688Z" transform="translate(-1197.966 -1276.817)" fill="#fff"/>
            <path id="Path_8177" data-name="Path 8177" d="M1476.412,1699.2l-45.2,10.092a1.183,1.183,0,0,1-1.408-.894l-.109-.49a1.183,1.183,0,0,1,.894-1.408l45.2-10.092a1.183,1.183,0,0,1,1.408.894l.109.49A1.183,1.183,0,0,1,1476.412,1699.2Z" transform="translate(-1419.423 -1677.827)" fill="#e4ecf9"/>
            <path id="Path_8178" data-name="Path 8178" d="M1506.538,1834.125l-45.2,10.092a1.183,1.183,0,0,1-1.408-.894l-.109-.49a1.183,1.183,0,0,1,.894-1.408l45.2-10.092a1.183,1.183,0,0,1,1.408.894l.109.489A1.183,1.183,0,0,1,1506.538,1834.125Z" transform="translate(-1448.217 -1806.791)" fill="#e4ecf9"/>
            <path id="Path_8179" data-name="Path 8179" d="M1536.664,1969.055l-45.2,10.092a1.183,1.183,0,0,1-1.408-.894l-.109-.49a1.183,1.183,0,0,1,.894-1.408l45.2-10.092a1.183,1.183,0,0,1,1.408.894l.109.49A1.183,1.183,0,0,1,1536.664,1969.055Z" transform="translate(-1477.011 -1935.757)" fill="#e4ecf9"/>
            <path id="Path_8180" data-name="Path 8180" d="M1566.79,2103.984l-45.2,10.092a1.184,1.184,0,0,1-1.409-.895l-.109-.49a1.183,1.183,0,0,1,.894-1.408l45.2-10.092a1.183,1.183,0,0,1,1.409.894l.109.49A1.183,1.183,0,0,1,1566.79,2103.984Z" transform="translate(-1505.806 -2064.721)" fill="#e4ecf9"/>
            <path id="Path_8181" data-name="Path 8181" d="M1596.916,2238.914l-45.2,10.092a1.184,1.184,0,0,1-1.409-.894l-.109-.49a1.183,1.183,0,0,1,.894-1.408l45.2-10.092a1.183,1.183,0,0,1,1.408.894l.109.49A1.183,1.183,0,0,1,1596.916,2238.914Z" transform="translate(-1534.6 -2193.686)" fill="#e4ecf9"/>
            <path id="Path_8182" data-name="Path 8182" d="M1396.6,1584.591l-19.713,4.4a1.183,1.183,0,0,1-1.408-.894l-.109-.49a1.183,1.183,0,0,1,.894-1.408l19.713-4.4a1.183,1.183,0,0,1,1.408.894l.109.49A1.183,1.183,0,0,1,1396.6,1584.591Z" transform="translate(-1367.499 -1568.289)" fill="#52d1bd"/>
          </g>
          <path id="Path_8183" data-name="Path 8183" d="M1290.411,2338.545v0a1.785,1.785,0,0,1-.3.382l-27.8,27.092-.146.032a2.65,2.65,0,0,1-.794.058l-.108-.01a2.692,2.692,0,0,1-1.255-.48q-.052-.036-.105-.078a2.539,2.539,0,0,1-.291-.262c-.032-.031-.059-.063-.089-.1s-.058-.068-.084-.1a2.7,2.7,0,0,1-.519-1.091l-8.278-37.076a2.708,2.708,0,0,1,.51-2.263.126.126,0,0,1,.014-.017l.114-.136a2.7,2.7,0,0,1,1.423-.83h0a2.189,2.189,0,0,1,1.192.068l2.634.911,29.691,10.276,1.117.386,2.131.738a1.779,1.779,0,0,1,.432.219v0A1.738,1.738,0,0,1,1290.411,2338.545Z" transform="translate(-1248.253 -2277.343)" fill="#f4b545"/>
          <path id="Path_8184" data-name="Path 8184" d="M2166.751,1994.638l8.278,37.076c.01.045.018.091.026.138,0,.021.007.043.01.065s.007.041.009.063,0,.018,0,.026,0,.029,0,.042c.005.033.006.066.009.1s0,.065,0,.1c0,0,0,.011,0,.015a.262.262,0,0,1,0,.032.1.1,0,0,1,0,.036.311.311,0,0,1,0,.048c0,.029,0,.057,0,.086a.039.039,0,0,1,0,.016c0,.05-.007.1-.014.15a.008.008,0,0,1,0,.007c0,.025,0,.048-.01.074s-.007.042-.01.065a.118.118,0,0,0,0,.019c-.013.064-.025.13-.043.192,0,.019-.011.043-.017.065s-.013.042-.02.063-.011.041-.021.061c-.013.041-.029.083-.045.123s-.02.05-.028.074c-.025.058-.052.111-.078.164s-.041.079-.062.115-.044.075-.067.112c-.009.018-.022.034-.033.053a.327.327,0,0,1-.032.045c-.012.018-.026.037-.039.056l-.012.016c-.032.046-.068.09-.1.132a.052.052,0,0,0-.01.014c-.029.031-.058.065-.089.1-.011.012-.02.023-.029.031s-.033.034-.05.05a.344.344,0,0,1-.041.038c-.015.015-.03.029-.045.042a2.469,2.469,0,0,1-.339.259.254.254,0,0,0-.021.014l-.026.015c-.028.017-.055.035-.086.051-.05.029-.1.054-.151.079l-.08.038a.422.422,0,0,1-.052.021l-.064.028h-.007l-.054.021-.025.008-.046.017-.028.009-.1.028c-.047.013-.094.025-.141.036l-.146.033L2136.14,2022.3a1.707,1.707,0,0,1-.43-.22v0a1.734,1.734,0,0,1-.508-2.272v0a1.733,1.733,0,0,1,.3-.382l1.613-1.573.846-.825,22.5-21.929,2.041-1.989a1.969,1.969,0,0,1,.945-.511l.061-.014a1.846,1.846,0,0,1,.191-.033.092.092,0,0,1,.035-.006c.061-.009.125-.017.185-.021l.042,0c.053,0,.107,0,.16,0a.28.28,0,0,1,.041,0c.065,0,.129.005.194.011s.123.013.181.023a2.167,2.167,0,0,1,.249.055,1.292,1.292,0,0,1,.135.037,1.773,1.773,0,0,1,.226.085s0,0,0,0l.161.074.02.009a1.318,1.318,0,0,1,.121.066c.031.016.06.034.088.052a2.418,2.418,0,0,1,.257.182q.057.045.108.091a2.552,2.552,0,0,1,.392.431c.032.042.062.088.093.133,0,0,0,0,0,.006a2.591,2.591,0,0,1,.129.226c.02.039.037.075.055.114s.027.059.038.091.025.062.036.093a1.125,1.125,0,0,1,.039.113.806.806,0,0,1,.028.1C2166.729,1994.546,2166.741,1994.593,2166.751,1994.638Z" transform="translate(-2093.552 -1960.872)" fill="#f4b545"/>
          <path id="Path_8185" data-name="Path 8185" d="M1507.59,2546.771l.086.386a2.78,2.78,0,0,1-2.034,3.361l-65.5,14.625a2.78,2.78,0,0,1-3.271-2.177l-.086-.386,28.742-29.688a3.173,3.173,0,0,1,3.424-.764Z" transform="translate(-1426.225 -2476.431)" fill="#8e5f13" opacity="0.25" style="mix-blend-mode: multiply;isolation: isolate"/>
          <path id="Path_8186" data-name="Path 8186" d="M1508.26,2570.288l.082.369a2.718,2.718,0,0,1-2.06,3.245l-65.5,14.625a2.718,2.718,0,0,1-3.245-2.06l-.083-.369,28.949-28.758a3.289,3.289,0,0,1,3.424-.764Z" transform="translate(-1426.866 -2499.816)" fill="#f9c067"/>
        </g>
        <circle id="Ellipse_294" data-name="Ellipse 294" cx="15.068" cy="15.068" r="15.068" transform="translate(73.726 23.941) rotate(-45)" fill="#306c9e" opacity="0.18" style="mix-blend-mode: multiply;isolation: isolate"/>
        <g id="Group_2037" data-name="Group 2037" transform="translate(81.941 6.574)">
          <circle id="Ellipse_295" data-name="Ellipse 295" cx="15.068" cy="15.068" r="15.068" fill="#52d1bd"/>
          <g id="Group_2036" data-name="Group 2036" transform="translate(5.554 5.524)">
            <path id="Path_8187" data-name="Path 8187" d="M2650.521,1255.924l.471-1.015,2.537.549-2.951,6.574a5.607,5.607,0,0,0-.322.836.514.514,0,0,0,.036.37.348.348,0,0,0,.237.182,2.439,2.439,0,0,0,1.487-.388,6.013,6.013,0,0,0,1.831-1.535,5.759,5.759,0,0,0,1.195-4.686,5.168,5.168,0,0,0-.881-2.042,6,6,0,0,0-1.788-1.614,8.547,8.547,0,0,0-2.662-1.019,9.821,9.821,0,0,0-2.962-.213,7.443,7.443,0,0,0-2.551.676,6.725,6.725,0,0,0-2.061,1.531,8.384,8.384,0,0,0-1.364,1.979,9.92,9.92,0,0,0-.833,2.365,7.037,7.037,0,0,0,0,3.165,6.259,6.259,0,0,0,1.416,2.71,8.033,8.033,0,0,0,2.747,1.973,13.02,13.02,0,0,0,3.983,1.027,9.742,9.742,0,0,0,3.188-.156,6.065,6.065,0,0,0,2.452-1.22l2.047.443a6.958,6.958,0,0,1-1.7,1.554,7.548,7.548,0,0,1-2.173.954,10,10,0,0,1-2.594.319,14.131,14.131,0,0,1-2.974-.342,13.953,13.953,0,0,1-4.123-1.541,8.933,8.933,0,0,1-2.8-2.477,7.755,7.755,0,0,1-1.353-3.21,9.582,9.582,0,0,1,.111-3.723,10.833,10.833,0,0,1,1.51-3.677,9,9,0,0,1,6.21-4.039,11.149,11.149,0,0,1,4.24.143,10.313,10.313,0,0,1,3.234,1.258,7.6,7.6,0,0,1,2.278,2.1,6.837,6.837,0,0,1,1.146,2.728,7.953,7.953,0,0,1-.082,3.146,7.439,7.439,0,0,1-2.809,4.357,6.573,6.573,0,0,1-2.36,1.119,5.736,5.736,0,0,1-2.632.029,2.378,2.378,0,0,1-1.154-.526,1.335,1.335,0,0,1-.395-.966,3.811,3.811,0,0,1-2.148.627,3.664,3.664,0,0,1-2.061-.657,3.578,3.578,0,0,1-1.344-1.764,4.564,4.564,0,0,1-.1-2.577,7.427,7.427,0,0,1,1.291-2.829,6.273,6.273,0,0,1,2.363-1.994,4.389,4.389,0,0,1,2.907-.347A2.835,2.835,0,0,1,2650.521,1255.924Zm-6.333,3.841a2.887,2.887,0,0,0,.1,1.872,1.558,1.558,0,0,0,1.126.887,2.186,2.186,0,0,0,1.747-.377,4.787,4.787,0,0,0,1.437-1.6,7.077,7.077,0,0,0,.816-2.052,3.32,3.32,0,0,0,.078-.944,2.229,2.229,0,0,0-.2-.793,1.592,1.592,0,0,0-.466-.589,1.764,1.764,0,0,0-.72-.322,2.183,2.183,0,0,0-1.666.329,4.4,4.4,0,0,0-1.413,1.485A6.731,6.731,0,0,0,2644.187,1259.765Z" transform="translate(-2637.927 -1250.094)" fill="#f9f9f9"/>
          </g>
        </g>
        <g id="Group_2040" data-name="Group 2040" transform="translate(6.084 -5)">
          <path id="Path_8188" data-name="Path 8188" d="M693.849,1009.11l-35.074-1.384,7.215,7.748L664.1,1027.1l8.219-4.838,3.5,3.734Z" transform="translate(-658.776 -1006.342)" fill="#306c9e" opacity="0.18" style="mix-blend-mode: multiply;isolation: isolate"/>
          <g id="Group_2039" data-name="Group 2039" transform="translate(0.435)">
            <g id="Group_2038" data-name="Group 2038">
              <path id="Path_8189" data-name="Path 8189" d="M789.152,1025.714l2.755-16.98,26.99-1.008Z" transform="translate(-783.823 -1006.342)" fill="#d8d8d8"/>
              <path id="Path_8190" data-name="Path 8190" d="M675.882,984.218c.143-.043,27.81-6.416,27.81-6.416l-35.073-1.384Z" transform="translate(-668.618 -976.418)" fill="#fff"/>
              <path id="Path_8191" data-name="Path 8191" d="M793.553,1212.962l-4.4,8.915,13.622-8.019Z" transform="translate(-783.823 -1202.505)" fill="#abaaaa"/>
              <path id="Path_8192" data-name="Path 8192" d="M888.695,1016.8l7.315,7.81,18.029-16.884Z" transform="translate(-878.965 -1006.342)" fill="#fff"/>
            </g>
          </g>
        </g>
      </g>
      <path id="Path_8193" data-name="Path 8193" d="M1919.425,964.642l1.951-1.026a.6.6,0,0,1,.874.635l-.373,2.173a.6.6,0,0,0,.173.533l1.579,1.539a.6.6,0,0,1-.334,1.028l-2.182.317a.6.6,0,0,0-.454.33l-.976,1.977a.6.6,0,0,1-1.081,0l-.976-1.977a.6.6,0,0,0-.454-.33l-2.182-.317a.6.6,0,0,1-.334-1.028l1.579-1.539a.6.6,0,0,0,.173-.533l-.373-2.173a.6.6,0,0,1,.874-.635l1.951,1.026A.6.6,0,0,0,1919.425,964.642Z" transform="translate(-1175.188 -8.369)" fill="#fcfeff"/>
    </g>
  </g>
</svg>
