<svg xmlns="http://www.w3.org/2000/svg" xmlns:xlink="http://www.w3.org/1999/xlink" width="500" height="153.473" viewBox="0 0 500 153.473">
  <defs>
    <clipPath id="clip-path">
      <path id="Rectangle_868" data-name="Rectangle 868" d="M10,0H490a10,10,0,0,1,10,10V124a0,0,0,0,1,0,0H0a0,0,0,0,1,0,0V10A10,10,0,0,1,10,0Z" transform="translate(787 282)" fill="#fff"/>
    </clipPath>
    <linearGradient id="linear-gradient" x1="0.065" y1="0.367" x2="1.089" y2="1.049" gradientUnits="objectBoundingBox">
      <stop offset="0" stop-color="#ff9666"/>
      <stop offset="1" stop-color="#c42d40"/>
    </linearGradient>
    <linearGradient id="linear-gradient-3" y1="0.5" x2="1" y2="0.5" gradientUnits="objectBoundingBox">
      <stop offset="0.188" stop-color="#ffbe69"/>
      <stop offset="1" stop-color="#ff8f5c"/>
    </linearGradient>
    <linearGradient id="linear-gradient-4" y1="0.5" x2="1" y2="0.5" gradientUnits="objectBoundingBox">
      <stop offset="0" stop-color="#326ab3"/>
      <stop offset="1" stop-color="#003780"/>
    </linearGradient>
    <linearGradient id="linear-gradient-6" x1="0.834" y1="0.034" x2="0.254" y2="0.825" gradientUnits="objectBoundingBox">
      <stop offset="0" stop-color="#abdcff"/>
      <stop offset="1" stop-color="#73b2ff"/>
    </linearGradient>
    <linearGradient id="linear-gradient-7" x1="0.5" y1="-5.366" x2="0.5" y2="42.012" xlink:href="#linear-gradient-6"/>
  </defs>
  <g id="email-code-header-image" transform="translate(-787 -282)">
    <g id="Mask_Group_75" data-name="Mask Group 75" clip-path="url(#clip-path)">
      <path id="Path_8323" data-name="Path 8323" d="M29.652,121.727c59.512,33.139,175.834,18.938,200.184,35.844,16.483,11.446,173.2,15.88,243.1-18.031,32.98-16,18.962-62.641,11.753-80.554-8.905-22.127,3.338-68.059-26.937-77.665C412.391-33.071,315.925-6.012,266.236-17.393c-82.678-18.936-240-43.329-294.272-25.745C-63.1-31.781-123.8,4.587-96.5,48.93-81.78,72.826,8.585,110,29.652,121.727Z" transform="matrix(0.996, -0.087, 0.087, 0.996, 826.701, 319.633)" fill="#f2fbff"/>
    </g>
    <g id="email-code" transform="translate(892 302.029)">
      <g id="Group_2436" data-name="Group 2436" transform="translate(9.193 95.123)">
        <g id="Group_2435" data-name="Group 2435" transform="translate(0)">
          <g id="Group_2434" data-name="Group 2434">
            <g id="Group_2433" data-name="Group 2433">
              <g id="Group_2432" data-name="Group 2432">
                <g id="Group_2431" data-name="Group 2431">
                  <path id="Path_8317" data-name="Path 8317" d="M179.076,473.04a.438.438,0,0,1,.055.344.452.452,0,0,1-.319.326l-1.546.441a.464.464,0,0,1-.448-.107.442.442,0,0,1-.129-.434l.383-1.532a.452.452,0,0,1,.319-.327.464.464,0,0,1,.448.107L179,472.95A.483.483,0,0,1,179.076,473.04Zm-2.024.727a.106.106,0,0,0,.016.019.1.1,0,0,0,.095.023l1.546-.442a.1.1,0,0,0,.068-.069.092.092,0,0,0-.027-.092l-1.164-1.091a.1.1,0,0,0-.095-.022.094.094,0,0,0-.067.069l-.383,1.532A.092.092,0,0,0,177.053,473.768Z" transform="translate(-176.675 -471.734)" fill="url(#linear-gradient)"/>
                </g>
              </g>
            </g>
          </g>
        </g>
      </g>
      <g id="Group_2442" data-name="Group 2442" transform="translate(181.198 7.862)">
        <g id="Group_2441" data-name="Group 2441" transform="translate(0)">
          <g id="Group_2440" data-name="Group 2440">
            <g id="Group_2439" data-name="Group 2439">
              <g id="Group_2438" data-name="Group 2438">
                <g id="Group_2437" data-name="Group 2437">
                  <path id="Path_8318" data-name="Path 8318" d="M895.548,109.565a.438.438,0,0,1,.055.344.451.451,0,0,1-.319.326l-1.546.442a.464.464,0,0,1-.448-.108.441.441,0,0,1-.129-.434l.383-1.532a.452.452,0,0,1,.319-.327.464.464,0,0,1,.448.108l1.164,1.09A.464.464,0,0,1,895.548,109.565Zm-2.023.727a.1.1,0,0,0,.016.019.1.1,0,0,0,.1.023l1.546-.442a.1.1,0,0,0,.067-.069.093.093,0,0,0-.027-.092l-1.164-1.09a.1.1,0,0,0-.095-.023.1.1,0,0,0-.067.069l-.383,1.532A.092.092,0,0,0,893.525,110.293Z" transform="translate(-893.147 -108.259)" fill="url(#linear-gradient)"/>
                </g>
              </g>
            </g>
          </g>
        </g>
      </g>
      <g id="Group_2443" data-name="Group 2443" transform="translate(14.627 27.456)">
        <path id="Path_8319" data-name="Path 8319" d="M200.907,190.984l.569-.557a.319.319,0,0,0,0-.458.335.335,0,0,0-.467,0l-.569.557-.569-.557a.335.335,0,0,0-.467,0,.319.319,0,0,0,0,.458l.569.557-.568.556a.319.319,0,0,0,0,.458.335.335,0,0,0,.467,0l.568-.556.568.556a.335.335,0,0,0,.467,0,.319.319,0,0,0,0-.458Z" transform="translate(-199.307 -189.875)" fill="url(#linear-gradient-3)"/>
      </g>
      <g id="Group_2446" data-name="Group 2446" transform="translate(122.548 0)">
        <g id="Group_2445" data-name="Group 2445" transform="translate(0 0)">
          <path id="Path_8321" data-name="Path 8321" d="M650.144,78.055a1.272,1.272,0,1,1,1.3-1.272A1.287,1.287,0,0,1,650.144,78.055Zm0-2.146a.874.874,0,1,0,.892.874A.884.884,0,0,0,650.144,75.909Z" transform="translate(-648.845 -75.511)" fill="url(#linear-gradient-4)"/>
        </g>
      </g>
      <g id="Group_2448" data-name="Group 2448" transform="translate(244.273 130.9)">
        <g id="Group_2447" data-name="Group 2447" transform="translate(0 0)">
          <path id="Path_8322" data-name="Path 8322" d="M1157.194,623.3a1.272,1.272,0,1,1,1.3-1.272A1.287,1.287,0,0,1,1157.194,623.3Zm0-2.146a.874.874,0,1,0,.893.874A.884.884,0,0,0,1157.194,621.155Z" transform="translate(-1155.895 -620.757)" fill="url(#linear-gradient-4)"/>
        </g>
      </g>
      <path id="Path_8103" data-name="Path 8103" d="M1026.631,555.256a2.008,2.008,0,0,1,2.625-.8,4.332,4.332,0,0,1,1.976,2.252,17.084,17.084,0,0,1,1.271,4.606c.4-1.48.854-2.945,1.352-4.391q.494-1.435,1.052-2.848a11.633,11.633,0,0,1-5.119-4.454,2.747,2.747,0,0,1-.49-2.457,2.015,2.015,0,0,1,2.625-.8,4.3,4.3,0,0,1,1.974,2.237,17.346,17.346,0,0,1,1.3,4.761,59.463,59.463,0,0,1,4.174-8.368,11.634,11.634,0,0,1-4.264-5.153,2.746,2.746,0,0,1-.094-2.5,2.015,2.015,0,0,1,2.718-.371,4.3,4.3,0,0,1,1.594,2.522,16.917,16.917,0,0,1,.524,4.731,26.656,26.656,0,0,1,6.469-7.47c.055-.041.112-.079.168-.12a11.633,11.633,0,0,1-3.541-5.76,2.747,2.747,0,0,1,.264-2.492,2.015,2.015,0,0,1,2.743.021,4.3,4.3,0,0,1,1.217,2.723,18,18,0,0,1-.218,5.176c3.129-2.174,6.673-3.781,9.723-6.059a11.628,11.628,0,0,1-3.63-5.836,2.747,2.747,0,0,1,.264-2.492,2.016,2.016,0,0,1,2.743.021,4.3,4.3,0,0,1,1.217,2.724,18.415,18.415,0,0,1-.239,5.318,20.157,20.157,0,0,0,2.142-1.9,15.472,15.472,0,0,0,3.153-4.906,11.625,11.625,0,0,1-5.157-4.773,2.747,2.747,0,0,1-.386-2.476,2.015,2.015,0,0,1,2.656-.686,4.308,4.308,0,0,1,1.878,2.318,18.621,18.621,0,0,1,1.146,5.273,20.215,20.215,0,0,0,1.185-9.361,11.636,11.636,0,0,1-4.273-4.759,2.747,2.747,0,0,1-.228-2.5,2.015,2.015,0,0,1,2.695-.516,4.3,4.3,0,0,1,1.726,2.433,16.756,16.756,0,0,1,.772,4.621.406.406,0,0,1,.067.179,21.082,21.082,0,0,1-.493,7.865c-.142.565-.305,1.128-.489,1.684a11.638,11.638,0,0,1,5.163-3.478,2.748,2.748,0,0,1,2.5.1,2.014,2.014,0,0,1,.158,2.738,4.3,4.3,0,0,1-2.638,1.393,18.884,18.884,0,0,1-5.49.095,15.554,15.554,0,0,1-1.675,3.27,17.628,17.628,0,0,1-3.785,3.922,11.638,11.638,0,0,1,6.365-.814,2.748,2.748,0,0,1,2.182,1.232,2.015,2.015,0,0,1-1.109,2.509,4.306,4.306,0,0,1-2.983.035,19.376,19.376,0,0,1-5.06-2.5c-2.418,1.775-5.153,3.184-7.684,4.733-.8.488-1.574.994-2.32,1.54a11.628,11.628,0,0,1,6.869-1.057,2.75,2.75,0,0,1,2.183,1.229,2.015,2.015,0,0,1-1.106,2.511,4.3,4.3,0,0,1-2.983.039,19.8,19.8,0,0,1-5.176-2.567,18.4,18.4,0,0,0-2.233,1.949,31.364,31.364,0,0,0-3.407,4.286q-.407.6-.793,1.222a11.637,11.637,0,0,1,6.08-1.732,2.749,2.749,0,0,1,2.345.881,2.015,2.015,0,0,1-.709,2.65,4.305,4.305,0,0,1-2.942.494,18.729,18.729,0,0,1-5.194-1.612,57.661,57.661,0,0,0-4.056,8.191,11.633,11.633,0,0,1,5.74-3.236,2.748,2.748,0,0,1,2.482.339,2.015,2.015,0,0,1-.1,2.741,4.3,4.3,0,0,1-2.759,1.134,19.207,19.207,0,0,1-5.571-.448q-.223.563-.438,1.129a66.084,66.084,0,0,0-2.042,6.331,11.634,11.634,0,0,1,5.619-3.112,2.749,2.749,0,0,1,2.483.339,2.015,2.015,0,0,1-.1,2.741,4.3,4.3,0,0,1-2.759,1.134,18.719,18.719,0,0,1-5.416-.419,51.665,51.665,0,0,0-1.337,7.461c-.053.524-.862.406-.809-.117a51.848,51.848,0,0,1,1.358-7.532,11.687,11.687,0,0,1-5.142-4.492A2.777,2.777,0,0,1,1026.631,555.256Z" transform="translate(-800.308 -466.333)" fill="url(#linear-gradient-6)"/>
      <g id="Group_1479" data-name="Group 1479" transform="translate(225.823 82.184)">
        <g id="Group_1476" data-name="Group 1476" transform="translate(0.024 0)">
          <path id="Path_8104" data-name="Path 8104" d="M1026.322,680.223l-1,14.555c1.394-.952,2.9-1.769,4.347-2.606a28.4,28.4,0,0,0,4.118-2.752,15.274,15.274,0,0,0,3.172-3.794,23.533,23.533,0,0,1,2.767-4.005,11.179,11.179,0,0,1,3.109-2.236c2.371-1.206,4.981-1.833,7.381-2.969a11.989,11.989,0,0,0,3.314-2.211,17.615,17.615,0,0,0,2.823-3.91,37.214,37.214,0,0,1,2.544-4.087,14.306,14.306,0,0,1,2.935-2.854,18.645,18.645,0,0,1,7.523-3.149c6.576-1.26,13.188.639,19.366,2.786.365.127.729.255,1.1.386.617-3.772-4.784-6.919-8.219-7.67-2.35-.513-4.793.224-7.191.075-12.156-.744-19.949-5.137-26.084,8.672a13.088,13.088,0,0,1-2.507,4.371C1040.306,673.377,1026.888,669.738,1026.322,680.223Z" transform="translate(-1025.318 -654.531)" fill="#5495d6"/>
        </g>
        <g id="Group_1477" data-name="Group 1477" transform="translate(0 5.555)">
          <path id="Path_8105" data-name="Path 8105" d="M1048.766,708.24c-.823-7.186,1.58-9.211,6.763-10.343,2.572-.565,5.7-.6,7.12-2.818,2.514-5.064-4-11.859,7.111-14.149,6.267-1.3,17.678,4.533,19.9-3.485.01-.037.021-.078.028-.116-5.865-2.079-12.015-4.09-18.3-3.469a20.055,20.055,0,0,0-7.922,2.408,15.055,15.055,0,0,0-3.243,2.457,18.026,18.026,0,0,0-2.675,3.632c-.81,1.38-1.554,2.8-2.5,4.1a11.4,11.4,0,0,1-3,2.908,36.675,36.675,0,0,1-7.006,3,18.277,18.277,0,0,0-3.48,1.709,10.96,10.96,0,0,0-3.032,3.123c-.9,1.346-1.632,2.8-2.633,4.071a15.369,15.369,0,0,1-3.453,3.139c-2.318,1.6-4.9,2.786-7.214,4.4C1025.234,708.812,1050.709,725.2,1048.766,708.24Z" transform="translate(-1025.234 -673.745)" fill="#5495d6"/>
        </g>
        <g id="Group_1478" data-name="Group 1478" transform="translate(0 5.269)">
          <path id="Path_8106" data-name="Path 8106" d="M1025.258,707.733l-.024.376c2.309-1.615,4.9-2.8,7.214-4.4a15.365,15.365,0,0,0,3.453-3.139c1-1.275,1.737-2.725,2.633-4.071a10.962,10.962,0,0,1,3.032-3.123,18.288,18.288,0,0,1,3.48-1.709,36.67,36.67,0,0,0,7.006-3,11.4,11.4,0,0,0,3-2.909c.942-1.3,1.686-2.724,2.5-4.1a18.024,18.024,0,0,1,2.675-3.632,15.04,15.04,0,0,1,3.243-2.456,20.053,20.053,0,0,1,7.922-2.408c6.287-.621,12.437,1.391,18.3,3.469.025-.1.047-.2.062-.294-.367-.131-.731-.259-1.1-.387-6.178-2.147-12.79-4.046-19.366-2.786a18.642,18.642,0,0,0-7.523,3.149,14.3,14.3,0,0,0-2.935,2.854,37.189,37.189,0,0,0-2.544,4.087,17.632,17.632,0,0,1-2.823,3.911,11.988,11.988,0,0,1-3.315,2.211c-2.4,1.136-5.01,1.763-7.381,2.969a11.184,11.184,0,0,0-3.109,2.236,23.5,23.5,0,0,0-2.767,4.005,15.275,15.275,0,0,1-3.173,3.794,28.4,28.4,0,0,1-4.118,2.752C1028.154,705.964,1026.652,706.781,1025.258,707.733Z" transform="translate(-1025.234 -672.755)" fill="#fff"/>
        </g>
      </g>
      <g id="Group_1484" data-name="Group 1484" transform="translate(6.415 34.718) rotate(-30)">
        <path id="Path_8110" data-name="Path 8110" d="M0,6.18,17.465,9.653,13.391,0Z" transform="translate(0 12.585)" fill="#0e4c81"/>
        <path id="Path_8111" data-name="Path 8111" d="M4.4,8.793,28.261,5.178,0,0Z" transform="translate(11.306 16.075)" fill="#5ca9eb"/>
        <path id="Path_8112" data-name="Path 8112" d="M33.095,21.229,0,0,3.918,8.865Z" transform="translate(6.499 0)" fill="#5ca9eb"/>
        <path id="Path_8113" data-name="Path 8113" d="M39.567,12.518,11.235,7.408,0,10.029,10.434,0Z" transform="translate(0 8.735)" fill="#287cc4"/>
      </g>
      <path id="Path_8183" data-name="Path 8183" d="M-8850.231-2429.4c-49.529-2.114-4.656-37.327-42.191-47.4s1.776-23.835,1.776-23.835" transform="translate(8908.657 2556.886)" fill="none" stroke="#325899" stroke-width="0.5" stroke-dasharray="3"/>
      <g id="Group_2422" data-name="Group 2422" transform="translate(58.427 15.003)">
        <g id="Group_2414" data-name="Group 2414">
          <g id="Group_2373" data-name="Group 2373" transform="translate(5.033 9.134)">
            <g id="Group_2372" data-name="Group 2372">
              <g id="Group_2371" data-name="Group 2371">
                <g id="Group_2370" data-name="Group 2370">
                  <path id="Path_8290" data-name="Path 8290" d="M565.281,178.711v97.01a2.636,2.636,0,0,1-2.609,2.664H405.343a2.638,2.638,0,0,1-2.612-2.664v-97.01a2.638,2.638,0,0,1,2.612-2.664H562.672A2.636,2.636,0,0,1,565.281,178.711Z" transform="translate(-402.731 -176.047)" fill="#b5bdff"/>
                </g>
              </g>
            </g>
          </g>
          <g id="Group_2377" data-name="Group 2377" transform="translate(83.43 1.687)">
            <g id="Group_2376" data-name="Group 2376">
              <g id="Group_2375" data-name="Group 2375">
                <g id="Group_2374" data-name="Group 2374">
                  <path id="Path_8291" data-name="Path 8291" d="M729.285,148.1a3.082,3.082,0,1,1,3.081,3.081A3.081,3.081,0,0,1,729.285,148.1Z" transform="translate(-729.285 -145.023)" fill="#999"/>
                </g>
              </g>
            </g>
          </g>
          <g id="Group_2385" data-name="Group 2385">
            <g id="Group_2384" data-name="Group 2384">
              <g id="Group_2383" data-name="Group 2383">
                <g id="Group_2382" data-name="Group 2382">
                  <path id="Path_8293" data-name="Path 8293" d="M551.378,138H384.257a2.49,2.49,0,0,0-2.49,2.49V250.24a2.456,2.456,0,0,0,.392,1.337,2.055,2.055,0,0,0,.185.254,2.5,2.5,0,0,0,1.913.9H551.378a2.488,2.488,0,0,0,2.487-2.49V140.488A2.488,2.488,0,0,0,551.378,138ZM549.35,246.805a2.637,2.637,0,0,1-2.61,2.664H389.368a2.659,2.659,0,0,1-2.569-2.664V149.8a2.638,2.638,0,0,1,2.612-2.662h157.33a2.636,2.636,0,0,1,2.61,2.662Z" transform="translate(-381.767 -137.998)" fill="#5582be"/>
                </g>
              </g>
            </g>
          </g>
          <g id="Group_2400" data-name="Group 2400" transform="translate(86.985 1.6)">
            <g id="Group_2390" data-name="Group 2390">
              <g id="Group_2389" data-name="Group 2389">
                <g id="Group_2388" data-name="Group 2388">
                  <g id="Group_2387" data-name="Group 2387">
                    <g id="Group_2386" data-name="Group 2386">
                      <path id="Path_8294" data-name="Path 8294" d="M750.429,147.83a3.168,3.168,0,1,1-3.168-3.168A3.168,3.168,0,0,1,750.429,147.83Z" transform="translate(-744.093 -144.662)" fill="#fff"/>
                    </g>
                  </g>
                </g>
              </g>
            </g>
            <g id="Group_2395" data-name="Group 2395" transform="translate(0.917 0.916)">
              <g id="Group_2394" data-name="Group 2394">
                <g id="Group_2393" data-name="Group 2393">
                  <g id="Group_2392" data-name="Group 2392">
                    <g id="Group_2391" data-name="Group 2391">
                      <path id="Path_8295" data-name="Path 8295" d="M747.912,150.728a2.251,2.251,0,1,1,2.251,2.251A2.251,2.251,0,0,1,747.912,150.728Z" transform="translate(-747.912 -148.477)" fill="url(#linear-gradient-7)"/>
                    </g>
                  </g>
                </g>
              </g>
            </g>
            <g id="Group_2399" data-name="Group 2399" transform="translate(2.096 1.751)">
              <g id="Group_2398" data-name="Group 2398">
                <g id="Group_2397" data-name="Group 2397">
                  <g id="Group_2396" data-name="Group 2396">
                    <path id="Path_8296" data-name="Path 8296" d="M752.822,152.492a.536.536,0,1,1,.536.536A.536.536,0,0,1,752.822,152.492Z" transform="translate(-752.822 -151.956)" fill="#fff"/>
                  </g>
                </g>
              </g>
            </g>
          </g>
          <g id="Group_2413" data-name="Group 2413" transform="translate(3.513 9.133)">
            <g id="Group_2404" data-name="Group 2404">
              <g id="Group_2403" data-name="Group 2403">
                <g id="Group_2402" data-name="Group 2402">
                  <g id="Group_2401" data-name="Group 2401">
                    <path id="Path_8297" data-name="Path 8297" d="M561.856,178.725V276.4a2.669,2.669,0,0,1-2.655,2.68H399.06a2.671,2.671,0,0,1-2.658-2.68V178.725a2.674,2.674,0,0,1,2.658-2.683H559.2A2.671,2.671,0,0,1,561.856,178.725Z" transform="translate(-396.402 -176.042)" fill="#fff"/>
                  </g>
                </g>
              </g>
            </g>
            <g id="Group_2405" data-name="Group 2405">
              <path id="Path_8298" data-name="Path 8298" d="M561.856,178.725v7.984H396.4v-7.984a2.674,2.674,0,0,1,2.658-2.683H559.2A2.671,2.671,0,0,1,561.856,178.725Z" transform="translate(-396.402 -176.042)" fill="#cce3ff"/>
            </g>
            <g id="Group_2406" data-name="Group 2406" transform="translate(5.843 2.303)">
              <path id="Path_8299" data-name="Path 8299" d="M550.137,185.637H425.685c-2.731,0-4.945,1.32-4.945,2.948h0c0,1.628,2.214,2.948,4.945,2.948H550.137c2.731,0,4.945-1.32,4.945-2.948h0C555.081,186.957,552.868,185.637,550.137,185.637Z" transform="translate(-420.74 -185.637)" fill="#fff"/>
            </g>
            <g id="Group_2407" data-name="Group 2407" transform="translate(142.771 2.303)">
              <path id="Path_8300" data-name="Path 8300" d="M1002.18,191.533h-8.1a2.965,2.965,0,0,1-2.981-2.948h0a2.965,2.965,0,0,1,2.981-2.948h8.1a2.964,2.964,0,0,1,2.98,2.948h0A2.965,2.965,0,0,1,1002.18,191.533Z" transform="translate(-991.101 -185.637)" fill="#fff"/>
            </g>
            <g id="Group_2408" data-name="Group 2408" transform="translate(147.175 3.276)">
              <path id="Path_8301" data-name="Path 8301" d="M1014.015,193.084l-1.312-.911a.436.436,0,0,0-.05-.025,1.651,1.651,0,0,0,.195-.778,1.7,1.7,0,1,0-.584,1.265.284.284,0,0,0,.067.065l1.312.91a.324.324,0,0,0,.242.053.33.33,0,0,0,.21-.132A.319.319,0,0,0,1014.015,193.084Zm-2.869-.511a1.2,1.2,0,1,1,1.218-1.2A1.212,1.212,0,0,1,1011.146,192.572Z" transform="translate(-1009.447 -189.686)" fill="#cce3ff"/>
            </g>
            <g id="Group_2412" data-name="Group 2412" transform="translate(160.429 2.637)">
              <g id="Group_2409" data-name="Group 2409">
                <path id="Path_8302" data-name="Path 8302" d="M1064.656,187.694a.675.675,0,1,1,.675.668A.671.671,0,0,1,1064.656,187.694Z" transform="translate(-1064.656 -187.027)" fill="#fff"/>
              </g>
              <g id="Group_2410" data-name="Group 2410" transform="translate(0 1.669)">
                <path id="Path_8303" data-name="Path 8303" d="M1064.656,194.646a.675.675,0,1,1,.675.667A.671.671,0,0,1,1064.656,194.646Z" transform="translate(-1064.656 -193.978)" fill="#fff"/>
              </g>
              <g id="Group_2411" data-name="Group 2411" transform="translate(0 3.338)">
                <path id="Path_8304" data-name="Path 8304" d="M1064.656,201.6a.675.675,0,1,1,.675.668A.671.671,0,0,1,1064.656,201.6Z" transform="translate(-1064.656 -200.93)" fill="#fff"/>
              </g>
            </g>
          </g>
        </g>
        <g id="Group_2456" data-name="Group 2456" transform="translate(24.311 46.059)">
          <rect id="Rectangle_837" data-name="Rectangle 837" width="5.681" height="5.681" rx="2.841" transform="translate(0)" fill="#cce3ff"/>
          <rect id="Rectangle_838" data-name="Rectangle 838" width="5.681" height="5.681" rx="2.841" transform="translate(8.658)" fill="#cce3ff"/>
          <rect id="Rectangle_839" data-name="Rectangle 839" width="5.681" height="5.681" rx="2.841" transform="translate(17.317)" fill="#cce3ff"/>
          <rect id="Rectangle_840" data-name="Rectangle 840" width="5.681" height="5.681" rx="2.841" transform="translate(25.975)" fill="#cce3ff"/>
        </g>
        <g id="Group_2457" data-name="Group 2457" transform="translate(24.311 37.109)">
          <rect id="Rectangle_837-2" data-name="Rectangle 837" width="5.681" height="5.681" rx="2.841" transform="translate(0)" fill="#cce3ff"/>
          <rect id="Rectangle_838-2" data-name="Rectangle 838" width="5.681" height="5.681" rx="2.841" transform="translate(8.658)" fill="#cce3ff"/>
          <rect id="Rectangle_839-2" data-name="Rectangle 839" width="5.681" height="5.681" rx="2.841" transform="translate(17.317)" fill="#cce3ff"/>
          <rect id="Rectangle_840-2" data-name="Rectangle 840" width="5.681" height="5.681" rx="2.841" transform="translate(25.975)" fill="#cce3ff"/>
        </g>
        <g id="Group_2418" data-name="Group 2418" transform="translate(64.07 37.017)">
          <rect id="Rectangle_845" data-name="Rectangle 845" width="16.321" height="1.54" rx="0.77" fill="#cce3ff"/>
          <rect id="Rectangle_846" data-name="Rectangle 846" width="16.321" height="1.54" rx="0.77" transform="translate(74.577)" fill="#cce3ff"/>
          <rect id="Rectangle_847" data-name="Rectangle 847" width="38.734" height="1.54" rx="0.77" transform="translate(52.164 6.864)" fill="#cce3ff"/>
          <rect id="Rectangle_848" data-name="Rectangle 848" width="50.526" height="1.54" rx="0.77" transform="translate(20.802)" fill="#cce3ff"/>
          <rect id="Rectangle_849" data-name="Rectangle 849" width="49.343" height="1.54" rx="0.77" transform="translate(0.18 6.864)" fill="#cce3ff"/>
        </g>
        <g id="Group_2419" data-name="Group 2419" transform="translate(64.07 51.423)">
          <rect id="Rectangle_850" data-name="Rectangle 850" width="16.321" height="1.54" rx="0.77" fill="#cce3ff"/>
          <rect id="Rectangle_851" data-name="Rectangle 851" width="16.321" height="1.54" rx="0.77" transform="translate(74.577)" fill="#cce3ff"/>
          <rect id="Rectangle_853" data-name="Rectangle 853" width="50.526" height="1.54" rx="0.77" transform="translate(20.802)" fill="#cce3ff"/>
        </g>
      </g>
      <g id="Group_2455" data-name="Group 2455" transform="translate(82.399 83.541)">
        <path id="Rectangle_867" data-name="Rectangle 867" d="M0,0H119.976a14,14,0,0,1,14,14V31.441a0,0,0,0,1,0,0H14a14,14,0,0,1-14-14V0A0,0,0,0,1,0,0Z" transform="translate(133.976 31.441) rotate(180)" fill="#a9c6f1"/>
        <g id="Group_2453" data-name="Group 2453" transform="translate(28.983 6.955)">
          <rect id="Rectangle_594" data-name="Rectangle 594" width="89.485" height="17.919" rx="8.959" transform="translate(89.485 17.919) rotate(180)" fill="#fff"/>
          <g id="Group_1568" data-name="Group 1568" transform="translate(5.251 5.456)">
            <path id="Path_8185" data-name="Path 8185" d="M1285.131,1656.6l-1.763,1.022v-2.038h-1.688v2.038l-1.763-1.022-.847,1.46,1.771,1.028-1.771,1.028.847,1.46,1.763-1.022v2.038h1.688v-2.038l1.763,1.022.848-1.46-1.772-1.028,1.772-1.028Z" transform="translate(-1279.07 -1655.583)" fill="#287cc4"/>
            <path id="Path_8186" data-name="Path 8186" d="M1521.443,1656.6l-1.763,1.022v-2.038h-1.688v2.038l-1.763-1.022-.847,1.46,1.771,1.028-1.771,1.028.847,1.46,1.763-1.022v2.038h1.688v-2.038l1.763,1.022.847-1.46-1.771-1.028,1.771-1.028Z" transform="translate(-1501.053 -1655.583)" fill="#287cc4"/>
            <path id="Path_8187" data-name="Path 8187" d="M1994.915,1658.058l-.848-1.46-1.763,1.022v-2.038h-1.688v2.038l-1.763-1.022-.847,1.46,1.772,1.028-1.772,1.028.847,1.46,1.763-1.022v2.038h1.688v-2.038l1.763,1.022.848-1.46-1.772-1.028Z" transform="translate(-1945.022 -1655.583)" fill="#287cc4"/>
            <path id="Path_8191" data-name="Path 8191" d="M1994.915,1658.058l-.848-1.46-1.763,1.022v-2.038h-1.688v2.038l-1.763-1.022-.847,1.46,1.772,1.028-1.772,1.028.847,1.46,1.763-1.022v2.038h1.688v-2.038l1.763,1.022.848-1.46-1.772-1.028Z" transform="translate(-1916.37 -1655.583)" fill="#287cc4"/>
            <path id="Path_8188" data-name="Path 8188" d="M1757.755,1656.6l-1.763,1.022v-2.038H1754.3v2.038l-1.763-1.022-.848,1.46,1.771,1.028-1.771,1.028.848,1.46,1.763-1.022v2.038h1.689v-2.038l1.763,1.022.847-1.46-1.771-1.028,1.771-1.028Z" transform="translate(-1723.038 -1655.583)" fill="#287cc4"/>
            <path id="Path_8192" data-name="Path 8192" d="M1757.755,1656.6l-1.763,1.022v-2.038H1754.3v2.038l-1.763-1.022-.848,1.46,1.771,1.028-1.771,1.028.848,1.46,1.763-1.022v2.038h1.689v-2.038l1.763,1.022.847-1.46-1.771-1.028,1.771-1.028Z" transform="translate(-1694.385 -1655.583)" fill="#287cc4"/>
          </g>
        </g>
        <g id="Group_2454" data-name="Group 2454" transform="translate(11.311 9.717)">
          <g id="Group_1570" data-name="Group 1570" transform="translate(0 0)">
            <path id="Path_8189" data-name="Path 8189" d="M725.49,1524.926h-.575v-1.143a3.062,3.062,0,1,0-6.124-.046v1.189h-.575a1.6,1.6,0,0,0-1.6,1.6v4.744a1.6,1.6,0,0,0,1.6,1.6h7.275a1.6,1.6,0,0,0,1.6-1.6v-4.744A1.6,1.6,0,0,0,725.49,1524.926Zm-5.89-1.149a2.285,2.285,0,0,1,2.292-2.292,2.254,2.254,0,0,1,2.213,2.252v1.189h-4.5Zm6.681,7.495a.792.792,0,0,1-.791.792h-7.275a.792.792,0,0,1-.791-.792v-4.744a.792.792,0,0,1,.791-.791h7.275a.792.792,0,0,1,.791.791Z" transform="translate(-716.614 -1520.675)" fill="#fff"/>
          </g>
          <path id="Path_8190" data-name="Path 8190" d="M825.241,1725.729l-2.2,2.2-.99-.99-.667.667,1.657,1.676,2.869-2.888Z" transform="translate(-817.995 -1719.1)" fill="#fff"/>
        </g>
      </g>
    </g>
  </g>
</svg>
