<svg width="32" height="32" viewBox="0 0 32 32" fill="none" xmlns="http://www.w3.org/2000/svg">
<path d="M29.753 13.9515C29.6305 10.461 28.217 7.19704 25.735 4.71504C23.1335 2.11304 19.676 0.680542 16 0.680542C8.57553 0.680542 2.50903 6.59004 2.24753 13.9515C1.11453 14.455 0.321533 15.589 0.321533 16.907V20.538C0.321533 22.321 1.77203 23.772 3.55553 23.772C4.70953 23.772 5.64803 22.8335 5.64803 21.6795V15.765C5.64803 14.6815 4.81703 13.798 3.76053 13.693C4.15053 7.27954 9.48953 2.18054 16 2.18054C19.276 2.18054 22.3565 3.45754 24.675 5.77604C26.804 7.90504 28.05 10.68 28.2375 13.6935C27.182 13.7995 26.3525 14.6825 26.3525 15.765V21.679C26.3525 22.7715 27.1965 23.6605 28.2655 23.753V25.2475C28.2655 26.9305 26.896 28.2995 25.213 28.2995H22.9525C22.8415 27.9825 22.6675 27.6895 22.4235 27.4465C21.996 27.017 21.426 26.7805 20.819 26.7805H18.489C18.1545 26.7805 17.8335 26.8515 17.5395 26.9885C16.7375 27.357 16.2195 28.166 16.2195 29.0495C16.2195 29.6565 16.456 30.2265 16.8845 30.653C17.313 31.0825 17.883 31.319 18.489 31.319H20.819C21.785 31.319 22.6365 30.6945 22.954 29.7995H25.213C27.7235 29.7995 29.7655 27.7575 29.7655 25.2475V23.486C30.8915 22.9795 31.6785 21.8495 31.6785 20.537V16.906C31.6785 15.589 30.8855 14.455 29.753 13.9515ZM4.14753 15.765V21.679C4.14753 22.0055 3.88203 22.2715 3.55503 22.2715C2.59903 22.2715 1.82103 21.4935 1.82103 20.5375V16.9065C1.82103 15.95 2.59903 15.1725 3.55503 15.1725C3.88203 15.1725 4.14753 15.4385 4.14753 15.765ZM21.5715 29.2105C21.497 29.5635 21.18 29.82 20.8185 29.82H18.4885C18.2835 29.82 18.091 29.74 17.944 29.593C17.799 29.4485 17.719 29.2555 17.719 29.0505C17.719 28.751 17.8945 28.4775 18.1695 28.351C18.2675 28.305 18.375 28.2815 18.4885 28.2815H20.8185C21.0235 28.2815 21.216 28.361 21.3625 28.508C21.5075 28.6525 21.5875 28.8455 21.5875 29.0505C21.588 29.1055 21.582 29.1605 21.5715 29.2105ZM30.1785 20.5375C30.1785 21.4935 29.4005 22.2715 28.4445 22.2715C28.118 22.2715 27.852 22.006 27.852 21.679V15.765C27.852 15.4385 28.1175 15.1725 28.4445 15.1725C29.4005 15.1725 30.1785 15.9505 30.1785 16.9065V20.5375Z" fill="#28C76F"/>
<path d="M20.8566 20.7961C22.6091 20.7961 24.0346 19.3701 24.0346 17.6181V11.1426C24.0346 10.2956 23.7036 9.4976 23.1026 8.8966C22.5016 8.2956 21.7041 7.9646 20.8566 7.9646H11.1436C9.39108 7.9646 7.96558 9.3901 7.96558 11.1426V17.6181C7.96558 19.3706 9.39108 20.7961 11.1436 20.7961H11.2031V22.4741C11.2031 23.1141 11.5846 23.6821 12.1746 23.9216C12.3651 23.9981 12.5631 24.0361 12.7591 24.0361C13.1676 24.0361 13.5656 23.8741 13.8571 23.5726L16.6486 20.7961H20.8566ZM15.8111 19.5141L12.7901 22.5186C12.7766 22.5326 12.7666 22.5431 12.7381 22.5306C12.7036 22.5166 12.7036 22.4941 12.7036 22.4741V20.0461C12.7036 19.6321 12.3681 19.2961 11.9536 19.2961H11.1441C10.2186 19.2961 9.46608 18.5431 9.46608 17.6181V11.1426C9.46608 10.2171 10.2186 9.4646 11.1441 9.4646H20.8571C21.3041 9.4646 21.7246 9.6396 22.0426 9.9571C22.3606 10.2751 22.5351 10.6961 22.5351 11.1426V17.6181C22.5351 18.5436 21.7821 19.2961 20.8571 19.2961H16.3401C16.1416 19.2961 15.9516 19.3746 15.8111 19.5141Z" fill="#28C76F"/>
<path d="M12.3565 13.3936C11.7465 13.3936 11.25 13.8906 11.25 14.5001C11.25 15.1096 11.747 15.6066 12.3565 15.6066C12.967 15.6066 13.464 15.1096 13.464 14.5001C13.464 13.8906 12.9675 13.3936 12.3565 13.3936Z" fill="#28C76F"/>
<path d="M15.9996 13.3936C15.3896 13.3936 14.8931 13.8906 14.8931 14.5001C14.8931 15.1096 15.3901 15.6066 15.9996 15.6066C16.6106 15.6066 17.1071 15.1096 17.1071 14.5001C17.1071 13.8906 16.6106 13.3936 15.9996 13.3936Z" fill="#28C76F"/>
<path d="M19.6425 13.3936C19.0325 13.3936 18.536 13.8906 18.536 14.5001C18.536 15.1096 19.033 15.6066 19.6425 15.6066C20.253 15.6066 20.75 15.1096 20.75 14.5001C20.75 13.8906 20.253 13.3936 19.6425 13.3936Z" fill="#28C76F"/>
</svg>
