<svg xmlns="http://www.w3.org/2000/svg" width="22.806" height="20.024" viewBox="0 0 22.806 20.024">
  <path id="admin-panel-normal" d="M20.689,9.277l-4.015-1.54a1.1,1.1,0,0,0-.774,0l-4.015,1.54a.926.926,0,0,0-.617.852,7.775,7.775,0,0,0,4.631,7.32,1.1,1.1,0,0,0,.774,0l.138-.056a7.73,7.73,0,0,0,4.493-7.264A.927.927,0,0,0,20.689,9.277ZM7.806,7.761a4.421,4.421,0,0,0,4.461-4.38A4.421,4.421,0,0,0,7.806-1,4.421,4.421,0,0,0,3.345,3.38,4.421,4.421,0,0,0,7.806,7.761Zm3.345,2.369a1.911,1.911,0,0,1,.038-.246c-.087,0-.171-.027-.261-.027h-.582a6.167,6.167,0,0,1-5.081,0H4.684A4.643,4.643,0,0,0,0,14.455v1.424a1.658,1.658,0,0,0,1.673,1.643H13.939a1.742,1.742,0,0,0,.669-.137A9.134,9.134,0,0,1,11.151,10.13Z" transform="translate(0.75 1.75)" fill="none" stroke="#64748b" stroke-width="1.5"/>
</svg>
