<svg xmlns="http://www.w3.org/2000/svg" width="21.64" height="21.651" viewBox="0 0 21.64 21.651">
  <g id="chats-normal" transform="translate(-3.625 -3.625)">
    <path id="Path_8126" data-name="Path 8126" d="M24.9,11.981H13.624a1.941,1.941,0,0,0-1.938,1.938v7.85A1.937,1.937,0,0,0,13.624,23.7h6.451a.556.556,0,0,1,.387.163l3.205,2.956c.178.173.473.1.473-.148V24.1c0-.305.193-.4.5-.4h.051a2.118,2.118,0,0,0,2.142-1.933V13.92A1.93,1.93,0,0,0,24.9,11.981Z" transform="translate(-2.317 -2.399)" fill="none" stroke="#64748b" stroke-width="1.5"/>
    <path id="Path_8127" data-name="Path 8127" d="M9.806,8.356h9.026V5.034a1.659,1.659,0,0,0-1.659-1.659H5.034A1.659,1.659,0,0,0,3.375,5.034v8.405A1.659,1.659,0,0,0,5.034,15.1H8.142V10.015A1.667,1.667,0,0,1,9.806,8.356Z" transform="translate(1 1)" fill="none" stroke="#64748b" stroke-width="1.5"/>
  </g>
</svg>
