<svg xmlns="http://www.w3.org/2000/svg" width="21.677" height="18.535" viewBox="0 0 21.677 18.535">
  <g id="file-manager-normal" transform="translate(-9 -19)">
    <g id="Group_1885" data-name="Group 1885" transform="translate(9 19)">
      <path id="Path_8123" data-name="Path 8123" d="M10.339,19h3.532a1.258,1.258,0,0,1,.857.346l1.16,1.079h0a.251.251,0,0,0,.171.069H26.941a1.423,1.423,0,0,1,1.339,1.495V24.68a.285.285,0,0,0,.268.3h1.071a1.124,1.124,0,0,1,1.058,1.181,1.312,1.312,0,0,1-.029.273l-2.123,9.953a1.378,1.378,0,0,1-1.3,1.149H10.339A1.423,1.423,0,0,1,9,36.04V20.495H9A1.423,1.423,0,0,1,10.339,19Zm18.846,7.842h0a.331.331,0,0,0,.007-.069.285.285,0,0,0-.268-.3H13.734a.549.549,0,0,0-.517.442L11.1,35.663a.332.332,0,0,0-.009.078.285.285,0,0,0,.268.3H27.011a.276.276,0,0,0,.261-.23h0ZM10.607,20.495h0a.285.285,0,0,0-.268.3h0V32.376a.118.118,0,0,0,.079.115.106.106,0,0,0,.131-.084h0l1.531-6.323a1.372,1.372,0,0,1,1.293-1.1h13.3a.285.285,0,0,0,.268-.3V22.288a.285.285,0,0,0-.268-.3H15.962a1.258,1.258,0,0,1-.857-.346l-1.16-1.079a.251.251,0,0,0-.171-.069H10.607Z" transform="translate(-9 -19)" fill="#64748b"/>
    </g>
  </g>
</svg>
