<svg width="48" height="48" viewBox="0 0 48 48" fill="none" xmlns="http://www.w3.org/2000/svg">
<path d="M8.4 40H19.9V28.5H16.9V34.7C14.8 33.4 13.3 31.8 12.4 30C11.5 28.2 11 26.3 11 24.1C11 21.3 11.8 18.7 13.4 16.5C15 14.3 17 12.7 19.3 11.9V8.8C15.7 9.9 12.9 11.9 10.9 14.8C8.9 17.7 8 20.8 8 24.1C8 27 8.6 29.5 9.8 31.5C11 33.5 12.7 35.3 14.8 36.9H8.4V40ZM37 25H40C40.2 22.9 39.8 20.7 38.9 18.3C37.9 15.9 36.1 13.4 33.3 10.9H39.8V8H28.3V19.5H31.3V13.3C33.6 15.2 35.2 17.2 36 19.3C36.8 21.4 37.1 23.2 37 25Z" fill="#9EA8B7"/>
<line x1="29.9192" y1="29.0808" x2="39.8187" y2="38.9803" stroke="#9EA8B7" stroke-width="2.6"/>
<line x1="39.8187" y1="28.9192" x2="29.9193" y2="38.8187" stroke="#9EA8B7" stroke-width="2.6"/>
</svg>
