<svg width="40" height="40" viewBox="0 0 40 40" fill="none" xmlns="http://www.w3.org/2000/svg">
<path d="M14.811 35.5555C16.1917 35.5555 17.311 34.4363 17.311 33.0555C17.311 31.6748 16.1917 30.5555 14.811 30.5555C13.4303 30.5555 12.311 31.6748 12.311 33.0555C12.311 34.4363 13.4303 35.5555 14.811 35.5555Z" fill="#64748B"/>
<path d="M30 35.5555C31.3807 35.5555 32.5 34.4363 32.5 33.0555C32.5 31.6748 31.3807 30.5555 30 30.5555C28.6193 30.5555 27.5 31.6748 27.5 33.0555C27.5 34.4363 28.6193 35.5555 30 35.5555Z" fill="#64748B"/>
<path d="M36.7555 5.96666C36.6521 5.8392 36.5218 5.73623 36.3739 5.66515C36.2259 5.59406 36.0641 5.55663 35.9 5.55555H12.7666L13.4888 7.77777H34.4444L31.4777 21.1111H14.8111L9.73329 5.03333C9.67837 4.86272 9.58299 4.70794 9.4553 4.58218C9.3276 4.45642 9.17138 4.36342 8.99996 4.3111L4.4444 2.9111C4.30433 2.86806 4.15714 2.85303 4.01126 2.86686C3.86537 2.8807 3.72364 2.92314 3.59415 2.99175C3.33264 3.13032 3.13689 3.36709 3.04996 3.64999C2.96303 3.93289 2.99204 4.23873 3.13061 4.50024C3.26917 4.76175 3.50595 4.9575 3.78885 5.04444L7.77774 6.26666L12.8777 22.3778L11.0555 23.8667L10.9111 24.0111C10.4603 24.5305 10.2048 25.1909 10.1886 25.8784C10.1724 26.566 10.3964 27.2377 10.8222 27.7778C11.125 28.1461 11.5099 28.4384 11.9459 28.6313C12.3819 28.8242 12.8571 28.9124 13.3333 28.8889H31.8777C32.1724 28.8889 32.455 28.7718 32.6634 28.5634C32.8718 28.3551 32.9889 28.0725 32.9889 27.7778C32.9889 27.4831 32.8718 27.2005 32.6634 26.9921C32.455 26.7837 32.1724 26.6667 31.8777 26.6667H13.1555C13.0276 26.6623 12.9029 26.625 12.7936 26.5584C12.6843 26.4918 12.594 26.3981 12.5314 26.2864C12.4688 26.1747 12.4362 26.0487 12.4365 25.9207C12.4368 25.7927 12.4702 25.6669 12.5333 25.5555L15.2111 23.3333H32.3666C32.6235 23.3396 32.8746 23.2567 33.0771 23.0987C33.2797 22.9406 33.4213 22.7173 33.4777 22.4667L37 6.9111C37.0338 6.74546 37.0293 6.57428 36.9869 6.41062C36.9446 6.24695 36.8654 6.09511 36.7555 5.96666V5.96666Z" fill="#64748B" stroke="#64748B"/>
</svg>
