<svg width="40" height="40" viewBox="0 0 40 40" fill="none" xmlns="http://www.w3.org/2000/svg">
<path d="M28.889 23.5C28.3733 22.5849 27.6753 21.7854 26.8382 21.1509C26.0011 20.5164 25.0427 20.0604 24.0223 19.8111C23.0649 19.5239 22.0932 19.2865 21.1112 19.1V9.02223C23.0636 9.23165 24.9262 9.95216 26.5112 11.1111C26.6207 11.2082 26.7481 11.2827 26.8864 11.3304C27.0246 11.3782 27.1709 11.3983 27.3169 11.3895C27.4629 11.3807 27.6057 11.3433 27.7373 11.2793C27.8688 11.2154 27.9864 11.1261 28.0834 11.0167C28.1805 10.9072 28.255 10.7798 28.3028 10.6415C28.3505 10.5033 28.3706 10.357 28.3618 10.211C28.3531 10.065 28.3156 9.92217 28.2517 9.79065C28.1877 9.65912 28.0984 9.54148 27.989 9.44445C26.0004 7.9129 23.6125 6.98705 21.1112 6.77778V3.33334C21.1112 3.03866 20.9942 2.75604 20.7858 2.54767C20.5774 2.33929 20.2948 2.22223 20.0001 2.22223C19.7054 2.22223 19.4228 2.33929 19.2144 2.54767C19.0061 2.75604 18.889 3.03866 18.889 3.33334V6.66667C14.0001 6.77778 11.3001 9.21112 10.4779 11.3111C9.92938 12.6634 9.87726 14.1662 10.3308 15.5532C10.7843 16.9402 11.7142 18.1219 12.9557 18.8889C14.7628 19.9905 16.7869 20.6879 18.889 20.9333V31.1111C15.9882 30.9651 13.2094 29.8987 10.9557 28.0667C10.8551 27.947 10.7304 27.8499 10.5897 27.7817C10.449 27.7135 10.2955 27.6757 10.1393 27.6709C9.98299 27.6661 9.82747 27.6943 9.68285 27.7537C9.53823 27.8131 9.40778 27.9023 9.30001 28.0156C9.19225 28.1289 9.1096 28.2636 9.05747 28.411C9.00535 28.5584 8.98491 28.7151 8.99751 28.871C9.0101 29.0268 9.05544 29.1782 9.13056 29.3154C9.20568 29.4525 9.30889 29.5722 9.43345 29.6667C12.0911 31.9042 15.4176 33.1941 18.889 33.3333V36.6667C18.889 36.9614 19.0061 37.244 19.2144 37.4524C19.4228 37.6607 19.7054 37.7778 20.0001 37.7778C20.2948 37.7778 20.5774 37.6607 20.7858 37.4524C20.9942 37.244 21.1112 36.9614 21.1112 36.6667V33.3333C24.2446 33.1222 27.8557 32.1222 29.2223 28.0445C29.4696 27.3025 29.5674 26.5189 29.5102 25.7389C29.453 24.9589 29.2419 24.198 28.889 23.5V23.5ZM14.2112 17.0222C13.3999 16.5393 12.7874 15.7827 12.484 14.8886C12.1805 13.9945 12.2059 13.0215 12.5557 12.1445C12.6779 11.8111 13.9223 9.02223 18.889 8.8889V18.6667C17.2315 18.4534 15.6376 17.8931 14.2112 17.0222V17.0222ZM27.1112 27.2889C26.3112 29.6667 24.5334 30.8111 21.1112 31.0667V21.3667C21.8223 21.5222 22.5557 21.7 23.3334 21.9333C24.0682 22.1002 24.7613 22.4148 25.3706 22.8579C25.9799 23.3011 26.4928 23.8636 26.8779 24.5111C27.3137 25.3715 27.3974 26.3678 27.1112 27.2889V27.2889Z" fill="#64748B" stroke="#64748B"/>
</svg>
