<svg width="64" height="64" viewBox="0 0 64 64" fill="none" xmlns="http://www.w3.org/2000/svg">
<path d="M18.7884 3.4373C16.8134 3.8748 14.9259 5.2248 13.7634 7.0623C13.3509 7.7123 12.7509 9.4123 12.7509 9.9373V10.2248L10.1009 10.2748C7.75092 10.3123 7.35092 10.3498 6.70092 10.5998C5.28842 11.1248 4.16342 12.2248 3.57592 13.6748C3.22592 14.5623 3.20092 17.2373 3.53842 18.2123C3.83842 19.0623 4.68842 20.2123 5.35092 20.6748L5.87592 21.0373V37.6123C5.87592 55.6748 5.85092 54.9623 6.57592 56.1998C7.06342 57.0248 7.95092 57.8373 8.86342 58.2873L9.68842 58.6873L25.3759 58.7498L41.0634 58.8123L42.2759 59.4123C42.9509 59.7373 44.0509 60.1623 44.7134 60.3373C45.7759 60.6248 46.1884 60.6623 47.8759 60.6748C49.5009 60.6748 49.9884 60.6373 50.9009 60.3998C53.4884 59.7248 55.0509 58.8248 56.9384 56.9373C58.8009 55.0748 59.6884 53.5248 60.4009 50.8998C60.7884 49.4623 60.7884 46.4873 60.4009 44.9498C60.0509 43.5623 59.4509 42.1623 58.7009 41.0123L58.1259 40.1123V30.5748V21.0373L58.6509 20.6748C59.3134 20.2123 60.1634 19.0623 60.4634 18.2123C60.7759 17.2998 60.7884 14.7123 60.4634 13.7873C59.9634 12.3748 58.7259 11.1248 57.2884 10.5873C56.6509 10.3623 56.2384 10.3123 53.9759 10.2748L51.3884 10.2248L51.3009 9.7748C51.0009 7.9498 49.8759 5.9873 48.5134 4.9373C45.4009 2.4998 41.0259 2.7748 38.2009 5.5623C37.0384 6.7123 36.3509 8.0498 35.9509 9.8998L35.8759 10.2498H32.0259H28.1634L27.9634 9.2748C27.7134 8.1623 27.2134 7.1248 26.4634 6.1373C24.7509 3.9248 21.6259 2.8248 18.7884 3.4373ZM21.6384 4.8748C22.4759 5.0373 23.7384 5.6123 24.4134 6.1498C25.4134 6.9498 26.3134 8.4623 26.5509 9.7748L26.6384 10.2498H25.8134C25.1384 10.2498 24.9759 10.2123 24.9259 10.0248C24.5634 8.8498 23.6884 7.7998 22.6384 7.2873C22.0259 6.9873 21.7884 6.9373 20.8134 6.9373C19.4759 6.9373 18.7759 7.2248 17.9009 8.0998C17.0634 8.9248 16.8134 9.5873 16.8134 10.9373C16.8134 12.2373 17.0384 12.7873 17.8884 13.6373C18.5384 14.2873 19.3259 14.6373 20.4134 14.7498C21.1134 14.8248 21.3384 14.9123 21.6384 15.1998C22.1009 15.6373 22.2259 16.2623 21.9634 16.8248C21.6509 17.4623 21.2384 17.6748 20.3134 17.6498C17.4009 17.5623 14.7509 15.1998 14.2509 12.2248C13.9009 10.1623 14.5259 8.1873 15.9884 6.6998C17.5009 5.1498 19.5634 4.4873 21.6384 4.8748ZM45.1009 4.9373C47.4884 5.4998 49.3384 7.4248 49.7884 9.8373L49.8759 10.2498H49.0509C48.3884 10.2498 48.2259 10.2123 48.1634 10.0248C47.9259 9.3123 47.5009 8.6123 47.0009 8.1248C45.5009 6.6248 43.1509 6.4623 41.5134 7.7498C39.2759 9.5248 39.5259 12.9498 41.9884 14.2998C42.4134 14.5248 42.9134 14.6748 43.5009 14.7373C44.5384 14.8498 44.9884 15.1248 45.2384 15.8248C45.3884 16.2498 45.3759 16.3748 45.2134 16.7748C44.9384 17.4373 44.4884 17.6873 43.6009 17.6623C42.1134 17.6123 40.6259 16.9873 39.5259 15.9498C38.2384 14.7498 37.5384 13.2873 37.4134 11.5623C37.1259 7.3123 41.0009 3.9748 45.1009 4.9373ZM21.8509 8.5748C22.3884 8.7998 22.9509 9.2998 23.2009 9.7748C23.3009 9.9623 23.3759 10.1373 23.3759 10.1873C23.3759 10.2248 22.2509 10.2498 20.8759 10.2498C18.0759 10.2498 18.1259 10.2623 18.7384 9.4123C19.4134 8.4873 20.7634 8.1123 21.8509 8.5748ZM45.4384 8.7498C45.8759 9.0123 46.6259 9.8998 46.6259 10.1498C46.6259 10.1998 45.4759 10.2498 44.0634 10.2498H41.5009L41.7509 9.7623C42.0009 9.2623 42.5634 8.7498 43.1259 8.5123C43.6384 8.2873 44.9259 8.4248 45.4384 8.7498ZM56.6259 30.0248C56.6259 34.6248 56.6009 38.3748 56.5634 38.3748C56.5259 38.3748 56.1509 38.0873 55.7259 37.7373C54.7384 36.9498 52.5259 35.8498 51.1259 35.4748C50.2134 35.2248 49.7634 35.1873 47.9384 35.1873C46.1009 35.1873 45.6634 35.2248 44.7509 35.4748C43.5634 35.7998 41.7009 36.6373 40.8134 37.2498L40.2259 37.6498L39.7259 37.1248C38.4009 35.7498 36.4884 35.6748 35.1134 36.9623C33.7384 38.2498 33.7134 40.3248 35.0509 41.6498C35.3134 41.8998 35.6884 42.1748 35.9009 42.2623C36.1509 42.3623 36.2509 42.4748 36.2134 42.6123C36.1759 42.7248 36.0009 43.2248 35.8134 43.7248C35.3634 44.9873 35.1259 46.3123 35.1259 47.6123C35.1259 48.5748 35.0884 48.7373 34.8634 48.9498C34.1009 49.6248 33.8509 51.2873 34.3384 52.3873C34.6759 53.1373 35.3884 53.8123 36.1384 54.0998C36.6259 54.2748 36.8384 54.4623 37.2634 55.0623C37.5509 55.4748 38.0634 56.1373 38.4009 56.5373L39.0259 57.2498H24.6009H10.1884L9.56342 56.9498C8.71342 56.5498 7.92592 55.7248 7.62592 54.9123C7.37592 54.2498 7.37592 53.9248 7.37592 37.9623V21.6873H32.0009H56.6259V30.0248ZM50.6884 36.9748C52.8634 37.5623 54.6634 38.6498 56.2134 40.2998C62.0384 46.5373 59.0509 56.6498 50.7009 58.8998C49.2384 59.2998 46.6134 59.2998 45.1509 58.8998C41.6509 57.9498 38.7759 55.4123 37.4634 52.1123C36.8759 50.6498 36.7134 49.6998 36.7009 47.8748C36.7009 46.4998 36.7509 45.9998 36.9759 45.1498C37.5634 42.9873 38.6134 41.2498 40.3134 39.6498C41.8759 38.1748 43.7134 37.2373 45.9384 36.7998C47.1009 36.5748 49.5134 36.6623 50.6884 36.9748Z" fill="#F55858"/>
<path d="M15.3637 24.3376C14.6762 24.4376 13.7137 25.1626 13.2887 25.8626C12.5887 27.0251 12.5887 28.1001 13.2887 29.2751C14.3262 31.0001 16.7137 31.3501 18.1887 29.9876C18.9637 29.2751 19.2637 28.5876 19.2637 27.5626C19.2637 25.4751 17.4887 24.0126 15.3637 24.3376Z" fill="#F55858"/>
<path d="M25.9894 24.3372C25.3144 24.4372 24.3394 25.1622 23.9269 25.8497C22.7144 27.8747 23.7894 30.2747 26.1269 30.7747C27.1144 30.9747 28.0644 30.6747 28.8894 29.9122C30.2894 28.5997 30.3019 26.5247 28.8894 25.2122C28.0644 24.4372 27.1394 24.1622 25.9894 24.3372Z" fill="#F55858"/>
<path d="M36.2762 24.4877C34.9762 24.9502 34.0762 26.2002 34.0762 27.5627C34.0762 28.9627 35.0512 30.2877 36.3887 30.6752C37.2012 30.9252 37.4137 30.9252 38.2012 30.6877C39.0637 30.4377 39.7637 29.8752 40.1887 29.1002C40.5012 28.5502 40.5512 28.3002 40.5512 27.5627C40.5512 25.2752 38.3887 23.7252 36.2762 24.4877Z" fill="#F55858"/>
<path d="M46.9016 24.4746C45.5766 24.9496 44.7266 26.1746 44.7266 27.5621C44.7266 29.4996 46.4766 31.0746 48.3641 30.8121C50.0891 30.5746 51.4141 28.9121 51.2141 27.2246C50.9641 25.1371 48.8391 23.7871 46.9016 24.4746Z" fill="#F55858"/>
<path d="M15.3637 36.0876C14.6762 36.1876 13.7137 36.9126 13.2887 37.6126C12.5887 38.7751 12.5887 39.8501 13.2887 41.0251C14.3262 42.7501 16.7137 43.1001 18.1887 41.7376C18.9637 41.0251 19.2762 40.3126 19.2762 39.3001C19.2637 37.2251 17.4887 35.7626 15.3637 36.0876Z" fill="#F55858"/>
<path d="M25.6891 36.2252C24.8266 36.5252 24.3141 36.9127 23.9266 37.5752C23.2516 38.7377 23.2391 39.9002 23.9141 41.0252C24.9766 42.7877 27.3516 43.1002 28.8891 41.6627C29.8891 40.7377 30.2016 39.3752 29.7141 38.1002C29.4016 37.3002 28.4641 36.4502 27.6141 36.2002C26.7891 35.9502 26.4766 35.9502 25.6891 36.2252Z" fill="#F55858"/>
<path d="M15.3637 47.837C14.6762 47.9495 13.7012 48.662 13.2887 49.362C12.5887 50.5245 12.5887 51.5995 13.2887 52.7745C13.7637 53.562 14.7012 54.187 15.6262 54.312C16.9512 54.4995 18.4012 53.687 19.0137 52.4245C19.3262 51.7495 19.3637 50.5245 19.0887 49.8495C18.8262 49.212 18.0262 48.3745 17.4387 48.112C16.9012 47.8745 15.9012 47.737 15.3637 47.837Z" fill="#F55858"/>
<path d="M25.6887 47.9751C24.8137 48.2751 24.2262 48.7626 23.8012 49.5251C23.5137 50.0751 23.4512 50.3376 23.4512 51.0626C23.4512 52.3751 24.0137 53.3126 25.1387 53.9376C26.3887 54.6126 27.9762 54.3751 28.9887 53.3626C29.8762 52.4626 30.1637 51.0501 29.7137 49.8501C29.4012 49.0501 28.4762 48.2001 27.6137 47.9501C26.7887 47.7001 26.4762 47.7001 25.6887 47.9751Z" fill="#F55858"/>
<path d="M45.7751 38.9877C43.8126 39.4877 41.8251 40.7627 40.6876 42.2752C38.4626 45.2002 38.1376 49.0252 39.8376 52.2627C40.9376 54.3752 43.2501 56.2252 45.5626 56.8252C48.0376 57.4627 50.8126 57.0127 52.9501 55.6252C53.8501 55.0377 55.1501 53.7127 55.7251 52.8002C57.3751 50.1752 57.5626 46.7252 56.1751 43.9002C55.0626 41.6127 53.0626 39.9127 50.5626 39.1252C49.3126 38.7252 47.0376 38.6627 45.7751 38.9877ZM46.2251 43.2377C46.4751 43.3752 46.9626 43.7627 47.3001 44.1127L47.9126 44.7377L48.7626 43.9377C49.3626 43.3752 49.7501 43.1127 50.0626 43.0502C51.1751 42.8502 52.2001 43.3377 52.6376 44.3002C53.1001 45.3252 52.8876 46.1127 51.8251 47.2377L51.1376 47.9502L51.7626 48.5752C52.8001 49.5752 53.0876 50.4877 52.6876 51.4627C52.4251 52.0877 52.1626 52.3627 51.5626 52.6377C50.5501 53.1127 49.6001 52.8377 48.5751 51.7627L47.9501 51.1377L47.2376 51.8252C46.1126 52.8877 45.3251 53.1002 44.3001 52.6377C43.3376 52.2002 42.8501 51.1752 43.0501 50.0627C43.1126 49.7502 43.3751 49.3627 43.9376 48.7627L44.7376 47.9127L44.1126 47.3002C43.3501 46.5502 43.0001 45.9252 43.0001 45.2627C43.0001 44.6252 43.1876 44.1502 43.6001 43.7002C44.2751 42.9877 45.3626 42.8002 46.2251 43.2377Z" fill="#F55858"/>
</svg>
