<svg xmlns="http://www.w3.org/2000/svg" xmlns:xlink="http://www.w3.org/1999/xlink" width="420.916" height="273.42" viewBox="0 0 420.916 273.42">
  <defs>
    <filter id="Path_144" x="44.387" y="210.446" width="64.643" height="62.974" filterUnits="userSpaceOnUse">
      <feOffset dy="-2" input="SourceAlpha"/>
      <feGaussianBlur stdDeviation="3" result="blur"/>
      <feFlood flood-opacity="0.161"/>
      <feComposite operator="in" in2="blur"/>
      <feComposite in="SourceGraphic"/>
    </filter>
    <linearGradient id="linear-gradient" x1="0.436" y1="0.945" x2="0.439" y2="0.037" gradientUnits="objectBoundingBox">
      <stop offset="0" stop-color="#0f66b1"/>
      <stop offset="1" stop-color="#5ca9eb"/>
    </linearGradient>
    <clipPath id="clip-path">
      <path id="Path_154" data-name="Path 154" d="M1576.986,852.142l6.621,11.469,6.676,11.564a2.452,2.452,0,0,1-2.174,3.576h-6.573v17.61a6.686,6.686,0,0,1-6.667,6.667h0a6.686,6.686,0,0,1-6.667-6.667V878.75h-6.689a2.451,2.451,0,0,1-2.009-3.671l6.621-11.469,6.678-11.565a2.452,2.452,0,0,1,4.184.1m-51.32,66.045h98.871V887.464a5.368,5.368,0,0,0-5.352-5.352h0a5.368,5.368,0,0,0-5.352,5.352v20.019H1536.37V887.464a5.367,5.367,0,0,0-5.351-5.352h0a5.368,5.368,0,0,0-5.352,5.352v30.723Z" transform="translate(-1525.666 -850.92)" fill="none"/>
    </clipPath>
    <filter id="Path_172" x="240.895" y="12.233" width="112.486" height="110.921" filterUnits="userSpaceOnUse">
      <feOffset input="SourceAlpha"/>
      <feGaussianBlur stdDeviation="3" result="blur-2"/>
      <feFlood flood-opacity="0.161"/>
      <feComposite operator="in" in2="blur-2"/>
      <feComposite in="SourceGraphic"/>
    </filter>
  </defs>
  <g id="Group_662" data-name="Group 662" transform="translate(-727.084 -259.876)">
    <path id="Path_141" data-name="Path 141" d="M876.989,503.631H859.272c-19.683,0-35.786,17.3-35.786,38.437s16.1,38.437,35.786,38.437h332.01c31.871,0,53.12-28.007,53.12-62.24s-23.643-59.047-53.12-62.24c-13.475,0-25.664-11.842-25.664-26.316s11.025-26.316,24.5-26.316h13.858c14.011,0,25.474-12.312,25.474-27.361s-11.463-27.361-25.474-27.361h-35.436c-5.456,0-9.918-4.793-9.918-10.651s4.463-10.652,9.918-10.652h2.523a7.133,7.133,0,0,0,6.845-7.351h0a7.133,7.133,0,0,0-6.845-7.351h-24.635s-3.963-2.881-16.3,0-10.1,11.525-33.042,11.525H1047.77c-4.912,0-8.931,4.318-8.931,9.592h0c0,5.276,4.019,9.593,8.931,9.593h8.578c7.116,0,12.94,6.255,12.94,13.9s-5.823,13.9-12.94,13.9H1043.44c-34.856,0-39.779,9.785-45.884,29.244s-68,21.028-68,21.028h-32.6c-10.726,0-19.5,9.425-19.5,20.947.044,7.487,2.236,16.208,16.626,22.759,6.539,2.977,10.617,11.884,10.617,20C904.7,496.231,887.306,503.631,876.989,503.631ZM1190.27,327.367a7.37,7.37,0,1,1,6.844-7.351A7.111,7.111,0,0,1,1190.27,327.367Z" transform="translate(-96.402 -51.508)" fill="#ddf1ff"/>
    <path id="Path_142" data-name="Path 142" d="M1098.635,1066.339s10.139-4.612,8.634-11.755-9.748-6.393-8.634-12.032,6.527-14.422,1.264-20.814-14.018-2.56-15.116-12.472c-.885-7.987-4.575-13.644-11.727-11.986-6.62,1.536-11.556,6.661-11.678,18.851-.133,12.98-9.273,9.333-9.387,18.895-.114,9.63,7.557,9.63,10.553,16.091,1.415,3.052-2.275,13.777,8.632,15.222Z" transform="translate(-259.53 -540.043)" fill="#2edba0"/>
    <path id="Path_143" data-name="Path 143" d="M1125.707,1014.616s-.026.218-.064.643c-.115,1.278-.348,4.392-.348,8.73,0,12.7,2,35.884,14.636,54.392a.548.548,0,0,1,.054.1h-1.323c-12.521-18.739-14.471-41.8-14.474-54.492a92.387,92.387,0,0,1,.418-9.5.554.554,0,0,1,1.1.126" transform="translate(-311.072 -552.186)" fill="#008c3f"/>
    <g transform="matrix(1, 0, 0, 1, 727.08, 259.88)" filter="url(#Path_144)">
      <path id="Path_144-2" data-name="Path 144" d="M1056.534,1127.159s1.595-8.815-4.388-12.4-12.093-6.382-11.429-12.165-.968-12.608-10.555-12.736c-5.926-.077-3.7-6.326-9.722-7.572-3.66-.757-6.073,3.063-6.54,6.814-.533,4.272,1.886,8.473-.889,11.952-3.6,4.509-5.062,12.917,2.676,15.309s.842,9.719,11.378,10.8h29.47Z" transform="translate(-956.7 -860.74)" fill="#2edba0"/>
    </g>
    <path id="Path_145" data-name="Path 145" d="M1044.919,1095.831c.2,5.615,2.693,13.609,6.955,21.235s10.285,14.906,17.481,19.194a.546.546,0,0,1,.228.261h-1.9c-6.935-4.488-12.661-11.549-16.774-18.914-4.328-7.761-6.874-15.848-7.1-21.734a.554.554,0,0,1,1.107-.041" transform="translate(-253.691 -610.225)" fill="#009844"/>
    <path id="Path_146" data-name="Path 146" d="M1092.344,751.835h176.9c4.339,0,6.74,3.705,7.889,7.889L1310.258,880.4c1.149,4.183-3.55,7.889-7.889,7.889h-182.9c-4.339,0-6.938-3.656-7.889-7.889l-27.127-120.676c-.951-4.233,3.55-7.889,7.889-7.889" transform="translate(-282.614 -365.029)" fill="#2e7efa"/>
    <path id="Path_147" data-name="Path 147" d="M1110.572,751.835h176.9c4.339,0,6.74,3.705,7.889,7.889L1328.485,880.4c1.149,4.183-3.55,7.889-7.888,7.889H1137.7c-4.339,0-6.937-3.656-7.889-7.889l-27.127-120.676c-.951-4.233,3.55-7.889,7.889-7.889" transform="translate(-295.626 -365.029)" fill="#102b6e"/>
    <path id="Path_148" data-name="Path 148" d="M1131.881,774.037h173.37c1.25,0,1.93,1.072,2.272,2.273L1338.432,884.6c.343,1.2-1.023,2.272-2.272,2.272H1156.972c-1.249,0-1.99-1.055-2.272-2.272L1129.608,776.31c-.282-1.217,1.022-2.273,2.273-2.273" transform="translate(-314.913 -380.878)" fill="#e8f5fc"/>
    <path id="Path_149" data-name="Path 149" d="M1196.7,1195.451h237.673v6.284a6.3,6.3,0,0,1-6.283,6.283H1202.982a6.3,6.3,0,0,1-6.284-6.283Z" transform="translate(-362.835 -681.723)" fill="#2e7efa"/>
    <path id="Path_150" data-name="Path 150" d="M1664.621,1195.451h176.356v6.284a6.3,6.3,0,0,1-6.284,6.283H1670.9a6.3,6.3,0,0,1-6.283-6.283Z" transform="translate(-696.882 -681.723)" fill="#77c6fb"/>
    <path id="Path_151" data-name="Path 151" d="M1910.02,1212.587h54.068a1.2,1.2,0,1,1,0,2.393H1910.02a1.2,1.2,0,0,1,0-2.393" transform="translate(-871.217 -693.956)" fill="#102b6e"/>
    <path id="Path_152" data-name="Path 152" d="M1210.166,1203.681c1.427,0,2.584,1.448,2.584,3.233s-1.157,3.233-2.584,3.233-2.583-1.448-2.583-3.233,1.156-3.233,2.583-3.233" transform="translate(-370.606 -687.598)" fill="#102b6e"/>
    <rect id="Rectangle_21" data-name="Rectangle 21" width="32.442" height="3.526" transform="translate(886.643 518.267)" fill="#102b6e"/>
    <rect id="Rectangle_22" data-name="Rectangle 22" width="8.286" height="3.526" transform="translate(922.259 518.267)" fill="#102b6e"/>
    <rect id="Rectangle_23" data-name="Rectangle 23" width="8.286" height="3.526" transform="translate(933.456 518.267)" fill="#102b6e"/>
    <rect id="Rectangle_24" data-name="Rectangle 24" width="1.648" height="8.045" transform="translate(851.377 518.251)" fill="#102b6e"/>
    <rect id="Rectangle_25" data-name="Rectangle 25" width="1.648" height="8.045" transform="translate(854.791 518.251)" fill="#102b6e"/>
    <rect id="Rectangle_26" data-name="Rectangle 26" width="1.648" height="8.045" transform="translate(858.205 518.251)" fill="#102b6e"/>
    <rect id="Rectangle_27" data-name="Rectangle 27" width="1.648" height="8.045" transform="translate(861.619 518.251)" fill="#102b6e"/>
    <rect id="Rectangle_28" data-name="Rectangle 28" width="1.648" height="8.045" transform="translate(865.033 518.251)" fill="#102b6e"/>
    <rect id="Rectangle_29" data-name="Rectangle 29" width="1.648" height="8.045" transform="translate(868.446 518.251)" fill="#102b6e"/>
    <rect id="Rectangle_30" data-name="Rectangle 30" width="1.648" height="8.045" transform="translate(871.86 518.251)" fill="#102b6e"/>
    <rect id="Rectangle_31" data-name="Rectangle 31" width="1.648" height="8.045" transform="translate(871.86 518.251)" fill="#102b6e"/>
    <rect id="Rectangle_32" data-name="Rectangle 32" width="1.648" height="8.045" transform="translate(875.274 518.251)" fill="#102b6e"/>
    <rect id="Rectangle_33" data-name="Rectangle 33" width="1.648" height="8.045" transform="translate(875.274 518.251)" fill="#102b6e"/>
    <rect id="Rectangle_34" data-name="Rectangle 34" width="1.647" height="8.045" transform="translate(878.688 518.251)" fill="#102b6e"/>
    <path id="Path_157" data-name="Path 157" d="M1906.576,743.179h13.877a1.284,1.284,0,0,0,1.274-1.113,1.261,1.261,0,0,0,.008-.27l-.563-7.289a8.1,8.1,0,0,0-1.386-.457,1.406,1.406,0,0,1-1.03-.933c-.01-.035-.019-.07-.028-.106-.319-1.4-2.341-1.849-2.715-.478-.049.177-.091.349-.126.515-.009.041-.018.083-.026.122-.06.295-.1.567-.134.8l0,.015a7.949,7.949,0,0,0-.068.991q-.276.35-.533.688c-.088.113-.172.225-.257.334q-.273.355-.534.69c-.08.1-.16.205-.241.3-.192.241-.382.469-.572.682-.086.1-.171.191-.259.282a3.993,3.993,0,0,1-2.291,1.385c-1.5.207-3.962.372-5.15,2.58a.787.787,0,0,0-.06.141.856.856,0,0,0,.816,1.113" transform="translate(-869 -350.656)" fill="#3e3e3e"/>
    <path id="Path_158" data-name="Path 158" d="M1985.214,501.029v8.54c0,9.468-1.67,30.261-2.275,41.751l-6.355-.124-5.215-41.441-8.911,1.275-.44-11.309h0c-.1-39.1,19.921-29.992,18.168-7.826-.192,2.44,5.963,6.456,5.028,9.134" transform="translate(-909.191 -165.851)" fill="#000446"/>
    <path id="Path_159" data-name="Path 159" d="M1943.18,573.654l15.094,3.245-10.887,24.721-4.085,21.045-6.7.173c.176-10.2.982-20.464,1.471-26.338.257-3.079,3.32-13.974,5.108-22.846" transform="translate(-891.048 -237.826)" fill="#000446"/>
    <path id="Path_160" data-name="Path 160" d="M2005.158,749.442c.115,2.025,7.292,1.327,8.44.719a1.381,1.381,0,0,0,.663-1.234,8.6,8.6,0,0,0-.552-2.868c-.459-1.427-.4-1.4-.715-2.375,0,0,.082-1.586-2.269-2.191s-3.214,3.342-3.616,4.1c-.368.7-1.8,1.647-1.945,3.359a3.343,3.343,0,0,0-.007.488" transform="translate(-939.985 -357.6)" fill="#3e3e3e"/>
    <path id="Path_161" data-name="Path 161" d="M1920.283,443.5c-2.179,4.783-3.6,6.3-9.837,7.233-5.06.754-14.69-10.625-15.418-12.179s2.037-5.611,2.929-5.142,11.272,8.4,11.983,8.352,3.168-1.171,8.72-4.776c.525-.338,3.158,4.2,1.623,6.513" transform="translate(-861.282 -137.68)" fill="#fb91bd"/>
    <path id="Path_162" data-name="Path 162" d="M1983.983,443.786c2.078,3.1-4.181,21.159-2.448,36.895-9.716,1.668-19.933.461-25.736-1.387.013-11.906,1.106-26.1,3.573-34.991.58-1.443,1.728-2.47,4.567-3.265,6.912-1.937,17.2-1.5,20.044,2.748" transform="translate(-904.752 -142.366)" fill="#2f82c9"/>
    <path id="Path_163" data-name="Path 163" d="M1990.383,398.741a7.265,7.265,0,0,0,2.994,3.092l-.037,1.976-.288.245c-1.126,1.207-.021,4.066,1.148,5.057,1.908-.221,5.961-3.949,4.986-5.393l-.423-.472-.093-2.8c.167-.009,1.385-.7,1.747-.813a1.879,1.879,0,0,0,.93-1.548c.036-.737-1.1-.5-1.1-.5,1.38-1.889,2.943-3.432.916-5.133s-6.683-2.693-6.683-2.693l-2.8-.972c.356.967-.387,3.735-1.107,5.749-.645,1.806-1.1,2.373-.185,4.2" transform="translate(-929.073 -105.855)" fill="#f7cccf"/>
    <path id="Path_164" data-name="Path 164" d="M2006.017,430.894s-1.585,2.718-2.887,2.964-.637.064-1.122.006l.037-1.976c.9.144,1.775.073,3.972-.995" transform="translate(-937.74 -135.911)" fill="#e98385"/>
    <path id="Path_165" data-name="Path 165" d="M1895.48,431.639a5.016,5.016,0,0,1-2.176,4.256c-.116-.207-.812-1.1-1.272-1.791-.99-1.48,1.346-4.57,2.03-3.884Z" transform="translate(-859.058 -135.36)" fill="#76c5fb"/>
    <path id="Path_166" data-name="Path 166" d="M1877.21,412.548c-.146-.675-.759-3.341-1.256-3.789-.254-.229-.314-.125-.427.02a1.214,1.214,0,0,0-.155.708,10.252,10.252,0,0,0,.172,1.212c-1.5-.788-2.945-2.633-4.045-3.9-.447-.514-1.157-.459-.728.458a18.885,18.885,0,0,0,1.742,2.43l-1.9-1.224c-.527-.286-.524.363-.273.635.413.447,1.682,1.641,1.682,1.641l-1.384-.5c-.529-.193-.253.459-.112.574.324.264,1.474,1,1.474,1l-.636-.21c-.719-.237-.192.688.016.753.044.014,2.529,1.588,2.961,1.847a10.36,10.36,0,0,1,2.358,2.617,4.93,4.93,0,0,0,1.607-3.023Z" transform="translate(-843.627 -118.48)" fill="#f4b1b1"/>
    <path id="Path_167" data-name="Path 167" d="M1992.674,380.169c1.91.546,4.516.4,5.873,2,.672.791.6,1.932-.149,3.694-.221.52-.517.9.36.5.4-.186,1.066-.447,1.292-.264a1.043,1.043,0,0,1-.151,1.539c-.18.123-.519.307-.519.307,3.179.041,5.337-3.671,5.2-6.384-.2-4.069-2.853-5.291-5.977-7.35-1.066-.7-.127-1.845-1.1-2.152-6.492-2.049-10.688,6.206-4.833,8.119" transform="translate(-929.084 -93.671)" fill="#000446"/>
    <path id="Path_169" data-name="Path 169" d="M1778.739,539.329l5.589,6.349c1.186,1.347,2.138,3.122-.706,5.625l-6.759,5.951-31.954-2.706s1.144-16.184.741-16.641c-.317-.361,23.111.879,33.088,1.422" transform="translate(-754.2 -212.26)" fill="#2862cc"/>
    <path id="Path_178" data-name="Path 178" d="M1400.7,556.749a3.588,3.588,0,0,0-4.992-.871l0,0a3.588,3.588,0,0,0-.863,4.994v0a3.586,3.586,0,0,0,5.864-4.129Zm-1.975-3.436a5.559,5.559,0,0,1,3.608,2.286h0a5.579,5.579,0,1,1-9.122,6.424h0a5.577,5.577,0,0,1,1.35-7.773h0A5.565,5.565,0,0,1,1398.722,553.313Z" transform="translate(-283.393 -173.343)" fill="#f18e00"/>
    <path id="Path_182" data-name="Path 182" d="M1188.5,516.827a3.588,3.588,0,0,0-4.992-.87l0,0a3.588,3.588,0,0,0-.863,4.993v0a3.586,3.586,0,0,0,5.864-4.129Zm-1.975-3.436a5.567,5.567,0,0,1,3.609,2.286l0,0a5.578,5.578,0,1,1-9.122,6.423l0,0a5.576,5.576,0,0,1,1.35-7.773h0l0,0A5.567,5.567,0,0,1,1186.524,513.39Z" transform="translate(-316.72 -183.062)" fill="#f18e00"/>
    <path id="Icon_awesome-cloud" data-name="Icon awesome-cloud" d="M196.011,73.2a35.043,35.043,0,0,0-32.669-47.617,34.823,34.823,0,0,0-19.433,5.907A58.341,58.341,0,0,0,35,60.587c0,.984.036,1.969.073,2.953A52.517,52.517,0,0,0,52.5,165.593H186.677A46.667,46.667,0,0,0,196.011,73.2Z" transform="translate(858.205 348.136)" fill="url(#linear-gradient)"/>
    <path id="Path_156" data-name="Path 156" d="M1948.356,822.354h-34.322q2.67,8.845,5.338,17.69h34.321q-2.669-8.845-5.337-17.69m-6.394-21.177h-34.314q2.669,8.845,5.338,17.691H1947.3Q1944.632,810.022,1941.963,801.177Zm-6.394-21.19h-34.313q2.669,8.844,5.337,17.691h34.314Q1938.239,788.832,1935.569,779.987Zm-6.394-21.192h-34.314q2.669,8.845,5.338,17.691h34.314Q1931.844,767.641,1929.175,758.8Zm-6.394-21.177h-34.313q2.669,8.845,5.337,17.691h34.313Q1925.451,746.464,1922.781,737.618Zm-35.369-3.5h34.314l-4.1-13.585a1.281,1.281,0,0,1,1.28-1.75h0a2.638,2.638,0,0,1,2.353,1.75q10.134,33.585,20.271,67.155t20.254,67.142a1.715,1.715,0,0,1,.067.332h-3.566a2.09,2.09,0,0,1-.134-.332q-1.7-5.641-3.4-11.285h-34.321q1.708,5.642,3.409,11.285a1.674,1.674,0,0,1,.066.332h-3.557a2.043,2.043,0,0,1-.134-.332q-10.122-33.566-20.263-67.142l-20.262-67.155a1.282,1.282,0,0,1,1.281-1.75h0a2.629,2.629,0,0,1,2.345,1.75Z" transform="translate(-850.364 -341.433)" fill="#8ebaff"/>
    <g id="Group_32" data-name="Group 32" transform="translate(927.983 415.155)">
      <g id="Group_31" data-name="Group 31" transform="translate(0 0)" clip-path="url(#clip-path)">
        <rect id="Rectangle_36" data-name="Rectangle 36" width="98.871" height="67.744" transform="translate(0 -0.477)" fill="#fff"/>
      </g>
    </g>
    <path id="Path_155" data-name="Path 155" d="M1586.73,696.166a31.793,31.793,0,0,1,36.008.161l2.572-3.6a35.4,35.4,0,0,0-41.01-.263Z" transform="translate(-628.438 -312.519)" fill="#f5f8ff"/>
    <path id="Path_168" data-name="Path 168" d="M1560.728,472.11l52.129-45.89a3.519,3.519,0,0,1,4.952.315l34.349,39.02a3.519,3.519,0,0,1-.315,4.952l-41.968,36.944a69.214,69.214,0,0,0-12.2-.987,72.878,72.878,0,0,0-10.729.74l-26.535-30.144a3.518,3.518,0,0,1,.316-4.952" transform="translate(-621.867 -131.953)" fill="#fff" stroke="#569ddb" stroke-width="1"/>
    <path id="Path_171" data-name="Path 171" d="M1701.775,478.1a6.645,6.645,0,1,1-.6,9.378,6.645,6.645,0,0,1,.6-9.378" transform="translate(-712.797 -169.544)" fill="#ddf1ff"/>
    <path id="Icon_open-document" data-name="Icon open-document" d="M0,0V36H31.5V18h-18V0ZM18,0V13.5H31.5ZM4.5,9H9v4.5H4.5Zm0,9H9v4.5H4.5Zm0,9h18v4.5H4.5Z" transform="translate(985.031 320.338) rotate(49)" fill="#569ddb"/>
    <g transform="matrix(1, 0, 0, 1, 727.08, 259.88)" filter="url(#Path_172)">
      <path id="Path_172-2" data-name="Path 172" d="M1700.693,430.914l51.858-45.89a3.488,3.488,0,0,1,4.926.316l34.17,39.021a3.533,3.533,0,0,1-.314,4.952L1739.476,475.2a3.487,3.487,0,0,1-4.926-.316l-34.17-39.02a3.531,3.531,0,0,1,.313-4.952" transform="translate(-1448.88 -362.42)" fill="#fff" stroke="#569ddb" stroke-width="1"/>
    </g>
    <path id="Icon_awesome-file-pdf" data-name="Icon awesome-file-pdf" d="M17.917,25.226c-.492-1.576-.483-4.62-.2-4.62C18.547,20.606,18.468,24.241,17.917,25.226Zm-.167,4.649a45.45,45.45,0,0,1-2.8,6.176,36.27,36.27,0,0,1,6.2-2.157A12.759,12.759,0,0,1,17.749,29.875ZM8.481,42.167c0,.079,1.3-.532,3.438-3.96C11.258,38.828,9.052,40.621,8.481,42.167ZM24.428,15.76h13.4V48.067a2.358,2.358,0,0,1-2.364,2.364H2.364A2.358,2.358,0,0,1,0,48.067V2.364A2.358,2.358,0,0,1,2.364,0h19.7V13.4A2.371,2.371,0,0,0,24.428,15.76ZM23.64,32.682a9.886,9.886,0,0,1-4.206-5.3c.443-1.822,1.143-4.59.611-6.324-.463-2.9-4.176-2.61-4.708-.67-.492,1.8-.039,4.344.8,7.584a92.492,92.492,0,0,1-4.019,8.451c-.01,0-.01.01-.02.01-2.669,1.369-7.25,4.383-5.368,6.7a3.061,3.061,0,0,0,2.118.985c1.763,0,3.516-1.773,6.018-6.087a56.146,56.146,0,0,1,7.781-2.285,14.927,14.927,0,0,0,6.3,1.921,2.55,2.55,0,0,0,1.94-4.275c-1.369-1.34-5.348-.955-7.25-.709ZM37.134,10.342,27.481.689A2.362,2.362,0,0,0,25.807,0h-.591V12.608H37.823v-.6A2.356,2.356,0,0,0,37.134,10.342Zm-7.3,25.147c.4-.266-.246-1.172-4.216-.886C29.274,36.159,29.835,35.489,29.835,35.489Z" transform="translate(1032.464 295.692) rotate(49)" fill="#569ddb"/>
    <g id="Group_35" data-name="Group 35" transform="translate(0 16)">
      <path id="Path_176" data-name="Path 176" d="M2000.436,449.825a3.607,3.607,0,0,1,4.426-3.481c5.353,1.364,5.535,17.552,4.126,21.784-.987,2.863-16.264,6.273-18.207,5.667a4.741,4.741,0,0,1-2.59-2.013,1.267,1.267,0,0,1,.691-1.92c3.129-1.384,12.405-4.494,12.584-5.347,1.494-7.1-1.226-10.469-1.029-14.691" transform="translate(-927.732 -162.9)" fill="#3e3e3e"/>
      <path id="Path_177" data-name="Path 177" d="M1968.767,529.138l-1.338.435-2.992-.524c-.334-.15-2.511-.658-1.932.06.406.505,1.659,1.335,1.628,1.391-.4.73-4.454,1.824-4.495,1.89-.563.922,2.051.379,2.5.306a16.671,16.671,0,0,0-1.633.852.908.908,0,0,0,.852.256,11.1,11.1,0,0,1,1.723-.385c.126.09-1.659.847-1.536.923a.794.794,0,0,0,.66.1,15.411,15.411,0,0,1,1.678-.464c.157.063-1.153.528-1,.574.115.035.146.244.262.229,3.131-.414,3.081-2.021,6.678-2.4,2-.211-.362-2.936-1.05-3.246" transform="translate(-907.437 -221.758)" fill="#ebb8bc"/>
    </g>
    <path id="Path_183" data-name="Path 183" d="M7682.269,334.962h0l2.12-3.6,20.146.32,1.735,3.276h-23.422" transform="translate(-6717.804 41)" fill="#fff"/>
  </g>
</svg>
