<svg xmlns="http://www.w3.org/2000/svg" width="15.464" height="10.438" viewBox="0 0 15.464 10.438">
  <path id="email" d="M.072,13.582V4.993q0-.015.045-.283L5.172,9.034.132,13.88a1.264,1.264,0,0,1-.06-.3ZM.743,4.113A.643.643,0,0,1,1,4.068H14.611a.844.844,0,0,1,.268.045L9.809,8.452l-.671.537L7.811,10.077,6.484,8.989l-.671-.537ZM.758,14.462,5.843,9.585l1.968,1.6,1.968-1.6,5.085,4.876a.716.716,0,0,1-.254.045H1a.675.675,0,0,1-.239-.045Zm9.693-5.428,5.04-4.324a.89.89,0,0,1,.045.283v8.589a1.143,1.143,0,0,1-.045.3Z" transform="translate(-0.072 -4.068)" fill="#287cc4"/>
</svg>
