<svg width="80" height="80" viewBox="0 0 80 80" fill="none" xmlns="http://www.w3.org/2000/svg">
<path d="M7.50092 12.7038C6.73529 12.9538 5.42279 14.2976 5.18842 15.0945C5.04779 15.5945 5.00092 20.4538 5.01654 35.6413C5.01654 55.6413 5.04779 56.7976 5.54779 56.5788C5.64154 56.532 10.2197 50.8601 15.7353 43.9695C21.2509 37.0632 25.9384 31.3132 26.1259 31.1882C27.1103 30.5632 28.3759 30.7663 29.2353 31.6726C29.5478 32.0007 31.1884 34.0945 32.8915 36.3288C34.5947 38.5632 36.0478 40.4538 36.1259 40.5476C36.204 40.6413 37.6103 39.3445 39.8134 37.157C41.7665 35.2195 43.5947 33.5007 43.8915 33.3601C44.5478 33.032 45.6415 33.1101 46.2353 33.5476C46.5634 33.7976 53.2822 41.0632 55.7978 43.8913L56.4072 44.5788L57.7822 43.9382C59.6884 43.032 61.1728 42.657 63.2509 42.5476L65.0009 42.4538V29.0945C65.0009 19.2351 64.9541 15.5788 64.8134 15.1257C64.7197 14.782 64.3291 14.157 63.9541 13.7507C62.7353 12.3913 65.2978 12.5007 34.9384 12.5163C15.8134 12.532 7.89154 12.5788 7.50092 12.7038ZM53.8134 18.0945C55.2353 18.7507 56.1416 19.657 56.8447 21.0632C57.3916 22.1882 57.4228 22.3288 57.4228 23.7507C57.4228 25.1726 57.3916 25.3132 56.8447 26.4382C56.1416 27.8601 55.2353 28.7351 53.7822 29.4226C52.829 29.8757 52.5947 29.9226 51.2509 29.9226C49.9072 29.9226 49.6728 29.8757 48.7197 29.4226C47.2665 28.7351 46.3603 27.8601 45.6572 26.4382C45.1103 25.3132 45.079 25.1726 45.079 23.7663C45.079 22.407 45.1259 22.1726 45.579 21.2195C46.204 19.8913 47.0947 18.9226 48.2665 18.3132C49.4853 17.657 50.1728 17.5007 51.5947 17.5632C52.5478 17.6101 53.0322 17.7351 53.8134 18.0945Z" fill="#F55858"/>
<path d="M50.0008 20.2031C49.2352 20.4531 47.9227 21.7969 47.6883 22.5937C47.2508 24.0625 47.5633 25.2344 48.6727 26.3281C49.4696 27.1406 50.2664 27.5 51.2508 27.5C53.1883 27.5 55.0008 25.6875 55.0008 23.75C55.0008 22.7656 54.6414 21.9687 53.8289 21.1719C52.7352 20.0625 51.4539 19.75 50.0008 20.2031Z" fill="#F55858"/>
<path d="M17.3924 45.8906C11.0955 53.75 7.43926 58.4218 7.53301 58.5156C7.72051 58.7187 46.7674 58.8125 46.6893 58.6093C46.6111 58.375 27.5955 33.4531 27.4861 33.4375C27.4393 33.4375 22.908 39.0468 17.3924 45.8906Z" fill="#F55858"/>
<path d="M41.3125 39.25L37.7812 42.75L43.9219 50.625C47.2812 54.9687 50.0625 58.5468 50.0938 58.5781C50.125 58.6093 50.0938 57.9062 50.0469 57.0156C49.8438 53.3281 51 50.0469 53.4688 47.1562L54.4062 46.0625L53.9375 45.5781C53.6875 45.2969 51.5938 43 49.2969 40.4687C47 37.9375 45.0469 35.8281 44.9688 35.7969C44.8906 35.7812 43.2344 37.3281 41.3125 39.25Z" fill="#F55858"/>
<path d="M61.5632 45.219C59.1413 45.7503 57.5632 46.6096 55.782 48.4221C54.7351 49.469 54.2976 50.0628 53.782 51.094C52.8132 53.0471 52.5788 54.094 52.5945 56.4065C52.6101 58.0784 52.6726 58.5471 53.0163 59.6096C53.6101 61.4065 54.4226 62.719 55.8601 64.1409C57.3132 65.594 58.3601 66.2503 60.2663 66.9221C61.5163 67.3596 61.8288 67.4065 63.5945 67.4065C65.907 67.4221 66.9695 67.1878 68.8757 66.219C72.7976 64.2659 75.2663 59.8909 74.9538 55.4534C74.7507 52.6878 73.6882 50.4065 71.6413 48.3596C69.4695 46.1878 67.2195 45.1878 64.2195 45.0784C63.1726 45.0315 62.2195 45.094 61.5632 45.219ZM66.5788 48.0003C68.907 48.8596 70.5476 50.2971 71.5632 52.4065C73.9226 57.3128 71.5163 62.844 66.2507 64.6253C64.9851 65.0628 62.282 65.0159 61.032 64.5628C58.2351 63.5471 56.3288 61.5784 55.3757 58.7503C55.157 58.1253 55.0788 57.4378 55.0788 56.2503C55.0788 53.7815 55.8601 51.844 57.5163 50.1565C58.7663 48.8909 60.3288 48.0315 62.1101 47.6409C63.2038 47.4065 65.4382 47.594 66.5788 48.0003Z" fill="#F55858"/>
<path d="M62.2812 50.1562C61.2969 50.4062 59.8906 51.25 59.2031 51.9844C58.8594 52.3594 58.3438 53.1406 58.0781 53.7188C57.625 54.6719 57.5781 54.9062 57.5781 56.25C57.5781 57.5781 57.625 57.8438 58.0469 58.7188L58.5156 59.7031L62.8594 55.3438L67.2031 50.9844L66.25 50.5625C65.1719 50.0781 63.3594 49.8906 62.2812 50.1562Z" fill="#F55858"/>
<path d="M64.6406 57.1562L60.2969 61.5156L61.2812 61.9688C62.1406 62.3594 62.4531 62.4219 63.75 62.4219C65.0938 62.4219 65.3281 62.375 66.2812 61.9219C67.7344 61.2344 68.6406 60.3594 69.3438 58.9375C69.8906 57.8125 69.9219 57.6719 69.9219 56.2656C69.9219 54.9219 69.875 54.6562 69.4531 53.7812L68.9844 52.7969L64.6406 57.1562Z" fill="#F55858"/>
</svg>
