<svg width="370" height="170" viewBox="0 0 370 170" fill="none" xmlns="http://www.w3.org/2000/svg">
<path d="M0 16C0 7.16344 7.16344 0 16 0H354C362.837 0 370 7.16344 370 16V170H0V16Z" fill="#E1F6FF"/>
<path d="M183.77 140.03C218.547 140.03 246.74 110.922 246.74 75.0151C246.74 39.1082 218.547 10 183.77 10C148.993 10 120.801 39.1082 120.801 75.0151C120.801 110.922 148.993 140.03 183.77 140.03Z" fill="#9AE0FF"/>
<path d="M129.647 43.9763H126.584V57.8172H129.647V43.9763Z" fill="#314265"/>
<path d="M129.647 60.8665H126.584V67.789H129.647V60.8665Z" fill="#314265"/>
<path d="M244.62 118.392C244.62 120.17 243.227 121.617 241.501 121.617H131.24C129.518 121.617 128.116 120.174 128.116 118.392V36.6019C128.116 34.82 129.514 33.3811 131.24 33.3811H241.505C243.227 33.3811 244.624 34.82 244.624 36.6019V118.392H244.62Z" fill="#314265"/>
<path d="M244.62 38.4797H128.12V114.736H244.62V38.4797Z" fill="white"/>
<path d="M196.111 118.225C196.111 118.673 195.763 119.032 195.329 119.032H177.399C176.969 119.032 176.621 118.673 176.621 118.225C176.621 117.782 176.969 117.422 177.399 117.422H195.329C195.767 117.422 196.111 117.782 196.111 118.225Z" fill="white"/>
<path d="M192.352 36.1546C192.352 36.5729 192.024 36.9158 191.618 36.9158H181.13C180.725 36.9158 180.393 36.577 180.393 36.1546C180.393 35.7321 180.725 35.3933 181.13 35.3933H191.618C192.024 35.3933 192.352 35.7321 192.352 36.1546Z" fill="white"/>
<path d="M231.814 80.3329C231.814 80.9059 231.365 81.3702 230.81 81.3702H204.436C203.881 81.3702 203.432 80.9059 203.432 80.3329V69.7002C203.432 69.1271 203.881 68.6628 204.436 68.6628H230.81C231.365 68.6628 231.814 69.1271 231.814 69.7002V80.3329V80.3329Z" fill="#314265"/>
<path d="M210.299 73.6113C210.177 73.6113 210.088 73.5737 210.027 73.5068C209.966 73.4357 209.938 73.3436 209.938 73.2349V71.5074C209.938 71.3903 209.906 71.2983 209.849 71.2271C209.788 71.156 209.699 71.1226 209.578 71.1226C209.452 71.1226 209.363 71.156 209.302 71.2271C209.245 71.2983 209.213 71.3903 209.213 71.5074C209.213 71.8964 209.233 72.2519 209.278 72.5656C209.322 72.8794 209.379 73.168 209.456 73.4357C209.529 73.7034 209.614 73.9543 209.707 74.1886C209.8 74.4228 209.894 74.6612 209.991 74.8955C210.088 75.1297 210.181 75.3681 210.274 75.6149C210.368 75.8617 210.453 76.1252 210.526 76.4138C210.598 76.7024 210.659 77.0161 210.704 77.3591C210.748 77.7021 210.769 78.0911 210.769 78.5178C210.769 78.6893 210.74 78.844 210.683 78.9779C210.627 79.1117 210.546 79.2288 210.44 79.3251C210.335 79.4213 210.205 79.4965 210.06 79.5467C209.914 79.5969 209.748 79.6262 209.569 79.6262C209.193 79.6262 208.897 79.5258 208.686 79.3292C208.476 79.1326 208.37 78.8608 208.37 78.5178V76.5477C208.37 76.51 208.382 76.4766 208.403 76.4515C208.423 76.4264 208.455 76.4138 208.496 76.4138H208.844C208.966 76.4138 209.055 76.4473 209.116 76.5184C209.176 76.5895 209.205 76.6815 209.205 76.7903V78.5178C209.205 78.6349 209.233 78.7269 209.294 78.798C209.355 78.8691 209.444 78.9026 209.565 78.9026C209.691 78.9026 209.78 78.8691 209.841 78.798C209.898 78.7269 209.93 78.6349 209.93 78.5178C209.93 77.9698 209.894 77.4846 209.812 77.0747C209.736 76.6606 209.638 76.2883 209.521 75.9495C209.403 75.6107 209.278 75.2928 209.148 74.9875C209.014 74.6863 208.889 74.3642 208.775 74.0296C208.658 73.695 208.561 73.3269 208.484 72.9212C208.407 72.5155 208.366 72.0428 208.366 71.5032C208.366 71.3317 208.395 71.177 208.451 71.0431C208.508 70.9093 208.589 70.7921 208.694 70.6959C208.8 70.5997 208.925 70.5244 209.071 70.4742C209.217 70.424 209.383 70.3948 209.565 70.3948C209.942 70.3948 210.238 70.4952 210.449 70.6918C210.659 70.8883 210.765 71.1602 210.765 71.5032V73.4733C210.765 73.511 210.752 73.5444 210.732 73.5695C210.712 73.5946 210.679 73.6072 210.639 73.6072H210.299V73.6113Z" fill="white"/>
<path d="M215.456 75.9579C215.456 75.8449 215.485 75.7529 215.545 75.686C215.602 75.6149 215.691 75.5772 215.809 75.573H216.169C216.21 75.573 216.242 75.5856 216.262 75.6107C216.283 75.6358 216.295 75.6693 216.295 75.7069V78.5177C216.295 78.8607 216.189 79.1326 215.979 79.3292C215.768 79.5258 215.472 79.6262 215.096 79.6262C214.913 79.6262 214.747 79.6011 214.601 79.5467C214.456 79.4965 214.33 79.4212 214.225 79.325C214.119 79.2288 214.038 79.1117 213.982 78.9778C213.925 78.844 213.896 78.6892 213.896 78.5177V71.5074C213.896 71.1644 214.002 70.8925 214.212 70.6959C214.423 70.4993 214.719 70.3989 215.096 70.3989C215.274 70.3989 215.436 70.424 215.586 70.4784C215.736 70.5286 215.861 70.6039 215.967 70.7001C216.072 70.7963 216.153 70.9134 216.21 71.0473C216.266 71.1811 216.295 71.3359 216.295 71.5074V74.3935C216.295 74.4311 216.283 74.4646 216.262 74.4897C216.242 74.5148 216.21 74.5273 216.169 74.5273H215.821C215.699 74.5273 215.61 74.4939 215.549 74.4228C215.489 74.3517 215.46 74.2597 215.46 74.1509V71.5074C215.46 71.3902 215.432 71.2982 215.371 71.2271C215.314 71.156 215.221 71.1225 215.096 71.1225C214.974 71.1225 214.885 71.156 214.824 71.2271C214.763 71.2982 214.735 71.3902 214.735 71.5074V78.5177C214.735 78.6349 214.763 78.7269 214.824 78.798C214.881 78.8691 214.974 78.9026 215.1 78.9026C215.221 78.9026 215.31 78.8691 215.371 78.798C215.432 78.7269 215.46 78.6349 215.46 78.5177V75.9579H215.456Z" fill="white"/>
<path d="M220.839 70.4993C220.876 70.4993 220.904 70.5118 220.924 70.5369C220.945 70.562 220.957 70.5913 220.961 70.6289L221.71 79.3626C221.714 79.4003 221.702 79.4379 221.678 79.4714C221.65 79.5048 221.609 79.5216 221.548 79.5216H221.245C221.139 79.5216 221.054 79.4923 220.985 79.4295C220.916 79.3668 220.88 79.2915 220.868 79.1995L220.799 77.9697H220.167L220.098 79.1995C220.09 79.2915 220.049 79.3668 219.981 79.4295C219.912 79.4923 219.827 79.5216 219.721 79.5216H219.417C219.361 79.5216 219.316 79.5048 219.288 79.4714C219.259 79.4379 219.247 79.4003 219.255 79.3626L220.005 70.6289C220.009 70.5955 220.021 70.5662 220.041 70.5369C220.062 70.5118 220.09 70.4993 220.13 70.4993H220.839ZM220.211 77.2461H220.762L220.487 72.4234L220.211 77.2461Z" fill="white"/>
<path d="M226.957 70.4995C226.998 70.4995 227.03 70.5121 227.051 70.5372C227.071 70.5623 227.083 70.5957 227.083 70.6334V79.3838C227.083 79.4215 227.071 79.4549 227.051 79.48C227.03 79.5051 226.998 79.5177 226.957 79.5177H226.609C226.5 79.5177 226.419 79.4926 226.358 79.4382C226.301 79.3838 226.265 79.3127 226.253 79.2207C226.253 79.1705 226.236 79.0492 226.204 78.861C226.171 78.6727 226.135 78.4427 226.086 78.175C226.038 77.9073 225.985 77.6103 225.928 77.2882C225.872 76.9662 225.811 76.6441 225.754 76.3178C225.698 75.9916 225.641 75.682 225.588 75.3851C225.535 75.0881 225.495 74.8329 225.458 74.6196L225.519 79.137C225.523 79.25 225.495 79.342 225.43 79.4089C225.365 79.4758 225.276 79.5135 225.155 79.5135H224.806C224.766 79.5135 224.733 79.5009 224.713 79.4758C224.693 79.4507 224.681 79.4173 224.681 79.3796V70.6292C224.681 70.5916 224.693 70.5581 224.713 70.533C224.733 70.5079 224.766 70.4954 224.806 70.4954H225.155C225.26 70.4954 225.341 70.5246 225.406 70.5832C225.471 70.6418 225.507 70.7171 225.515 70.8133C225.523 70.8802 225.544 71.0224 225.572 71.2357C225.6 71.449 225.637 71.7 225.685 71.997C225.73 72.2898 225.783 72.6119 225.835 72.959C225.888 73.3062 225.945 73.645 226.001 73.9755C226.058 74.3101 226.111 74.6196 226.163 74.9082C226.216 75.1968 226.261 75.4311 226.305 75.6151L226.244 70.8258C226.244 70.7254 226.277 70.6459 226.346 70.5874C226.411 70.5288 226.5 70.4954 226.609 70.4954H226.957V70.4995Z" fill="white"/>
<path d="M187.037 101.892L187.961 93.2502C187.961 90.8535 185.911 89.3309 183.759 88.4316C180.219 86.9509 172.108 83.613 172.108 83.613C172.108 83.613 171.278 88.875 166.659 88.875C162.454 88.875 161.332 83.613 161.332 83.613C161.332 83.613 152.715 86.6288 149.681 88.4316C147.667 89.6279 145.253 91.2383 145.253 92.3635L146.444 101.896H187.037V101.892Z" fill="#82B1DF"/>
<path d="M172.108 83.6252C172.108 83.6252 171.505 88.9667 166.631 88.9667C162.134 88.9667 161.332 83.6252 161.332 83.6252V78.175H172.108V83.6252V83.6252Z" fill="#E78779"/>
<path d="M178.203 71.8968C178.203 76.1089 172.762 81.8644 166.718 81.8644C160.904 81.8644 155.249 76.8827 155.249 71.8968L154.791 62.6528C154.791 55.8474 160.13 50.3386 166.718 50.3386C173.309 50.3386 178.648 55.8474 178.648 62.6528L178.203 71.8968Z" fill="#F69583"/>
<path d="M180.057 68.291C180.008 69.7215 179.137 70.8551 178.108 70.8174C177.079 70.7798 176.285 69.5919 176.33 68.1572C176.379 66.7267 177.245 65.5973 178.274 65.6349C179.308 65.6726 180.106 66.8605 180.057 68.291Z" fill="#F69583"/>
<path d="M157.086 68.0486C157.127 69.4833 156.333 70.667 155.304 70.7046C154.271 70.7339 153.404 69.6046 153.359 68.174C153.315 66.7435 154.109 65.5556 155.138 65.5222C156.167 65.4845 157.038 66.618 157.086 68.0486Z" fill="#F69583"/>
<path d="M178.401 68.4039C178.401 68.4039 179.017 63.9659 179.017 60.6824C179.017 55.2071 176.744 48.5439 166.713 48.5439C159.194 48.5439 154.422 54.7721 154.422 61.7114C154.422 63.8237 154.317 65.112 154.795 68.1655H155.568C158.072 66.7726 155.852 61.7951 157.335 60.2265C157.335 60.2265 159.186 62.1799 164.643 62.0586C171.097 61.9164 171.611 58.5116 173.831 58.4739C175.047 58.453 175.573 58.9884 175.881 60.6113C176.404 63.3636 175.107 65.6349 177.623 68.3704L178.401 68.4039Z" fill="#071938"/>
<path d="M185.772 101.891H193.66C191.529 92.2499 185.744 89.5186 185.744 89.5186C185.744 89.5186 185.772 94.2577 185.772 101.891Z" fill="#82B1DF"/>
<path d="M148.024 101.891C148.02 94.1988 148.048 89.4263 148.048 89.4263C148.048 89.4263 140.501 92.6052 138.22 101.891H148.024Z" fill="#82B1DF"/>
<path d="M167.045 73.2643C166.988 73.2643 166.928 73.2601 166.871 73.2559C166.774 73.2433 166.693 73.1555 166.705 73.0509C166.713 72.9464 166.794 72.8585 166.903 72.8753C167.272 72.9129 167.556 72.8 167.584 72.7163C167.6 72.6787 167.564 72.549 167.256 72.3357C166.336 71.6873 166.227 69.437 166.223 69.345C166.219 69.2404 166.3 69.1526 166.401 69.1442C166.506 69.14 166.587 69.2195 166.587 69.3241C166.616 69.9222 166.818 71.5744 167.458 72.022C167.864 72.3022 168.022 72.5783 167.928 72.8418C167.831 73.1471 167.434 73.2643 167.045 73.2643Z" fill="#071938"/>
<path d="M160.928 67.8555C160.652 67.8555 160.405 67.9684 160.227 68.1775C160.081 68.3616 160.004 68.5916 160.004 68.8426C160.004 69.3362 160.324 69.8381 160.928 69.8381C161.215 69.8381 161.466 69.721 161.637 69.5119C161.786 69.332 161.867 69.0978 161.867 68.8384C161.867 68.3532 161.547 67.8555 160.928 67.8555Z" fill="#071938"/>
<path d="M172.477 67.8555C172.753 67.8555 173 67.9684 173.178 68.1775C173.324 68.3616 173.397 68.5916 173.397 68.8426C173.397 69.3362 173.077 69.8381 172.473 69.8381C172.185 69.8381 171.934 69.721 171.764 69.5119C171.614 69.332 171.533 69.0978 171.533 68.8384C171.537 68.3532 171.857 67.8555 172.477 67.8555Z" fill="#071938"/>
<path d="M174.685 65.363C174.685 65.363 173.652 64.0371 171.343 64.8444" stroke="#071938" stroke-width="1.283" stroke-miterlimit="10" stroke-linecap="round" stroke-linejoin="round"/>
<path d="M158.974 65.363C158.974 65.363 160.007 64.0371 162.316 64.8444" stroke="#071938" stroke-width="1.283" stroke-miterlimit="10" stroke-linecap="round" stroke-linejoin="round"/>
<path d="M163.289 73.1054C163.289 73.9545 162.276 74.6363 161.021 74.6363C159.765 74.6363 158.752 73.9503 158.752 73.1054C158.752 72.2604 159.765 71.5745 161.021 71.5745C162.276 71.5745 163.289 72.2604 163.289 73.1054Z" fill="#F37784"/>
<path d="M174.653 73.4274C174.653 74.2724 173.636 74.9541 172.38 74.9541C171.128 74.9541 170.111 74.2682 170.111 73.4274C170.111 72.5783 171.128 71.8923 172.38 71.8923C173.636 71.8965 174.653 72.5783 174.653 73.4274Z" fill="#F37784"/>
<path d="M163.812 76.0625C163.864 77.7231 165.31 79.0616 167.093 79.0616C168.876 79.0616 170.326 77.7231 170.374 76.0625H163.812Z" fill="white"/>
<path d="M186.531 51.1372H147.651V91.2795H186.531V51.1372Z" stroke="#314265" stroke-width="1.3718" stroke-miterlimit="10"/>
<path d="M181.033 56.8174H153.152V85.6034H181.033V56.8174Z" stroke="#314265" stroke-width="1.3718" stroke-miterlimit="10"/>
<path d="M168.244 68.6126C168.244 69.1522 167.818 69.5914 167.296 69.5914C166.773 69.5914 166.348 69.1522 166.348 68.6126C166.348 68.073 166.773 67.6338 167.296 67.6338C167.818 67.6296 168.244 68.0688 168.244 68.6126Z" fill="white"/>
<path d="M250.611 97.6999C250.611 95.4161 249.468 93.6259 247.184 93.6259C244.899 93.6259 243.047 95.4788 243.047 97.7668V96.5245C243.047 94.2365 241.196 92.3836 238.911 92.3836C236.626 92.3836 234.775 94.2365 234.775 96.5245V95.9933C234.775 93.7053 232.923 91.8524 230.638 91.8524C228.354 91.8524 226.502 93.7053 226.502 95.9933V78.7184C226.502 76.4304 224.651 74.5774 222.366 74.5774C220.081 74.5774 218.23 76.4304 218.23 78.7184V109.244L213.182 101.017C211.962 99.03 209.366 98.4068 207.377 99.6282C205.391 100.85 204.772 103.451 205.991 105.438L212.388 115.87C213.603 118.329 213.077 127.285 223.225 138.428C225.935 141.402 225.611 145.94 225.611 145.94L244.315 146.032C244.315 146.032 244.55 140.461 246.827 137.733C249.197 134.898 250.992 128.853 251 120.061C251.012 105.417 250.611 97.6999 250.611 97.6999Z" fill="#F8A289"/>
<path d="M226.479 93.9485C226.479 96.1235 226.628 105.832 226.628 111.709" stroke="#DA907A" stroke-width="1.8703" stroke-miterlimit="10" stroke-linecap="round" stroke-linejoin="round"/>
<path d="M234.787 94.8098C234.787 94.814 234.783 104.639 234.783 112.198" stroke="#DA907A" stroke-width="1.8703" stroke-miterlimit="10" stroke-linecap="round" stroke-linejoin="round"/>
<path d="M243.067 114.239C243.067 109.818 243.116 101.201 243.084 96.0188" stroke="#DA907A" stroke-width="1.8703" stroke-miterlimit="10" stroke-linecap="round" stroke-linejoin="round"/>
<path d="M247.811 141.666H221.774V170H247.811V141.666Z" fill="#314265"/>
<path d="M161.448 129.904H160.882" stroke="white" stroke-width="1.3952" stroke-linecap="round" stroke-linejoin="round"/>
<path d="M159.325 129.904H143.752" stroke="white" stroke-width="1.3952" stroke-linecap="round" stroke-linejoin="round" stroke-dasharray="2.88 3.84"/>
<path d="M142.97 129.904H142.407" stroke="white" stroke-width="1.3952" stroke-linecap="round" stroke-linejoin="round"/>
<path d="M141.006 129.903C141.006 130.589 141.545 131.145 142.205 131.145C142.869 131.145 143.404 130.589 143.404 129.903C143.404 129.217 142.865 128.665 142.205 128.665C141.545 128.665 141.006 129.217 141.006 129.903Z" fill="white"/>
<path d="M160.246 129.903C160.246 130.589 160.785 131.145 161.449 131.145C162.114 131.145 162.648 130.589 162.648 129.903C162.648 129.217 162.11 128.665 161.449 128.665C160.785 128.665 160.246 129.217 160.246 129.903Z" fill="white"/>
<path d="M213.052 132.384H212.485" stroke="white" stroke-width="1.3952" stroke-linecap="round" stroke-linejoin="round"/>
<path d="M210.929 132.384H195.356" stroke="white" stroke-width="1.3952" stroke-linecap="round" stroke-linejoin="round" stroke-dasharray="2.88 3.84"/>
<path d="M194.574 132.384H194.012" stroke="white" stroke-width="1.3952" stroke-linecap="round" stroke-linejoin="round"/>
<path d="M192.609 132.384C192.609 133.07 193.148 133.626 193.809 133.626C194.473 133.626 195.008 133.07 195.008 132.384C195.008 131.698 194.469 131.146 193.809 131.146C193.148 131.146 192.609 131.698 192.609 132.384Z" fill="white"/>
<path d="M211.849 132.384C211.849 133.07 212.387 133.626 213.052 133.626C213.716 133.626 214.251 133.07 214.251 132.384C214.251 131.698 213.712 131.146 213.052 131.146C212.387 131.146 211.849 131.698 211.849 132.384Z" fill="white"/>
<path d="M197.576 26.6094H197.014" stroke="white" stroke-width="1.3952" stroke-linecap="round" stroke-linejoin="round"/>
<path d="M195.454 26.6094H179.881" stroke="white" stroke-width="1.3952" stroke-linecap="round" stroke-linejoin="round" stroke-dasharray="2.88 3.84"/>
<path d="M179.103 26.6094H178.536" stroke="white" stroke-width="1.3952" stroke-linecap="round" stroke-linejoin="round"/>
<path d="M177.135 26.6092C177.135 27.2952 177.674 27.8515 178.334 27.8515C178.998 27.8515 179.533 27.2952 179.533 26.6092C179.533 25.9232 178.994 25.3711 178.334 25.3711C177.674 25.3669 177.135 25.9232 177.135 26.6092Z" fill="white"/>
<path d="M196.374 26.6092C196.374 27.2952 196.913 27.8515 197.577 27.8515C198.242 27.8515 198.776 27.2952 198.776 26.6092C198.776 25.9232 198.238 25.3711 197.577 25.3711C196.913 25.3669 196.374 25.9232 196.374 26.6092Z" fill="white"/>
<path d="M120.203 49.6937V27.6921H136.035" stroke="white" stroke-width="1.3952" stroke-miterlimit="10" stroke-linecap="round" stroke-linejoin="round" stroke-dasharray="2.79 3.72"/>
<path d="M121.402 49.2674C121.402 48.5814 120.864 48.0293 120.203 48.0293C119.539 48.0293 119 48.5856 119 49.2674C119 49.9534 119.539 50.5055 120.203 50.5055C120.864 50.5055 121.402 49.9534 121.402 49.2674Z" fill="white"/>
<path d="M137.238 27.6925C137.238 27.0065 136.699 26.4543 136.039 26.4543C135.375 26.4543 134.84 27.0107 134.84 27.6925C134.84 28.3784 135.379 28.9306 136.039 28.9306C136.699 28.9347 137.238 28.3784 137.238 27.6925Z" fill="white"/>
<path d="M248.85 47.3692V25.3677H233.018" stroke="white" stroke-width="1.3952" stroke-miterlimit="10" stroke-linecap="round" stroke-linejoin="round" stroke-dasharray="2.79 3.72"/>
<path d="M247.65 46.9422C247.65 46.2562 248.189 45.7041 248.85 45.7041C249.514 45.7041 250.053 46.2604 250.053 46.9422C250.053 47.6282 249.514 48.1803 248.85 48.1803C248.189 48.1803 247.65 47.6282 247.65 46.9422Z" fill="white"/>
<path d="M231.814 25.367C231.814 24.681 232.353 24.1289 233.014 24.1289C233.678 24.1289 234.213 24.6852 234.213 25.367C234.213 26.053 233.674 26.6051 233.014 26.6051C232.353 26.6093 231.814 26.053 231.814 25.367Z" fill="white"/>
</svg>
