<svg xmlns="http://www.w3.org/2000/svg" width="71" height="71" viewBox="0 0 71 71">
  <g id="logo-fallback-placeholder" transform="translate(-147 -386)">
    <rect id="NoPath_-_Copy_4_" data-name="NoPath - Copy (4)" width="71" height="71" rx="10" transform="translate(147 386)" fill="#d9e0e5"/>
    <g id="Group_2937" data-name="Group 2937" transform="translate(20.711 88.721)" opacity="0.83">
      <path id="Path_9019" data-name="Path 9019" d="M325.5,243.661a.514.514,0,0,0,.515.515h2.573a.512.512,0,0,0,.194-.04h.013a.4.4,0,0,0,.049-.023l.01-.006h0a.5.5,0,0,1-.057.028.514.514,0,0,0,.3-.474v-5.146a.515.515,0,0,0-.515-.515h-2.573a.514.514,0,0,0-.363.15l.008-.009-.014.014-.012.013.01-.01h0a.517.517,0,0,0-.1.156l.03-.059-.006.01a.449.449,0,0,0-.025.051v.008a.515.515,0,0,0-.038.19Zm1.029-4.631h1.544v4.117h-1.544Z" transform="translate(-165.512 90.692)" fill="#6e808f"/>
      <path id="Path_9020" data-name="Path 9020" d="M136.82,236.463a1.544,1.544,0,0,1-1.544,1.544H132.7a1.544,1.544,0,0,1-1.544-1.544v-1.828l-14.31-4.4v18.9a.514.514,0,0,0,.515.515h33.25a.515.515,0,0,0,.515-.515v-18.9l-14.309,4.4Z" transform="translate(27.8 97.89)" fill="#6e808f"/>
      <path id="Path_9021" data-name="Path 9021" d="M369.1,321.68l-.038.01.027-.006Z" transform="translate(-205.866 13.163)" fill="#6e808f"/>
      <path id="Path_9022" data-name="Path 9022" d="M371.578,320.51l-.019.014.009-.006Z" transform="translate(-208.185 14.247)" fill="#6e808f"/>
      <path id="Path_9023" data-name="Path 9023" d="M367.907,238.017l-.027,0h.009l.03,0Z" transform="translate(-204.765 90.678)" fill="#6e808f"/>
      <path id="Path_9024" data-name="Path 9024" d="M134.534,71.241H122.58V68.985a3.287,3.287,0,0,0-3.286-3.286h-5.542a3.287,3.287,0,0,0-3.286,3.286v2.257H98.512a.514.514,0,0,0-.515.515v4.155a.514.514,0,0,0,.363.493l15.333,4.718V78.881a1.544,1.544,0,0,1,1.544-1.544h2.573a1.544,1.544,0,0,1,1.544,1.544v2.241L134.686,76.4a.514.514,0,0,0,.363-.493V71.756a.514.514,0,0,0-.515-.515Zm-12.983,0H111.5V68.985a2.258,2.258,0,0,1,2.257-2.257h5.542a2.258,2.258,0,0,1,2.257,2.257Z" transform="translate(45.266 250.326)" fill="#6e808f"/>
      <path id="Path_9025" data-name="Path 9025" d="M326.99,240.309l-.006.007.024-.028-.005.005Z" transform="translate(-166.887 88.571)" fill="#6e808f"/>
      <path id="Path_9026" data-name="Path 9026" d="M372.87,240.52a.546.546,0,0,1,.08.129.464.464,0,0,0-.036-.068A.447.447,0,0,0,372.87,240.52Z" transform="translate(-209.4 88.358)" fill="#6e808f"/>
      <path id="Path_9027" data-name="Path 9027" d="M331.573,238.036h0l.015,0Z" transform="translate(-171.135 90.66)" fill="#6e808f"/>
      <path id="Path_9028" data-name="Path 9028" d="M368.912,238.147l-.012,0,.026.006.012,0Z" transform="translate(-205.722 90.559)" fill="#6e808f"/>
      <path id="Path_9029" data-name="Path 9029" d="M330.987,238.076l-.019,0-.01,0,.026-.005.02,0Z" transform="translate(-170.568 90.622)" fill="#6e808f"/>
      <path id="Path_9030" data-name="Path 9030" d="M325.772,242.592l-.008.024.008-.023v0Z" transform="translate(-165.758 86.449)" fill="#6e808f"/>
      <path id="Path_9031" data-name="Path 9031" d="M327.91,239.5l.009-.008.01-.009Z" transform="translate(-167.745 89.318)" fill="#6e808f"/>
    </g>
    <g id="Ellipse_177" data-name="Ellipse 177" transform="translate(154 394)" fill="none" stroke="#6e808f" stroke-width="1" opacity="0.8">
      <circle cx="28" cy="28" r="28" stroke="none"/>
      <circle cx="28" cy="28" r="27.5" fill="none"/>
    </g>
  </g>
</svg>
