<svg xmlns="http://www.w3.org/2000/svg" xmlns:xlink="http://www.w3.org/1999/xlink" width="960" height="1080" viewBox="0 0 960 1080">
  <defs>
    <clipPath id="clip-path">
      <rect id="Rectangle_208" data-name="Rectangle 208" width="960" height="1080" transform="translate(960)" fill="#20527e"/>
    </clipPath>
  </defs>
  <g id="Jobdesk_Login_Image" data-name="Jobdesk Login Image" transform="translate(-960)" clip-path="url(#clip-path)">
    <rect id="Rectangle_198" data-name="Rectangle 198" width="960" height="1080" transform="translate(960)" fill="#20527e"/>
    <g id="Rectangle_200" data-name="Rectangle 200" transform="matrix(0.883, -0.469, 0.469, 0.883, 1617.083, -21.271)" fill="#20527e" stroke="#1f527d" stroke-width="50">
      <rect width="316" height="317" stroke="none"/>
      <rect x="25" y="25" width="266" height="267" fill="none"/>
    </g>
    <g id="Rectangle_205" data-name="Rectangle 205" transform="matrix(0.883, -0.469, 0.469, 0.883, 960, 800.106)" fill="#20527e" stroke="#1f527d" stroke-width="50">
      <rect width="316" height="317" stroke="none"/>
      <rect x="25" y="25" width="266" height="267" fill="none"/>
    </g>
    <g id="Rectangle_201" data-name="Rectangle 201" transform="matrix(0.883, -0.469, 0.469, 0.883, 1626.856, 251.411)" fill="#194063" stroke="#1f527d" stroke-width="50">
      <rect width="79" height="79" stroke="none"/>
      <rect x="25" y="25" width="29" height="29" fill="none"/>
    </g>
    <g id="Rectangle_203" data-name="Rectangle 203" transform="matrix(0.883, -0.469, 0.469, 0.883, 1513.576, -2.883)" fill="#20527e" stroke="#1f527d" stroke-width="6">
      <rect width="58" height="246" stroke="none"/>
      <rect x="3" y="3" width="52" height="240" fill="none"/>
    </g>
    <g id="Rectangle_202" data-name="Rectangle 202" transform="matrix(0.883, -0.469, 0.469, 0.883, 1743.397, 314.351)" fill="#20527e" stroke="#1f527d" stroke-width="50">
      <rect width="181" height="181" stroke="none"/>
      <rect x="25" y="25" width="131" height="131" fill="none"/>
    </g>
    <g id="Group_846" data-name="Group 846" transform="translate(961.511 129.211)">
      <path id="Path_1074" data-name="Path 1074" d="M159.512,165.563c1.36.571,1.535.844,1.535,2.392v11.12c.286-.277.466-.461.654-.637a13.914,13.914,0,0,1,7.983-4.068,11.378,11.378,0,0,1,7.762,1.96c4.407,2.949,6.675,7.11,6.011,12.405A12.234,12.234,0,0,1,174,199.654a12.77,12.77,0,0,1-16.219-10.619,11.236,11.236,0,0,1-.072-1.494c0-6.516.021-13.032-.025-19.548a2.177,2.177,0,0,1,1.422-2.429Zm20.674,21.758a9.561,9.561,0,0,0-9.572-9.632,9.722,9.722,0,0,0-9.566,9.7,9.57,9.57,0,0,0,19.138-.064Z" transform="translate(21.59 0)" fill="#fff"/>
      <path id="Path_1075" data-name="Path 1075" d="M212.24,165.563a2.172,2.172,0,0,1,1.5,2.448c-.052,5.494-.023,10.988-.023,16.484v.877c.261-.24.441-.391.606-.557q5.165-5.2,10.323-10.41a1.759,1.759,0,0,1,1.869-.492,1.555,1.555,0,0,1,1.095,1.281,1.656,1.656,0,0,1-.517,1.546c-.652.666-1.318,1.318-1.976,1.978-2.632,2.64-5.256,5.289-7.9,7.913-.375.37-.339.536.023.89q4.938,4.8,9.831,9.647a1.68,1.68,0,0,1,0,2.618,1.7,1.7,0,0,1-2.388-.226c-1.461-1.432-2.936-2.851-4.37-4.31-2.117-2.154-4.2-4.337-6.309-6.516a.817.817,0,0,0-.279.809c-.008,2.907,0,5.812-.006,8.72a1.7,1.7,0,1,1-3.371.017q-.009-15.358-.012-30.718a2.014,2.014,0,0,1,1.492-2Z" transform="translate(77.893 0)" fill="#fff"/>
      <path id="Path_1076" data-name="Path 1076" d="M193.983,178.853a1.232,1.232,0,0,0,.091-.753c.006-3.541,0-7.081.006-10.621a1.664,1.664,0,0,1,2.322-1.707,1.688,1.688,0,0,1,1.041,1.744c-.008,4.335,0,8.67,0,13.005,0,2.452.043,4.9-.031,7.354a12.616,12.616,0,0,1-11.784,12.111,12.863,12.863,0,0,1-6.539-24.512c4.6-2.21,8.875-1.415,12.829,1.624C192.615,177.639,193.265,178.243,193.983,178.853Zm-9.446,17.891a9.567,9.567,0,0,0,9.535-9.465,9.589,9.589,0,1,0-19.178-.048A9.592,9.592,0,0,0,184.537,196.744Z" transform="translate(36.402 0.067)" fill="#fff"/>
      <path id="Path_1077" data-name="Path 1077" d="M199.4,184.346c-3.323,0-6.648.012-9.972-.014-.557,0-.61.137-.5.639a9.628,9.628,0,0,0,15.921,4.724,1.75,1.75,0,0,1,2.551-.083,1.774,1.774,0,0,1-.163,2.5,10.457,10.457,0,0,1-6.677,3.338,13.388,13.388,0,0,1-9.355-1.881,12.87,12.87,0,0,1,1.573-22.439c8.964-4.306,17.51,2.479,18.331,10.088.043.406.093.811.11,1.219a1.639,1.639,0,0,1-1.842,1.908c-2.142.014-4.281,0-6.421,0Zm-1.1-3.387c2.891,0,5.784-.023,8.672.017.685.008.722-.18.561-.761a9.811,9.811,0,0,0-9.336-7.042A9.646,9.646,0,0,0,189,180.357c-.135.515,0,.615.488.61C192.427,180.951,195.363,180.959,198.3,180.959Z" transform="translate(51.181 4.516)" fill="#fff"/>
      <path id="Path_1078" data-name="Path 1078" d="M169.779,182.767a12.943,12.943,0,1,1-25.884-.248,12.943,12.943,0,0,1,25.884.248Zm-22.484.006a9.569,9.569,0,1,0,9.541-9.6A9.525,9.525,0,0,0,147.295,182.774Z" transform="translate(6.848 4.516)" fill="#fff"/>
      <path id="Path_1079" data-name="Path 1079" d="M207.162,195.677c-1.98,0-3.961.008-5.943,0a1.673,1.673,0,0,1-1.653-1.086,1.74,1.74,0,0,1,.532-1.908,1.983,1.983,0,0,1,1.353-.354c3.619,0,7.24-.017,10.859.01a3.926,3.926,0,0,0,3.6-1.813,3.454,3.454,0,0,0,.147-3.687,3.634,3.634,0,0,0-3.307-2.051c-2.094-.029-4.19-.006-6.284-.008a7.519,7.519,0,0,1-1.107-14.956,5.384,5.384,0,0,1,.817-.05q5.6-.006,11.2,0A1.59,1.59,0,0,1,219,171.051a1.687,1.687,0,0,1-.77,1.817,1.991,1.991,0,0,1-1.122.213c-3.483,0-6.967-.015-10.45,0a4.246,4.246,0,0,0-4.259,5.157,4.165,4.165,0,0,0,4.078,3.18c2.073.014,4.145-.01,6.216.006a7.119,7.119,0,0,1,1.686,14.04,9.3,9.3,0,0,1-2.369.211C210.4,195.673,208.778,195.677,207.162,195.677Z" transform="translate(65.73 4.494)" fill="#fff"/>
      <path id="Path_1080" data-name="Path 1080" d="M144.622,183.939V171.75a1.7,1.7,0,1,1,3.369-.008c.006,8.24.033,16.479-.01,24.719a8.656,8.656,0,0,1-6.876,8.579,10.055,10.055,0,0,1-1.691.2,1.7,1.7,0,1,1-.089-3.371,5.164,5.164,0,0,0,4.85-3.35,6.042,6.042,0,0,0,.447-2.456Z" transform="translate(0 4.584)" fill="#fff"/>
      <path id="Path_1081" data-name="Path 1081" d="M223.732,165.628a4.963,4.963,0,1,1-5.024,4.923A4.91,4.91,0,0,1,223.732,165.628Zm4.035,5a4.1,4.1,0,0,0-4.064-4.163,4.188,4.188,0,0,0-4.153,4.107,4.115,4.115,0,0,0,4.134,4.1A4.037,4.037,0,0,0,227.767,170.631Z" transform="translate(86.843 0.069)" fill="#fff"/>
      <path id="Path_1082" data-name="Path 1082" d="M142.917,170.285a2.2,2.2,0,1,1,2.16-2.189A2.1,2.1,0,0,1,142.917,170.285Z" transform="translate(3.403 0.352)" fill="#fff"/>
      <path id="Path_1083" data-name="Path 1083" d="M222.891,169.79a9.981,9.981,0,0,1,1.655,2.268c-.71.2-1.169.075-1.457-.6a6.775,6.775,0,0,0-.73-1.144,1,1,0,0,0-.679-.418c-.461-.081-.807-.054-.724.584.054.4-.012.817.017,1.223s-.178.441-.5.443-.435-.116-.43-.439q.019-2.247,0-4.49c0-.3.064-.47.412-.455a21.1,21.1,0,0,1,2.316.07c.853.128,1.318.53,1.422,1.227a1.484,1.484,0,0,1-1.006,1.589C223.106,169.68,223.026,169.722,222.891,169.79Zm-1.07-2.233c-.24.1-.67-.215-.836.207-.325.836.033,1.314.927,1.312.968,0,1.331-.215,1.314-.774C223.21,167.768,222.829,167.557,221.821,167.557Z" transform="translate(88.273 1.275)" fill="#fff"/>
    </g>
    <text id="Welcome_to_Jobdesk" data-name="Welcome to Jobdesk" transform="translate(1099 429)" fill="#fff" font-size="50" font-family="SegoeUI-Semibold, Segoe UI" font-weight="600"><tspan x="0" y="54">Welcome to Jobdesk</tspan></text>
    <rect id="Rectangle_204" data-name="Rectangle 204" width="89" height="15" transform="translate(1099 379)" fill="#1f527d"/>
    <text id="Top_Global_Recruiting_Platform" data-name="Top Global Recruiting Platform" transform="translate(1099 506)" fill="#f6f6f6" font-size="22" font-family="SegoeUI, Segoe UI"><tspan x="0" y="24">Top Global Recruiting Platform</tspan></text>
    <g id="Group_907" data-name="Group 907" transform="translate(0 -60)">
      <g id="Group_881" data-name="Group 881" transform="translate(1739.318 448.954)">
        <g id="Group_878" data-name="Group 878" transform="translate(21.681 438.659)">
          <path id="Path_1445" data-name="Path 1445" d="M25.4,479.284c4.957-.072,4.957,7.714,0,7.642C20.442,487,20.442,479.213,25.4,479.284Z" transform="translate(-21.682 -362.876)" fill="#c2ebff"/>
          <path id="Path_1446" data-name="Path 1446" d="M25.4,471.159c4.957-.072,4.957,7.714,0,7.642C20.442,478.873,20.442,471.088,25.4,471.159Z" transform="translate(-21.682 -378.033)" fill="#c2ebff"/>
          <path id="Path_1447" data-name="Path 1447" d="M25.4,463.034c4.957-.072,4.957,7.714,0,7.642C20.442,470.748,20.442,462.963,25.4,463.034Z" transform="translate(-21.682 -393.189)" fill="#c2ebff"/>
          <path id="Path_1448" data-name="Path 1448" d="M25.4,454.909c4.957-.072,4.957,7.714,0,7.642C20.442,462.623,20.442,454.838,25.4,454.909Z" transform="translate(-21.682 -408.346)" fill="#c2ebff"/>
          <path id="Path_1449" data-name="Path 1449" d="M25.4,446.784c4.957-.072,4.957,7.714,0,7.642C20.442,454.5,20.442,446.713,25.4,446.784Z" transform="translate(-21.682 -423.502)" fill="#c2ebff"/>
          <path id="Path_1450" data-name="Path 1450" d="M25.4,438.659c4.957-.072,4.957,7.714,0,7.642C20.442,446.373,20.442,438.588,25.4,438.659Z" transform="translate(-21.682 -438.659)" fill="#c2ebff"/>
        </g>
        <g id="Group_879" data-name="Group 879" transform="translate(43.771 438.659)">
          <path id="Path_1451" data-name="Path 1451" d="M33.109,479.284c4.954-.072,4.954,7.714,0,7.642C28.151,487,28.151,479.213,33.109,479.284Z" transform="translate(-29.39 -362.876)" fill="#c2ebff"/>
          <path id="Path_1452" data-name="Path 1452" d="M33.109,471.159c4.954-.072,4.954,7.714,0,7.642C28.151,478.873,28.151,471.088,33.109,471.159Z" transform="translate(-29.39 -378.033)" fill="#c2ebff"/>
          <path id="Path_1453" data-name="Path 1453" d="M33.109,463.034c4.954-.072,4.954,7.714,0,7.642C28.151,470.748,28.151,462.963,33.109,463.034Z" transform="translate(-29.39 -393.189)" fill="#c2ebff"/>
          <path id="Path_1454" data-name="Path 1454" d="M33.109,454.909c4.954-.072,4.954,7.714,0,7.642C28.151,462.623,28.151,454.838,33.109,454.909Z" transform="translate(-29.39 -408.346)" fill="#c2ebff"/>
          <path id="Path_1455" data-name="Path 1455" d="M33.109,446.784c4.954-.072,4.954,7.714,0,7.642C28.151,454.5,28.151,446.713,33.109,446.784Z" transform="translate(-29.39 -423.502)" fill="#c2ebff"/>
          <path id="Path_1456" data-name="Path 1456" d="M33.109,438.659c4.954-.072,4.954,7.714,0,7.642C28.151,446.373,28.151,438.588,33.109,438.659Z" transform="translate(-29.39 -438.659)" fill="#c2ebff"/>
        </g>
        <g id="Group_880" data-name="Group 880" transform="translate(65.858 438.659)">
          <path id="Path_1457" data-name="Path 1457" d="M40.816,479.284c4.957-.072,4.957,7.714,0,7.642C35.859,487,35.859,479.213,40.816,479.284Z" transform="translate(-37.099 -362.876)" fill="#c2ebff"/>
          <path id="Path_1458" data-name="Path 1458" d="M40.816,471.159c4.957-.072,4.957,7.714,0,7.642C35.859,478.873,35.859,471.088,40.816,471.159Z" transform="translate(-37.099 -378.033)" fill="#c2ebff"/>
          <path id="Path_1459" data-name="Path 1459" d="M40.816,463.034c4.957-.072,4.957,7.714,0,7.642C35.859,470.748,35.859,462.963,40.816,463.034Z" transform="translate(-37.099 -393.189)" fill="#c2ebff"/>
          <path id="Path_1460" data-name="Path 1460" d="M40.816,454.909c4.957-.072,4.957,7.714,0,7.642C35.859,462.623,35.859,454.838,40.816,454.909Z" transform="translate(-37.099 -408.346)" fill="#c2ebff"/>
          <path id="Path_1461" data-name="Path 1461" d="M40.816,446.784c4.957-.072,4.957,7.714,0,7.642C35.859,454.5,35.859,446.713,40.816,446.784Z" transform="translate(-37.099 -423.502)" fill="#c2ebff"/>
          <path id="Path_1462" data-name="Path 1462" d="M40.816,438.659c4.957-.072,4.957,7.714,0,7.642C35.859,446.373,35.859,438.588,40.816,438.659Z" transform="translate(-37.099 -438.659)" fill="#c2ebff"/>
        </g>
      </g>
      <g id="Group_906" data-name="Group 906" transform="translate(1672.318 448.954)">
        <g id="Group_878-2" data-name="Group 878" transform="translate(21.681 438.659)">
          <path id="Path_1445-2" data-name="Path 1445" d="M25.4,479.284c4.957-.072,4.957,7.714,0,7.642C20.442,487,20.442,479.213,25.4,479.284Z" transform="translate(-21.682 -362.876)" fill="#c2ebff"/>
          <path id="Path_1446-2" data-name="Path 1446" d="M25.4,471.159c4.957-.072,4.957,7.714,0,7.642C20.442,478.873,20.442,471.088,25.4,471.159Z" transform="translate(-21.682 -378.033)" fill="#c2ebff"/>
          <path id="Path_1447-2" data-name="Path 1447" d="M25.4,463.034c4.957-.072,4.957,7.714,0,7.642C20.442,470.748,20.442,462.963,25.4,463.034Z" transform="translate(-21.682 -393.189)" fill="#c2ebff"/>
          <path id="Path_1448-2" data-name="Path 1448" d="M25.4,454.909c4.957-.072,4.957,7.714,0,7.642C20.442,462.623,20.442,454.838,25.4,454.909Z" transform="translate(-21.682 -408.346)" fill="#c2ebff"/>
          <path id="Path_1449-2" data-name="Path 1449" d="M25.4,446.784c4.957-.072,4.957,7.714,0,7.642C20.442,454.5,20.442,446.713,25.4,446.784Z" transform="translate(-21.682 -423.502)" fill="#c2ebff"/>
          <path id="Path_1450-2" data-name="Path 1450" d="M25.4,438.659c4.957-.072,4.957,7.714,0,7.642C20.442,446.373,20.442,438.588,25.4,438.659Z" transform="translate(-21.682 -438.659)" fill="#c2ebff"/>
        </g>
        <g id="Group_879-2" data-name="Group 879" transform="translate(43.771 438.659)">
          <path id="Path_1451-2" data-name="Path 1451" d="M33.109,479.284c4.954-.072,4.954,7.714,0,7.642C28.151,487,28.151,479.213,33.109,479.284Z" transform="translate(-29.39 -362.876)" fill="#c2ebff"/>
          <path id="Path_1452-2" data-name="Path 1452" d="M33.109,471.159c4.954-.072,4.954,7.714,0,7.642C28.151,478.873,28.151,471.088,33.109,471.159Z" transform="translate(-29.39 -378.033)" fill="#c2ebff"/>
          <path id="Path_1453-2" data-name="Path 1453" d="M33.109,463.034c4.954-.072,4.954,7.714,0,7.642C28.151,470.748,28.151,462.963,33.109,463.034Z" transform="translate(-29.39 -393.189)" fill="#c2ebff"/>
          <path id="Path_1454-2" data-name="Path 1454" d="M33.109,454.909c4.954-.072,4.954,7.714,0,7.642C28.151,462.623,28.151,454.838,33.109,454.909Z" transform="translate(-29.39 -408.346)" fill="#c2ebff"/>
          <path id="Path_1455-2" data-name="Path 1455" d="M33.109,446.784c4.954-.072,4.954,7.714,0,7.642C28.151,454.5,28.151,446.713,33.109,446.784Z" transform="translate(-29.39 -423.502)" fill="#c2ebff"/>
          <path id="Path_1456-2" data-name="Path 1456" d="M33.109,438.659c4.954-.072,4.954,7.714,0,7.642C28.151,446.373,28.151,438.588,33.109,438.659Z" transform="translate(-29.39 -438.659)" fill="#c2ebff"/>
        </g>
        <g id="Group_880-2" data-name="Group 880" transform="translate(65.858 438.659)">
          <path id="Path_1457-2" data-name="Path 1457" d="M40.816,479.284c4.957-.072,4.957,7.714,0,7.642C35.859,487,35.859,479.213,40.816,479.284Z" transform="translate(-37.099 -362.876)" fill="#c2ebff"/>
          <path id="Path_1458-2" data-name="Path 1458" d="M40.816,471.159c4.957-.072,4.957,7.714,0,7.642C35.859,478.873,35.859,471.088,40.816,471.159Z" transform="translate(-37.099 -378.033)" fill="#c2ebff"/>
          <path id="Path_1459-2" data-name="Path 1459" d="M40.816,463.034c4.957-.072,4.957,7.714,0,7.642C35.859,470.748,35.859,462.963,40.816,463.034Z" transform="translate(-37.099 -393.189)" fill="#c2ebff"/>
          <path id="Path_1460-2" data-name="Path 1460" d="M40.816,454.909c4.957-.072,4.957,7.714,0,7.642C35.859,462.623,35.859,454.838,40.816,454.909Z" transform="translate(-37.099 -408.346)" fill="#c2ebff"/>
          <path id="Path_1461-2" data-name="Path 1461" d="M40.816,446.784c4.957-.072,4.957,7.714,0,7.642C35.859,454.5,35.859,446.713,40.816,446.784Z" transform="translate(-37.099 -423.502)" fill="#c2ebff"/>
          <path id="Path_1462-2" data-name="Path 1462" d="M40.816,438.659c4.957-.072,4.957,7.714,0,7.642C35.859,446.373,35.859,438.588,40.816,438.659Z" transform="translate(-37.099 -438.659)" fill="#c2ebff"/>
        </g>
      </g>
    </g>
  </g>
</svg>
