<svg xmlns="http://www.w3.org/2000/svg" xmlns:xlink="http://www.w3.org/1999/xlink" width="414" height="896" xmlns:v="https://vecta.io/nano"><style><![CDATA[.B{opacity:.13}.C{fill:#c2ebff}.D{stroke:none}.E{fill:#193e5e}]]></style><defs><clipPath id="A"><path fill="#fff" d="M0 0h414v896H0z"/></clipPath><path id="B" d="M47.13 77.579c3.3-.048 3.3 5.141 0 5.093-3.304.048-3.304-5.14 0-5.093z"/></defs><g clip-path="url(#A)"><path d="M0 0h414v896H0z" class="E"/><g opacity=".3" class="C"><g transform="matrix(.707107 .707107 -.707107 .707107 54.049 -60.257)" class="B"><use xlink:href="#B"/><path d="M47.13 62.063c3.3-.048 3.3 5.141 0 5.093-3.304.048-3.304-5.14 0-5.093zm0-15.515c3.3-.048 3.3 5.141 0 5.093-3.304.048-3.304-5.14 0-5.093zm0-15.516c3.3-.048 3.3 5.141 0 5.093-3.304.048-3.304-5.14 0-5.093zm0-15.516c3.3-.048 3.3 5.141 0 5.093-3.304.048-3.304-5.14 0-5.093zM47.13 0c3.3-.048 3.3 5.141 0 5.093-3.304.048-3.304-5.14 0-5.093zm14.721 77.579c3.3-.048 3.3 5.141 0 5.093-3.304.048-3.304-5.14 0-5.093zm0-15.516c3.3-.048 3.3 5.141 0 5.093-3.304.048-3.304-5.14 0-5.093zm0-15.515c3.3-.048 3.3 5.141 0 5.093-3.304.048-3.304-5.14 0-5.093zm0-15.516c3.3-.048 3.3 5.141 0 5.093-3.304.048-3.304-5.14 0-5.093zm0-15.516c3.3-.048 3.3 5.141 0 5.093-3.304.048-3.304-5.14 0-5.093zm0-15.516c3.3-.048 3.3 5.141 0 5.093-3.304.048-3.304-5.14 0-5.093zm14.72 77.579c3.3-.048 3.3 5.141 0 5.093-3.304.048-3.304-5.14 0-5.093zm0-15.516c3.3-.048 3.3 5.141 0 5.093-3.304.048-3.304-5.14 0-5.093zm0-15.515c3.3-.048 3.3 5.141 0 5.093-3.304.048-3.304-5.14 0-5.093zm0-15.516c3.3-.048 3.3 5.141 0 5.093-3.304.048-3.304-5.14 0-5.093zm0-15.516c3.3-.048 3.3 5.141 0 5.093-3.304.048-3.304-5.14 0-5.093zm0-15.516c3.3-.048 3.3 5.141 0 5.093-3.304.048-3.304-5.14 0-5.093zM2.478 77.579c3.3-.048 3.3 5.141 0 5.093-3.304.048-3.304-5.14 0-5.093zm0-15.516c3.3-.048 3.3 5.141 0 5.093-3.304.048-3.304-5.14 0-5.093zm0-15.515c3.3-.048 3.3 5.141 0 5.093-3.304.048-3.304-5.14 0-5.093zm0-15.516c3.3-.048 3.3 5.141 0 5.093-3.304.048-3.304-5.14 0-5.093zm0-15.516c3.3-.048 3.3 5.141 0 5.093-3.304.048-3.304-5.14 0-5.093zM2.478 0c3.3-.048 3.3 5.141 0 5.093-3.304.048-3.304-5.14 0-5.093zm14.721 77.579c3.3-.048 3.3 5.141 0 5.093-3.304.048-3.304-5.14 0-5.093zm0-15.516c3.3-.048 3.3 5.141 0 5.093-3.304.048-3.304-5.14 0-5.093zm0-15.515c3.3-.048 3.3 5.141 0 5.093-3.304.048-3.304-5.14 0-5.093zm0-15.516c3.3-.048 3.3 5.141 0 5.093-3.304.048-3.304-5.14 0-5.093zm0-15.516c3.3-.048 3.3 5.141 0 5.093-3.304.048-3.304-5.14 0-5.093zm0-15.516c3.3-.048 3.3 5.141 0 5.093-3.304.048-3.304-5.14 0-5.093zm14.72 77.579c3.3-.048 3.3 5.141 0 5.093-3.304.048-3.304-5.14 0-5.093zm0-15.516c3.3-.048 3.3 5.141 0 5.093-3.304.048-3.304-5.14 0-5.093zm0-15.515c3.3-.048 3.3 5.141 0 5.093-3.304.048-3.304-5.14 0-5.093zm0-15.516c3.3-.048 3.3 5.141 0 5.093-3.304.048-3.304-5.14 0-5.093zm0-15.516c3.3-.048 3.3 5.141 0 5.093-3.304.048-3.304-5.14 0-5.093zm0-15.516c3.3-.048 3.3 5.141 0 5.093-3.304.048-3.304-5.14 0-5.093z"/></g><g transform="matrix(.707107 .707107 -.707107 .707107 248.049 3)" class="B"><use xlink:href="#B"/><path d="M47.13 62.063c3.3-.048 3.3 5.141 0 5.093-3.304.048-3.304-5.14 0-5.093zm0-15.515c3.3-.048 3.3 5.141 0 5.093-3.304.048-3.304-5.14 0-5.093zm0-15.516c3.3-.048 3.3 5.141 0 5.093-3.304.048-3.304-5.14 0-5.093zm0-15.516c3.3-.048 3.3 5.141 0 5.093-3.304.048-3.304-5.14 0-5.093zM47.13 0c3.3-.048 3.3 5.141 0 5.093-3.304.048-3.304-5.14 0-5.093zm14.721 77.579c3.3-.048 3.3 5.141 0 5.093-3.304.048-3.304-5.14 0-5.093zm0-15.516c3.3-.048 3.3 5.141 0 5.093-3.304.048-3.304-5.14 0-5.093zm0-15.515c3.3-.048 3.3 5.141 0 5.093-3.304.048-3.304-5.14 0-5.093zm0-15.516c3.3-.048 3.3 5.141 0 5.093-3.304.048-3.304-5.14 0-5.093zm0-15.516c3.3-.048 3.3 5.141 0 5.093-3.304.048-3.304-5.14 0-5.093zm0-15.516c3.3-.048 3.3 5.141 0 5.093-3.304.048-3.304-5.14 0-5.093zm14.72 77.579c3.3-.048 3.3 5.141 0 5.093-3.304.048-3.304-5.14 0-5.093zm0-15.516c3.3-.048 3.3 5.141 0 5.093-3.304.048-3.304-5.14 0-5.093zm0-15.515c3.3-.048 3.3 5.141 0 5.093-3.304.048-3.304-5.14 0-5.093zm0-15.516c3.3-.048 3.3 5.141 0 5.093-3.304.048-3.304-5.14 0-5.093zm0-15.516c3.3-.048 3.3 5.141 0 5.093-3.304.048-3.304-5.14 0-5.093zm0-15.516c3.3-.048 3.3 5.141 0 5.093-3.304.048-3.304-5.14 0-5.093zM2.478 77.579c3.3-.048 3.3 5.141 0 5.093-3.304.048-3.304-5.14 0-5.093zm0-15.516c3.3-.048 3.3 5.141 0 5.093-3.304.048-3.304-5.14 0-5.093zm0-15.515c3.3-.048 3.3 5.141 0 5.093-3.304.048-3.304-5.14 0-5.093zm0-15.516c3.3-.048 3.3 5.141 0 5.093-3.304.048-3.304-5.14 0-5.093zm0-15.516c3.3-.048 3.3 5.141 0 5.093-3.304.048-3.304-5.14 0-5.093zM2.478 0c3.3-.048 3.3 5.141 0 5.093-3.304.048-3.304-5.14 0-5.093zm14.721 77.579c3.3-.048 3.3 5.141 0 5.093-3.304.048-3.304-5.14 0-5.093zm0-15.516c3.3-.048 3.3 5.141 0 5.093-3.304.048-3.304-5.14 0-5.093zm0-15.515c3.3-.048 3.3 5.141 0 5.093-3.304.048-3.304-5.14 0-5.093zm0-15.516c3.3-.048 3.3 5.141 0 5.093-3.304.048-3.304-5.14 0-5.093zm0-15.516c3.3-.048 3.3 5.141 0 5.093-3.304.048-3.304-5.14 0-5.093zm0-15.516c3.3-.048 3.3 5.141 0 5.093-3.304.048-3.304-5.14 0-5.093zm14.72 77.579c3.3-.048 3.3 5.141 0 5.093-3.304.048-3.304-5.14 0-5.093zm0-15.516c3.3-.048 3.3 5.141 0 5.093-3.304.048-3.304-5.14 0-5.093zm0-15.515c3.3-.048 3.3 5.141 0 5.093-3.304.048-3.304-5.14 0-5.093zm0-15.516c3.3-.048 3.3 5.141 0 5.093-3.304.048-3.304-5.14 0-5.093zm0-15.516c3.3-.048 3.3 5.141 0 5.093-3.304.048-3.304-5.14 0-5.093zm0-15.516c3.3-.048 3.3 5.141 0 5.093-3.304.048-3.304-5.14 0-5.093z"/></g><g transform="matrix(.707107 .707107 -.707107 .707107 316.049 -60.257)" class="B"><use xlink:href="#B"/><path d="M47.13 62.063c3.3-.048 3.3 5.141 0 5.093-3.304.048-3.304-5.14 0-5.093zm0-15.515c3.3-.048 3.3 5.141 0 5.093-3.304.048-3.304-5.14 0-5.093zm0-15.516c3.3-.048 3.3 5.141 0 5.093-3.304.048-3.304-5.14 0-5.093zm0-15.516c3.3-.048 3.3 5.141 0 5.093-3.304.048-3.304-5.14 0-5.093zM47.13 0c3.3-.048 3.3 5.141 0 5.093-3.304.048-3.304-5.14 0-5.093zm14.721 77.579c3.3-.048 3.3 5.141 0 5.093-3.304.048-3.304-5.14 0-5.093zm0-15.516c3.3-.048 3.3 5.141 0 5.093-3.304.048-3.304-5.14 0-5.093zm0-15.515c3.3-.048 3.3 5.141 0 5.093-3.304.048-3.304-5.14 0-5.093zm0-15.516c3.3-.048 3.3 5.141 0 5.093-3.304.048-3.304-5.14 0-5.093zm0-15.516c3.3-.048 3.3 5.141 0 5.093-3.304.048-3.304-5.14 0-5.093zm0-15.516c3.3-.048 3.3 5.141 0 5.093-3.304.048-3.304-5.14 0-5.093zm14.72 77.579c3.3-.048 3.3 5.141 0 5.093-3.304.048-3.304-5.14 0-5.093zm0-15.516c3.3-.048 3.3 5.141 0 5.093-3.304.048-3.304-5.14 0-5.093zm0-15.515c3.3-.048 3.3 5.141 0 5.093-3.304.048-3.304-5.14 0-5.093zm0-15.516c3.3-.048 3.3 5.141 0 5.093-3.304.048-3.304-5.14 0-5.093zm0-15.516c3.3-.048 3.3 5.141 0 5.093-3.304.048-3.304-5.14 0-5.093zm0-15.516c3.3-.048 3.3 5.141 0 5.093-3.304.048-3.304-5.14 0-5.093zM2.478 77.579c3.3-.048 3.3 5.141 0 5.093-3.304.048-3.304-5.14 0-5.093zm0-15.516c3.3-.048 3.3 5.141 0 5.093-3.304.048-3.304-5.14 0-5.093zm0-15.515c3.3-.048 3.3 5.141 0 5.093-3.304.048-3.304-5.14 0-5.093zm0-15.516c3.3-.048 3.3 5.141 0 5.093-3.304.048-3.304-5.14 0-5.093zm0-15.516c3.3-.048 3.3 5.141 0 5.093-3.304.048-3.304-5.14 0-5.093zM2.478 0c3.3-.048 3.3 5.141 0 5.093-3.304.048-3.304-5.14 0-5.093zm14.721 77.579c3.3-.048 3.3 5.141 0 5.093-3.304.048-3.304-5.14 0-5.093zm0-15.516c3.3-.048 3.3 5.141 0 5.093-3.304.048-3.304-5.14 0-5.093zm0-15.515c3.3-.048 3.3 5.141 0 5.093-3.304.048-3.304-5.14 0-5.093zm0-15.516c3.3-.048 3.3 5.141 0 5.093-3.304.048-3.304-5.14 0-5.093zm0-15.516c3.3-.048 3.3 5.141 0 5.093-3.304.048-3.304-5.14 0-5.093zm0-15.516c3.3-.048 3.3 5.141 0 5.093-3.304.048-3.304-5.14 0-5.093zm14.72 77.579c3.3-.048 3.3 5.141 0 5.093-3.304.048-3.304-5.14 0-5.093zm0-15.516c3.3-.048 3.3 5.141 0 5.093-3.304.048-3.304-5.14 0-5.093zm0-15.515c3.3-.048 3.3 5.141 0 5.093-3.304.048-3.304-5.14 0-5.093zm0-15.516c3.3-.048 3.3 5.141 0 5.093-3.304.048-3.304-5.14 0-5.093zm0-15.516c3.3-.048 3.3 5.141 0 5.093-3.304.048-3.304-5.14 0-5.093zm0-15.516c3.3-.048 3.3 5.141 0 5.093-3.304.048-3.304-5.14 0-5.093z"/></g><g transform="matrix(.707107 .707107 -.707107 .707107 118.049 3)" class="B"><use xlink:href="#B"/><path d="M47.13 62.063c3.3-.048 3.3 5.141 0 5.093-3.304.048-3.304-5.14 0-5.093zm0-15.515c3.3-.048 3.3 5.141 0 5.093-3.304.048-3.304-5.14 0-5.093zm0-15.516c3.3-.048 3.3 5.141 0 5.093-3.304.048-3.304-5.14 0-5.093zm0-15.516c3.3-.048 3.3 5.141 0 5.093-3.304.048-3.304-5.14 0-5.093zM47.13 0c3.3-.048 3.3 5.141 0 5.093-3.304.048-3.304-5.14 0-5.093zm14.721 77.579c3.3-.048 3.3 5.141 0 5.093-3.304.048-3.304-5.14 0-5.093zm0-15.516c3.3-.048 3.3 5.141 0 5.093-3.304.048-3.304-5.14 0-5.093zm0-15.515c3.3-.048 3.3 5.141 0 5.093-3.304.048-3.304-5.14 0-5.093zm0-15.516c3.3-.048 3.3 5.141 0 5.093-3.304.048-3.304-5.14 0-5.093zm0-15.516c3.3-.048 3.3 5.141 0 5.093-3.304.048-3.304-5.14 0-5.093zm0-15.516c3.3-.048 3.3 5.141 0 5.093-3.304.048-3.304-5.14 0-5.093zm14.72 77.579c3.3-.048 3.3 5.141 0 5.093-3.304.048-3.304-5.14 0-5.093zm0-15.516c3.3-.048 3.3 5.141 0 5.093-3.304.048-3.304-5.14 0-5.093zm0-15.515c3.3-.048 3.3 5.141 0 5.093-3.304.048-3.304-5.14 0-5.093zm0-15.516c3.3-.048 3.3 5.141 0 5.093-3.304.048-3.304-5.14 0-5.093zm0-15.516c3.3-.048 3.3 5.141 0 5.093-3.304.048-3.304-5.14 0-5.093zm0-15.516c3.3-.048 3.3 5.141 0 5.093-3.304.048-3.304-5.14 0-5.093zM2.478 77.579c3.3-.048 3.3 5.141 0 5.093-3.304.048-3.304-5.14 0-5.093zm0-15.516c3.3-.048 3.3 5.141 0 5.093-3.304.048-3.304-5.14 0-5.093zm0-15.515c3.3-.048 3.3 5.141 0 5.093-3.304.048-3.304-5.14 0-5.093zm0-15.516c3.3-.048 3.3 5.141 0 5.093-3.304.048-3.304-5.14 0-5.093zm0-15.516c3.3-.048 3.3 5.141 0 5.093-3.304.048-3.304-5.14 0-5.093zM2.478 0c3.3-.048 3.3 5.141 0 5.093-3.304.048-3.304-5.14 0-5.093zm14.721 77.579c3.3-.048 3.3 5.141 0 5.093-3.304.048-3.304-5.14 0-5.093zm0-15.516c3.3-.048 3.3 5.141 0 5.093-3.304.048-3.304-5.14 0-5.093zm0-15.515c3.3-.048 3.3 5.141 0 5.093-3.304.048-3.304-5.14 0-5.093zm0-15.516c3.3-.048 3.3 5.141 0 5.093-3.304.048-3.304-5.14 0-5.093zm0-15.516c3.3-.048 3.3 5.141 0 5.093-3.304.048-3.304-5.14 0-5.093zm0-15.516c3.3-.048 3.3 5.141 0 5.093-3.304.048-3.304-5.14 0-5.093zm14.72 77.579c3.3-.048 3.3 5.141 0 5.093-3.304.048-3.304-5.14 0-5.093zm0-15.516c3.3-.048 3.3 5.141 0 5.093-3.304.048-3.304-5.14 0-5.093zm0-15.515c3.3-.048 3.3 5.141 0 5.093-3.304.048-3.304-5.14 0-5.093zm0-15.516c3.3-.048 3.3 5.141 0 5.093-3.304.048-3.304-5.14 0-5.093zm0-15.516c3.3-.048 3.3 5.141 0 5.093-3.304.048-3.304-5.14 0-5.093zm0-15.516c3.3-.048 3.3 5.141 0 5.093-3.304.048-3.304-5.14 0-5.093z"/></g><g transform="matrix(.707107 .707107 -.707107 .707107 312.049 66.257)" class="B"><use xlink:href="#B"/><path d="M47.13 62.063c3.3-.048 3.3 5.141 0 5.093-3.304.048-3.304-5.14 0-5.093zm0-15.515c3.3-.048 3.3 5.141 0 5.093-3.304.048-3.304-5.14 0-5.093zm0-15.516c3.3-.048 3.3 5.141 0 5.093-3.304.048-3.304-5.14 0-5.093zm0-15.516c3.3-.048 3.3 5.141 0 5.093-3.304.048-3.304-5.14 0-5.093zM47.13 0c3.3-.048 3.3 5.141 0 5.093-3.304.048-3.304-5.14 0-5.093zm14.721 77.579c3.3-.048 3.3 5.141 0 5.093-3.304.048-3.304-5.14 0-5.093zm0-15.516c3.3-.048 3.3 5.141 0 5.093-3.304.048-3.304-5.14 0-5.093zm0-15.515c3.3-.048 3.3 5.141 0 5.093-3.304.048-3.304-5.14 0-5.093zm0-15.516c3.3-.048 3.3 5.141 0 5.093-3.304.048-3.304-5.14 0-5.093zm0-15.516c3.3-.048 3.3 5.141 0 5.093-3.304.048-3.304-5.14 0-5.093zm0-15.516c3.3-.048 3.3 5.141 0 5.093-3.304.048-3.304-5.14 0-5.093zm14.72 77.579c3.3-.048 3.3 5.141 0 5.093-3.304.048-3.304-5.14 0-5.093zm0-15.516c3.3-.048 3.3 5.141 0 5.093-3.304.048-3.304-5.14 0-5.093zm0-15.515c3.3-.048 3.3 5.141 0 5.093-3.304.048-3.304-5.14 0-5.093zm0-15.516c3.3-.048 3.3 5.141 0 5.093-3.304.048-3.304-5.14 0-5.093zm0-15.516c3.3-.048 3.3 5.141 0 5.093-3.304.048-3.304-5.14 0-5.093zm0-15.516c3.3-.048 3.3 5.141 0 5.093-3.304.048-3.304-5.14 0-5.093zM2.478 77.579c3.3-.048 3.3 5.141 0 5.093-3.304.048-3.304-5.14 0-5.093zm0-15.516c3.3-.048 3.3 5.141 0 5.093-3.304.048-3.304-5.14 0-5.093zm0-15.515c3.3-.048 3.3 5.141 0 5.093-3.304.048-3.304-5.14 0-5.093zm0-15.516c3.3-.048 3.3 5.141 0 5.093-3.304.048-3.304-5.14 0-5.093zm0-15.516c3.3-.048 3.3 5.141 0 5.093-3.304.048-3.304-5.14 0-5.093zM2.478 0c3.3-.048 3.3 5.141 0 5.093-3.304.048-3.304-5.14 0-5.093zm14.721 77.579c3.3-.048 3.3 5.141 0 5.093-3.304.048-3.304-5.14 0-5.093zm0-15.516c3.3-.048 3.3 5.141 0 5.093-3.304.048-3.304-5.14 0-5.093zm0-15.515c3.3-.048 3.3 5.141 0 5.093-3.304.048-3.304-5.14 0-5.093zm0-15.516c3.3-.048 3.3 5.141 0 5.093-3.304.048-3.304-5.14 0-5.093zm0-15.516c3.3-.048 3.3 5.141 0 5.093-3.304.048-3.304-5.14 0-5.093zm0-15.516c3.3-.048 3.3 5.141 0 5.093-3.304.048-3.304-5.14 0-5.093zm14.72 77.579c3.3-.048 3.3 5.141 0 5.093-3.304.048-3.304-5.14 0-5.093zm0-15.516c3.3-.048 3.3 5.141 0 5.093-3.304.048-3.304-5.14 0-5.093zm0-15.515c3.3-.048 3.3 5.141 0 5.093-3.304.048-3.304-5.14 0-5.093zm0-15.516c3.3-.048 3.3 5.141 0 5.093-3.304.048-3.304-5.14 0-5.093zm0-15.516c3.3-.048 3.3 5.141 0 5.093-3.304.048-3.304-5.14 0-5.093zm0-15.516c3.3-.048 3.3 5.141 0 5.093-3.304.048-3.304-5.14 0-5.093z"/></g><g transform="matrix(.707107 .707107 -.707107 .707107 352.049 154.257)" class="B"><use xlink:href="#B"/><path d="M47.13 62.063c3.3-.048 3.3 5.141 0 5.093-3.304.048-3.304-5.14 0-5.093zm0-15.515c3.3-.048 3.3 5.141 0 5.093-3.304.048-3.304-5.14 0-5.093zm0-15.516c3.3-.048 3.3 5.141 0 5.093-3.304.048-3.304-5.14 0-5.093zm0-15.516c3.3-.048 3.3 5.141 0 5.093-3.304.048-3.304-5.14 0-5.093zM47.13 0c3.3-.048 3.3 5.141 0 5.093-3.304.048-3.304-5.14 0-5.093zm14.721 77.579c3.3-.048 3.3 5.141 0 5.093-3.304.048-3.304-5.14 0-5.093zm0-15.516c3.3-.048 3.3 5.141 0 5.093-3.304.048-3.304-5.14 0-5.093zm0-15.515c3.3-.048 3.3 5.141 0 5.093-3.304.048-3.304-5.14 0-5.093zm0-15.516c3.3-.048 3.3 5.141 0 5.093-3.304.048-3.304-5.14 0-5.093zm0-15.516c3.3-.048 3.3 5.141 0 5.093-3.304.048-3.304-5.14 0-5.093zm0-15.516c3.3-.048 3.3 5.141 0 5.093-3.304.048-3.304-5.14 0-5.093zm14.72 77.579c3.3-.048 3.3 5.141 0 5.093-3.304.048-3.304-5.14 0-5.093zm0-15.516c3.3-.048 3.3 5.141 0 5.093-3.304.048-3.304-5.14 0-5.093zm0-15.515c3.3-.048 3.3 5.141 0 5.093-3.304.048-3.304-5.14 0-5.093zm0-15.516c3.3-.048 3.3 5.141 0 5.093-3.304.048-3.304-5.14 0-5.093zm0-15.516c3.3-.048 3.3 5.141 0 5.093-3.304.048-3.304-5.14 0-5.093zm0-15.516c3.3-.048 3.3 5.141 0 5.093-3.304.048-3.304-5.14 0-5.093zM2.478 77.579c3.3-.048 3.3 5.141 0 5.093-3.304.048-3.304-5.14 0-5.093zm0-15.516c3.3-.048 3.3 5.141 0 5.093-3.304.048-3.304-5.14 0-5.093zm0-15.515c3.3-.048 3.3 5.141 0 5.093-3.304.048-3.304-5.14 0-5.093zm0-15.516c3.3-.048 3.3 5.141 0 5.093-3.304.048-3.304-5.14 0-5.093zm0-15.516c3.3-.048 3.3 5.141 0 5.093-3.304.048-3.304-5.14 0-5.093zM2.478 0c3.3-.048 3.3 5.141 0 5.093-3.304.048-3.304-5.14 0-5.093zm14.721 77.579c3.3-.048 3.3 5.141 0 5.093-3.304.048-3.304-5.14 0-5.093zm0-15.516c3.3-.048 3.3 5.141 0 5.093-3.304.048-3.304-5.14 0-5.093zm0-15.515c3.3-.048 3.3 5.141 0 5.093-3.304.048-3.304-5.14 0-5.093zm0-15.516c3.3-.048 3.3 5.141 0 5.093-3.304.048-3.304-5.14 0-5.093zm0-15.516c3.3-.048 3.3 5.141 0 5.093-3.304.048-3.304-5.14 0-5.093zm0-15.516c3.3-.048 3.3 5.141 0 5.093-3.304.048-3.304-5.14 0-5.093zm14.72 77.579c3.3-.048 3.3 5.141 0 5.093-3.304.048-3.304-5.14 0-5.093zm0-15.516c3.3-.048 3.3 5.141 0 5.093-3.304.048-3.304-5.14 0-5.093zm0-15.515c3.3-.048 3.3 5.141 0 5.093-3.304.048-3.304-5.14 0-5.093zm0-15.516c3.3-.048 3.3 5.141 0 5.093-3.304.048-3.304-5.14 0-5.093zm0-15.516c3.3-.048 3.3 5.141 0 5.093-3.304.048-3.304-5.14 0-5.093zm0-15.516c3.3-.048 3.3 5.141 0 5.093-3.304.048-3.304-5.14 0-5.093z"/></g><g transform="matrix(.707107 .707107 -.707107 .707107 415.281 217.257)" class="B"><use xlink:href="#B"/><path d="M47.13 62.063c3.3-.048 3.3 5.141 0 5.093-3.304.048-3.304-5.14 0-5.093zm0-15.515c3.3-.048 3.3 5.141 0 5.093-3.304.048-3.304-5.14 0-5.093zm0-15.516c3.3-.048 3.3 5.141 0 5.093-3.304.048-3.304-5.14 0-5.093zm0-15.516c3.3-.048 3.3 5.141 0 5.093-3.304.048-3.304-5.14 0-5.093zM47.13 0c3.3-.048 3.3 5.141 0 5.093-3.304.048-3.304-5.14 0-5.093zm14.721 77.579c3.3-.048 3.3 5.141 0 5.093-3.304.048-3.304-5.14 0-5.093zm0-15.516c3.3-.048 3.3 5.141 0 5.093-3.304.048-3.304-5.14 0-5.093zm0-15.515c3.3-.048 3.3 5.141 0 5.093-3.304.048-3.304-5.14 0-5.093zm0-15.516c3.3-.048 3.3 5.141 0 5.093-3.304.048-3.304-5.14 0-5.093zm0-15.516c3.3-.048 3.3 5.141 0 5.093-3.304.048-3.304-5.14 0-5.093zm0-15.516c3.3-.048 3.3 5.141 0 5.093-3.304.048-3.304-5.14 0-5.093zm14.72 77.579c3.3-.048 3.3 5.141 0 5.093-3.304.048-3.304-5.14 0-5.093zm0-15.516c3.3-.048 3.3 5.141 0 5.093-3.304.048-3.304-5.14 0-5.093zm0-15.515c3.3-.048 3.3 5.141 0 5.093-3.304.048-3.304-5.14 0-5.093zm0-15.516c3.3-.048 3.3 5.141 0 5.093-3.304.048-3.304-5.14 0-5.093zm0-15.516c3.3-.048 3.3 5.141 0 5.093-3.304.048-3.304-5.14 0-5.093zm0-15.516c3.3-.048 3.3 5.141 0 5.093-3.304.048-3.304-5.14 0-5.093zM2.478 77.579c3.3-.048 3.3 5.141 0 5.093-3.304.048-3.304-5.14 0-5.093zm0-15.516c3.3-.048 3.3 5.141 0 5.093-3.304.048-3.304-5.14 0-5.093zm0-15.515c3.3-.048 3.3 5.141 0 5.093-3.304.048-3.304-5.14 0-5.093zm0-15.516c3.3-.048 3.3 5.141 0 5.093-3.304.048-3.304-5.14 0-5.093zm0-15.516c3.3-.048 3.3 5.141 0 5.093-3.304.048-3.304-5.14 0-5.093zM2.478 0c3.3-.048 3.3 5.141 0 5.093-3.304.048-3.304-5.14 0-5.093zm14.721 77.579c3.3-.048 3.3 5.141 0 5.093-3.304.048-3.304-5.14 0-5.093zm0-15.516c3.3-.048 3.3 5.141 0 5.093-3.304.048-3.304-5.14 0-5.093zm0-15.515c3.3-.048 3.3 5.141 0 5.093-3.304.048-3.304-5.14 0-5.093zm0-15.516c3.3-.048 3.3 5.141 0 5.093-3.304.048-3.304-5.14 0-5.093zm0-15.516c3.3-.048 3.3 5.141 0 5.093-3.304.048-3.304-5.14 0-5.093zm0-15.516c3.3-.048 3.3 5.141 0 5.093-3.304.048-3.304-5.14 0-5.093zm14.72 77.579c3.3-.048 3.3 5.141 0 5.093-3.304.048-3.304-5.14 0-5.093zm0-15.516c3.3-.048 3.3 5.141 0 5.093-3.304.048-3.304-5.14 0-5.093zm0-15.515c3.3-.048 3.3 5.141 0 5.093-3.304.048-3.304-5.14 0-5.093zm0-15.516c3.3-.048 3.3 5.141 0 5.093-3.304.048-3.304-5.14 0-5.093zm0-15.516c3.3-.048 3.3 5.141 0 5.093-3.304.048-3.304-5.14 0-5.093zm0-15.516c3.3-.048 3.3 5.141 0 5.093-3.304.048-3.304-5.14 0-5.093z"/></g><g transform="matrix(.707107 .707107 -.707107 .707107 185.049 -60.257)" class="B"><use xlink:href="#B"/><path d="M47.13 62.063c3.3-.048 3.3 5.141 0 5.093-3.304.048-3.304-5.14 0-5.093zm0-15.515c3.3-.048 3.3 5.141 0 5.093-3.304.048-3.304-5.14 0-5.093zm0-15.516c3.3-.048 3.3 5.141 0 5.093-3.304.048-3.304-5.14 0-5.093zm0-15.516c3.3-.048 3.3 5.141 0 5.093-3.304.048-3.304-5.14 0-5.093zM47.13 0c3.3-.048 3.3 5.141 0 5.093-3.304.048-3.304-5.14 0-5.093zm14.721 77.579c3.3-.048 3.3 5.141 0 5.093-3.304.048-3.304-5.14 0-5.093zm0-15.516c3.3-.048 3.3 5.141 0 5.093-3.304.048-3.304-5.14 0-5.093zm0-15.515c3.3-.048 3.3 5.141 0 5.093-3.304.048-3.304-5.14 0-5.093zm0-15.516c3.3-.048 3.3 5.141 0 5.093-3.304.048-3.304-5.14 0-5.093zm0-15.516c3.3-.048 3.3 5.141 0 5.093-3.304.048-3.304-5.14 0-5.093zm0-15.516c3.3-.048 3.3 5.141 0 5.093-3.304.048-3.304-5.14 0-5.093zm14.72 77.579c3.3-.048 3.3 5.141 0 5.093-3.304.048-3.304-5.14 0-5.093zm0-15.516c3.3-.048 3.3 5.141 0 5.093-3.304.048-3.304-5.14 0-5.093zm0-15.515c3.3-.048 3.3 5.141 0 5.093-3.304.048-3.304-5.14 0-5.093zm0-15.516c3.3-.048 3.3 5.141 0 5.093-3.304.048-3.304-5.14 0-5.093zm0-15.516c3.3-.048 3.3 5.141 0 5.093-3.304.048-3.304-5.14 0-5.093zm0-15.516c3.3-.048 3.3 5.141 0 5.093-3.304.048-3.304-5.14 0-5.093zM2.478 77.579c3.3-.048 3.3 5.141 0 5.093-3.304.048-3.304-5.14 0-5.093zm0-15.516c3.3-.048 3.3 5.141 0 5.093-3.304.048-3.304-5.14 0-5.093zm0-15.515c3.3-.048 3.3 5.141 0 5.093-3.304.048-3.304-5.14 0-5.093zm0-15.516c3.3-.048 3.3 5.141 0 5.093-3.304.048-3.304-5.14 0-5.093zm0-15.516c3.3-.048 3.3 5.141 0 5.093-3.304.048-3.304-5.14 0-5.093zM2.478 0c3.3-.048 3.3 5.141 0 5.093-3.304.048-3.304-5.14 0-5.093zm14.721 77.579c3.3-.048 3.3 5.141 0 5.093-3.304.048-3.304-5.14 0-5.093zm0-15.516c3.3-.048 3.3 5.141 0 5.093-3.304.048-3.304-5.14 0-5.093zm0-15.515c3.3-.048 3.3 5.141 0 5.093-3.304.048-3.304-5.14 0-5.093zm0-15.516c3.3-.048 3.3 5.141 0 5.093-3.304.048-3.304-5.14 0-5.093zm0-15.516c3.3-.048 3.3 5.141 0 5.093-3.304.048-3.304-5.14 0-5.093zm0-15.516c3.3-.048 3.3 5.141 0 5.093-3.304.048-3.304-5.14 0-5.093zm14.72 77.579c3.3-.048 3.3 5.141 0 5.093-3.304.048-3.304-5.14 0-5.093zm0-15.516c3.3-.048 3.3 5.141 0 5.093-3.304.048-3.304-5.14 0-5.093zm0-15.515c3.3-.048 3.3 5.141 0 5.093-3.304.048-3.304-5.14 0-5.093zm0-15.516c3.3-.048 3.3 5.141 0 5.093-3.304.048-3.304-5.14 0-5.093zm0-15.516c3.3-.048 3.3 5.141 0 5.093-3.304.048-3.304-5.14 0-5.093zm0-15.516c3.3-.048 3.3 5.141 0 5.093-3.304.048-3.304-5.14 0-5.093z"/></g><g transform="matrix(.707107 .707107 -.707107 .707107 379.049 3)" class="B"><use xlink:href="#B"/><path d="M47.13 62.063c3.3-.048 3.3 5.141 0 5.093-3.304.048-3.304-5.14 0-5.093zm0-15.515c3.3-.048 3.3 5.141 0 5.093-3.304.048-3.304-5.14 0-5.093zm0-15.516c3.3-.048 3.3 5.141 0 5.093-3.304.048-3.304-5.14 0-5.093zm0-15.516c3.3-.048 3.3 5.141 0 5.093-3.304.048-3.304-5.14 0-5.093zM47.13 0c3.3-.048 3.3 5.141 0 5.093-3.304.048-3.304-5.14 0-5.093zm14.721 77.579c3.3-.048 3.3 5.141 0 5.093-3.304.048-3.304-5.14 0-5.093zm0-15.516c3.3-.048 3.3 5.141 0 5.093-3.304.048-3.304-5.14 0-5.093zm0-15.515c3.3-.048 3.3 5.141 0 5.093-3.304.048-3.304-5.14 0-5.093zm0-15.516c3.3-.048 3.3 5.141 0 5.093-3.304.048-3.304-5.14 0-5.093zm0-15.516c3.3-.048 3.3 5.141 0 5.093-3.304.048-3.304-5.14 0-5.093zm0-15.516c3.3-.048 3.3 5.141 0 5.093-3.304.048-3.304-5.14 0-5.093zm14.72 77.579c3.3-.048 3.3 5.141 0 5.093-3.304.048-3.304-5.14 0-5.093zm0-15.516c3.3-.048 3.3 5.141 0 5.093-3.304.048-3.304-5.14 0-5.093zm0-15.515c3.3-.048 3.3 5.141 0 5.093-3.304.048-3.304-5.14 0-5.093zm0-15.516c3.3-.048 3.3 5.141 0 5.093-3.304.048-3.304-5.14 0-5.093zm0-15.516c3.3-.048 3.3 5.141 0 5.093-3.304.048-3.304-5.14 0-5.093zm0-15.516c3.3-.048 3.3 5.141 0 5.093-3.304.048-3.304-5.14 0-5.093zM2.478 77.579c3.3-.048 3.3 5.141 0 5.093-3.304.048-3.304-5.14 0-5.093zm0-15.516c3.3-.048 3.3 5.141 0 5.093-3.304.048-3.304-5.14 0-5.093zm0-15.515c3.3-.048 3.3 5.141 0 5.093-3.304.048-3.304-5.14 0-5.093zm0-15.516c3.3-.048 3.3 5.141 0 5.093-3.304.048-3.304-5.14 0-5.093zm0-15.516c3.3-.048 3.3 5.141 0 5.093-3.304.048-3.304-5.14 0-5.093zM2.478 0c3.3-.048 3.3 5.141 0 5.093-3.304.048-3.304-5.14 0-5.093zm14.721 77.579c3.3-.048 3.3 5.141 0 5.093-3.304.048-3.304-5.14 0-5.093zm0-15.516c3.3-.048 3.3 5.141 0 5.093-3.304.048-3.304-5.14 0-5.093zm0-15.515c3.3-.048 3.3 5.141 0 5.093-3.304.048-3.304-5.14 0-5.093zm0-15.516c3.3-.048 3.3 5.141 0 5.093-3.304.048-3.304-5.14 0-5.093zm0-15.516c3.3-.048 3.3 5.141 0 5.093-3.304.048-3.304-5.14 0-5.093zm0-15.516c3.3-.048 3.3 5.141 0 5.093-3.304.048-3.304-5.14 0-5.093zm14.72 77.579c3.3-.048 3.3 5.141 0 5.093-3.304.048-3.304-5.14 0-5.093zm0-15.516c3.3-.048 3.3 5.141 0 5.093-3.304.048-3.304-5.14 0-5.093zm0-15.515c3.3-.048 3.3 5.141 0 5.093-3.304.048-3.304-5.14 0-5.093zm0-15.516c3.3-.048 3.3 5.141 0 5.093-3.304.048-3.304-5.14 0-5.093zm0-15.516c3.3-.048 3.3 5.141 0 5.093-3.304.048-3.304-5.14 0-5.093zm0-15.516c3.3-.048 3.3 5.141 0 5.093-3.304.048-3.304-5.14 0-5.093z"/></g><g transform="matrix(.707107 .707107 -.707107 .707107 419.049 86)" class="B"><use xlink:href="#B"/><path d="M47.13 62.063c3.3-.048 3.3 5.141 0 5.093-3.304.048-3.304-5.14 0-5.093zm0-15.515c3.3-.048 3.3 5.141 0 5.093-3.304.048-3.304-5.14 0-5.093zm0-15.516c3.3-.048 3.3 5.141 0 5.093-3.304.048-3.304-5.14 0-5.093zm0-15.516c3.3-.048 3.3 5.141 0 5.093-3.304.048-3.304-5.14 0-5.093zM47.13 0c3.3-.048 3.3 5.141 0 5.093-3.304.048-3.304-5.14 0-5.093zm14.721 77.579c3.3-.048 3.3 5.141 0 5.093-3.304.048-3.304-5.14 0-5.093zm0-15.516c3.3-.048 3.3 5.141 0 5.093-3.304.048-3.304-5.14 0-5.093zm0-15.515c3.3-.048 3.3 5.141 0 5.093-3.304.048-3.304-5.14 0-5.093zm0-15.516c3.3-.048 3.3 5.141 0 5.093-3.304.048-3.304-5.14 0-5.093zm0-15.516c3.3-.048 3.3 5.141 0 5.093-3.304.048-3.304-5.14 0-5.093zm0-15.516c3.3-.048 3.3 5.141 0 5.093-3.304.048-3.304-5.14 0-5.093zm14.72 77.579c3.3-.048 3.3 5.141 0 5.093-3.304.048-3.304-5.14 0-5.093zm0-15.516c3.3-.048 3.3 5.141 0 5.093-3.304.048-3.304-5.14 0-5.093zm0-15.515c3.3-.048 3.3 5.141 0 5.093-3.304.048-3.304-5.14 0-5.093zm0-15.516c3.3-.048 3.3 5.141 0 5.093-3.304.048-3.304-5.14 0-5.093zm0-15.516c3.3-.048 3.3 5.141 0 5.093-3.304.048-3.304-5.14 0-5.093zm0-15.516c3.3-.048 3.3 5.141 0 5.093-3.304.048-3.304-5.14 0-5.093zM2.478 77.579c3.3-.048 3.3 5.141 0 5.093-3.304.048-3.304-5.14 0-5.093zm0-15.516c3.3-.048 3.3 5.141 0 5.093-3.304.048-3.304-5.14 0-5.093zm0-15.515c3.3-.048 3.3 5.141 0 5.093-3.304.048-3.304-5.14 0-5.093zm0-15.516c3.3-.048 3.3 5.141 0 5.093-3.304.048-3.304-5.14 0-5.093zm0-15.516c3.3-.048 3.3 5.141 0 5.093-3.304.048-3.304-5.14 0-5.093zM2.478 0c3.3-.048 3.3 5.141 0 5.093-3.304.048-3.304-5.14 0-5.093zm14.721 77.579c3.3-.048 3.3 5.141 0 5.093-3.304.048-3.304-5.14 0-5.093zm0-15.516c3.3-.048 3.3 5.141 0 5.093-3.304.048-3.304-5.14 0-5.093zm0-15.515c3.3-.048 3.3 5.141 0 5.093-3.304.048-3.304-5.14 0-5.093zm0-15.516c3.3-.048 3.3 5.141 0 5.093-3.304.048-3.304-5.14 0-5.093zm0-15.516c3.3-.048 3.3 5.141 0 5.093-3.304.048-3.304-5.14 0-5.093zm0-15.516c3.3-.048 3.3 5.141 0 5.093-3.304.048-3.304-5.14 0-5.093zm14.72 77.579c3.3-.048 3.3 5.141 0 5.093-3.304.048-3.304-5.14 0-5.093zm0-15.516c3.3-.048 3.3 5.141 0 5.093-3.304.048-3.304-5.14 0-5.093zm0-15.515c3.3-.048 3.3 5.141 0 5.093-3.304.048-3.304-5.14 0-5.093zm0-15.516c3.3-.048 3.3 5.141 0 5.093-3.304.048-3.304-5.14 0-5.093zm0-15.516c3.3-.048 3.3 5.141 0 5.093-3.304.048-3.304-5.14 0-5.093zm0-15.516c3.3-.048 3.3 5.141 0 5.093-3.304.048-3.304-5.14 0-5.093z"/></g></g><g opacity=".3" class="C"><g transform="matrix(.707107 .707107 -.707107 .707107 219.159 286.324)" class="B"><use xlink:href="#B"/><path d="M47.13 62.063c3.3-.048 3.3 5.141 0 5.093-3.304.048-3.304-5.14 0-5.093zm0-15.515c3.3-.048 3.3 5.141 0 5.093-3.304.048-3.304-5.14 0-5.093zm0-15.516c3.3-.048 3.3 5.141 0 5.093-3.304.048-3.304-5.14 0-5.093zm0-15.516c3.3-.048 3.3 5.141 0 5.093-3.304.048-3.304-5.14 0-5.093zM47.13 0c3.3-.048 3.3 5.141 0 5.093-3.304.048-3.304-5.14 0-5.093zm14.721 77.579c3.3-.048 3.3 5.141 0 5.093-3.304.048-3.304-5.14 0-5.093zm0-15.516c3.3-.048 3.3 5.141 0 5.093-3.304.048-3.304-5.14 0-5.093zm0-15.515c3.3-.048 3.3 5.141 0 5.093-3.304.048-3.304-5.14 0-5.093zm0-15.516c3.3-.048 3.3 5.141 0 5.093-3.304.048-3.304-5.14 0-5.093zm0-15.516c3.3-.048 3.3 5.141 0 5.093-3.304.048-3.304-5.14 0-5.093zm0-15.516c3.3-.048 3.3 5.141 0 5.093-3.304.048-3.304-5.14 0-5.093zm14.72 77.579c3.3-.048 3.3 5.141 0 5.093-3.304.048-3.304-5.14 0-5.093zm0-15.516c3.3-.048 3.3 5.141 0 5.093-3.304.048-3.304-5.14 0-5.093zm0-15.515c3.3-.048 3.3 5.141 0 5.093-3.304.048-3.304-5.14 0-5.093zm0-15.516c3.3-.048 3.3 5.141 0 5.093-3.304.048-3.304-5.14 0-5.093zm0-15.516c3.3-.048 3.3 5.141 0 5.093-3.304.048-3.304-5.14 0-5.093zm0-15.516c3.3-.048 3.3 5.141 0 5.093-3.304.048-3.304-5.14 0-5.093zM2.478 77.579c3.3-.048 3.3 5.141 0 5.093-3.304.048-3.304-5.14 0-5.093zm0-15.516c3.3-.048 3.3 5.141 0 5.093-3.304.048-3.304-5.14 0-5.093zm0-15.515c3.3-.048 3.3 5.141 0 5.093-3.304.048-3.304-5.14 0-5.093zm0-15.516c3.3-.048 3.3 5.141 0 5.093-3.304.048-3.304-5.14 0-5.093zm0-15.516c3.3-.048 3.3 5.141 0 5.093-3.304.048-3.304-5.14 0-5.093zM2.478 0c3.3-.048 3.3 5.141 0 5.093-3.304.048-3.304-5.14 0-5.093zm14.721 77.579c3.3-.048 3.3 5.141 0 5.093-3.304.048-3.304-5.14 0-5.093zm0-15.516c3.3-.048 3.3 5.141 0 5.093-3.304.048-3.304-5.14 0-5.093zm0-15.515c3.3-.048 3.3 5.141 0 5.093-3.304.048-3.304-5.14 0-5.093zm0-15.516c3.3-.048 3.3 5.141 0 5.093-3.304.048-3.304-5.14 0-5.093zm0-15.516c3.3-.048 3.3 5.141 0 5.093-3.304.048-3.304-5.14 0-5.093zm0-15.516c3.3-.048 3.3 5.141 0 5.093-3.304.048-3.304-5.14 0-5.093zm14.72 77.579c3.3-.048 3.3 5.141 0 5.093-3.304.048-3.304-5.14 0-5.093zm0-15.516c3.3-.048 3.3 5.141 0 5.093-3.304.048-3.304-5.14 0-5.093zm0-15.515c3.3-.048 3.3 5.141 0 5.093-3.304.048-3.304-5.14 0-5.093zm0-15.516c3.3-.048 3.3 5.141 0 5.093-3.304.048-3.304-5.14 0-5.093zm0-15.516c3.3-.048 3.3 5.141 0 5.093-3.304.048-3.304-5.14 0-5.093zm0-15.516c3.3-.048 3.3 5.141 0 5.093-3.304.048-3.304-5.14 0-5.093z"/></g><g transform="matrix(.707107 .707107 -.707107 .707107 413.159 349.581)" class="B"><use xlink:href="#B"/><path d="M47.13 62.063c3.3-.048 3.3 5.141 0 5.093-3.304.048-3.304-5.14 0-5.093zm0-15.515c3.3-.048 3.3 5.141 0 5.093-3.304.048-3.304-5.14 0-5.093zm0-15.516c3.3-.048 3.3 5.141 0 5.093-3.304.048-3.304-5.14 0-5.093zm0-15.516c3.3-.048 3.3 5.141 0 5.093-3.304.048-3.304-5.14 0-5.093zM47.13 0c3.3-.048 3.3 5.141 0 5.093-3.304.048-3.304-5.14 0-5.093zm14.721 77.579c3.3-.048 3.3 5.141 0 5.093-3.304.048-3.304-5.14 0-5.093zm0-15.516c3.3-.048 3.3 5.141 0 5.093-3.304.048-3.304-5.14 0-5.093zm0-15.515c3.3-.048 3.3 5.141 0 5.093-3.304.048-3.304-5.14 0-5.093zm0-15.516c3.3-.048 3.3 5.141 0 5.093-3.304.048-3.304-5.14 0-5.093zm0-15.516c3.3-.048 3.3 5.141 0 5.093-3.304.048-3.304-5.14 0-5.093zm0-15.516c3.3-.048 3.3 5.141 0 5.093-3.304.048-3.304-5.14 0-5.093zm14.72 77.579c3.3-.048 3.3 5.141 0 5.093-3.304.048-3.304-5.14 0-5.093zm0-15.516c3.3-.048 3.3 5.141 0 5.093-3.304.048-3.304-5.14 0-5.093zm0-15.515c3.3-.048 3.3 5.141 0 5.093-3.304.048-3.304-5.14 0-5.093zm0-15.516c3.3-.048 3.3 5.141 0 5.093-3.304.048-3.304-5.14 0-5.093zm0-15.516c3.3-.048 3.3 5.141 0 5.093-3.304.048-3.304-5.14 0-5.093zm0-15.516c3.3-.048 3.3 5.141 0 5.093-3.304.048-3.304-5.14 0-5.093zM2.478 77.579c3.3-.048 3.3 5.141 0 5.093-3.304.048-3.304-5.14 0-5.093zm0-15.516c3.3-.048 3.3 5.141 0 5.093-3.304.048-3.304-5.14 0-5.093zm0-15.515c3.3-.048 3.3 5.141 0 5.093-3.304.048-3.304-5.14 0-5.093zm0-15.516c3.3-.048 3.3 5.141 0 5.093-3.304.048-3.304-5.14 0-5.093zm0-15.516c3.3-.048 3.3 5.141 0 5.093-3.304.048-3.304-5.14 0-5.093zM2.478 0c3.3-.048 3.3 5.141 0 5.093-3.304.048-3.304-5.14 0-5.093zm14.721 77.579c3.3-.048 3.3 5.141 0 5.093-3.304.048-3.304-5.14 0-5.093zm0-15.516c3.3-.048 3.3 5.141 0 5.093-3.304.048-3.304-5.14 0-5.093zm0-15.515c3.3-.048 3.3 5.141 0 5.093-3.304.048-3.304-5.14 0-5.093zm0-15.516c3.3-.048 3.3 5.141 0 5.093-3.304.048-3.304-5.14 0-5.093zm0-15.516c3.3-.048 3.3 5.141 0 5.093-3.304.048-3.304-5.14 0-5.093zm0-15.516c3.3-.048 3.3 5.141 0 5.093-3.304.048-3.304-5.14 0-5.093zm14.72 77.579c3.3-.048 3.3 5.141 0 5.093-3.304.048-3.304-5.14 0-5.093zm0-15.516c3.3-.048 3.3 5.141 0 5.093-3.304.048-3.304-5.14 0-5.093zm0-15.515c3.3-.048 3.3 5.141 0 5.093-3.304.048-3.304-5.14 0-5.093zm0-15.516c3.3-.048 3.3 5.141 0 5.093-3.304.048-3.304-5.14 0-5.093zm0-15.516c3.3-.048 3.3 5.141 0 5.093-3.304.048-3.304-5.14 0-5.093zm0-15.516c3.3-.048 3.3 5.141 0 5.093-3.304.048-3.304-5.14 0-5.093z"/></g><g transform="matrix(.707107 .707107 -.707107 .707107 345.159 412.838)" class="B"><use xlink:href="#B"/><path d="M47.13 62.063c3.3-.048 3.3 5.141 0 5.093-3.304.048-3.304-5.14 0-5.093zm0-15.515c3.3-.048 3.3 5.141 0 5.093-3.304.048-3.304-5.14 0-5.093zm0-15.516c3.3-.048 3.3 5.141 0 5.093-3.304.048-3.304-5.14 0-5.093zm0-15.516c3.3-.048 3.3 5.141 0 5.093-3.304.048-3.304-5.14 0-5.093zM47.13 0c3.3-.048 3.3 5.141 0 5.093-3.304.048-3.304-5.14 0-5.093zm14.721 77.579c3.3-.048 3.3 5.141 0 5.093-3.304.048-3.304-5.14 0-5.093zm0-15.516c3.3-.048 3.3 5.141 0 5.093-3.304.048-3.304-5.14 0-5.093zm0-15.515c3.3-.048 3.3 5.141 0 5.093-3.304.048-3.304-5.14 0-5.093zm0-15.516c3.3-.048 3.3 5.141 0 5.093-3.304.048-3.304-5.14 0-5.093zm0-15.516c3.3-.048 3.3 5.141 0 5.093-3.304.048-3.304-5.14 0-5.093zm0-15.516c3.3-.048 3.3 5.141 0 5.093-3.304.048-3.304-5.14 0-5.093zm14.72 77.579c3.3-.048 3.3 5.141 0 5.093-3.304.048-3.304-5.14 0-5.093zm0-15.516c3.3-.048 3.3 5.141 0 5.093-3.304.048-3.304-5.14 0-5.093zm0-15.515c3.3-.048 3.3 5.141 0 5.093-3.304.048-3.304-5.14 0-5.093zm0-15.516c3.3-.048 3.3 5.141 0 5.093-3.304.048-3.304-5.14 0-5.093zm0-15.516c3.3-.048 3.3 5.141 0 5.093-3.304.048-3.304-5.14 0-5.093zm0-15.516c3.3-.048 3.3 5.141 0 5.093-3.304.048-3.304-5.14 0-5.093zM2.478 77.579c3.3-.048 3.3 5.141 0 5.093-3.304.048-3.304-5.14 0-5.093zm0-15.516c3.3-.048 3.3 5.141 0 5.093-3.304.048-3.304-5.14 0-5.093zm0-15.515c3.3-.048 3.3 5.141 0 5.093-3.304.048-3.304-5.14 0-5.093zm0-15.516c3.3-.048 3.3 5.141 0 5.093-3.304.048-3.304-5.14 0-5.093zm0-15.516c3.3-.048 3.3 5.141 0 5.093-3.304.048-3.304-5.14 0-5.093zM2.478 0c3.3-.048 3.3 5.141 0 5.093-3.304.048-3.304-5.14 0-5.093zm14.721 77.579c3.3-.048 3.3 5.141 0 5.093-3.304.048-3.304-5.14 0-5.093zm0-15.516c3.3-.048 3.3 5.141 0 5.093-3.304.048-3.304-5.14 0-5.093zm0-15.515c3.3-.048 3.3 5.141 0 5.093-3.304.048-3.304-5.14 0-5.093zm0-15.516c3.3-.048 3.3 5.141 0 5.093-3.304.048-3.304-5.14 0-5.093zm0-15.516c3.3-.048 3.3 5.141 0 5.093-3.304.048-3.304-5.14 0-5.093zm0-15.516c3.3-.048 3.3 5.141 0 5.093-3.304.048-3.304-5.14 0-5.093zm14.72 77.579c3.3-.048 3.3 5.141 0 5.093-3.304.048-3.304-5.14 0-5.093zm0-15.516c3.3-.048 3.3 5.141 0 5.093-3.304.048-3.304-5.14 0-5.093zm0-15.515c3.3-.048 3.3 5.141 0 5.093-3.304.048-3.304-5.14 0-5.093zm0-15.516c3.3-.048 3.3 5.141 0 5.093-3.304.048-3.304-5.14 0-5.093zm0-15.516c3.3-.048 3.3 5.141 0 5.093-3.304.048-3.304-5.14 0-5.093zm0-15.516c3.3-.048 3.3 5.141 0 5.093-3.304.048-3.304-5.14 0-5.093z"/></g><g transform="matrix(.707107 .707107 -.707107 .707107 407.336 476.838)" class="B"><use xlink:href="#B"/><path d="M47.13 62.063c3.3-.048 3.3 5.141 0 5.093-3.304.048-3.304-5.14 0-5.093zm0-15.515c3.3-.048 3.3 5.141 0 5.093-3.304.048-3.304-5.14 0-5.093zm0-15.516c3.3-.048 3.3 5.141 0 5.093-3.304.048-3.304-5.14 0-5.093zm0-15.516c3.3-.048 3.3 5.141 0 5.093-3.304.048-3.304-5.14 0-5.093zM47.13 0c3.3-.048 3.3 5.141 0 5.093-3.304.048-3.304-5.14 0-5.093zm14.721 77.579c3.3-.048 3.3 5.141 0 5.093-3.304.048-3.304-5.14 0-5.093zm0-15.516c3.3-.048 3.3 5.141 0 5.093-3.304.048-3.304-5.14 0-5.093zm0-15.515c3.3-.048 3.3 5.141 0 5.093-3.304.048-3.304-5.14 0-5.093zm0-15.516c3.3-.048 3.3 5.141 0 5.093-3.304.048-3.304-5.14 0-5.093zm0-15.516c3.3-.048 3.3 5.141 0 5.093-3.304.048-3.304-5.14 0-5.093zm0-15.516c3.3-.048 3.3 5.141 0 5.093-3.304.048-3.304-5.14 0-5.093zm14.72 77.579c3.3-.048 3.3 5.141 0 5.093-3.304.048-3.304-5.14 0-5.093zm0-15.516c3.3-.048 3.3 5.141 0 5.093-3.304.048-3.304-5.14 0-5.093zm0-15.515c3.3-.048 3.3 5.141 0 5.093-3.304.048-3.304-5.14 0-5.093zm0-15.516c3.3-.048 3.3 5.141 0 5.093-3.304.048-3.304-5.14 0-5.093zm0-15.516c3.3-.048 3.3 5.141 0 5.093-3.304.048-3.304-5.14 0-5.093zm0-15.516c3.3-.048 3.3 5.141 0 5.093-3.304.048-3.304-5.14 0-5.093zM2.478 77.579c3.3-.048 3.3 5.141 0 5.093-3.304.048-3.304-5.14 0-5.093zm0-15.516c3.3-.048 3.3 5.141 0 5.093-3.304.048-3.304-5.14 0-5.093zm0-15.515c3.3-.048 3.3 5.141 0 5.093-3.304.048-3.304-5.14 0-5.093zm0-15.516c3.3-.048 3.3 5.141 0 5.093-3.304.048-3.304-5.14 0-5.093zm0-15.516c3.3-.048 3.3 5.141 0 5.093-3.304.048-3.304-5.14 0-5.093zM2.478 0c3.3-.048 3.3 5.141 0 5.093-3.304.048-3.304-5.14 0-5.093zm14.721 77.579c3.3-.048 3.3 5.141 0 5.093-3.304.048-3.304-5.14 0-5.093zm0-15.516c3.3-.048 3.3 5.141 0 5.093-3.304.048-3.304-5.14 0-5.093zm0-15.515c3.3-.048 3.3 5.141 0 5.093-3.304.048-3.304-5.14 0-5.093zm0-15.516c3.3-.048 3.3 5.141 0 5.093-3.304.048-3.304-5.14 0-5.093zm0-15.516c3.3-.048 3.3 5.141 0 5.093-3.304.048-3.304-5.14 0-5.093zm0-15.516c3.3-.048 3.3 5.141 0 5.093-3.304.048-3.304-5.14 0-5.093zm14.72 77.579c3.3-.048 3.3 5.141 0 5.093-3.304.048-3.304-5.14 0-5.093zm0-15.516c3.3-.048 3.3 5.141 0 5.093-3.304.048-3.304-5.14 0-5.093zm0-15.515c3.3-.048 3.3 5.141 0 5.093-3.304.048-3.304-5.14 0-5.093zm0-15.516c3.3-.048 3.3 5.141 0 5.093-3.304.048-3.304-5.14 0-5.093zm0-15.516c3.3-.048 3.3 5.141 0 5.093-3.304.048-3.304-5.14 0-5.093zm0-15.516c3.3-.048 3.3 5.141 0 5.093-3.304.048-3.304-5.14 0-5.093z"/></g><g transform="matrix(.707107 .707107 -.707107 .707107 481.159 286.324)" class="B"><use xlink:href="#B"/><path d="M47.13 62.063c3.3-.048 3.3 5.141 0 5.093-3.304.048-3.304-5.14 0-5.093zm0-15.515c3.3-.048 3.3 5.141 0 5.093-3.304.048-3.304-5.14 0-5.093zm0-15.516c3.3-.048 3.3 5.141 0 5.093-3.304.048-3.304-5.14 0-5.093zm0-15.516c3.3-.048 3.3 5.141 0 5.093-3.304.048-3.304-5.14 0-5.093zM47.13 0c3.3-.048 3.3 5.141 0 5.093-3.304.048-3.304-5.14 0-5.093zm14.721 77.579c3.3-.048 3.3 5.141 0 5.093-3.304.048-3.304-5.14 0-5.093zm0-15.516c3.3-.048 3.3 5.141 0 5.093-3.304.048-3.304-5.14 0-5.093zm0-15.515c3.3-.048 3.3 5.141 0 5.093-3.304.048-3.304-5.14 0-5.093zm0-15.516c3.3-.048 3.3 5.141 0 5.093-3.304.048-3.304-5.14 0-5.093zm0-15.516c3.3-.048 3.3 5.141 0 5.093-3.304.048-3.304-5.14 0-5.093zm0-15.516c3.3-.048 3.3 5.141 0 5.093-3.304.048-3.304-5.14 0-5.093zm14.72 77.579c3.3-.048 3.3 5.141 0 5.093-3.304.048-3.304-5.14 0-5.093zm0-15.516c3.3-.048 3.3 5.141 0 5.093-3.304.048-3.304-5.14 0-5.093zm0-15.515c3.3-.048 3.3 5.141 0 5.093-3.304.048-3.304-5.14 0-5.093zm0-15.516c3.3-.048 3.3 5.141 0 5.093-3.304.048-3.304-5.14 0-5.093zm0-15.516c3.3-.048 3.3 5.141 0 5.093-3.304.048-3.304-5.14 0-5.093zm0-15.516c3.3-.048 3.3 5.141 0 5.093-3.304.048-3.304-5.14 0-5.093zM2.478 77.579c3.3-.048 3.3 5.141 0 5.093-3.304.048-3.304-5.14 0-5.093zm0-15.516c3.3-.048 3.3 5.141 0 5.093-3.304.048-3.304-5.14 0-5.093zm0-15.515c3.3-.048 3.3 5.141 0 5.093-3.304.048-3.304-5.14 0-5.093zm0-15.516c3.3-.048 3.3 5.141 0 5.093-3.304.048-3.304-5.14 0-5.093zm0-15.516c3.3-.048 3.3 5.141 0 5.093-3.304.048-3.304-5.14 0-5.093zM2.478 0c3.3-.048 3.3 5.141 0 5.093-3.304.048-3.304-5.14 0-5.093zm14.721 77.579c3.3-.048 3.3 5.141 0 5.093-3.304.048-3.304-5.14 0-5.093zm0-15.516c3.3-.048 3.3 5.141 0 5.093-3.304.048-3.304-5.14 0-5.093zm0-15.515c3.3-.048 3.3 5.141 0 5.093-3.304.048-3.304-5.14 0-5.093zm0-15.516c3.3-.048 3.3 5.141 0 5.093-3.304.048-3.304-5.14 0-5.093zm0-15.516c3.3-.048 3.3 5.141 0 5.093-3.304.048-3.304-5.14 0-5.093zm0-15.516c3.3-.048 3.3 5.141 0 5.093-3.304.048-3.304-5.14 0-5.093zm14.72 77.579c3.3-.048 3.3 5.141 0 5.093-3.304.048-3.304-5.14 0-5.093zm0-15.516c3.3-.048 3.3 5.141 0 5.093-3.304.048-3.304-5.14 0-5.093zm0-15.515c3.3-.048 3.3 5.141 0 5.093-3.304.048-3.304-5.14 0-5.093zm0-15.516c3.3-.048 3.3 5.141 0 5.093-3.304.048-3.304-5.14 0-5.093zm0-15.516c3.3-.048 3.3 5.141 0 5.093-3.304.048-3.304-5.14 0-5.093zm0-15.516c3.3-.048 3.3 5.141 0 5.093-3.304.048-3.304-5.14 0-5.093z"/></g><g transform="matrix(.707107 .707107 -.707107 .707107 283.159 349.581)" class="B"><use xlink:href="#B"/><path d="M47.13 62.063c3.3-.048 3.3 5.141 0 5.093-3.304.048-3.304-5.14 0-5.093zm0-15.515c3.3-.048 3.3 5.141 0 5.093-3.304.048-3.304-5.14 0-5.093zm0-15.516c3.3-.048 3.3 5.141 0 5.093-3.304.048-3.304-5.14 0-5.093zm0-15.516c3.3-.048 3.3 5.141 0 5.093-3.304.048-3.304-5.14 0-5.093zM47.13 0c3.3-.048 3.3 5.141 0 5.093-3.304.048-3.304-5.14 0-5.093zm14.721 77.579c3.3-.048 3.3 5.141 0 5.093-3.304.048-3.304-5.14 0-5.093zm0-15.516c3.3-.048 3.3 5.141 0 5.093-3.304.048-3.304-5.14 0-5.093zm0-15.515c3.3-.048 3.3 5.141 0 5.093-3.304.048-3.304-5.14 0-5.093zm0-15.516c3.3-.048 3.3 5.141 0 5.093-3.304.048-3.304-5.14 0-5.093zm0-15.516c3.3-.048 3.3 5.141 0 5.093-3.304.048-3.304-5.14 0-5.093zm0-15.516c3.3-.048 3.3 5.141 0 5.093-3.304.048-3.304-5.14 0-5.093zm14.72 77.579c3.3-.048 3.3 5.141 0 5.093-3.304.048-3.304-5.14 0-5.093zm0-15.516c3.3-.048 3.3 5.141 0 5.093-3.304.048-3.304-5.14 0-5.093zm0-15.515c3.3-.048 3.3 5.141 0 5.093-3.304.048-3.304-5.14 0-5.093zm0-15.516c3.3-.048 3.3 5.141 0 5.093-3.304.048-3.304-5.14 0-5.093zm0-15.516c3.3-.048 3.3 5.141 0 5.093-3.304.048-3.304-5.14 0-5.093zm0-15.516c3.3-.048 3.3 5.141 0 5.093-3.304.048-3.304-5.14 0-5.093zM2.478 77.579c3.3-.048 3.3 5.141 0 5.093-3.304.048-3.304-5.14 0-5.093zm0-15.516c3.3-.048 3.3 5.141 0 5.093-3.304.048-3.304-5.14 0-5.093zm0-15.515c3.3-.048 3.3 5.141 0 5.093-3.304.048-3.304-5.14 0-5.093zm0-15.516c3.3-.048 3.3 5.141 0 5.093-3.304.048-3.304-5.14 0-5.093zm0-15.516c3.3-.048 3.3 5.141 0 5.093-3.304.048-3.304-5.14 0-5.093zM2.478 0c3.3-.048 3.3 5.141 0 5.093-3.304.048-3.304-5.14 0-5.093zm14.721 77.579c3.3-.048 3.3 5.141 0 5.093-3.304.048-3.304-5.14 0-5.093zm0-15.516c3.3-.048 3.3 5.141 0 5.093-3.304.048-3.304-5.14 0-5.093zm0-15.515c3.3-.048 3.3 5.141 0 5.093-3.304.048-3.304-5.14 0-5.093zm0-15.516c3.3-.048 3.3 5.141 0 5.093-3.304.048-3.304-5.14 0-5.093zm0-15.516c3.3-.048 3.3 5.141 0 5.093-3.304.048-3.304-5.14 0-5.093zm0-15.516c3.3-.048 3.3 5.141 0 5.093-3.304.048-3.304-5.14 0-5.093zm14.72 77.579c3.3-.048 3.3 5.141 0 5.093-3.304.048-3.304-5.14 0-5.093zm0-15.516c3.3-.048 3.3 5.141 0 5.093-3.304.048-3.304-5.14 0-5.093zm0-15.515c3.3-.048 3.3 5.141 0 5.093-3.304.048-3.304-5.14 0-5.093zm0-15.516c3.3-.048 3.3 5.141 0 5.093-3.304.048-3.304-5.14 0-5.093zm0-15.516c3.3-.048 3.3 5.141 0 5.093-3.304.048-3.304-5.14 0-5.093zm0-15.516c3.3-.048 3.3 5.141 0 5.093-3.304.048-3.304-5.14 0-5.093z"/></g><g transform="matrix(.707107 .707107 -.707107 .707107 477.159 412.838)" class="B"><use xlink:href="#B"/><path d="M47.13 62.063c3.3-.048 3.3 5.141 0 5.093-3.304.048-3.304-5.14 0-5.093zm0-15.515c3.3-.048 3.3 5.141 0 5.093-3.304.048-3.304-5.14 0-5.093zm0-15.516c3.3-.048 3.3 5.141 0 5.093-3.304.048-3.304-5.14 0-5.093zm0-15.516c3.3-.048 3.3 5.141 0 5.093-3.304.048-3.304-5.14 0-5.093zM47.13 0c3.3-.048 3.3 5.141 0 5.093-3.304.048-3.304-5.14 0-5.093zm14.721 77.579c3.3-.048 3.3 5.141 0 5.093-3.304.048-3.304-5.14 0-5.093zm0-15.516c3.3-.048 3.3 5.141 0 5.093-3.304.048-3.304-5.14 0-5.093zm0-15.515c3.3-.048 3.3 5.141 0 5.093-3.304.048-3.304-5.14 0-5.093zm0-15.516c3.3-.048 3.3 5.141 0 5.093-3.304.048-3.304-5.14 0-5.093zm0-15.516c3.3-.048 3.3 5.141 0 5.093-3.304.048-3.304-5.14 0-5.093zm0-15.516c3.3-.048 3.3 5.141 0 5.093-3.304.048-3.304-5.14 0-5.093zm14.72 77.579c3.3-.048 3.3 5.141 0 5.093-3.304.048-3.304-5.14 0-5.093zm0-15.516c3.3-.048 3.3 5.141 0 5.093-3.304.048-3.304-5.14 0-5.093zm0-15.515c3.3-.048 3.3 5.141 0 5.093-3.304.048-3.304-5.14 0-5.093zm0-15.516c3.3-.048 3.3 5.141 0 5.093-3.304.048-3.304-5.14 0-5.093zm0-15.516c3.3-.048 3.3 5.141 0 5.093-3.304.048-3.304-5.14 0-5.093zm0-15.516c3.3-.048 3.3 5.141 0 5.093-3.304.048-3.304-5.14 0-5.093zM2.478 77.579c3.3-.048 3.3 5.141 0 5.093-3.304.048-3.304-5.14 0-5.093zm0-15.516c3.3-.048 3.3 5.141 0 5.093-3.304.048-3.304-5.14 0-5.093zm0-15.515c3.3-.048 3.3 5.141 0 5.093-3.304.048-3.304-5.14 0-5.093zm0-15.516c3.3-.048 3.3 5.141 0 5.093-3.304.048-3.304-5.14 0-5.093zm0-15.516c3.3-.048 3.3 5.141 0 5.093-3.304.048-3.304-5.14 0-5.093zM2.478 0c3.3-.048 3.3 5.141 0 5.093-3.304.048-3.304-5.14 0-5.093zm14.721 77.579c3.3-.048 3.3 5.141 0 5.093-3.304.048-3.304-5.14 0-5.093zm0-15.516c3.3-.048 3.3 5.141 0 5.093-3.304.048-3.304-5.14 0-5.093zm0-15.515c3.3-.048 3.3 5.141 0 5.093-3.304.048-3.304-5.14 0-5.093zm0-15.516c3.3-.048 3.3 5.141 0 5.093-3.304.048-3.304-5.14 0-5.093zm0-15.516c3.3-.048 3.3 5.141 0 5.093-3.304.048-3.304-5.14 0-5.093zm0-15.516c3.3-.048 3.3 5.141 0 5.093-3.304.048-3.304-5.14 0-5.093zm14.72 77.579c3.3-.048 3.3 5.141 0 5.093-3.304.048-3.304-5.14 0-5.093zm0-15.516c3.3-.048 3.3 5.141 0 5.093-3.304.048-3.304-5.14 0-5.093zm0-15.515c3.3-.048 3.3 5.141 0 5.093-3.304.048-3.304-5.14 0-5.093zm0-15.516c3.3-.048 3.3 5.141 0 5.093-3.304.048-3.304-5.14 0-5.093zm0-15.516c3.3-.048 3.3 5.141 0 5.093-3.304.048-3.304-5.14 0-5.093zm0-15.516c3.3-.048 3.3 5.141 0 5.093-3.304.048-3.304-5.14 0-5.093z"/></g><g transform="matrix(.707107 .707107 -.707107 .707107 350.159 286.324)" class="B"><use xlink:href="#B"/><path d="M47.13 62.063c3.3-.048 3.3 5.141 0 5.093-3.304.048-3.304-5.14 0-5.093zm0-15.515c3.3-.048 3.3 5.141 0 5.093-3.304.048-3.304-5.14 0-5.093zm0-15.516c3.3-.048 3.3 5.141 0 5.093-3.304.048-3.304-5.14 0-5.093zm0-15.516c3.3-.048 3.3 5.141 0 5.093-3.304.048-3.304-5.14 0-5.093zM47.13 0c3.3-.048 3.3 5.141 0 5.093-3.304.048-3.304-5.14 0-5.093zm14.721 77.579c3.3-.048 3.3 5.141 0 5.093-3.304.048-3.304-5.14 0-5.093zm0-15.516c3.3-.048 3.3 5.141 0 5.093-3.304.048-3.304-5.14 0-5.093zm0-15.515c3.3-.048 3.3 5.141 0 5.093-3.304.048-3.304-5.14 0-5.093zm0-15.516c3.3-.048 3.3 5.141 0 5.093-3.304.048-3.304-5.14 0-5.093zm0-15.516c3.3-.048 3.3 5.141 0 5.093-3.304.048-3.304-5.14 0-5.093zm0-15.516c3.3-.048 3.3 5.141 0 5.093-3.304.048-3.304-5.14 0-5.093zm14.72 77.579c3.3-.048 3.3 5.141 0 5.093-3.304.048-3.304-5.14 0-5.093zm0-15.516c3.3-.048 3.3 5.141 0 5.093-3.304.048-3.304-5.14 0-5.093zm0-15.515c3.3-.048 3.3 5.141 0 5.093-3.304.048-3.304-5.14 0-5.093zm0-15.516c3.3-.048 3.3 5.141 0 5.093-3.304.048-3.304-5.14 0-5.093zm0-15.516c3.3-.048 3.3 5.141 0 5.093-3.304.048-3.304-5.14 0-5.093zm0-15.516c3.3-.048 3.3 5.141 0 5.093-3.304.048-3.304-5.14 0-5.093zM2.478 77.579c3.3-.048 3.3 5.141 0 5.093-3.304.048-3.304-5.14 0-5.093zm0-15.516c3.3-.048 3.3 5.141 0 5.093-3.304.048-3.304-5.14 0-5.093zm0-15.515c3.3-.048 3.3 5.141 0 5.093-3.304.048-3.304-5.14 0-5.093zm0-15.516c3.3-.048 3.3 5.141 0 5.093-3.304.048-3.304-5.14 0-5.093zm0-15.516c3.3-.048 3.3 5.141 0 5.093-3.304.048-3.304-5.14 0-5.093zM2.478 0c3.3-.048 3.3 5.141 0 5.093-3.304.048-3.304-5.14 0-5.093zm14.721 77.579c3.3-.048 3.3 5.141 0 5.093-3.304.048-3.304-5.14 0-5.093zm0-15.516c3.3-.048 3.3 5.141 0 5.093-3.304.048-3.304-5.14 0-5.093zm0-15.515c3.3-.048 3.3 5.141 0 5.093-3.304.048-3.304-5.14 0-5.093zm0-15.516c3.3-.048 3.3 5.141 0 5.093-3.304.048-3.304-5.14 0-5.093zm0-15.516c3.3-.048 3.3 5.141 0 5.093-3.304.048-3.304-5.14 0-5.093zm0-15.516c3.3-.048 3.3 5.141 0 5.093-3.304.048-3.304-5.14 0-5.093zm14.72 77.579c3.3-.048 3.3 5.141 0 5.093-3.304.048-3.304-5.14 0-5.093zm0-15.516c3.3-.048 3.3 5.141 0 5.093-3.304.048-3.304-5.14 0-5.093zm0-15.515c3.3-.048 3.3 5.141 0 5.093-3.304.048-3.304-5.14 0-5.093zm0-15.516c3.3-.048 3.3 5.141 0 5.093-3.304.048-3.304-5.14 0-5.093zm0-15.516c3.3-.048 3.3 5.141 0 5.093-3.304.048-3.304-5.14 0-5.093zm0-15.516c3.3-.048 3.3 5.141 0 5.093-3.304.048-3.304-5.14 0-5.093z"/></g><g transform="matrix(.707107 .707107 -.707107 .707107 544.159 349.581)" class="B"><use xlink:href="#B"/><path d="M47.13 62.063c3.3-.048 3.3 5.141 0 5.093-3.304.048-3.304-5.14 0-5.093zm0-15.515c3.3-.048 3.3 5.141 0 5.093-3.304.048-3.304-5.14 0-5.093zm0-15.516c3.3-.048 3.3 5.141 0 5.093-3.304.048-3.304-5.14 0-5.093zm0-15.516c3.3-.048 3.3 5.141 0 5.093-3.304.048-3.304-5.14 0-5.093zM47.13 0c3.3-.048 3.3 5.141 0 5.093-3.304.048-3.304-5.14 0-5.093zm14.721 77.579c3.3-.048 3.3 5.141 0 5.093-3.304.048-3.304-5.14 0-5.093zm0-15.516c3.3-.048 3.3 5.141 0 5.093-3.304.048-3.304-5.14 0-5.093zm0-15.515c3.3-.048 3.3 5.141 0 5.093-3.304.048-3.304-5.14 0-5.093zm0-15.516c3.3-.048 3.3 5.141 0 5.093-3.304.048-3.304-5.14 0-5.093zm0-15.516c3.3-.048 3.3 5.141 0 5.093-3.304.048-3.304-5.14 0-5.093zm0-15.516c3.3-.048 3.3 5.141 0 5.093-3.304.048-3.304-5.14 0-5.093zm14.72 77.579c3.3-.048 3.3 5.141 0 5.093-3.304.048-3.304-5.14 0-5.093zm0-15.516c3.3-.048 3.3 5.141 0 5.093-3.304.048-3.304-5.14 0-5.093zm0-15.515c3.3-.048 3.3 5.141 0 5.093-3.304.048-3.304-5.14 0-5.093zm0-15.516c3.3-.048 3.3 5.141 0 5.093-3.304.048-3.304-5.14 0-5.093zm0-15.516c3.3-.048 3.3 5.141 0 5.093-3.304.048-3.304-5.14 0-5.093zm0-15.516c3.3-.048 3.3 5.141 0 5.093-3.304.048-3.304-5.14 0-5.093zM2.478 77.579c3.3-.048 3.3 5.141 0 5.093-3.304.048-3.304-5.14 0-5.093zm0-15.516c3.3-.048 3.3 5.141 0 5.093-3.304.048-3.304-5.14 0-5.093zm0-15.515c3.3-.048 3.3 5.141 0 5.093-3.304.048-3.304-5.14 0-5.093zm0-15.516c3.3-.048 3.3 5.141 0 5.093-3.304.048-3.304-5.14 0-5.093zm0-15.516c3.3-.048 3.3 5.141 0 5.093-3.304.048-3.304-5.14 0-5.093zM2.478 0c3.3-.048 3.3 5.141 0 5.093-3.304.048-3.304-5.14 0-5.093zm14.721 77.579c3.3-.048 3.3 5.141 0 5.093-3.304.048-3.304-5.14 0-5.093zm0-15.516c3.3-.048 3.3 5.141 0 5.093-3.304.048-3.304-5.14 0-5.093zm0-15.515c3.3-.048 3.3 5.141 0 5.093-3.304.048-3.304-5.14 0-5.093zm0-15.516c3.3-.048 3.3 5.141 0 5.093-3.304.048-3.304-5.14 0-5.093zm0-15.516c3.3-.048 3.3 5.141 0 5.093-3.304.048-3.304-5.14 0-5.093zm0-15.516c3.3-.048 3.3 5.141 0 5.093-3.304.048-3.304-5.14 0-5.093zm14.72 77.579c3.3-.048 3.3 5.141 0 5.093-3.304.048-3.304-5.14 0-5.093zm0-15.516c3.3-.048 3.3 5.141 0 5.093-3.304.048-3.304-5.14 0-5.093zm0-15.515c3.3-.048 3.3 5.141 0 5.093-3.304.048-3.304-5.14 0-5.093zm0-15.516c3.3-.048 3.3 5.141 0 5.093-3.304.048-3.304-5.14 0-5.093zm0-15.516c3.3-.048 3.3 5.141 0 5.093-3.304.048-3.304-5.14 0-5.093zm0-15.516c3.3-.048 3.3 5.141 0 5.093-3.304.048-3.304-5.14 0-5.093z"/></g><g transform="matrix(.707107 .707107 -.707107 .707107 584.159 432.581)" class="B"><use xlink:href="#B"/><path d="M47.13 62.063c3.3-.048 3.3 5.141 0 5.093-3.304.048-3.304-5.14 0-5.093zm0-15.515c3.3-.048 3.3 5.141 0 5.093-3.304.048-3.304-5.14 0-5.093zm0-15.516c3.3-.048 3.3 5.141 0 5.093-3.304.048-3.304-5.14 0-5.093zm0-15.516c3.3-.048 3.3 5.141 0 5.093-3.304.048-3.304-5.14 0-5.093zM47.13 0c3.3-.048 3.3 5.141 0 5.093-3.304.048-3.304-5.14 0-5.093zm14.721 77.579c3.3-.048 3.3 5.141 0 5.093-3.304.048-3.304-5.14 0-5.093zm0-15.516c3.3-.048 3.3 5.141 0 5.093-3.304.048-3.304-5.14 0-5.093zm0-15.515c3.3-.048 3.3 5.141 0 5.093-3.304.048-3.304-5.14 0-5.093zm0-15.516c3.3-.048 3.3 5.141 0 5.093-3.304.048-3.304-5.14 0-5.093zm0-15.516c3.3-.048 3.3 5.141 0 5.093-3.304.048-3.304-5.14 0-5.093zm0-15.516c3.3-.048 3.3 5.141 0 5.093-3.304.048-3.304-5.14 0-5.093zm14.72 77.579c3.3-.048 3.3 5.141 0 5.093-3.304.048-3.304-5.14 0-5.093zm0-15.516c3.3-.048 3.3 5.141 0 5.093-3.304.048-3.304-5.14 0-5.093zm0-15.515c3.3-.048 3.3 5.141 0 5.093-3.304.048-3.304-5.14 0-5.093zm0-15.516c3.3-.048 3.3 5.141 0 5.093-3.304.048-3.304-5.14 0-5.093zm0-15.516c3.3-.048 3.3 5.141 0 5.093-3.304.048-3.304-5.14 0-5.093zm0-15.516c3.3-.048 3.3 5.141 0 5.093-3.304.048-3.304-5.14 0-5.093zM2.478 77.579c3.3-.048 3.3 5.141 0 5.093-3.304.048-3.304-5.14 0-5.093zm0-15.516c3.3-.048 3.3 5.141 0 5.093-3.304.048-3.304-5.14 0-5.093zm0-15.515c3.3-.048 3.3 5.141 0 5.093-3.304.048-3.304-5.14 0-5.093zm0-15.516c3.3-.048 3.3 5.141 0 5.093-3.304.048-3.304-5.14 0-5.093zm0-15.516c3.3-.048 3.3 5.141 0 5.093-3.304.048-3.304-5.14 0-5.093zM2.478 0c3.3-.048 3.3 5.141 0 5.093-3.304.048-3.304-5.14 0-5.093zm14.721 77.579c3.3-.048 3.3 5.141 0 5.093-3.304.048-3.304-5.14 0-5.093zm0-15.516c3.3-.048 3.3 5.141 0 5.093-3.304.048-3.304-5.14 0-5.093zm0-15.515c3.3-.048 3.3 5.141 0 5.093-3.304.048-3.304-5.14 0-5.093zm0-15.516c3.3-.048 3.3 5.141 0 5.093-3.304.048-3.304-5.14 0-5.093zm0-15.516c3.3-.048 3.3 5.141 0 5.093-3.304.048-3.304-5.14 0-5.093zm0-15.516c3.3-.048 3.3 5.141 0 5.093-3.304.048-3.304-5.14 0-5.093zm14.72 77.579c3.3-.048 3.3 5.141 0 5.093-3.304.048-3.304-5.14 0-5.093zm0-15.516c3.3-.048 3.3 5.141 0 5.093-3.304.048-3.304-5.14 0-5.093zm0-15.515c3.3-.048 3.3 5.141 0 5.093-3.304.048-3.304-5.14 0-5.093zm0-15.516c3.3-.048 3.3 5.141 0 5.093-3.304.048-3.304-5.14 0-5.093zm0-15.516c3.3-.048 3.3 5.141 0 5.093-3.304.048-3.304-5.14 0-5.093zm0-15.516c3.3-.048 3.3 5.141 0 5.093-3.304.048-3.304-5.14 0-5.093z"/></g></g><g opacity=".3" class="C"><g transform="matrix(.707107 .707107 -.707107 .707107 -81.951 70.049)" class="B"><use xlink:href="#B"/><path d="M47.13 62.063c3.3-.048 3.3 5.141 0 5.093-3.304.048-3.304-5.14 0-5.093zm0-15.515c3.3-.048 3.3 5.141 0 5.093-3.304.048-3.304-5.14 0-5.093zm0-15.516c3.3-.048 3.3 5.141 0 5.093-3.304.048-3.304-5.14 0-5.093zm0-15.516c3.3-.048 3.3 5.141 0 5.093-3.304.048-3.304-5.14 0-5.093zM47.13 0c3.3-.048 3.3 5.141 0 5.093-3.304.048-3.304-5.14 0-5.093zm14.721 77.579c3.3-.048 3.3 5.141 0 5.093-3.304.048-3.304-5.14 0-5.093zm0-15.516c3.3-.048 3.3 5.141 0 5.093-3.304.048-3.304-5.14 0-5.093zm0-15.515c3.3-.048 3.3 5.141 0 5.093-3.304.048-3.304-5.14 0-5.093zm0-15.516c3.3-.048 3.3 5.141 0 5.093-3.304.048-3.304-5.14 0-5.093zm0-15.516c3.3-.048 3.3 5.141 0 5.093-3.304.048-3.304-5.14 0-5.093zm0-15.516c3.3-.048 3.3 5.141 0 5.093-3.304.048-3.304-5.14 0-5.093zm14.72 77.579c3.3-.048 3.3 5.141 0 5.093-3.304.048-3.304-5.14 0-5.093zm0-15.516c3.3-.048 3.3 5.141 0 5.093-3.304.048-3.304-5.14 0-5.093zm0-15.515c3.3-.048 3.3 5.141 0 5.093-3.304.048-3.304-5.14 0-5.093zm0-15.516c3.3-.048 3.3 5.141 0 5.093-3.304.048-3.304-5.14 0-5.093zm0-15.516c3.3-.048 3.3 5.141 0 5.093-3.304.048-3.304-5.14 0-5.093zm0-15.516c3.3-.048 3.3 5.141 0 5.093-3.304.048-3.304-5.14 0-5.093zM2.478 77.579c3.3-.048 3.3 5.141 0 5.093-3.304.048-3.304-5.14 0-5.093zm0-15.516c3.3-.048 3.3 5.141 0 5.093-3.304.048-3.304-5.14 0-5.093zm0-15.515c3.3-.048 3.3 5.141 0 5.093-3.304.048-3.304-5.14 0-5.093zm0-15.516c3.3-.048 3.3 5.141 0 5.093-3.304.048-3.304-5.14 0-5.093zm0-15.516c3.3-.048 3.3 5.141 0 5.093-3.304.048-3.304-5.14 0-5.093zM2.478 0c3.3-.048 3.3 5.141 0 5.093-3.304.048-3.304-5.14 0-5.093zm14.721 77.579c3.3-.048 3.3 5.141 0 5.093-3.304.048-3.304-5.14 0-5.093zm0-15.516c3.3-.048 3.3 5.141 0 5.093-3.304.048-3.304-5.14 0-5.093zm0-15.515c3.3-.048 3.3 5.141 0 5.093-3.304.048-3.304-5.14 0-5.093zm0-15.516c3.3-.048 3.3 5.141 0 5.093-3.304.048-3.304-5.14 0-5.093zm0-15.516c3.3-.048 3.3 5.141 0 5.093-3.304.048-3.304-5.14 0-5.093zm0-15.516c3.3-.048 3.3 5.141 0 5.093-3.304.048-3.304-5.14 0-5.093zm14.72 77.579c3.3-.048 3.3 5.141 0 5.093-3.304.048-3.304-5.14 0-5.093zm0-15.516c3.3-.048 3.3 5.141 0 5.093-3.304.048-3.304-5.14 0-5.093zm0-15.515c3.3-.048 3.3 5.141 0 5.093-3.304.048-3.304-5.14 0-5.093zm0-15.516c3.3-.048 3.3 5.141 0 5.093-3.304.048-3.304-5.14 0-5.093zm0-15.516c3.3-.048 3.3 5.141 0 5.093-3.304.048-3.304-5.14 0-5.093zm0-15.516c3.3-.048 3.3 5.141 0 5.093-3.304.048-3.304-5.14 0-5.093z"/></g><g transform="matrix(.707107 .707107 -.707107 .707107 112.049 133.306)" class="B"><use xlink:href="#B"/><path d="M47.13 62.063c3.3-.048 3.3 5.141 0 5.093-3.304.048-3.304-5.14 0-5.093zm0-15.515c3.3-.048 3.3 5.141 0 5.093-3.304.048-3.304-5.14 0-5.093zm0-15.516c3.3-.048 3.3 5.141 0 5.093-3.304.048-3.304-5.14 0-5.093zm0-15.516c3.3-.048 3.3 5.141 0 5.093-3.304.048-3.304-5.14 0-5.093zM47.13 0c3.3-.048 3.3 5.141 0 5.093-3.304.048-3.304-5.14 0-5.093zm14.721 77.579c3.3-.048 3.3 5.141 0 5.093-3.304.048-3.304-5.14 0-5.093zm0-15.516c3.3-.048 3.3 5.141 0 5.093-3.304.048-3.304-5.14 0-5.093zm0-15.515c3.3-.048 3.3 5.141 0 5.093-3.304.048-3.304-5.14 0-5.093zm0-15.516c3.3-.048 3.3 5.141 0 5.093-3.304.048-3.304-5.14 0-5.093zm0-15.516c3.3-.048 3.3 5.141 0 5.093-3.304.048-3.304-5.14 0-5.093zm0-15.516c3.3-.048 3.3 5.141 0 5.093-3.304.048-3.304-5.14 0-5.093zm14.72 77.579c3.3-.048 3.3 5.141 0 5.093-3.304.048-3.304-5.14 0-5.093zm0-15.516c3.3-.048 3.3 5.141 0 5.093-3.304.048-3.304-5.14 0-5.093zm0-15.515c3.3-.048 3.3 5.141 0 5.093-3.304.048-3.304-5.14 0-5.093zm0-15.516c3.3-.048 3.3 5.141 0 5.093-3.304.048-3.304-5.14 0-5.093zm0-15.516c3.3-.048 3.3 5.141 0 5.093-3.304.048-3.304-5.14 0-5.093zm0-15.516c3.3-.048 3.3 5.141 0 5.093-3.304.048-3.304-5.14 0-5.093zM2.478 77.579c3.3-.048 3.3 5.141 0 5.093-3.304.048-3.304-5.14 0-5.093zm0-15.516c3.3-.048 3.3 5.141 0 5.093-3.304.048-3.304-5.14 0-5.093zm0-15.515c3.3-.048 3.3 5.141 0 5.093-3.304.048-3.304-5.14 0-5.093zm0-15.516c3.3-.048 3.3 5.141 0 5.093-3.304.048-3.304-5.14 0-5.093zm0-15.516c3.3-.048 3.3 5.141 0 5.093-3.304.048-3.304-5.14 0-5.093zM2.478 0c3.3-.048 3.3 5.141 0 5.093-3.304.048-3.304-5.14 0-5.093zm14.721 77.579c3.3-.048 3.3 5.141 0 5.093-3.304.048-3.304-5.14 0-5.093zm0-15.516c3.3-.048 3.3 5.141 0 5.093-3.304.048-3.304-5.14 0-5.093zm0-15.515c3.3-.048 3.3 5.141 0 5.093-3.304.048-3.304-5.14 0-5.093zm0-15.516c3.3-.048 3.3 5.141 0 5.093-3.304.048-3.304-5.14 0-5.093zm0-15.516c3.3-.048 3.3 5.141 0 5.093-3.304.048-3.304-5.14 0-5.093zm0-15.516c3.3-.048 3.3 5.141 0 5.093-3.304.048-3.304-5.14 0-5.093zm14.72 77.579c3.3-.048 3.3 5.141 0 5.093-3.304.048-3.304-5.14 0-5.093zm0-15.516c3.3-.048 3.3 5.141 0 5.093-3.304.048-3.304-5.14 0-5.093zm0-15.515c3.3-.048 3.3 5.141 0 5.093-3.304.048-3.304-5.14 0-5.093zm0-15.516c3.3-.048 3.3 5.141 0 5.093-3.304.048-3.304-5.14 0-5.093zm0-15.516c3.3-.048 3.3 5.141 0 5.093-3.304.048-3.304-5.14 0-5.093zm0-15.516c3.3-.048 3.3 5.141 0 5.093-3.304.048-3.304-5.14 0-5.093z"/></g><g transform="matrix(.707107 .707107 -.707107 .707107 180.049 70.049)" class="B"><use xlink:href="#B"/><path d="M47.13 62.063c3.3-.048 3.3 5.141 0 5.093-3.304.048-3.304-5.14 0-5.093zm0-15.515c3.3-.048 3.3 5.141 0 5.093-3.304.048-3.304-5.14 0-5.093zm0-15.516c3.3-.048 3.3 5.141 0 5.093-3.304.048-3.304-5.14 0-5.093zm0-15.516c3.3-.048 3.3 5.141 0 5.093-3.304.048-3.304-5.14 0-5.093zM47.13 0c3.3-.048 3.3 5.141 0 5.093-3.304.048-3.304-5.14 0-5.093zm14.721 77.579c3.3-.048 3.3 5.141 0 5.093-3.304.048-3.304-5.14 0-5.093zm0-15.516c3.3-.048 3.3 5.141 0 5.093-3.304.048-3.304-5.14 0-5.093zm0-15.515c3.3-.048 3.3 5.141 0 5.093-3.304.048-3.304-5.14 0-5.093zm0-15.516c3.3-.048 3.3 5.141 0 5.093-3.304.048-3.304-5.14 0-5.093zm0-15.516c3.3-.048 3.3 5.141 0 5.093-3.304.048-3.304-5.14 0-5.093zm0-15.516c3.3-.048 3.3 5.141 0 5.093-3.304.048-3.304-5.14 0-5.093zm14.72 77.579c3.3-.048 3.3 5.141 0 5.093-3.304.048-3.304-5.14 0-5.093zm0-15.516c3.3-.048 3.3 5.141 0 5.093-3.304.048-3.304-5.14 0-5.093zm0-15.515c3.3-.048 3.3 5.141 0 5.093-3.304.048-3.304-5.14 0-5.093zm0-15.516c3.3-.048 3.3 5.141 0 5.093-3.304.048-3.304-5.14 0-5.093zm0-15.516c3.3-.048 3.3 5.141 0 5.093-3.304.048-3.304-5.14 0-5.093zm0-15.516c3.3-.048 3.3 5.141 0 5.093-3.304.048-3.304-5.14 0-5.093zM2.478 77.579c3.3-.048 3.3 5.141 0 5.093-3.304.048-3.304-5.14 0-5.093zm0-15.516c3.3-.048 3.3 5.141 0 5.093-3.304.048-3.304-5.14 0-5.093zm0-15.515c3.3-.048 3.3 5.141 0 5.093-3.304.048-3.304-5.14 0-5.093zm0-15.516c3.3-.048 3.3 5.141 0 5.093-3.304.048-3.304-5.14 0-5.093zm0-15.516c3.3-.048 3.3 5.141 0 5.093-3.304.048-3.304-5.14 0-5.093zM2.478 0c3.3-.048 3.3 5.141 0 5.093-3.304.048-3.304-5.14 0-5.093zm14.721 77.579c3.3-.048 3.3 5.141 0 5.093-3.304.048-3.304-5.14 0-5.093zm0-15.516c3.3-.048 3.3 5.141 0 5.093-3.304.048-3.304-5.14 0-5.093zm0-15.515c3.3-.048 3.3 5.141 0 5.093-3.304.048-3.304-5.14 0-5.093zm0-15.516c3.3-.048 3.3 5.141 0 5.093-3.304.048-3.304-5.14 0-5.093zm0-15.516c3.3-.048 3.3 5.141 0 5.093-3.304.048-3.304-5.14 0-5.093zm0-15.516c3.3-.048 3.3 5.141 0 5.093-3.304.048-3.304-5.14 0-5.093zm14.72 77.579c3.3-.048 3.3 5.141 0 5.093-3.304.048-3.304-5.14 0-5.093zm0-15.516c3.3-.048 3.3 5.141 0 5.093-3.304.048-3.304-5.14 0-5.093zm0-15.515c3.3-.048 3.3 5.141 0 5.093-3.304.048-3.304-5.14 0-5.093zm0-15.516c3.3-.048 3.3 5.141 0 5.093-3.304.048-3.304-5.14 0-5.093zm0-15.516c3.3-.048 3.3 5.141 0 5.093-3.304.048-3.304-5.14 0-5.093zm0-15.516c3.3-.048 3.3 5.141 0 5.093-3.304.048-3.304-5.14 0-5.093z"/></g><g transform="matrix(.707107 .707107 -.707107 .707107 -17.951 133.306)" class="B"><use xlink:href="#B"/><path d="M47.13 62.063c3.3-.048 3.3 5.141 0 5.093-3.304.048-3.304-5.14 0-5.093zm0-15.515c3.3-.048 3.3 5.141 0 5.093-3.304.048-3.304-5.14 0-5.093zm0-15.516c3.3-.048 3.3 5.141 0 5.093-3.304.048-3.304-5.14 0-5.093zm0-15.516c3.3-.048 3.3 5.141 0 5.093-3.304.048-3.304-5.14 0-5.093zM47.13 0c3.3-.048 3.3 5.141 0 5.093-3.304.048-3.304-5.14 0-5.093zm14.721 77.579c3.3-.048 3.3 5.141 0 5.093-3.304.048-3.304-5.14 0-5.093zm0-15.516c3.3-.048 3.3 5.141 0 5.093-3.304.048-3.304-5.14 0-5.093zm0-15.515c3.3-.048 3.3 5.141 0 5.093-3.304.048-3.304-5.14 0-5.093zm0-15.516c3.3-.048 3.3 5.141 0 5.093-3.304.048-3.304-5.14 0-5.093zm0-15.516c3.3-.048 3.3 5.141 0 5.093-3.304.048-3.304-5.14 0-5.093zm0-15.516c3.3-.048 3.3 5.141 0 5.093-3.304.048-3.304-5.14 0-5.093zm14.72 77.579c3.3-.048 3.3 5.141 0 5.093-3.304.048-3.304-5.14 0-5.093zm0-15.516c3.3-.048 3.3 5.141 0 5.093-3.304.048-3.304-5.14 0-5.093zm0-15.515c3.3-.048 3.3 5.141 0 5.093-3.304.048-3.304-5.14 0-5.093zm0-15.516c3.3-.048 3.3 5.141 0 5.093-3.304.048-3.304-5.14 0-5.093zm0-15.516c3.3-.048 3.3 5.141 0 5.093-3.304.048-3.304-5.14 0-5.093zm0-15.516c3.3-.048 3.3 5.141 0 5.093-3.304.048-3.304-5.14 0-5.093zM2.478 77.579c3.3-.048 3.3 5.141 0 5.093-3.304.048-3.304-5.14 0-5.093zm0-15.516c3.3-.048 3.3 5.141 0 5.093-3.304.048-3.304-5.14 0-5.093zm0-15.515c3.3-.048 3.3 5.141 0 5.093-3.304.048-3.304-5.14 0-5.093zm0-15.516c3.3-.048 3.3 5.141 0 5.093-3.304.048-3.304-5.14 0-5.093zm0-15.516c3.3-.048 3.3 5.141 0 5.093-3.304.048-3.304-5.14 0-5.093zM2.478 0c3.3-.048 3.3 5.141 0 5.093-3.304.048-3.304-5.14 0-5.093zm14.721 77.579c3.3-.048 3.3 5.141 0 5.093-3.304.048-3.304-5.14 0-5.093zm0-15.516c3.3-.048 3.3 5.141 0 5.093-3.304.048-3.304-5.14 0-5.093zm0-15.515c3.3-.048 3.3 5.141 0 5.093-3.304.048-3.304-5.14 0-5.093zm0-15.516c3.3-.048 3.3 5.141 0 5.093-3.304.048-3.304-5.14 0-5.093zm0-15.516c3.3-.048 3.3 5.141 0 5.093-3.304.048-3.304-5.14 0-5.093zm0-15.516c3.3-.048 3.3 5.141 0 5.093-3.304.048-3.304-5.14 0-5.093zm14.72 77.579c3.3-.048 3.3 5.141 0 5.093-3.304.048-3.304-5.14 0-5.093zm0-15.516c3.3-.048 3.3 5.141 0 5.093-3.304.048-3.304-5.14 0-5.093zm0-15.515c3.3-.048 3.3 5.141 0 5.093-3.304.048-3.304-5.14 0-5.093zm0-15.516c3.3-.048 3.3 5.141 0 5.093-3.304.048-3.304-5.14 0-5.093zm0-15.516c3.3-.048 3.3 5.141 0 5.093-3.304.048-3.304-5.14 0-5.093zm0-15.516c3.3-.048 3.3 5.141 0 5.093-3.304.048-3.304-5.14 0-5.093z"/></g><g transform="matrix(.707107 .707107 -.707107 .707107 176.049 196.563)" class="B"><use xlink:href="#B"/><path d="M47.13 62.063c3.3-.048 3.3 5.141 0 5.093-3.304.048-3.304-5.14 0-5.093zm0-15.515c3.3-.048 3.3 5.141 0 5.093-3.304.048-3.304-5.14 0-5.093zm0-15.516c3.3-.048 3.3 5.141 0 5.093-3.304.048-3.304-5.14 0-5.093zm0-15.516c3.3-.048 3.3 5.141 0 5.093-3.304.048-3.304-5.14 0-5.093zM47.13 0c3.3-.048 3.3 5.141 0 5.093-3.304.048-3.304-5.14 0-5.093zm14.721 77.579c3.3-.048 3.3 5.141 0 5.093-3.304.048-3.304-5.14 0-5.093zm0-15.516c3.3-.048 3.3 5.141 0 5.093-3.304.048-3.304-5.14 0-5.093zm0-15.515c3.3-.048 3.3 5.141 0 5.093-3.304.048-3.304-5.14 0-5.093zm0-15.516c3.3-.048 3.3 5.141 0 5.093-3.304.048-3.304-5.14 0-5.093zm0-15.516c3.3-.048 3.3 5.141 0 5.093-3.304.048-3.304-5.14 0-5.093zm0-15.516c3.3-.048 3.3 5.141 0 5.093-3.304.048-3.304-5.14 0-5.093zm14.72 77.579c3.3-.048 3.3 5.141 0 5.093-3.304.048-3.304-5.14 0-5.093zm0-15.516c3.3-.048 3.3 5.141 0 5.093-3.304.048-3.304-5.14 0-5.093zm0-15.515c3.3-.048 3.3 5.141 0 5.093-3.304.048-3.304-5.14 0-5.093zm0-15.516c3.3-.048 3.3 5.141 0 5.093-3.304.048-3.304-5.14 0-5.093zm0-15.516c3.3-.048 3.3 5.141 0 5.093-3.304.048-3.304-5.14 0-5.093zm0-15.516c3.3-.048 3.3 5.141 0 5.093-3.304.048-3.304-5.14 0-5.093zM2.478 77.579c3.3-.048 3.3 5.141 0 5.093-3.304.048-3.304-5.14 0-5.093zm0-15.516c3.3-.048 3.3 5.141 0 5.093-3.304.048-3.304-5.14 0-5.093zm0-15.515c3.3-.048 3.3 5.141 0 5.093-3.304.048-3.304-5.14 0-5.093zm0-15.516c3.3-.048 3.3 5.141 0 5.093-3.304.048-3.304-5.14 0-5.093zm0-15.516c3.3-.048 3.3 5.141 0 5.093-3.304.048-3.304-5.14 0-5.093zM2.478 0c3.3-.048 3.3 5.141 0 5.093-3.304.048-3.304-5.14 0-5.093zm14.721 77.579c3.3-.048 3.3 5.141 0 5.093-3.304.048-3.304-5.14 0-5.093zm0-15.516c3.3-.048 3.3 5.141 0 5.093-3.304.048-3.304-5.14 0-5.093zm0-15.515c3.3-.048 3.3 5.141 0 5.093-3.304.048-3.304-5.14 0-5.093zm0-15.516c3.3-.048 3.3 5.141 0 5.093-3.304.048-3.304-5.14 0-5.093zm0-15.516c3.3-.048 3.3 5.141 0 5.093-3.304.048-3.304-5.14 0-5.093zm0-15.516c3.3-.048 3.3 5.141 0 5.093-3.304.048-3.304-5.14 0-5.093zm14.72 77.579c3.3-.048 3.3 5.141 0 5.093-3.304.048-3.304-5.14 0-5.093zm0-15.516c3.3-.048 3.3 5.141 0 5.093-3.304.048-3.304-5.14 0-5.093zm0-15.515c3.3-.048 3.3 5.141 0 5.093-3.304.048-3.304-5.14 0-5.093zm0-15.516c3.3-.048 3.3 5.141 0 5.093-3.304.048-3.304-5.14 0-5.093zm0-15.516c3.3-.048 3.3 5.141 0 5.093-3.304.048-3.304-5.14 0-5.093zm0-15.516c3.3-.048 3.3 5.141 0 5.093-3.304.048-3.304-5.14 0-5.093z"/></g><g transform="matrix(.707107 .707107 -.707107 .707107 49.049 70.049)" class="B"><use xlink:href="#B"/><path d="M47.13 62.063c3.3-.048 3.3 5.141 0 5.093-3.304.048-3.304-5.14 0-5.093zm0-15.515c3.3-.048 3.3 5.141 0 5.093-3.304.048-3.304-5.14 0-5.093zm0-15.516c3.3-.048 3.3 5.141 0 5.093-3.304.048-3.304-5.14 0-5.093zm0-15.516c3.3-.048 3.3 5.141 0 5.093-3.304.048-3.304-5.14 0-5.093zM47.13 0c3.3-.048 3.3 5.141 0 5.093-3.304.048-3.304-5.14 0-5.093zm14.721 77.579c3.3-.048 3.3 5.141 0 5.093-3.304.048-3.304-5.14 0-5.093zm0-15.516c3.3-.048 3.3 5.141 0 5.093-3.304.048-3.304-5.14 0-5.093zm0-15.515c3.3-.048 3.3 5.141 0 5.093-3.304.048-3.304-5.14 0-5.093zm0-15.516c3.3-.048 3.3 5.141 0 5.093-3.304.048-3.304-5.14 0-5.093zm0-15.516c3.3-.048 3.3 5.141 0 5.093-3.304.048-3.304-5.14 0-5.093zm0-15.516c3.3-.048 3.3 5.141 0 5.093-3.304.048-3.304-5.14 0-5.093zm14.72 77.579c3.3-.048 3.3 5.141 0 5.093-3.304.048-3.304-5.14 0-5.093zm0-15.516c3.3-.048 3.3 5.141 0 5.093-3.304.048-3.304-5.14 0-5.093zm0-15.515c3.3-.048 3.3 5.141 0 5.093-3.304.048-3.304-5.14 0-5.093zm0-15.516c3.3-.048 3.3 5.141 0 5.093-3.304.048-3.304-5.14 0-5.093zm0-15.516c3.3-.048 3.3 5.141 0 5.093-3.304.048-3.304-5.14 0-5.093zm0-15.516c3.3-.048 3.3 5.141 0 5.093-3.304.048-3.304-5.14 0-5.093zM2.478 77.579c3.3-.048 3.3 5.141 0 5.093-3.304.048-3.304-5.14 0-5.093zm0-15.516c3.3-.048 3.3 5.141 0 5.093-3.304.048-3.304-5.14 0-5.093zm0-15.515c3.3-.048 3.3 5.141 0 5.093-3.304.048-3.304-5.14 0-5.093zm0-15.516c3.3-.048 3.3 5.141 0 5.093-3.304.048-3.304-5.14 0-5.093zm0-15.516c3.3-.048 3.3 5.141 0 5.093-3.304.048-3.304-5.14 0-5.093zM2.478 0c3.3-.048 3.3 5.141 0 5.093-3.304.048-3.304-5.14 0-5.093zm14.721 77.579c3.3-.048 3.3 5.141 0 5.093-3.304.048-3.304-5.14 0-5.093zm0-15.516c3.3-.048 3.3 5.141 0 5.093-3.304.048-3.304-5.14 0-5.093zm0-15.515c3.3-.048 3.3 5.141 0 5.093-3.304.048-3.304-5.14 0-5.093zm0-15.516c3.3-.048 3.3 5.141 0 5.093-3.304.048-3.304-5.14 0-5.093zm0-15.516c3.3-.048 3.3 5.141 0 5.093-3.304.048-3.304-5.14 0-5.093zm0-15.516c3.3-.048 3.3 5.141 0 5.093-3.304.048-3.304-5.14 0-5.093zm14.72 77.579c3.3-.048 3.3 5.141 0 5.093-3.304.048-3.304-5.14 0-5.093zm0-15.516c3.3-.048 3.3 5.141 0 5.093-3.304.048-3.304-5.14 0-5.093zm0-15.515c3.3-.048 3.3 5.141 0 5.093-3.304.048-3.304-5.14 0-5.093zm0-15.516c3.3-.048 3.3 5.141 0 5.093-3.304.048-3.304-5.14 0-5.093zm0-15.516c3.3-.048 3.3 5.141 0 5.093-3.304.048-3.304-5.14 0-5.093zm0-15.516c3.3-.048 3.3 5.141 0 5.093-3.304.048-3.304-5.14 0-5.093z"/></g><g transform="matrix(.707107 .707107 -.707107 .707107 243.049 133.306)" class="B"><use xlink:href="#B"/><path d="M47.13 62.063c3.3-.048 3.3 5.141 0 5.093-3.304.048-3.304-5.14 0-5.093zm0-15.515c3.3-.048 3.3 5.141 0 5.093-3.304.048-3.304-5.14 0-5.093zm0-15.516c3.3-.048 3.3 5.141 0 5.093-3.304.048-3.304-5.14 0-5.093zm0-15.516c3.3-.048 3.3 5.141 0 5.093-3.304.048-3.304-5.14 0-5.093zM47.13 0c3.3-.048 3.3 5.141 0 5.093-3.304.048-3.304-5.14 0-5.093zm14.721 77.579c3.3-.048 3.3 5.141 0 5.093-3.304.048-3.304-5.14 0-5.093zm0-15.516c3.3-.048 3.3 5.141 0 5.093-3.304.048-3.304-5.14 0-5.093zm0-15.515c3.3-.048 3.3 5.141 0 5.093-3.304.048-3.304-5.14 0-5.093zm0-15.516c3.3-.048 3.3 5.141 0 5.093-3.304.048-3.304-5.14 0-5.093zm0-15.516c3.3-.048 3.3 5.141 0 5.093-3.304.048-3.304-5.14 0-5.093zm0-15.516c3.3-.048 3.3 5.141 0 5.093-3.304.048-3.304-5.14 0-5.093zm14.72 77.579c3.3-.048 3.3 5.141 0 5.093-3.304.048-3.304-5.14 0-5.093zm0-15.516c3.3-.048 3.3 5.141 0 5.093-3.304.048-3.304-5.14 0-5.093zm0-15.515c3.3-.048 3.3 5.141 0 5.093-3.304.048-3.304-5.14 0-5.093zm0-15.516c3.3-.048 3.3 5.141 0 5.093-3.304.048-3.304-5.14 0-5.093zm0-15.516c3.3-.048 3.3 5.141 0 5.093-3.304.048-3.304-5.14 0-5.093zm0-15.516c3.3-.048 3.3 5.141 0 5.093-3.304.048-3.304-5.14 0-5.093zM2.478 77.579c3.3-.048 3.3 5.141 0 5.093-3.304.048-3.304-5.14 0-5.093zm0-15.516c3.3-.048 3.3 5.141 0 5.093-3.304.048-3.304-5.14 0-5.093zm0-15.515c3.3-.048 3.3 5.141 0 5.093-3.304.048-3.304-5.14 0-5.093zm0-15.516c3.3-.048 3.3 5.141 0 5.093-3.304.048-3.304-5.14 0-5.093zm0-15.516c3.3-.048 3.3 5.141 0 5.093-3.304.048-3.304-5.14 0-5.093zM2.478 0c3.3-.048 3.3 5.141 0 5.093-3.304.048-3.304-5.14 0-5.093zm14.721 77.579c3.3-.048 3.3 5.141 0 5.093-3.304.048-3.304-5.14 0-5.093zm0-15.516c3.3-.048 3.3 5.141 0 5.093-3.304.048-3.304-5.14 0-5.093zm0-15.515c3.3-.048 3.3 5.141 0 5.093-3.304.048-3.304-5.14 0-5.093zm0-15.516c3.3-.048 3.3 5.141 0 5.093-3.304.048-3.304-5.14 0-5.093zm0-15.516c3.3-.048 3.3 5.141 0 5.093-3.304.048-3.304-5.14 0-5.093zm0-15.516c3.3-.048 3.3 5.141 0 5.093-3.304.048-3.304-5.14 0-5.093zm14.72 77.579c3.3-.048 3.3 5.141 0 5.093-3.304.048-3.304-5.14 0-5.093zm0-15.516c3.3-.048 3.3 5.141 0 5.093-3.304.048-3.304-5.14 0-5.093zm0-15.515c3.3-.048 3.3 5.141 0 5.093-3.304.048-3.304-5.14 0-5.093zm0-15.516c3.3-.048 3.3 5.141 0 5.093-3.304.048-3.304-5.14 0-5.093zm0-15.516c3.3-.048 3.3 5.141 0 5.093-3.304.048-3.304-5.14 0-5.093zm0-15.516c3.3-.048 3.3 5.141 0 5.093-3.304.048-3.304-5.14 0-5.093z"/></g><g transform="matrix(.707107 .707107 -.707107 .707107 283.049 216.306)" class="B"><use xlink:href="#B"/><path d="M47.13 62.063c3.3-.048 3.3 5.141 0 5.093-3.304.048-3.304-5.14 0-5.093zm0-15.515c3.3-.048 3.3 5.141 0 5.093-3.304.048-3.304-5.14 0-5.093zm0-15.516c3.3-.048 3.3 5.141 0 5.093-3.304.048-3.304-5.14 0-5.093zm0-15.516c3.3-.048 3.3 5.141 0 5.093-3.304.048-3.304-5.14 0-5.093zM47.13 0c3.3-.048 3.3 5.141 0 5.093-3.304.048-3.304-5.14 0-5.093zm14.721 77.579c3.3-.048 3.3 5.141 0 5.093-3.304.048-3.304-5.14 0-5.093zm0-15.516c3.3-.048 3.3 5.141 0 5.093-3.304.048-3.304-5.14 0-5.093zm0-15.515c3.3-.048 3.3 5.141 0 5.093-3.304.048-3.304-5.14 0-5.093zm0-15.516c3.3-.048 3.3 5.141 0 5.093-3.304.048-3.304-5.14 0-5.093zm0-15.516c3.3-.048 3.3 5.141 0 5.093-3.304.048-3.304-5.14 0-5.093zm0-15.516c3.3-.048 3.3 5.141 0 5.093-3.304.048-3.304-5.14 0-5.093zm14.72 77.579c3.3-.048 3.3 5.141 0 5.093-3.304.048-3.304-5.14 0-5.093zm0-15.516c3.3-.048 3.3 5.141 0 5.093-3.304.048-3.304-5.14 0-5.093zm0-15.515c3.3-.048 3.3 5.141 0 5.093-3.304.048-3.304-5.14 0-5.093zm0-15.516c3.3-.048 3.3 5.141 0 5.093-3.304.048-3.304-5.14 0-5.093zm0-15.516c3.3-.048 3.3 5.141 0 5.093-3.304.048-3.304-5.14 0-5.093zm0-15.516c3.3-.048 3.3 5.141 0 5.093-3.304.048-3.304-5.14 0-5.093zM2.478 77.579c3.3-.048 3.3 5.141 0 5.093-3.304.048-3.304-5.14 0-5.093zm0-15.516c3.3-.048 3.3 5.141 0 5.093-3.304.048-3.304-5.14 0-5.093zm0-15.515c3.3-.048 3.3 5.141 0 5.093-3.304.048-3.304-5.14 0-5.093zm0-15.516c3.3-.048 3.3 5.141 0 5.093-3.304.048-3.304-5.14 0-5.093zm0-15.516c3.3-.048 3.3 5.141 0 5.093-3.304.048-3.304-5.14 0-5.093zM2.478 0c3.3-.048 3.3 5.141 0 5.093-3.304.048-3.304-5.14 0-5.093zm14.721 77.579c3.3-.048 3.3 5.141 0 5.093-3.304.048-3.304-5.14 0-5.093zm0-15.516c3.3-.048 3.3 5.141 0 5.093-3.304.048-3.304-5.14 0-5.093zm0-15.515c3.3-.048 3.3 5.141 0 5.093-3.304.048-3.304-5.14 0-5.093zm0-15.516c3.3-.048 3.3 5.141 0 5.093-3.304.048-3.304-5.14 0-5.093zm0-15.516c3.3-.048 3.3 5.141 0 5.093-3.304.048-3.304-5.14 0-5.093zm0-15.516c3.3-.048 3.3 5.141 0 5.093-3.304.048-3.304-5.14 0-5.093zm14.72 77.579c3.3-.048 3.3 5.141 0 5.093-3.304.048-3.304-5.14 0-5.093zm0-15.516c3.3-.048 3.3 5.141 0 5.093-3.304.048-3.304-5.14 0-5.093zm0-15.515c3.3-.048 3.3 5.141 0 5.093-3.304.048-3.304-5.14 0-5.093zm0-15.516c3.3-.048 3.3 5.141 0 5.093-3.304.048-3.304-5.14 0-5.093zm0-15.516c3.3-.048 3.3 5.141 0 5.093-3.304.048-3.304-5.14 0-5.093zm0-15.516c3.3-.048 3.3 5.141 0 5.093-3.304.048-3.304-5.14 0-5.093z"/></g></g><g transform="matrix(.731354 -.681998 .681998 .731354 378.666 320.423)" fill="#20527e" stroke="#058dcf"><path d="M0 0h50v50H0z" class="D"/><path fill="none" d="M5 5h40v40H5z" stroke-width="10"/></g><g transform="matrix(-.707107 .707107 -.707107 -.707107 415.547 -175.702)" stroke="#1c719a" class="E"><path d="M0 0h999.782v139.05H0z" class="D"/><path fill="none" d="M12.5 12.5h974.782v114.05H12.5z" stroke-width="25"/></g><g stroke="#058dcf"><g transform="matrix(.731354 -.681998 .681998 .731354 -35.333 872.423)" fill="#20527e"><path d="M0 0h50v50H0z" class="D"/><path fill="none" d="M5 5h40v40H5z" stroke-width="10"/></g><g transform="matrix(.707107 .707107 -.707107 .707107 -66.898 151.957)" opacity=".18" class="E"><path d="M0 0h999.782v206.104H0z" class="D"/><path fill="none" d="M20.5 20.5h958.782v165.104H20.5z" stroke-width="41"/></g></g><g fill="#114c80" stroke="#707070" opacity=".29"><path d="M0 0h414v896H0z" class="D"/><path fill="none" d="M.5.5h413v895H.5z"/></g></g></svg>