<svg width="20" height="20" viewBox="0 0 20 20" fill="none" xmlns="http://www.w3.org/2000/svg">
<g clip-path="url(#clip0_5024_71609)">
<path d="M8.57501 9.91678C8.85834 10.0834 9.18334 10.1668 9.50001 10.1668C9.81668 10.1668 10.15 10.0834 10.425 9.91678L15.3417 6.98345V8.21678C15.3417 8.37511 15.4667 8.50011 15.625 8.50011C15.7833 8.50011 15.9083 8.37511 15.9083 8.21678V5.90011C15.9083 5.00845 15.1833 4.28345 14.2917 4.28345H4.70001C3.80834 4.28345 3.08334 5.00845 3.08334 5.90011V6.45845C3.08334 6.45845 3.08334 6.48345 3.08334 6.50011V13.1168C3.08334 14.0084 3.80834 14.7334 4.70001 14.7334H9.40834C9.56668 14.7334 9.69168 14.6084 9.69168 14.4501C9.69168 14.2918 9.56668 14.1668 9.40834 14.1668H4.70001C4.12501 14.1668 3.65834 13.7001 3.65834 13.1251V6.99178L8.57501 9.92511V9.91678ZM4.70001 4.85011H14.3C14.875 4.85011 15.3417 5.31678 15.3417 5.89178V6.30845L10.1333 9.41678C9.75001 9.65011 9.25001 9.65011 8.86668 9.41678L3.65834 6.30845V5.89178C3.65834 5.31678 4.12501 4.85011 4.70001 4.85011Z" fill="#28C76F"/>
<path d="M13.7583 9.3999C12.0167 9.3999 10.6 10.8166 10.6 12.5582C10.6 14.2999 12.0167 15.7166 13.7583 15.7166C15.5 15.7166 16.9167 14.2999 16.9167 12.5582C16.9167 10.8166 15.5 9.3999 13.7583 9.3999ZM13.7583 15.1499C12.3333 15.1499 11.175 13.9916 11.175 12.5666C11.175 11.1416 12.3333 9.98324 13.7583 9.98324C15.1833 9.98324 16.3417 11.1416 16.3417 12.5666C16.3417 13.9916 15.1833 15.1499 13.7583 15.1499Z" fill="#28C76F"/>
<path d="M15.4667 11.6917C15.5167 11.6417 15.5167 11.575 15.4667 11.525L15.2917 11.35C15.2417 11.3 15.175 11.3 15.125 11.35L13.3083 13.1667L12.3833 12.2417C12.3333 12.1917 12.2667 12.1917 12.2167 12.2417L12.0417 12.4167C11.9917 12.4667 11.9917 12.5333 12.0417 12.5833L13.225 13.7667C13.275 13.8167 13.3417 13.8167 13.3917 13.7667L15.4667 11.6917Z" fill="#28C76F"/>
</g>
<defs>
<clipPath id="clip0_5024_71609">
<rect width="20" height="20" fill="white"/>
</clipPath>
</defs>
</svg>
