<svg xmlns="http://www.w3.org/2000/svg" width="335.123" height="220.544" viewBox="0 0 335.123 220.544">
  <g id="parsing_success_illustration" transform="translate(-758.876 -263.282)">
    <g id="Background_Complete" data-name="Background Complete" transform="translate(800.827 280.452)">
      <g id="Group_2618" data-name="Group 2618" transform="translate(-14.579 100.553)">
        <g id="Group_2589" data-name="Group 2589">
          <g id="Group_2567" data-name="Group 2567">
            <g id="Group_2566" data-name="Group 2566">
              <path id="Path_8404" data-name="Path 8404" d="M85.619,262.344s-3.7-.267-3.362,8.039a96.233,96.233,0,0,0,1.188,12.729s-.108,1.842-1.535,1.48-4.109-2.154-5.434-.814c-1.375,1.39-.886,3.521.937,6.031s5.615,8.157,5.956,8.668.469,1.445-.542,1.354-7.836-2.4-8.739.9,5.324,9.463,5.992,10.149.7,1.12.433,1.535-2.492-.578-4.46-1.157-4.351-.9-4.713,1.046,2.381,7.656,12.654,13.654l4.942,2.467,4.677-2.983c9.62-6.995,11.779-12.947,11.224-14.851s-2.894-1.342-4.794-.569-4.01,1.983-4.322,1.6-.318-.821.277-1.571,6.176-7.5,4.947-10.7-7.789-.213-8.785-.022-.958-.759-.675-1.293,3.5-6.541,5.059-9.221,1.836-4.85.329-6.094c-1.453-1.2-3.943.851-5.326,1.353s-1.675-1.319-1.675-1.319a96.2,96.2,0,0,0-.091-12.785c-.492-8.3-4.238-7.628-4.238-7.628" transform="translate(-71.309 -262.33)" fill="#ebebeb"/>
            </g>
          </g>
          <g id="Group_2570" data-name="Group 2570" transform="translate(14.601 7.452)">
            <g id="Group_2569" data-name="Group 2569">
              <g id="Group_2568" data-name="Group 2568">
                <path id="Path_8405" data-name="Path 8405" d="M102.538,278.269s.01.058.02.173.022.292.039.51c.031.457.076,1.117.133,1.961.113,1.7.259,4.17.427,7.218.339,6.1.735,14.52,1.141,23.825s.781,17.734,1.086,23.831c.155,3.042.28,5.506.367,7.22.042.845.075,1.505.1,1.963.009.218.015.388.021.511s0,.174,0,.174-.01-.058-.02-.173-.023-.292-.04-.51c-.031-.457-.076-1.117-.133-1.961-.114-1.7-.259-4.169-.427-7.217-.339-6.1-.735-14.52-1.141-23.829s-.781-17.73-1.086-23.826c-.155-3.042-.28-5.507-.368-7.22-.042-.846-.075-1.506-.1-1.964-.009-.218-.016-.388-.021-.511S102.538,278.269,102.538,278.269Z" transform="translate(-102.537 -278.269)" fill="#e0e0e0"/>
              </g>
            </g>
          </g>
          <g id="Group_2573" data-name="Group 2573" transform="translate(8.818 24.106)">
            <g id="Group_2572" data-name="Group 2572">
              <g id="Group_2571" data-name="Group 2571">
                <path id="Path_8406" data-name="Path 8406" d="M90.17,313.888a1.646,1.646,0,0,1,.307.256c.19.172.457.431.784.753.652.646,1.529,1.562,2.478,2.591l2.417,2.645.735.8a1.646,1.646,0,0,1,.258.306,1.625,1.625,0,0,1-.31-.253c-.19-.173-.457-.432-.78-.758-.646-.652-1.511-1.579-2.459-2.608l-2.435-2.626-.74-.794A1.6,1.6,0,0,1,90.17,313.888Z" transform="translate(-90.17 -313.888)" fill="#e0e0e0"/>
              </g>
            </g>
          </g>
          <g id="Group_2576" data-name="Group 2576" transform="translate(16.288 22.97)">
            <g id="Group_2575" data-name="Group 2575">
              <g id="Group_2574" data-name="Group 2574">
                <path id="Path_8407" data-name="Path 8407" d="M106.145,319.779c-.037-.036,1.77-1.929,4.036-4.227s4.134-4.131,4.171-4.094-1.77,1.929-4.036,4.227S106.183,319.816,106.145,319.779Z" transform="translate(-106.145 -311.458)" fill="#e0e0e0"/>
              </g>
            </g>
          </g>
          <g id="Group_2579" data-name="Group 2579" transform="translate(16.268 40.208)">
            <g id="Group_2578" data-name="Group 2578">
              <g id="Group_2577" data-name="Group 2577">
                <path id="Path_8408" data-name="Path 8408" d="M106.1,353.729a1.677,1.677,0,0,1,.344-.219l.967-.542c.815-.458,1.939-1.1,3.155-1.842s2.3-1.456,3.073-1.976l.922-.615a1.719,1.719,0,0,1,.351-.208,1.684,1.684,0,0,1-.308.268c-.206.162-.509.391-.889.665-.759.55-1.83,1.281-3.051,2.028s-2.357,1.37-3.191,1.8c-.418.213-.757.381-1,.49A1.714,1.714,0,0,1,106.1,353.729Z" transform="translate(-106.103 -348.325)" fill="#e0e0e0"/>
              </g>
            </g>
          </g>
          <g id="Group_2582" data-name="Group 2582" transform="translate(8.081 40.598)">
            <g id="Group_2581" data-name="Group 2581">
              <g id="Group_2580" data-name="Group 2580">
                <path id="Path_8409" data-name="Path 8409" d="M88.593,349.162a1.462,1.462,0,0,1,.342.16c.214.114.52.284.9.5.752.427,1.785,1.03,2.919,1.7s2.157,1.295,2.892,1.751c.367.229.663.416.865.55a1.441,1.441,0,0,1,.3.223,1.452,1.452,0,0,1-.341-.16c-.214-.114-.52-.284-.9-.5-.752-.427-1.785-1.029-2.919-1.7s-2.156-1.295-2.891-1.751c-.368-.228-.663-.416-.865-.549A1.445,1.445,0,0,1,88.593,349.162Z" transform="translate(-88.592 -349.161)" fill="#e0e0e0"/>
              </g>
            </g>
          </g>
          <g id="Group_2585" data-name="Group 2585" transform="translate(6.457 53.239)">
            <g id="Group_2584" data-name="Group 2584">
              <g id="Group_2583" data-name="Group 2583">
                <path id="Path_8410" data-name="Path 8410" d="M85.12,376.2a2.365,2.365,0,0,1,.435.21l1.15.634c.967.543,2.3,1.3,3.758,2.155s2.782,1.63,3.731,2.2l1.12.686a2.411,2.411,0,0,1,.4.274,2.337,2.337,0,0,1-.435-.21l-1.15-.634c-.967-.543-2.3-1.3-3.759-2.155s-2.781-1.63-3.731-2.2l-1.12-.686A2.348,2.348,0,0,1,85.12,376.2Z" transform="translate(-85.12 -376.196)" fill="#e0e0e0"/>
              </g>
            </g>
          </g>
          <g id="Group_2588" data-name="Group 2588" transform="translate(16.837 52.025)">
            <g id="Group_2587" data-name="Group 2587">
              <g id="Group_2586" data-name="Group 2586">
                <path id="Path_8411" data-name="Path 8411" d="M107.321,380.759a2.654,2.654,0,0,1,.43-.288l1.2-.731c1.014-.618,2.411-1.476,3.927-2.465s2.87-1.917,3.844-2.595l1.155-.8a2.639,2.639,0,0,1,.437-.277,2.7,2.7,0,0,1-.393.336c-.26.206-.642.5-1.12.851-.955.707-2.3,1.656-3.819,2.645s-2.931,1.833-3.963,2.422c-.517.293-.938.526-1.232.68A2.737,2.737,0,0,1,107.321,380.759Z" transform="translate(-107.321 -373.6)" fill="#e0e0e0"/>
              </g>
            </g>
          </g>
        </g>
        <g id="Group_2617" data-name="Group 2617" transform="translate(10.593 67.713)">
          <g id="Group_2592" data-name="Group 2592">
            <g id="Group_2591" data-name="Group 2591">
              <g id="Group_2590" data-name="Group 2590">
                <path id="Path_8412" data-name="Path 8412" d="M107.637,407.152H93.966l4.462,33.777h4.747Z" transform="translate(-93.966 -407.152)" fill="#e0e0e0"/>
              </g>
            </g>
          </g>
          <g id="Group_2596" data-name="Group 2596" transform="translate(0.709 2.759)">
            <g id="Group_2595" data-name="Group 2595">
              <g id="Group_2594" data-name="Group 2594">
                <g id="Group_2593" data-name="Group 2593">
                  <path id="Path_8413" data-name="Path 8413" d="M95.482,414.446c-.005,0,.015.048.073.12a.864.864,0,0,0,.33.236,1.656,1.656,0,0,0,1.444-.177,10.985,10.985,0,0,1,1.773-1.167,3.88,3.88,0,0,1,2.514.05,10.734,10.734,0,0,1,2.341,1.134,16.3,16.3,0,0,0,1.9,1.021,5.259,5.259,0,0,0,1.4.406,2.547,2.547,0,0,0,.4.027c.091,0,.138,0,.139-.012a7.124,7.124,0,0,1-1.875-.565,18.742,18.742,0,0,1-1.862-1.053,10.371,10.371,0,0,0-2.381-1.171,4.014,4.014,0,0,0-2.653-.029,3.5,3.5,0,0,0-1,.618,7.782,7.782,0,0,1-.783.606,1.606,1.606,0,0,1-1.332.231A1.365,1.365,0,0,1,95.482,414.446Z" transform="translate(-95.481 -413.054)" fill="#f5f5f5"/>
                </g>
              </g>
            </g>
          </g>
          <g id="Group_2600" data-name="Group 2600" transform="translate(1.207 7.894)">
            <g id="Group_2599" data-name="Group 2599">
              <g id="Group_2598" data-name="Group 2598">
                <g id="Group_2597" data-name="Group 2597">
                  <path id="Path_8414" data-name="Path 8414" d="M96.548,426.515c.018.011.108-.139.322-.363a3.049,3.049,0,0,1,1.092-.692,4.873,4.873,0,0,1,1.9-.286,20.028,20.028,0,0,1,2.379.324,8.168,8.168,0,0,0,2.436.1,6.706,6.706,0,0,0,1.917-.547,6.058,6.058,0,0,0,1.153-.685,1.643,1.643,0,0,0,.365-.328,12.271,12.271,0,0,1-1.58.869,6.986,6.986,0,0,1-1.878.488,8.376,8.376,0,0,1-2.376-.117,17.931,17.931,0,0,0-2.408-.31,4.824,4.824,0,0,0-1.967.346,2.875,2.875,0,0,0-1.1.781,1.938,1.938,0,0,0-.207.3C96.56,426.47,96.542,426.511,96.548,426.515Z" transform="translate(-96.547 -424.036)" fill="#f5f5f5"/>
                </g>
              </g>
            </g>
          </g>
          <g id="Group_2604" data-name="Group 2604" transform="translate(1.982 12.761)">
            <g id="Group_2603" data-name="Group 2603">
              <g id="Group_2602" data-name="Group 2602">
                <g id="Group_2601" data-name="Group 2601">
                  <path id="Path_8415" data-name="Path 8415" d="M108.346,435.387a1.157,1.157,0,0,0-.376-.2,4.036,4.036,0,0,0-1.133-.243,7.241,7.241,0,0,0-1.713.1c-.638.1-1.321.279-2.039.432a8.59,8.59,0,0,1-2.036.23,4.442,4.442,0,0,1-1.616-.35,3.739,3.739,0,0,1-1.226-.912,1.055,1.055,0,0,0,.231.357,2.886,2.886,0,0,0,.928.7,4.353,4.353,0,0,0,1.674.412,8.209,8.209,0,0,0,2.091-.217c.726-.154,1.4-.335,2.028-.447a7.821,7.821,0,0,1,1.669-.143A6.287,6.287,0,0,1,108.346,435.387Z" transform="translate(-98.205 -434.444)" fill="#f5f5f5"/>
                </g>
              </g>
            </g>
          </g>
          <g id="Group_2608" data-name="Group 2608" transform="translate(2.416 17.593)">
            <g id="Group_2607" data-name="Group 2607">
              <g id="Group_2606" data-name="Group 2606">
                <g id="Group_2605" data-name="Group 2605">
                  <path id="Path_8416" data-name="Path 8416" d="M99.134,445.575a2.214,2.214,0,0,1,1.327-.134,6.451,6.451,0,0,1,1.389.518,5.264,5.264,0,0,0,1.8.5,5.407,5.407,0,0,0,3.271-.758,4.637,4.637,0,0,0,.814-.626c.166-.177.252-.279.241-.289a12.021,12.021,0,0,1-1.134.779,5.6,5.6,0,0,1-3.171.672c-1.295-.074-2.288-.846-3.185-.948a2.033,2.033,0,0,0-1.031.089C99.224,445.465,99.127,445.567,99.134,445.575Z" transform="translate(-99.133 -444.78)" fill="#f5f5f5"/>
                </g>
              </g>
            </g>
          </g>
          <g id="Group_2612" data-name="Group 2612" transform="translate(3.178 22.983)">
            <g id="Group_2611" data-name="Group 2611">
              <g id="Group_2610" data-name="Group 2610">
                <g id="Group_2609" data-name="Group 2609">
                  <path id="Path_8417" data-name="Path 8417" d="M100.763,458.195a2.614,2.614,0,0,0,1.14-.226c.687-.23,1.537-.757,2.531-1.151a4.128,4.128,0,0,1,1.453-.3,2.678,2.678,0,0,1,1.168.267,2.587,2.587,0,0,1,.845.729.625.625,0,0,0-.13-.288,1.87,1.87,0,0,0-.641-.58,2.677,2.677,0,0,0-1.239-.333,4.075,4.075,0,0,0-1.535.3c-1.029.411-1.853.953-2.509,1.213C101.2,458.1,100.757,458.159,100.763,458.195Z" transform="translate(-100.763 -456.306)" fill="#f5f5f5"/>
                </g>
              </g>
            </g>
          </g>
          <g id="Group_2616" data-name="Group 2616" transform="translate(3.848 27.879)">
            <g id="Group_2615" data-name="Group 2615">
              <g id="Group_2614" data-name="Group 2614">
                <g id="Group_2613" data-name="Group 2613">
                  <path id="Path_8418" data-name="Path 8418" d="M102.2,466.787a3.2,3.2,0,0,0,.866.281,15.884,15.884,0,0,0,4.357.428,3.2,3.2,0,0,0,.9-.107c0-.068-1.385-.008-3.076-.179S102.212,466.722,102.2,466.787Z" transform="translate(-102.196 -466.779)" fill="#f5f5f5"/>
                </g>
              </g>
            </g>
          </g>
        </g>
      </g>
      <g id="Group_2740" data-name="Group 2740" transform="translate(208.326)">
        <g id="Group_2624" data-name="Group 2624" transform="translate(56.014 8.637)">
          <g id="Group_2623" data-name="Group 2623">
            <g id="Group_2622" data-name="Group 2622">
              <g id="Group_2621" data-name="Group 2621">
                <g id="Group_2620" data-name="Group 2620">
                  <g id="Group_2619" data-name="Group 2619">
                    <rect id="Rectangle_904" data-name="Rectangle 904" width="4.655" height="23.161" transform="translate(0 0.025) rotate(-0.307)" fill="#e0e0e0"/>
                  </g>
                </g>
              </g>
            </g>
          </g>
        </g>
        <g id="Group_2644" data-name="Group 2644" transform="translate(15.602 8.633)">
          <g id="Group_2630" data-name="Group 2630" transform="translate(0.088 0.064)">
            <g id="Group_2629" data-name="Group 2629">
              <g id="Group_2628" data-name="Group 2628">
                <g id="Group_2627" data-name="Group 2627">
                  <g id="Group_2626" data-name="Group 2626">
                    <g id="Group_2625" data-name="Group 2625">
                      <rect id="Rectangle_905" data-name="Rectangle 905" width="12.054" height="12.787" transform="translate(0 0.064) rotate(-0.306)" fill="#ebebeb"/>
                    </g>
                  </g>
                </g>
              </g>
            </g>
          </g>
          <g id="Group_2636" data-name="Group 2636" transform="translate(12.084)">
            <g id="Group_2635" data-name="Group 2635">
              <g id="Group_2634" data-name="Group 2634">
                <g id="Group_2633" data-name="Group 2633">
                  <g id="Group_2632" data-name="Group 2632">
                    <g id="Group_2631" data-name="Group 2631">
                      <rect id="Rectangle_906" data-name="Rectangle 906" width="12.054" height="12.787" transform="matrix(1, -0.005, 0.005, 1, 0, 0.065)" fill="#f5f5f5"/>
                    </g>
                  </g>
                </g>
              </g>
            </g>
          </g>
          <g id="Group_2643" data-name="Group 2643" transform="translate(0 3.276)">
            <g id="Group_2642" data-name="Group 2642">
              <g id="Group_2641" data-name="Group 2641">
                <g id="Group_2640" data-name="Group 2640">
                  <g id="Group_2639" data-name="Group 2639">
                    <g id="Group_2638" data-name="Group 2638">
                      <g id="Group_2637" data-name="Group 2637">
                        <path id="Path_8419" data-name="Path 8419" d="M547.307,73.125c8.01.066,16.041.02,24.05-.11a.128.128,0,0,0,0-.256q-12.016-.067-24.05.147a.11.11,0,0,0,0,.219Z" transform="translate(-547.201 -72.741)" fill="#e0e0e0"/>
                      </g>
                    </g>
                  </g>
                </g>
              </g>
            </g>
          </g>
        </g>
        <g id="Group_2664" data-name="Group 2664" transform="translate(8.083 21.154)">
          <g id="Group_2650" data-name="Group 2650" transform="translate(0.091 0.117)">
            <g id="Group_2649" data-name="Group 2649">
              <g id="Group_2648" data-name="Group 2648">
                <g id="Group_2647" data-name="Group 2647">
                  <g id="Group_2646" data-name="Group 2646">
                    <g id="Group_2645" data-name="Group 2645">
                      <rect id="Rectangle_907" data-name="Rectangle 907" width="21.9" height="10.42" transform="matrix(1, -0.005, 0.005, 1, 0, 0.117)" fill="#ebebeb"/>
                    </g>
                  </g>
                </g>
              </g>
            </g>
          </g>
          <g id="Group_2656" data-name="Group 2656" transform="translate(21.887)">
            <g id="Group_2655" data-name="Group 2655">
              <g id="Group_2654" data-name="Group 2654">
                <g id="Group_2653" data-name="Group 2653">
                  <g id="Group_2652" data-name="Group 2652">
                    <g id="Group_2651" data-name="Group 2651">
                      <rect id="Rectangle_908" data-name="Rectangle 908" width="21.9" height="10.42" transform="translate(0 0.117) rotate(-0.307)" fill="#f5f5f5"/>
                    </g>
                  </g>
                </g>
              </g>
            </g>
          </g>
          <g id="Group_2663" data-name="Group 2663" transform="translate(0 2.62)">
            <g id="Group_2662" data-name="Group 2662">
              <g id="Group_2661" data-name="Group 2661">
                <g id="Group_2660" data-name="Group 2660">
                  <g id="Group_2659" data-name="Group 2659">
                    <g id="Group_2658" data-name="Group 2658">
                      <g id="Group_2657" data-name="Group 2657">
                        <path id="Path_8420" data-name="Path 8420" d="M531.227,98.629c14.549.165,29.148.017,43.7-.216a.128.128,0,0,0,0-.256c-14.549-.077-29.149-.068-43.7.252a.11.11,0,0,0,0,.22Z" transform="translate(-531.12 -98.117)" fill="#e0e0e0"/>
                      </g>
                    </g>
                  </g>
                </g>
              </g>
            </g>
          </g>
        </g>
        <g id="Group_2680" data-name="Group 2680" transform="translate(0 31.808)">
          <g id="Group_2669" data-name="Group 2669">
            <g id="Group_2668" data-name="Group 2668">
              <g id="Group_2667" data-name="Group 2667">
                <g id="Group_2666" data-name="Group 2666">
                  <g id="Group_2665" data-name="Group 2665">
                    <rect id="Rectangle_909" data-name="Rectangle 909" width="84.846" height="3.733" fill="#e0e0e0"/>
                  </g>
                </g>
              </g>
            </g>
          </g>
          <g id="Group_2674" data-name="Group 2674" transform="translate(13.891 1.795)">
            <g id="Group_2673" data-name="Group 2673">
              <g id="Group_2672" data-name="Group 2672">
                <g id="Group_2671" data-name="Group 2671">
                  <g id="Group_2670" data-name="Group 2670">
                    <rect id="Rectangle_910" data-name="Rectangle 910" width="3.444" height="12.738" fill="#e0e0e0"/>
                  </g>
                </g>
              </g>
            </g>
          </g>
          <g id="Group_2679" data-name="Group 2679" transform="translate(65.308 1.795)">
            <g id="Group_2678" data-name="Group 2678">
              <g id="Group_2677" data-name="Group 2677">
                <g id="Group_2676" data-name="Group 2676">
                  <g id="Group_2675" data-name="Group 2675">
                    <rect id="Rectangle_911" data-name="Rectangle 911" width="3.444" height="12.738" fill="#e0e0e0"/>
                  </g>
                </g>
              </g>
            </g>
          </g>
        </g>
        <g id="Group_2686" data-name="Group 2686" transform="translate(60.556)">
          <g id="Group_2685" data-name="Group 2685">
            <g id="Group_2684" data-name="Group 2684">
              <g id="Group_2683" data-name="Group 2683">
                <g id="Group_2682" data-name="Group 2682">
                  <g id="Group_2681" data-name="Group 2681">
                    <rect id="Rectangle_912" data-name="Rectangle 912" width="4.655" height="31.855" transform="translate(0 0.025) rotate(-0.307)" fill="#ebebeb"/>
                  </g>
                </g>
              </g>
            </g>
          </g>
        </g>
        <g id="Group_2723" data-name="Group 2723" transform="translate(65.202 5.93)">
          <g id="Group_2692" data-name="Group 2692" transform="translate(0.048)">
            <g id="Group_2691" data-name="Group 2691">
              <g id="Group_2690" data-name="Group 2690">
                <g id="Group_2689" data-name="Group 2689">
                  <g id="Group_2688" data-name="Group 2688">
                    <g id="Group_2687" data-name="Group 2687">
                      <rect id="Rectangle_913" data-name="Rectangle 913" width="7.233" height="25.815" transform="translate(0 0.039) rotate(-0.308)" fill="#f5f5f5"/>
                    </g>
                  </g>
                </g>
              </g>
            </g>
          </g>
          <g id="Group_2698" data-name="Group 2698" transform="translate(0 4.848)">
            <g id="Group_2697" data-name="Group 2697">
              <g id="Group_2696" data-name="Group 2696">
                <g id="Group_2695" data-name="Group 2695">
                  <g id="Group_2694" data-name="Group 2694">
                    <g id="Group_2693" data-name="Group 2693">
                      <path id="Path_8421" data-name="Path 8421" d="M660.518,70.447a52.247,52.247,0,0,1-7.233,0,52.247,52.247,0,0,1,7.233,0Z" transform="translate(-653.285 -70.322)" fill="#e0e0e0"/>
                    </g>
                  </g>
                </g>
              </g>
            </g>
          </g>
          <g id="Group_2704" data-name="Group 2704" transform="translate(0 3.764)">
            <g id="Group_2703" data-name="Group 2703">
              <g id="Group_2702" data-name="Group 2702">
                <g id="Group_2701" data-name="Group 2701">
                  <g id="Group_2700" data-name="Group 2700">
                    <g id="Group_2699" data-name="Group 2699">
                      <path id="Path_8422" data-name="Path 8422" d="M660.518,68.127a52.247,52.247,0,0,1-7.233,0,52.247,52.247,0,0,1,7.233,0Z" transform="translate(-653.285 -68.002)" fill="#e0e0e0"/>
                    </g>
                  </g>
                </g>
              </g>
            </g>
          </g>
          <g id="Group_2710" data-name="Group 2710" transform="translate(0 21.805)">
            <g id="Group_2709" data-name="Group 2709">
              <g id="Group_2708" data-name="Group 2708">
                <g id="Group_2707" data-name="Group 2707">
                  <g id="Group_2706" data-name="Group 2706">
                    <g id="Group_2705" data-name="Group 2705">
                      <path id="Path_8423" data-name="Path 8423" d="M660.518,106.714a52.247,52.247,0,0,1-7.233,0,52.247,52.247,0,0,1,7.233,0Z" transform="translate(-653.285 -106.589)" fill="#e0e0e0"/>
                    </g>
                  </g>
                </g>
              </g>
            </g>
          </g>
          <g id="Group_2716" data-name="Group 2716" transform="translate(0 20.721)">
            <g id="Group_2715" data-name="Group 2715">
              <g id="Group_2714" data-name="Group 2714">
                <g id="Group_2713" data-name="Group 2713">
                  <g id="Group_2712" data-name="Group 2712">
                    <g id="Group_2711" data-name="Group 2711">
                      <path id="Path_8424" data-name="Path 8424" d="M660.518,104.4a52.247,52.247,0,0,1-7.233,0,52.244,52.244,0,0,1,7.233,0Z" transform="translate(-653.285 -104.27)" fill="#e0e0e0"/>
                    </g>
                  </g>
                </g>
              </g>
            </g>
          </g>
          <g id="Group_2722" data-name="Group 2722" transform="translate(3.607 6.847)">
            <g id="Group_2721" data-name="Group 2721">
              <g id="Group_2720" data-name="Group 2720">
                <g id="Group_2719" data-name="Group 2719">
                  <g id="Group_2718" data-name="Group 2718">
                    <g id="Group_2717" data-name="Group 2717">
                      <path id="Path_8425" data-name="Path 8425" d="M661.125,86.229c-.069,0-.125-2.6-.125-5.816s.056-5.817.125-5.817.125,2.6.125,5.817S661.195,86.229,661.125,86.229Z" transform="translate(-661 -74.596)" fill="#e0e0e0"/>
                    </g>
                  </g>
                </g>
              </g>
            </g>
          </g>
        </g>
        <g id="Group_2729" data-name="Group 2729" transform="translate(72.513 12.269)">
          <g id="Group_2728" data-name="Group 2728">
            <g id="Group_2727" data-name="Group 2727">
              <g id="Group_2726" data-name="Group 2726">
                <g id="Group_2725" data-name="Group 2725">
                  <g id="Group_2724" data-name="Group 2724">
                    <rect id="Rectangle_914" data-name="Rectangle 914" width="7.873" height="19.485" fill="#ebebeb"/>
                  </g>
                </g>
              </g>
            </g>
          </g>
        </g>
        <g id="Group_2734" data-name="Group 2734" transform="translate(61.477 4.101)">
          <g id="Group_2733" data-name="Group 2733">
            <g id="Group_2732" data-name="Group 2732">
              <g id="Group_2731" data-name="Group 2731">
                <g id="Group_2730" data-name="Group 2730">
                  <path id="Path_8426" data-name="Path 8426" d="M647.993,57.379a1.338,1.338,0,1,1-1.338-1.338A1.338,1.338,0,0,1,647.993,57.379Z" transform="translate(-645.317 -56.041)" fill="#e0e0e0"/>
                </g>
              </g>
            </g>
          </g>
        </g>
        <g id="Group_2739" data-name="Group 2739" transform="translate(62.401 9.118)">
          <g id="Group_2738" data-name="Group 2738">
            <g id="Group_2737" data-name="Group 2737">
              <g id="Group_2736" data-name="Group 2736">
                <g id="Group_2735" data-name="Group 2735">
                  <rect id="Rectangle_915" data-name="Rectangle 915" width="0.827" height="18.95" fill="#e0e0e0"/>
                </g>
              </g>
            </g>
          </g>
        </g>
      </g>
      <g id="Group_2774" data-name="Group 2774" transform="translate(-20 0.703)">
        <g id="Group_2742" data-name="Group 2742" transform="translate(2.481 0.001)">
          <g id="Group_2741" data-name="Group 2741">
            <rect id="Rectangle_916" data-name="Rectangle 916" width="49.354" height="71.536" fill="#e0e0e0"/>
          </g>
        </g>
        <g id="Group_2744" data-name="Group 2744" transform="translate(0.009 0.001)">
          <g id="Group_2743" data-name="Group 2743">
            <rect id="Rectangle_917" data-name="Rectangle 917" width="49.354" height="71.536" fill="#f5f5f5"/>
          </g>
        </g>
        <g id="Group_2750" data-name="Group 2750" transform="translate(6.007 7.614)">
          <g id="Group_2746" data-name="Group 2746" transform="translate(0.134 0.134)">
            <g id="Group_2745" data-name="Group 2745">
              <rect id="Rectangle_918" data-name="Rectangle 918" width="37.09" height="56.04" fill="#fff"/>
            </g>
          </g>
          <g id="Group_2749" data-name="Group 2749">
            <g id="Group_2748" data-name="Group 2748">
              <g id="Group_2747" data-name="Group 2747">
                <path id="Path_8427" data-name="Path 8427" d="M118.34,121.233s0-.095-.007-.274,0-.449-.007-.795c0-.7-.008-1.735-.015-3.074-.007-2.686-.019-6.6-.033-11.544-.014-9.882-.036-23.875-.06-40.354l.123.123-37.085.011h0l.134-.134c-.01,21.141-.02,40.632-.027,56.04l-.107-.107,27,.056,7.458.028,1.958.012c.443,0,.677.012.677.012s-.218.007-.654.012l-1.938.012-7.435.027-27.063.057h-.107v-.107c-.007-15.408-.017-34.9-.027-56.04v-.135h.139l37.085.011h.123v.123c-.024,16.511-.045,30.533-.06,40.434-.014,4.932-.025,8.837-.033,11.516-.007,1.328-.012,2.35-.015,3.049,0,.339-.006.6-.007.781S118.34,121.233,118.34,121.233Z" transform="translate(-81.116 -65.058)" fill="#e0e0e0"/>
              </g>
            </g>
          </g>
        </g>
        <g id="Group_2753" data-name="Group 2753" transform="translate(41.511 8.122)">
          <g id="Group_2752" data-name="Group 2752">
            <g id="Group_2751" data-name="Group 2751">
              <path id="Path_8428" data-name="Path 8428" d="M157.052,66.145" transform="translate(-157.052 -66.145)" fill="none" stroke="#fbfbfb" stroke-miterlimit="10" stroke-width="0.25"/>
            </g>
          </g>
        </g>
        <g id="Group_2756" data-name="Group 2756" transform="translate(42.779 0)">
          <g id="Group_2755" data-name="Group 2755">
            <g id="Group_2754" data-name="Group 2754">
              <path id="Path_8429" data-name="Path 8429" d="M166.486,48.774a8.575,8.575,0,0,1-.879,1.278c-.574.767-1.387,1.81-2.316,2.937s-1.8,2.126-2.44,2.836a8.529,8.529,0,0,1-1.086,1.108,9.194,9.194,0,0,1,.942-1.232l2.376-2.883,2.374-2.884A9.153,9.153,0,0,1,166.486,48.774Z" transform="translate(-159.764 -48.773)" fill="#e0e0e0"/>
            </g>
          </g>
        </g>
        <g id="Group_2762" data-name="Group 2762" transform="translate(43.417 63.608)">
          <g id="Group_2758" data-name="Group 2758" transform="translate(0.002 0.001)">
            <g id="Group_2757" data-name="Group 2757">
              <path id="Path_8430" data-name="Path 8430" d="M161.134,184.817a45.92,45.92,0,0,0,6.469,8.09" transform="translate(-161.134 -184.817)" fill="#fff"/>
            </g>
          </g>
          <g id="Group_2761" data-name="Group 2761">
            <g id="Group_2760" data-name="Group 2760">
              <g id="Group_2759" data-name="Group 2759">
                <path id="Path_8431" data-name="Path 8431" d="M167.6,192.906a7.35,7.35,0,0,1-1.128-1.026,36.141,36.141,0,0,1-4.589-5.739,7.374,7.374,0,0,1-.753-1.326,10.154,10.154,0,0,1,.91,1.219c.544.764,1.309,1.808,2.2,2.925s1.744,2.091,2.369,2.79A10.278,10.278,0,0,1,167.6,192.906Z" transform="translate(-161.129 -184.816)" fill="#e0e0e0"/>
              </g>
            </g>
          </g>
        </g>
        <g id="Group_2768" data-name="Group 2768" transform="translate(0 63.503)">
          <g id="Group_2764" data-name="Group 2764" transform="translate(0.002 0.001)">
            <g id="Group_2763" data-name="Group 2763">
              <path id="Path_8432" data-name="Path 8432" d="M68.273,192.57l6.465-7.976" transform="translate(-68.273 -184.594)" fill="#fff"/>
            </g>
          </g>
          <g id="Group_2767" data-name="Group 2767">
            <g id="Group_2766" data-name="Group 2766">
              <g id="Group_2765" data-name="Group 2765">
                <path id="Path_8433" data-name="Path 8433" d="M74.736,184.593a49.271,49.271,0,0,1-3.128,4.072,49.075,49.075,0,0,1-3.337,3.9A49.371,49.371,0,0,1,71.4,188.5,49.005,49.005,0,0,1,74.736,184.593Z" transform="translate(-68.269 -184.592)" fill="#e0e0e0"/>
              </g>
            </g>
          </g>
        </g>
        <g id="Group_2771" data-name="Group 2771" transform="translate(0.007)">
          <g id="Group_2770" data-name="Group 2770">
            <g id="Group_2769" data-name="Group 2769">
              <path id="Path_8434" data-name="Path 8434" d="M68.287,48.774a44.62,44.62,0,0,1,3.137,3.751,44.559,44.559,0,0,1,2.927,3.918,44.648,44.648,0,0,1-3.138-3.751A44.593,44.593,0,0,1,68.287,48.774Z" transform="translate(-68.285 -48.773)" fill="#e0e0e0"/>
            </g>
          </g>
        </g>
        <g id="Group_2773" data-name="Group 2773" transform="translate(19.256 19.127)">
          <g id="Group_2772" data-name="Group 2772">
            <rect id="Rectangle_919" data-name="Rectangle 919" width="12.419" height="35.262" fill="#e0e0e0"/>
          </g>
        </g>
      </g>
      <g id="Group_2858" data-name="Group 2858" transform="translate(175.684 138.587)">
        <g id="Group_2857" data-name="Group 2857">
          <g id="Group_2856" data-name="Group 2856">
            <g id="Group_2780" data-name="Group 2780">
              <g id="Group_2779" data-name="Group 2779">
                <g id="Group_2778" data-name="Group 2778">
                  <g id="Group_2777" data-name="Group 2777">
                    <g id="Group_2776" data-name="Group 2776">
                      <g id="Group_2775" data-name="Group 2775">
                        <rect id="Rectangle_920" data-name="Rectangle 920" width="86.241" height="39.773" fill="#f5f5f5"/>
                      </g>
                    </g>
                  </g>
                </g>
              </g>
            </g>
            <g id="Group_2786" data-name="Group 2786" transform="translate(1.974 2.093)">
              <g id="Group_2785" data-name="Group 2785">
                <g id="Group_2784" data-name="Group 2784">
                  <g id="Group_2783" data-name="Group 2783">
                    <g id="Group_2782" data-name="Group 2782">
                      <g id="Group_2781" data-name="Group 2781">
                        <path id="Path_8435" data-name="Path 8435" d="M530.455,383.958H448.24V348.152h82.215Zm-81.678-.536h81.142V348.688H448.776Z" transform="translate(-448.24 -348.152)" fill="#e0e0e0"/>
                      </g>
                    </g>
                  </g>
                </g>
              </g>
            </g>
            <g id="Group_2792" data-name="Group 2792" transform="translate(86.242)">
              <g id="Group_2791" data-name="Group 2791">
                <g id="Group_2790" data-name="Group 2790">
                  <g id="Group_2789" data-name="Group 2789">
                    <g id="Group_2788" data-name="Group 2788">
                      <g id="Group_2787" data-name="Group 2787">
                        <rect id="Rectangle_921" data-name="Rectangle 921" width="21.068" height="39.773" fill="#e0e0e0"/>
                      </g>
                    </g>
                  </g>
                </g>
              </g>
            </g>
            <g id="Group_2799" data-name="Group 2799" transform="translate(2.138 12.958)">
              <g id="Group_2798" data-name="Group 2798">
                <g id="Group_2797" data-name="Group 2797">
                  <g id="Group_2796" data-name="Group 2796">
                    <g id="Group_2795" data-name="Group 2795">
                      <g id="Group_2794" data-name="Group 2794">
                        <g id="Group_2793" data-name="Group 2793">
                          <path id="Path_8436" data-name="Path 8436" d="M448.694,371.605h81.678a.108.108,0,0,0,0-.216H448.694a.108.108,0,0,0,0,.216Z" transform="translate(-448.59 -371.389)" fill="#e0e0e0"/>
                        </g>
                      </g>
                    </g>
                  </g>
                </g>
              </g>
            </g>
            <g id="Group_2806" data-name="Group 2806" transform="translate(43.007 2.156)">
              <g id="Group_2805" data-name="Group 2805">
                <g id="Group_2804" data-name="Group 2804">
                  <g id="Group_2803" data-name="Group 2803">
                    <g id="Group_2802" data-name="Group 2802">
                      <g id="Group_2801" data-name="Group 2801">
                        <g id="Group_2800" data-name="Group 2800">
                          <path id="Path_8437" data-name="Path 8437" d="M536.341,359.2a89.474,89.474,0,0,0,.028-10.8.11.11,0,0,0-.22,0,89.474,89.474,0,0,0,.028,10.8.082.082,0,0,0,.165,0Z" transform="translate(-535.999 -348.286)" fill="#e0e0e0"/>
                        </g>
                      </g>
                    </g>
                  </g>
                </g>
              </g>
            </g>
            <g id="Group_2812" data-name="Group 2812" transform="translate(63.108 6.551)">
              <g id="Group_2811" data-name="Group 2811">
                <g id="Group_2810" data-name="Group 2810">
                  <g id="Group_2809" data-name="Group 2809">
                    <g id="Group_2808" data-name="Group 2808">
                      <g id="Group_2807" data-name="Group 2807">
                        <path id="Path_8438" data-name="Path 8438" d="M581.216,358.8a1.113,1.113,0,1,1-1.113-1.113A1.113,1.113,0,0,1,581.216,358.8Z" transform="translate(-578.991 -357.687)" fill="#e0e0e0"/>
                      </g>
                    </g>
                  </g>
                </g>
              </g>
            </g>
            <g id="Group_2818" data-name="Group 2818" transform="translate(20.243 6.551)">
              <g id="Group_2817" data-name="Group 2817">
                <g id="Group_2816" data-name="Group 2816">
                  <g id="Group_2815" data-name="Group 2815">
                    <g id="Group_2814" data-name="Group 2814">
                      <g id="Group_2813" data-name="Group 2813">
                        <path id="Path_8439" data-name="Path 8439" d="M489.538,358.8a1.113,1.113,0,1,1-1.113-1.113A1.113,1.113,0,0,1,489.538,358.8Z" transform="translate(-487.312 -357.687)" fill="#e0e0e0"/>
                      </g>
                    </g>
                  </g>
                </g>
              </g>
            </g>
            <g id="Group_2824" data-name="Group 2824" transform="translate(41.969 18.883)">
              <g id="Group_2823" data-name="Group 2823">
                <g id="Group_2822" data-name="Group 2822">
                  <g id="Group_2821" data-name="Group 2821">
                    <g id="Group_2820" data-name="Group 2820">
                      <g id="Group_2819" data-name="Group 2819">
                        <path id="Path_8440" data-name="Path 8440" d="M536,385.175a1.113,1.113,0,1,1-1.113-1.112A1.113,1.113,0,0,1,536,385.175Z" transform="translate(-533.779 -384.063)" fill="#e0e0e0"/>
                      </g>
                    </g>
                  </g>
                </g>
              </g>
            </g>
            <g id="Group_2830" data-name="Group 2830" transform="translate(5.871 39.773)">
              <g id="Group_2829" data-name="Group 2829">
                <g id="Group_2828" data-name="Group 2828">
                  <g id="Group_2827" data-name="Group 2827">
                    <g id="Group_2826" data-name="Group 2826">
                      <g id="Group_2825" data-name="Group 2825">
                        <path id="Path_8441" data-name="Path 8441" d="M461.014,428.742l-4.44,24.971h2.5l8.187-24.971Z" transform="translate(-456.574 -428.742)" fill="#e0e0e0"/>
                      </g>
                    </g>
                  </g>
                </g>
              </g>
            </g>
            <g id="Group_2836" data-name="Group 2836" transform="translate(73.896 39.773)">
              <g id="Group_2835" data-name="Group 2835">
                <g id="Group_2834" data-name="Group 2834">
                  <g id="Group_2833" data-name="Group 2833">
                    <g id="Group_2832" data-name="Group 2832">
                      <g id="Group_2831" data-name="Group 2831">
                        <path id="Path_8442" data-name="Path 8442" d="M608.308,428.742l3.713,25.014h-2.5l-7.459-25.014Z" transform="translate(-602.064 -428.742)" fill="#e0e0e0"/>
                      </g>
                    </g>
                  </g>
                </g>
              </g>
            </g>
            <g id="Group_2842" data-name="Group 2842" transform="translate(90.568 39.773)">
              <g id="Group_2841" data-name="Group 2841">
                <g id="Group_2840" data-name="Group 2840">
                  <g id="Group_2839" data-name="Group 2839">
                    <g id="Group_2838" data-name="Group 2838">
                      <g id="Group_2837" data-name="Group 2837">
                        <path id="Path_8443" data-name="Path 8443" d="M643.966,428.742l4.207,25.014h-2.5l-7.953-25.014Z" transform="translate(-637.722 -428.742)" fill="#e0e0e0"/>
                      </g>
                    </g>
                  </g>
                </g>
              </g>
            </g>
            <g id="Group_2848" data-name="Group 2848" transform="translate(41.894 30.139)">
              <g id="Group_2847" data-name="Group 2847">
                <g id="Group_2846" data-name="Group 2846">
                  <g id="Group_2845" data-name="Group 2845">
                    <g id="Group_2844" data-name="Group 2844">
                      <g id="Group_2843" data-name="Group 2843">
                        <path id="Path_8444" data-name="Path 8444" d="M535.845,409.25a1.113,1.113,0,1,1-1.113-1.113A1.112,1.112,0,0,1,535.845,409.25Z" transform="translate(-533.619 -408.137)" fill="#e0e0e0"/>
                      </g>
                    </g>
                  </g>
                </g>
              </g>
            </g>
            <g id="Group_2855" data-name="Group 2855" transform="translate(2.138 25.274)">
              <g id="Group_2854" data-name="Group 2854">
                <g id="Group_2853" data-name="Group 2853">
                  <g id="Group_2852" data-name="Group 2852">
                    <g id="Group_2851" data-name="Group 2851">
                      <g id="Group_2850" data-name="Group 2850">
                        <g id="Group_2849" data-name="Group 2849">
                          <path id="Path_8445" data-name="Path 8445" d="M448.694,397.947h81.678a.108.108,0,0,0,0-.216H448.694a.108.108,0,0,0,0,.216Z" transform="translate(-448.59 -397.731)" fill="#e0e0e0"/>
                        </g>
                      </g>
                    </g>
                  </g>
                </g>
              </g>
            </g>
          </g>
        </g>
      </g>
      <g id="Group_2890" data-name="Group 2890" transform="translate(101.569 183.819)">
        <g id="Group_2889" data-name="Group 2889">
          <g id="Group_2864" data-name="Group 2864" transform="translate(1.951 4.227)">
            <g id="Group_2863" data-name="Group 2863">
              <g id="Group_2862" data-name="Group 2862">
                <g id="Group_2861" data-name="Group 2861">
                  <g id="Group_2860" data-name="Group 2860">
                    <g id="Group_2859" data-name="Group 2859">
                      <path id="Path_8446" data-name="Path 8446" d="M289.674,449.458v15.12h46.5v-15.12Z" transform="translate(-289.674 -449.458)" fill="#f5f5f5"/>
                    </g>
                  </g>
                </g>
              </g>
            </g>
          </g>
          <g id="Group_2870" data-name="Group 2870">
            <g id="Group_2869" data-name="Group 2869">
              <g id="Group_2868" data-name="Group 2868">
                <g id="Group_2867" data-name="Group 2867">
                  <g id="Group_2866" data-name="Group 2866">
                    <g id="Group_2865" data-name="Group 2865">
                      <path id="Path_8447" data-name="Path 8447" d="M285.5,440.417v4.227h50.074v-4.227H285.5Z" transform="translate(-285.502 -440.417)" fill="#e0e0e0"/>
                    </g>
                  </g>
                </g>
              </g>
            </g>
          </g>
          <g id="Group_2876" data-name="Group 2876" transform="translate(24.061)">
            <g id="Group_2875" data-name="Group 2875">
              <g id="Group_2874" data-name="Group 2874">
                <g id="Group_2873" data-name="Group 2873">
                  <g id="Group_2872" data-name="Group 2872">
                    <g id="Group_2871" data-name="Group 2871">
                      <path id="Path_8448" data-name="Path 8448" d="M337.938,459.763h23.411v-15.12h1.626v-4.227H336.963v3.836Z" transform="translate(-336.963 -440.417)" fill="#e0e0e0"/>
                    </g>
                  </g>
                </g>
              </g>
            </g>
          </g>
          <g id="Group_2882" data-name="Group 2882" transform="translate(8.454 6.665)">
            <g id="Group_2881" data-name="Group 2881">
              <g id="Group_2880" data-name="Group 2880">
                <g id="Group_2879" data-name="Group 2879">
                  <g id="Group_2878" data-name="Group 2878">
                    <g id="Group_2877" data-name="Group 2877">
                      <rect id="Rectangle_922" data-name="Rectangle 922" width="9.429" height="2.276" fill="#e0e0e0"/>
                    </g>
                  </g>
                </g>
              </g>
            </g>
          </g>
          <g id="Group_2888" data-name="Group 2888" transform="translate(7.24 11.786)">
            <g id="Group_2887" data-name="Group 2887">
              <g id="Group_2886" data-name="Group 2886">
                <g id="Group_2885" data-name="Group 2885">
                  <g id="Group_2884" data-name="Group 2884">
                    <g id="Group_2883" data-name="Group 2883">
                      <rect id="Rectangle_923" data-name="Rectangle 923" width="12.108" height="4.806" fill="#fff"/>
                    </g>
                  </g>
                </g>
              </g>
            </g>
          </g>
        </g>
      </g>
      <g id="Group_2922" data-name="Group 2922" transform="translate(108.722 164.492)">
        <g id="Group_2921" data-name="Group 2921">
          <g id="Group_2896" data-name="Group 2896" transform="translate(1.951 4.227)">
            <g id="Group_2895" data-name="Group 2895">
              <g id="Group_2894" data-name="Group 2894">
                <g id="Group_2893" data-name="Group 2893">
                  <g id="Group_2892" data-name="Group 2892">
                    <g id="Group_2891" data-name="Group 2891">
                      <path id="Path_8449" data-name="Path 8449" d="M304.974,408.122v15.12h46.5v-15.12Z" transform="translate(-304.974 -408.122)" fill="#f5f5f5"/>
                    </g>
                  </g>
                </g>
              </g>
            </g>
          </g>
          <g id="Group_2902" data-name="Group 2902">
            <g id="Group_2901" data-name="Group 2901">
              <g id="Group_2900" data-name="Group 2900">
                <g id="Group_2899" data-name="Group 2899">
                  <g id="Group_2898" data-name="Group 2898">
                    <g id="Group_2897" data-name="Group 2897">
                      <path id="Path_8450" data-name="Path 8450" d="M300.8,399.082v4.227h50.074v-4.227H300.8Z" transform="translate(-300.801 -399.082)" fill="#e0e0e0"/>
                    </g>
                  </g>
                </g>
              </g>
            </g>
          </g>
          <g id="Group_2908" data-name="Group 2908" transform="translate(24.061)">
            <g id="Group_2907" data-name="Group 2907">
              <g id="Group_2906" data-name="Group 2906">
                <g id="Group_2905" data-name="Group 2905">
                  <g id="Group_2904" data-name="Group 2904">
                    <g id="Group_2903" data-name="Group 2903">
                      <path id="Path_8451" data-name="Path 8451" d="M353.238,418.428h23.411v-15.12h1.626v-4.227H352.263v3.836Z" transform="translate(-352.263 -399.082)" fill="#e0e0e0"/>
                    </g>
                  </g>
                </g>
              </g>
            </g>
          </g>
          <g id="Group_2914" data-name="Group 2914" transform="translate(8.454 6.665)">
            <g id="Group_2913" data-name="Group 2913">
              <g id="Group_2912" data-name="Group 2912">
                <g id="Group_2911" data-name="Group 2911">
                  <g id="Group_2910" data-name="Group 2910">
                    <g id="Group_2909" data-name="Group 2909">
                      <rect id="Rectangle_924" data-name="Rectangle 924" width="9.429" height="2.276" fill="#e0e0e0"/>
                    </g>
                  </g>
                </g>
              </g>
            </g>
          </g>
          <g id="Group_2920" data-name="Group 2920" transform="translate(7.24 11.787)">
            <g id="Group_2919" data-name="Group 2919">
              <g id="Group_2918" data-name="Group 2918">
                <g id="Group_2917" data-name="Group 2917">
                  <g id="Group_2916" data-name="Group 2916">
                    <g id="Group_2915" data-name="Group 2915">
                      <rect id="Rectangle_925" data-name="Rectangle 925" width="12.108" height="4.806" fill="#fff"/>
                    </g>
                  </g>
                </g>
              </g>
            </g>
          </g>
        </g>
      </g>
      <g id="Group_2924" data-name="Group 2924" transform="translate(243.524 105.498)">
        <g id="Group_2923" data-name="Group 2923">
          <path id="Path_8452" data-name="Path 8452" d="M596.738,276.793a10.953,10.953,0,0,1,2.674-1.162l.551-2.646,4.47-.079.644,2.625a10.964,10.964,0,0,1,2.712,1.067l2.26-1.481,3.217,3.106-1.4,2.309a10.941,10.941,0,0,1,1.162,2.674l2.646.551.078,4.471-2.625.643a10.941,10.941,0,0,1-1.067,2.712l1.481,2.26-3.106,3.217-2.31-1.4a10.966,10.966,0,0,1-2.674,1.161l-.551,2.646-4.471.078-.643-2.625a10.94,10.94,0,0,1-2.712-1.067l-2.26,1.481L591.6,294.23l1.4-2.31a10.934,10.934,0,0,1-1.162-2.673l-2.646-.551-.078-4.47,2.625-.644a10.985,10.985,0,0,1,1.067-2.712l-1.481-2.26,3.105-3.217,2.31,1.4Zm2.383,5.956a4.8,4.8,0,1,0,6.782-.119A4.8,4.8,0,0,0,599.121,282.749Z" transform="translate(-589.111 -272.907)" fill="#ebebeb"/>
        </g>
      </g>
      <g id="Group_2927" data-name="Group 2927" transform="translate(96.226 104.216)">
        <g id="Group_2926" data-name="Group 2926">
          <g id="Group_2925" data-name="Group 2925">
            <path id="Path_8453" data-name="Path 8453" d="M287.37,276.938a19.1,19.1,0,0,1,4.66-2.025l.96-4.613,7.793-.137,1.121,4.576a19.1,19.1,0,0,1,4.729,1.86l3.939-2.582,5.607,5.414-2.442,4.026a19.071,19.071,0,0,1,2.025,4.661l4.612.959.137,7.793-4.576,1.122a19.089,19.089,0,0,1-1.86,4.728l2.581,3.939-5.413,5.607-4.027-2.442a19.091,19.091,0,0,1-4.661,2.025l-.96,4.612-7.793.137-1.122-4.576a19.094,19.094,0,0,1-4.728-1.86l-3.939,2.582-5.607-5.414,2.442-4.026a19.083,19.083,0,0,1-2.025-4.661l-4.612-.96-.137-7.793,4.576-1.122a19.1,19.1,0,0,1,1.86-4.728l-2.581-3.939,5.413-5.607,4.028,2.442Zm4.154,10.382a8.361,8.361,0,1,0,11.823-.208A8.361,8.361,0,0,0,291.523,287.32Z" transform="translate(-274.074 -270.164)" fill="#ebebeb"/>
          </g>
        </g>
      </g>
      <g id="Group_2929" data-name="Group 2929" transform="translate(152.12 61.941)">
        <g id="Group_2928" data-name="Group 2928">
          <path id="Path_8454" data-name="Path 8454" d="M400.089,183.044a9.3,9.3,0,0,1,2.268-.986l.467-2.244,3.792-.066.546,2.226a9.278,9.278,0,0,1,2.3.906l1.917-1.256,2.729,2.634-1.188,1.959a9.3,9.3,0,0,1,.986,2.268l2.244.467.066,3.792-2.227.546a9.282,9.282,0,0,1-.905,2.3l1.256,1.917-2.634,2.729-1.96-1.188a9.3,9.3,0,0,1-2.268.985l-.468,2.245-3.792.066-.546-2.227a9.279,9.279,0,0,1-2.3-.906l-1.917,1.256-2.729-2.634,1.188-1.96a9.276,9.276,0,0,1-.986-2.268l-2.245-.467-.066-3.792,2.227-.546a9.3,9.3,0,0,1,.905-2.3l-1.256-1.917,2.634-2.729,1.96,1.188Zm2.022,5.052a4.068,4.068,0,1,0,5.753-.1A4.068,4.068,0,0,0,402.11,188.1Z" transform="translate(-393.619 -179.748)" fill="#f5f5f5"/>
        </g>
      </g>
      <g id="Group_2931" data-name="Group 2931" transform="translate(227.942 48.341)">
        <g id="Group_2930" data-name="Group 2930">
          <path id="Path_8455" data-name="Path 8455" d="M444.395,202.928a16.285,16.285,0,0,1,3.975-1.728l.819-3.935,6.648-.116.957,3.9a16.283,16.283,0,0,1,4.034,1.587l3.36-2.2,4.784,4.619-2.082,3.434a16.288,16.288,0,0,1,1.727,3.976l3.934.819.117,6.648-3.9.957a16.306,16.306,0,0,1-1.587,4.033l2.2,3.36-4.618,4.784-3.435-2.083a16.276,16.276,0,0,1-3.976,1.727l-.819,3.935-6.648.116-.957-3.9a16.319,16.319,0,0,1-4.034-1.587l-3.36,2.2-4.784-4.619,2.083-3.435a16.279,16.279,0,0,1-1.728-3.976l-3.935-.819-.116-6.648,3.9-.957a16.306,16.306,0,0,1,1.587-4.033l-2.2-3.36,4.618-4.784,3.436,2.083Zm3.544,8.856a7.133,7.133,0,1,0,10.086-.177A7.132,7.132,0,0,0,447.938,211.784Z" transform="translate(-433.053 -197.149)" fill="#ebebeb"/>
        </g>
      </g>
      <g id="Group_2933" data-name="Group 2933" transform="translate(203.858 99.012)">
        <g id="Group_2932" data-name="Group 2932">
          <path id="Path_8456" data-name="Path 8456" d="M457.782,133.446a8.141,8.141,0,0,1,1.988-.864l.41-1.967,3.324-.058.478,1.952A8.136,8.136,0,0,1,466,133.3l1.68-1.1,2.392,2.309-1.041,1.717a8.136,8.136,0,0,1,.864,1.988l1.967.41.058,3.324-1.952.478a8.16,8.16,0,0,1-.793,2.017l1.1,1.68-2.309,2.392-1.717-1.041a8.137,8.137,0,0,1-1.988.864l-.409,1.967-3.324.058-.479-1.952a8.138,8.138,0,0,1-2.017-.793l-1.68,1.1-2.392-2.309L455,144.692a8.135,8.135,0,0,1-.864-1.988l-1.967-.41-.058-3.324,1.952-.478a8.15,8.15,0,0,1,.793-2.017l-1.1-1.68,2.309-2.392,1.718,1.042Zm1.772,4.428a3.566,3.566,0,1,0,5.043-.088A3.567,3.567,0,0,0,459.554,137.873Z" transform="translate(-452.111 -130.556)" fill="#ebebeb"/>
        </g>
      </g>
    </g>
    <g id="Group_2970" data-name="Group 2970" transform="translate(929.528 355.689)">
      <g id="Group_2969" data-name="Group 2969">
        <path id="Path_8467" data-name="Path 8467" d="M343.531,225.015a.753.753,0,0,1,.056-.147l.185-.422.309-.684a8.546,8.546,0,0,1,.458-.916l.621-1.123c.24-.4.53-.822.827-1.283s.663-.919,1.033-1.418.81-.989,1.262-1.51.98-1.016,1.506-1.556c.259-.274.563-.512.854-.773s.592-.525.907-.78l.987-.749c.168-.125.333-.258.508-.38l.537-.355c.363-.235.723-.486,1.1-.718l1.175-.668c.391-.238.816-.422,1.235-.629s.841-.424,1.29-.589l1.345-.54,1.406-.455a25.489,25.489,0,0,1,12.176-.723l1.45.286,1.4.377c.466.111.907.284,1.351.432s.885.288,1.3.478l1.247.524c.4.185.792.392,1.18.583l.576.288c.188.1.367.213.549.317l1.068.627c.343.216.668.449.993.667s.65.425.94.667c.586.473,1.182.888,1.68,1.367s1.013.889,1.432,1.349.856.854,1.194,1.286.687.805.973,1.176l.75,1.042a8.574,8.574,0,0,1,.563.855l.388.642.234.4a.759.759,0,0,1,.072.139.75.75,0,0,1-.094-.127l-.254-.385-.406-.628a9.072,9.072,0,0,0-.58-.84l-.763-1.025c-.29-.366-.632-.742-.984-1.158s-.772-.821-1.2-1.267-.924-.872-1.435-1.329c-.5-.472-1.094-.879-1.679-1.346-.289-.238-.618-.435-.938-.656s-.648-.443-.99-.656l-1.064-.617c-.181-.1-.36-.214-.547-.312l-.573-.284c-.386-.187-.771-.391-1.174-.573l-1.239-.516c-.413-.187-.854-.317-1.292-.471s-.879-.316-1.341-.425l-1.388-.371-1.438-.281a25.426,25.426,0,0,0-12.065.717l-1.395.449-1.334.533c-.446.163-.861.384-1.281.581s-.839.385-1.227.62l-1.169.659c-.378.229-.736.476-1.1.708l-.535.35c-.174.12-.338.251-.506.375l-.983.739c-.314.252-.608.518-.905.769s-.595.491-.854.763c-.526.532-1.068,1.008-1.508,1.535s-.9.989-1.268,1.489-.754.936-1.043,1.4-.595.869-.84,1.267l-.637,1.108a9.109,9.109,0,0,0-.476.9l-.329.672-.207.412A.758.758,0,0,1,343.531,225.015Z" transform="translate(-343.531 -208.185)" fill="#263238"/>
      </g>
    </g>
    <g id="Group_2972" data-name="Group 2972" transform="translate(939.208 353.208)">
      <g id="Group_2971" data-name="Group 2971">
        <path id="Path_8468" data-name="Path 8468" d="M364.236,206.729a3.26,3.26,0,0,1,.531-.367c.348-.227.872-.525,1.535-.864a24.338,24.338,0,0,1,11.225-2.617c.744.011,1.345.046,1.758.1a3.318,3.318,0,0,1,.639.094,3.246,3.246,0,0,1-.645,0c-.413-.02-1.012-.029-1.751-.018a26.883,26.883,0,0,0-11.15,2.6c-.668.317-1.2.59-1.563.791A3.275,3.275,0,0,1,364.236,206.729Z" transform="translate(-364.235 -202.878)" fill="#263238"/>
      </g>
    </g>
    <g id="Group_2978" data-name="Group 2978" transform="translate(862.554 403.561)">
      <g id="Group_2977" data-name="Group 2977">
        <path id="Path_8471" data-name="Path 8471" d="M249.407,310.571a.752.752,0,0,1-.056.147l-.185.422-.309.684a8.578,8.578,0,0,1-.458.915l-.621,1.124c-.24.4-.53.822-.827,1.283s-.663.919-1.033,1.418-.81.988-1.262,1.509-.98,1.017-1.506,1.557c-.259.274-.562.512-.854.773s-.592.524-.908.78l-.986.749c-.168.125-.333.259-.508.38l-.537.354c-.363.235-.723.487-1.1.718l-1.176.668c-.39.237-.816.421-1.235.629s-.841.423-1.29.588l-1.345.54-1.406.455a25.5,25.5,0,0,1-12.176.723l-1.45-.286-1.4-.377c-.466-.111-.908-.284-1.351-.432s-.885-.288-1.3-.478l-1.247-.525c-.4-.185-.792-.392-1.18-.582l-.576-.289c-.188-.1-.367-.212-.549-.317l-1.067-.627c-.343-.216-.668-.449-.994-.667s-.65-.425-.94-.667c-.586-.473-1.181-.888-1.679-1.367-.511-.464-1.013-.889-1.432-1.349s-.855-.853-1.193-1.286-.687-.805-.973-1.177l-.749-1.042a8.674,8.674,0,0,1-.563-.855l-.387-.643-.234-.4a.711.711,0,0,1-.072-.14.827.827,0,0,1,.094.127l.254.384.406.629a9.105,9.105,0,0,0,.58.839l.764,1.025c.29.366.632.742.983,1.158s.772.822,1.2,1.267.924.872,1.435,1.329c.5.472,1.094.88,1.679,1.347.289.238.618.435.938.656s.648.444.99.657l1.064.617c.181.1.36.214.547.312l.573.284c.386.188.772.391,1.174.573l1.239.516c.413.187.855.317,1.292.47s.879.316,1.341.425l1.389.371,1.438.281a25.427,25.427,0,0,0,12.065-.717l1.394-.449,1.335-.533c.446-.162.861-.384,1.281-.58s.839-.385,1.227-.62l1.169-.659c.377-.228.736-.476,1.1-.708l.535-.35c.174-.12.338-.251.505-.375l.983-.738c.314-.252.608-.518.905-.769s.595-.492.853-.763c.526-.533,1.068-1.008,1.508-1.535s.9-.989,1.268-1.49.754-.936,1.043-1.4.595-.869.84-1.267l.637-1.108a9.157,9.157,0,0,0,.476-.9l.329-.672.207-.412A.751.751,0,0,1,249.407,310.571Z" transform="translate(-200.289 -310.571)" fill="#263238"/>
      </g>
    </g>
    <g id="Group_2980" data-name="Group 2980" transform="translate(886.495 420.442)">
      <g id="Group_2979" data-name="Group 2979">
        <path id="Path_8472" data-name="Path 8472" d="M267.181,346.679a3.3,3.3,0,0,1-.531.367c-.348.227-.872.525-1.535.863a24.331,24.331,0,0,1-11.225,2.617c-.744-.011-1.345-.047-1.758-.1a3.242,3.242,0,0,1-.639-.094,3.326,3.326,0,0,1,.645,0c.413.02,1.012.029,1.751.018a26.882,26.882,0,0,0,11.15-2.6c.667-.317,1.2-.59,1.563-.791A3.27,3.27,0,0,1,267.181,346.679Z" transform="translate(-251.493 -346.678)" fill="#263238"/>
      </g>
    </g>
    <g id="Floor" transform="translate(790.469 483.496)">
      <g id="Group_2992" data-name="Group 2992">
        <g id="Group_2991" data-name="Group 2991">
          <path id="Path_8486" data-name="Path 8486" d="M351.474,481.656c0,.067-66.672.122-148.9.122-82.253,0-148.911-.054-148.911-.122s66.658-.122,148.911-.122C284.8,481.534,351.474,481.589,351.474,481.656Z" transform="translate(-53.667 -481.534)" fill="#263238"/>
        </g>
      </g>
    </g>
    <g id="Group_4092" data-name="Group 4092" transform="translate(-10388.591 8451.797)">
      <g id="Group_3481" data-name="Group 3481" transform="translate(11196.698 -8174.257)">
        <rect id="Rectangle_931" data-name="Rectangle 931" width="158.821" height="206.078" rx="6.158" transform="translate(0 0)" fill="#7ab1db"/>
      </g>
      <g id="Group_3482" data-name="Group 3482" transform="translate(11199.768 -8172.139)">
        <path id="Path_8572" data-name="Path 8572" d="M1028.18,572.771H883.735a4.182,4.182,0,0,0-4.118,4.244V769.673a4.181,4.181,0,0,0,4.118,4.243H1028.18a4.182,4.182,0,0,0,4.118-4.243V577.015A4.183,4.183,0,0,0,1028.18,572.771Z" transform="translate(-879.617 -572.771)" fill="#fff"/>
      </g>
      <g id="Group_3655" data-name="Group 3655" transform="translate(11225.577 -8186.275)">
        <circle id="Ellipse_322" data-name="Ellipse 322" cx="4.477" cy="4.477" r="4.477" transform="translate(0 0)" fill="#fff"/>
      </g>
      <g id="Group_3656" data-name="Group 3656" transform="translate(11375.671 -8106.988)">
        <path id="Path_8665" data-name="Path 8665" d="M1166.51,683.507a4.477,4.477,0,1,1,4.477,4.477A4.477,4.477,0,0,1,1166.51,683.507Z" transform="translate(-1166.51 -679.03)" fill="#fff"/>
      </g>
      <g id="Group_3657" data-name="Group 3657" transform="translate(11155.832 -8060.806)">
        <path id="Path_8666" data-name="Path 8666" d="M807.958,758.83a4.477,4.477,0,1,1,4.477,4.477A4.477,4.477,0,0,1,807.958,758.83Z" transform="translate(-807.958 -754.353)" fill="#fff"/>
      </g>
      <g id="Group_3658" data-name="Group 3658" transform="translate(11212.266 -8188.515)">
        <path id="Path_8667" data-name="Path 8667" d="M900,548.3a2.239,2.239,0,1,1,2.239,2.238A2.239,2.239,0,0,1,900,548.3Z" transform="translate(-899.998 -546.062)" fill="#fff"/>
      </g>
      <g id="Group_3659" data-name="Group 3659" transform="translate(11367.776 -8113.822)">
        <path id="Path_8668" data-name="Path 8668" d="M1153.636,670.124a2.239,2.239,0,1,1,2.239,2.239A2.239,2.239,0,0,1,1153.636,670.124Z" transform="translate(-1153.636 -667.885)" fill="#fff"/>
      </g>
      <g id="Group_3660" data-name="Group 3660" transform="translate(11392.753 -8123.481)">
        <path id="Path_8669" data-name="Path 8669" d="M1194.372,654.368a2.239,2.239,0,1,1,2.239,2.238A2.239,2.239,0,0,1,1194.372,654.368Z" transform="translate(-1194.372 -652.129)" fill="#fff"/>
      </g>
      <g id="Group_3661" data-name="Group 3661" transform="translate(11391.693 -8023.341)">
        <path id="Path_8670" data-name="Path 8670" d="M1192.643,817.7a2.238,2.238,0,1,1,2.238,2.238A2.238,2.238,0,0,1,1192.643,817.7Z" transform="translate(-1192.643 -815.457)" fill="#fff"/>
      </g>
      <g id="Group_3662" data-name="Group 3662" transform="translate(11181.986 -8055.857)">
        <path id="Path_8671" data-name="Path 8671" d="M850.615,764.662a2.239,2.239,0,1,1,2.239,2.239A2.239,2.239,0,0,1,850.615,764.662Z" transform="translate(-850.615 -762.423)" fill="#fff"/>
      </g>
      <g id="Group_3663" data-name="Group 3663" transform="translate(11147.467 -8034.415)">
        <path id="Path_8672" data-name="Path 8672" d="M794.315,799.634a2.239,2.239,0,1,1,2.238,2.238A2.239,2.239,0,0,1,794.315,799.634Z" transform="translate(-794.315 -797.395)" fill="#fff"/>
      </g>
      <g id="Group_3736" data-name="Group 3736" transform="translate(11265.858 -8165.353)">
        <g id="Group_3732" data-name="Group 3732" transform="translate(0 0)">
          <circle id="Ellipse_323" data-name="Ellipse 323" cx="24.63" cy="24.63" r="24.63" transform="matrix(0.407, -0.914, 0.914, 0.407, 0, 45.003)" fill="#bcd7eb"/>
        </g>
        <g id="Group_3735" data-name="Group 3735" transform="translate(20.649 14.049)">
          <g id="Group_3733" data-name="Group 3733" transform="translate(0 0)">
            <circle id="Ellipse_324" data-name="Ellipse 324" cx="9.562" cy="9.562" r="9.562" transform="translate(0 4.394) rotate(-13.283)" fill="#fff"/>
          </g>
          <g id="Group_3734" data-name="Group 3734" transform="translate(0.032 20.703)">
            <path id="Path_8692" data-name="Path 8692" d="M487.257,668.157a2.081,2.081,0,0,0-2.6.037,9.557,9.557,0,0,1-11.926.124,2.058,2.058,0,0,0-2.609.045,9.03,9.03,0,0,0-3.1,7.14v.28a2.9,2.9,0,0,0,2.9,2.9h17.868a2.9,2.9,0,0,0,2.9-2.9v-.28A8.935,8.935,0,0,0,487.257,668.157Z" transform="translate(-467.016 -667.719)" fill="#fff"/>
          </g>
        </g>
      </g>
      <g id="Group_4095" data-name="Group 4095" transform="translate(-0.225 6)">
        <g id="Group_3737" data-name="Group 3737" transform="translate(11271.936 -8101.874)">
          <path id="Path_8693" data-name="Path 8693" d="M493.518,716.68H444.254a1.055,1.055,0,0,1-1.055-1.055h0a1.055,1.055,0,0,1,1.055-1.055h49.264a1.054,1.054,0,0,1,1.055,1.055h0A1.054,1.054,0,0,1,493.518,716.68Z" transform="translate(-443.199 -714.571)" fill="#b7d2e6"/>
        </g>
        <g id="Group_3738" data-name="Group 3738" transform="translate(11271.936 -8095.698)">
          <path id="Path_8694" data-name="Path 8694" d="M456.08,726.754H444.254A1.055,1.055,0,0,1,443.2,725.7h0a1.055,1.055,0,0,1,1.055-1.055H456.08a1.055,1.055,0,0,1,1.055,1.055h0A1.054,1.054,0,0,1,456.08,726.754Z" transform="translate(-443.199 -724.645)" fill="#b7d2e6"/>
        </g>
        <g id="Group_3739" data-name="Group 3739" transform="translate(11288.585 -8095.698)">
          <path id="Path_8695" data-name="Path 8695" d="M503.8,726.754H471.406a1.054,1.054,0,0,1-1.055-1.054h0a1.055,1.055,0,0,1,1.055-1.055H503.8a1.054,1.054,0,0,1,1.055,1.055h0A1.054,1.054,0,0,1,503.8,726.754Z" transform="translate(-470.351 -724.645)" fill="#b7d2e6"/>
        </g>
        <g id="Group_3740" data-name="Group 3740" transform="translate(11271.936 -8088.918)">
          <path id="Path_8696" data-name="Path 8696" d="M493.518,737.811H444.254a1.055,1.055,0,0,1-1.055-1.055h0a1.055,1.055,0,0,1,1.055-1.055h49.264a1.054,1.054,0,0,1,1.055,1.055h0A1.055,1.055,0,0,1,493.518,737.811Z" transform="translate(-443.199 -735.702)" fill="#b7d2e6"/>
        </g>
        <g id="Group_3741" data-name="Group 3741" transform="translate(11271.936 -8076.414)">
          <path id="Path_8697" data-name="Path 8697" d="M493.518,758.206H444.254a1.055,1.055,0,0,1-1.055-1.054h0a1.055,1.055,0,0,1,1.055-1.055h49.264a1.054,1.054,0,0,1,1.055,1.055h0A1.054,1.054,0,0,1,493.518,758.206Z" transform="translate(-443.199 -756.097)" fill="#b7d2e6"/>
        </g>
        <g id="Group_3742" data-name="Group 3742" transform="translate(11271.936 -8082.742)">
          <path id="Path_8698" data-name="Path 8698" d="M456.08,747.886H444.254a1.055,1.055,0,0,1-1.055-1.055h0a1.055,1.055,0,0,1,1.055-1.055H456.08a1.055,1.055,0,0,1,1.055,1.055h0A1.055,1.055,0,0,1,456.08,747.886Z" transform="translate(-443.199 -745.777)" fill="#b7d2e6"/>
        </g>
        <g id="Group_3743" data-name="Group 3743" transform="translate(11288.585 -8082.742)">
          <path id="Path_8699" data-name="Path 8699" d="M503.8,747.886H471.406a1.055,1.055,0,0,1-1.055-1.055h0a1.055,1.055,0,0,1,1.055-1.055H503.8a1.055,1.055,0,0,1,1.055,1.055h0A1.054,1.054,0,0,1,503.8,747.886Z" transform="translate(-470.351 -745.777)" fill="#b7d2e6"/>
        </g>
        <g id="Group_3744" data-name="Group 3744" transform="translate(11271.936 -8070.539)">
          <path id="Path_8700" data-name="Path 8700" d="M456.08,767.789H444.254a1.055,1.055,0,0,1-1.055-1.055h0a1.055,1.055,0,0,1,1.055-1.055H456.08a1.055,1.055,0,0,1,1.055,1.055h0A1.055,1.055,0,0,1,456.08,767.789Z" transform="translate(-443.199 -765.68)" fill="#b7d2e6"/>
        </g>
        <g id="Group_3745" data-name="Group 3745" transform="translate(11288.585 -8070.539)">
          <path id="Path_8701" data-name="Path 8701" d="M503.8,767.789H471.406a1.055,1.055,0,0,1-1.055-1.055h0a1.055,1.055,0,0,1,1.055-1.055H503.8a1.054,1.054,0,0,1,1.055,1.055h0A1.054,1.054,0,0,1,503.8,767.789Z" transform="translate(-470.351 -765.68)" fill="#b7d2e6"/>
        </g>
      </g>
      <g id="Group_3746" data-name="Group 3746" transform="translate(11225.613 -8041.171)">
        <path id="Path_8702" data-name="Path 8702" d="M262.154,705.264l-5.662-.017a2.2,2.2,0,0,1-2.135-2.265l.012-4.389a2.2,2.2,0,0,1,2.147-2.253l5.662.017a2.2,2.2,0,0,1,2.135,2.265l-.012,4.389A2.2,2.2,0,0,1,262.154,705.264Z" transform="translate(-254.357 -696.34)" fill="#b7d2e6"/>
      </g>
      <g id="Group_3747" data-name="Group 3747" transform="translate(11225.577 -8028.184)">
        <path id="Path_8703" data-name="Path 8703" d="M262.1,726.447l-5.662-.016a2.2,2.2,0,0,1-2.135-2.266l.012-4.388a2.2,2.2,0,0,1,2.147-2.253l5.662.017a2.2,2.2,0,0,1,2.135,2.265l-.012,4.389A2.2,2.2,0,0,1,262.1,726.447Z" transform="translate(-254.3 -717.523)" fill="#b7d2e6"/>
      </g>
      <g id="Group_3748" data-name="Group 3748" transform="translate(11227.519 -8039.349)">
        <path id="Path_8704" data-name="Path 8704" d="M262.442,699.313l-2.357,3.415-1.629-1.606-.988,1.3,2.765,1.921,3.548-3.957Z" transform="translate(-257.468 -699.313)" fill="#fff"/>
      </g>
      <g id="Group_3757" data-name="Group 3757" transform="translate(11240.977 -8039.902)">
        <g id="Group_3750" data-name="Group 3750" transform="translate(0.015)">
          <g id="Group_3749" data-name="Group 3749">
            <path id="Path_8705" data-name="Path 8705" d="M359.221,699.47l-80.345-.12c-.482,0-.872-.212-.871-.471h0c0-.259.394-.469.877-.468l80.344.12c.483,0,.872.212.871.471h0C360.1,699.261,359.7,699.471,359.221,699.47Z" transform="translate(-278.005 -698.411)" fill="#d0e3f2"/>
          </g>
        </g>
        <g id="Group_3752" data-name="Group 3752" transform="translate(0 5.586)">
          <g id="Group_3751" data-name="Group 3751">
            <path id="Path_8706" data-name="Path 8706" d="M307.767,708.546,278.3,708.46c-.177,0-.32-.212-.319-.47h0c0-.26.145-.469.322-.469l29.467.086c.177,0,.319.211.319.47h0C308.088,708.337,307.944,708.546,307.767,708.546Z" transform="translate(-277.981 -707.521)" fill="#d0e3f2"/>
          </g>
        </g>
        <g id="Group_3754" data-name="Group 3754" transform="translate(0.008 2.706)">
          <g id="Group_3753" data-name="Group 3753">
            <path id="Path_8707" data-name="Path 8707" d="M295.167,703.811l-16.725-.049a.459.459,0,0,1-.448-.471h0a.46.46,0,0,1,.451-.468l16.726.049a.459.459,0,0,1,.448.47h0A.459.459,0,0,1,295.167,703.811Z" transform="translate(-277.994 -702.824)" fill="#d0e3f2"/>
          </g>
        </g>
        <g id="Group_3756" data-name="Group 3756" transform="translate(41.092 2.763)">
          <g id="Group_3755" data-name="Group 3755">
            <path id="Path_8708" data-name="Path 8708" d="M315.375,703.871l-4.965-.015a.46.46,0,0,1-.448-.47h0a.46.46,0,0,1,.451-.468l4.965.015a.46.46,0,0,1,.448.471h0A.46.46,0,0,1,315.375,703.871Z" transform="translate(-309.962 -702.917)" fill="#d0e3f2"/>
          </g>
        </g>
      </g>
      <g id="Group_3766" data-name="Group 3766" transform="translate(11240.977 -8026.743)">
        <g id="Group_3759" data-name="Group 3759" transform="translate(0.015)">
          <g id="Group_3758" data-name="Group 3758">
            <path id="Path_8709" data-name="Path 8709" d="M359.129,720.932l-80.31-.121c-.483,0-.872-.211-.871-.47h0c0-.259.393-.469.876-.468l80.31.121c.483,0,.873.211.871.471h0C360,720.722,359.611,720.932,359.129,720.932Z" transform="translate(-277.948 -719.872)" fill="#d0e3f2"/>
          </g>
        </g>
        <g id="Group_3761" data-name="Group 3761" transform="translate(0 5.586)">
          <g id="Group_3760" data-name="Group 3760">
            <path id="Path_8710" data-name="Path 8710" d="M307.709,730.008l-29.467-.087c-.177,0-.32-.211-.319-.47h0c0-.259.145-.468.322-.468l29.467.086c.177,0,.32.211.32.47h0C308.031,729.8,307.887,730.008,307.709,730.008Z" transform="translate(-277.923 -728.983)" fill="#d0e3f2"/>
          </g>
        </g>
        <g id="Group_3763" data-name="Group 3763" transform="translate(0.008 2.706)">
          <g id="Group_3762" data-name="Group 3762">
            <path id="Path_8711" data-name="Path 8711" d="M295.11,725.273l-16.726-.048a.46.46,0,0,1-.448-.471h0a.459.459,0,0,1,.451-.468l16.726.049a.46.46,0,0,1,.448.471h0A.459.459,0,0,1,295.11,725.273Z" transform="translate(-277.936 -724.286)" fill="#d0e3f2"/>
          </g>
        </g>
        <g id="Group_3765" data-name="Group 3765" transform="translate(41.074 2.763)">
          <g id="Group_3764" data-name="Group 3764">
            <path id="Path_8712" data-name="Path 8712" d="M315.318,725.332l-4.965-.014a.459.459,0,0,1-.448-.471h0a.459.459,0,0,1,.451-.468l4.965.015a.46.46,0,0,1,.448.47h0A.459.459,0,0,1,315.318,725.332Z" transform="translate(-309.905 -724.379)" fill="#d0e3f2"/>
          </g>
        </g>
      </g>
      <g id="Group_3767" data-name="Group 3767" transform="translate(11227.821 -8026.439)">
        <path id="Path_8713" data-name="Path 8713" d="M262.242,725.576l.792-.855-1.983-1.737L263,721.21l-.807-.841-1.721,2.032-1.722-2-.792.855,1.944,1.737-1.913,1.774.806.841,1.687-2.032Z" transform="translate(-257.961 -720.369)" fill="#fff"/>
      </g>
      <g id="Group_3769" data-name="Group 3769" transform="translate(11225.613 -8014.279)">
        <path id="Path_8714" data-name="Path 8714" d="M262.154,749.124l-5.662-.016a2.2,2.2,0,0,1-2.135-2.266l.012-4.389a2.2,2.2,0,0,1,2.147-2.253l5.662.016a2.2,2.2,0,0,1,2.135,2.266l-.012,4.389A2.2,2.2,0,0,1,262.154,749.124Z" transform="translate(-254.357 -740.2)" fill="#b7d2e6"/>
      </g>
      <g id="Group_3770" data-name="Group 3770" transform="translate(11225.577 -8001.291)">
        <path id="Path_8715" data-name="Path 8715" d="M262.1,770.307l-5.662-.016a2.2,2.2,0,0,1-2.135-2.266l.012-4.389a2.2,2.2,0,0,1,2.147-2.253l5.662.017a2.2,2.2,0,0,1,2.135,2.265l-.012,4.39A2.2,2.2,0,0,1,262.1,770.307Z" transform="translate(-254.3 -761.383)" fill="#b7d2e6"/>
      </g>
      <g id="Group_3771" data-name="Group 3771" transform="translate(11227.519 -8012.457)">
        <path id="Path_8716" data-name="Path 8716" d="M262.442,743.173l-2.357,3.416-1.629-1.606-.988,1.3,2.765,1.921,3.548-3.957Z" transform="translate(-257.468 -743.173)" fill="#fff"/>
      </g>
      <g id="Group_3780" data-name="Group 3780" transform="translate(11240.977 -8013.01)">
        <g id="Group_3773" data-name="Group 3773" transform="translate(0.015)">
          <g id="Group_3772" data-name="Group 3772">
            <path id="Path_8717" data-name="Path 8717" d="M359.221,743.331l-80.345-.121c-.482,0-.872-.212-.871-.471h0c0-.259.394-.468.877-.468l80.344.121c.483,0,.872.212.871.47h0C360.1,743.122,359.7,743.331,359.221,743.331Z" transform="translate(-278.005 -742.271)" fill="#d0e3f2"/>
          </g>
        </g>
        <g id="Group_3775" data-name="Group 3775" transform="translate(0 5.586)">
          <g id="Group_3774" data-name="Group 3774">
            <path id="Path_8718" data-name="Path 8718" d="M307.767,752.406,278.3,752.32c-.177,0-.32-.211-.319-.47h0c0-.259.145-.469.322-.469l29.467.086c.177,0,.319.211.319.47h0C308.088,752.2,307.944,752.406,307.767,752.406Z" transform="translate(-277.981 -751.381)" fill="#d0e3f2"/>
          </g>
        </g>
        <g id="Group_3777" data-name="Group 3777" transform="translate(0.008 2.706)">
          <g id="Group_3776" data-name="Group 3776">
            <path id="Path_8719" data-name="Path 8719" d="M295.167,747.672l-16.725-.049a.459.459,0,0,1-.448-.47h0a.46.46,0,0,1,.451-.468l16.726.049a.46.46,0,0,1,.448.471h0A.46.46,0,0,1,295.167,747.672Z" transform="translate(-277.994 -746.684)" fill="#d0e3f2"/>
          </g>
        </g>
        <g id="Group_3779" data-name="Group 3779" transform="translate(41.092 2.763)">
          <g id="Group_3778" data-name="Group 3778">
            <path id="Path_8720" data-name="Path 8720" d="M315.375,747.731l-4.965-.015a.459.459,0,0,1-.448-.47h0a.459.459,0,0,1,.451-.468l4.965.014a.46.46,0,0,1,.448.471h0A.459.459,0,0,1,315.375,747.731Z" transform="translate(-309.962 -746.778)" fill="#d0e3f2"/>
          </g>
        </g>
      </g>
      <g id="Group_3789" data-name="Group 3789" transform="translate(11240.977 -7999.851)">
        <g id="Group_3782" data-name="Group 3782" transform="translate(0.015)">
          <g id="Group_3781" data-name="Group 3781">
            <path id="Path_8721" data-name="Path 8721" d="M359.129,764.792l-80.31-.12c-.483,0-.872-.212-.871-.471h0c0-.259.393-.469.876-.468l80.31.12c.483,0,.873.212.871.471h0C360,764.583,359.611,764.793,359.129,764.792Z" transform="translate(-277.948 -763.733)" fill="#d0e3f2"/>
          </g>
        </g>
        <g id="Group_3784" data-name="Group 3784" transform="translate(0 5.586)">
          <g id="Group_3783" data-name="Group 3783">
            <path id="Path_8722" data-name="Path 8722" d="M307.709,773.868l-29.467-.086c-.177,0-.32-.212-.319-.47h0c0-.259.145-.469.322-.468l29.467.086c.177,0,.32.211.32.47h0C308.031,773.658,307.887,773.868,307.709,773.868Z" transform="translate(-277.923 -772.843)" fill="#d0e3f2"/>
          </g>
        </g>
        <g id="Group_3786" data-name="Group 3786" transform="translate(0.008 2.706)">
          <g id="Group_3785" data-name="Group 3785">
            <path id="Path_8723" data-name="Path 8723" d="M295.11,769.133l-16.726-.048a.46.46,0,0,1-.448-.471h0a.459.459,0,0,1,.451-.468l16.726.049a.459.459,0,0,1,.448.47h0A.459.459,0,0,1,295.11,769.133Z" transform="translate(-277.936 -768.146)" fill="#d0e3f2"/>
          </g>
        </g>
        <g id="Group_3788" data-name="Group 3788" transform="translate(41.074 2.763)">
          <g id="Group_3787" data-name="Group 3787">
            <path id="Path_8724" data-name="Path 8724" d="M315.318,769.193l-4.965-.015a.459.459,0,0,1-.448-.47h0a.46.46,0,0,1,.451-.469l4.965.015a.46.46,0,0,1,.448.471h0A.46.46,0,0,1,315.318,769.193Z" transform="translate(-309.905 -768.239)" fill="#d0e3f2"/>
          </g>
        </g>
      </g>
      <g id="Group_3790" data-name="Group 3790" transform="translate(11227.821 -7999.546)">
        <path id="Path_8725" data-name="Path 8725" d="M262.242,769.436l.792-.855-1.983-1.736L263,765.07l-.807-.841-1.721,2.033-1.722-2-.792.856,1.944,1.737-1.913,1.773.806.841,1.687-2.032Z" transform="translate(-257.961 -764.229)" fill="#fff"/>
      </g>
      <g id="Group_4094" data-name="Group 4094">
        <g id="Group_3792" data-name="Group 3792" transform="translate(11224.706 -8113.572)">
          <rect id="Rectangle_940" data-name="Rectangle 940" width="6.026" height="4.713" rx="1.32" transform="translate(0 0)" fill="#bcd7eb"/>
        </g>
        <g id="Group_3793" data-name="Group 3793" transform="translate(11232.842 -8113.572)">
          <rect id="Rectangle_941" data-name="Rectangle 941" width="6.026" height="4.713" rx="1.32" transform="translate(0 0)" fill="#bcd7eb"/>
        </g>
        <g id="Group_3794" data-name="Group 3794" transform="translate(11240.977 -8113.572)">
          <rect id="Rectangle_942" data-name="Rectangle 942" width="6.026" height="4.713" rx="1.32" transform="translate(0 0)" fill="#bcd7eb"/>
        </g>
        <g id="Group_3795" data-name="Group 3795" transform="translate(11224.706 -8105.361)">
          <rect id="Rectangle_943" data-name="Rectangle 943" width="6.026" height="4.713" rx="1.32" transform="translate(0 0)" fill="#bcd7eb"/>
        </g>
        <g id="Group_3796" data-name="Group 3796" transform="translate(11232.842 -8105.361)">
          <rect id="Rectangle_944" data-name="Rectangle 944" width="6.026" height="4.713" rx="1.32" transform="translate(0 0)" fill="#bcd7eb"/>
        </g>
        <g id="Group_3797" data-name="Group 3797" transform="translate(11240.977 -8105.361)">
          <rect id="Rectangle_945" data-name="Rectangle 945" width="6.026" height="4.713" rx="1.32" transform="translate(0 0)" fill="#bcd7eb"/>
        </g>
        <g id="Group_3798" data-name="Group 3798" transform="translate(11224.706 -8146.057)">
          <rect id="Rectangle_946" data-name="Rectangle 946" width="6.026" height="4.713" rx="1.32" transform="translate(0 0)" fill="#bcd7eb"/>
        </g>
        <g id="Group_3799" data-name="Group 3799" transform="translate(11232.842 -8146.057)">
          <rect id="Rectangle_947" data-name="Rectangle 947" width="6.026" height="4.713" rx="1.32" transform="translate(0 0)" fill="#bcd7eb"/>
        </g>
        <g id="Group_3800" data-name="Group 3800" transform="translate(11240.977 -8146.057)">
          <rect id="Rectangle_948" data-name="Rectangle 948" width="6.026" height="4.713" rx="1.32" transform="translate(0 0)" fill="#bcd7eb"/>
        </g>
        <g id="Group_3801" data-name="Group 3801" transform="translate(11224.706 -8137.846)">
          <rect id="Rectangle_949" data-name="Rectangle 949" width="6.026" height="4.713" rx="1.32" transform="translate(0 0)" fill="#bcd7eb"/>
        </g>
        <g id="Group_3802" data-name="Group 3802" transform="translate(11232.842 -8137.846)">
          <rect id="Rectangle_950" data-name="Rectangle 950" width="6.026" height="4.713" rx="1.32" transform="translate(0 0)" fill="#bcd7eb"/>
        </g>
        <g id="Group_3803" data-name="Group 3803" transform="translate(11240.977 -8137.846)">
          <rect id="Rectangle_951" data-name="Rectangle 951" width="6.026" height="4.713" rx="1.32" transform="translate(0 0)" fill="#bcd7eb"/>
        </g>
        <g id="Group_3804" data-name="Group 3804" transform="translate(11224.706 -8096.375)">
          <rect id="Rectangle_952" data-name="Rectangle 952" width="21.845" height="33.144" transform="translate(0 0)" fill="#bcd7eb"/>
        </g>
      </g>
    </g>
    <g id="Group_4093" data-name="Group 4093" transform="translate(-66.529 -21.722)">
      <g id="Group_2974" data-name="Group 2974" transform="translate(1002.724 415.887)">
        <g id="Group_2973" data-name="Group 2973">
          <path id="Path_8469" data-name="Path 8469" d="M561.766,312.8a1,1,0,0,1-.07.186l-.235.535-.391.867a10.891,10.891,0,0,1-.58,1.16l-.787,1.424c-.3.51-.672,1.042-1.048,1.627-.36.595-.84,1.165-1.309,1.8s-1.026,1.253-1.6,1.913c-.556.678-1.243,1.289-1.909,1.973-.328.348-.713.649-1.083.98s-.75.664-1.15.988l-1.25.949c-.213.158-.422.327-.644.481l-.681.449c-.46.3-.917.617-1.4.91l-1.49.847c-.5.3-1.034.534-1.565.8s-1.066.536-1.635.746l-1.7.684-1.781.577a32.325,32.325,0,0,1-15.432.917l-1.838-.363-1.774-.478c-.59-.14-1.15-.36-1.712-.548s-1.122-.366-1.649-.606l-1.58-.664c-.513-.235-1-.5-1.5-.738l-.729-.366c-.238-.126-.466-.269-.7-.4l-1.353-.795c-.435-.274-.846-.569-1.259-.845s-.824-.538-1.191-.845c-.743-.6-1.5-1.125-2.129-1.733-.647-.587-1.284-1.126-1.815-1.71s-1.084-1.082-1.513-1.63-.87-1.02-1.233-1.492l-.95-1.32a10.912,10.912,0,0,1-.713-1.083l-.491-.814-.3-.5a.963.963,0,0,1-.092-.177.919.919,0,0,1,.119.161l.322.487.515.8a11.416,11.416,0,0,0,.735,1.064l.967,1.3c.368.463.8.94,1.247,1.468s.979,1.041,1.522,1.6,1.171,1.106,1.819,1.685c.632.6,1.387,1.115,2.128,1.706.366.3.783.551,1.188.831s.821.562,1.255.833l1.348.782c.23.13.456.271.693.4l.726.36c.49.238.978.5,1.487.727l1.57.654c.524.237,1.083.4,1.637.6s1.114.4,1.7.539l1.76.47,1.822.356a32.224,32.224,0,0,0,15.292-.908l1.768-.568,1.691-.676c.566-.206,1.092-.487,1.624-.735s1.063-.488,1.555-.786l1.481-.835c.479-.289.933-.6,1.391-.9l.678-.443c.221-.152.429-.318.641-.475l1.246-.936c.4-.319.772-.657,1.148-.975s.753-.623,1.082-.966c.666-.675,1.354-1.277,1.911-1.946.575-.652,1.146-1.253,1.607-1.888s.956-1.186,1.321-1.774c.38-.577.754-1.1,1.064-1.605l.807-1.4a11.405,11.405,0,0,0,.6-1.144l.417-.852.262-.522A.926.926,0,0,1,561.766,312.8Z" transform="translate(-499.514 -312.796)" fill="#263238"/>
        </g>
      </g>
      <g id="Group_2976" data-name="Group 2976" transform="translate(1033.067 437.283)">
        <g id="Group_2975" data-name="Group 2975">
          <path id="Path_8470" data-name="Path 8470" d="M570.6,348.9a4.163,4.163,0,0,1-.674.465c-.441.287-1.105.665-1.944,1.094a30.838,30.838,0,0,1-14.227,3.317c-.942-.014-1.7-.059-2.228-.121a4.133,4.133,0,0,1-.81-.12,4.216,4.216,0,0,1,.818,0c.524.025,1.284.037,2.219.023a34.071,34.071,0,0,0,14.132-3.295c.846-.4,1.522-.748,1.98-1A4.107,4.107,0,0,1,570.6,348.9Z" transform="translate(-550.718 -348.902)" fill="#263238"/>
        </g>
      </g>
      <g id="Group_2968" data-name="Group 2968" transform="translate(1001.469 362.394)">
        <g id="Group_2962" data-name="Group 2962">
          <g id="Group_2961" data-name="Group 2961">
            <g id="Group_2960" data-name="Group 2960">
              <path id="Path_8465" data-name="Path 8465" d="M515.938,231.972a26.627,26.627,0,0,1,6.5-2.825l1.339-6.432,10.869-.191,1.564,6.381A26.63,26.63,0,0,1,542.8,231.5l5.493-3.6,7.82,7.551-3.4,5.615a26.627,26.627,0,0,1,2.824,6.5l6.432,1.339.191,10.869-6.381,1.564a26.632,26.632,0,0,1-2.594,6.594l3.6,5.493-7.549,7.82-5.616-3.4a26.611,26.611,0,0,1-6.5,2.824l-1.339,6.433-10.868.19-1.564-6.381a26.646,26.646,0,0,1-6.594-2.594l-5.493,3.6-7.82-7.55,3.4-5.615a26.63,26.63,0,0,1-2.824-6.5l-6.432-1.339-.191-10.868,6.382-1.565a26.632,26.632,0,0,1,2.594-6.594l-3.6-5.493,7.549-7.82,5.616,3.406Z" transform="translate(-497.396 -222.524)" fill="#5ca9eb"/>
            </g>
          </g>
        </g>
        <g id="Group_2967" data-name="Group 2967" transform="translate(16.463 21.118)">
          <g id="Group_2966" data-name="Group 2966">
            <g id="Group_2965" data-name="Group 2965">
              <g id="Group_2964" data-name="Group 2964">
                <g id="Group_2963" data-name="Group 2963">
                  <path id="Path_8466" data-name="Path 8466" d="M525.178,270.359l4.165-4.165,8.033,7.141,15.769-15.174,3.868,4.165-20.232,19.042Z" transform="translate(-525.178 -258.16)" fill="#fff"/>
                </g>
              </g>
            </g>
          </g>
        </g>
      </g>
    </g>
    <g id="Plant" transform="translate(1014.041 420.156)">
      <g id="Group_3466" data-name="Group 3466">
        <g id="Group_3461" data-name="Group 3461">
          <g id="Group_3441" data-name="Group 3441" transform="translate(0 11.192)">
            <path id="Path_8551" data-name="Path 8551" d="M454.834,403.7s-9.95-11.452-13.7-22.9-1.971-10.138-1.971-10.138,5.069,11.125,8.917,16.5,10.7,13.258,10.7,13.258Z" transform="translate(-438.734 -370.617)" fill="#5ca9eb"/>
          </g>
          <g id="Group_3442" data-name="Group 3442" transform="translate(16.996 12.725)">
            <path id="Path_8552" data-name="Path 8552" d="M476.171,374.193a.58.58,0,0,0-1.079.369c.606,4.022,1.918,13.462,1.867,19.585-.067,7.953,0,11.028,0,11.028H481.1s-.735-16.442-1.671-21.454A34.4,34.4,0,0,0,476.171,374.193Z" transform="translate(-475.084 -373.895)" fill="#5ca9eb"/>
          </g>
          <g id="Group_3443" data-name="Group 3443" transform="translate(20.34 11.306)">
            <path id="Path_8553" data-name="Path 8553" d="M482.237,402.222a43.854,43.854,0,0,0,3.409-12.365c.341-2.928-.267-6.884-1.172-12.164a32.763,32.763,0,0,1-.524-5.853.988.988,0,0,1,1.855-.463,26.3,26.3,0,0,1,2.313,5.849c1,5.213,2.139,7.82,1.27,12.766s-4.077,12.565-4.077,12.565Z" transform="translate(-482.237 -370.862)" fill="#5ca9eb"/>
          </g>
          <g id="Group_3444" data-name="Group 3444" transform="translate(24.07 4.967)">
            <path id="Path_8554" data-name="Path 8554" d="M490.215,395.337s10.924-23.477,11.681-26.96,3.332-11.509,3.635-11.055.757,4.695-1.211,9.541-10.375,29.19-10.375,29.19h-3.73" transform="translate(-490.215 -357.303)" fill="#5ca9eb"/>
          </g>
          <g id="Group_3446" data-name="Group 3446" transform="translate(0.133 11.502)">
            <g id="Group_3445" data-name="Group 3445">
              <path id="Path_8555" data-name="Path 8555" d="M458.03,401.729a2.25,2.25,0,0,1-.306-.21c-.194-.147-.488-.353-.846-.646a38.607,38.607,0,0,1-2.936-2.592,49.256,49.256,0,0,1-7.926-10.173,66.645,66.645,0,0,1-5.41-11.719c-.549-1.559-.951-2.836-1.211-3.723-.133-.442-.225-.789-.29-1.023a2.231,2.231,0,0,1-.085-.362,2.175,2.175,0,0,1,.13.348l.332,1.01c.286.878.711,2.144,1.279,3.693a70.875,70.875,0,0,0,5.456,11.656,51.421,51.421,0,0,0,7.841,10.174c1.169,1.162,2.17,2.047,2.878,2.639.348.3.633.52.817.679A2.153,2.153,0,0,1,458.03,401.729Z" transform="translate(-439.02 -371.281)" fill="#263238"/>
            </g>
          </g>
          <g id="Group_3448" data-name="Group 3448" transform="translate(17.535 13.263)">
            <g id="Group_3447" data-name="Group 3447">
              <path id="Path_8556" data-name="Path 8556" d="M479.042,392.47a3.9,3.9,0,0,1-.1-.689c-.052-.486-.12-1.119-.2-1.882-.173-1.588-.443-3.779-.829-6.185s-.818-4.572-1.152-6.134l-.4-1.85a3.9,3.9,0,0,1-.123-.685,4.013,4.013,0,0,1,.211.663c.122.431.284,1.058.471,1.836.375,1.556.832,3.721,1.221,6.133s.631,4.611.763,6.206c.066.8.109,1.444.128,1.891A3.979,3.979,0,0,1,479.042,392.47Z" transform="translate(-476.237 -375.046)" fill="#263238"/>
            </g>
          </g>
          <g id="Group_3450" data-name="Group 3450" transform="translate(21.782 11.637)">
            <g id="Group_3449" data-name="Group 3449">
              <path id="Path_8557" data-name="Path 8557" d="M486.437,371.57a1.69,1.69,0,0,1,.129.3l.327.872c.144.378.31.845.469,1.4s.373,1.173.531,1.88l.271,1.1c.092.384.157.791.24,1.209.179.833.289,1.737.421,2.686a40.109,40.109,0,0,1-.445,12.41c-.2.937-.375,1.831-.612,2.649-.113.41-.207.812-.326,1.189l-.349,1.081c-.208.694-.463,1.3-.664,1.837s-.4.994-.568,1.361l-.389.846a1.681,1.681,0,0,1-.15.288,1.745,1.745,0,0,1,.107-.308l.348-.863c.158-.371.344-.829.529-1.371s.432-1.147.629-1.841l.333-1.082c.114-.376.2-.777.312-1.186.228-.817.4-1.708.588-2.64a41.441,41.441,0,0,0,.443-12.346c-.126-.944-.229-1.844-.4-2.675-.079-.417-.14-.822-.226-1.206l-.255-1.1c-.147-.706-.346-1.329-.5-1.881s-.3-1.024-.43-1.406l-.286-.886A1.734,1.734,0,0,1,486.437,371.57Z" transform="translate(-485.321 -371.57)" fill="#263238"/>
            </g>
          </g>
          <g id="Group_3452" data-name="Group 3452" transform="translate(25.856 5.457)">
            <g id="Group_3451" data-name="Group 3451">
              <path id="Path_8558" data-name="Path 8558" d="M507.439,358.352a.369.369,0,0,1-.009.106l-.048.3c-.048.267-.108.664-.216,1.168-.211,1.01-.562,2.464-1.109,4.227s-1.29,3.832-2.175,6.1-1.906,4.749-2.875,7.385c-.985,2.632-1.744,5.2-2.457,7.531s-1.376,4.426-2.025,6.155a39.176,39.176,0,0,1-1.725,4.014c-.223.465-.425.812-.555,1.051l-.153.269c-.036.06-.056.089-.059.087a.393.393,0,0,1,.038-.1l.132-.279c.116-.245.3-.6.514-1.068.44-.93,1.032-2.3,1.652-4.032s1.279-3.825,1.974-6.16,1.456-4.911,2.443-7.55,2-5.117,2.895-7.383,1.655-4.322,2.218-6.075.94-3.195,1.178-4.2c.12-.5.195-.894.258-1.158l.071-.3A.355.355,0,0,1,507.439,358.352Z" transform="translate(-494.034 -358.352)" fill="#263238"/>
            </g>
          </g>
          <g id="Group_3460" data-name="Group 3460" transform="translate(3.981)">
            <g id="Group_3453" data-name="Group 3453">
              <path id="Path_8559" data-name="Path 8559" d="M448.842,346.952a.94.94,0,0,0-1.548.959,26.928,26.928,0,0,0,1.372,3.53c1.5,3.191,5.914,14.643,7.979,20.932S461.62,390.4,461.62,390.4l4.41-.715S462,370.4,458.053,363.456C454.885,357.875,451.718,349.809,448.842,346.952Z" transform="translate(-447.249 -346.68)" fill="#5ca9eb"/>
            </g>
            <g id="Group_3455" data-name="Group 3455" transform="translate(10.6 29.627)">
              <g id="Group_3454" data-name="Group 3454">
                <path id="Path_8560" data-name="Path 8560" d="M469.923,410.045a2.7,2.7,0,0,1,.227.528c.13.346.308.851.509,1.481.406,1.258.9,3.015,1.4,4.967s.915,3.729,1.206,5.017l.332,1.528a2.669,2.669,0,0,1,.091.568,2.742,2.742,0,0,1-.18-.546l-.4-1.511-1.271-5c-.5-1.95-.971-3.71-1.336-4.977l-.437-1.5A2.754,2.754,0,0,1,469.923,410.045Z" transform="translate(-469.921 -410.045)" fill="#263238"/>
              </g>
            </g>
            <g id="Group_3457" data-name="Group 3457" transform="translate(0.509 0.198)">
              <g id="Group_3456" data-name="Group 3456">
                <path id="Path_8561" data-name="Path 8561" d="M464.415,390.264a.485.485,0,0,1-.025-.117c-.013-.092-.029-.206-.05-.347-.046-.3-.087-.757-.18-1.335-.162-1.159-.451-2.828-.925-4.864a69.584,69.584,0,0,0-2.064-7.045c-.9-2.613-2.039-5.435-3.325-8.357-2.594-5.836-5.186-11.013-6.889-14.84-.861-1.91-1.528-3.468-1.967-4.555-.224-.541-.384-.967-.5-1.254l-.123-.329a.462.462,0,0,1-.034-.115.482.482,0,0,1,.056.106l.144.32.536,1.237c.465,1.074,1.153,2.622,2.032,4.521,1.74,3.807,4.354,8.97,6.953,14.815,1.288,2.926,2.419,5.758,3.315,8.381a66.177,66.177,0,0,1,2.022,7.078,49.214,49.214,0,0,1,.854,4.889c.08.581.106,1.036.137,1.342l.027.35A.441.441,0,0,1,464.415,390.264Z" transform="translate(-448.338 -347.104)" fill="#263238"/>
              </g>
            </g>
            <g id="Group_3459" data-name="Group 3459" transform="translate(13.951 24.471)">
              <g id="Group_3458" data-name="Group 3458">
                <path id="Path_8562" data-name="Path 8562" d="M481.917,417.548a4.69,4.69,0,0,1-.149-.741c-.087-.518-.2-1.2-.343-2.027-.3-1.708-.768-4.062-1.435-6.623s-1.4-4.844-1.977-6.483c-.281-.789-.514-1.442-.69-1.937a4.637,4.637,0,0,1-.235-.719,4.69,4.69,0,0,1,.319.685c.19.447.456,1.1.76,1.914a64.185,64.185,0,0,1,2.048,6.48,67.409,67.409,0,0,1,1.372,6.655c.126.861.222,1.558.271,2.042A4.683,4.683,0,0,1,481.917,417.548Z" transform="translate(-477.087 -399.018)" fill="#263238"/>
              </g>
            </g>
          </g>
        </g>
        <g id="Group_3465" data-name="Group 3465" transform="translate(11.051 42.367)">
          <g id="Group_3462" data-name="Group 3462" transform="translate(3.549)">
            <rect id="Rectangle_929" data-name="Rectangle 929" width="17.213" height="20.972" fill="#556770"/>
          </g>
          <g id="Group_3463" data-name="Group 3463" transform="translate(-0.001)" opacity="0.3">
            <rect id="Rectangle_930" data-name="Rectangle 930" width="17.213" height="20.972" fill="#263238"/>
          </g>
        </g>
      </g>
    </g>
  </g>
</svg>
