<svg xmlns="http://www.w3.org/2000/svg" xmlns:xlink="http://www.w3.org/1999/xlink" width="500" height="129" viewBox="0 0 500 129">
  <defs>
    <clipPath id="clip-path">
      <path id="Rectangle_894" data-name="Rectangle 894" d="M10,0H490a10,10,0,0,1,10,10V129a0,0,0,0,1,0,0H0a0,0,0,0,1,0,0V10A10,10,0,0,1,10,0Z" transform="translate(787 282)" fill="#fff" stroke="#707070" stroke-width="1"/>
    </clipPath>
    <linearGradient id="linear-gradient" x1="0.686" y1="0.133" x2="0.36" y2="0.981" gradientUnits="objectBoundingBox">
      <stop offset="0" stop-color="#2eb9f6"/>
      <stop offset="0.541" stop-color="#21a5fa"/>
      <stop offset="1" stop-color="#1238f9"/>
    </linearGradient>
    <linearGradient id="linear-gradient-2" x1="0.857" y1="0.425" x2="0.004" y2="0.828" gradientUnits="objectBoundingBox">
      <stop offset="0" stop-color="#1238f9"/>
      <stop offset="1" stop-color="#2eb9f6"/>
    </linearGradient>
  </defs>
  <g id="share_job_illustration" transform="translate(-787 -282)" clip-path="url(#clip-path)">
    <g id="Group_2510" data-name="Group 2510" transform="matrix(-0.695, 0.719, -0.719, -0.695, 1573.949, 134.723)">
      <path id="Path_8354" data-name="Path 8354" d="M340.1,19.825C307.426-14.721,267.278-.716,246.737,35.7c-21.474,38.28-53.219,35.479-90.566,27.076C109.487,51.569,96.416,92.65,62.8,113.191c-16.806,11.2-28.01,4.668-45.75,5.6C.247,119.727-.686,132.8.247,148.67c4.668,56.954,50.418,67.224,98.969,69.092,23.342.934,43.883-1.867,65.357-14,17.74-10.27,32.679-29.877,51.352-38.28,31.745-14.005,48.551,24.275,80.3,21.474,40.148-2.8,53.219-52.285,53.219-85.9,0-22.408-12.138-43.882-10.27-65.357.934-12.138,6.536-15.872-8.4-23.342" transform="matrix(0.985, 0.174, -0.174, 0.985, 50.013, -53.584)" fill="url(#linear-gradient)"/>
      <path id="Path_8355" data-name="Path 8355" d="M340.1,19.825C307.426-14.721,267.278-.716,246.737,35.7c-21.474,38.28-53.219,35.479-90.566,27.076C109.487,51.569,96.416,92.65,62.8,113.191c-16.806,11.2-28.01,4.668-45.75,5.6C.247,119.727-.686,132.8.247,148.67c4.668,56.954,50.418,67.224,98.969,69.091,23.342.934,43.883-1.867,65.357-14,17.74-10.27,32.679-29.877,51.352-38.28,31.745-14,48.551,24.275,80.3,21.474,40.148-2.8,53.219-52.285,53.219-85.9,0-22.408-12.138-43.882-10.27-65.357.934-12.138,6.536-15.872-8.4-23.342" transform="translate(14.521 9.889)" fill="url(#linear-gradient-2)"/>
    </g>
  </g>
</svg>
