<svg width="160" height="160" viewBox="0 0 160 160" fill="none" xmlns="http://www.w3.org/2000/svg">
<path fill-rule="evenodd" clip-rule="evenodd" d="M74.56 17.1198C74.428 17.205 73.6224 17.2762 72.7696 17.2774C71.9112 17.2786 71.1749 17.3514 71.1201 17.4398C71.0657 17.5278 70.5257 17.5998 69.9201 17.5998C69.3144 17.5998 68.7745 17.6718 68.7201 17.7598C68.6656 17.8478 68.2653 17.9198 67.8305 17.9198C67.3957 17.9198 67.0401 17.9918 67.0401 18.0798C67.0401 18.1678 66.6844 18.2398 66.2496 18.2398C65.8148 18.2398 65.4144 18.3118 65.36 18.3998C65.3056 18.4878 64.9773 18.5598 64.6305 18.5598C64.2836 18.5598 64 18.6318 64 18.7198C64 18.8078 63.712 18.8798 63.36 18.8798C63.008 18.8798 62.7201 18.9518 62.7201 19.0398C62.7201 19.1278 62.4724 19.1998 62.1696 19.1998C61.8668 19.1998 61.5745 19.2718 61.5201 19.3598C61.4657 19.4478 61.2093 19.5198 60.9505 19.5198C60.6917 19.5198 60.48 19.5918 60.48 19.6798C60.48 19.7678 60.264 19.8398 60 19.8398C59.736 19.8398 59.5201 19.9118 59.5201 19.9998C59.5201 20.0878 59.3041 20.1598 59.0401 20.1598C58.7761 20.1598 58.56 20.2318 58.56 20.3198C58.56 20.4078 58.344 20.4798 58.08 20.4798C57.816 20.4798 57.6 20.5518 57.6 20.6398C57.6 20.7278 57.42 20.7998 57.2001 20.7998C56.98 20.7998 56.8 20.8718 56.8 20.9598C56.8 21.0478 56.6245 21.1198 56.4096 21.1198C56.1949 21.1198 55.9744 21.1918 55.9201 21.2798C55.8657 21.3678 55.6813 21.4398 55.5104 21.4398C55.3396 21.4398 55.2001 21.5118 55.2001 21.5998C55.2001 21.6878 54.9841 21.7598 54.7201 21.7598C54.4561 21.7598 54.2401 21.8318 54.2401 21.9198C54.2401 22.0078 54.0961 22.0798 53.9201 22.0798C53.744 22.0798 53.6 22.1518 53.6 22.2398C53.6 22.3278 53.456 22.3998 53.28 22.3998C53.104 22.3998 52.96 22.4718 52.96 22.5598C52.96 22.6478 52.8161 22.7198 52.6401 22.7198C52.4641 22.7198 52.32 22.7918 52.32 22.8798C52.32 22.9678 52.1808 23.0398 52.0108 23.0398C51.6676 23.0398 48.7509 24.4598 48.6669 24.6682C48.6372 24.7406 48.4753 24.7998 48.3069 24.7998C48.1381 24.7998 48 24.8718 48 24.9598C48 25.0478 47.856 25.1198 47.68 25.1198C47.504 25.1198 47.3601 25.1918 47.3601 25.2798C47.3601 25.3678 47.2656 25.4398 47.15 25.4398C47.0348 25.4398 46.7856 25.5838 46.5968 25.7598C46.408 25.9358 46.1424 26.0798 46.0068 26.0798C45.8712 26.0798 45.76 26.1518 45.76 26.2398C45.76 26.3278 45.6521 26.3998 45.5201 26.3998C45.3881 26.3998 45.28 26.4718 45.28 26.5598C45.28 26.6478 45.172 26.7198 45.04 26.7198C44.908 26.7198 44.8 26.7918 44.8 26.8798C44.8 26.9678 44.692 27.0398 44.56 27.0398C44.428 27.0398 44.3201 27.1118 44.3201 27.1998C44.3201 27.2878 44.212 27.3598 44.08 27.3598C43.948 27.3598 43.84 27.4318 43.84 27.5198C43.84 27.6078 43.748 27.6798 43.6352 27.6798C43.5228 27.6798 43.3268 27.8238 43.2 27.9998C43.0732 28.1758 42.8701 28.3198 42.7488 28.3198C42.6276 28.3198 42.3268 28.5358 42.08 28.7998C41.8332 29.0638 41.5429 29.2798 41.4345 29.2798C41.3265 29.2798 41.1213 29.413 40.9788 29.5762C40.8365 29.739 40.504 29.9838 40.24 30.1198C39.976 30.2562 39.5268 30.5906 39.2416 30.8638C38.9564 31.1366 38.6669 31.3598 38.5985 31.3598C38.4345 31.3598 36.8001 32.9714 36.8001 33.133C36.8001 33.2018 36.6581 33.3034 36.4841 33.3586C35.9517 33.5274 31.4417 38.1566 30.4321 39.5702C30.1065 40.0262 29.6421 40.6082 29.4001 40.8634C29.1581 41.1186 28.9601 41.3958 28.9601 41.4794C28.9601 41.563 28.744 41.833 28.48 42.0798C28.216 42.3266 28.0001 42.6274 28.0001 42.7486C28.0001 42.8698 27.856 43.073 27.68 43.1998C27.504 43.3266 27.3601 43.4962 27.3601 43.5762C27.3601 43.6566 27.2337 43.8386 27.0788 43.981C26.9244 44.1234 26.6961 44.4378 26.5721 44.6798C26.4477 44.9218 26.286 45.1198 26.2128 45.1198C26.14 45.1198 26.08 45.2478 26.08 45.4046C26.08 45.561 25.9361 45.793 25.7601 45.9198C25.5841 46.0466 25.4401 46.2454 25.4401 46.3618C25.4401 46.4782 25.2961 46.7278 25.1201 46.9166C24.944 47.1054 24.8001 47.3546 24.8001 47.4698C24.8001 47.5854 24.7281 47.6798 24.64 47.6798C24.552 47.6798 24.4801 47.8238 24.4801 47.9998C24.4801 48.1758 24.4213 48.3198 24.3497 48.3198C24.2777 48.3198 24.0077 48.7698 23.7497 49.3198C23.4913 49.8698 23.2261 50.3438 23.1601 50.373C23.0941 50.4026 23.0401 50.5646 23.0401 50.733C23.0401 50.9018 22.9681 51.0398 22.8801 51.0398C22.7921 51.0398 22.7201 51.1838 22.7201 51.3598C22.7201 51.5358 22.6481 51.6798 22.5601 51.6798C22.4721 51.6798 22.4001 51.8238 22.4001 51.9998C22.4001 52.1758 22.328 52.3198 22.24 52.3198C22.152 52.3198 22.0801 52.4638 22.0801 52.6398C22.0801 52.8158 22.008 52.9598 21.92 52.9598C21.832 52.9598 21.7601 53.1038 21.7601 53.2798C21.7601 53.4558 21.6881 53.5998 21.6 53.5998C21.5121 53.5998 21.44 53.7438 21.44 53.9198C21.44 54.0958 21.3681 54.2398 21.2801 54.2398C21.1921 54.2398 21.12 54.4154 21.12 54.6302C21.12 54.845 21.0481 55.0654 20.9601 55.1198C20.8721 55.1742 20.8001 55.3586 20.8001 55.5294C20.8001 55.7002 20.728 55.8398 20.64 55.8398C20.552 55.8398 20.4801 55.9486 20.4801 56.0818C20.4801 56.215 20.408 56.467 20.32 56.6418C20.232 56.8166 20.088 57.103 20.0001 57.2778C19.9121 57.4526 19.84 57.7406 19.84 57.9178C19.84 58.095 19.7681 58.2398 19.6801 58.2398C19.5921 58.2398 19.52 58.4558 19.52 58.7198C19.52 58.9838 19.4481 59.1998 19.3601 59.1998C19.2721 59.1998 19.2001 59.3754 19.2001 59.5902C19.2001 59.805 19.128 60.0254 19.04 60.0798C18.952 60.1342 18.8801 60.3502 18.8801 60.5598C18.8801 60.7694 18.808 60.9854 18.72 61.0398C18.632 61.0942 18.5601 61.3506 18.5601 61.6094C18.5601 61.8682 18.496 62.0798 18.4176 62.0798C18.3392 62.0798 18.2313 62.3318 18.1777 62.6398C18.1241 62.9478 18.0361 63.4526 17.9825 63.7614C17.9285 64.0702 17.8204 64.3622 17.7424 64.4106C17.664 64.459 17.6 64.7782 17.6 65.1198C17.6 65.4614 17.5356 65.7806 17.4568 65.8294C17.378 65.8778 17.2749 66.1882 17.2273 66.5186C17.1793 66.8494 17.0245 67.8398 16.8825 68.7198C16.7405 69.5998 16.5841 70.9318 16.5349 71.6798C16.4857 72.4278 16.3809 73.1082 16.3025 73.1918C16.2241 73.2754 16.1601 74.585 16.1601 76.1022C16.1601 77.769 16.0969 78.9002 16.0001 78.9598C15.7916 79.0886 15.7916 80.591 16.0001 80.7198C16.0969 80.7794 16.1601 81.9182 16.1601 83.5998C16.1601 85.2814 16.2232 86.4202 16.32 86.4798C16.408 86.5342 16.4801 87.039 16.4801 87.6014C16.4801 88.1638 16.5549 88.973 16.6465 89.3994C16.7377 89.8258 16.8848 90.7114 16.9728 91.367C17.258 93.4854 17.3116 93.7602 17.4568 93.8502C17.5356 93.899 17.6 94.2182 17.6 94.5598C17.6 94.9014 17.664 95.2206 17.7424 95.269C17.8204 95.3174 17.9308 95.6274 17.9868 95.9582C18.2356 97.4194 18.2828 97.5998 18.4176 97.5998C18.496 97.5998 18.5601 97.8114 18.5601 98.0702C18.5601 98.329 18.632 98.5854 18.72 98.6398C18.808 98.6942 18.8801 98.9102 18.8801 99.1198C18.8801 99.3294 18.952 99.5454 19.04 99.5998C19.128 99.6542 19.2001 99.8746 19.2001 100.089C19.2001 100.304 19.2721 100.48 19.3601 100.48C19.4481 100.48 19.52 100.696 19.52 100.96C19.52 101.224 19.5921 101.44 19.6801 101.44C19.7681 101.44 19.84 101.615 19.84 101.83C19.84 102.045 19.9121 102.265 20.0001 102.32C20.088 102.374 20.1601 102.559 20.1601 102.729C20.1601 102.9 20.232 103.04 20.32 103.04C20.408 103.04 20.4801 103.22 20.4801 103.44C20.4801 103.66 20.552 103.84 20.64 103.84C20.728 103.84 20.8001 103.979 20.8001 104.15C20.8001 104.321 20.8721 104.505 20.9601 104.56C21.0481 104.614 21.12 104.835 21.12 105.049C21.12 105.264 21.1921 105.44 21.2801 105.44C21.3681 105.44 21.44 105.584 21.44 105.76C21.44 105.936 21.5121 106.08 21.6 106.08C21.6881 106.08 21.7601 106.224 21.7601 106.4C21.7601 106.576 21.832 106.72 21.92 106.72C22.008 106.72 22.0801 106.864 22.0801 107.04C22.0801 107.216 22.152 107.36 22.24 107.36C22.328 107.36 22.4001 107.504 22.4001 107.68C22.4001 107.856 22.4721 108 22.5601 108C22.6481 108 22.7201 108.144 22.7201 108.32C22.7201 108.496 22.7921 108.64 22.8801 108.64C22.9681 108.64 23.0401 108.784 23.0401 108.96C23.0401 109.136 23.1121 109.28 23.2001 109.28C23.2881 109.28 23.3601 109.379 23.3601 109.5C23.3601 109.762 24.1689 111.257 24.3521 111.333C24.4225 111.363 24.4801 111.525 24.4801 111.693C24.4801 111.862 24.552 112 24.64 112C24.7281 112 24.8001 112.094 24.8001 112.21C24.8001 112.325 24.944 112.574 25.1201 112.763C25.2961 112.952 25.4401 113.201 25.4401 113.318C25.4401 113.434 25.5841 113.633 25.7601 113.76C25.9361 113.887 26.08 114.119 26.08 114.275C26.08 114.432 26.14 114.56 26.2128 114.56C26.286 114.56 26.4477 114.758 26.5721 115C26.6961 115.242 26.9244 115.556 27.0788 115.699C27.2337 115.841 27.3601 116.023 27.3601 116.103C27.3601 116.183 27.504 116.353 27.68 116.48C27.856 116.607 28.0001 116.81 28.0001 116.931C28.0001 117.052 28.216 117.353 28.48 117.6C28.744 117.847 28.9601 118.117 28.9601 118.2C28.9601 118.284 29.1581 118.561 29.4001 118.816C29.6421 119.071 30.0993 119.643 30.4165 120.087C31.4621 121.552 36.1957 126.4 36.58 126.4C36.7008 126.4 36.8001 126.471 36.8001 126.558C36.8001 126.737 38.4145 128.316 38.5997 128.318C38.6657 128.319 38.9865 128.572 39.3128 128.88C39.6397 129.188 39.9529 129.44 40.0089 129.44C40.0985 129.44 40.3624 129.637 41.0732 130.237C41.1796 130.327 41.3421 130.4 41.4349 130.4C41.5273 130.4 41.8288 130.616 42.1052 130.88C42.3816 131.144 42.6889 131.36 42.7885 131.36C42.8881 131.36 43.0732 131.504 43.2 131.68C43.3268 131.856 43.5228 132 43.6352 132C43.748 132 43.84 132.072 43.84 132.16C43.84 132.248 43.948 132.32 44.08 132.32C44.212 132.32 44.3201 132.392 44.3201 132.48C44.3201 132.568 44.428 132.64 44.56 132.64C44.692 132.64 44.8 132.712 44.8 132.8C44.8 132.888 44.8944 132.96 45.01 132.96C45.1252 132.96 45.3744 133.104 45.5632 133.28C45.752 133.456 45.9848 133.6 46.08 133.6C46.1752 133.6 46.408 133.744 46.5968 133.92C46.7856 134.096 47.0348 134.24 47.15 134.24C47.2656 134.24 47.3601 134.312 47.3601 134.4C47.3601 134.488 47.504 134.56 47.68 134.56C47.856 134.56 48 134.632 48 134.72C48 134.808 48.1381 134.88 48.3069 134.88C48.4753 134.88 48.6372 134.937 48.6669 135.007C48.758 135.225 51.6329 136.64 51.9857 136.64C52.1697 136.64 52.32 136.712 52.32 136.8C52.32 136.888 52.4641 136.96 52.6401 136.96C52.8161 136.96 52.96 137.032 52.96 137.12C52.96 137.208 53.104 137.28 53.28 137.28C53.456 137.28 53.6 137.352 53.6 137.44C53.6 137.528 53.744 137.6 53.9201 137.6C54.0961 137.6 54.2401 137.672 54.2401 137.76C54.2401 137.848 54.4561 137.92 54.7201 137.92C54.9841 137.92 55.2001 137.992 55.2001 138.08C55.2001 138.168 55.3396 138.24 55.5104 138.24C55.6813 138.24 55.8657 138.312 55.9201 138.4C55.9744 138.488 56.1949 138.56 56.4096 138.56C56.6245 138.56 56.8 138.632 56.8 138.72C56.8 138.808 56.98 138.88 57.2001 138.88C57.42 138.88 57.6 138.952 57.6 139.04C57.6 139.128 57.816 139.2 58.08 139.2C58.344 139.2 58.56 139.272 58.56 139.36C58.56 139.448 58.7761 139.52 59.0401 139.52C59.3041 139.52 59.5201 139.592 59.5201 139.68C59.5201 139.768 59.736 139.84 60 139.84C60.264 139.84 60.48 139.904 60.48 139.982C60.48 140.061 60.7321 140.169 61.0401 140.222C61.3481 140.276 61.852 140.364 62.16 140.417C62.468 140.471 62.7201 140.579 62.7201 140.657C62.7201 140.736 63.008 140.8 63.36 140.8C63.712 140.8 64 140.872 64 140.96C64 141.048 64.2836 141.12 64.6305 141.12C64.9773 141.12 65.3056 141.192 65.36 141.28C65.4144 141.368 65.8148 141.44 66.2496 141.44C66.6844 141.44 67.0401 141.512 67.0401 141.6C67.0401 141.688 67.3957 141.76 67.8305 141.76C68.2653 141.76 68.6656 141.832 68.7201 141.92C68.7745 142.008 69.3144 142.08 69.9201 142.08C70.5257 142.08 71.0657 142.152 71.1201 142.24C71.1757 142.33 71.9452 142.4 72.88 142.4C73.8148 142.4 74.5845 142.47 74.6401 142.56C74.7017 142.659 76.2384 142.72 78.7201 142.72C81.2017 142.72 82.7384 142.659 82.8 142.56C82.8557 142.47 83.6252 142.4 84.5601 142.4C85.4949 142.4 86.2645 142.33 86.3201 142.24C86.3745 142.152 86.9145 142.08 87.5201 142.08C88.1256 142.08 88.6656 142.008 88.7201 141.92C88.7745 141.832 89.1749 141.76 89.6096 141.76C90.0444 141.76 90.4 141.688 90.4 141.6C90.4 141.512 90.76 141.44 91.2001 141.44C91.6401 141.44 92.0001 141.368 92.0001 141.28C92.0001 141.192 92.3196 141.12 92.7104 141.12C93.1012 141.12 93.4657 141.048 93.5201 140.96C93.5744 140.872 93.8624 140.8 94.16 140.8C94.4576 140.8 94.7457 140.728 94.8 140.64C94.8544 140.552 95.1108 140.48 95.3697 140.48C95.6284 140.48 95.84 140.408 95.84 140.32C95.84 140.232 96.092 140.16 96.4 140.16C96.7081 140.16 96.96 140.088 96.96 140C96.96 139.912 97.1761 139.84 97.4401 139.84C97.7041 139.84 97.9201 139.768 97.9201 139.68C97.9201 139.592 98.136 139.52 98.4 139.52C98.664 139.52 98.8801 139.448 98.8801 139.36C98.8801 139.272 99.096 139.2 99.36 139.2C99.624 139.2 99.84 139.128 99.84 139.04C99.84 138.952 100.056 138.88 100.32 138.88C100.584 138.88 100.8 138.808 100.8 138.72C100.8 138.632 100.94 138.56 101.11 138.56C101.281 138.56 101.466 138.488 101.52 138.4C101.574 138.312 101.795 138.24 102.01 138.24C102.224 138.24 102.4 138.168 102.4 138.08C102.4 137.992 102.58 137.92 102.8 137.92C103.02 137.92 103.2 137.848 103.2 137.76C103.2 137.672 103.344 137.6 103.52 137.6C103.696 137.6 103.84 137.528 103.84 137.44C103.84 137.352 103.984 137.28 104.16 137.28C104.336 137.28 104.48 137.208 104.48 137.12C104.48 137.032 104.624 136.96 104.8 136.96C104.976 136.96 105.12 136.894 105.12 136.814C105.12 136.733 105.408 136.619 105.76 136.56C106.112 136.5 106.4 136.386 106.4 136.306C106.4 136.225 106.544 136.16 106.72 136.16C106.896 136.16 107.04 136.088 107.04 136C107.04 135.912 107.184 135.84 107.36 135.84C107.536 135.84 107.68 135.768 107.68 135.68C107.68 135.592 107.824 135.52 108 135.52C108.176 135.52 108.32 135.448 108.32 135.36C108.32 135.272 108.464 135.2 108.64 135.2C108.816 135.2 108.96 135.145 108.96 135.079C108.96 135.012 109.194 134.854 109.48 134.728C109.766 134.601 110.14 134.368 110.31 134.209C110.481 134.05 110.715 133.92 110.83 133.92C110.946 133.92 111.04 133.848 111.04 133.76C111.04 133.672 111.168 133.6 111.325 133.6C111.481 133.6 111.713 133.456 111.84 133.28C111.967 133.104 112.199 132.96 112.355 132.96C112.512 132.96 112.64 132.888 112.64 132.8C112.64 132.712 112.734 132.64 112.85 132.64C112.965 132.64 113.214 132.496 113.403 132.32C113.592 132.144 113.811 132 113.89 132C113.968 132 114.258 131.784 114.535 131.52C114.811 131.256 115.13 131.04 115.243 131.04C115.356 131.04 115.553 130.896 115.68 130.72C115.807 130.544 115.972 130.4 116.047 130.4C116.122 130.4 116.283 130.31 116.406 130.2C116.755 129.887 116.997 129.701 117.6 129.283C117.908 129.07 118.268 128.78 118.4 128.64C118.532 128.499 118.892 128.209 119.2 127.994C119.508 127.779 120.202 127.17 120.743 126.641C121.284 126.113 122.271 125.176 122.936 124.56C123.602 123.944 124.15 123.383 124.153 123.313C124.157 123.243 124.736 122.616 125.44 121.92C126.144 121.223 126.72 120.591 126.72 120.515C126.72 120.439 127.08 119.991 127.52 119.52C127.96 119.049 128.32 118.603 128.32 118.53C128.32 118.457 128.536 118.171 128.8 117.895C129.064 117.618 129.28 117.328 129.28 117.249C129.28 117.17 129.46 116.925 129.68 116.705C129.9 116.485 130.08 116.217 130.08 116.108C130.08 115.999 130.224 115.807 130.4 115.68C130.576 115.553 130.72 115.337 130.72 115.2C130.72 115.063 130.864 114.847 131.04 114.72C131.216 114.593 131.36 114.377 131.36 114.24C131.36 114.103 131.504 113.887 131.68 113.76C131.856 113.633 132 113.434 132 113.318C132 113.201 132.144 112.952 132.32 112.763C132.496 112.574 132.64 112.325 132.64 112.21C132.64 112.094 132.712 112 132.8 112C132.888 112 132.96 111.856 132.96 111.68C132.96 111.504 133.032 111.36 133.12 111.36C133.208 111.36 133.28 111.216 133.28 111.04C133.28 110.864 133.34 110.72 133.413 110.72C133.486 110.72 133.648 110.522 133.773 110.28C133.898 110.038 134.038 109.804 134.084 109.76C134.13 109.716 134.552 108.888 135.02 107.92C135.489 106.952 135.937 106.035 136.016 105.882C136.095 105.729 136.16 105.495 136.16 105.362C136.16 105.229 136.226 105.12 136.306 105.12C136.386 105.12 136.5 104.832 136.56 104.48C136.62 104.128 136.734 103.84 136.814 103.84C136.894 103.84 136.96 103.66 136.96 103.44C136.96 103.22 137.032 103.04 137.12 103.04C137.208 103.04 137.28 102.86 137.28 102.64C137.28 102.42 137.352 102.24 137.44 102.24C137.528 102.24 137.6 102.06 137.6 101.84C137.6 101.62 137.672 101.44 137.76 101.44C137.848 101.44 137.92 101.224 137.92 100.96C137.92 100.696 137.992 100.48 138.08 100.48C138.168 100.48 138.24 100.264 138.24 99.9998C138.24 99.7358 138.312 99.5198 138.4 99.5198C138.488 99.5198 138.56 99.3038 138.56 99.0398C138.56 98.7758 138.632 98.5598 138.72 98.5598C138.808 98.5598 138.88 98.3482 138.88 98.0894C138.88 97.8306 138.952 97.5742 139.04 97.5198C139.128 97.4654 139.2 97.173 139.2 96.8702C139.2 96.5674 139.272 96.3198 139.36 96.3198C139.448 96.3198 139.52 96.0678 139.52 95.7598C139.52 95.4518 139.592 95.1998 139.68 95.1998C139.768 95.1998 139.84 94.9162 139.84 94.5694C139.84 94.2226 139.912 93.8942 140 93.8398C140.088 93.7854 140.16 93.421 140.16 93.0302C140.16 92.6394 140.232 92.3198 140.32 92.3198C140.408 92.3198 140.48 91.9642 140.48 91.5294C140.48 91.0946 140.552 90.6942 140.64 90.6398C140.728 90.5854 140.8 90.1274 140.8 89.6222C140.8 89.117 140.866 88.6354 140.948 88.5518C141.211 88.2814 141.307 85.9622 141.307 79.8398C141.307 73.7174 141.211 71.3982 140.948 71.1278C140.866 71.0442 140.8 70.5626 140.8 70.0574C140.8 69.5522 140.728 69.0942 140.64 69.0398C140.552 68.9854 140.48 68.585 140.48 68.1502C140.48 67.7154 140.408 67.3598 140.32 67.3598C140.232 67.3598 140.16 67.0402 140.16 66.6494C140.16 66.2586 140.088 65.8942 140 65.8398C139.912 65.7854 139.84 65.457 139.84 65.1102C139.84 64.7634 139.768 64.4798 139.68 64.4798C139.592 64.4798 139.52 64.2278 139.52 63.9198C139.52 63.6118 139.448 63.3598 139.36 63.3598C139.272 63.3598 139.2 63.1122 139.2 62.8094C139.2 62.5066 139.128 62.2142 139.04 62.1598C138.952 62.1054 138.88 61.849 138.88 61.5902C138.88 61.3314 138.808 61.1198 138.72 61.1198C138.632 61.1198 138.56 60.9038 138.56 60.6398C138.56 60.3758 138.488 60.1598 138.4 60.1598C138.312 60.1598 138.24 59.9438 138.24 59.6798C138.24 59.4158 138.168 59.1998 138.08 59.1998C137.992 59.1998 137.92 58.9838 137.92 58.7198C137.92 58.4558 137.848 58.2398 137.76 58.2398C137.672 58.2398 137.6 58.0598 137.6 57.8398C137.6 57.6198 137.528 57.4398 137.44 57.4398C137.352 57.4398 137.28 57.2958 137.28 57.1198C137.28 56.9438 137.208 56.7998 137.12 56.7998C137.032 56.7998 136.96 56.5838 136.96 56.3198C136.96 56.0558 136.894 55.8398 136.814 55.8398C136.734 55.8398 136.62 55.5518 136.56 55.1998C136.5 54.8478 136.386 54.5598 136.306 54.5598C136.226 54.5598 136.16 54.443 136.16 54.3002C136.16 53.9938 134.553 50.6642 134.367 50.5866C134.297 50.557 134.24 50.395 134.24 50.2266C134.24 50.0578 134.168 49.9198 134.08 49.9198C133.992 49.9198 133.92 49.8254 133.92 49.7098C133.92 49.5946 133.776 49.3454 133.6 49.1566C133.424 48.9678 133.28 48.7022 133.28 48.5666C133.28 48.431 133.208 48.3198 133.12 48.3198C133.032 48.3198 132.96 48.2086 132.96 48.073C132.96 47.9374 132.816 47.6718 132.64 47.483C132.464 47.2942 132.32 47.045 132.32 46.9298C132.32 46.8142 132.248 46.7198 132.16 46.7198C132.072 46.7198 132 46.5918 132 46.435C132 46.2786 131.856 46.0466 131.68 45.9198C131.504 45.793 131.36 45.577 131.36 45.4398C131.36 45.3026 131.216 45.0866 131.04 44.9598C130.864 44.833 130.72 44.617 130.72 44.4798C130.72 44.3426 130.576 44.1266 130.4 43.9998C130.224 43.873 130.08 43.6802 130.08 43.5718C130.08 43.463 129.9 43.1942 129.68 42.9742C129.46 42.7542 129.28 42.5098 129.28 42.431C129.28 42.3518 129.064 42.0614 128.8 41.785C128.536 41.5086 128.32 41.2186 128.32 41.1406C128.32 41.0622 128.032 40.7018 127.68 40.339C127.328 39.9762 127.04 39.6142 127.04 39.5342C127.04 39.195 120.346 32.4922 119.193 31.6774C118.889 31.4626 118.485 31.1334 118.295 30.9458C118.106 30.7582 117.674 30.4362 117.335 30.2306C116.997 30.0246 116.604 29.7266 116.461 29.5682C116.319 29.4094 116.137 29.2798 116.056 29.2798C115.976 29.2798 115.807 29.1358 115.68 28.9598C115.553 28.7838 115.356 28.6398 115.243 28.6398C115.13 28.6398 114.811 28.4238 114.535 28.1598C114.258 27.8958 113.968 27.6798 113.89 27.6798C113.811 27.6798 113.592 27.5358 113.403 27.3598C113.214 27.1838 112.965 27.0398 112.85 27.0398C112.734 27.0398 112.64 26.9678 112.64 26.8798C112.64 26.7918 112.512 26.7198 112.355 26.7198C112.199 26.7198 111.967 26.5758 111.84 26.3998C111.713 26.2238 111.481 26.0798 111.325 26.0798C111.168 26.0798 111.04 26.0166 111.04 25.9394C111.04 25.8618 110.824 25.709 110.56 25.5998C110.296 25.4906 110.08 25.3558 110.08 25.3002C110.079 25.245 109.683 25.0198 109.2 24.7998C108.717 24.5798 108.321 24.3458 108.32 24.2798C108.32 24.2138 108.176 24.1598 108 24.1598C107.824 24.1598 107.68 24.0878 107.68 23.9998C107.68 23.9118 107.583 23.8398 107.464 23.8398C107.345 23.8398 106.909 23.6598 106.495 23.4398C106.082 23.2198 105.603 23.0398 105.432 23.0398C105.26 23.0398 105.12 22.9678 105.12 22.8798C105.12 22.7918 104.976 22.7198 104.8 22.7198C104.624 22.7198 104.48 22.6478 104.48 22.5598C104.48 22.4718 104.336 22.3998 104.16 22.3998C103.984 22.3998 103.84 22.3278 103.84 22.2398C103.84 22.1518 103.696 22.0798 103.52 22.0798C103.344 22.0798 103.2 22.0078 103.2 21.9198C103.2 21.8318 103.02 21.7598 102.8 21.7598C102.58 21.7598 102.4 21.6878 102.4 21.5998C102.4 21.5118 102.22 21.4398 102 21.4398C101.78 21.4398 101.6 21.3678 101.6 21.2798C101.6 21.1918 101.42 21.1198 101.2 21.1198C100.98 21.1198 100.8 21.0478 100.8 20.9598C100.8 20.8718 100.584 20.7998 100.32 20.7998C100.056 20.7998 99.84 20.7278 99.84 20.6398C99.84 20.5518 99.624 20.4798 99.36 20.4798C99.096 20.4798 98.8801 20.4078 98.8801 20.3198C98.8801 20.2318 98.664 20.1598 98.4 20.1598C98.136 20.1598 97.9201 20.0878 97.9201 19.9998C97.9201 19.9118 97.7041 19.8398 97.4401 19.8398C97.1761 19.8398 96.96 19.7678 96.96 19.6798C96.96 19.5918 96.7081 19.5198 96.4 19.5198C96.092 19.5198 95.84 19.4478 95.84 19.3598C95.84 19.2718 95.6284 19.1998 95.3697 19.1998C95.1108 19.1998 94.8544 19.1278 94.8 19.0398C94.7457 18.9518 94.4576 18.8798 94.16 18.8798C93.8624 18.8798 93.5744 18.8078 93.5201 18.7198C93.4657 18.6318 93.1012 18.5598 92.7104 18.5598C92.3196 18.5598 92.0001 18.4878 92.0001 18.3998C92.0001 18.3118 91.6805 18.2398 91.2896 18.2398C90.8988 18.2398 90.5344 18.1678 90.48 18.0798C90.4257 17.9918 90.0296 17.9198 89.6001 17.9198C89.1704 17.9198 88.7745 17.8478 88.7201 17.7598C88.6656 17.6718 88.1256 17.5998 87.5201 17.5998C86.9145 17.5998 86.3745 17.5278 86.3201 17.4398C86.2645 17.3498 85.4949 17.2798 84.5601 17.2798C83.6252 17.2798 82.8557 17.2098 82.8 17.1198C82.6696 16.9086 74.8868 16.9086 74.56 17.1198ZM82.5601 33.1158C84.942 33.3422 86.6072 33.6014 89.2001 34.1486C90.6248 34.4498 90.6373 34.453 93.4401 35.3634C96.5416 36.371 99.4672 37.6766 102.16 39.2554C102.776 39.6166 103.478 40.0218 103.719 40.1558C105.534 41.1634 109.422 44.291 111.772 46.633C132.047 66.8426 129.715 100.16 106.821 117.363C105.324 118.487 103.834 119.508 102.988 119.987C102.664 120.17 102.13 120.473 101.8 120.661C96.4693 123.687 90.7809 125.559 84.4 126.385C79.556 127.013 76.0904 126.929 70.96 126.061C45.5024 121.75 28.2861 97.669 32.4813 72.2398C32.8101 70.2482 32.9825 69.4878 33.7516 66.6398C33.9893 65.7606 34.7253 63.6038 34.8836 63.3218C34.9697 63.169 35.0401 62.9702 35.0401 62.8802C35.0401 62.5314 36.9476 58.5014 37.9464 56.7406C43.512 46.927 53.0109 39.0354 63.4401 35.561C67.7869 34.113 70.8917 33.4702 75.5201 33.0606C76.7989 32.9474 81.1476 32.9814 82.5601 33.1158Z" fill="#03A8F4"/>
<path fill-rule="evenodd" clip-rule="evenodd" d="M22.3998 14.0799C22.3998 14.1679 22.1118 14.2399 21.7598 14.2399C21.4078 14.2399 21.1198 14.3119 21.1198 14.3999C21.1198 14.4879 20.9758 14.5599 20.7998 14.5599C20.6238 14.5599 20.4798 14.6319 20.4798 14.7199C20.4798 14.8079 20.3358 14.8799 20.1598 14.8799C19.9838 14.8799 19.8398 14.9519 19.8398 15.0399C19.8398 15.1279 19.7306 15.1999 19.597 15.1999C19.0946 15.1999 16.7998 17.7551 16.7998 18.3143C16.7998 18.4495 16.7278 18.5599 16.6398 18.5599C16.5518 18.5599 16.4798 18.7759 16.4798 19.0399C16.4798 19.3039 16.4078 19.5199 16.3198 19.5199C16.231 19.5199 16.1598 19.9467 16.1598 20.4799C16.1598 21.0131 16.0886 21.4399 15.9998 21.4399C15.9118 21.4399 15.8398 21.6919 15.8398 21.9999C15.8398 22.3079 15.9118 22.5599 15.9998 22.5599C16.0886 22.5599 16.1598 22.9867 16.1598 23.5199C16.1598 24.0531 16.231 24.4799 16.3198 24.4799C16.4078 24.4799 16.4798 24.6959 16.4798 24.9599C16.4798 25.2239 16.5518 25.4399 16.6398 25.4399C16.7278 25.4399 16.7998 25.5671 16.7998 25.7227C16.7998 26.3439 19.0802 28.9599 19.6214 28.9599C19.7414 28.9599 19.8398 29.0319 19.8398 29.1199C19.8398 29.2079 19.9838 29.2799 20.1598 29.2799C20.3358 29.2799 20.4798 29.3363 20.4798 29.4051C20.4798 30.2103 25.9782 30.2383 27.5998 29.4411C28.697 28.9019 30.7198 27.1475 30.7198 26.7355C30.7198 26.6315 30.8638 26.3919 31.0398 26.2031C31.2158 26.0143 31.3598 25.7335 31.3598 25.5791C31.3598 25.4251 31.4318 25.2543 31.5198 25.1999C31.6078 25.1455 31.6798 24.9295 31.6798 24.7199C31.6798 24.5103 31.7518 24.2943 31.8398 24.2399C31.9334 24.1819 31.9998 23.2547 31.9998 21.9999C31.9998 20.7451 31.9334 19.8179 31.8398 19.7599C31.7518 19.7055 31.6798 19.4895 31.6798 19.2799C31.6798 19.0703 31.6078 18.8543 31.5198 18.7999C31.4318 18.7455 31.3598 18.5611 31.3598 18.3903C31.3598 18.2195 31.2878 18.0799 31.1998 18.0799C31.1118 18.0799 31.0398 17.9719 31.0398 17.8399C31.0398 17.7079 30.9678 17.5999 30.8798 17.5999C30.7918 17.5999 30.7198 17.5247 30.7198 17.4327C30.7198 17.3407 30.5578 17.0931 30.3598 16.8827C30.1618 16.6723 29.8198 16.2815 29.5998 16.0147C29.3798 15.7479 29.1098 15.5275 28.9998 15.5247C28.8898 15.5219 28.7998 15.4479 28.7998 15.3599C28.7998 15.2719 28.6918 15.1999 28.5598 15.1999C28.4278 15.1999 28.3198 15.1279 28.3198 15.0399C28.3198 14.9519 28.1758 14.8799 27.9998 14.8799C27.8238 14.8799 27.6798 14.8079 27.6798 14.7199C27.6798 14.6319 27.5358 14.5599 27.3598 14.5599C27.1838 14.5599 27.0398 14.4879 27.0398 14.3999C27.0398 14.3119 26.7518 14.2399 26.3998 14.2399C26.0478 14.2399 25.7598 14.1679 25.7598 14.0799C25.7598 13.9835 25.093 13.9199 24.0798 13.9199C23.0666 13.9199 22.3998 13.9835 22.3998 14.0799ZM96.2398 63.4575C94.4066 63.9199 94.8307 63.5379 82.6042 75.7367L71.0486 87.2663L67.3214 83.5611C64.295 80.5531 63.4262 79.7795 62.7002 79.4471C56.9566 76.8175 51.323 83.2703 54.8838 88.3999C55.1962 88.8499 69.9682 103.758 70.969 104.633C71.1142 104.76 102.401 73.3919 102.8 72.7199C105.522 68.1323 101.306 62.1799 96.2398 63.4575ZM127.04 136C127.04 136.088 126.824 136.16 126.56 136.16C126.296 136.16 126.08 136.232 126.08 136.32C126.08 136.408 125.936 136.48 125.76 136.48C125.584 136.48 125.44 136.552 125.44 136.64C125.44 136.728 125.311 136.8 125.154 136.8C124.836 136.8 123.36 138.22 123.36 138.526C123.36 138.632 123.288 138.72 123.2 138.72C123.112 138.72 123.04 138.828 123.04 138.96C123.04 139.092 122.968 139.2 122.88 139.2C122.792 139.2 122.72 139.416 122.72 139.68C122.72 139.944 122.648 140.16 122.56 140.16C122.472 140.16 122.4 140.52 122.4 140.96C122.4 141.4 122.328 141.76 122.24 141.76C122.152 141.76 122.08 142.012 122.08 142.32C122.08 142.628 122.152 142.88 122.24 142.88C122.328 142.88 122.4 143.24 122.4 143.68C122.4 144.12 122.472 144.48 122.56 144.48C122.648 144.48 122.72 144.696 122.72 144.96C122.72 145.224 122.783 145.44 122.861 145.44C122.939 145.44 123.121 145.688 123.265 145.99C123.575 146.644 124.889 148 125.213 148C125.337 148 125.44 148.072 125.44 148.16C125.44 148.248 125.549 148.32 125.682 148.32C125.815 148.32 126.049 148.385 126.202 148.464C127.327 149.049 131.36 149.048 131.36 148.462C131.36 148.384 131.504 148.32 131.68 148.32C131.856 148.32 132 148.248 132 148.16C132 148.072 132.098 148 132.218 148C132.529 148 134.24 146.319 134.24 146.014C134.24 145.874 134.312 145.76 134.4 145.76C134.488 145.76 134.56 145.616 134.56 145.44C134.56 145.264 134.632 145.12 134.72 145.12C134.808 145.12 134.88 144.98 134.88 144.81C134.88 144.639 134.952 144.454 135.04 144.4C135.133 144.343 135.2 143.468 135.2 142.32C135.2 141.172 135.133 140.297 135.04 140.24C134.952 140.186 134.88 140.001 134.88 139.83C134.88 139.66 134.808 139.52 134.72 139.52C134.632 139.52 134.56 139.376 134.56 139.2C134.56 139.024 134.488 138.88 134.4 138.88C134.312 138.88 134.24 138.776 134.24 138.649C134.24 138.314 132.65 136.8 132.298 136.8C132.134 136.8 132 136.728 132 136.64C132 136.552 131.856 136.48 131.68 136.48C131.504 136.48 131.36 136.408 131.36 136.32C131.36 136.232 131.144 136.16 130.88 136.16C130.616 136.16 130.4 136.088 130.4 136C130.4 135.904 129.733 135.84 128.72 135.84C127.707 135.84 127.04 135.904 127.04 136Z" fill="#007DC6"/>
<path fill-rule="evenodd" clip-rule="evenodd" d="M121.44 7.83993C121.44 7.92793 121.331 7.99993 121.198 7.99993C120.672 7.99993 119.52 8.91993 119.52 9.33913C119.52 9.46793 119.44 9.59953 119.344 9.63193C119.233 9.66873 119.168 10.2227 119.168 11.1199C119.168 12.0171 119.233 12.5711 119.344 12.6079C119.44 12.6403 119.52 12.7507 119.52 12.8531C119.52 13.2867 120.673 14.2399 121.198 14.2399C121.331 14.2399 121.44 14.3119 121.44 14.3999C121.44 14.4903 121.893 14.5599 122.48 14.5599C123.066 14.5599 123.52 14.4903 123.52 14.3999C123.52 14.3119 123.664 14.2399 123.84 14.2399C124.016 14.2399 124.16 14.1679 124.16 14.0799C124.16 13.9919 124.277 13.9199 124.421 13.9199C124.713 13.9199 125.439 13.1499 125.44 12.8399C125.44 12.7299 125.512 12.6399 125.6 12.6399C125.695 12.6399 125.76 12.0267 125.76 11.1199C125.76 10.2131 125.695 9.59993 125.6 9.59993C125.512 9.59993 125.44 9.48873 125.44 9.35273C125.44 9.03273 124.727 8.31993 124.407 8.31993C124.271 8.31993 124.16 8.24793 124.16 8.15993C124.16 8.07193 124.016 7.99993 123.84 7.99993C123.664 7.99993 123.52 7.92793 123.52 7.83993C123.52 7.74953 123.066 7.67993 122.48 7.67993C121.893 7.67993 121.44 7.74953 121.44 7.83993ZM143.36 35.9999C143.36 36.0879 143.18 36.1599 142.96 36.1599C142.74 36.1599 142.56 36.2319 142.56 36.3199C142.56 36.4079 142.484 36.4799 142.392 36.4799C141.91 36.4799 141.12 37.7115 141.12 38.4643C141.12 38.7663 141.03 39.0463 140.92 39.0867C140.76 39.1451 140.76 39.2023 140.92 39.3719C141.03 39.4887 141.12 39.8575 141.12 40.1919C141.12 40.5263 141.192 40.7999 141.28 40.7999C141.368 40.7999 141.44 40.8899 141.44 40.9999C141.44 41.3039 142.1 41.9751 142.64 42.2195C142.904 42.3391 143.245 42.5007 143.398 42.5787C143.957 42.8631 146.08 42.5643 146.08 42.2011C146.08 42.1343 146.176 42.0799 146.293 42.0799C146.516 42.0799 147.136 41.4275 147.48 40.8315C147.721 40.4119 147.756 37.7599 147.52 37.7599C147.432 37.7599 147.36 37.6699 147.36 37.5599C147.359 37.2499 146.633 36.4799 146.341 36.4799C146.197 36.4799 146.08 36.4079 146.08 36.3199C146.08 36.2319 145.936 36.1599 145.76 36.1599C145.584 36.1599 145.44 36.0879 145.44 35.9999C145.44 35.9095 144.986 35.8399 144.4 35.8399C143.813 35.8399 143.36 35.9095 143.36 35.9999ZM12.0796 39.0399C12.0252 39.1279 11.8408 39.1999 11.67 39.1999C11.4992 39.1999 11.3596 39.2719 11.3596 39.3599C11.3596 39.4479 11.264 39.5199 11.1476 39.5199C10.6616 39.5199 9.91961 40.7271 9.91961 41.5179C9.91961 41.8271 9.84761 42.0799 9.75961 42.0799C9.67161 42.0799 9.59961 42.1879 9.59961 42.3199C9.59961 42.4519 9.67161 42.5599 9.75961 42.5599C9.84761 42.5599 9.91961 42.8007 9.91961 43.0955C9.91961 44.0871 10.9668 45.4399 11.7348 45.4399C11.8804 45.4399 11.9996 45.5119 11.9996 45.5999C11.9996 45.6915 12.4796 45.7599 13.1196 45.7599C13.7596 45.7599 14.2396 45.6915 14.2396 45.5999C14.2396 45.5119 14.3836 45.4399 14.5596 45.4399C14.7356 45.4399 14.8796 45.3679 14.8796 45.2799C14.8796 45.1919 14.9752 45.1199 15.0916 45.1199C16.124 45.1199 16.9156 42.1067 16.2312 40.7831C15.89 40.1235 15.3452 39.5199 15.0908 39.5199C14.9748 39.5199 14.8796 39.4479 14.8796 39.3599C14.8796 39.2719 14.74 39.1999 14.5692 39.1999C14.3984 39.1999 14.214 39.1279 14.1596 39.0399C14.1052 38.9519 13.6372 38.8799 13.1196 38.8799C12.602 38.8799 12.134 38.9519 12.0796 39.0399ZM97.0796 63.3155C97.3656 63.3511 97.8336 63.3511 98.1196 63.3155C98.4056 63.2803 98.1716 63.2511 97.5996 63.2511C97.0276 63.2511 96.7936 63.2803 97.0796 63.3155ZM95.2396 63.6135C94.5212 63.9275 94.584 64.0491 95.3196 63.7683C95.6496 63.6423 96.0636 63.5071 96.2396 63.4679C96.4892 63.4127 96.4716 63.3959 96.1596 63.3915C95.9396 63.3883 95.5256 63.4883 95.2396 63.6135ZM100.64 64.1123C101.71 64.8795 102.64 65.9103 103.063 66.7999C103.314 67.3279 103.52 67.6675 103.52 67.5547C103.52 66.7455 101.882 64.6783 100.792 64.1131C100.263 63.8379 100.256 63.8379 100.64 64.1123ZM82.6092 75.5523L71.0496 87.1047L67.5152 83.5923C65.5712 81.6603 63.9636 80.0799 63.9424 80.0799C63.9208 80.0799 65.5108 81.6983 67.4752 83.6759L71.0464 87.2723L82.4432 75.8975C88.7112 69.6415 94.0176 64.4051 94.2352 64.2615C94.4648 64.1095 94.534 63.9999 94.4 63.9999C94.2728 63.9999 88.9672 69.1983 82.6092 75.5523ZM103.642 69.0075C103.72 70.7387 103.794 70.9555 103.815 69.5199C103.826 68.8159 103.78 68.1531 103.712 68.0475C103.645 67.9415 103.614 68.3735 103.642 69.0075ZM103.425 71.3011C103.364 71.5535 103.213 71.9759 103.09 72.2399C102.882 72.6807 102.884 72.6943 103.113 72.4071C103.375 72.0791 103.719 71.0263 103.603 70.9099C103.566 70.8727 103.486 71.0487 103.425 71.3011ZM86.7996 88.9599C78.176 97.5839 71.0804 104.64 71.0316 104.64C70.9828 104.64 70.628 104.334 70.2432 103.96C69.8588 103.586 69.6464 103.432 69.7716 103.617C69.8972 103.803 70.24 104.156 70.5336 104.403L71.0676 104.852L86.8536 89.0659C95.5356 80.3835 102.603 73.2799 102.559 73.2799C102.515 73.2799 95.4232 80.3359 86.7996 88.9599ZM58.3996 78.8779C58.236 78.9819 58.3636 78.9995 58.7996 78.9327C59.5904 78.8115 59.7252 78.7191 59.1064 78.7223C58.8496 78.7235 58.5316 78.7935 58.3996 78.8779ZM60.4928 78.7771C60.5296 78.8087 60.8476 78.8787 61.1996 78.9327C61.6356 78.9995 61.7632 78.9819 61.5996 78.8779C61.3808 78.7383 60.3376 78.6435 60.4928 78.7771ZM56.8764 79.5035C56.0364 79.9855 54.8852 81.1215 54.5728 81.7767C54.394 82.1527 54.396 82.1523 54.6748 81.7599C55.3804 80.7687 56.2676 79.9707 57.1616 79.5243C57.6948 79.2579 58.0292 79.0407 57.9052 79.0415C57.7812 79.0423 57.318 79.2503 56.8764 79.5035ZM62.0796 79.1543C62.2116 79.2035 62.5176 79.3439 62.7596 79.4659C63.0016 79.5883 63.1996 79.6523 63.1996 79.6083C63.1996 79.4827 62.2788 79.0383 62.0476 79.0527C61.908 79.0611 61.9184 79.0943 62.0796 79.1543ZM53.8396 83.5199C53.7788 83.7963 53.7624 84.0563 53.8032 84.0967C53.844 84.1375 53.9232 83.9411 53.9796 83.6599C54.1128 82.9931 53.9836 82.8639 53.8396 83.5199ZM53.7868 85.9999C53.7844 86.1759 53.844 86.4639 53.9196 86.6399C54.0948 87.0475 54.0948 86.6271 53.9196 86.0799C53.8168 85.7583 53.7904 85.7427 53.7868 85.9999ZM54.67 88.2847C54.8264 88.5735 55.2044 89.0415 55.5104 89.3247L56.066 89.8399L55.5128 89.1983C55.2084 88.8455 54.8304 88.3775 54.6728 88.1583C54.396 87.7739 54.3956 87.7783 54.67 88.2847ZM58.0848 91.9075C58.7656 92.7143 62.4216 96.3511 62.4864 96.2863C62.5204 96.2523 61.4552 95.1479 60.1192 93.8323C58.7832 92.5163 57.8676 91.6503 58.0848 91.9075ZM63.01 96.9247C63.246 97.1695 63.47 97.3495 63.5068 97.3243C63.5992 97.2619 62.8536 96.4799 62.702 96.4799C62.6348 96.4799 62.7736 96.6803 63.01 96.9247ZM64.82 98.6739C65.1728 99.1139 68.5412 102.458 68.8856 102.71C69.0584 102.836 68.1924 101.918 66.9616 100.67C64.884 98.5623 64.278 97.9979 64.82 98.6739ZM12.0796 117.156C11.1824 117.474 10.2396 118.228 10.2396 118.628C10.2396 118.767 10.1676 118.88 10.0796 118.88C9.99161 118.88 9.91961 119.162 9.91961 119.507C9.91961 119.863 9.83321 120.165 9.71961 120.206C9.55961 120.264 9.55961 120.346 9.71961 120.617C9.82961 120.803 9.91961 121.209 9.91961 121.518C9.91961 121.827 9.99161 122.08 10.0796 122.08C10.1676 122.08 10.2396 122.18 10.2396 122.304C10.2396 122.62 11.3088 123.52 11.6852 123.52C11.858 123.52 11.9996 123.592 11.9996 123.68C11.9996 123.772 12.4796 123.84 13.1196 123.84C13.7356 123.84 14.2396 123.777 14.2396 123.7C14.2396 123.623 14.4376 123.516 14.6796 123.462C16.2228 123.118 17.07 120.369 16.134 118.743C15.344 117.37 13.5048 116.65 12.0796 117.156ZM143.208 117.189C142.52 117.448 141.44 118.34 141.44 118.649C141.44 118.776 141.368 118.88 141.28 118.88C141.192 118.88 141.12 119.154 141.12 119.488C141.12 119.822 141.033 120.182 140.928 120.288C140.778 120.437 140.778 120.523 140.928 120.672C141.033 120.778 141.12 121.138 141.12 121.472C141.12 121.806 141.192 122.08 141.28 122.08C141.368 122.08 141.44 122.163 141.44 122.264C141.44 122.612 142.533 123.52 142.952 123.52C143.176 123.52 143.36 123.592 143.36 123.68C143.36 123.77 143.813 123.84 144.4 123.84C144.972 123.84 145.44 123.777 145.44 123.7C145.44 123.623 145.638 123.52 145.882 123.472C147.742 123.1 148.412 119.682 146.93 118.132C146.034 117.195 144.334 116.765 143.208 117.189ZM30.7996 142.24C30.7452 142.328 30.5752 142.4 30.4216 142.4C29.7932 142.4 28.6396 143.828 28.6396 144.606C28.6396 144.854 28.5532 145.142 28.4476 145.248C28.2984 145.397 28.2984 145.483 28.4476 145.632C28.5532 145.738 28.6396 146.098 28.6396 146.432C28.6396 146.766 28.7116 147.04 28.7996 147.04C28.8876 147.04 28.9596 147.153 28.9596 147.292C28.9596 147.688 30.1348 148.64 30.6244 148.64C30.7648 148.64 30.8796 148.712 30.8796 148.8C30.8796 148.889 31.3032 148.96 31.83 148.96C32.3528 148.96 32.8252 148.888 32.8796 148.8C32.934 148.712 33.1184 148.64 33.2892 148.64C33.46 148.64 33.5996 148.568 33.5996 148.48C33.5996 148.392 33.7068 148.32 33.838 148.32C33.9692 148.32 34.3276 147.978 34.634 147.56C35.7056 146.1 35.1584 142.72 33.8512 142.72C33.7128 142.72 33.5996 142.648 33.5996 142.56C33.5996 142.472 33.4556 142.4 33.2796 142.4C33.1036 142.4 32.9596 142.328 32.9596 142.24C32.9596 142.15 32.5096 142.08 31.9292 142.08C31.3624 142.08 30.854 142.152 30.7996 142.24Z" fill="#94D4FC"/>
<path fill-rule="evenodd" clip-rule="evenodd" d="M73.5192 33.3035C72.8152 33.3831 71.8432 33.5219 71.3591 33.6119C69.3611 33.9831 67.4459 34.3891 66.8792 34.5611C66.6591 34.6279 66.1552 34.7735 65.7592 34.8839C52.4811 38.5963 40.46 49.3211 35.5012 61.8799C35.4232 62.0779 35.2968 62.4019 35.2208 62.5999C35.1444 62.7979 35.0052 63.1399 34.9112 63.3599C31.586 71.1419 31.0444 83.3491 33.6224 92.3999C33.9856 93.6747 34.734 95.9263 34.8848 96.1979C34.9696 96.3507 35.0392 96.5463 35.0392 96.6331C35.0392 96.7195 35.2192 97.1887 35.4392 97.6751C35.6592 98.1619 36.0192 98.9579 36.2392 99.4447C36.4592 99.9311 36.6392 100.354 36.6392 100.385C36.6392 100.415 37.0928 101.259 37.6472 102.26C41.5372 109.282 46.5032 114.614 53.5504 119.336C54.0956 119.701 54.5784 120 54.6232 120C54.6684 120 55.0864 120.226 55.552 120.503C57.92 121.909 61.9772 123.674 64.7992 124.527C66.0472 124.905 66.5596 125.045 68.1591 125.445C70.3099 125.984 75.0028 126.669 75.4276 126.506C75.6508 126.421 75.6791 125.669 75.6791 119.876V113.343L76.1508 112.599C76.8899 111.433 77.4591 111.225 80.4375 111.03C94.6523 110.101 106.266 100.24 109.256 86.5599C109.671 84.6651 109.77 83.9007 109.908 81.5763C110.125 77.9055 110.882 76.7919 113.154 76.8035C115.96 76.8179 116.785 79.5859 115.775 85.5999C113.005 102.094 100.366 114.585 84.0792 116.923L81.9992 117.222L81.9568 121.891L81.9143 126.56H82.4184C82.888 126.56 83.3556 126.496 86.0792 126.059C87.7607 125.79 90.1032 125.296 91.1992 124.979C91.5072 124.891 92.0112 124.748 92.3192 124.662C97.1244 123.326 103.137 120.208 107.439 116.823C111.636 113.52 116.462 108.236 118.24 104.997C118.372 104.757 118.66 104.272 118.879 103.92C122.985 97.3423 125.599 87.9519 125.599 79.7831C125.599 77.2319 125.009 72.0335 124.48 69.9199C124.402 69.6119 124.256 68.9999 124.153 68.5599C121.466 57.0111 113.25 45.9095 102.799 39.7051C101.301 38.8155 97.7392 36.9599 97.53 36.9599C97.478 36.9599 97.0944 36.8087 96.6776 36.6239C96.2604 36.4391 95.7752 36.2259 95.5992 36.1499C94.2288 35.5591 89.8016 34.2919 87.8392 33.9283C87.2672 33.8223 86.4752 33.6735 86.0792 33.5975C85.6832 33.5215 84.8912 33.4171 84.3192 33.3651C83.7472 33.3135 82.9732 33.2291 82.5992 33.1775L81.9192 33.0835V39.2707C81.9192 48.2159 81.8512 48.3543 77.3112 48.6487C67.8788 49.2599 59.5552 53.5279 54.238 60.4799C53.9352 60.8759 53.6448 61.2359 53.5928 61.2799C53.194 61.6167 51.2412 64.8959 50.496 66.4799C48.6804 70.3387 47.5192 75.1467 47.5192 78.8063C47.5192 81.5319 46.446 82.8799 44.2756 82.8799C41.7308 82.8799 40.8308 80.7091 41.4428 76.0463C41.6968 74.1099 41.934 72.6127 42.0836 71.9999C42.1588 71.6919 42.3068 71.0799 42.412 70.6399C46.0068 55.6447 59.4564 44.1095 75.1992 42.5203L75.5992 42.4799V37.8399V33.1999L75.1992 33.1791C74.9792 33.1679 74.2232 33.2239 73.5192 33.3035ZM98.7992 63.1999C98.8536 63.2879 99.0696 63.3599 99.2788 63.3599C100.367 63.3599 102.508 65.0887 103.19 66.5175C103.39 66.9367 103.618 67.4051 103.697 67.5579C103.884 67.9235 103.881 71.1251 103.693 71.4819C103.612 71.6347 103.436 72.0119 103.301 72.3199C103.166 72.6279 102.89 73.0875 102.688 73.3415C102.064 74.1227 71.1872 104.96 71.0288 104.96C70.8404 104.96 55.4536 89.5795 54.7804 88.7183C51.6096 84.6615 54.7172 78.6751 59.9992 78.6635C62.6124 78.6579 62.804 78.7779 67.322 83.2547L71.0444 86.9431L82.282 75.7099C93.0172 64.9783 94.3843 63.6799 94.9508 63.6799C95.0872 63.6799 95.1992 63.6079 95.1992 63.5199C95.1992 63.4319 95.3972 63.3587 95.6392 63.3575C95.8812 63.3563 96.1872 63.2851 96.3192 63.1999C96.6364 62.9951 98.6724 62.9951 98.7992 63.1999Z" fill="#FBFBFB"/>
<path fill-rule="evenodd" clip-rule="evenodd" d="M75.84 33.091C75.6348 33.1842 75.6 33.8702 75.6 37.8398V42.4798L75.2 42.5202C59.4572 44.1094 46.0076 55.6446 42.4128 70.6398C42.3076 71.0798 42.1596 71.6918 42.0844 71.9998C40.8008 77.257 41.0436 81.371 42.6988 82.4206C45.1356 83.9662 47.52 82.1786 47.52 78.8062C47.52 75.1466 48.6812 70.3386 50.4968 66.4798C51.242 64.8958 53.1948 61.6166 53.5936 61.2798C53.6456 61.2358 53.936 60.8758 54.2388 60.4798C59.556 53.5278 67.8796 49.2598 77.312 48.6486C80.378 48.4498 81.2972 47.9318 81.746 46.1498C82.052 44.9346 81.9808 33.1774 81.6668 33.057C81.3224 32.9246 76.14 32.955 75.84 33.091ZM82.92 33.2302C83.074 33.2702 83.326 33.2702 83.48 33.2302C83.634 33.1898 83.508 33.157 83.2 33.157C82.892 33.157 82.766 33.1898 82.92 33.2302ZM111.36 46.3198C111.927 46.8918 112.427 47.3598 112.471 47.3598C112.515 47.3598 112.087 46.8918 111.52 46.3198C110.953 45.7478 110.453 45.2798 110.409 45.2798C110.365 45.2798 110.793 45.7478 111.36 46.3198ZM96.3752 63.1622C96.2732 63.227 96.7884 63.2798 97.5196 63.2798C98.2508 63.2798 98.8156 63.2258 98.7752 63.1598C98.68 63.0054 96.6188 63.0074 96.3752 63.1622ZM100.8 64.065C100.8 64.097 100.98 64.241 101.2 64.385C101.42 64.5294 101.6 64.585 101.6 64.509C101.6 64.4334 101.42 64.289 101.2 64.189C100.98 64.0886 100.8 64.033 100.8 64.065ZM82.3648 75.6226L71.0636 86.925L70.052 85.9874L69.04 85.0494L69.84 85.8966C70.28 86.3626 70.7528 86.8058 70.8904 86.8818C71.0864 86.9894 73.6228 84.5378 82.49 75.6698C88.732 69.4274 93.8 64.3198 93.7524 64.3198C93.7048 64.3198 88.58 69.4058 82.3648 75.6226ZM103.698 70.8266C103.688 70.9294 103.634 71.1454 103.576 71.3066C103.496 71.5342 103.518 71.5586 103.672 71.4166C103.781 71.3162 103.836 71.1002 103.794 70.9366C103.752 70.7734 103.709 70.7238 103.698 70.8266ZM102.818 72.875C102.672 73.0974 102.609 73.2798 102.678 73.2798C102.834 73.2798 103.248 72.6342 103.153 72.5394C103.114 72.501 102.964 72.6522 102.818 72.875ZM86.766 89.1534L71.0524 104.867L70.646 104.486C70.4228 104.276 70.24 104.162 70.24 104.233C70.24 104.389 70.8788 104.96 71.0536 104.96C71.1664 104.96 101.863 74.3346 102.38 73.7066C103.056 72.8842 101.102 74.8182 86.766 89.1534ZM125.317 75.6798C125.317 75.9878 125.35 76.1138 125.39 75.9598C125.43 75.8058 125.43 75.5538 125.39 75.3998C125.35 75.2458 125.317 75.3718 125.317 75.6798ZM111.845 77.053C110.406 77.677 110.096 78.4018 109.909 81.5762C109.771 83.9006 109.672 84.665 109.257 86.5598C106.265 100.248 94.6544 110.101 80.4204 111.031C77.456 111.225 76.8648 111.447 76.1292 112.64L75.6852 113.36L75.6752 120L75.6652 126.64L77.1924 126.767C78.0328 126.837 79.422 126.837 80.28 126.767L81.84 126.64L81.92 121.931L82 117.222L84.08 116.923C99.6956 114.681 112.119 102.977 115.462 87.3598C116.036 84.6782 116.348 79.8558 116.014 78.8434C115.46 77.165 113.514 76.3294 111.845 77.053ZM31.8936 78.0798C31.8936 78.7398 31.922 79.0098 31.9564 78.6798C31.9912 78.3498 31.9912 77.8098 31.9564 77.4798C31.922 77.1498 31.8936 77.4198 31.8936 78.0798ZM59.56 78.6746C59.802 78.711 60.198 78.711 60.44 78.6746C60.682 78.6378 60.484 78.6078 60 78.6078C59.516 78.6078 59.318 78.6378 59.56 78.6746ZM57.92 78.8798C57.7068 79.0178 57.7068 79.035 57.92 79.035C58.052 79.035 58.268 78.965 58.4 78.8798C58.6132 78.7418 58.6132 78.7246 58.4 78.7246C58.268 78.7246 58.052 78.7946 57.92 78.8798ZM61.6 78.8798C61.732 78.965 61.948 79.035 62.08 79.035C62.2932 79.035 62.2932 79.0178 62.08 78.8798C61.948 78.7946 61.732 78.7246 61.6 78.7246C61.3868 78.7246 61.3868 78.7418 61.6 78.8798ZM56.8 79.3754C56.1696 79.7518 54.56 81.2726 54.56 81.4918C54.56 81.5702 54.8952 81.2618 55.3044 80.8062C55.714 80.351 56.416 79.7678 56.8644 79.5106C57.3132 79.2534 57.608 79.0422 57.52 79.0418C57.432 79.0414 57.108 79.1914 56.8 79.3754ZM63.1288 79.5334C63.564 79.805 65.072 81.155 66.48 82.5334L69.04 85.0398L66.48 82.4342C65.072 81.001 63.6192 79.651 63.2516 79.4342C62.2892 78.8666 62.1892 78.9474 63.1288 79.5334ZM31.8936 81.5998C31.8936 82.2598 31.922 82.5298 31.9564 82.1998C31.9912 81.8698 31.9912 81.3298 31.9564 80.9998C31.922 80.6698 31.8936 80.9398 31.8936 81.5998ZM54.0356 82.5198C53.2212 84.3078 53.564 87.1586 54.7812 88.7194C55.3788 89.4854 56.64 90.7734 56.64 90.6174C56.64 90.5566 56.206 90.055 55.6752 89.5022C53.8204 87.5706 53.2252 84.9722 54.1268 82.7406C54.5948 81.5818 54.5324 81.4302 54.0356 82.5198ZM125.317 83.9998C125.317 84.3078 125.35 84.4338 125.39 84.2798C125.43 84.1258 125.43 83.8738 125.39 83.7198C125.35 83.5658 125.317 83.6918 125.317 83.9998ZM57.8256 91.9198C58.0456 92.1398 58.2772 92.3198 58.3408 92.3198C58.404 92.3198 58.2868 92.1398 58.08 91.9198C57.8732 91.6998 57.6416 91.5198 57.5648 91.5198C57.488 91.5198 57.6056 91.6998 57.8256 91.9198ZM62.72 96.7066C62.72 96.875 63.202 97.331 63.2884 97.2446C63.3288 97.2042 63.2176 97.0406 63.0408 96.8806C62.8644 96.721 62.72 96.6426 62.72 96.7066ZM63.7456 97.8398C63.9656 98.0598 64.1972 98.2398 64.2608 98.2398C64.324 98.2398 64.2068 98.0598 64 97.8398C63.7932 97.6198 63.5616 97.4398 63.4848 97.4398C63.408 97.4398 63.5256 97.6198 63.7456 97.8398ZM69.28 103.267C69.28 103.435 69.762 103.891 69.8484 103.805C69.8888 103.764 69.7776 103.601 69.6008 103.441C69.4244 103.281 69.28 103.203 69.28 103.267ZM112.87 111.88L112.4 112.4L112.92 111.93C113.206 111.671 113.44 111.437 113.44 111.41C113.44 111.286 113.308 111.395 112.87 111.88ZM45.44 112.88C45.7384 113.188 46.0188 113.44 46.0628 113.44C46.1068 113.44 45.8984 113.188 45.6 112.88C45.3016 112.572 45.0212 112.32 44.9772 112.32C44.9332 112.32 45.1416 112.572 45.44 112.88Z" fill="#D3DCE4"/>
</svg>
