<svg xmlns="http://www.w3.org/2000/svg" width="20.17" height="26.4" viewBox="0 0 20.17 26.4">
  <g id="orders-icon-active" transform="translate(2875 1239.506)">
    <path id="Subtraction_18" data-name="Subtraction 18" d="M1.726,26.4a1.441,1.441,0,0,1-1.043-.433A1.624,1.624,0,0,1,.252,24.92L0,4.153a1.533,1.533,0,0,1,.427-1.07,1.442,1.442,0,0,1,1.047-.447H2.912v.036A2.652,2.652,0,0,0,5.573,5.309h.036l9.06-.108a2.6,2.6,0,0,0,1.87-.794,2.683,2.683,0,0,0,.755-1.914V2.456h1.15a1.442,1.442,0,0,1,1.043.433,1.625,1.625,0,0,1,.431,1.047L20.17,24.7a1.533,1.533,0,0,1-.427,1.07,1.442,1.442,0,0,1-1.047.447Zm1.15-3.286v1.445H16.9V23.114Zm0-2.167v1.445H18.7V20.947Zm0-2.167v1.444h11.5V18.78ZM14.76,9.225l-.066.037-.1.054-.167.089L10.3,11.593v4.713l4.456-2.362Zm-9.351,0h0v4.718l4.449,2.362V11.593L5.744,9.407l-.167-.088L5.47,9.261l-.06-.033Zm7.37-1.316-.18.1-.181.094-4.11,2.162,1.773.942,4.092-2.174.18-.094.13-.069.047-.027Zm-2.694-1.43L5.637,8.842l.046.026.133.071.178.094,1.837.978,4.11-2.163.181-.094.18-.094ZM5.573,4.153a1.523,1.523,0,0,1-1.1-.465,1.326,1.326,0,0,1-.373-.98V1.625A1.533,1.533,0,0,1,4.526.555,1.442,1.442,0,0,1,5.573.108L14.633,0a1.479,1.479,0,0,1,1.474,1.481V2.564a1.455,1.455,0,0,1-.431,1.047,1.609,1.609,0,0,1-1.043.433Z" transform="translate(-2875 -1239.506)" fill="#fff"/>
  </g>
</svg>
