<svg id="orders-icon-inactive" xmlns="http://www.w3.org/2000/svg" width="14.493" height="18.969" viewBox="0 0 14.493 18.969">
  <path id="Subtraction_18" data-name="Subtraction 18" d="M1.24,18.969a1.035,1.035,0,0,1-.749-.311,1.167,1.167,0,0,1-.31-.752L0,2.984a1.1,1.1,0,0,1,.307-.769,1.036,1.036,0,0,1,.752-.321H2.093V1.92A1.905,1.905,0,0,0,4,3.815H4.03l6.51-.078a1.866,1.866,0,0,0,1.343-.571,1.928,1.928,0,0,0,.542-1.375V1.765h.827A1.036,1.036,0,0,1,14,2.076a1.168,1.168,0,0,1,.31.752l.181,14.921a1.1,1.1,0,0,1-.307.769,1.036,1.036,0,0,1-.752.321Zm.827-2.361v1.038H12.142V16.608Zm0-1.557v1.038H13.433V15.051Zm0-1.557v1.038h8.267V13.494Zm8.539-6.865-.047.026-.073.039-.12.064L7.4,8.33v3.387l3.2-1.7Zm-6.719,0h0v3.39l3.2,1.7V8.33L4.127,6.759,4.007,6.7,3.93,6.654,3.887,6.63Zm5.3-.946-.129.068-.13.068L5.97,7.374l1.274.677,2.94-1.562.129-.068.094-.05.033-.019ZM7.246,4.657l-3.2,1.7.033.019.1.051.128.067,1.32.7L8.58,5.638l.13-.068L8.839,5.5ZM4,2.984a1.094,1.094,0,0,1-.791-.334.953.953,0,0,1-.268-.7V1.168A1.1,1.1,0,0,1,3.252.4,1.036,1.036,0,0,1,4,.078L10.514,0a1.063,1.063,0,0,1,1.059,1.064v.778a1.046,1.046,0,0,1-.31.752,1.156,1.156,0,0,1-.749.311Z" fill="#9e9e9e"/>
</svg>
