<svg xmlns="http://www.w3.org/2000/svg" width="12.049" height="12.049" viewBox="0 0 12.049 12.049">
  <path id="public-icon" d="M9.024,3a6.024,6.024,0,1,0,6.024,6.024A6.027,6.027,0,0,0,9.024,3Zm-.6,10.8A4.813,4.813,0,0,1,4.2,9.024a4.891,4.891,0,0,1,.127-1.078l2.886,2.886v.6a1.208,1.208,0,0,0,1.2,1.2Zm4.157-1.53a1.2,1.2,0,0,0-1.145-.837h-.6V9.627a.6.6,0,0,0-.6-.6H6.615V7.82h1.2a.6.6,0,0,0,.6-.6v-1.2h1.2a1.208,1.208,0,0,0,1.2-1.2V4.56a4.809,4.809,0,0,1,1.747,7.711Z" transform="translate(-3 -3)" fill="#3e5f7b"/>
</svg>
