<svg xmlns="http://www.w3.org/2000/svg" width="16.846" height="18.496" viewBox="0 0 16.846 18.496">
  <g id="services-icon-inactive" transform="translate(2700.015 183.374)">
    <path id="Path_7723" data-name="Path 7723" d="M607.371,1577.895a6.165,6.165,0,0,1,2.461.537,10.321,10.321,0,0,0,2.142.639c.631.12,1.266.221,1.895.348a1.154,1.154,0,0,1,.439.205.385.385,0,0,1,.019.63,1.34,1.34,0,0,1-1.069.323c-.2-.019-.39-.06-.586-.089-.67-.1-1.339-.209-2.012-.293a2.894,2.894,0,0,0-1.35.158.294.294,0,0,0-.145.123.142.142,0,0,0,.033.133.155.155,0,0,0,.132.03,3.639,3.639,0,0,1,1.959-.082c.649.111,1.3.217,1.952.3a1.593,1.593,0,0,0,1.283-.39.643.643,0,0,0,.058-.984c-.037-.042-.045-.077.011-.1a10.45,10.45,0,0,0,1.568-1.116c.3-.227.619-.439.943-.639a.634.634,0,0,1,.738.017.162.162,0,0,0,.106.011c.391-.067.679.209.575.561a.836.836,0,0,1-.141.266c-.444.574-.9,1.143-1.341,1.717a2.717,2.717,0,0,1-1,.794c-1,.477-2,.949-2.981,1.452a2.893,2.893,0,0,1-1.957.264c-.669-.137-1.327-.322-1.99-.485-.491-.121-.977-.261-1.474-.355a2.768,2.768,0,0,0-1.583.17c-.713.29-1.428.574-2.14.866a.278.278,0,0,1-.3-.03,1.848,1.848,0,0,1-.288-.262,4.621,4.621,0,0,1-1-2.114.843.843,0,0,1-.01-.117c-.011-.294.014-.329.308-.449.506-.207,1.025-.392,1.512-.632a6.772,6.772,0,0,0,.907-.61A4.03,4.03,0,0,1,607.371,1577.895Z" transform="translate(-3302.332 -1747.807)" fill="#8b8b8b"/>
    <path id="Icon_awesome-user-alt" data-name="Icon awesome-user-alt" d="M3.507,3.946A1.973,1.973,0,1,0,1.535,1.973,1.973,1.973,0,0,0,3.507,3.946Zm1.754.438H4.506a2.385,2.385,0,0,1-2,0H1.754A1.754,1.754,0,0,0,0,6.138v.219a.658.658,0,0,0,.658.658h5.7a.658.658,0,0,0,.658-.658V6.138A1.754,1.754,0,0,0,5.261,4.384Z" transform="translate(-2693.634 -180.423)" fill="#8b8b8b"/>
    <g id="Group_1095" data-name="Group 1095" transform="translate(-2696.583 -182.874)">
      <path id="Subtraction_13" data-name="Subtraction 13" d="M6.457,12.914A6.455,6.455,0,0,1,.836,3.281l.088.1a6.329,6.329,0,0,0,9.262,8.191l.09.089A6.4,6.4,0,0,1,6.457,12.914ZM12.039,9.7h0l-.09-.093a6.328,6.328,0,0,0-9.316-8.19l-.089-.089A6.388,6.388,0,0,1,6.457,0a6.454,6.454,0,0,1,5.582,9.7Z" transform="translate(0)" fill="#8b8b8b" stroke="#8b8b8b" stroke-width="1"/>
      <path id="Path_7732" data-name="Path 7732" d="M375.4,286.283l-.7,2.061,2.135-.424Z" transform="translate(-373.247 -285.926)" fill="#8b8b8b"/>
      <path id="Path_7733" data-name="Path 7733" d="M562.087,529.3l1.359,1.551.663-1.953Z" transform="translate(-552.747 -518.346)" fill="#8b8b8b"/>
    </g>
  </g>
</svg>
