<svg xmlns="http://www.w3.org/2000/svg" width="24.479" height="26.9" viewBox="0 0 24.479 26.9">
  <g id="services-icon-active" transform="translate(0 0.5)">
    <path id="Path_7723" data-name="Path 7723" d="M609.731,1578.074a9.051,9.051,0,0,1,3.61.788,15.139,15.139,0,0,0,3.142.937c.925.176,1.857.324,2.779.511a1.693,1.693,0,0,1,.644.3.564.564,0,0,1,.027.923,1.967,1.967,0,0,1-1.568.474c-.288-.027-.573-.089-.859-.131-.983-.146-1.965-.307-2.951-.43a4.244,4.244,0,0,0-1.98.232.432.432,0,0,0-.212.18.208.208,0,0,0,.048.2.227.227,0,0,0,.194.043,5.338,5.338,0,0,1,2.874-.12c.952.162,1.905.318,2.864.439a2.337,2.337,0,0,0,1.882-.573.944.944,0,0,0,.085-1.444c-.054-.061-.066-.113.016-.153a15.308,15.308,0,0,0,2.3-1.638c.443-.333.908-.644,1.383-.938a.93.93,0,0,1,1.082.025.24.24,0,0,0,.155.016c.573-.1,1,.306.843.823a1.222,1.222,0,0,1-.206.391c-.652.842-1.316,1.677-1.968,2.519a3.985,3.985,0,0,1-1.47,1.165c-1.464.7-2.932,1.393-4.373,2.13a4.246,4.246,0,0,1-2.871.387c-.982-.2-1.947-.472-2.92-.711-.72-.177-1.433-.383-2.162-.521a4.061,4.061,0,0,0-2.322.25c-1.046.426-2.1.842-3.14,1.271a.408.408,0,0,1-.443-.044,2.727,2.727,0,0,1-.422-.385,6.78,6.78,0,0,1-1.46-3.1,1.235,1.235,0,0,1-.015-.172c-.016-.432.021-.483.451-.659.742-.3,1.5-.575,2.218-.928a9.918,9.918,0,0,0,1.33-.9A5.913,5.913,0,0,1,609.731,1578.074Z" transform="translate(-602.317 -1559.06)" fill="#fff"/>
    <path id="Icon_awesome-user-alt" data-name="Icon awesome-user-alt" d="M5.145,5.788A2.894,2.894,0,1,0,2.251,2.894,2.895,2.895,0,0,0,5.145,5.788Zm2.573.643H6.611a3.5,3.5,0,0,1-2.93,0H2.573A2.572,2.572,0,0,0,0,9v.322a.965.965,0,0,0,.965.965H9.326a.965.965,0,0,0,.965-.965V9A2.572,2.572,0,0,0,7.718,6.432Z" transform="translate(9.361 3.596)" fill="#fff"/>
    <g id="Group_1095" data-name="Group 1095" transform="translate(5.034)">
      <path id="Subtraction_13" data-name="Subtraction 13" d="M9.472,18.944A9.469,9.469,0,0,1,1.227,4.814l.13.144A9.284,9.284,0,0,0,14.943,16.973l.132.131A9.39,9.39,0,0,1,9.472,18.944Zm8.188-4.716h0l-.132-.137A9.283,9.283,0,0,0,3.86,2.076L3.73,1.945A9.37,9.37,0,0,1,9.472,0a9.468,9.468,0,0,1,8.189,14.227Z" transform="translate(0)" fill="#fff" stroke="#fff" stroke-width="1"/>
      <path id="Path_7732" data-name="Path 7732" d="M375.727,286.283l-1.027,3.023,3.132-.622Z" transform="translate(-372.569 -285.759)" fill="#fff"/>
      <path id="Path_7733" data-name="Path 7733" d="M562.087,529.486l1.994,2.275.973-2.864Z" transform="translate(-548.385 -513.419)" fill="#fff"/>
    </g>
  </g>
</svg>
