<svg xmlns="http://www.w3.org/2000/svg" width="25.587" height="25.587" viewBox="0 0 25.587 25.587">
  <g id="archieve-icon" transform="translate(-202 -317)">
    <path id="Path_8325" data-name="Path 8325" d="M18.676,22a.853.853,0,0,0-.853.853.853.853,0,0,1-.853.853H13.559a.853.853,0,0,1-.853-.853.853.853,0,0,0-1.706,0,2.559,2.559,0,0,0,2.559,2.559H16.97a2.559,2.559,0,0,0,2.559-2.559A.853.853,0,0,0,18.676,22Z" transform="translate(199.529 312.911)" fill="#9dadc8"/>
    <path id="Path_8326" data-name="Path 8326" d="M26.531,12.635,22.686,2.64A2.575,2.575,0,0,0,20.3,1H7.289A2.575,2.575,0,0,0,4.9,2.64L1.056,12.635A1.012,1.012,0,0,0,1,12.941V24.029a2.559,2.559,0,0,0,2.559,2.559h20.47a2.559,2.559,0,0,0,2.559-2.559V12.941a.853.853,0,0,0-.056-.306ZM6.493,3.253a.859.859,0,0,1,.8-.548H20.3a.86.86,0,0,1,.8.547l3.4,8.835H19.824a2.559,2.559,0,0,0-2.132,1.139L17,14.267a.853.853,0,0,1-.706.38h-5a.853.853,0,0,1-.71-.38l-.692-1.04a2.559,2.559,0,0,0-2.129-1.139H3.095ZM24.882,24.029a.853.853,0,0,1-.853.853H3.559a.853.853,0,0,1-.853-.853V13.794H7.764a.853.853,0,0,1,.71.38l.692,1.04a2.553,2.553,0,0,0,2.129,1.139h5a2.553,2.553,0,0,0,2.132-1.139l.693-1.04a.853.853,0,0,1,.706-.38h5.058Z" transform="translate(201 316)" fill="#9dadc8"/>
    <path id="Path_8327" data-name="Path 8327" d="M8.853,11.706H20.794a.853.853,0,0,0,0-1.706H8.853a.853.853,0,1,0,0,1.706Z" transform="translate(199.97 314.676)" fill="#9dadc8"/>
    <path id="Path_8328" data-name="Path 8328" d="M9.853,7.706H20.088a.853.853,0,1,0,0-1.706H9.853a.853.853,0,0,0,0,1.706Z" transform="translate(199.823 315.265)" fill="#9dadc8"/>
  </g>
</svg>
