<svg xmlns="http://www.w3.org/2000/svg" width="19.755" height="19.392" viewBox="0 0 19.755 19.392">
  <path id="call-icon" d="M15.026,11.681a1.083,1.083,0,0,1-.289.588l-2.289,2.213q-.267.222-.4-.07L10.244,11.1a.47.47,0,0,1,.1-.568l.839-.812a.914.914,0,0,0,.27-.569,2.694,2.694,0,0,0-.575-1.4A11.794,11.794,0,0,0,9.736,6.291l-.582-.58c-.175-.169-.4-.378-.676-.626a11.134,11.134,0,0,0-1.363-.977,3.078,3.078,0,0,0-1.5-.6.852.852,0,0,0-.607.243l-.992.959a.428.428,0,0,1-.568.078L.153,2.931A.263.263,0,0,1,0,2.74.232.232,0,0,1,.08,2.529L2.369.316A1.15,1.15,0,0,1,2.976.037a4.7,4.7,0,0,1,2.089.23,9.429,9.429,0,0,1,2.148.979Q8.2,1.86,9.048,2.493T10.4,3.579l.488.454q.187.181.5.5t1.079,1.253a17.955,17.955,0,0,1,1.328,1.827,10.363,10.363,0,0,1,.967,2.032A4.18,4.18,0,0,1,15.026,11.681Z" transform="translate(15.575 18.493) rotate(-167)" fill="none" stroke="#64748b" stroke-width="1.5"/>
</svg>
