<svg xmlns="http://www.w3.org/2000/svg" xmlns:xlink="http://www.w3.org/1999/xlink" width="395" height="250" viewBox="0 0 395 250">
  <defs>
    <clipPath id="clip-path">
      <rect id="Rectangle_1206" data-name="Rectangle 1206" width="395" height="250" transform="translate(831.878 36.299)" fill="#fff" stroke="#707070" stroke-width="1"/>
    </clipPath>
    <linearGradient id="linear-gradient" x1="148.807" y1="-553.595" x2="148.799" y2="-552.531" gradientUnits="objectBoundingBox">
      <stop offset="0" stop-color="#ff5c5c"/>
      <stop offset="0.301" stop-color="#f34444"/>
      <stop offset="0.935" stop-color="#d60606"/>
      <stop offset="1" stop-color="#d30000"/>
    </linearGradient>
    <linearGradient id="linear-gradient-2" x1="-2218.927" y1="-3437.331" x2="-2218.94" y2="-3435.413" xlink:href="#linear-gradient"/>
    <linearGradient id="linear-gradient-3" x1="-332.512" y1="-818.179" x2="-331.906" y2="-818.093" xlink:href="#linear-gradient"/>
    <linearGradient id="linear-gradient-4" x1="-952.798" y1="-54.473" x2="-952.922" y2="-54.926" xlink:href="#linear-gradient"/>
    <linearGradient id="linear-gradient-5" x1="41.124" y1="-421.162" x2="41.434" y2="-420.402" xlink:href="#linear-gradient"/>
    <linearGradient id="linear-gradient-6" x1="-71.039" y1="-240.494" x2="-70.817" y2="-239.737" xlink:href="#linear-gradient"/>
    <linearGradient id="linear-gradient-7" x1="-740.684" y1="-245.751" x2="-740.309" y2="-245.893" xlink:href="#linear-gradient"/>
    <linearGradient id="linear-gradient-8" x1="-84.059" y1="-721.11" x2="-84.147" y2="-720.467" xlink:href="#linear-gradient"/>
    <linearGradient id="linear-gradient-9" x1="-1314.78" y1="-685" x2="-1314.181" y2="-685" xlink:href="#linear-gradient"/>
    <linearGradient id="linear-gradient-10" x1="-188.831" y1="-88.757" x2="-188.733" y2="-88.036" xlink:href="#linear-gradient"/>
    <linearGradient id="linear-gradient-11" x1="158.928" y1="-580.607" x2="159.023" y2="-580.009" xlink:href="#linear-gradient"/>
    <linearGradient id="linear-gradient-12" x1="-1104.323" y1="166.531" x2="-1104.183" y2="167.013" xlink:href="#linear-gradient"/>
    <linearGradient id="linear-gradient-13" x1="-5171.831" y1="-1111.539" x2="-5172.749" y2="-1110.712" xlink:href="#linear-gradient"/>
    <linearGradient id="linear-gradient-14" x1="-588.245" y1="-3146.022" x2="-588.739" y2="-3144.956" xlink:href="#linear-gradient"/>
    <linearGradient id="linear-gradient-15" x1="-293.526" y1="121.331" x2="-293.396" y2="122.016" xlink:href="#linear-gradient"/>
    <linearGradient id="linear-gradient-16" x1="-1939.942" y1="-549.293" x2="-1939.942" y2="-548.487" xlink:href="#linear-gradient"/>
    <linearGradient id="linear-gradient-17" x1="351.77" y1="-629.349" x2="351.77" y2="-628.648" xlink:href="#linear-gradient"/>
    <linearGradient id="linear-gradient-18" x1="-765.924" y1="-553.927" x2="-766.021" y2="-554.449" xlink:href="#linear-gradient"/>
    <linearGradient id="linear-gradient-19" x1="-1845.115" y1="-600.953" x2="-1845.28" y2="-601.694" xlink:href="#linear-gradient"/>
    <linearGradient id="linear-gradient-20" x1="-46.22" y1="-202.451" x2="-46.259" y2="-203.36" gradientUnits="objectBoundingBox">
      <stop offset="0" stop-color="#4d8eff"/>
      <stop offset="0.428" stop-color="#3e76ff"/>
      <stop offset="1" stop-color="#2850ff"/>
    </linearGradient>
    <linearGradient id="linear-gradient-21" x1="-190.029" y1="-130.931" x2="-190.062" y2="-131.668" xlink:href="#linear-gradient-20"/>
    <linearGradient id="linear-gradient-22" x1="-71.01" y1="-621.05" x2="-70.503" y2="-620.944" xlink:href="#linear-gradient-20"/>
    <linearGradient id="linear-gradient-23" x1="134.22" y1="589.979" x2="135.96" y2="590.139" xlink:href="#linear-gradient-20"/>
    <linearGradient id="linear-gradient-24" x1="-830.405" y1="-1254.008" x2="-830.529" y2="-1254.855" xlink:href="#linear-gradient-20"/>
    <linearGradient id="linear-gradient-25" x1="-292.73" y1="-1767.776" x2="-292.036" y2="-1766.966" xlink:href="#linear-gradient-20"/>
    <linearGradient id="linear-gradient-26" x1="-894.438" y1="-100.699" x2="-894.131" y2="-100.337" xlink:href="#linear-gradient-20"/>
    <linearGradient id="linear-gradient-27" x1="582.94" y1="-1661.083" x2="582.807" y2="-1659.925" xlink:href="#linear-gradient-20"/>
    <linearGradient id="linear-gradient-28" x1="517.446" y1="-334.781" x2="517.352" y2="-333.571" xlink:href="#linear-gradient-20"/>
    <linearGradient id="linear-gradient-29" x1="-330.453" y1="-54.856" x2="-329.769" y2="-54.856" xlink:href="#linear-gradient-20"/>
    <linearGradient id="linear-gradient-30" x1="-492.478" y1="-756.504" x2="-492.353" y2="-755.899" xlink:href="#linear-gradient-20"/>
    <linearGradient id="linear-gradient-31" x1="-1080.772" y1="-236.309" x2="-1080.654" y2="-235.513" xlink:href="#linear-gradient-20"/>
    <linearGradient id="linear-gradient-32" x1="-1257.119" y1="1022.04" x2="-1256.931" y2="1022.875" xlink:href="#linear-gradient-20"/>
    <linearGradient id="linear-gradient-33" x1="-1954.788" y1="-147.166" x2="-1954.653" y2="-146.53" xlink:href="#linear-gradient-20"/>
    <linearGradient id="linear-gradient-34" x1="1058.359" y1="-835.075" x2="1057.344" y2="-834.38" xlink:href="#linear-gradient-20"/>
    <linearGradient id="linear-gradient-35" x1="-648.403" y1="65.432" x2="-648.689" y2="65.999" xlink:href="#linear-gradient-20"/>
    <linearGradient id="linear-gradient-36" x1="-1429.728" y1="-1356.78" x2="-1428.061" y2="-1356.654" xlink:href="#linear-gradient-20"/>
    <linearGradient id="linear-gradient-37" x1="-583.566" y1="-1914.733" x2="-581.966" y2="-1914.577" xlink:href="#linear-gradient-20"/>
    <linearGradient id="linear-gradient-38" x1="-457.559" y1="69.573" x2="-457.443" y2="70.183" xlink:href="#linear-gradient-20"/>
    <linearGradient id="linear-gradient-39" x1="-1105.206" y1="-564.838" x2="-1105.206" y2="-564.238" xlink:href="#linear-gradient-20"/>
    <linearGradient id="linear-gradient-40" x1="-2145.647" y1="-1107.738" x2="-2145.821" y2="-1108.702" xlink:href="#linear-gradient-20"/>
    <linearGradient id="linear-gradient-41" x1="-976.909" y1="40.928" x2="-977.061" y2="40.488" xlink:href="#linear-gradient-20"/>
    <linearGradient id="linear-gradient-42" x1="-630.112" y1="-692.975" x2="-630.146" y2="-693.783" gradientUnits="objectBoundingBox">
      <stop offset="0" stop-color="#fc9512"/>
      <stop offset="0.007" stop-color="#fc9512"/>
      <stop offset="0.68" stop-color="#fed319"/>
      <stop offset="1" stop-color="#ffeb1c"/>
    </linearGradient>
    <linearGradient id="linear-gradient-43" x1="-2147.81" y1="88.294" x2="-2147.902" y2="87.446" xlink:href="#linear-gradient-42"/>
    <linearGradient id="linear-gradient-44" x1="-1019.8" y1="-9.838" x2="-1019.809" y2="-9.273" xlink:href="#linear-gradient-42"/>
    <linearGradient id="linear-gradient-45" x1="782.477" y1="-896.657" x2="783.481" y2="-896.472" xlink:href="#linear-gradient-42"/>
    <linearGradient id="linear-gradient-46" x1="-603.991" y1="-1476.427" x2="-604.143" y2="-1477.312" xlink:href="#linear-gradient-42"/>
    <linearGradient id="linear-gradient-47" x1="-820.103" y1="95.233" x2="-820.231" y2="94.606" xlink:href="#linear-gradient-42"/>
    <linearGradient id="linear-gradient-48" x1="-484.077" y1="-749.036" x2="-483.885" y2="-748.453" xlink:href="#linear-gradient-42"/>
    <linearGradient id="linear-gradient-49" x1="428.981" y1="-3953.474" x2="429.924" y2="-3953.889" xlink:href="#linear-gradient-42"/>
    <linearGradient id="linear-gradient-50" x1="-621.321" y1="-990.223" x2="-621.374" y2="-989.479" xlink:href="#linear-gradient-42"/>
    <linearGradient id="linear-gradient-51" x1="-1185.924" y1="133.39" x2="-1185.318" y2="133.39" xlink:href="#linear-gradient-42"/>
    <linearGradient id="linear-gradient-52" x1="-400.225" y1="-1057.355" x2="-399.738" y2="-1057.355" xlink:href="#linear-gradient-42"/>
    <linearGradient id="linear-gradient-53" x1="-1912.632" y1="-328.873" x2="-1912.462" y2="-327.782" xlink:href="#linear-gradient-42"/>
    <linearGradient id="linear-gradient-54" x1="-696.382" y1="-230.843" x2="-696.296" y2="-230.286" xlink:href="#linear-gradient-42"/>
    <linearGradient id="linear-gradient-55" x1="-115.055" y1="-784.7" x2="-114.315" y2="-784.586" xlink:href="#linear-gradient-42"/>
    <linearGradient id="linear-gradient-56" x1="16.522" y1="-42.603" x2="17.696" y2="-42.481" xlink:href="#linear-gradient-42"/>
    <linearGradient id="linear-gradient-57" x1="-64.632" y1="-408.623" x2="-64.544" y2="-407.973" xlink:href="#linear-gradient-42"/>
    <linearGradient id="linear-gradient-58" x1="-946.574" y1="-67.952" x2="-946.444" y2="-67.325" xlink:href="#linear-gradient-42"/>
    <linearGradient id="linear-gradient-59" x1="-1015.078" y1="-219.724" x2="-1015.078" y2="-219.312" xlink:href="#linear-gradient-42"/>
    <linearGradient id="linear-gradient-60" x1="-1640.55" y1="-125.159" x2="-1640.739" y2="-125.668" xlink:href="#linear-gradient-42"/>
    <linearGradient id="linear-gradient-61" x1="-1755.919" y1="212.544" x2="-1754.989" y2="212.77" gradientUnits="objectBoundingBox">
      <stop offset="0" stop-color="#ebebeb"/>
      <stop offset="0" stop-color="#ff3eb9"/>
      <stop offset="0.043" stop-color="#ff43bb"/>
      <stop offset="0.701" stop-color="#ff97e2"/>
      <stop offset="1" stop-color="#ffb9f2"/>
    </linearGradient>
    <linearGradient id="linear-gradient-62" x1="-59.985" y1="-261.349" x2="-60.053" y2="-262.503" xlink:href="#linear-gradient-61"/>
    <linearGradient id="linear-gradient-63" x1="198.605" y1="538.856" x2="199.027" y2="540.16" xlink:href="#linear-gradient-61"/>
    <linearGradient id="linear-gradient-64" x1="-219.447" y1="-539.944" x2="-219.094" y2="-539.525" xlink:href="#linear-gradient-61"/>
    <linearGradient id="linear-gradient-65" x1="-2993.209" y1="854.189" x2="-2993.38" y2="855.308" xlink:href="#linear-gradient-61"/>
    <linearGradient id="linear-gradient-66" x1="321.776" y1="-90.562" x2="321.686" y2="-89.253" xlink:href="#linear-gradient-61"/>
    <linearGradient id="linear-gradient-67" x1="-651.689" y1="520.78" x2="-650.873" y2="520.78" xlink:href="#linear-gradient-61"/>
    <linearGradient id="linear-gradient-68" x1="1054.622" y1="20.229" x2="1055.764" y2="20.229" xlink:href="#linear-gradient-61"/>
    <linearGradient id="linear-gradient-69" x1="257.712" y1="-888.593" x2="257.863" y2="-887.609" xlink:href="#linear-gradient-61"/>
    <linearGradient id="linear-gradient-70" x1="551.938" y1="-79.27" x2="552.128" y2="-77.5" xlink:href="#linear-gradient-61"/>
    <linearGradient id="linear-gradient-71" x1="-930.457" y1="-882.212" x2="-930.375" y2="-881.478" xlink:href="#linear-gradient-61"/>
    <linearGradient id="linear-gradient-72" x1="-1205.306" y1="-1943.129" x2="-1205.166" y2="-1942.376" xlink:href="#linear-gradient-61"/>
    <linearGradient id="linear-gradient-73" x1="-780.709" y1="-2892.249" x2="-781.031" y2="-2891.145" xlink:href="#linear-gradient-61"/>
    <linearGradient id="linear-gradient-74" x1="-744.371" y1="13.248" x2="-744.655" y2="13.707" xlink:href="#linear-gradient-61"/>
    <linearGradient id="linear-gradient-75" x1="639.746" y1="-285.268" x2="641.102" y2="-285.073" xlink:href="#linear-gradient-61"/>
    <linearGradient id="linear-gradient-76" x1="-1067.138" y1="-88.243" x2="-1066.163" y2="-88.07" xlink:href="#linear-gradient-61"/>
    <linearGradient id="linear-gradient-77" x1="38.287" y1="816.248" x2="38.514" y2="817.506" xlink:href="#linear-gradient-61"/>
    <linearGradient id="linear-gradient-78" x1="131.584" y1="-332.169" x2="131.584" y2="-331.299" xlink:href="#linear-gradient-61"/>
    <linearGradient id="linear-gradient-79" x1="550.572" y1="-121.94" x2="550.505" y2="-123.395" gradientUnits="objectBoundingBox">
      <stop offset="0" stop-color="#00ee98"/>
      <stop offset="0.28" stop-color="#00d685"/>
      <stop offset="0.868" stop-color="#009854"/>
      <stop offset="1" stop-color="#008a49"/>
    </linearGradient>
    <linearGradient id="linear-gradient-80" x1="-381.513" y1="43.279" x2="-381.549" y2="42.735" xlink:href="#linear-gradient-79"/>
    <linearGradient id="linear-gradient-81" x1="-581.972" y1="422.031" x2="-581.984" y2="422.975" xlink:href="#linear-gradient-79"/>
    <linearGradient id="linear-gradient-82" x1="-2615.324" y1="-1506.266" x2="-2614.119" y2="-1506.121" xlink:href="#linear-gradient-79"/>
    <linearGradient id="linear-gradient-83" x1="-1456.422" y1="-1643.909" x2="-1456.555" y2="-1645.771" xlink:href="#linear-gradient-79"/>
    <linearGradient id="linear-gradient-84" x1="-766.328" y1="-1259.469" x2="-766.06" y2="-1258.675" xlink:href="#linear-gradient-79"/>
    <linearGradient id="linear-gradient-85" x1="-2490.493" y1="-3751.28" x2="-2490.618" y2="-3749.339" xlink:href="#linear-gradient-79"/>
    <linearGradient id="linear-gradient-86" x1="-754.002" y1="-796.325" x2="-753.902" y2="-795.586" xlink:href="#linear-gradient-79"/>
    <linearGradient id="linear-gradient-87" x1="-740.262" y1="-1836.101" x2="-740.053" y2="-1835.077" xlink:href="#linear-gradient-79"/>
    <linearGradient id="linear-gradient-88" x1="-284.694" y1="-563.895" x2="-284.589" y2="-563.536" xlink:href="#linear-gradient-79"/>
    <linearGradient id="linear-gradient-89" x1="-307.984" y1="497.125" x2="-308.364" y2="498.047" xlink:href="#linear-gradient-79"/>
    <linearGradient id="linear-gradient-90" x1="-1644.255" y1="-3708.248" x2="-1644.733" y2="-3707.072" xlink:href="#linear-gradient-79"/>
    <linearGradient id="linear-gradient-91" x1="-769.493" y1="-67.599" x2="-768.721" y2="-67.485" xlink:href="#linear-gradient-79"/>
    <linearGradient id="linear-gradient-92" x1="-846.489" y1="-974.362" x2="-845.369" y2="-974.266" xlink:href="#linear-gradient-79"/>
    <linearGradient id="linear-gradient-93" x1="-445.059" y1="-716.589" x2="-445.059" y2="-716.152" xlink:href="#linear-gradient-79"/>
    <linearGradient id="linear-gradient-94" x1="-829.492" y1="-180.841" x2="-829.492" y2="-180.524" xlink:href="#linear-gradient-79"/>
    <linearGradient id="linear-gradient-95" x1="-503.664" y1="-1379.969" x2="-503.805" y2="-1380.63" xlink:href="#linear-gradient-79"/>
  </defs>
  <g id="winner-illustration" transform="translate(-862 -770)">
    <path id="Path_10434" data-name="Path 10434" d="M-10539.394,5018.753c10.114-26.791,21.363-45.927,54.169-45.927s59.049,14.216,84.2,10.935,66.7,31.711,53.58,57.955-28.431,40.459-36.085,62.329-39.364,55.769-67.8,40.459-25.15-52.488-74.357-64.517S-10549.508,5045.544-10539.394,5018.753Z" transform="translate(-9407.469 5937.948) rotate(180)" fill="#ebf5f9"/>
    <g id="Mask_Group_92" data-name="Mask Group 92" transform="translate(30.122 733.702)" clip-path="url(#clip-path)">
      <g id="Group_8867" data-name="Group 8867" transform="translate(666.192 -49.108)">
        <path id="Path_10474" data-name="Path 10474" d="M404.479-55.742a2.643,2.643,0,0,0-1.775,1.961,4,4,0,0,0,1.938,1.755,6.014,6.014,0,0,1,3.134-1.131A10.458,10.458,0,0,1,404.479-55.742Z" transform="translate(109.338 112.342)" fill="url(#linear-gradient)"/>
        <path id="Path_10475" data-name="Path 10475" d="M174.947,216.084a1.8,1.8,0,0,0,.089-1.8,2.734,2.734,0,0,0-1.78-.089,4.08,4.08,0,0,1-1.164,1.949A7.13,7.13,0,0,1,174.947,216.084Z" transform="translate(-14.801 257.589)" fill="url(#linear-gradient-2)"/>
        <path id="Path_10476" data-name="Path 10476" d="M254.728-55.191a18.519,18.519,0,0,0-4.921-4.178,7.409,7.409,0,0,0-1,3.8,6.177,6.177,0,0,1,3.058,2.509A4.165,4.165,0,0,1,254.728-55.191Z" transform="translate(26.493 110.39)" fill="url(#linear-gradient-3)"/>
        <path id="Path_10477" data-name="Path 10477" d="M349.043,17.224a10.744,10.744,0,0,1,4.509.631,33.413,33.413,0,0,1-.409-9.042,6.043,6.043,0,0,0-4.259-1.077A39.7,39.7,0,0,0,349.043,17.224Z" transform="translate(122.627 161.152)" fill="url(#linear-gradient-4)"/>
        <path id="Path_10478" data-name="Path 10478" d="M395.614,50.977a6.994,6.994,0,0,0,1.986,3.935,10.388,10.388,0,0,1,3.153.448c-.466-.94-.278-1.638.52-2.9A18.093,18.093,0,0,1,395.614,50.977Z" transform="translate(-136.336 77.715)" fill="url(#linear-gradient-5)"/>
        <path id="Path_10479" data-name="Path 10479" d="M171.576-69.35a8.788,8.788,0,0,0,3.949,3.893,13.111,13.111,0,0,1,3.938-.734c-.931-.934-.989-1.841-.543-3.664C176.746-69.207,174.55-69.257,171.576-69.35Z" transform="translate(-15.078 104.745)" fill="url(#linear-gradient-6)"/>
        <path id="Path_10480" data-name="Path 10480" d="M285.619.1a14.41,14.41,0,0,1,4.989-2.647,4.632,4.632,0,0,0-1.588-2.483,19.142,19.142,0,0,0-5.29,2.38C285.087-1.8,285.642-1.152,285.619.1Z" transform="translate(148.138 125.39)" fill="url(#linear-gradient-7)"/>
        <path id="Path_10481" data-name="Path 10481" d="M182.11-81.869a3.452,3.452,0,0,1-3.5-.34,11.23,11.23,0,0,0,.943,5.018,3.136,3.136,0,0,0,3.126.058A8.217,8.217,0,0,1,182.11-81.869Z" transform="translate(-11.304 98.095)" fill="url(#linear-gradient-8)"/>
        <path id="Path_10482" data-name="Path 10482" d="M92.877-33.444a7.879,7.879,0,0,0,2.346-3.509,3.857,3.857,0,0,0-2.152-1.381,7.2,7.2,0,0,1-2.34,3.433A2.692,2.692,0,0,1,92.877-33.444Z" transform="translate(-58.597 121.713)" fill="url(#linear-gradient-9)"/>
        <path id="Path_10483" data-name="Path 10483" d="M406.1,17.623a6.661,6.661,0,0,1-.238,4.753c3.123-.358,6.206-1.077,7.455-1.829A10.631,10.631,0,0,0,411.9,16.2C410.5,17.072,408.862,17.314,406.1,17.623Z" transform="translate(-132.095 195.245)" fill="url(#linear-gradient-10)"/>
        <path id="Path_10484" data-name="Path 10484" d="M102.552,14.231a2.152,2.152,0,0,1-1.269,1.274,17.331,17.331,0,0,0,3.726,3.346,4.111,4.111,0,0,0,1.589-1.541A9.9,9.9,0,0,1,102.552,14.231Z" transform="translate(-52.917 150.009)" fill="url(#linear-gradient-11)"/>
        <path id="Path_10485" data-name="Path 10485" d="M307.04-63.561a2.195,2.195,0,0,1,1.658.783,17.664,17.664,0,0,0,1.935-4.726,4.2,4.2,0,0,0-2.024-1A10.109,10.109,0,0,1,307.04-63.561Z" transform="translate(57.842 105.475)" fill="url(#linear-gradient-12)"/>
        <path id="Path_10486" data-name="Path 10486" d="M536.209,82.8a4.471,4.471,0,0,1-.768-2.5,1.206,1.206,0,0,1-.974-.06,5.347,5.347,0,0,0,.606,2.855A2.253,2.253,0,0,0,536.209,82.8Z" transform="translate(180.258 185.54)" fill="url(#linear-gradient-13)"/>
        <path id="Path_10487" data-name="Path 10487" d="M144.883-75.745a5.2,5.2,0,0,1-2.841,1.078,1.417,1.417,0,0,1,0,1.134,6.214,6.214,0,0,0,3.26-.92A2.585,2.585,0,0,0,144.883-75.745Z" transform="translate(-30.977 101.575)" fill="url(#linear-gradient-14)"/>
        <path id="Path_10488" data-name="Path 10488" d="M196.455-55.1a5.193,5.193,0,0,0,1.686,2.878,5.572,5.572,0,0,1,2.827-2.063,7.916,7.916,0,0,0-1.154-2.994A10.441,10.441,0,0,1,196.455-55.1Z" transform="translate(-1.686 111.518)" fill="url(#linear-gradient-15)"/>
        <path id="Path_10489" data-name="Path 10489" d="M131.451-55.047c.421-.152.62-.446.929-.935a11.745,11.745,0,0,1-3.083-2.894,1.908,1.908,0,0,1-1,.745A10.436,10.436,0,0,0,131.451-55.047Z" transform="translate(-38.377 110.655)" fill="url(#linear-gradient-16)"/>
        <path id="Path_10490" data-name="Path 10490" d="M89.334,195.672c-.494.228-.7.6-1.028,1.226a14.226,14.226,0,0,1,4.029,3.181,2.33,2.33,0,0,1,1.137-1A12.676,12.676,0,0,0,89.334,195.672Z" transform="translate(-59.903 247.679)" fill="url(#linear-gradient-17)"/>
        <path id="Path_10491" data-name="Path 10491" d="M94.922,140.409a4.683,4.683,0,0,0,.663-3.918,29,29,0,0,1-6.339-2.534,4.3,4.3,0,0,1-.754,2.063A25.8,25.8,0,0,1,94.922,140.409Z" transform="translate(-59.803 214.457)" fill="url(#linear-gradient-18)"/>
        <path id="Path_10492" data-name="Path 10492" d="M317.148-85.029a2.89,2.89,0,0,0,.834-2.3,17.861,17.861,0,0,1-3.567-2.237,2.642,2.642,0,0,1-.685,1.169A15.9,15.9,0,0,1,317.148-85.029Z" transform="translate(61.443 94.133)" fill="url(#linear-gradient-19)"/>
        <path id="Path_10493" data-name="Path 10493" d="M365.827,57.07c-.794.785-.968,1.728-.872,3.264a13.386,13.386,0,0,1,5.926,1.483,5.029,5.029,0,0,1,1.318-3.241A16,16,0,0,0,365.827,57.07Z" transform="translate(40.8 141.471)" fill="url(#linear-gradient-20)"/>
        <path id="Path_10494" data-name="Path 10494" d="M196.318,47.595c-.368,1-.134,1.884.574,3.17a12.755,12.755,0,0,1,5.715-1.128,4.791,4.791,0,0,1-.178-3.334A15.242,15.242,0,0,0,196.318,47.595Z" transform="translate(12.402 138.288)" fill="url(#linear-gradient-21)"/>
        <path id="Path_10495" data-name="Path 10495" d="M326.344-17.665a20.663,20.663,0,0,0-7,1.78,8.293,8.293,0,0,0,2.815,3.373c1.231-.918,2.415-1.077,4.272-1.163A4.656,4.656,0,0,1,326.344-17.665Z" transform="translate(56.546 168.861)" fill="url(#linear-gradient-22)"/>
        <path id="Path_10496" data-name="Path 10496" d="M70.1,150.906a9.742,9.742,0,0,0-.185,3.4,3.92,3.92,0,0,0,1.914-.792,3.263,3.263,0,0,1,.077-2.086A2.185,2.185,0,0,1,70.1,150.906Z" transform="translate(-69.842 223.581)" fill="url(#linear-gradient-23)"/>
        <path id="Path_10497" data-name="Path 10497" d="M381.1-58.156a5.759,5.759,0,0,1-1.3-2.074,17.951,17.951,0,0,1-3.578,3.3A3.24,3.24,0,0,0,377.25-54.8,21.28,21.28,0,0,0,381.1-58.156Z" transform="translate(95.079 109.926)" fill="url(#linear-gradient-24)"/>
        <path id="Path_10498" data-name="Path 10498" d="M84.062,241.941a4.943,4.943,0,0,0-2.527,1.815A7.329,7.329,0,0,1,81.567,246c.6-.428,1.112-.372,2.077.046A12.765,12.765,0,0,1,84.062,241.941Z" transform="translate(-63.548 272.585)" fill="url(#linear-gradient-25)"/>
        <path id="Path_10499" data-name="Path 10499" d="M438.23,52.69a9.543,9.543,0,0,0,2.57-5.439,14.151,14.151,0,0,1-2.164-3.77c-.621,1.289-1.531,1.674-3.556,1.871C436.522,47.344,437.259,49.61,438.23,52.69Z" transform="translate(19.216 209.706)" fill="url(#linear-gradient-26)"/>
        <path id="Path_10500" data-name="Path 10500" d="M476.96,200.247a2,2,0,0,1-2.031.072,6.5,6.5,0,0,0,.924,2.8,1.815,1.815,0,0,0,1.8-.206A4.754,4.754,0,0,1,476.96,200.247Z" transform="translate(148.217 250.141)" fill="url(#linear-gradient-27)"/>
        <path id="Path_10501" data-name="Path 10501" d="M85.5,269.612a2.054,2.054,0,0,1-1.424,1.531,6.706,6.706,0,0,0,2.714,1.369,1.869,1.869,0,0,0,1.158-1.457A4.912,4.912,0,0,1,85.5,269.612Z" transform="translate(-62.179 287.48)" fill="url(#linear-gradient-28)"/>
        <path id="Path_10502" data-name="Path 10502" d="M202.979-14.886a10.2,10.2,0,0,0,.523,5.433,4.987,4.987,0,0,0,3.287-.377,9.317,9.317,0,0,1-.471-5.353A3.482,3.482,0,0,1,202.979-14.886Z" transform="translate(1.758 134.175)" fill="url(#linear-gradient-29)"/>
        <path id="Path_10503" data-name="Path 10503" d="M497.767-17.417a5.72,5.72,0,0,1-3.084-2.69,19.9,19.9,0,0,0-2.732,6.01,9.154,9.154,0,0,0,3.692,1.355C495.8-14.152,496.506-15.384,497.767-17.417Z" transform="translate(157.38 131.525)" fill="url(#linear-gradient-30)"/>
        <path id="Path_10504" data-name="Path 10504" d="M370.026-14.367a4.879,4.879,0,0,1,3.027-1.717A16.928,16.928,0,0,0,369-19.966a7.789,7.789,0,0,0-2.127,2.58A9.861,9.861,0,0,1,370.026-14.367Z" transform="translate(-45.228 211.352)" fill="url(#linear-gradient-31)"/>
        <path id="Path_10505" data-name="Path 10505" d="M475.807,157.226a1.313,1.313,0,0,1,.835.708,10.551,10.551,0,0,0,1.846-2.421,2.488,2.488,0,0,0-1.011-.888A6.037,6.037,0,0,1,475.807,157.226Z" transform="translate(148.689 225.583)" fill="url(#linear-gradient-32)"/>
        <path id="Path_10506" data-name="Path 10506" d="M506.109-39.069a1.809,1.809,0,0,1,1.357-.663,14.6,14.6,0,0,0-2.037-3.681,3.465,3.465,0,0,0-1.684.788A8.33,8.33,0,0,1,506.109-39.069Z" transform="translate(163.728 118.979)" fill="url(#linear-gradient-33)"/>
        <path id="Path_10507" data-name="Path 10507" d="M383.614-91.982A5.121,5.121,0,0,1,383.9-89a1.4,1.4,0,0,1,1.08.289,6.12,6.12,0,0,0-.032-3.34A2.555,2.555,0,0,0,383.614-91.982Z" transform="translate(99.062 92.765)" fill="url(#linear-gradient-34)"/>
        <path id="Path_10508" data-name="Path 10508" d="M276.161-57.77a8.94,8.94,0,0,1,4.749-2.217,2.434,2.434,0,0,1-.154-1.949,10.706,10.706,0,0,0-5.49,2A4.5,4.5,0,0,0,276.161-57.77Z" transform="translate(40.738 109.008)" fill="url(#linear-gradient-35)"/>
        <path id="Path_10509" data-name="Path 10509" d="M99.321,294.863c-.521-.777-.723-1.769-.331-4.01a4.792,4.792,0,0,0-2.866.931,8.514,8.514,0,0,0,.7,4.252A4.371,4.371,0,0,1,99.321,294.863Z" transform="translate(-55.702 298.914)" fill="url(#linear-gradient-36)"/>
        <path id="Path_10510" data-name="Path 10510" d="M157.2-49.152c-.666-.251-1.231-.778-1.98-2.344a3.661,3.661,0,0,0-1.368,1.847,6.515,6.515,0,0,0,2.315,2.331A3.345,3.345,0,0,1,157.2-49.152Z" transform="translate(-24.62 114.628)" fill="url(#linear-gradient-37)"/>
        <path id="Path_10511" data-name="Path 10511" d="M489.736,97.947a5.756,5.756,0,0,0,2.021,3.1,6.177,6.177,0,0,1,3.023-2.437,8.763,8.763,0,0,0-1.438-3.255A11.582,11.582,0,0,1,489.736,97.947Z" transform="translate(156.187 193.678)" fill="url(#linear-gradient-38)"/>
        <path id="Path_10512" data-name="Path 10512" d="M166.772,195.941c.577-.265.823-.7,1.2-1.424a16.641,16.641,0,0,1-4.68-3.724,2.7,2.7,0,0,1-1.329,1.163A14.744,14.744,0,0,0,166.772,195.941Z" transform="translate(-20.252 245.052)" fill="url(#linear-gradient-39)"/>
        <path id="Path_10513" data-name="Path 10513" d="M316.233,139.344a2.6,2.6,0,0,0,.3-2.186,16.094,16.094,0,0,1-3.56-1.3,2.379,2.379,0,0,1-.385,1.157A14.354,14.354,0,0,1,316.233,139.344Z" transform="translate(60.831 215.478)" fill="url(#linear-gradient-40)"/>
        <path id="Path_10514" data-name="Path 10514" d="M393.544,104.673a4.712,4.712,0,0,0,3.966-.457,29.042,29.042,0,0,1,.672-6.825,4.34,4.34,0,0,1-2.2-.151A25.883,25.883,0,0,1,393.544,104.673Z" transform="translate(108.251 121.127)" fill="url(#linear-gradient-41)"/>
        <path id="Path_10515" data-name="Path 10515" d="M277.14-81.954c.9-.94,1.064-2.043.9-3.824A15.549,15.549,0,0,1,271.1-87.3c.051,1.306-.332,2.2-1.421,3.813A18.664,18.664,0,0,0,277.14-81.954Z" transform="translate(37.732 95.357)" fill="url(#linear-gradient-42)"/>
        <path id="Path_10516" data-name="Path 10516" d="M526.981,41.395a2.811,2.811,0,0,0,2.517-.169,9.987,9.987,0,0,1-.375-4.544,3.756,3.756,0,0,1-2.611-.152A11.983,11.983,0,0,0,526.981,41.395Z" transform="translate(175.942 162.012)" fill="url(#linear-gradient-43)"/>
        <path id="Path_10517" data-name="Path 10517" d="M523.488,77.875a3.774,3.774,0,0,0,3.606,1.1,5.716,5.716,0,0,0,1.094-3.567,8.565,8.565,0,0,1-3.358-3.36A14.919,14.919,0,0,1,523.488,77.875Z" transform="translate(174.356 181.134)" fill="url(#linear-gradient-44)"/>
        <path id="Path_10518" data-name="Path 10518" d="M102.133,219.075a9.968,9.968,0,0,0-3.009,1.752,4,4,0,0,0,1.752,1.189,3.329,3.329,0,0,1,1.824-1.1A2.237,2.237,0,0,1,102.133,219.075Z" transform="translate(-54.079 260.276)" fill="url(#linear-gradient-45)"/>
        <path id="Path_10519" data-name="Path 10519" d="M82.8,116.907a5.132,5.132,0,0,1-1.531-1.543,15.9,15.9,0,0,1-2.457,3.553,2.876,2.876,0,0,0,1.308,1.64A19,19,0,0,0,82.8,116.907Z" transform="translate(-65.013 204.449)" fill="url(#linear-gradient-46)"/>
        <path id="Path_10520" data-name="Path 10520" d="M120.94,272.2a7.078,7.078,0,0,1,2.541,1.592,22.014,22.014,0,0,1,2.186-5.546,3.977,3.977,0,0,0-2.271-1.794A26.166,26.166,0,0,0,120.94,272.2Z" transform="translate(-42.336 285.782)" fill="url(#linear-gradient-47)"/>
        <path id="Path_10521" data-name="Path 10521" d="M246.47-78.063A9.45,9.45,0,0,0,241-80.418a14.031,14.031,0,0,1-3.652,2.267c1.3.571,1.706,1.457,1.971,3.452C241.242-76.192,243.458-77,246.47-78.063Z" transform="translate(20.329 99.059)" fill="url(#linear-gradient-48)"/>
        <path id="Path_10522" data-name="Path 10522" d="M505.266,142.639a5.906,5.906,0,0,1-2.223.621,1.885,1.885,0,0,0,.417,1.131,7.842,7.842,0,0,0,2.321-.489C505.312,143.445,505.147,143.137,505.266,142.639Z" transform="translate(163.35 219.131)" fill="url(#linear-gradient-49)"/>
        <path id="Path_10523" data-name="Path 10523" d="M228.529,116.282a4.222,4.222,0,0,1,.655-4.247c-2.123-.269-3.58.052-6.195.809-.812,1.291-.8,2.164-.285,3.813C224.952,116.028,226.608,115.738,228.529,116.282Z" transform="translate(113.64 8.385)" fill="url(#linear-gradient-50)"/>
        <path id="Path_10524" data-name="Path 10524" d="M500.74,252.871a7.373,7.373,0,0,0,3.766,1.183,3.59,3.59,0,0,0,.674-2.3,6.744,6.744,0,0,1-3.7-1.2A2.512,2.512,0,0,1,500.74,252.871Z" transform="translate(162.111 277.227)" fill="url(#linear-gradient-51)"/>
        <path id="Path_10525" data-name="Path 10525" d="M358.357-84.828a8.918,8.918,0,0,0-4.081-2.478,4.351,4.351,0,0,0-1.455,2.5,8.147,8.147,0,0,1,4,2.474A3.045,3.045,0,0,1,358.357-84.828Z" transform="translate(82.486 95.351)" fill="url(#linear-gradient-52)"/>
        <path id="Path_10526" data-name="Path 10526" d="M410.946,197.284a3.507,3.507,0,0,1,2.321-.926,12.15,12.15,0,0,0-2.5-3.158A5.576,5.576,0,0,0,409,194.828,7.087,7.087,0,0,1,410.946,197.284Z" transform="translate(112.726 246.348)" fill="url(#linear-gradient-53)"/>
        <path id="Path_10527" data-name="Path 10527" d="M523.977,108.118a6.854,6.854,0,0,1,4.519-1.9c-1.723-2.738-3.761-5.282-5.015-6.105a10.951,10.951,0,0,0-3.4,3.25C521.511,104.28,522.46,105.689,523.977,108.118Z" transform="translate(172.52 196.241)" fill="url(#linear-gradient-54)"/>
        <path id="Path_10528" data-name="Path 10528" d="M244.8,81.118c-1.415.446-3.014.311-6.249-1.283a7.592,7.592,0,0,0,.14,4.775,13.522,13.522,0,0,0,6.778.832A6.937,6.937,0,0,1,244.8,81.118Z" transform="translate(20.802 185.323)" fill="url(#linear-gradient-55)"/>
        <path id="Path_10529" data-name="Path 10529" d="M455.508,193.957c.275,1.088.1,2.287-1.238,4.661a5.743,5.743,0,0,0,3.609.1,10.219,10.219,0,0,0,.921-5.079A5.251,5.251,0,0,1,455.508,193.957Z" transform="translate(137.096 246.584)" fill="url(#linear-gradient-56)"/>
        <path id="Path_10530" data-name="Path 10530" d="M492.731,223.719a6.9,6.9,0,0,0-1.552,4.155,7.4,7.4,0,0,1,4.5,1.181,10.482,10.482,0,0,0,2.117-3.7A13.852,13.852,0,0,1,492.731,223.719Z" transform="translate(156.964 262.776)" fill="url(#linear-gradient-57)"/>
        <path id="Path_10531" data-name="Path 10531" d="M123.718,56.581a6.692,6.692,0,0,0,4.3.028,7.194,7.194,0,0,1-.425-4.5,10.164,10.164,0,0,0-4.081-.692A13.452,13.452,0,0,1,123.718,56.581Z" transform="translate(-40.95 170.027)" fill="url(#linear-gradient-58)"/>
        <path id="Path_10532" data-name="Path 10532" d="M510.855,86.9a3.315,3.315,0,0,0,1.978-1.254,20.885,20.885,0,0,1-4.206-6.224,3.413,3.413,0,0,1-2.031.9A18.557,18.557,0,0,0,510.855,86.9Z" transform="translate(165.263 185.101)" fill="url(#linear-gradient-59)"/>
        <path id="Path_10533" data-name="Path 10533" d="M89.387,53.538a3.608,3.608,0,0,0,2.429-1.86,22.327,22.327,0,0,1-2.241-4.753,3.317,3.317,0,0,1-1.508.766A19.877,19.877,0,0,1,89.387,53.538Z" transform="translate(-60.031 167.608)" fill="url(#linear-gradient-60)"/>
        <path id="Path_10534" data-name="Path 10534" d="M210.351-81.954a11.117,11.117,0,0,0,3.857.337,4.454,4.454,0,0,0-.829-2.2,3.7,3.7,0,0,1-2.366-.166A2.488,2.488,0,0,1,210.351-81.954Z" transform="translate(5.794 97.137)" fill="url(#linear-gradient-61)"/>
        <path id="Path_10535" data-name="Path 10535" d="M132.97,234.094a9.185,9.185,0,0,1-.74,3.83,28.613,28.613,0,0,1,7.758.051,5.171,5.171,0,0,0,1.111-3.6A33.96,33.96,0,0,0,132.97,234.094Z" transform="translate(-36.258 268.306)" fill="url(#linear-gradient-62)"/>
        <path id="Path_10536" data-name="Path 10536" d="M118,284a4.332,4.332,0,0,0,2.414,1.261,6.379,6.379,0,0,1,1.743-.911c-.571-.3-.728-.725-.781-1.643A11.2,11.2,0,0,1,118,284Z" transform="translate(-43.917 294.532)" fill="url(#linear-gradient-63)"/>
        <path id="Path_10537" data-name="Path 10537" d="M520.847-12.625a8.237,8.237,0,0,0-2.118,4.743,12.24,12.24,0,0,1,1.937,3.214c.512-1.124,1.292-1.472,3.035-1.68A21.3,21.3,0,0,1,520.847-12.625Z" transform="translate(171.794 135.552)" fill="url(#linear-gradient-64)"/>
        <path id="Path_10538" data-name="Path 10538" d="M424.563,2.171a1.711,1.711,0,0,1,1.5.886,5.577,5.577,0,0,0,.631-2.452A1.555,1.555,0,0,0,425.3-.076,4.076,4.076,0,0,1,424.563,2.171Z" transform="translate(121.105 142.307)" fill="url(#linear-gradient-65)"/>
        <path id="Path_10539" data-name="Path 10539" d="M398.825,235.8a2.22,2.22,0,0,1-1.075,1.986,7.215,7.215,0,0,0,3.209.7,2.018,2.018,0,0,0,.815-1.837A5.305,5.305,0,0,1,398.825,235.8Z" transform="translate(106.671 269.28)" fill="url(#linear-gradient-66)"/>
        <path id="Path_10540" data-name="Path 10540" d="M71.637,179.611a5.846,5.846,0,0,0,1.74,2.6,2.865,2.865,0,0,0,1.558-1.083,5.349,5.349,0,0,1-1.691-2.578A2,2,0,0,1,71.637,179.611Z" transform="translate(-68.876 238.464)" fill="url(#linear-gradient-67)"/>
        <path id="Path_10541" data-name="Path 10541" d="M294.431-92.536a4.536,4.536,0,0,0-1,2.218,2.221,2.221,0,0,0,1.354.58,4.16,4.16,0,0,1,1-2.175A1.552,1.552,0,0,1,294.431-92.536Z" transform="translate(50.517 92.536)" fill="url(#linear-gradient-68)"/>
        <path id="Path_10542" data-name="Path 10542" d="M494.787,298.228a3.887,3.887,0,0,1-2.529,1.158,13.558,13.558,0,0,0,2.957,3.374,6.233,6.233,0,0,0,1.872-1.908A7.892,7.892,0,0,1,494.787,298.228Z" transform="translate(157.545 302.884)" fill="url(#linear-gradient-69)"/>
        <path id="Path_10543" data-name="Path 10543" d="M82.026,81.605a3.188,3.188,0,0,1-.86,2.112,11.134,11.134,0,0,0,3.66.354,5.089,5.089,0,0,0,.048-2.191A6.464,6.464,0,0,1,82.026,81.605Z" transform="translate(-63.746 186.276)" fill="url(#linear-gradient-70)"/>
        <path id="Path_10544" data-name="Path 10544" d="M118.934-66.783a2.372,2.372,0,0,1,.8-1.807,19.134,19.134,0,0,0-5.144-1.957,4.528,4.528,0,0,0-1.018,2.207A10.891,10.891,0,0,1,118.934-66.783Z" transform="translate(-46.303 104.373)" fill="url(#linear-gradient-71)"/>
        <path id="Path_10545" data-name="Path 10545" d="M455.068-53.3a1.578,1.578,0,0,1-.789-1.058,12.69,12.69,0,0,0-2.83,2.349,3.012,3.012,0,0,0,.949,1.318A7.286,7.286,0,0,1,455.068-53.3Z" transform="translate(135.577 113.086)" fill="url(#linear-gradient-72)"/>
        <path id="Path_10546" data-name="Path 10546" d="M439.935,216.765a7.4,7.4,0,0,1-4.332-.114,2.015,2.015,0,0,1-.608,1.5,8.85,8.85,0,0,0,4.8.551A3.69,3.69,0,0,0,439.935,216.765Z" transform="translate(126.72 258.972)" fill="url(#linear-gradient-73)"/>
        <path id="Path_10547" data-name="Path 10547" d="M335.972-55.891a9.2,9.2,0,0,1,4.335-3.207,2.511,2.511,0,0,1-.554-1.935,11.01,11.01,0,0,0-5.127,3.14A4.6,4.6,0,0,0,335.972-55.891Z" transform="translate(72.691 109.494)" fill="url(#linear-gradient-74)"/>
        <path id="Path_10548" data-name="Path 10548" d="M523.752,148.919c-.151.688-.585,1.317-2.007,2.274a3.616,3.616,0,0,0,2,1.072,6.446,6.446,0,0,0,1.948-2.6A3.3,3.3,0,0,1,523.752,148.919Z" transform="translate(173.418 222.511)" fill="url(#linear-gradient-75)"/>
        <path id="Path_10549" data-name="Path 10549" d="M92.885,106.933c.981-.429,2.138-.455,4.583.438A5.492,5.492,0,0,0,97,103.957a9.753,9.753,0,0,0-4.927-.074A5,5,0,0,1,92.885,106.933Z" transform="translate(-57.875 198.116)" fill="url(#linear-gradient-76)"/>
        <path id="Path_10550" data-name="Path 10550" d="M405.262-85.573a3.193,3.193,0,0,0,.569,1.966,3.434,3.434,0,0,1,1.994-.8,4.832,4.832,0,0,0-.235-1.955A6.4,6.4,0,0,1,405.262-85.573Z" transform="translate(110.715 95.858)" fill="url(#linear-gradient-77)"/>
        <path id="Path_10551" data-name="Path 10551" d="M448.046-59.547A2.382,2.382,0,0,0,447.375-58,14.967,14.967,0,0,1,452.382-56a2.438,2.438,0,0,1,.846-1.349A13.284,13.284,0,0,0,448.046-59.547Z" transform="translate(133.384 110.294)" fill="url(#linear-gradient-78)"/>
        <path id="Path_10552" data-name="Path 10552" d="M213.264,221.9a2.141,2.141,0,0,0-.674,1.8,7.611,7.611,0,0,1,3.266,1.168,2.855,2.855,0,0,1,.926-1.76A9.1,9.1,0,0,0,213.264,221.9Z" transform="translate(6.999 261.8)" fill="url(#linear-gradient-79)"/>
        <path id="Path_10553" data-name="Path 10553" d="M498.739,35.282c.2,1.268.957,2.067,2.452,3.012a15.426,15.426,0,0,1,5.376-4.518c-1.054-.748-1.521-1.588-2.131-3.415A18.439,18.439,0,0,0,498.739,35.282Z" transform="translate(161.034 158.692)" fill="url(#linear-gradient-80)"/>
        <path id="Path_10554" data-name="Path 10554" d="M132.5,56.468A2.423,2.423,0,0,0,133.65,58.6a3.666,3.666,0,0,0,2.1-1.141,5.494,5.494,0,0,1-.028-3.046A9.509,9.509,0,0,1,132.5,56.468Z" transform="translate(-36.115 171.636)" fill="url(#linear-gradient-81)"/>
        <path id="Path_10555" data-name="Path 10555" d="M520.815,126.795a11.165,11.165,0,0,0,1.1-3.747,4.482,4.482,0,0,0-2.343.381,3.739,3.739,0,0,1-.635,2.306A2.512,2.512,0,0,1,520.815,126.795Z" transform="translate(171.906 208.578)" fill="url(#linear-gradient-82)"/>
        <path id="Path_10556" data-name="Path 10556" d="M194.823,11.125a5.439,5.439,0,0,1,.835-2.147,17.017,17.017,0,0,1-4.5-.851A3.06,3.06,0,0,0,190.13,10.1,20.094,20.094,0,0,0,194.823,11.125Z" transform="translate(-5.091 146.723)" fill="url(#linear-gradient-83)"/>
        <path id="Path_10557" data-name="Path 10557" d="M212.348,83.274a6.781,6.781,0,0,0-4.041-1.414,10.175,10.175,0,0,1-2.506,1.812c.957.343,1.3.958,1.588,2.377A17.576,17.576,0,0,1,212.348,83.274Z" transform="translate(3.345 186.412)" fill="url(#linear-gradient-84)"/>
        <path id="Path_10558" data-name="Path 10558" d="M430.809-65.27a1.721,1.721,0,0,1,.432-1.7,5.587,5.587,0,0,0-2.541.085,1.564,1.564,0,0,0-.266,1.532A4.106,4.106,0,0,1,430.809-65.27Z" transform="translate(123.145 106.241)" fill="url(#linear-gradient-85)"/>
        <path id="Path_10559" data-name="Path 10559" d="M453.513,230.278a6.479,6.479,0,0,1,.211-4.623c-3.033.363-6.029,1.074-7.239,1.812a10.339,10.339,0,0,0,1.4,4.22C449.241,230.831,450.827,230.588,453.513,230.278Z" transform="translate(132.905 263.818)" fill="url(#linear-gradient-86)"/>
        <path id="Path_10560" data-name="Path 10560" d="M507.97,174.4a3.375,3.375,0,0,1-1.769-1.637,11.758,11.758,0,0,0-1.711,3.49,5.4,5.4,0,0,0,2.151.86A6.8,6.8,0,0,1,507.97,174.4Z" transform="translate(164.129 235.346)" fill="url(#linear-gradient-87)"/>
        <path id="Path_10561" data-name="Path 10561" d="M513.442,204.441a3.186,3.186,0,0,1-2.623.441,25.748,25.748,0,0,0,1.6,7.228,6.094,6.094,0,0,0,3.235-.488A14.671,14.671,0,0,1,513.442,204.441Z" transform="translate(167.536 252.399)" fill="url(#linear-gradient-88)"/>
        <path id="Path_10562" data-name="Path 10562" d="M476.387-72.856a6.127,6.127,0,0,1,3.424,1.051,1.663,1.663,0,0,1,.815-1.058,7.316,7.316,0,0,0-3.7-1.5A3.052,3.052,0,0,0,476.387-72.856Z" transform="translate(149.001 102.317)" fill="url(#linear-gradient-89)"/>
        <path id="Path_10563" data-name="Path 10563" d="M439.686,177.529a4.862,4.862,0,0,1-2.735-.8,1.323,1.323,0,0,1-.638.851,5.816,5.816,0,0,0,2.961,1.155A2.417,2.417,0,0,0,439.686,177.529Z" transform="translate(127.429 237.481)" fill="url(#linear-gradient-90)"/>
        <path id="Path_10564" data-name="Path 10564" d="M448.26,56.2c1.388-.391,2.94-.211,6.035,1.435a7.373,7.373,0,0,0,.008-4.646,13.166,13.166,0,0,0-6.562-1.014A6.765,6.765,0,0,1,448.26,56.2Z" transform="translate(133.581 170.29)" fill="url(#linear-gradient-91)"/>
        <path id="Path_10565" data-name="Path 10565" d="M506.72,279.524c-.872-.729-1.446-1.82-1.752-4.569a5.82,5.82,0,0,0-3.029,2.063,10.368,10.368,0,0,0,2.263,4.724A5.325,5.325,0,0,1,506.72,279.524Z" transform="translate(162.756 290.357)" fill="url(#linear-gradient-92)"/>
        <path id="Path_10566" data-name="Path 10566" d="M245.522-6.865a3.636,3.636,0,0,0-1.46-2.111A22.81,22.81,0,0,1,237.434-4.1,3.727,3.727,0,0,1,238.5-1.914,20.3,20.3,0,0,0,245.522-6.865Z" transform="translate(293.014 204.274)" fill="url(#linear-gradient-93)"/>
        <path id="Path_10567" data-name="Path 10567" d="M489.583,283.756a4.181,4.181,0,0,0,2.707-1.172,26.253,26.253,0,0,1-4.013-8.57,4.289,4.289,0,0,1-2.7.717A23.336,23.336,0,0,0,489.583,283.756Z" transform="translate(153.947 289.85)" fill="url(#linear-gradient-94)"/>
        <path id="Path_10568" data-name="Path 10568" d="M465.982,247.923a3.368,3.368,0,0,0-2.763-.729,20.849,20.849,0,0,1-2.231,4.375,3.11,3.11,0,0,1,1.429.675A18.577,18.577,0,0,1,465.982,247.923Z" transform="translate(140.713 275.387)" fill="url(#linear-gradient-95)"/>
      </g>
    </g>
    <g id="Group_8866" data-name="Group 8866" transform="translate(756.77 648.497)">
      <path id="Path_10435" data-name="Path 10435" d="M575.766,690.993c3.839-6.983,6.3-17.729,6.3-29.781q0-1.67-.062-3.3h11.112q-.06,1.633-.062,3.3c0,12.053,2.46,22.8,6.3,29.781Z" transform="translate(-298.574 -418.48)" fill="#f8b805"/>
      <path id="Path_10436" data-name="Path 10436" d="M626.333,661.212q0-1.67.062-3.3H615.283q.06,1.633.062,3.3c0,2.149-.079,4.255-.23,6.307h0a12.053,12.053,0,0,1,11.447,0C626.413,665.467,626.333,663.361,626.333,661.212Z" transform="translate(-331.854 -418.48)" fill="#f8b805" opacity="0.5" style="mix-blend-mode: multiply;isolation: isolate"/>
      <path id="Path_10437" data-name="Path 10437" d="M598.449,657.908h-1.6q.048,1.633.049,3.3c0,12.053-1.94,22.8-4.967,29.781h3.39c1.923-6.983,3.157-17.729,3.157-29.781Q598.481,659.541,598.449,657.908Z" transform="translate(-312.248 -418.48)" fill="#f8b805" opacity="0.5" style="mix-blend-mode: screen;isolation: isolate"/>
      <path id="Path_10438" data-name="Path 10438" d="M679.12,690.993h-5.884c-1.923-6.983-3.156-17.729-3.156-29.781q0-1.67.031-3.3h2.772q-.06,1.633-.062,3.3C672.821,673.264,675.281,684.011,679.12,690.993Z" transform="translate(-378.341 -418.48)" fill="#f8b805" opacity="0.5" style="mix-blend-mode: multiply;isolation: isolate"/>
      <g id="Group_8863" data-name="Group 8863" transform="translate(222.74 163.109)">
        <g id="Group_8854" data-name="Group 8854" transform="translate(0 10.448)">
          <path id="Path_10439" data-name="Path 10439" d="M273.717,290.084H273.7c-8.674-.033-15.345-.7-20.994-2.084a36.132,36.132,0,0,1-16.453-8.4c-9.221-8.556-13.516-22.919-13.516-45.2a3.548,3.548,0,0,1,3.706-3.544c.273.012,27.479,1.2,47.109.305a3.548,3.548,0,0,1,3.71,3.544v51.837a3.548,3.548,0,0,1-3.548,3.548Zm-43.84-52c.42,18.046,4.01,29.635,11.2,36.311,5.947,5.518,14.755,8.131,29.088,8.539V238.386C255.237,238.868,237.476,238.355,229.877,238.083Z" transform="translate(-222.74 -230.846)" fill="#f8b805"/>
          <path id="Path_10440" data-name="Path 10440" d="M272.209,256.546a3.119,3.119,0,0,0-3.226,3.238l0,.033c7.663.273,25.436.782,40.293.3v-3.38C296.173,257.164,280.89,256.82,272.209,256.546Z" transform="translate(-261.848 -252.581)" fill="#f8b805" opacity="0.5" style="mix-blend-mode: multiply;isolation: isolate"/>
          <g id="Group_8849" data-name="Group 8849" transform="translate(6.905 7.204)" opacity="0.5" style="mix-blend-mode: screen;isolation: isolate">
            <g id="Group_8848" data-name="Group 8848">
              <path id="Path_10441" data-name="Path 10441" d="M530.24,563.791v-.865A1.589,1.589,0,0,1,530.24,563.791Z" transform="translate(-489.716 -518.909)" fill="#f8b805"/>
              <path id="Path_10442" data-name="Path 10442" d="M267.739,277.551l.08.036-.079,0c.42,18.046,4.01,29.635,11.205,36.311,5.947,5.518,14.755,8.131,29.088,8.539-1,1.7-6.723.835-6.723.835C262.562,322.786,267.739,277.551,267.739,277.551Z" transform="translate(-267.509 -277.551)" fill="#f8b805"/>
            </g>
          </g>
          <g id="Group_8851" data-name="Group 8851" transform="translate(0.015)" opacity="0.5" style="mix-blend-mode: screen;isolation: isolate">
            <g id="Group_8850" data-name="Group 8850">
              <path id="Path_10443" data-name="Path 10443" d="M277.254,287.09V235.253a3.548,3.548,0,0,0-3.71-3.544c-19.631.9-46.837-.293-47.109-.305a3.547,3.547,0,0,0-3.6,2.667,3.546,3.546,0,0,1,3.69-3.221c.273.012,27.479,1.2,47.109.305a3.548,3.548,0,0,1,3.71,3.544v51.837a3.54,3.54,0,0,1-.11.876C277.249,287.306,277.254,287.2,277.254,287.09Z" transform="translate(-222.84 -230.846)" fill="#f8b805"/>
            </g>
          </g>
          <g id="Group_8853" data-name="Group 8853" transform="translate(0.599 16.806)" opacity="0.5" style="mix-blend-mode: multiply;isolation: isolate">
            <g id="Group_8852" data-name="Group 8852">
              <path id="Path_10444" data-name="Path 10444" d="M283.693,454.147a78.042,78.042,0,0,1,8.623.538,3.546,3.546,0,0,1-2.276.829h-.014c-8.674-.033-15.345-.7-20.994-2.084a36.132,36.132,0,0,1-16.453-8.4c-4.84-4.491-8.322-10.583-10.539-18.579C245.954,438.308,256.309,453.821,283.693,454.147Z" transform="translate(-239.662 -413.083)" fill="#f8b805"/>
              <path id="Path_10445" data-name="Path 10445" d="M226.624,339.807h0Z" transform="translate(-226.624 -339.807)" fill="#f8b805"/>
            </g>
          </g>
        </g>
        <g id="Group_8861" data-name="Group 8861" transform="translate(77.966 10.448)">
          <path id="Path_10446" data-name="Path 10446" d="M729.256,289.049a3.548,3.548,0,0,1-1.044-2.513V234.7a3.548,3.548,0,0,1,3.71-3.544c19.631.9,46.837-.293,47.109-.305a3.548,3.548,0,0,1,3.706,3.544c0,22.282-4.295,36.645-13.516,45.2a36.133,36.133,0,0,1-16.454,8.4c-5.649,1.388-12.32,2.051-20.994,2.084h-.013A3.549,3.549,0,0,1,729.256,289.049Zm6.052-50.663v44.546c14.332-.408,23.141-3.021,29.088-8.539,7.195-6.675,10.785-18.264,11.205-36.311C768,238.355,750.24,238.868,735.307,238.386Z" transform="translate(-728.212 -230.846)" fill="#f8b805"/>
          <path id="Path_10447" data-name="Path 10447" d="M774.212,256.741v3.38c14.856.479,32.629-.031,40.293-.3v-.033a3.119,3.119,0,0,0-3.226-3.238C802.6,256.82,787.316,257.164,774.212,256.741Z" transform="translate(-767.117 -252.581)" fill="#f8b805" opacity="0.5" style="mix-blend-mode: multiply;isolation: isolate"/>
          <g id="Group_8856" data-name="Group 8856" transform="translate(7.039 7.204)" opacity="0.5" style="mix-blend-mode: screen;isolation: isolate">
            <g id="Group_8855" data-name="Group 8855">
              <path id="Path_10448" data-name="Path 10448" d="M773.906,563.791v-.865A1.592,1.592,0,0,0,773.906,563.791Z" transform="translate(-773.85 -518.909)" fill="#f8b805"/>
              <path id="Path_10449" data-name="Path 10449" d="M814.506,277.551l-.08.036.079,0c-.42,18.046-4.01,29.635-11.205,36.311-5.947,5.518-14.756,8.131-29.088,8.539,1,1.7,6.723.835,6.723.835C819.683,322.786,814.506,277.551,814.506,277.551Z" transform="translate(-774.156 -277.551)" fill="#f8b805"/>
            </g>
          </g>
          <g id="Group_8858" data-name="Group 8858" opacity="0.5" style="mix-blend-mode: screen;isolation: isolate">
            <g id="Group_8857" data-name="Group 8857">
              <path id="Path_10450" data-name="Path 10450" d="M728.307,287.09V235.253a3.548,3.548,0,0,1,3.71-3.544c19.631.9,46.837-.293,47.109-.305a3.547,3.547,0,0,1,3.6,2.667,3.546,3.546,0,0,0-3.69-3.221c-.272.012-27.478,1.2-47.109.305a3.548,3.548,0,0,0-3.71,3.544v51.837a3.548,3.548,0,0,0,.11.876C728.312,287.306,728.307,287.2,728.307,287.09Z" transform="translate(-728.212 -230.846)" fill="#f8b805"/>
            </g>
          </g>
          <g id="Group_8860" data-name="Group 8860" transform="translate(1.271 16.806)" opacity="0.5" style="mix-blend-mode: multiply;isolation: isolate">
            <g id="Group_8859" data-name="Group 8859">
              <path id="Path_10451" data-name="Path 10451" d="M745.077,454.147a78.038,78.038,0,0,0-8.623.538,3.546,3.546,0,0,0,2.276.829h.014c8.674-.033,15.346-.7,20.994-2.084a36.132,36.132,0,0,0,16.454-8.4c4.84-4.491,8.322-10.583,10.539-18.579C782.816,438.308,772.462,453.821,745.077,454.147Z" transform="translate(-736.454 -413.083)" fill="#f8b805"/>
              <path id="Path_10452" data-name="Path 10452" d="M1077.828,339.807h0Z" transform="translate(-1025.173 -339.807)" fill="#f8b805"/>
            </g>
          </g>
        </g>
        <path id="Path_10453" data-name="Path 10453" d="M383.578,163.109a101.5,101.5,0,0,0-1.488,17.434c0,36.227,18.645,65.6,41.646,65.6s41.646-29.368,41.646-65.6a101.494,101.494,0,0,0-1.488-17.434Z" transform="translate(-357.511 -163.109)" fill="#f8b805"/>
        <path id="Path_10454" data-name="Path 10454" d="M383.578,163.109a101.5,101.5,0,0,0-1.488,17.434c0,36.227,18.645,65.6,41.646,65.6s41.646-29.368,41.646-65.6a101.494,101.494,0,0,0-1.488-17.434Z" transform="translate(-357.511 -163.109)" fill="#f8b805"/>
        <g id="Group_8862" data-name="Group 8862" transform="translate(66.224 0)">
          <path id="Path_10455" data-name="Path 10455" d="M692.248,163.109H677.237a160.827,160.827,0,0,1,.932,17.434c0,36.227-11.676,65.6-26.078,65.6,23,0,41.646-29.368,41.646-65.6A101.512,101.512,0,0,0,692.248,163.109Z" transform="translate(-652.09 -163.109)" fill="#f8b805" opacity="0.5" style="mix-blend-mode: multiply;isolation: isolate"/>
        </g>
        <path id="Path_10456" data-name="Path 10456" d="M559.048,302.478l5.458,11.058,12.2,1.773-8.831,8.608,2.085,12.154-10.915-5.738-10.915,5.738,2.085-12.154-8.831-8.608,12.2-1.773Z" transform="translate(-492.238 -280.981)" fill="#f7a108" opacity="0.5" style="mix-blend-mode: multiply;isolation: isolate"/>
        <path id="Path_10457" data-name="Path 10457" d="M424.62,180.542a160.827,160.827,0,0,1,.931-17.434h-10.27a114.761,114.761,0,0,0-1.312,17.434c0,36.227,16.444,65.6,36.728,65.6C436.3,246.138,424.62,216.77,424.62,180.542Z" transform="translate(-384.474 -163.109)" fill="#f8b805" opacity="0.5" style="mix-blend-mode: screen;isolation: isolate"/>
        <circle id="Ellipse_447" data-name="Ellipse 447" cx="8.755" cy="8.755" r="8.755" transform="translate(27.16 2.587)" fill="#fff"/>
        <circle id="Ellipse_448" data-name="Ellipse 448" cx="3.47" cy="3.47" r="3.47" transform="translate(41.2 16.627)" fill="#fff"/>
        <path id="Path_10458" data-name="Path 10458" d="M431.316,164.4c21.86,0,39.581-.579,39.581-1.293H391.735C391.735,163.823,409.456,164.4,431.316,164.4Z" transform="translate(-365.669 -163.109)" fill="#f8b805" opacity="0.5" style="mix-blend-mode: screen;isolation: isolate"/>
      </g>
      <path id="Path_10459" data-name="Path 10459" d="M532.7,872.408H499.052a8.044,8.044,0,0,0-8.044,8.044h49.733A8.044,8.044,0,0,0,532.7,872.408Z" transform="translate(-226.89 -599.895)" fill="#f8b805"/>
      <path id="Path_10460" data-name="Path 10460" d="M499.052,873.012H532.7a8.043,8.043,0,0,1,8.019,7.441h.025a8.044,8.044,0,0,0-8.044-8.044H499.052a8.044,8.044,0,0,0-8.044,8.044h.025A8.043,8.043,0,0,1,499.052,873.012Z" transform="translate(-226.89 -599.895)" fill="#f8b805" opacity="0.5" style="mix-blend-mode: screen;isolation: isolate"/>
      <path id="Path_10461" data-name="Path 10461" d="M735.96,880.452h-9c0-4.442-2.3-8.044-5.133-8.044h6.086A8.044,8.044,0,0,1,735.96,880.452Z" transform="translate(-422.109 -599.895)" fill="#f8b805" opacity="0.5" style="mix-blend-mode: multiply;isolation: isolate"/>
      <path id="Path_10462" data-name="Path 10462" d="M527.038,872.408H520.4a8.044,8.044,0,0,0-8.044,8.044h6.641A8.044,8.044,0,0,1,527.038,872.408Z" transform="translate(-244.942 -599.895)" fill="#f8b805" opacity="0.5" style="mix-blend-mode: screen;isolation: isolate"/>
      <rect id="Rectangle_1201" data-name="Rectangle 1201" width="77.208" height="30.902" rx="4.829" transform="translate(250.381 280.557)" fill="#44352a"/>
      <path id="Path_10463" data-name="Path 10463" d="M478.41,1086.389H402.692a.745.745,0,0,1-.745-.745v5.311a.745.745,0,0,0,.745.745H478.41a.745.745,0,0,0,.745-.745v-5.311A.745.745,0,0,1,478.41,1086.389Z" transform="translate(-151.566 -780.24)" fill="#44352a" opacity="0.3" style="mix-blend-mode: multiply;isolation: isolate"/>
      <g id="Group_8864" data-name="Group 8864" transform="translate(250.613 280.558)" opacity="0.3" style="mix-blend-mode: multiply;isolation: isolate">
        <path id="Path_10464" data-name="Path 10464" d="M403.962,1123.773h4.659q-2.621,0-5.172-.207A.74.74,0,0,0,403.962,1123.773Z" transform="translate(-403.449 -1092.871)" fill="#44352a"/>
        <path id="Path_10465" data-name="Path 10465" d="M508.037,924.56H484.889c-3.575,17.5-23.664,30.9-47.911,30.9h71.059a.745.745,0,0,0,.745-.745V925.3A.745.745,0,0,0,508.037,924.56Z" transform="translate(-431.806 -924.56)" fill="#44352a"/>
      </g>
      <path id="Path_10466" data-name="Path 10466" d="M478.41,924.56H402.692a.745.745,0,0,0-.745.745v.966a.745.745,0,0,1,.745-.745H478.41a.745.745,0,0,1,.745.745V925.3A.745.745,0,0,0,478.41,924.56Z" transform="translate(-151.566 -644.003)" fill="#44352a" opacity="0.3" style="mix-blend-mode: screen;isolation: isolate"/>
      <path id="Rectangle_1202" data-name="Rectangle 1202" d="M3.259,0H85.826a3.259,3.259,0,0,1,3.259,3.259v0a3.259,3.259,0,0,1-3.259,3.259H3.259A3.259,3.259,0,0,1,0,3.259v0A3.259,3.259,0,0,1,3.259,0Z" transform="translate(244.442 307.476)" fill="#44352a"/>
      <path id="Path_10467" data-name="Path 10467" d="M451.591,1130.736h-87.21a.938.938,0,0,1-.938-.938v.843a.938.938,0,0,0,.938.938h87.21a.938.938,0,0,0,.938-.938v-.843A.938.938,0,0,1,451.591,1130.736Z" transform="translate(-119.001 -817.584)" fill="#44352a" opacity="0.3" style="mix-blend-mode: multiply;isolation: isolate"/>
      <path id="Path_10468" data-name="Path 10468" d="M451.591,1099.082h-87.21a.938.938,0,0,0-.938.938v.868a.938.938,0,0,1,.938-.938h87.21a.938.938,0,0,1,.938.938v-.868A.938.938,0,0,0,451.591,1099.082Z" transform="translate(-119.001 -791.606)" fill="#44352a" opacity="0.3" style="mix-blend-mode: screen;isolation: isolate"/>
      <path id="Path_10469" data-name="Path 10469" d="M798.577,1099.082H773.71a.938.938,0,0,1,.938.938v4.643a.938.938,0,0,1-.938.938h24.867a.938.938,0,0,0,.938-.938v-4.643A.938.938,0,0,0,798.577,1099.082Z" transform="translate(-465.987 -791.606)" fill="#44352a" opacity="0.3" style="mix-blend-mode: multiply;isolation: isolate"/>
      <path id="Path_10470" data-name="Path 10470" d="M424.13,1104.663v-4.643a.938.938,0,0,1,.938-.938H411.54a.938.938,0,0,0-.938.938v4.643a.938.938,0,0,0,.938.938h13.528A.938.938,0,0,1,424.13,1104.663Z" transform="translate(-158.886 -791.606)" fill="#44352a" opacity="0.3" style="mix-blend-mode: screen;isolation: isolate"/>
      <rect id="Rectangle_1203" data-name="Rectangle 1203" width="63.374" height="18.671" transform="translate(257.233 285.115)" fill="#efca6f"/>
      <g id="Group_8865" data-name="Group 8865" transform="translate(257.233 285.115)">
        <rect id="Rectangle_1204" data-name="Rectangle 1204" width="63.374" height="0.399" transform="translate(0 18.272)" fill="#efca6f" opacity="0.5" style="mix-blend-mode: multiply;isolation: isolate"/>
        <rect id="Rectangle_1205" data-name="Rectangle 1205" width="63.374" height="0.399" transform="translate(0)" fill="#efca6f" opacity="0.5" style="mix-blend-mode: screen;isolation: isolate"/>
      </g>
      <path id="Path_10471" data-name="Path 10471" d="M491.008,916.617h49.733a8.074,8.074,0,0,0-.133-1.448H491.141A8.074,8.074,0,0,0,491.008,916.617Z" transform="translate(-226.89 -636.06)" fill="#f8b805" opacity="0.5" style="mix-blend-mode: multiply;isolation: isolate"/>
      <path id="Path_10472" data-name="Path 10472" d="M646.616,954.109c-2.878,7.5-8.862,14-16.837,18.671h35.084V954.109Z" transform="translate(-344.256 -668.994)" fill="#efca6f" opacity="0.3" style="mix-blend-mode: multiply;isolation: isolate"/>
      <circle id="Ellipse_449" data-name="Ellipse 449" cx="1.086" cy="1.086" r="1.086" transform="translate(258.642 286.347)" fill="#efca6f" opacity="0.5" style="mix-blend-mode: screen;isolation: isolate"/>
      <path id="Path_10473" data-name="Path 10473" d="M836.716,963.215a1.086,1.086,0,1,0-1.086,1.087A1.086,1.086,0,0,0,836.716,963.215Z" transform="translate(-517.437 -675.777)" fill="#efca6f" opacity="0.5" style="mix-blend-mode: screen;isolation: isolate"/>
      <circle id="Ellipse_450" data-name="Ellipse 450" cx="1.086" cy="1.086" r="1.086" transform="translate(317.106 300.366)" fill="#efca6f" opacity="0.5" style="mix-blend-mode: screen;isolation: isolate"/>
      <circle id="Ellipse_451" data-name="Ellipse 451" cx="1.086" cy="1.086" r="1.086" transform="translate(258.561 286.231)" fill="#44352a"/>
      <circle id="Ellipse_452" data-name="Ellipse 452" cx="1.086" cy="1.086" r="1.086" transform="translate(258.642 300.354)" fill="#efca6f" opacity="0.5" style="mix-blend-mode: screen;isolation: isolate"/>
      <circle id="Ellipse_453" data-name="Ellipse 453" cx="1.086" cy="1.086" r="1.086" transform="translate(258.561 300.234)" fill="#44352a"/>
      <circle id="Ellipse_454" data-name="Ellipse 454" cx="1.086" cy="1.086" r="1.086" transform="translate(317.106 286.231)" fill="#44352a"/>
      <circle id="Ellipse_455" data-name="Ellipse 455" cx="1.086" cy="1.086" r="1.086" transform="translate(317.106 300.234)" fill="#44352a"/>
    </g>
  </g>
</svg>
