<svg width="24" height="24" viewBox="0 0 24 24" fill="none" xmlns="http://www.w3.org/2000/svg">
<path opacity="0.2" d="M5.83229 17.4823C4.93434 16.4725 4.29488 15.2537 3.97643 13.9308C3.58575 12.3078 3.69661 10.6045 4.29437 9.04582C4.89214 7.48717 5.94867 6.14653 7.32442 5.20099C8.70016 4.25545 10.3304 3.74951 11.9997 3.75L12.0002 3.75C13.6695 3.74951 15.2997 4.25546 16.6755 5.20099C18.0512 6.14653 19.1078 7.48717 19.7055 9.04582C20.3033 10.6045 20.4141 12.3078 20.0235 13.9308C19.705 15.2537 19.0656 16.4725 18.1676 17.4822C17.5772 16.629 16.8138 15.9044 15.9232 15.3578C15.5588 15.1342 15.1775 14.943 14.7837 14.7856C14.9226 14.6763 15.0556 14.5583 15.1819 14.432C16.0258 13.5881 16.4999 12.4435 16.4999 11.25C16.4999 10.36 16.236 9.48996 15.7416 8.74994C15.2471 8.00991 14.5443 7.43314 13.722 7.09254C12.8998 6.75195 11.995 6.66283 11.122 6.83647C10.2491 7.0101 9.4473 7.43868 8.81797 8.06802C8.18863 8.69736 7.76005 9.49918 7.58641 10.3721C7.41278 11.245 7.50189 12.1498 7.84249 12.9721C8.13823 13.6861 8.61205 14.31 9.21619 14.7856C8.8224 14.943 8.44109 15.1342 8.0767 15.3578C7.18606 15.9044 6.42274 16.629 5.83229 17.4823ZM14.1213 13.3713C13.5587 13.9339 12.7956 14.25 12 14.25L10.3332 13.7444C9.83989 13.4148 9.45537 12.9462 9.22831 12.3981C9.00124 11.8499 8.94183 11.2467 9.05759 10.6647C9.17335 10.0828 9.45907 9.54824 9.87863 9.12868C10.2982 8.70912 10.8327 8.4234 11.4147 8.30764C11.9966 8.19189 12.5998 8.2513 13.148 8.47836C13.6962 8.70542 14.1647 9.08994 14.4944 9.58329C14.824 10.0766 14.9999 10.6567 14.9999 11.25C14.9999 12.0457 14.6839 12.8087 14.1213 13.3713Z" stroke="#B7B5BE" stroke-width="1.5"/>
<path d="M12 15C14.0711 15 15.75 13.3211 15.75 11.25C15.75 9.17893 14.0711 7.5 12 7.5C9.92893 7.5 8.25 9.17893 8.25 11.25C8.25 13.3211 9.92893 15 12 15ZM12 15C10.7535 15 9.5313 15.3446 8.46895 15.9967C7.40659 16.6488 6.54554 17.5823 5.98125 18.6938M12 15C13.2465 15 14.4687 15.3446 15.5311 15.9967C16.5934 16.6488 17.4545 17.5823 18.0188 18.6938M21 12C21 16.9706 16.9706 21 12 21C7.02944 21 3 16.9706 3 12C3 7.02944 7.02944 3 12 3C16.9706 3 21 7.02944 21 12Z" stroke="#B7B5BE" stroke-width="1.5" stroke-linecap="round" stroke-linejoin="round"/>
</svg>
