<svg width="24" height="24" viewBox="0 0 24 24" fill="none" xmlns="http://www.w3.org/2000/svg">
<path d="M19.9401 13.5199C19.9457 13.4634 19.9457 13.4065 19.9401 13.3499V13.2899L19.8701 13.1999C19.796 13.1132 19.693 13.0563 19.5801 13.0399H19.5201C19.4404 13.0303 19.3598 13.0303 19.2801 13.0399H14.5601H14.4101H14.2401C14.1518 13.0642 14.0722 13.1127 14.0101 13.1799C13.9619 13.2321 13.9246 13.2933 13.9001 13.3599C13.9001 13.3599 13.9001 13.4199 13.9001 13.4399C13.8956 13.4664 13.8956 13.4935 13.9001 13.5199C13.9001 13.5199 13.9001 13.5799 13.9001 13.6099C13.8966 13.6365 13.8966 13.6634 13.9001 13.6899C13.9202 13.7696 13.9617 13.8422 14.0201 13.8999C14.0649 13.9379 14.1155 13.9683 14.1701 13.9899C14.2729 14.0051 14.3773 14.0051 14.4801 13.9899H19.2401H19.4201H19.4901C19.5363 13.9822 19.5805 13.9651 19.6201 13.9399C19.6663 13.9148 19.707 13.8808 19.7401 13.8399L19.7901 13.7799L19.8501 13.6899C19.8548 13.6267 19.8548 13.5632 19.8501 13.4999C19.8501 13.4999 19.9401 13.5299 19.9401 13.5199Z" fill="#B7B5BE"/>
<path d="M12.31 18.24C12.3051 18.2002 12.3051 18.1599 12.31 18.12C12.2927 17.8531 12.2492 17.5885 12.18 17.33C12.18 17.33 12.18 17.24 12.18 17.2C12.1109 16.9559 12.0206 16.7183 11.91 16.49L11.81 16.31C11.7053 16.1171 11.5848 15.9332 11.45 15.76C11.3986 15.68 11.3382 15.6062 11.27 15.54C11.1496 15.3913 11.0157 15.254 10.87 15.13C10.7917 15.0543 10.7081 14.9841 10.62 14.92C10.4763 14.8109 10.326 14.7107 10.17 14.62C10.07 14.5575 9.96647 14.5007 9.85996 14.45C9.70118 14.3699 9.53752 14.2997 9.36996 14.24L8.99996 14.14C8.82294 14.0922 8.64235 14.0588 8.45996 14.04H8.08996H7.86996C7.74996 14.04 7.63996 14.04 7.52996 14.04H7.24996H6.95996C6.70516 14.1001 6.45462 14.1769 6.20996 14.27C6.01217 14.3506 5.82149 14.4476 5.63996 14.56C5.59048 14.5773 5.54342 14.6008 5.49996 14.63C5.35433 14.7219 5.2141 14.8221 5.07996 14.93L4.82996 15.14L4.54996 15.42C4.43996 15.54 4.33996 15.66 4.23996 15.79L4.06996 16C3.96147 16.1734 3.86459 16.3538 3.77996 16.54C3.74923 16.5947 3.72249 16.6515 3.69996 16.71C3.59422 16.958 3.51381 17.2159 3.45996 17.48C3.45996 17.62 3.45996 17.78 3.39996 17.92C3.33996 18.06 3.39996 18.12 3.39996 18.23C3.39996 18.28 3.39996 18.34 3.39996 18.39C3.39996 18.74 3.59996 18.87 4.02996 18.87H11.65C12.09 18.87 12.28 18.73 12.32 18.38C12.3249 18.3201 12.3249 18.2599 12.32 18.2C12.32 18.2 12.31 18.25 12.31 18.24Z" fill="#B7B5BE"/>
<path d="M5.40989 11.5799C5.43926 11.7162 5.47939 11.85 5.52989 11.9799C5.5245 12.0063 5.5245 12.0335 5.52989 12.0599C5.57982 12.1815 5.64004 12.2986 5.70989 12.4099C5.70565 12.4263 5.70565 12.4435 5.70989 12.4599C5.87427 12.7077 6.08475 12.9216 6.32989 13.0899L6.46989 13.1799L6.66989 13.2899L6.99989 13.3999H7.07989H7.17989C7.31776 13.4346 7.45822 13.458 7.59989 13.4699H7.79989H7.89989C8.15954 13.4689 8.41691 13.4215 8.65989 13.3299L8.88989 13.2399L9.09989 13.1299C9.44154 12.9201 9.73195 12.6365 9.94989 12.2999C9.97913 12.2565 10.0027 12.2094 10.0199 12.1599C10.0792 12.0495 10.1326 11.936 10.1799 11.8199C10.1799 11.7399 10.2299 11.6699 10.2499 11.5899C10.2852 11.4356 10.3053 11.2782 10.3099 11.1199C10.3099 11.1199 10.3099 11.1199 10.3099 11.0599C10.3099 10.9999 10.3099 11.0099 10.3099 10.9899C10.2994 10.648 10.2212 10.3115 10.0799 9.99993V9.92993C10.0128 9.80091 9.93588 9.67721 9.84989 9.55993L9.79989 9.49993C9.70425 9.38917 9.60064 9.28556 9.48989 9.18993L9.04989 8.89993L8.99989 8.83993C8.90352 8.79139 8.80314 8.75124 8.69989 8.71993L8.47989 8.64993H8.27989H7.94989H7.72989C7.63662 8.64501 7.54315 8.64501 7.44989 8.64993C7.19247 8.69191 6.94295 8.77284 6.70989 8.88993L6.62989 8.93993C6.54502 8.98169 6.46461 9.03195 6.38989 9.08993C6.32231 9.13431 6.25874 9.1845 6.19989 9.23993L5.99989 9.33993L5.75989 9.62993L5.67989 9.76993C5.62732 9.85328 5.58054 9.94015 5.53989 10.0299C5.53423 10.0731 5.53423 10.1168 5.53989 10.1599C5.49093 10.2768 5.45082 10.3971 5.41989 10.5199C5.42086 10.5366 5.42086 10.5533 5.41989 10.5699C5.38843 10.728 5.37169 10.8887 5.36989 11.0499C5.36619 11.218 5.38298 11.3859 5.41989 11.5499L5.40989 11.5799Z" fill="#B7B5BE"/>
<path d="M22.5401 2.11012C22.3691 2.01638 22.1879 1.94256 22.0001 1.89012C21.8026 1.82877 21.5969 1.7984 21.3901 1.80012H2.5401C1.94323 1.81836 1.3771 2.06903 0.962392 2.49868C0.547685 2.92833 0.317209 3.50298 0.320095 4.10012V19.9001C0.31957 20.4604 0.521791 21.0019 0.889409 21.4246C1.25703 21.8474 1.76521 22.1228 2.3201 22.2001H21.6201C21.7486 22.1883 21.8758 22.1649 22.0001 22.1301C22.1832 22.0733 22.3606 21.9996 22.5301 21.9101L22.6801 21.8201C22.9933 21.6532 23.2533 21.4015 23.4301 21.0938C23.607 20.7861 23.6936 20.4348 23.6801 20.0801V4.10012C23.6818 3.69748 23.5773 3.3015 23.3772 2.95212C23.177 2.60275 22.8883 2.31232 22.5401 2.11012ZM22.1601 20.2401C22.1601 20.2821 22.1518 20.3238 22.1357 20.3626C22.1197 20.4014 22.0961 20.4367 22.0664 20.4664C22.0367 20.4961 22.0014 20.5197 21.9626 20.5358C21.9237 20.5518 21.8821 20.5601 21.8401 20.5601H2.1801C2.13853 20.5601 2.09738 20.5518 2.05911 20.5356C2.02083 20.5194 1.9862 20.4957 1.95728 20.4658C1.92836 20.436 1.90574 20.4006 1.89076 20.3618C1.87578 20.3231 1.86875 20.2817 1.8701 20.2401V7.18012C1.8701 7.0979 1.90276 7.01905 1.96089 6.96091C2.01903 6.90278 2.09788 6.87012 2.1801 6.87012H21.8401C21.9093 6.87227 21.976 6.89683 22.0301 6.94012C22.0671 6.9622 22.098 6.99312 22.1201 7.03012C22.1334 7.07583 22.1334 7.1244 22.1201 7.17012L22.1601 20.2401Z" fill="#B7B5BE"/>
<path d="M19.9199 11.32C19.8926 11.2537 19.8592 11.19 19.8199 11.13C19.756 11.065 19.677 11.0169 19.5899 10.99H19.4399H14.4399C14.3683 10.9906 14.2976 11.0061 14.2322 11.0353C14.1668 11.0646 14.1081 11.107 14.0599 11.16C13.9818 11.2568 13.9363 11.3758 13.9299 11.5C13.9318 11.6332 13.9829 11.761 14.0734 11.8589C14.1638 11.9567 14.2873 12.0177 14.4199 12.03H19.2999H19.5599C19.5829 12.0355 19.6069 12.0355 19.6299 12.03C19.6741 12.0258 19.7159 12.0084 19.7499 11.98C19.7901 11.9627 19.8272 11.939 19.8599 11.91C19.9201 11.8559 19.9649 11.7869 19.9899 11.71C19.9956 11.6635 19.9956 11.6165 19.9899 11.57C19.9899 11.57 19.9899 11.57 19.9899 11.5C19.9899 11.43 19.9199 11.35 19.9199 11.32Z" fill="#B7B5BE"/>
</svg>
