<svg width="16" height="17" viewBox="0 0 16 17" fill="none" xmlns="http://www.w3.org/2000/svg">
<path d="M13.2933 9.51329C13.2971 9.47561 13.2971 9.43765 13.2933 9.39996V9.35996L13.2467 9.29996C13.1973 9.24212 13.1286 9.20421 13.0533 9.19329H13.0133C12.9602 9.18687 12.9065 9.18687 12.8533 9.19329H9.70667H9.60667H9.49333C9.43451 9.20948 9.38139 9.24181 9.34 9.28663C9.3079 9.32142 9.28298 9.3622 9.26667 9.40663C9.26667 9.40663 9.26667 9.44663 9.26667 9.45996C9.26368 9.47761 9.26368 9.49564 9.26667 9.51329C9.26667 9.51329 9.26667 9.55329 9.26667 9.57329C9.26436 9.591 9.26436 9.60892 9.26667 9.62663C9.28006 9.67972 9.30772 9.72814 9.34667 9.76663C9.37652 9.79193 9.41029 9.8122 9.44667 9.82663C9.51518 9.83676 9.58482 9.83676 9.65333 9.82663H12.8267H12.9467H12.9933C13.0242 9.82144 13.0536 9.8101 13.08 9.79329C13.1108 9.77655 13.138 9.75389 13.16 9.72663L13.1933 9.68663L13.2333 9.62663C13.2364 9.58446 13.2364 9.54213 13.2333 9.49996C13.2333 9.49996 13.2933 9.51996 13.2933 9.51329Z" fill="#B7B5BE"/>
<path d="M8.20666 12.6601C8.20345 12.6335 8.20345 12.6067 8.20666 12.5801C8.19515 12.4021 8.16612 12.2257 8.12 12.0534C8.12 12.0534 8.12 11.9934 8.12 11.9668C8.07398 11.804 8.01375 11.6456 7.94 11.4934L7.87333 11.3734C7.80353 11.2448 7.72325 11.1222 7.63333 11.0068C7.59908 10.9534 7.55882 10.9042 7.51333 10.8601C7.4331 10.7609 7.34382 10.6694 7.24666 10.5868C7.19446 10.5363 7.13877 10.4895 7.08 10.4468C6.98419 10.374 6.884 10.3072 6.78 10.2468C6.71334 10.2051 6.64434 10.1672 6.57333 10.1334C6.46748 10.08 6.35837 10.0332 6.24666 9.99344L6 9.92677C5.88198 9.89491 5.76159 9.87261 5.64 9.86011H5.39333H5.24666C5.16666 9.86011 5.09333 9.86011 5.02 9.86011H4.83333H4.64C4.47013 9.90015 4.3031 9.95137 4.14 10.0134C4.00814 10.0671 3.88102 10.1318 3.76 10.2068C3.72701 10.2183 3.69564 10.2339 3.66666 10.2534C3.56958 10.3147 3.47609 10.3815 3.38666 10.4534L3.22 10.5934L3.03333 10.7801C2.96 10.8601 2.89333 10.9401 2.82666 11.0268L2.71333 11.1668C2.64101 11.2824 2.57642 11.4026 2.52 11.5268C2.49951 11.5632 2.48168 11.6011 2.46666 11.6401C2.39617 11.8054 2.34257 11.9774 2.30666 12.1534C2.30666 12.2468 2.30666 12.3534 2.26666 12.4468C2.22666 12.5401 2.26666 12.5801 2.26666 12.6534C2.26666 12.6868 2.26666 12.7268 2.26666 12.7601C2.26666 12.9934 2.4 13.0801 2.68666 13.0801H7.76666C8.06 13.0801 8.18666 12.9868 8.21333 12.7534C8.21661 12.7135 8.21661 12.6734 8.21333 12.6334C8.21333 12.6334 8.20666 12.6668 8.20666 12.6601Z" fill="#B7B5BE"/>
<path d="M3.60667 8.21995C3.62625 8.31081 3.653 8.39998 3.68667 8.48662C3.68308 8.50421 3.68308 8.52236 3.68667 8.53995C3.71996 8.621 3.7601 8.69906 3.80667 8.77329C3.80384 8.78422 3.80384 8.79569 3.80667 8.80662C3.91626 8.97181 4.05658 9.1144 4.22 9.22662L4.31333 9.28662L4.44667 9.35995L4.66667 9.43329H4.72H4.78667C4.87859 9.45638 4.97223 9.47199 5.06667 9.47995H5.2H5.26667C5.43977 9.47926 5.61135 9.44765 5.77333 9.38662L5.92667 9.32662L6.06667 9.25329C6.29443 9.11338 6.48804 8.92432 6.63333 8.69995C6.65283 8.67097 6.66852 8.6396 6.68 8.60662C6.71954 8.533 6.75515 8.45734 6.78667 8.37995C6.78667 8.32662 6.82 8.27995 6.83333 8.22662C6.85688 8.12373 6.87028 8.01879 6.87333 7.91329C6.87333 7.91329 6.87333 7.91329 6.87333 7.87329C6.87333 7.83329 6.87333 7.83995 6.87333 7.82662C6.86631 7.59865 6.8142 7.37433 6.72 7.16662V7.11995C6.67526 7.03394 6.624 6.95147 6.56667 6.87329L6.53333 6.83328C6.46958 6.75945 6.4005 6.69037 6.32667 6.62662L6.03333 6.43328L6 6.39329C5.93575 6.36093 5.86884 6.33416 5.8 6.31329L5.65333 6.26662H5.52H5.3H5.15333C5.09115 6.26334 5.02885 6.26334 4.96667 6.26662C4.79506 6.29461 4.62871 6.34856 4.47333 6.42662L4.42 6.45995C4.36343 6.48779 4.30982 6.5213 4.26 6.55995C4.21495 6.58954 4.17257 6.623 4.13333 6.65995L4 6.72662L3.84 6.91995L3.78667 7.01329C3.75162 7.06886 3.72044 7.12677 3.69333 7.18662C3.68956 7.21538 3.68956 7.24452 3.69333 7.27328C3.6607 7.35117 3.63395 7.4314 3.61333 7.51329C3.61398 7.52439 3.61398 7.53552 3.61333 7.54662C3.59236 7.65203 3.5812 7.75915 3.58 7.86662C3.57753 7.97867 3.58873 8.09061 3.61333 8.19995L3.60667 8.21995Z" fill="#B7B5BE"/>
<path d="M15.0267 1.90666C14.9127 1.84417 14.7919 1.79496 14.6667 1.76C14.535 1.7191 14.3978 1.69886 14.26 1.7H1.69334C1.29543 1.71216 0.918005 1.87927 0.641534 2.16571C0.365063 2.45214 0.211411 2.83524 0.213336 3.23333V13.7667C0.212986 14.1402 0.3478 14.5012 0.592879 14.783C0.837957 15.0648 1.17674 15.2485 1.54667 15.3H14.4133C14.499 15.2921 14.5838 15.2765 14.6667 15.2533C14.7887 15.2154 14.907 15.1663 15.02 15.1067L15.12 15.0467C15.3288 14.9354 15.5021 14.7676 15.62 14.5625C15.7379 14.3573 15.7957 14.1231 15.7867 13.8867V3.23333C15.7878 2.9649 15.7181 2.70092 15.5847 2.468C15.4513 2.23508 15.2588 2.04146 15.0267 1.90666ZM14.7733 13.9933C14.7733 14.0213 14.7678 14.0491 14.7571 14.075C14.7464 14.1009 14.7307 14.1244 14.7109 14.1442C14.691 14.164 14.6675 14.1797 14.6416 14.1904C14.6158 14.2011 14.588 14.2067 14.56 14.2067H1.45334C1.42563 14.2067 1.3982 14.2011 1.37268 14.1903C1.34716 14.1795 1.32407 14.1637 1.30479 14.1438C1.28551 14.1239 1.27043 14.1003 1.26045 14.0745C1.25046 14.0486 1.24578 14.021 1.24667 13.9933V5.28666C1.24667 5.23185 1.26844 5.17929 1.3072 5.14053C1.34596 5.10177 1.39852 5.08 1.45334 5.08H14.56C14.6062 5.08143 14.6506 5.09781 14.6867 5.12666C14.7113 5.14138 14.7319 5.162 14.7467 5.18666C14.7556 5.21714 14.7556 5.24952 14.7467 5.28L14.7733 13.9933Z" fill="#B7B5BE"/>
<path d="M13.28 8.04666C13.2618 8.00243 13.2395 7.96002 13.2133 7.91999C13.1707 7.87666 13.1181 7.84459 13.06 7.82666H12.96H9.62667C9.57891 7.82708 9.53176 7.83737 9.48816 7.85687C9.44457 7.87637 9.40548 7.90467 9.37333 7.93999C9.32128 8.00453 9.29094 8.08386 9.28667 8.16666C9.28793 8.25548 9.32199 8.3407 9.38229 8.40592C9.4426 8.47115 9.52488 8.51178 9.61333 8.51999H12.8667H13.04C13.0553 8.52367 13.0713 8.52367 13.0867 8.51999C13.1161 8.5172 13.144 8.50558 13.1667 8.48666C13.1934 8.47512 13.2182 8.45936 13.24 8.43999C13.2801 8.40394 13.31 8.35795 13.3267 8.30666C13.3304 8.27566 13.3304 8.24432 13.3267 8.21333C13.3267 8.21333 13.3267 8.21333 13.3267 8.16666C13.3267 8.11999 13.28 8.06666 13.28 8.04666Z" fill="#B7B5BE"/>
</svg>
