<svg width="24" height="24" viewBox="0 0 24 24" fill="none" xmlns="http://www.w3.org/2000/svg">
<path fill-rule="evenodd" clip-rule="evenodd" d="M12.4739 19.4866C12.1824 19.333 11.834 19.3329 11.5423 19.4862L6.65262 22.057C5.91898 22.4427 5.06151 21.8197 5.20165 21.0028L6.13575 15.5575C6.19144 15.2328 6.08369 14.9016 5.84766 14.6718L1.887 10.8165C1.29273 10.2381 1.62033 9.22924 2.44108 9.11029L7.90499 8.31842C8.23085 8.2712 8.51258 8.06659 8.6583 7.77132L11.1034 2.81701C11.4702 2.07376 12.53 2.07376 12.8968 2.81701L15.3419 7.77133C15.4876 8.06659 15.7694 8.2712 16.0952 8.31842L21.5591 9.11029C22.3799 9.22924 22.7075 10.2381 22.1132 10.8165L18.1526 14.6718C17.9165 14.9016 17.8088 15.2328 17.8645 15.5575L18.7982 21.0005C18.9384 21.8178 18.08 22.4408 17.3464 22.0542L12.4739 19.4866Z" stroke="#B7B5BE" stroke-width="1.75" stroke-linecap="round" stroke-linejoin="round"/>
</svg>
