<svg width="16" height="17" viewBox="0 0 16 17" fill="none" xmlns="http://www.w3.org/2000/svg">
<path opacity="0.2" d="M3.88823 12.1548C3.28959 11.4816 2.86329 10.6691 2.65099 9.78719C2.39053 8.7052 2.46444 7.56965 2.86295 6.53055C3.26146 5.49145 3.96582 4.59769 4.88298 3.96733C5.80014 3.33697 6.88696 2.99968 7.99985 3L8.00015 3C9.11304 2.99968 10.1999 3.33697 11.117 3.96733C12.0342 4.59769 12.7385 5.49145 13.137 6.53055C13.5356 7.56965 13.6095 8.7052 13.349 9.78719C13.1367 10.6691 12.7104 11.4816 12.1118 12.1548C11.7181 11.586 11.2093 11.1029 10.6155 10.7385C10.3726 10.5894 10.1184 10.462 9.85585 10.3571C9.94845 10.2842 10.0371 10.2055 10.1213 10.1213C10.6839 9.55871 11 8.79565 11 8C11 7.40666 10.8241 6.82664 10.4944 6.33329C10.1648 5.83994 9.69623 5.45542 9.14805 5.22836C8.59987 5.0013 7.99667 4.94189 7.41473 5.05764C6.83279 5.1734 6.29824 5.45912 5.87868 5.87868C5.45912 6.29824 5.1734 6.83279 5.05764 7.41473C4.94189 7.99667 5.0013 8.59987 5.22836 9.14805C5.42552 9.62404 5.7414 10.04 6.14416 10.3571C5.88163 10.462 5.62743 10.5894 5.3845 10.7385C4.79075 11.1029 4.28186 11.586 3.88823 12.1548ZM5.64603 11.1647C5.97263 10.9642 6.32187 10.8073 6.6849 10.6964L4.24477 12.5201C4.60606 11.9731 5.08376 11.5097 5.64603 11.1647Z" stroke="#A5A2AD"/>
<path d="M8 10.5C9.38071 10.5 10.5 9.38071 10.5 8C10.5 6.61929 9.38071 5.5 8 5.5C6.61929 5.5 5.5 6.61929 5.5 8C5.5 9.38071 6.61929 10.5 8 10.5ZM8 10.5C7.16899 10.5 6.3542 10.7297 5.64596 11.1644C4.93772 11.5992 4.36369 12.2215 3.9875 12.9625M8 10.5C8.83101 10.5 9.6458 10.7297 10.354 11.1644C11.0623 11.5992 11.6363 12.2215 12.0125 12.9625M14 8.5C14 11.8137 11.3137 14.5 8 14.5C4.68629 14.5 2 11.8137 2 8.5C2 5.18629 4.68629 2.5 8 2.5C11.3137 2.5 14 5.18629 14 8.5Z" stroke="#A5A2AD" stroke-linecap="round" stroke-linejoin="round"/>
</svg>
