<svg id="Layer_1" data-name="Layer 1" xmlns="http://www.w3.org/2000/svg" viewBox="0 0 935.2 232.71"><defs><style>.cls-1{fill:#373e41;}.cls-2{fill:#1172ba;}</style></defs><path class="cls-1" d="M228.9.1c7.1,3,8.2,4.5,8.2,12.7V71.2l3.4-3.4c12-11.2,25.1-19.5,41.9-21.5,15-1.7,28.6,2.1,40.8,10.3,23.2,15.5,35,37.4,31.6,65.3-3.6,29.4-20.8,49.4-49.8,57.3-39.5,10.9-79.6-14.2-85.2-55.8a51.63,51.63,0,0,1-.4-7.9c0-34.1,0-68.5-.2-102.6,0-6.2,1.5-10.5,7.5-12.9A18.55,18.55,0,0,0,228.9.1ZM337.6,114.5a50.28,50.28,0,0,0-50.2-50.7c-27.5,0-50.2,23.2-50.2,50.9,0,27,23,49.6,50.2,49.6A50,50,0,0,0,337.6,114.5Z"/><path class="cls-2" d="M801.9.1c6.2,2.1,7.9,6.4,7.9,12.9-.2,28.8-.2,57.7-.2,86.5v4.7c1.3-1.3,2.4-2.1,3.2-3,18-18.2,36.3-36.5,54.3-54.7,2.8-3,6.2-3.6,9.9-2.6a8.06,8.06,0,0,1,5.8,6.7c.6,3.2-.4,5.8-2.8,8.2L869.7,69.1C856,83.1,842,97,828.3,110.7c-1.9,1.9-1.7,2.8.2,4.7,17.4,16.7,34.6,33.7,51.7,50.7,4.5,4.3,4.3,10.1,0,13.7-3.6,3-8.6,2.6-12.7-1.3-7.7-7.5-15.5-15-23-22.5-11.2-11.4-22.1-22.8-33.3-34.3a4.6,4.6,0,0,0-1.5,4.3v45.7c0,6-3.4,10.1-8.8,10.1s-9-3.9-9-9.9V10.5c0-5.6,3-8.6,7.9-10.5A15.48,15.48,0,0,0,801.9.1Z"/><path class="cls-2" d="M488,70.3c.9-1.3.4-2.8.4-3.9V10.6c0-7.3,6-11.6,12.2-9,4.1,1.7,5.4,4.9,5.4,9.2V79.1c0,12.9.2,25.8-.2,38.6-1.1,33.7-28.1,61.4-61.8,63.5-36.7,2.4-67.2-21-73.2-57.1-4.9-29.6,11.4-58.4,38.9-71.7,24.3-11.6,46.6-7.5,67.4,8.6C480.7,64.1,484.2,67.1,488,70.3Zm-49.8,94c27.5,0,50.4-22.8,50-49.8C488,86.6,465.5,63.9,438,63.9c-27.9,0-50.7,22.8-50.7,50.4C387.8,142,410.5,164.6,438.2,164.3Z"/><path class="cls-2" d="M594.1,122.7H541.7c-3,0-3.2.6-2.6,3.4,4.7,22.1,26.8,39.1,49.8,38.4a49.8,49.8,0,0,0,33.7-13.7c4.5-4.1,9.9-4.1,13.3-.4s3,8.8-.9,13.1c-9.4,10.3-21.3,15.9-35,17.6-17.6,2.1-34.1,0-49.2-9.9-23-15-32.8-36.7-30.3-63.8,2.4-25.1,15.9-43.4,38.6-54.3,47-22.5,92.1,13.1,96.4,53,.2,2.1.4,4.3.6,6.4.2,6.4-3,9.9-9.7,10.1H612.7C606.5,122.7,600.3,122.7,594.1,122.7Zm-5.8-17.8h45.5c3.6,0,3.9-.9,3-4.1-6-21.5-26.6-37.1-48.9-36.9a50.75,50.75,0,0,0-48.3,37.8c-.6,2.8,0,3.2,2.6,3.2Z"/><path class="cls-1" d="M205.5,114.3a67.52,67.52,0,0,1-68.1,67.4c-39.1,0-68.7-31.1-68.1-68.7.6-36.7,31.6-67.2,69.8-67C174.6,46.3,206.4,78.5,205.5,114.3Zm-118.2,0a50.3,50.3,0,1,0,50.2-50.4A50.06,50.06,0,0,0,87.3,114.3Z"/><path class="cls-2" d="M711.3,181.9H680c-4.3,0-7.5-2.1-8.6-5.8a9.13,9.13,0,0,1,2.8-10.1c2.1-1.7,4.5-1.9,7.1-1.9h57.1c8.2,0,14.6-2.8,18.9-9.4a18,18,0,0,0,.9-19.3c-3.6-6.9-9.4-10.7-17.4-10.7-10.9-.2-21.9,0-33.1,0-20.2,0-38-15.7-39.3-35-1.7-22.3,12.2-40.6,33.5-43.6a31,31,0,0,1,4.3-.2H765a8.44,8.44,0,0,1,8.6,6.7,8.9,8.9,0,0,1-4.1,9.7,10.94,10.94,0,0,1-5.8,1.1h-55c-14.8,0-25.3,12.9-22.3,27,2.1,9.7,10.9,16.7,21.5,16.7h32.6c19.1.2,35,14.2,37.1,32.2,2.4,19.5-9.2,36.7-28.3,41.4-4.1,1.1-8.2,1.1-12.5,1.1C728.3,181.9,719.9,181.9,711.3,181.9Z"/><path class="cls-1" d="M37.2,120.8v-64c0-6,3.6-10.1,8.8-10.1,5.4,0,9,3.9,9,9.9,0,43.4.2,86.5,0,129.9,0,22.3-15,40.6-36.1,45.1a66.12,66.12,0,0,1-8.8,1.1c-6,.2-10.1-3.2-10.1-8.6s3.6-9,9.7-9c12.2-.4,20.6-6.7,25.5-17.6a33.22,33.22,0,0,0,2.4-12.9C37.2,163.3,37.2,142,37.2,120.8Z"/><path class="cls-2" d="M909.4,1a25.75,25.75,0,0,1,25.8,26.4A26.08,26.08,0,0,1,909,53.2,25.74,25.74,0,0,1,883,27,25.61,25.61,0,0,1,909.4,1Zm21.1,26.2c0-12.2-9.4-21.9-21.5-21.9a22.21,22.21,0,0,0-21.9,21.5,21.64,21.64,0,0,0,21.7,21.5A21.12,21.12,0,0,0,930.5,27.2Z"/><path class="cls-1" d="M46.3,26.7c-6.7,0-11.8-4.7-11.8-11.2,0-6.9,4.7-11.8,11.4-12,6.9,0,11.6,4.7,11.8,11.6C57.6,22,52.9,26.7,46.3,26.7Z"/><path class="cls-2" d="M912.4,29.1c3.9,3.4,6,7.7,8.8,12-3.6,1.1-6.2.4-7.7-3.2-.9-2.1-2.6-4.1-3.9-6a4.86,4.86,0,0,0-3.6-2.1c-2.4-.4-4.3-.2-3.9,3,.2,2.1,0,4.3,0,6.4.2,2.1-.9,2.4-2.6,2.4s-2.4-.6-2.4-2.4V15.6c0-1.5.4-2.6,2.1-2.4,4.1.2,8.2-.2,12.2.4,4.5.6,6.9,2.8,7.5,6.4.4,3.6-1.3,6.4-5.4,8.4C913.5,28.5,913.1,28.7,912.4,29.1Zm-5.5-11.8c-1.3.4-3.4-1.1-4.3,1.1-1.7,4.3.2,6.9,4.9,6.9,5.2,0,7.1-1.1,6.9-4.1C914.2,18.4,912.2,17.3,906.9,17.3Z"/></svg>