<svg xmlns="http://www.w3.org/2000/svg" width="28.17" height="44.802" viewBox="0 0 28.17 44.802">
  <g id="online-vacancy-modified" transform="translate(-312.538 -994.091)">
    <path id="Subtraction_2" data-name="Subtraction 2" d="M999.786-2296.107a1.735,1.735,0,0,1-1.265-.552,1.97,1.97,0,0,1-.393-2.069,1.827,1.827,0,0,1,1.138-1.092v-1.29l-7.095-1.931,0,3.214a1.828,1.828,0,0,1,1.156,1.1,1.971,1.971,0,0,1-.394,2.069,1.736,1.736,0,0,1-1.266.552,1.688,1.688,0,0,1-.692-.147,1.9,1.9,0,0,1-1.1-1.76,1.9,1.9,0,0,1,1.287-1.81l0-3.238-7.1,1.953v1.29a1.881,1.881,0,0,1,1.275,1.805,1.9,1.9,0,0,1-1.1,1.76,1.69,1.69,0,0,1-.693.147,1.735,1.735,0,0,1-1.265-.552,1.97,1.97,0,0,1-.393-2.069,1.825,1.825,0,0,1,1.168-1.1v-1.706a.526.526,0,0,1,.392-.52l7.013-1.914v-3.648h-.311a.332.332,0,0,1-.322-.34v-1.965h3.593v1.965a.331.331,0,0,1-.321.34h-.227v3.669l7.009,1.893a.525.525,0,0,1,.393.52v1.7a1.9,1.9,0,0,1,1.307,1.816,1.9,1.9,0,0,1-1.1,1.76A1.69,1.69,0,0,1,999.786-2296.107Zm-.717-13.817H984.177a2.192,2.192,0,0,1-2.106-1.553H981.3a2.545,2.545,0,0,1-2.464-2.605v-2.319h-.824a.492.492,0,0,1-.477-.5v-1.8a.5.5,0,0,1,.483-.511h2.667a.5.5,0,0,1,.483.511v1.8a.517.517,0,0,1-.14.356.458.458,0,0,1-.334.147h-.75v2.32a1.4,1.4,0,0,0,1.356,1.434h.732a2.2,2.2,0,0,1,2.142-1.683h5.448v-1.44h-3.5a.979.979,0,0,1-.942-.817l-.823-4.362a14.519,14.519,0,0,0,7.158,1.8,14.6,14.6,0,0,0,7.4-1.936l-.85,4.5a.977.977,0,0,1-.94.817h-3.5v1.44h5.448a2.195,2.195,0,0,1,2.141,1.683h.732a1.4,1.4,0,0,0,1.357-1.434v-2.32h-.747a.462.462,0,0,1-.338-.147.517.517,0,0,1-.14-.356v-1.8a.5.5,0,0,1,.483-.511h2.667a.5.5,0,0,1,.483.511v1.8a.492.492,0,0,1-.477.5h-.825v2.319a2.544,2.544,0,0,1-2.464,2.605h-.767A2.195,2.195,0,0,1,999.068-2309.924Z" transform="translate(-665 3335)" fill="#fff"/>
    <path id="Icon_metro-earth" data-name="Icon metro-earth" d="M11.98,1.928a9.409,9.409,0,1,0,9.409,9.409A9.409,9.409,0,0,0,11.98,1.928Zm0,17.642a2.91,2.91,0,0,1-1.916-.429l2.944-5.061a.588.588,0,0,0,.149-.391V11.925a.588.588,0,0,0-.588-.588c-2.076,0-2.116-1.154-2.138-1.176-.11-.11-1.884,1.176-2.04,1.176L7.1,10.157c-.325,0-1.393,2.327-1.393,2.652l-1.964.276a10.518,10.518,0,0,0,.793,2.55l1.539,1.833,1.2.627A8.238,8.238,0,0,1,4.54,7.809H6.687A.588.588,0,0,0,7.1,7.637L9.455,5.284a.588.588,0,0,0,.172-.416V3.446a8.256,8.256,0,0,1,5.959.489c-.076.064-.15.132-.221.2a3.529,3.529,0,0,0,2.493,6.024q.087,0,.175,0A13.81,13.81,0,0,1,17.879,17a.587.587,0,0,0-.015.1A8.208,8.208,0,0,1,11.98,19.57Z" transform="translate(315.02 992.163)" fill="#fff"/>
  </g>
</svg>
