<svg xmlns="http://www.w3.org/2000/svg" width="30.096" height="29.256" viewBox="0 0 30.096 29.256">
  <g id="online-profile" transform="translate(2325.646 580.296)">
    <path id="Subtraction_5" data-name="Subtraction 5" d="M15.012,20.245H1.928A1.93,1.93,0,0,1,0,18.316V4.82A1.93,1.93,0,0,1,1.928,2.892l1.928.06V.059L7.672,0l-.08,2.892H19.3L19.281,0l3.9.059V2.892h1.887A1.931,1.931,0,0,1,26.993,4.82v.431a1.239,1.239,0,0,0-.67-.074l-.486.092a1.375,1.375,0,0,1-.225.019A1.181,1.181,0,0,1,24.53,4.63L24.287,4.2a1.252,1.252,0,0,0-1.822-.426l-.293.2V.964H20.245v2.8l-.026-.02a1.205,1.205,0,0,0-.729-.243,1.278,1.278,0,0,0-1.123.668l-.243.425a1.264,1.264,0,0,1-1.111.658,1.378,1.378,0,0,1-.225-.019L16.3,5.146a1.338,1.338,0,0,0-.211-.017,1.285,1.285,0,0,0-1.277,1.2l-.031.486a1.261,1.261,0,0,1-.911,1.156l-.486.152a1.285,1.285,0,0,0-.8.685,1.22,1.22,0,0,0-.015,1.017l.183.456a1.267,1.267,0,0,1-.334,1.428l-.365.335a1.242,1.242,0,0,0,0,1.885l.365.335a1.267,1.267,0,0,1,.334,1.428l-.183.456a1.22,1.22,0,0,0,.015,1.016,1.287,1.287,0,0,0,.805.686l.486.122a1.26,1.26,0,0,1,.911,1.155l.031.487a1.242,1.242,0,0,0,.2.626ZM6.3,13.582h0a7.434,7.434,0,0,0-2.015.577c-.514.342-.746,2.161-.748,2.179H11.84c0-.016-.159-1.776-.763-2.179a7.406,7.406,0,0,0-2.015-.577l0,0c-.164.173-1,1.033-1.379,1.033-.408,0-1.373-1.026-1.382-1.037ZM7.712,7.531C6.549,7.531,5.6,8.774,5.6,10.3s.946,2.772,2.11,2.772,2.11-1.244,2.11-2.772S8.875,7.531,7.712,7.531ZM4.82.964h0V4.82H6.748V.964Zm22.17,10.168a6.777,6.777,0,0,0-2.073-3.056,6.154,6.154,0,0,1,2.075,2.7v.351Z" transform="translate(-2325.646 -580.296)" fill="#fff"/>
    <path id="Path_7710" data-name="Path 7710" d="M33.759,9.523a1.07,1.07,0,0,1-.281-1.2l.153-.383a1.056,1.056,0,0,0-.69-1.43l-.409-.1a1.067,1.067,0,0,1-.766-.97V5a1.057,1.057,0,0,0-1.226-1l-.409.077a1.011,1.011,0,0,1-1.1-.536l-.2-.358A1.053,1.053,0,0,0,27.3,2.832l-.332.23a1.076,1.076,0,0,1-1.226,0l-.332-.255a1.062,1.062,0,0,0-1.558.358l-.2.358a1.063,1.063,0,0,1-1.124.536l-.409-.077a1.079,1.079,0,0,0-1.251,1l-.026.409a1.067,1.067,0,0,1-.766.97l-.409.128a1.056,1.056,0,0,0-.69,1.43l.153.383a1.07,1.07,0,0,1-.281,1.2l-.306.281a1.043,1.043,0,0,0,0,1.583l.306.281a1.071,1.071,0,0,1,.281,1.2l-.153.383a1.056,1.056,0,0,0,.69,1.43l.409.1a1.067,1.067,0,0,1,.766.97l.026.409a1.057,1.057,0,0,0,1.226,1l.409-.077a1.011,1.011,0,0,1,1.1.536l.2.358a1.053,1.053,0,0,0,1.532.358l.332-.23a1.076,1.076,0,0,1,1.226,0l.332.255a1.062,1.062,0,0,0,1.558-.358l.2-.358a1.063,1.063,0,0,1,1.124-.536l.409.077a1.079,1.079,0,0,0,1.251-1l.026-.409a1.067,1.067,0,0,1,.766-.97l.409-.1a1.056,1.056,0,0,0,.69-1.43l-.153-.383a1.071,1.071,0,0,1,.281-1.2l.306-.281a1.043,1.043,0,0,0,0-1.583ZM26.3,15.754A5.159,5.159,0,1,1,31.461,10.6,5.161,5.161,0,0,1,26.3,15.754Zm-8.019,8.989,2.5-6.257a2.665,2.665,0,0,0,1.1.255,2.814,2.814,0,0,0,.46-.051H22.4l.026.051a2.589,2.589,0,0,0,2.3,1.328,2.535,2.535,0,0,0,.766-.128l-2.63,6.614a.249.249,0,0,1-.46.026l-1.251-2.2a.171.171,0,0,0-.2-.077l-2.349.741A.236.236,0,0,1,18.284,24.743Zm11.466,1.89-2.656-6.64a2.675,2.675,0,0,0,.766.128,2.591,2.591,0,0,0,2.3-1.353l.026-.051h.051a2.814,2.814,0,0,0,.46.051,2.783,2.783,0,0,0,1.124-.255l2.5,6.308a.246.246,0,0,1-.306.332l-2.349-.741a.171.171,0,0,0-.2.077l-1.251,2.2A.277.277,0,0,1,29.75,26.633Z" transform="translate(-2330.006 -577.825)" fill="#fff"/>
    <path id="Icon_awesome-check" data-name="Icon awesome-check" d="M2.063,9.018.089,7.044a.3.3,0,0,1,0-.43l.43-.43a.3.3,0,0,1,.43,0l1.33,1.33L5.127,4.666a.3.3,0,0,1,.43,0l.43.43a.3.3,0,0,1,0,.43L2.493,9.018A.3.3,0,0,1,2.063,9.018Z" transform="translate(-2306.609 -573.689)" fill="#fff"/>
  </g>
</svg>
