<svg xmlns="http://www.w3.org/2000/svg" width="31.913" height="35.085" viewBox="0 0 31.913 35.085">
  <g id="Services-icon" transform="translate(2700.015 183.374)">
    <path id="Path_7723" data-name="Path 7723" d="M612.029,1578.25a11.856,11.856,0,0,1,4.73,1.032,19.843,19.843,0,0,0,4.117,1.228c1.212.231,2.432.425,3.641.67a2.218,2.218,0,0,1,.844.394.739.739,0,0,1,.036,1.21,2.577,2.577,0,0,1-2.053.621c-.378-.036-.75-.116-1.125-.172-1.288-.191-2.574-.4-3.867-.563a5.56,5.56,0,0,0-2.594.3.566.566,0,0,0-.278.235.273.273,0,0,0,.063.256.3.3,0,0,0,.254.057,6.992,6.992,0,0,1,3.765-.158c1.247.212,2.5.417,3.752.575a3.061,3.061,0,0,0,2.465-.75,1.236,1.236,0,0,0,.111-1.892c-.07-.08-.086-.148.021-.2a20.06,20.06,0,0,0,3.013-2.145c.581-.436,1.189-.844,1.811-1.228a1.218,1.218,0,0,1,1.418.032.315.315,0,0,0,.2.021c.75-.129,1.3.4,1.1,1.078a1.6,1.6,0,0,1-.27.512c-.854,1.1-1.724,2.2-2.578,3.3a5.218,5.218,0,0,1-1.926,1.526c-1.918.916-3.841,1.825-5.729,2.79a5.562,5.562,0,0,1-3.76.508c-1.286-.264-2.551-.618-3.825-.931-.943-.232-1.878-.5-2.832-.682a5.319,5.319,0,0,0-3.041.327c-1.37.557-2.745,1.1-4.113,1.665a.534.534,0,0,1-.58-.058,3.567,3.567,0,0,1-.553-.5,8.88,8.88,0,0,1-1.913-4.062,1.587,1.587,0,0,1-.019-.225c-.021-.566.027-.633.591-.864.972-.4,1.971-.753,2.905-1.215a12.985,12.985,0,0,0,1.743-1.173A7.745,7.745,0,0,1,612.029,1578.25Z" transform="translate(-3302.332 -1736.214)" fill="#fff"/>
    <path id="Icon_awesome-user-alt" data-name="Icon awesome-user-alt" d="M6.741,7.583A3.792,3.792,0,1,0,2.949,3.792,3.793,3.793,0,0,0,6.741,7.583Zm3.37.843H8.66a4.583,4.583,0,0,1-3.839,0H3.37A3.37,3.37,0,0,0,0,11.8v.421a1.264,1.264,0,0,0,1.264,1.264H12.217a1.264,1.264,0,0,0,1.264-1.264V11.8A3.37,3.37,0,0,0,10.111,8.426Z" transform="translate(-2687.752 -178.163)" fill="#fff"/>
    <g id="Group_1095" data-name="Group 1095" transform="translate(-2693.42 -182.874)">
      <path id="Subtraction_13" data-name="Subtraction 13" d="M2973.88,369.61a12.4,12.4,0,0,1-10.8-18.511l.17.189a12.163,12.163,0,0,0,17.8,15.741l.173.172A12.3,12.3,0,0,1,2973.88,369.61Zm10.726-6.178h0l-.173-.179a12.162,12.162,0,0,0-17.9-15.74l-.171-.172a12.276,12.276,0,0,1,7.523-2.548,12.4,12.4,0,0,1,10.727,18.638Z" transform="translate(-2961.47 -344.793)" fill="#fff" stroke="#fff" stroke-width="1"/>
      <path id="Path_7732" data-name="Path 7732" d="M376.045,286.283l-1.345,3.961,4.1-.815Z" transform="translate(-371.907 -285.597)" fill="#fff"/>
      <path id="Path_7733" data-name="Path 7733" d="M562.087,529.668l2.612,2.98,1.275-3.753Z" transform="translate(-544.136 -508.621)" fill="#fff"/>
    </g>
  </g>
</svg>
