<svg width="16" height="16" viewBox="0 0 16 16" fill="none" xmlns="http://www.w3.org/2000/svg">
<g id="add">
<g id="Add User">
<g id="Group 3">
<mask id="mask0_3631_7898" style="mask-type:alpha" maskUnits="userSpaceOnUse" x="1" y="9" width="11" height="6">
<path id="Clip 2" fill-rule="evenodd" clip-rule="evenodd" d="M1.3335 9.63721H11.8362V14.5298H1.3335V9.63721Z" fill="white"/>
</mask>
<g mask="url(#mask0_3631_7898)">
<path id="Fill 1" fill-rule="evenodd" clip-rule="evenodd" d="M6.58483 10.6372C3.76416 10.6372 2.3335 11.1219 2.3335 12.0765C2.3335 13.0405 3.76416 13.5299 6.58483 13.5299C9.4055 13.5299 10.8362 13.0452 10.8362 12.0912C10.8362 11.1259 9.4055 10.6372 6.58483 10.6372ZM6.58483 14.5299C5.28616 14.5299 1.3335 14.5299 1.3335 12.0765C1.3335 9.88987 4.33016 9.63721 6.58483 9.63721C7.8835 9.63721 11.8362 9.63721 11.8362 12.0912C11.8362 14.2772 8.8395 14.5299 6.58483 14.5299Z" fill="white"/>
</g>
</g>
<path id="Fill 4" fill-rule="evenodd" clip-rule="evenodd" d="M6.58473 2.33325C5.18206 2.33325 4.04006 3.47525 4.04006 4.87859C4.0374 5.55792 4.29873 6.19458 4.7754 6.67525C5.25273 7.15525 5.88873 7.42125 6.56606 7.42392L6.58473 7.92392V7.42392C7.98806 7.42392 9.13006 6.28192 9.13006 4.87859C9.13006 3.47525 7.98806 2.33325 6.58473 2.33325ZM6.58473 8.42392H6.56406C5.61806 8.42058 4.7314 8.04925 4.06673 7.37992C3.4014 6.70992 3.03673 5.82059 3.04006 4.87659C3.04006 2.92392 4.63006 1.33325 6.58473 1.33325C8.54006 1.33325 10.1301 2.92392 10.1301 4.87858C10.1301 6.83325 8.54006 8.42392 6.58473 8.42392Z" fill="white"/>
<path id="Fill 6" fill-rule="evenodd" clip-rule="evenodd" d="M12.8027 8.95305C12.5267 8.95305 12.3027 8.72905 12.3027 8.45305V5.77905C12.3027 5.50305 12.5267 5.27905 12.8027 5.27905C13.0787 5.27905 13.3027 5.50305 13.3027 5.77905V8.45305C13.3027 8.72905 13.0787 8.95305 12.8027 8.95305Z" fill="white"/>
<path id="Fill 8" fill-rule="evenodd" clip-rule="evenodd" d="M14.1666 7.61572H11.4399C11.1639 7.61572 10.9399 7.39172 10.9399 7.11572C10.9399 6.83972 11.1639 6.61572 11.4399 6.61572H14.1666C14.4426 6.61572 14.6666 6.83972 14.6666 7.11572C14.6666 7.39172 14.4426 7.61572 14.1666 7.61572Z" fill="white"/>
</g>
</g>
</svg>
