<svg width="24" height="24" viewBox="0 0 24 24" fill="none" xmlns="http://www.w3.org/2000/svg">
<mask id="mask0_3631_7928" style="mask-type:alpha" maskUnits="userSpaceOnUse" x="3" y="3" width="18" height="19">
<path fill-rule="evenodd" clip-rule="evenodd" d="M3 3H20.1806V21.9395H3V3Z" fill="white"/>
</mask>
<g mask="url(#mask0_3631_7928)">
<path fill-rule="evenodd" clip-rule="evenodd" d="M14.1103 5.01664L4.69527 16.7916C4.52427 17.0056 4.46127 17.2816 4.52427 17.5466L5.20527 20.4316L8.24427 20.3936C8.53327 20.3906 8.80027 20.2616 8.97727 20.0416C12.1943 16.0166 18.3273 8.34264 18.5013 8.11764C18.6653 7.85164 18.7293 7.47564 18.6433 7.11364C18.5553 6.74264 18.3243 6.42764 17.9913 6.22664C17.9203 6.17764 16.2353 4.86964 16.1833 4.82864C15.5493 4.32064 14.6243 4.40864 14.1103 5.01664ZM4.61327 21.9396C4.26627 21.9396 3.96427 21.7016 3.88327 21.3626L3.06427 17.8916C2.89527 17.1726 3.06327 16.4306 3.52427 15.8546L12.9443 4.07264C12.9483 4.06864 12.9513 4.06364 12.9553 4.05964C13.9883 2.82464 15.8563 2.64264 17.1163 3.65364C17.1663 3.69264 18.8393 4.99264 18.8393 4.99264C19.4473 5.35464 19.9223 6.00164 20.1023 6.76764C20.2813 7.52564 20.1513 8.30764 19.7343 8.96864C19.7033 9.01764 19.6763 9.05964 10.1483 20.9796C9.68927 21.5516 9.00127 21.8846 8.26227 21.8936L4.62327 21.9396H4.61327Z" fill="#09D261"/>
</g>
<path fill-rule="evenodd" clip-rule="evenodd" d="M17.2229 11.6846C17.0629 11.6846 16.9029 11.6336 16.7659 11.5296L11.3139 7.34162C10.9859 7.08962 10.9239 6.61962 11.1759 6.28962C11.4289 5.96162 11.8989 5.90062 12.2279 6.15262L17.6809 10.3396C18.0089 10.5916 18.0709 11.0626 17.8179 11.3916C17.6709 11.5836 17.4479 11.6846 17.2229 11.6846Z" fill="#09D261"/>
</svg>
