<svg xmlns="http://www.w3.org/2000/svg" width="31.594" height="27.505" viewBox="0 0 31.594 27.505">
  <g id="Group_1082" data-name="Group 1082" transform="translate(-360.924 -491.378)">
    <path id="Icon_metro-profile" data-name="Icon metro-profile" d="M29.563,10.6H27.676V7.772l-3.9-.06L23.8,10.6H12.09l.08-2.892-3.816.06v2.892L6.427,10.6A1.929,1.929,0,0,0,4.5,12.532v13.5a1.929,1.929,0,0,0,1.928,1.928H29.563a1.929,1.929,0,0,0,1.928-1.928v-13.5A1.929,1.929,0,0,0,29.563,10.6Zm-4.82-1.928h1.928v3.856H24.743ZM12.211,15.243c1.165,0,2.109,1.241,2.109,2.772s-.945,2.772-2.109,2.772S10.1,19.545,10.1,18.015s.945-2.772,2.109-2.772ZM9.319,8.676h1.928v3.856H9.319ZM8.034,24.05s.228-1.834.748-2.18a7.393,7.393,0,0,1,2.015-.576s.97,1.036,1.382,1.036,1.381-1.036,1.381-1.036a7.371,7.371,0,0,1,2.016.576c.61.407.763,2.18.763,2.18H8.034Zm19.6-.914H18.959v-.964h8.676Zm0-1.928H18.959v-.964h8.676Zm0-1.928H18.959v-.964h8.676Zm0-1.928H18.959v-.964h8.676Z" transform="translate(356.425 483.666)" fill="#fff"/>
    <path id="Icon_awesome-star" data-name="Icon awesome-star" d="M8.192.5,6.346,4.246l-4.13.6a.905.905,0,0,0-.5,1.544L4.7,9.3,4,13.416a.9.9,0,0,0,1.312.953L9,12.427,12.7,14.369a.9.9,0,0,0,1.312-.953L13.3,9.3l2.988-2.912a.905.905,0,0,0-.5-1.544l-4.13-.6L9.815.5A.905.905,0,0,0,8.192.5Z" transform="translate(374.936 503.385)" fill="#fff" stroke="#2d323e" stroke-width="2"/>
  </g>
</svg>
