<svg width="16" height="16" viewBox="0 0 16 16" fill="none" xmlns="http://www.w3.org/2000/svg">
<mask id="mask0_3631_7887" style="mask-type:alpha" maskUnits="userSpaceOnUse" x="1" y="1" width="14" height="14">
<path fill-rule="evenodd" clip-rule="evenodd" d="M1.3335 1.33325H14.318V14.3179H1.3335V1.33325Z" fill="white"/>
</mask>
<g mask="url(#mask0_3631_7887)">
<path fill-rule="evenodd" clip-rule="evenodd" d="M7.82616 2.33325C4.7975 2.33325 2.3335 4.79659 2.3335 7.82525C2.3335 10.8539 4.7975 13.3179 7.82616 13.3179C10.8542 13.3179 13.3182 10.8539 13.3182 7.82525C13.3182 4.79659 10.8542 2.33325 7.82616 2.33325ZM7.82616 14.3179C4.24616 14.3179 1.3335 11.4053 1.3335 7.82525C1.3335 4.24525 4.24616 1.33325 7.82616 1.33325C11.4062 1.33325 14.3182 4.24525 14.3182 7.82525C14.3182 11.4053 11.4062 14.3179 7.82616 14.3179Z" fill="#B7B7B7"/>
</g>
<mask id="mask1_3631_7887" style="mask-type:alpha" maskUnits="userSpaceOnUse" x="11" y="11" width="4" height="5">
<path fill-rule="evenodd" clip-rule="evenodd" d="M11.4937 11.8044H14.843V15.1476H11.4937V11.8044Z" fill="white"/>
</mask>
<g mask="url(#mask1_3631_7887)">
<path fill-rule="evenodd" clip-rule="evenodd" d="M14.3432 15.1476C14.2158 15.1476 14.0878 15.0989 13.9898 15.0016L11.6405 12.6589C11.4452 12.4636 11.4445 12.1469 11.6398 11.9516C11.8345 11.7549 12.1512 11.7563 12.3472 11.9503L14.6965 14.2936C14.8918 14.4889 14.8925 14.8049 14.6972 15.0003C14.5998 15.0989 14.4712 15.1476 14.3432 15.1476Z" fill="#B7B7B7"/>
</g>
</svg>
