<svg width="20" height="20" viewBox="0 0 20 20" fill="none" xmlns="http://www.w3.org/2000/svg">
<circle cx="10" cy="10" r="10" fill="#FBECED"/>
<path fill-rule="evenodd" clip-rule="evenodd" d="M9.62342 15.0001C8.94592 15.0001 8.28542 14.9926 7.63192 14.9791C6.79592 14.9626 6.21742 14.4206 6.12292 13.5646C5.96542 12.1446 5.69592 8.79757 5.69342 8.76407C5.67642 8.55757 5.83042 8.37657 6.03692 8.36007C6.24042 8.35457 6.42442 8.49757 6.44092 8.70357C6.44342 8.73757 6.71242 12.0731 6.86842 13.4821C6.92192 13.9686 7.18442 14.2196 7.64742 14.2291C8.89742 14.2556 10.1729 14.2571 11.5479 14.2321C12.0399 14.2226 12.3059 13.9766 12.3609 13.4786C12.5159 12.0816 12.7859 8.73757 12.7889 8.70357C12.8054 8.49757 12.9879 8.35357 13.1924 8.36007C13.3989 8.37707 13.5529 8.55757 13.5364 8.76407C13.5334 8.79807 13.2624 12.1536 13.1064 13.5611C13.0094 14.4346 12.4324 14.9661 11.5614 14.9821C10.8949 14.9936 10.2519 15.0001 9.62342 15.0001Z" fill="#FF4B5B"/>
<path fill-rule="evenodd" clip-rule="evenodd" d="M13.854 7.49463H5.375C5.168 7.49463 5 7.32663 5 7.11963C5 6.91263 5.168 6.74463 5.375 6.74463H13.854C14.061 6.74463 14.229 6.91263 14.229 7.11963C14.229 7.32663 14.061 7.49463 13.854 7.49463Z" fill="#FF4B5B"/>
<path fill-rule="evenodd" clip-rule="evenodd" d="M12.2203 7.4945C11.6513 7.4945 11.1573 7.089 11.0453 6.531L10.9238 5.923C10.8983 5.8305 10.7928 5.75 10.6728 5.75H8.55629C8.43629 5.75 8.33079 5.8305 8.30029 5.946L8.18379 6.531C8.07229 7.089 7.57779 7.4945 7.00879 7.4945C6.80179 7.4945 6.63379 7.3265 6.63379 7.1195C6.63379 6.9125 6.80179 6.7445 7.00879 6.7445C7.22179 6.7445 7.40679 6.5925 7.44879 6.3835L7.57029 5.7755C7.69379 5.3095 8.09729 5 8.55629 5H10.6728C11.1318 5 11.5353 5.3095 11.6538 5.753L11.7808 6.3835C11.8223 6.5925 12.0073 6.7445 12.2203 6.7445C12.4273 6.7445 12.5953 6.9125 12.5953 7.1195C12.5953 7.3265 12.4273 7.4945 12.2203 7.4945Z" fill="#FF4B5B"/>
</svg>
