<svg width="20" height="20" viewBox="0 0 20 20" fill="none" xmlns="http://www.w3.org/2000/svg">
<circle cx="10" cy="10" r="10" fill="#E0FFF4"/>
<path fill-rule="evenodd" clip-rule="evenodd" d="M10.0005 12.2705C9.79349 12.2705 9.62549 12.1025 9.62549 11.8955V5.875C9.62549 5.668 9.79349 5.5 10.0005 5.5C10.2075 5.5 10.3755 5.668 10.3755 5.875V11.8955C10.3755 12.1025 10.2075 12.2705 10.0005 12.2705Z" fill="#04EB9A"/>
<path fill-rule="evenodd" clip-rule="evenodd" d="M10.0004 12.2705C9.90091 12.2705 9.80491 12.231 9.73491 12.16L8.27691 10.6965C8.13091 10.5495 8.13141 10.312 8.27791 10.166C8.42491 10.02 8.66191 10.02 8.80791 10.167L10.0004 11.3645L11.1929 10.167C11.3389 10.02 11.5759 10.02 11.7229 10.166C11.8694 10.312 11.8699 10.5495 11.7239 10.6965L10.2659 12.16C10.1959 12.231 10.0999 12.2705 10.0004 12.2705Z" fill="#04EB9A"/>
<mask id="mask0_1277_2276" style="mask-type:alpha" maskUnits="userSpaceOnUse" x="5" y="7" width="10" height="8">
<path fill-rule="evenodd" clip-rule="evenodd" d="M5 7.86621H14.9999V14.7382H5V7.86621Z" fill="white"/>
</mask>
<g mask="url(#mask0_1277_2276)">
<path fill-rule="evenodd" clip-rule="evenodd" d="M12.7875 14.7382H7.2175C5.995 14.7382 5 13.7437 5 12.5207V10.0782C5 8.85821 5.9925 7.86621 7.213 7.86621H7.6835C7.8905 7.86621 8.0585 8.03421 8.0585 8.24121C8.0585 8.44821 7.8905 8.61621 7.6835 8.61621H7.213C6.406 8.61621 5.75 9.27171 5.75 10.0782V12.5207C5.75 13.3302 6.408 13.9882 7.2175 13.9882H12.7875C13.5935 13.9882 14.25 13.3317 14.25 12.5257V10.0837C14.25 9.27421 13.5915 8.61621 12.783 8.61621H12.317C12.11 8.61621 11.942 8.44821 11.942 8.24121C11.942 8.03421 12.11 7.86621 12.317 7.86621H12.783C14.0055 7.86621 15 8.86121 15 10.0837V12.5257C15 13.7457 14.007 14.7382 12.7875 14.7382Z" fill="#04EB9A"/>
</g>
</svg>
