<svg width="652" height="370" viewBox="0 0 652 370" fill="none" xmlns="http://www.w3.org/2000/svg">
<path d="M59.7202 61.359L50.1397 61.3764C50.3537 61.0741 50.5736 60.7614 50.7512 60.4516L51.9584 58.3448C54.1066 54.596 52.3765 51.5654 48.1039 51.5723C46.377 51.573 44.4917 52.0873 42.7183 52.9284C44.8968 47.9167 42.2425 44.0318 36.3322 44.0499C29.9304 44.0713 22.1298 48.6217 18.9165 54.2294L17.1115 57.3793C16.2771 58.8354 15.8439 60.2083 15.7567 61.4519L7.79185 61.4728C5.42006 61.4839 2.52238 63.1719 1.3329 65.2477C0.143415 67.3235 1.09578 69.0066 3.47776 69.0014L55.412 68.8773C57.7838 68.8662 60.6756 67.1885 61.871 65.1024C63.0443 63.031 62.092 61.3479 59.7202 61.359Z" fill="#D5F2FF"/>
<path d="M643.764 42.7013L629.384 42.7384C629.723 42.2809 630.032 41.8217 630.307 41.3423L632.116 38.1856C635.338 32.562 632.743 28.0126 626.327 28.0371C623.726 28.0364 620.899 28.8078 618.25 30.073C621.518 22.543 617.543 16.723 608.663 16.7487C599.06 16.7745 587.369 23.6138 582.552 32.0201L579.846 36.7434C578.6 38.9181 577.94 40.9819 577.818 42.8597L565.878 42.8821C562.309 42.8793 557.973 45.4234 556.184 48.545C554.396 51.6667 555.831 54.185 559.388 54.1811L637.293 53.9953C640.85 53.9914 645.186 51.4473 646.975 48.3256C648.775 45.2107 647.329 42.6857 643.764 42.7013Z" fill="#ECF9FF"/>
<ellipse cx="240.631" cy="73.8376" rx="59.908" ry="59.9367" fill="url(#paint0_linear_2375_5178)"/>
<g clip-path="url(#clip0_2375_5178)">
<path d="M426.118 153.18L390.787 169.931L455.184 184.872L430.713 154.232C429.608 152.849 427.711 152.414 426.118 153.18Z" fill="#E0E0E0"/>
<path d="M445.915 222.366L382.798 207.72C382.38 207.624 382.128 207.207 382.223 206.798L390.717 170.244C390.76 170.07 390.934 169.965 391.1 170L455.096 184.846C455.27 184.89 455.375 185.064 455.34 185.229L446.846 221.783C446.742 222.2 446.333 222.461 445.915 222.366Z" fill="#E0E0E0"/>
<path d="M451.006 184.828L420.783 194.987L394.197 172.913L398.888 155.241C399.366 153.327 401.29 152.153 403.204 152.597L452.154 163.955C454.095 164.408 455.305 166.347 454.852 168.286L451.006 184.828Z" fill="white"/>
<path d="M418.869 191.995L382.693 204.606C382.328 206.189 383.311 207.78 384.904 208.146L443.844 221.818C445.428 222.183 447.021 221.2 447.386 219.609L447.438 219.391L422.141 192.787C421.297 191.899 420.017 191.595 418.869 191.995Z" fill="#E0E0E0"/>
<path d="M422.844 165.568L403.693 161.134L403.238 163.091L422.389 167.525L422.844 165.568Z" fill="#E0E0E0"/>
<path d="M445.04 175.929L402.543 166.085L402.029 168.296L444.526 178.14L445.04 175.929Z" fill="#F5F5F5"/>
<path d="M443.786 181.33L401.289 171.486L400.775 173.697L443.272 183.541L443.786 181.33Z" fill="#F5F5F5"/>
<path d="M441.346 188.09L439.562 188.673L403.682 180.802L400.045 177.723L400.115 177.193L442.468 187.02L442.303 187.751L441.346 188.09Z" fill="#F5F5F5"/>
<path d="M429.043 192.204L412.969 188.482L409.123 185.264L433.141 190.83L429.043 192.204Z" fill="#F5F5F5"/>
<path d="M417.545 192.456C417.554 192.482 417.076 192.682 416.197 193.013C415.239 193.361 413.977 193.813 412.455 194.361C409.287 195.483 404.91 197.005 400.063 198.649C395.215 200.301 390.812 201.771 387.627 202.815C386.087 203.31 384.807 203.719 383.842 204.023C382.945 204.302 382.44 204.441 382.432 204.406C382.423 204.38 382.902 204.18 383.781 203.85C384.738 203.502 386 203.049 387.523 202.501C390.69 201.38 395.067 199.858 399.915 198.214C404.762 196.561 409.156 195.091 412.35 194.048C413.89 193.552 415.17 193.143 416.136 192.83C417.041 192.569 417.537 192.43 417.545 192.456Z" fill="#EBEBEB"/>
<path d="M447.439 219.391C447.352 219.478 441.886 213.886 435.229 206.911C428.581 199.927 423.264 194.204 423.351 194.117C423.438 194.03 428.903 199.614 435.56 206.598C442.217 213.573 447.534 219.304 447.439 219.391Z" fill="#EBEBEB"/>
<path d="M452.451 184.333C452.46 184.359 452.068 184.533 451.354 184.829C450.641 185.116 449.596 185.524 448.309 186.012C445.724 186.986 442.147 188.281 438.162 189.647C434.176 191.012 430.547 192.178 427.91 192.987C426.588 193.387 425.517 193.709 424.778 193.917C424.038 194.126 423.62 194.222 423.611 194.196C423.603 194.169 424.003 194.004 424.725 193.752C425.535 193.474 426.57 193.117 427.815 192.691C430.512 191.778 434.072 190.569 438.014 189.229C441.947 187.873 445.506 186.646 448.195 185.716C449.44 185.298 450.475 184.942 451.285 184.672C452.033 184.42 452.442 184.298 452.451 184.333Z" fill="#EBEBEB"/>
<path d="M417.546 192.456C417.529 192.482 417.137 192.178 416.458 191.613C415.719 190.995 414.744 190.186 413.578 189.212C411.072 187.16 407.721 184.411 404.023 181.367C400.281 178.315 396.922 175.505 394.537 173.418C393.345 172.374 392.397 171.513 391.753 170.905C391.109 170.296 390.761 169.948 390.778 169.931C390.795 169.904 391.187 170.209 391.866 170.774C392.605 171.392 393.58 172.2 394.746 173.175C397.252 175.227 400.603 177.975 404.31 181.019C408.052 184.072 411.411 186.881 413.787 188.969C414.979 190.012 415.928 190.873 416.571 191.482C417.224 192.082 417.572 192.43 417.546 192.456Z" fill="#EBEBEB"/>
<path d="M451.006 184.829C450.997 184.829 451.006 184.742 451.041 184.577C451.076 184.385 451.128 184.15 451.189 183.855C451.328 183.194 451.528 182.272 451.789 181.098C452.338 178.68 453.112 175.227 454.069 170.983C454.191 170.452 454.313 169.904 454.444 169.348C454.557 168.791 454.739 168.217 454.774 167.661C454.844 166.53 454.287 165.312 453.26 164.643C452.755 164.286 452.155 164.147 451.493 164.008C450.841 163.86 450.188 163.712 449.518 163.556C448.178 163.251 446.803 162.929 445.393 162.608C439.745 161.303 433.549 159.868 427.04 158.363C420.531 156.85 414.335 155.406 408.687 154.084C407.277 153.754 405.902 153.432 404.571 153.119C403.909 152.98 403.231 152.762 402.622 152.71C401.995 152.658 401.368 152.806 400.829 153.084C400.281 153.362 399.837 153.789 399.515 154.284C399.184 154.78 399.071 155.354 398.906 155.937C398.592 157.094 398.296 158.198 398.009 159.25C396.861 163.451 395.929 166.86 395.277 169.252C394.955 170.409 394.694 171.313 394.511 171.966C394.424 172.253 394.354 172.488 394.302 172.67C394.25 172.827 394.224 172.905 394.215 172.905C394.206 172.905 394.224 172.818 394.259 172.661C394.302 172.479 394.354 172.244 394.424 171.948C394.589 171.287 394.816 170.374 395.103 169.217C395.721 166.817 396.608 163.39 397.696 159.181C397.974 158.12 398.262 157.015 398.566 155.859C398.714 155.293 398.845 154.65 399.21 154.102C399.558 153.545 400.054 153.075 400.655 152.762C401.255 152.449 401.951 152.284 402.648 152.336C403.361 152.397 403.988 152.606 404.667 152.745C406.007 153.049 407.382 153.371 408.791 153.693C414.439 154.998 420.635 156.433 427.153 157.937C433.663 159.45 439.859 160.894 445.498 162.216C446.907 162.547 448.282 162.868 449.614 163.182C450.284 163.338 450.936 163.495 451.589 163.642C452.224 163.782 452.929 163.947 453.478 164.347C454.609 165.104 455.227 166.452 455.131 167.695C455.079 168.33 454.896 168.878 454.783 169.443C454.652 170 454.522 170.548 454.391 171.079C453.373 175.314 452.555 178.749 451.972 181.159C451.685 182.324 451.459 183.237 451.293 183.898C451.215 184.185 451.154 184.42 451.102 184.611C451.041 184.751 451.015 184.829 451.006 184.829Z" fill="#E0E0E0"/>
<path d="M367.637 81.2019L427.9 70L436.898 110.703L374.32 121.27L367.637 81.2019Z" fill="#EBEBEB"/>
<path d="M427.899 70C427.908 70.0087 427.873 70.0608 427.795 70.1739C427.699 70.3044 427.594 70.4609 427.455 70.6435C427.125 71.0871 426.681 71.6785 426.115 72.4352C424.905 74.0093 423.2 76.2445 421.103 78.9928C416.804 84.5329 410.904 92.1603 404.333 100.64L404.22 100.788L404.055 100.701C403.689 100.51 403.289 100.292 402.889 100.083C393.151 94.9086 384.344 90.2296 377.922 86.8203C374.763 85.1156 372.196 83.7328 370.377 82.75C369.516 82.2717 368.837 81.8977 368.341 81.6281C368.132 81.5063 367.958 81.4106 367.819 81.3237C367.705 81.2541 367.645 81.2106 367.645 81.2106C367.645 81.2019 367.714 81.228 367.836 81.2889C367.984 81.3585 368.167 81.4454 368.384 81.5498C368.898 81.8107 369.585 82.1586 370.464 82.6021C372.3 83.5501 374.885 84.8895 378.07 86.542C384.51 89.9252 393.342 94.5607 403.098 99.6921C403.498 99.9008 403.898 100.11 404.264 100.31L403.977 100.37C410.582 91.9255 416.525 84.3329 420.85 78.8102C423 76.0967 424.74 73.8963 425.976 72.3395C426.568 71.6089 427.038 71.0262 427.386 70.6001C427.534 70.4174 427.655 70.2783 427.76 70.1565C427.847 70.0434 427.89 69.9913 427.899 70Z" fill="#E0E0E0"/>
<path d="M374.32 121.27C374.216 121.2 378.089 115.06 382.979 107.554C387.87 100.049 391.908 94.0128 392.012 94.0824C392.117 94.152 388.244 100.292 383.353 107.798C378.471 115.303 374.425 121.331 374.32 121.27Z" fill="#E0E0E0"/>
<path d="M436.899 110.703C436.82 110.798 431.181 106.485 424.307 101.075C417.432 95.6567 411.923 91.1863 411.993 91.0907C412.071 90.995 417.71 95.3001 424.585 100.727C431.469 106.128 436.977 110.607 436.899 110.703Z" fill="#E0E0E0"/>
<path d="M464.287 109.346L504.256 119.026L498.582 146.405L457.377 135.707L464.287 109.346Z" fill="#F5F5F5"/>
<path d="M504.255 119.026C504.263 119.043 504.107 119.139 503.811 119.313C503.472 119.504 503.036 119.748 502.506 120.052C501.313 120.705 499.66 121.609 497.65 122.714C493.473 124.949 487.781 127.993 481.455 131.385L481.289 131.472L481.176 131.324C481.002 131.106 480.82 130.863 480.628 130.628C476.103 124.792 472.013 119.522 469.011 115.643C467.566 113.747 466.382 112.199 465.53 111.068C465.147 110.555 464.842 110.138 464.599 109.807C464.39 109.52 464.285 109.363 464.303 109.346C464.311 109.337 464.442 109.477 464.677 109.746C464.938 110.059 465.269 110.459 465.669 110.955C466.557 112.06 467.775 113.582 469.263 115.443C472.291 119.296 476.425 124.549 480.985 130.341C481.168 130.576 481.359 130.819 481.533 131.037L481.246 130.976C487.599 127.636 493.316 124.627 497.511 122.427C499.556 121.374 501.226 120.522 502.436 119.896C502.984 119.626 503.437 119.4 503.785 119.226C504.081 119.078 504.246 119.009 504.255 119.026Z" fill="#E0E0E0"/>
<path d="M457.376 135.707C457.306 135.603 461.353 132.881 466.4 129.619C471.456 126.366 475.607 123.809 475.668 123.914C475.738 124.018 471.691 126.74 466.644 130.002C461.596 133.254 457.446 135.811 457.376 135.707Z" fill="#E0E0E0"/>
<path d="M498.581 146.405C498.468 146.466 496.171 142.291 493.456 137.09C490.732 131.889 488.618 127.619 488.731 127.567C488.844 127.506 491.133 131.68 493.856 136.881C496.58 142.082 498.694 146.352 498.581 146.405Z" fill="#E0E0E0"/>
<path d="M422.714 353.415C422.714 353.415 423.045 353.528 423.68 353.754C424.307 353.997 425.264 354.319 426.534 354.676C429.067 355.371 432.939 356.172 437.943 355.832C440.441 355.667 443.199 355.25 446.149 354.502C449.099 353.754 452.267 352.754 455.487 351.249C461.935 348.283 468.662 343.474 474.527 336.707C475.963 335.011 477.295 333.107 478.008 330.898C478.713 328.723 478.774 326.175 477.678 324.036C477.138 322.974 476.277 322.07 475.25 321.426C474.223 320.765 473.013 320.4 471.777 320.218C469.28 319.852 466.704 320.391 464.302 321.435C463.084 321.931 461.848 322.461 460.517 322.774C459.194 323.096 457.749 323.131 456.409 322.67C455.087 322.253 453.833 321.226 453.45 319.791C453.041 318.374 453.477 316.852 454.268 315.651C455.052 314.417 456.287 313.538 457.584 312.929C458.889 312.303 460.282 311.903 461.657 311.459C464.398 310.581 467.104 309.468 469.732 308.128C472.361 306.789 474.919 305.224 477.356 303.432C478.583 302.545 479.757 301.588 480.723 300.423C481.672 299.275 482.455 297.883 482.438 296.396C482.42 295.665 482.211 294.926 481.802 294.309C481.402 293.682 480.819 293.187 480.175 292.787C478.861 292.004 477.321 291.682 475.754 291.552C474.188 291.404 472.569 291.36 470.994 290.908C469.419 290.482 467.905 289.403 467.305 287.777C467.017 286.96 467.122 285.985 467.618 285.264C468.105 284.533 468.819 284.046 469.489 283.602C470.846 282.715 472.186 281.785 473.483 280.793C476.085 278.81 478.548 276.61 480.845 274.218C483.108 271.809 485.405 269.304 486.824 266.278C487.511 264.773 487.964 263.121 487.842 261.468C487.764 259.807 487.059 258.224 485.953 256.98C483.717 254.493 480.14 253.336 476.894 254.006C473.614 254.597 470.716 256.528 468.445 258.894C463.858 263.721 461.596 270.087 457.836 275.366C456.897 276.688 455.87 277.949 454.712 279.08C454.129 279.637 453.538 280.211 452.798 280.602C452.084 281.002 451.092 281.176 450.309 280.689C449.543 280.219 449.16 279.376 449.004 278.584C448.838 277.767 448.934 276.949 448.986 276.175C449.047 275.401 449.099 274.627 448.899 273.914C448.716 273.201 448.334 272.54 447.803 272.018C446.75 270.965 445.244 270.4 443.765 270.426C442.285 270.461 440.876 271.165 439.779 272.14C438.674 273.122 437.83 274.383 437.256 275.732C436.681 277.088 436.368 278.541 436.185 280.002C436.002 281.463 435.942 282.924 435.898 284.385C435.846 285.846 435.802 287.299 435.75 288.742C435.654 291.63 435.559 294.474 435.472 297.283C435.419 298.692 435.393 300.075 435.324 301.466C435.228 302.849 435.054 304.249 434.54 305.554C434.053 306.85 433.052 308.041 431.695 308.485C430.346 308.955 428.91 308.694 427.666 308.224C425.177 307.207 423.088 305.502 421.452 303.528C420.634 302.536 419.947 301.458 419.381 300.327C418.815 299.205 418.328 298.075 417.667 297.066C417.014 296.065 416.135 295.204 415.03 294.848C413.933 294.465 412.724 294.648 411.68 295.083C410.635 295.544 409.704 296.257 409.034 297.144C408.338 298.022 407.929 299.083 407.677 300.153C407.198 302.319 407.285 304.528 407.102 306.65C406.954 308.772 406.885 310.842 406.859 312.86C406.815 316.886 407.076 320.696 407.546 324.21C408.025 327.732 408.712 330.976 409.652 333.872C410.052 335.342 410.653 336.673 411.123 337.977C411.392 338.612 411.697 339.221 411.967 339.821C412.254 340.412 412.498 341.012 412.82 341.543C415.204 345.944 417.78 348.918 419.694 350.727C420.138 351.214 420.599 351.571 420.982 351.901C421.365 352.223 421.679 352.493 421.94 352.719C422.462 353.18 422.714 353.415 422.714 353.415C422.714 353.415 422.436 353.206 421.913 352.78C421.652 352.562 421.322 352.293 420.939 351.98C420.556 351.658 420.086 351.31 419.633 350.823C417.702 349.031 415.082 346.065 412.672 341.656C412.341 341.117 412.089 340.525 411.801 339.925C411.523 339.325 411.218 338.716 410.94 338.073C410.461 336.768 409.852 335.429 409.443 333.95C408.486 331.045 407.781 327.793 407.294 324.262C406.806 320.731 406.537 316.913 406.571 312.877C406.597 310.859 406.658 308.781 406.798 306.65C406.972 304.537 406.867 302.327 407.363 300.101C407.624 298.996 408.051 297.892 408.773 296.961C409.487 296.022 410.453 295.274 411.549 294.787C412.646 294.326 413.942 294.126 415.143 294.535C416.344 294.917 417.293 295.848 417.971 296.883C418.659 297.927 419.146 299.066 419.712 300.179C420.269 301.284 420.939 302.336 421.748 303.31C423.341 305.241 425.412 306.911 427.814 307.885C429.006 308.337 430.363 308.563 431.582 308.137C432.809 307.728 433.722 306.659 434.192 305.424C435.15 302.919 434.941 300.075 435.089 297.283C435.176 294.474 435.271 291.63 435.358 288.742C435.402 287.299 435.454 285.846 435.498 284.385C435.55 282.924 435.602 281.446 435.785 279.958C435.968 278.48 436.29 276.993 436.881 275.575C437.473 274.175 438.352 272.861 439.518 271.826C440.676 270.8 442.164 270.044 443.782 270C445.375 269.974 446.985 270.574 448.133 271.713C448.708 272.279 449.143 273.009 449.343 273.809C449.561 274.61 449.5 275.427 449.447 276.21C449.395 276.993 449.308 277.767 449.456 278.497C449.595 279.228 449.952 279.95 450.553 280.315C451.162 280.698 451.954 280.576 452.606 280.211C453.276 279.863 453.851 279.315 454.425 278.767C455.556 277.654 456.566 276.427 457.488 275.114C459.342 272.496 460.847 269.609 462.457 266.747C464.067 263.895 465.808 261.025 468.14 258.581C470.455 256.172 473.422 254.18 476.833 253.562C480.219 252.875 483.961 254.067 486.319 256.685C487.485 257.989 488.242 259.694 488.32 261.442C488.442 263.19 487.972 264.921 487.259 266.469C485.797 269.591 483.465 272.105 481.193 274.531C478.879 276.94 476.398 279.158 473.779 281.15C472.474 282.15 471.125 283.089 469.759 283.976C469.088 284.42 468.427 284.881 468.009 285.516C467.583 286.142 467.505 286.933 467.748 287.638C468.279 289.064 469.663 290.099 471.142 290.491C472.648 290.925 474.24 290.969 475.824 291.125C477.399 291.256 479.035 291.595 480.428 292.43C481.115 292.848 481.75 293.395 482.194 294.091C482.647 294.778 482.873 295.596 482.89 296.405C482.908 298.057 482.055 299.527 481.071 300.718C480.079 301.927 478.852 302.901 477.634 303.797C475.18 305.606 472.604 307.18 469.95 308.529C467.296 309.877 464.572 310.99 461.805 311.868C460.43 312.312 459.055 312.703 457.784 313.312C456.522 313.912 455.365 314.738 454.625 315.895C453.877 317.017 453.485 318.435 453.851 319.704C454.19 320.992 455.313 321.931 456.557 322.322C457.81 322.748 459.177 322.731 460.447 322.418C461.735 322.113 462.953 321.592 464.172 321.105C466.591 320.052 469.271 319.487 471.838 319.878C473.109 320.07 474.371 320.444 475.45 321.139C476.529 321.818 477.434 322.774 478 323.896C479.148 326.158 479.061 328.784 478.339 331.028C477.591 333.298 476.233 335.229 474.78 336.942C468.871 343.735 462.101 348.544 455.609 351.51C452.363 353.014 449.178 354.006 446.219 354.745C443.251 355.476 440.475 355.893 437.969 356.041C432.939 356.354 429.049 355.519 426.526 354.789C425.255 354.415 424.307 354.076 423.68 353.823C423.036 353.554 422.714 353.415 422.714 353.415Z" fill="#263238"/>
<path d="M427.578 342.804C430.45 334.22 434.375 325.07 438.813 315.634C439.927 313.277 441.032 310.955 442.12 308.668C443.207 306.38 444.295 304.119 445.487 301.962C447.863 297.648 450.474 293.682 453.067 289.995C455.66 286.307 458.262 282.898 460.716 279.732C463.179 276.566 465.529 273.662 467.783 271.105C472.273 265.973 476.38 262.268 479.304 259.842C480.766 258.624 481.924 257.711 482.724 257.111C483.107 256.824 483.412 256.598 483.638 256.432C483.847 256.285 483.951 256.206 483.96 256.215C483.969 256.224 483.864 256.311 483.673 256.476C483.455 256.659 483.168 256.893 482.794 257.198C482.02 257.833 480.88 258.763 479.444 260.007C476.563 262.477 472.517 266.217 468.07 271.365C465.842 273.931 463.51 276.845 461.073 280.01C458.637 283.185 456.061 286.603 453.476 290.29C450.9 293.978 448.307 297.935 445.949 302.223C444.765 304.363 443.695 306.615 442.598 308.902C441.51 311.19 440.405 313.521 439.291 315.869C434.862 325.288 430.928 334.411 428.039 342.969" fill="#263238"/>
<path d="M445.644 301.945C445.609 301.945 445.531 301.51 445.409 300.718C445.287 299.927 445.157 298.77 445.009 297.335C444.713 294.474 444.443 290.508 444.165 286.142C443.886 281.767 443.556 277.819 443.216 274.975C443.051 273.548 442.912 272.4 442.799 271.6C442.694 270.8 442.651 270.357 442.686 270.357C442.72 270.348 442.834 270.783 442.999 271.565C443.173 272.348 443.373 273.496 443.582 274.923C444.017 277.767 444.4 281.724 444.687 286.107C444.957 290.421 445.2 294.326 445.383 297.309C445.479 298.657 445.557 299.788 445.618 300.701C445.67 301.501 445.679 301.945 445.644 301.945Z" fill="#263238"/>
<path d="M482.664 296.509C482.664 296.544 482.142 296.587 481.193 296.631C480.245 296.674 478.879 296.735 477.19 296.866C473.814 297.1 469.149 297.587 464.033 298.344C459.499 299.022 455.087 299.831 451.005 300.744C449.343 301.101 448.012 301.432 447.089 301.649C446.167 301.875 445.653 301.979 445.645 301.945C445.636 301.91 446.132 301.736 447.037 301.449C447.942 301.171 449.265 300.788 450.918 300.379C454.216 299.544 458.82 298.588 463.954 297.814C469.089 297.048 473.77 296.622 477.164 296.492C478.861 296.413 480.236 296.405 481.185 296.422C482.142 296.439 482.664 296.465 482.664 296.509Z" fill="#263238"/>
<path d="M428.056 342.143C428.038 342.152 427.96 341.995 427.821 341.682C427.664 341.317 427.473 340.873 427.246 340.325C426.75 339.151 426.08 337.429 425.271 335.29C423.661 331.011 421.625 325.036 419.467 318.408C417.309 311.781 415.325 305.789 413.811 301.492C413.063 299.396 412.453 297.683 412.001 296.396C411.809 295.839 411.644 295.387 411.514 295.004C411.409 294.683 411.357 294.517 411.374 294.509C411.392 294.5 411.47 294.656 411.609 294.97C411.766 295.335 411.957 295.778 412.184 296.318C412.68 297.492 413.35 299.214 414.159 301.353C415.769 305.632 417.805 311.607 419.963 318.235C422.121 324.862 424.967 331.811 426.489 336.116C427.238 338.203 426.985 338.969 427.438 340.247C427.629 340.804 427.795 341.265 427.925 341.639C428.021 341.969 428.073 342.134 428.056 342.143Z" fill="#263238"/>
<path d="M477.503 328.306C477.503 328.323 477.338 328.384 477.007 328.488C476.624 328.602 476.145 328.741 475.571 328.906C474.248 329.28 472.456 329.784 470.28 330.393C465.807 331.654 459.655 333.463 452.858 335.472C446.497 337.36 440.579 339.064 435.384 340.412C433.139 340.995 431.311 341.456 430.041 341.743C429.458 341.873 428.97 341.978 428.579 342.065C428.239 342.134 428.065 342.16 428.057 342.143C428.057 342.126 428.222 342.065 428.553 341.96C428.936 341.847 429.414 341.708 429.989 341.543C431.311 341.169 433.104 340.665 435.28 340.056C439.752 338.795 445.905 336.986 452.71 334.968C459.507 332.959 465.685 331.202 470.184 330.028C472.43 329.445 474.257 328.984 475.528 328.697C476.111 328.567 476.598 328.462 476.989 328.375C477.32 328.315 477.494 328.288 477.503 328.306Z" fill="#263238"/>
<path d="M333.934 141.856C333.934 141.856 333.429 139.438 332.585 132.446L324.892 117.373C324.892 117.373 326.606 114.225 330.566 120.896C332.367 123.94 338.424 122.661 337.423 117.887C336.414 113.112 330.218 110.964 326.406 115.66C326.406 115.66 323.943 115.904 323.656 113.99C323.369 112.068 328.93 107.32 333.664 108.702C336.736 109.598 338.903 111.651 338.903 111.651C338.903 111.651 337.876 95.8132 339.155 95.674C340.434 95.5349 342.236 96.5003 343.21 113.877C343.21 113.877 343.741 100.162 344.011 98.4136C344.272 96.7177 346.648 95.474 346.935 99.8748C346.97 100.362 347.831 113.834 347.831 113.834C347.831 113.834 349.371 104.928 349.537 104.215C349.981 102.336 351.834 102.527 352.008 105.023C352.139 106.911 352.748 114.964 352.748 114.964L353.905 139.803L354.062 139.786" fill="#FFBE9D"/>
<path d="M358.543 133.715L329.652 132.976L326.771 202.84L294.112 188.429L294.06 188.551C292.093 187.673 290.379 186.898 289.465 186.394C271.408 176.549 259.555 175.357 240.184 182.272L203.051 197.126C195.872 200.51 177.162 203.632 170.748 233.193L169.904 236.725L199.57 258.024L219.942 311.677L244.344 365.399L300.43 363.581L329.739 327.088L304.868 279.61L289.413 226.445C300.334 233.689 320.602 243.543 344.872 238.403C371.162 232.802 358.543 133.715 358.543 133.715Z" fill="#1f527d"/>
<g opacity="0.3">
<path d="M219.751 311.164C224.555 314.086 228.636 315.738 234.023 317.356C236.755 318.174 239.879 318.774 242.307 317.278C244.735 315.782 245.109 311.355 242.403 310.468C250.244 308.702 258.093 306.928 265.934 305.163C262.74 295.978 268.005 285.49 275.968 279.906C283.93 274.314 292.981 272.731 302.675 271.887L314.414 308.285L275.176 361.772L243.047 362.703L219.751 311.164Z" fill="black"/>
</g>
<path d="M207.438 260.885C207.438 260.885 192.722 293.047 196.09 309.102C197.97 318.078 227.358 325.74 246.085 328.027L240.472 359.441C240.472 359.441 170.88 352.823 157.844 325.279C150.447 309.65 157.94 271.357 172.028 228.045L207.438 260.885Z" fill="#1f527d"/>
<path d="M274.463 298.57C274.472 298.587 274.298 298.674 273.967 298.84C273.584 299.014 273.097 299.24 272.496 299.527C271.217 300.118 269.346 300.927 267.022 301.892C262.375 303.832 255.866 306.311 248.548 308.659C241.22 311.007 234.485 312.764 229.577 313.894C227.123 314.46 225.13 314.886 223.746 315.147C223.093 315.269 222.563 315.364 222.154 315.443C221.788 315.503 221.597 315.53 221.588 315.512C221.588 315.495 221.771 315.443 222.127 315.347C222.536 315.251 223.059 315.121 223.703 314.964C225.078 314.651 227.053 314.173 229.498 313.573C234.38 312.364 241.09 310.555 248.4 308.215C255.709 305.867 262.219 303.44 266.892 301.579C269.233 300.649 271.113 299.883 272.418 299.344C273.036 299.092 273.532 298.892 273.923 298.735C274.271 298.614 274.454 298.553 274.463 298.57Z" fill="white"/>
<path d="M293.842 187.438C293.885 187.559 266.456 197.492 232.587 209.633C198.7 221.774 171.21 231.524 171.166 231.402C171.123 231.28 198.552 221.348 232.43 209.207C266.299 197.065 293.798 187.316 293.842 187.438Z" fill="white"/>
<path d="M200.284 277.158C200.275 277.158 200.301 277.088 200.345 276.966C200.406 276.818 200.484 276.644 200.571 276.427C200.789 275.914 201.093 275.227 201.467 274.348C202.233 272.539 203.321 269.904 204.426 266.573C205.505 263.242 206.602 259.181 207.098 254.571C207.611 249.979 207.42 244.804 206.019 239.647C204.6 234.507 202.042 229.941 198.761 226.679C195.489 223.409 191.695 221.417 188.362 220.409C185.003 219.417 182.114 219.348 180.173 219.539C179.694 219.6 179.259 219.652 178.876 219.695C178.502 219.748 178.189 219.826 177.937 219.878C177.702 219.922 177.519 219.956 177.353 219.982C177.223 220.009 177.153 220.009 177.153 220.009C177.153 220 177.214 219.982 177.345 219.939C177.501 219.895 177.684 219.843 177.919 219.782C178.171 219.722 178.485 219.626 178.85 219.556C179.233 219.495 179.668 219.426 180.147 219.356C182.105 219.104 185.029 219.13 188.449 220.095C191.843 221.078 195.715 223.061 199.057 226.375C202.407 229.671 205.018 234.307 206.454 239.516C207.872 244.735 208.055 249.97 207.507 254.606C206.985 259.25 205.853 263.329 204.722 266.66C203.573 269.991 202.442 272.618 201.624 274.401C201.206 275.296 200.884 275.983 200.649 276.444C200.545 276.653 200.449 276.827 200.38 276.966C200.327 277.105 200.293 277.166 200.284 277.158Z" fill="#263238"/>
<path d="M270.207 180.193C270.215 180.176 270.39 180.254 270.703 180.41C271.025 180.567 271.486 180.819 272.052 181.202C273.192 181.941 274.732 183.22 276.246 185.133C277.769 187.038 279.222 189.586 280.371 192.595C281.546 195.596 282.442 199.014 283.399 202.571C285.288 209.685 286.985 216.121 288.238 220.852C288.83 223.157 289.308 225.036 289.656 226.41C289.804 227.027 289.926 227.532 290.022 227.923C290.1 228.271 290.135 228.454 290.118 228.462C290.1 228.462 290.039 228.288 289.935 227.949C289.822 227.558 289.674 227.071 289.491 226.453C289.108 225.097 288.577 223.227 287.933 220.939C286.645 216.217 284.896 209.798 282.964 202.693C282.007 199.127 281.128 195.726 279.988 192.752C278.866 189.769 277.473 187.246 276.002 185.342C274.541 183.437 273.052 182.141 271.956 181.358C270.859 180.558 270.181 180.228 270.207 180.193Z" fill="#263238"/>
<path d="M318.33 198.892C318.33 198.892 318.2 198.961 317.947 199.074C317.669 199.196 317.286 199.361 316.799 199.57C315.763 200.005 314.266 200.64 312.352 201.449C308.488 203.075 302.875 205.397 295.931 208.224C282.042 213.886 262.775 221.531 241.359 229.61C219.934 237.681 200.415 244.665 186.247 249.579C179.164 252.04 173.42 253.997 169.443 255.328C167.468 255.98 165.927 256.493 164.857 256.85C164.344 257.015 163.952 257.145 163.665 257.232C163.395 257.319 163.256 257.345 163.256 257.345C163.256 257.345 163.386 257.285 163.656 257.189C163.943 257.085 164.335 256.945 164.84 256.763C165.901 256.389 167.433 255.85 169.391 255.162C173.368 253.762 179.085 251.753 186.152 249.275C200.293 244.282 219.786 237.255 241.211 229.184C262.618 221.104 281.903 213.512 295.818 207.928C302.762 205.128 308.384 202.858 312.291 201.284C314.223 200.51 315.728 199.901 316.773 199.483C317.269 199.283 317.66 199.135 317.939 199.022C318.191 198.935 318.33 198.892 318.33 198.892Z" fill="white"/>
<path d="M292.85 233.585C292.85 233.593 292.737 233.646 292.519 233.741C292.276 233.846 291.945 233.985 291.527 234.167C290.631 234.541 289.343 235.072 287.69 235.759C284.357 237.142 279.518 239.081 273.514 241.438C261.513 246.152 244.822 252.397 226.199 258.763C207.568 265.121 190.546 270.391 178.172 274.018C171.984 275.827 166.963 277.253 163.482 278.201C161.759 278.671 160.41 279.036 159.479 279.288C159.035 279.401 158.687 279.497 158.435 279.558C158.2 279.619 158.078 279.645 158.078 279.636C158.078 279.628 158.191 279.584 158.426 279.515C158.679 279.436 159.018 279.332 159.462 279.201C160.393 278.923 161.733 278.532 163.447 278.036C166.911 277.036 171.915 275.566 178.093 273.713C190.442 270.017 207.446 264.695 226.069 258.337C244.683 251.971 261.383 245.77 273.409 241.143C279.423 238.829 284.287 236.933 287.638 235.603C289.3 234.95 290.596 234.446 291.501 234.089C291.928 233.924 292.267 233.802 292.511 233.707C292.728 233.611 292.85 233.576 292.85 233.585Z" fill="white"/>
<path d="M360.884 203.475C360.893 203.484 360.719 203.64 360.371 203.91C359.988 204.206 359.483 204.597 358.848 205.093C358.187 205.606 357.369 206.223 356.403 206.911C355.437 207.598 354.349 208.406 353.105 209.233C350.642 210.929 347.64 212.851 344.237 214.877C340.826 216.878 337.005 218.965 332.907 220.983C328.799 222.974 324.805 224.705 321.124 226.166C317.434 227.601 314.075 228.793 311.221 229.688C309.802 230.167 308.497 230.523 307.357 230.863C306.217 231.202 305.233 231.471 304.424 231.671C303.65 231.871 303.023 232.028 302.562 232.141C302.135 232.245 301.909 232.289 301.9 232.28C301.9 232.263 302.118 232.185 302.536 232.054C302.997 231.915 303.615 231.732 304.381 231.497C305.181 231.263 306.165 230.976 307.296 230.61C308.427 230.254 309.724 229.871 311.133 229.375C313.97 228.445 317.312 227.227 320.976 225.766C324.631 224.287 328.616 222.557 332.715 220.565C336.805 218.556 340.617 216.486 344.028 214.512C347.431 212.512 350.442 210.624 352.922 208.963C354.175 208.154 355.271 207.371 356.255 206.702C357.238 206.041 358.065 205.441 358.744 204.954C359.396 204.493 359.918 204.119 360.31 203.84C360.684 203.588 360.876 203.458 360.884 203.475Z" fill="white"/>
<path d="M362.242 180.271C362.286 180.384 354.297 183.593 344.403 187.438C334.499 191.282 326.441 194.3 326.398 194.187C326.354 194.074 334.343 190.864 344.237 187.02C354.132 183.176 362.19 180.158 362.242 180.271Z" fill="white"/>
<path d="M360.484 158.633C360.519 158.755 353.505 160.842 344.82 163.303C336.127 165.764 329.06 167.66 329.026 167.539C328.991 167.417 336.005 165.33 344.698 162.868C353.383 160.407 360.449 158.511 360.484 158.633Z" fill="white"/>
<path d="M358.952 137.464C358.978 137.585 352.19 139.177 343.801 141.021C335.403 142.865 328.581 144.265 328.555 144.134C328.529 144.013 335.308 142.421 343.705 140.577C352.094 138.734 358.917 137.342 358.952 137.464Z" fill="white"/>
<path d="M298.333 257.528C298.377 257.641 279.014 265.382 255.092 274.809C231.16 284.228 211.728 291.778 211.685 291.656C211.641 291.543 230.995 283.802 254.926 274.374C278.849 264.955 298.29 257.406 298.333 257.528Z" fill="white"/>
<path d="M195.959 295.813C195.968 295.83 195.829 295.891 195.559 296.004C195.246 296.135 194.854 296.291 194.393 296.483C193.375 296.892 191.895 297.448 190.059 298.127C186.387 299.483 181.279 301.266 175.587 303.075C169.896 304.884 164.692 306.389 160.915 307.406C159.027 307.92 157.495 308.311 156.425 308.572C155.938 308.685 155.528 308.781 155.198 308.859C154.919 308.92 154.763 308.946 154.763 308.928C154.763 308.911 154.902 308.859 155.172 308.772C155.494 308.676 155.894 308.546 156.373 308.407C157.487 308.076 158.992 307.641 160.819 307.102C164.57 306.006 169.748 304.458 175.439 302.649C181.122 300.84 186.239 299.101 189.937 297.822C191.739 297.205 193.218 296.691 194.315 296.309C194.793 296.152 195.185 296.022 195.515 295.909C195.811 295.839 195.959 295.804 195.959 295.813Z" fill="white"/>
<path d="M206.288 317.852C206.332 317.965 196.951 321.887 185.333 326.601C173.707 331.315 164.256 335.046 164.204 334.933C164.161 334.82 173.542 330.897 185.159 326.184C196.786 321.47 206.245 317.739 206.288 317.852Z" fill="white"/>
<path d="M223.372 323.948C223.468 324.027 218.203 330.263 211.624 337.864C205.036 345.465 199.623 351.562 199.528 351.484C199.432 351.405 204.697 345.169 211.276 337.568C217.863 329.967 223.276 323.87 223.372 323.948Z" fill="white"/>
<path d="M240.837 328.384C240.959 328.427 238.844 335.055 236.12 343.187C233.397 351.327 231.091 357.893 230.978 357.85C230.856 357.807 232.97 351.179 235.694 343.039C238.418 334.907 240.715 328.341 240.837 328.384Z" fill="white"/>
<path d="M355.001 230.515C355.045 230.628 350.041 232.698 343.819 235.133C337.597 237.568 332.523 239.447 332.471 239.325C332.427 239.212 337.431 237.142 343.653 234.707C349.876 232.28 354.958 230.402 355.001 230.515Z" fill="white"/>
<g opacity="0.3">
<path d="M280.736 194.187C288.812 216.043 303.336 228.262 323.917 239.212C323.917 239.212 306.277 237.986 289.996 226.784" fill="black"/>
</g>
<path d="M273.418 368.504H428.432V302.319C428.432 289.916 418.372 279.871 405.971 279.871H295.879C283.469 279.871 273.418 289.925 273.418 302.319V368.504Z" fill="#455A64"/>
<path d="M326.075 368.504H274.575C273.931 368.504 273.418 367.982 273.418 367.347V299.953C273.418 288.864 282.416 279.871 293.512 279.871H318.139C323.16 279.871 327.242 283.941 327.242 288.968V367.356C327.242 367.982 326.719 368.504 326.075 368.504Z" fill="#455A64"/>
<path d="M284.853 368.504V302.214C284.853 289.873 294.869 279.863 307.218 279.863H291.266C291.266 279.863 272.548 282.35 272.548 305.763C272.548 329.175 273.148 368.504 273.148 368.504H284.853Z" fill="#263238"/>
<path d="M327.233 362.207H197.178V369.582H327.233V362.207Z" fill="#263238"/>
<path d="M433.497 362.207H327.242V369.582H433.497V362.207Z" fill="#455A64"/>
<path d="M327.242 365.895C327.234 365.895 327.225 365.808 327.225 365.634C327.216 365.434 327.216 365.182 327.207 364.86C327.199 364.147 327.199 363.147 327.19 361.877C327.19 359.25 327.19 355.511 327.199 350.901C327.251 341.612 327.312 328.828 327.39 314.703C327.425 311.172 327.503 307.72 327.294 304.406C327.077 301.101 326.598 297.909 325.624 295.022C324.684 292.126 323.231 289.577 321.473 287.533C319.689 285.507 317.652 283.968 315.642 282.846C311.596 280.611 307.767 280.071 305.208 280.054C304.564 280.028 303.99 280.063 303.494 280.097C302.998 280.115 302.58 280.158 302.241 280.219C301.927 280.263 301.666 280.297 301.475 280.324C301.301 280.341 301.214 280.35 301.205 280.341C301.205 280.332 301.292 280.315 301.466 280.28C301.666 280.245 301.919 280.193 302.232 280.132C302.571 280.063 302.989 280.002 303.485 279.967C303.981 279.915 304.555 279.863 305.208 279.88C307.784 279.845 311.665 280.341 315.79 282.567C317.835 283.681 319.915 285.229 321.751 287.281C323.553 289.351 325.049 291.952 326.015 294.883C327.016 297.805 327.503 301.031 327.73 304.363C327.947 307.702 327.878 311.164 327.843 314.695C327.712 328.81 327.599 341.595 327.521 350.884C327.46 355.493 327.408 359.233 327.373 361.851C327.347 363.121 327.321 364.121 327.312 364.834C327.303 365.156 327.294 365.408 327.286 365.608C327.251 365.808 327.242 365.895 327.242 365.895Z" fill="#263238"/>
<path d="M432.765 362.025C432.765 362.146 408.564 362.294 378.707 362.337C348.841 362.389 324.648 362.329 324.648 362.198C324.648 362.077 348.849 361.929 378.707 361.877C408.556 361.842 432.765 361.894 432.765 362.025Z" fill="#263238"/>
<path d="M432.765 369.878C432.765 369.999 408.738 370.043 379.099 369.956C349.45 369.878 325.432 369.713 325.432 369.582C325.432 369.461 349.459 369.417 379.099 369.504C408.73 369.582 432.765 369.747 432.765 369.878Z" fill="#263238"/>
<path d="M418.772 353.788C418.763 353.78 418.763 353.675 418.754 353.475C418.754 353.249 418.746 352.953 418.737 352.571C418.728 351.753 418.72 350.588 418.702 349.066C418.685 346.004 418.659 341.56 418.624 335.951L418.763 336.09C403.021 336.107 377.706 336.142 349.197 336.177C349.293 336.072 348.971 336.403 349.423 335.951V335.959V335.968V335.985V336.02V336.09V336.229V336.516V337.09V338.229C349.423 338.986 349.423 339.751 349.423 340.499C349.423 342.012 349.423 343.508 349.423 344.996C349.423 347.97 349.423 350.91 349.423 353.788L349.206 353.571C369.03 353.614 386.391 353.649 398.809 353.675C405.022 353.701 409.991 353.728 413.437 353.736C415.143 353.745 416.466 353.762 417.388 353.762C417.823 353.771 418.171 353.771 418.415 353.78C418.65 353.78 418.772 353.788 418.772 353.788C418.78 353.797 418.667 353.797 418.441 353.806C418.197 353.806 417.867 353.815 417.44 353.823C416.535 353.832 415.221 353.841 413.542 353.849C410.113 353.867 405.153 353.884 398.965 353.91C386.504 353.936 369.091 353.971 349.206 354.015H348.988V353.788C348.988 350.91 348.988 347.979 348.988 344.996C348.988 343.508 348.988 342.004 348.988 340.499C348.988 339.742 348.988 338.986 348.988 338.229V337.09V336.516V336.229V336.09V336.02V335.985V335.968V335.959V335.951C349.441 335.498 349.119 335.829 349.223 335.724C377.732 335.759 403.047 335.794 418.789 335.811H418.928V335.951C418.894 341.604 418.868 346.074 418.85 349.153C418.833 350.657 418.824 351.823 418.815 352.623C418.807 352.997 418.807 353.293 418.798 353.51C418.78 353.693 418.78 353.788 418.772 353.788Z" fill="#263238"/>
<path d="M362.558 340.028H365.382C366.023 340.028 366.564 340.125 367.005 340.321C367.451 340.516 367.789 340.805 368.019 341.188C368.253 341.567 368.371 342.034 368.371 342.588C368.371 342.979 368.29 343.336 368.13 343.661C367.974 343.981 367.748 344.254 367.451 344.481C367.158 344.703 366.806 344.87 366.396 344.979L366.08 345.102H363.425L363.414 344.182H365.417C365.824 344.182 366.162 344.112 366.431 343.971C366.701 343.827 366.904 343.633 367.04 343.391C367.177 343.149 367.246 342.881 367.246 342.588C367.246 342.26 367.181 341.973 367.052 341.727C366.923 341.481 366.72 341.291 366.443 341.159C366.169 341.022 365.816 340.953 365.382 340.953H363.689V348.559H362.558V340.028ZM367.544 348.559L365.47 344.692L366.648 344.686L368.751 348.489V348.559H367.544ZM372.419 348.676C371.978 348.676 371.578 348.602 371.218 348.453C370.863 348.301 370.556 348.088 370.298 347.815C370.044 347.541 369.849 347.217 369.712 346.842C369.576 346.467 369.507 346.057 369.507 345.612V345.366C369.507 344.85 369.583 344.391 369.736 343.989C369.888 343.582 370.095 343.239 370.357 342.957C370.619 342.676 370.915 342.463 371.248 342.319C371.58 342.174 371.923 342.102 372.279 342.102C372.732 342.102 373.123 342.18 373.451 342.336C373.783 342.493 374.054 342.711 374.265 342.993C374.476 343.27 374.632 343.598 374.734 343.977C374.835 344.352 374.886 344.762 374.886 345.207V345.694H370.152V344.809H373.802V344.727C373.787 344.446 373.728 344.172 373.626 343.907C373.529 343.641 373.373 343.422 373.158 343.25C372.943 343.078 372.65 342.993 372.279 342.993C372.033 342.993 371.806 343.045 371.599 343.151C371.392 343.252 371.214 343.405 371.066 343.608C370.917 343.811 370.802 344.059 370.72 344.352C370.638 344.645 370.597 344.983 370.597 345.366V345.612C370.597 345.912 370.638 346.196 370.72 346.461C370.806 346.723 370.929 346.953 371.089 347.153C371.253 347.352 371.451 347.508 371.681 347.621C371.915 347.735 372.181 347.791 372.478 347.791C372.861 347.791 373.185 347.713 373.451 347.557C373.716 347.401 373.949 347.192 374.148 346.93L374.804 347.452C374.667 347.659 374.494 347.856 374.283 348.043C374.072 348.231 373.812 348.383 373.503 348.5C373.199 348.618 372.837 348.676 372.419 348.676ZM380.142 350.996V343.438L380.236 342.219H381.232V350.996H380.142ZM375.882 345.459V345.336C375.882 344.852 375.939 344.412 376.052 344.018C376.165 343.62 376.332 343.278 376.55 342.993C376.769 342.707 377.033 342.489 377.341 342.336C377.654 342.18 378.009 342.102 378.408 342.102C378.806 342.102 379.156 342.172 379.457 342.313C379.761 342.45 380.019 342.651 380.23 342.916C380.445 343.178 380.615 343.495 380.74 343.866C380.865 344.237 380.951 344.657 380.998 345.125V345.664C380.955 346.129 380.871 346.547 380.746 346.918C380.621 347.289 380.451 347.606 380.236 347.868C380.025 348.129 379.765 348.33 379.457 348.471C379.152 348.608 378.798 348.676 378.396 348.676C378.005 348.676 377.654 348.596 377.341 348.436C377.033 348.276 376.769 348.051 376.55 347.762C376.335 347.473 376.169 347.133 376.052 346.743C375.939 346.348 375.882 345.92 375.882 345.459ZM376.972 345.336V345.459C376.972 345.776 377.005 346.075 377.072 346.356C377.138 346.633 377.24 346.879 377.376 347.094C377.517 347.309 377.693 347.479 377.904 347.604C378.119 347.725 378.373 347.786 378.665 347.786C379.025 347.786 379.324 347.707 379.562 347.551C379.804 347.395 379.998 347.19 380.142 346.936C380.287 346.678 380.398 346.403 380.476 346.11V344.698C380.433 344.483 380.365 344.274 380.271 344.071C380.181 343.868 380.064 343.686 379.919 343.526C379.775 343.362 379.599 343.233 379.392 343.139C379.189 343.041 378.951 342.993 378.677 342.993C378.38 342.993 378.124 343.055 377.91 343.18C377.695 343.305 377.517 343.477 377.376 343.696C377.24 343.911 377.138 344.159 377.072 344.44C377.005 344.721 376.972 345.02 376.972 345.336ZM386.851 347.094V342.219H387.941V348.559H386.904L386.851 347.094ZM387.056 345.758L387.507 345.746C387.507 346.168 387.462 346.559 387.373 346.918C387.287 347.274 387.146 347.582 386.951 347.844C386.755 348.106 386.499 348.311 386.183 348.459C385.867 348.604 385.482 348.676 385.029 348.676C384.72 348.676 384.437 348.631 384.179 348.541C383.925 348.452 383.707 348.313 383.523 348.125C383.339 347.938 383.197 347.694 383.095 347.393C382.998 347.092 382.949 346.731 382.949 346.309V342.219H384.033V346.321C384.033 346.606 384.064 346.842 384.126 347.03C384.193 347.213 384.281 347.36 384.39 347.469C384.503 347.575 384.628 347.649 384.765 347.692C384.906 347.735 385.05 347.756 385.199 347.756C385.66 347.756 386.025 347.668 386.294 347.493C386.564 347.313 386.757 347.073 386.874 346.772C386.996 346.467 387.056 346.129 387.056 345.758ZM392.224 348.676C391.783 348.676 391.382 348.602 391.023 348.453C390.667 348.301 390.361 348.088 390.103 347.815C389.849 347.541 389.654 347.217 389.517 346.842C389.38 346.467 389.312 346.057 389.312 345.612V345.366C389.312 344.85 389.388 344.391 389.54 343.989C389.693 343.582 389.9 343.239 390.162 342.957C390.423 342.676 390.72 342.463 391.052 342.319C391.384 342.174 391.728 342.102 392.083 342.102C392.537 342.102 392.927 342.18 393.255 342.336C393.587 342.493 393.859 342.711 394.07 342.993C394.281 343.27 394.437 343.598 394.539 343.977C394.64 344.352 394.691 344.762 394.691 345.207V345.694H389.957V344.809H393.607V344.727C393.591 344.446 393.533 344.172 393.431 343.907C393.333 343.641 393.177 343.422 392.962 343.25C392.748 343.078 392.455 342.993 392.083 342.993C391.837 342.993 391.611 343.045 391.404 343.151C391.197 343.252 391.019 343.405 390.871 343.608C390.722 343.811 390.607 344.059 390.525 344.352C390.443 344.645 390.402 344.983 390.402 345.366V345.612C390.402 345.912 390.443 346.196 390.525 346.461C390.611 346.723 390.734 346.953 390.894 347.153C391.058 347.352 391.255 347.508 391.486 347.621C391.72 347.735 391.986 347.791 392.283 347.791C392.665 347.791 392.99 347.713 393.255 347.557C393.521 347.401 393.753 347.192 393.953 346.93L394.609 347.452C394.472 347.659 394.298 347.856 394.087 348.043C393.876 348.231 393.617 348.383 393.308 348.5C393.003 348.618 392.642 348.676 392.224 348.676ZM399.648 346.877C399.648 346.721 399.613 346.577 399.542 346.444C399.476 346.307 399.337 346.184 399.126 346.075C398.919 345.961 398.607 345.864 398.189 345.782C397.837 345.707 397.519 345.62 397.234 345.518C396.953 345.416 396.712 345.293 396.513 345.149C396.318 345.004 396.167 344.834 396.062 344.639C395.957 344.444 395.904 344.215 395.904 343.953C395.904 343.703 395.958 343.467 396.068 343.245C396.181 343.022 396.339 342.825 396.542 342.653C396.749 342.481 396.998 342.346 397.287 342.248C397.576 342.151 397.898 342.102 398.253 342.102C398.761 342.102 399.195 342.192 399.554 342.371C399.914 342.551 400.189 342.791 400.38 343.092C400.572 343.389 400.667 343.719 400.667 344.082H399.583C399.583 343.907 399.531 343.737 399.425 343.573C399.324 343.405 399.173 343.266 398.974 343.157C398.779 343.047 398.539 342.993 398.253 342.993C397.953 342.993 397.708 343.039 397.521 343.133C397.337 343.223 397.203 343.338 397.117 343.479C397.035 343.62 396.994 343.768 396.994 343.924C396.994 344.041 397.013 344.147 397.052 344.241C397.095 344.33 397.169 344.414 397.275 344.493C397.38 344.567 397.529 344.637 397.72 344.703C397.912 344.77 398.156 344.836 398.453 344.903C398.972 345.02 399.4 345.161 399.736 345.325C400.072 345.489 400.322 345.69 400.486 345.928C400.65 346.166 400.732 346.455 400.732 346.795C400.732 347.073 400.673 347.327 400.556 347.557C400.443 347.787 400.277 347.987 400.058 348.155C399.843 348.319 399.585 348.448 399.285 348.541C398.988 348.631 398.654 348.676 398.283 348.676C397.724 348.676 397.251 348.577 396.865 348.377C396.478 348.178 396.185 347.92 395.986 347.604C395.787 347.287 395.687 346.953 395.687 346.602H396.777C396.792 346.899 396.878 347.135 397.035 347.311C397.191 347.483 397.382 347.606 397.609 347.68C397.835 347.75 398.06 347.786 398.283 347.786C398.58 347.786 398.828 347.746 399.027 347.668C399.23 347.59 399.384 347.483 399.49 347.346C399.595 347.209 399.648 347.053 399.648 346.877ZM404.81 342.219V343.051H401.382V342.219H404.81ZM402.542 340.678H403.626V346.989C403.626 347.203 403.66 347.366 403.726 347.475C403.792 347.584 403.878 347.657 403.984 347.692C404.089 347.727 404.203 347.745 404.324 347.745C404.414 347.745 404.507 347.737 404.605 347.721C404.707 347.702 404.783 347.686 404.833 347.674L404.839 348.559C404.753 348.586 404.64 348.612 404.499 348.635C404.363 348.662 404.197 348.676 404.001 348.676C403.736 348.676 403.492 348.623 403.269 348.518C403.046 348.412 402.869 348.237 402.736 347.991C402.607 347.741 402.542 347.405 402.542 346.983V340.678Z" fill="white" fill-opacity="0.22"/>
<path d="M409.818 261.72V248.692H385.443V301.005C382.406 302.806 380.361 306.102 380.361 309.885C380.361 315.59 384.991 320.217 390.7 320.217C396.408 320.217 401.038 315.59 401.038 309.885C401.038 305.893 398.775 302.44 395.46 300.718V261.72H409.818Z" fill="#1f527d"/>
<path d="M390.985 313.695C393.187 313.695 394.971 311.911 394.971 309.711C394.971 307.511 393.187 305.728 390.985 305.728C388.784 305.728 387 307.511 387 309.711C387 311.911 388.784 313.695 390.985 313.695Z" fill="#263238"/>
<path d="M241.263 182.628C241.28 182.62 241.359 182.802 241.489 183.159C241.637 183.515 241.811 184.046 242.003 184.75C242.377 186.151 242.734 188.247 242.594 190.856C242.438 193.439 241.776 196.561 240.062 199.57C238.382 202.58 235.554 205.389 231.925 207.067C228.314 208.763 224.32 209.163 220.943 208.381C217.549 207.624 214.825 205.919 212.894 204.197C210.962 202.44 209.752 200.684 209.056 199.414C208.708 198.779 208.464 198.266 208.325 197.909C208.177 197.561 208.107 197.37 208.125 197.361C208.177 197.335 208.464 198.083 209.212 199.318C209.943 200.553 211.179 202.258 213.111 203.954C215.043 205.615 217.732 207.25 221.039 207.972C224.328 208.711 228.21 208.32 231.743 206.658C235.284 205.015 238.043 202.293 239.714 199.362C241.402 196.422 242.09 193.369 242.29 190.83C242.473 188.264 242.168 186.185 241.846 184.785C241.515 183.385 241.211 182.646 241.263 182.628Z" fill="#263238"/>
<path d="M315.337 317.26L327.215 317.104L326.754 357.433L315.729 357.867L315.337 317.26Z" fill="#EBEBEB"/>
<path d="M315.728 357.868C315.633 357.781 317.991 355.093 320.993 351.849C323.995 348.614 326.501 346.057 326.597 346.144C326.693 346.231 324.334 348.918 321.332 352.162C318.322 355.398 315.815 357.954 315.728 357.868Z" fill="#263238"/>
<path d="M327.214 330.689C327.119 330.776 324.386 327.888 321.106 324.244C317.825 320.6 315.241 317.573 315.337 317.495C315.432 317.408 318.165 320.296 321.445 323.94C324.726 327.575 327.302 330.602 327.214 330.689Z" fill="#263238"/>
<path d="M226.348 140.378C226.348 141.595 227.122 142.778 228.245 143.256C229.368 143.735 230.76 143.483 231.639 142.648C233.31 141.047 232.744 138.247 231.7 136.186C230.655 134.124 229.211 132.02 229.515 129.724C229.75 127.967 230.969 126.532 231.787 124.966C233.205 122.227 233.379 118.817 231.996 116.06C230.621 113.303 227.644 111.346 224.564 111.407C221.414 111.468 218.107 113.443 215.313 111.99C213.286 110.938 212.442 108.476 210.675 107.024C207.943 104.771 203.826 105.519 200.607 106.989C197.387 108.459 194.289 110.572 190.747 110.738C187.788 110.886 184.951 109.642 182.027 109.242C175.675 108.372 168.948 111.903 166.067 117.626C163.178 123.349 164.344 130.854 168.826 135.438C170.436 137.081 172.516 138.395 174.804 138.603" fill="#263238"/>
<path d="M230.29 206.841C221.074 209.877 211.136 204.884 208.065 195.683C206.307 190.421 204.845 185.977 204.845 185.977C204.845 185.977 190.825 188.116 186.448 174.818C182.053 161.52 175.109 131.924 175.109 131.924L174.683 130.132C188.049 118.608 207.055 116.686 223.633 122.731L224.486 125.488L241.847 185.768C244.135 194.743 239.079 203.945 230.29 206.841Z" fill="#FFBE9D"/>
<path d="M186.848 151.545C188.336 150.379 187.727 148.109 185.839 147.848C185.351 147.779 184.838 147.927 184.446 148.231C182.95 149.396 183.559 151.675 185.456 151.927C185.952 151.988 186.457 151.84 186.848 151.545Z" fill="#263238"/>
<path d="M181.288 149.875C181.566 150.04 182.567 148.614 184.403 148.031C186.23 147.413 187.875 147.97 188.005 147.666C188.075 147.526 187.736 147.179 187.005 146.918C186.291 146.657 185.177 146.544 184.037 146.918C182.897 147.292 182.062 148.048 181.644 148.675C181.218 149.318 181.157 149.805 181.288 149.875Z" fill="#263238"/>
<path d="M203.74 144.082C203.009 144.935 203.096 146.213 203.949 146.952C204.801 147.683 206.081 147.596 206.82 146.744C207.551 145.891 207.464 144.613 206.611 143.874C205.767 143.134 204.479 143.23 203.74 144.082Z" fill="#263238"/>
<path d="M201.303 145.396C201.581 145.561 202.582 144.135 204.418 143.552C206.246 142.934 207.89 143.491 208.021 143.187C208.09 143.047 207.751 142.7 207.02 142.439C206.306 142.178 205.193 142.065 204.053 142.439C202.913 142.813 202.077 143.569 201.668 144.195C201.233 144.839 201.164 145.326 201.303 145.396Z" fill="#263238"/>
<path d="M198.718 162.894C198.683 162.755 197.482 162.894 195.55 163.225C195.054 163.329 194.628 163.347 194.498 163.077C194.306 162.799 194.341 162.225 194.402 161.572C194.489 160.216 194.576 158.833 194.672 157.38C195.002 151.423 195.037 146.579 194.75 146.57C194.463 146.552 193.967 151.371 193.636 157.328C193.566 158.781 193.506 160.172 193.445 161.529C193.445 162.146 193.314 162.894 193.801 163.59C194.054 163.938 194.515 164.103 194.854 164.086C195.202 164.086 195.472 163.999 195.707 163.938C197.595 163.425 198.744 163.034 198.718 162.894Z" fill="#263238"/>
<path d="M205.332 163.042C206.889 161.294 200.937 167.513 197.135 168.513C197.135 168.513 200.363 171.27 203.774 168.643C207.316 165.912 205.332 163.042 205.332 163.042Z" fill="white"/>
<path d="M204.758 185.794C204.758 185.794 213.416 183.82 220.604 175.349C220.604 175.349 219.525 186.255 205.819 189.256L204.758 185.794Z" fill="#EB996E"/>
<path d="M226.452 134.603C226.722 134.42 236.172 130.715 238.121 142.473C240.07 154.232 227.549 152.319 227.47 151.979C227.401 151.649 226.452 134.603 226.452 134.603Z" fill="#FFBE9D"/>
<path d="M230.394 147.266C230.437 147.222 230.62 147.379 230.994 147.474C231.359 147.57 231.96 147.579 232.534 147.248C233.7 146.587 234.423 144.439 234.127 142.308C233.979 141.23 233.587 140.247 233.065 139.473C232.56 138.673 231.908 138.16 231.264 138.16C230.62 138.116 230.237 138.568 230.15 138.925C230.046 139.282 230.159 139.499 230.098 139.534C230.072 139.569 229.811 139.377 229.828 138.882C229.837 138.638 229.932 138.342 230.167 138.064C230.411 137.786 230.811 137.603 231.255 137.577C232.169 137.49 233.126 138.186 233.7 139.047C234.318 139.899 234.788 141.004 234.953 142.204C235.275 144.587 234.423 147.005 232.804 147.779C232.012 148.135 231.281 147.996 230.881 147.779C230.463 147.544 230.359 147.292 230.394 147.266Z" fill="#EB996E"/>
<path d="M173.595 138.386C173.595 138.386 182.837 140.047 191.939 131.802C197.918 126.393 205.541 122.435 207.717 123.331C209.892 124.227 212.277 131.272 219.743 131.437C219.743 131.437 223.094 145.222 228.402 143.204C233.71 141.195 224.382 121 224.382 121L209.405 115.512L194.098 116.834L178.555 123.105L170.984 131.176L173.595 138.386Z" fill="#263238"/>
<path d="M222.153 109.303C222.179 109.442 220.709 109.659 219.316 110.738C217.898 111.79 217.297 113.147 217.176 113.086C217.063 113.069 217.515 111.52 219.047 110.372C220.552 109.216 222.17 109.19 222.153 109.303Z" fill="#263238"/>
<path d="M215.044 105.511C215.096 105.485 215.349 105.919 215.671 106.659C215.984 107.398 216.358 108.468 216.541 109.703C216.733 110.938 216.637 112.086 216.463 112.877C216.28 113.677 216.062 114.13 216.01 114.112C215.871 114.077 216.48 112.155 216.097 109.772C215.723 107.389 214.896 105.563 215.044 105.511Z" fill="#263238"/>
<path d="M250.81 316.643L311.073 305.45L320.08 346.144L257.493 356.711L250.81 316.643Z" fill="#E0E0E0"/>
<path d="M311.073 305.45C311.082 305.458 311.047 305.511 310.968 305.624C310.873 305.754 310.768 305.911 310.629 306.093C310.298 306.537 309.855 307.128 309.289 307.885C308.079 309.459 306.374 311.694 304.276 314.443C299.977 319.983 294.077 327.61 287.507 336.09L287.394 336.238L287.229 336.151C286.863 335.959 286.463 335.742 286.063 335.533C276.325 330.358 267.518 325.679 261.096 322.27C257.937 320.565 255.37 319.182 253.551 318.2C252.689 317.721 252.011 317.347 251.515 317.078C251.306 316.956 251.132 316.86 250.992 316.773C250.879 316.704 250.818 316.66 250.818 316.66C250.818 316.652 250.888 316.678 251.01 316.739C251.158 316.808 251.34 316.895 251.558 316.999C252.071 317.26 252.759 317.608 253.638 318.052C255.474 319 258.059 320.339 261.244 321.992C267.683 325.375 276.516 330.01 286.271 335.142C286.672 335.351 287.072 335.559 287.438 335.759L287.15 335.82C293.755 327.375 299.699 319.783 304.024 314.26C306.173 311.546 307.914 309.346 309.15 307.789C309.741 307.059 310.211 306.476 310.559 306.05C310.707 305.867 310.829 305.728 310.934 305.606C311.021 305.493 311.073 305.441 311.073 305.45Z" fill="#263238"/>
<path d="M257.493 356.711C257.389 356.641 261.261 350.501 266.152 342.995C271.043 335.49 275.081 329.454 275.185 329.523C275.289 329.593 271.417 335.733 266.526 343.239C261.644 350.745 257.598 356.78 257.493 356.711Z" fill="#263238"/>
<path d="M320.08 346.144C320.001 346.239 314.362 341.926 307.487 336.516C300.613 331.098 295.104 326.627 295.182 326.532C295.261 326.436 300.9 330.75 307.775 336.168C314.641 341.578 320.158 346.048 320.08 346.144Z" fill="#263238"/>
<path d="M252.394 325.731C252.394 325.731 252.82 333.62 256.623 333.524C260.417 333.437 273.845 326.14 275.402 328.671C276.96 331.211 272.844 334.733 272.844 334.733C272.844 334.733 277.569 334.663 275.811 337.49C274.053 340.317 268.789 353.545 263.924 354.789C256.927 356.572 240.837 357.276 240.837 357.276L245.806 329.558L252.394 325.731Z" fill="#FFBE9D"/>
<path d="M274.305 333.089C274.322 333.115 274.148 333.315 273.8 333.655C273.452 334.002 272.938 334.472 272.268 335.037C270.946 336.168 269.014 337.612 266.734 338.986C264.454 340.351 262.27 341.378 260.651 342.021C259.842 342.343 259.181 342.586 258.72 342.726C258.258 342.874 257.997 342.934 257.98 342.908C257.954 342.839 258.955 342.439 260.53 341.725C262.105 341.012 264.245 339.951 266.508 338.594C268.761 337.238 270.702 335.838 272.068 334.785C273.434 333.724 274.252 333.037 274.305 333.089Z" fill="#EB996E"/>
<path d="M274.097 340.899C274.14 340.925 273.67 341.734 272.713 342.882C271.756 344.039 270.268 345.509 268.388 346.813C266.5 348.118 264.594 348.988 263.176 349.475C261.758 349.962 260.844 350.118 260.826 350.066C260.809 349.997 261.688 349.736 263.063 349.17C264.429 348.614 266.274 347.718 268.127 346.439C269.981 345.152 271.469 343.752 272.469 342.665C273.479 341.586 274.036 340.856 274.097 340.899Z" fill="#EB996E"/>
</g>
<defs>
<linearGradient id="paint0_linear_2375_5178" x1="240.631" y1="13.9009" x2="240.631" y2="133.774" gradientUnits="userSpaceOnUse">
<stop stop-color="#EBF9FF"/>
<stop offset="1" stop-color="white"/>
</linearGradient>
<clipPath id="clip0_2375_5178">
<rect width="349.483" height="300" fill="white" transform="translate(154.771 70)"/>
</clipPath>
</defs>
</svg>
