<svg width="16" height="20" viewBox="0 0 16 20" fill="none" xmlns="http://www.w3.org/2000/svg">
<path d="M2.97872 7.02128C2.97872 6.85199 3.04597 6.68964 3.16568 6.56993C3.28538 6.45023 3.44773 6.38298 3.61702 6.38298H12.1277C12.2969 6.38298 12.4593 6.45023 12.579 6.56993C12.6987 6.68964 12.766 6.85199 12.766 7.02128C12.766 7.19056 12.6987 7.35292 12.579 7.47262C12.4593 7.59233 12.2969 7.65957 12.1277 7.65957H3.61702C3.44773 7.65957 3.28538 7.59233 3.16568 7.47262C3.04597 7.35292 2.97872 7.19056 2.97872 7.02128ZM2.97872 10.8511C2.97872 10.6818 3.04597 10.5194 3.16568 10.3997C3.28538 10.28 3.44773 10.2128 3.61702 10.2128H12.1277C12.2969 10.2128 12.4593 10.28 12.579 10.3997C12.6987 10.5194 12.766 10.6818 12.766 10.8511C12.766 11.0204 12.6987 11.1827 12.579 11.3024C12.4593 11.4221 12.2969 11.4894 12.1277 11.4894H3.61702C3.44773 11.4894 3.28538 11.4221 3.16568 11.3024C3.04597 11.1827 2.97872 11.0204 2.97872 10.8511V10.8511ZM3.61702 14.0426C3.44773 14.0426 3.28538 14.1098 3.16568 14.2295C3.04597 14.3492 2.97872 14.5116 2.97872 14.6809C2.97872 14.8501 3.04597 15.0125 3.16568 15.1322C3.28538 15.2519 3.44773 15.3191 3.61702 15.3191H7.44681C7.6161 15.3191 7.77845 15.2519 7.89815 15.1322C8.01786 15.0125 8.08511 14.8501 8.08511 14.6809C8.08511 14.5116 8.01786 14.3492 7.89815 14.2295C7.77845 14.1098 7.6161 14.0426 7.44681 14.0426H3.61702ZM8.08511 0C8.25439 0 8.41675 0.067249 8.53645 0.186953C8.65615 0.306657 8.7234 0.469011 8.7234 0.638298V1.70213H11.9149V0.638298C11.9149 0.469011 11.9821 0.306657 12.1018 0.186953C12.2215 0.067249 12.3839 0 12.5532 0C12.7225 0 12.8848 0.067249 13.0045 0.186953C13.1242 0.306657 13.1915 0.469011 13.1915 0.638298V1.70213H13.8298C14.3376 1.70213 14.8247 1.90388 15.1838 2.26299C15.5429 2.6221 15.7447 3.10916 15.7447 3.61702V14.6774C15.7445 14.8467 15.6772 15.0089 15.5574 15.1285L10.8732 19.8128C10.7536 19.9325 10.5914 19.9999 10.4221 20H1.91489C1.40703 20 0.919972 19.7983 0.560859 19.4391C0.201747 19.08 0 18.593 0 18.0851V3.61702C0 3.10916 0.201747 2.6221 0.560859 2.26299C0.919972 1.90388 1.40703 1.70213 1.91489 1.70213H2.97872V0.638298C2.97872 0.469011 3.04597 0.306657 3.16568 0.186953C3.28538 0.067249 3.44773 0 3.61702 0C3.78631 0 3.94866 0.067249 4.06837 0.186953C4.18807 0.306657 4.25532 0.469011 4.25532 0.638298V1.70213H7.44681V0.638298C7.44681 0.469011 7.51406 0.306657 7.63376 0.186953C7.75347 0.067249 7.91582 0 8.08511 0V0ZM1.2766 3.61702V18.0851C1.2766 18.4374 1.56255 18.7234 1.91489 18.7234H9.78383V15.954C9.78383 15.4462 9.98558 14.9591 10.3447 14.6C10.7038 14.2409 11.1909 14.0391 11.6987 14.0391H14.4681V3.61702C14.4681 3.44773 14.4008 3.28538 14.2811 3.16568C14.1614 3.04597 13.9991 2.97872 13.8298 2.97872H1.91489C1.74561 2.97872 1.58325 3.04597 1.46355 3.16568C1.34384 3.28538 1.2766 3.44773 1.2766 3.61702V3.61702ZM11.6987 15.3157C11.5294 15.3157 11.3671 15.383 11.2474 15.5027C11.1277 15.6224 11.0604 15.7848 11.0604 15.954V17.8204L13.5651 15.3157H11.6987Z" fill="black" fill-opacity="0.6"/>
</svg>
