<svg width="20" height="20" viewBox="0 0 20 20" fill="none" xmlns="http://www.w3.org/2000/svg">
<circle cx="10" cy="10" r="10" fill="#F3EBFF"/>
<path fill-rule="evenodd" clip-rule="evenodd" d="M9.99969 8.82031C9.33469 8.82031 8.79419 9.36131 8.79419 10.0263C8.79419 10.6908 9.33469 11.2313 9.99969 11.2313C10.6647 11.2313 11.2057 10.6908 11.2057 10.0263C11.2057 9.36131 10.6647 8.82031 9.99969 8.82031ZM9.99969 11.9813C8.92119 11.9813 8.04419 11.1043 8.04419 10.0263C8.04419 8.94781 8.92119 8.07031 9.99969 8.07031C11.0782 8.07031 11.9557 8.94781 11.9557 10.0263C11.9557 11.1043 11.0782 11.9813 9.99969 11.9813Z" fill="#8833FF"/>
<mask id="mask0_1277_2318" style="mask-type:alpha" maskUnits="userSpaceOnUse" x="5" y="6" width="10" height="9">
<path fill-rule="evenodd" clip-rule="evenodd" d="M5 6H14.9999V14.0525H5V6Z" fill="white"/>
</mask>
<g mask="url(#mask0_1277_2318)">
<path fill-rule="evenodd" clip-rule="evenodd" d="M5.78487 10.0264C6.71487 12.0809 8.28138 13.3024 9.99988 13.3029C11.7184 13.3024 13.2849 12.0809 14.2149 10.0264C13.2849 7.97238 11.7184 6.75088 9.99988 6.75038C8.28188 6.75088 6.71487 7.97238 5.78487 10.0264ZM10.0009 14.0529H9.99888H9.99837C7.93037 14.0514 6.07337 12.6019 5.03038 10.1744C4.98987 10.0799 4.98987 9.97288 5.03038 9.87838C6.07337 7.45138 7.93087 6.00188 9.99837 6.00038C9.99937 5.99987 9.99937 5.99987 9.99988 6.00038C10.0009 5.99987 10.0009 5.99987 10.0014 6.00038C12.0694 6.00188 13.9264 7.45138 14.9694 9.87838C15.0104 9.97288 15.0104 10.0799 14.9694 10.1744C13.9269 12.6019 12.0694 14.0514 10.0014 14.0529H10.0009Z" fill="#8833FF"/>
</g>
</svg>
