<svg xmlns="http://www.w3.org/2000/svg" width="13.971" height="13.971" viewBox="0 0 13.971 13.971">
  <path id="writer" d="M6.986.563a6.986,6.986,0,1,0,6.986,6.986A6.984,6.984,0,0,0,6.986.563Zm0,2.7A2.479,2.479,0,1,1,4.507,5.745,2.479,2.479,0,0,1,6.986,3.267Zm0,9.69a5.4,5.4,0,0,1-4.127-1.921A3.141,3.141,0,0,1,5.634,9.351a.689.689,0,0,1,.2.031,3.729,3.729,0,0,0,1.152.194,3.715,3.715,0,0,0,1.152-.194.689.689,0,0,1,.2-.031,3.141,3.141,0,0,1,2.775,1.684A5.4,5.4,0,0,1,6.986,12.956Z" transform="translate(0 -0.563)" fill="#8697a2"/>
</svg>
