<svg width="1920" height="561" viewBox="0 0 1920 561" fill="none" xmlns="http://www.w3.org/2000/svg">
<g clip-path="url(#clip0_381_7372)">
<rect width="1920" height="561" fill="white"/>
<path d="M535.86 428.98C528.543 429.324 521.861 425.205 517.321 419.367C515.359 416.854 514.186 414.058 513.676 411.166C513.505 410.204 513.407 409.225 513.38 408.238C512.117 402.003 514.025 397.047 518.754 392.055C522.775 387.69 527.038 384.585 532.645 384.127C533.854 384.003 535.081 383.968 536.299 384.03C542.389 384.33 548.389 386.94 552.518 391.658C556.235 395.971 557.954 401.28 557.999 406.756C558.008 407.762 557.945 408.776 557.802 409.781C557.659 410.786 557.453 411.792 557.157 412.788C556.871 413.758 556.521 414.72 556.109 415.646C555.697 416.572 555.232 417.471 554.703 418.327C551.47 423.653 545.81 427.516 539.594 428.592C538.394 428.821 537.132 428.953 535.86 428.98Z" fill="#EEFAFF"/>
<path d="M363.256 129.986C358.053 130.23 353.301 127.302 350.073 123.15C348.678 121.363 347.843 119.375 347.48 117.318C347.359 116.634 347.289 115.938 347.27 115.236C346.372 110.802 347.729 107.278 351.092 103.728C353.951 100.624 356.983 98.4163 360.969 98.0902C361.829 98.0024 362.702 97.9773 363.568 98.0212C367.899 98.2344 372.166 100.091 375.102 103.446C377.745 106.512 378.968 110.288 378.999 114.182C379.006 114.897 378.961 115.618 378.859 116.333C378.757 117.048 378.611 117.763 378.401 118.472C378.197 119.162 377.949 119.845 377.656 120.504C377.363 121.162 377.032 121.802 376.656 122.41C374.357 126.198 370.332 128.945 365.912 129.71C365.058 129.873 364.16 129.967 363.256 129.986Z" fill="#EEFAFF"/>
<path d="M21.3487 313.228C29.5536 308.554 38.0115 304.233 46.9461 301.088C49.8287 300.074 52.7971 299.175 55.8558 299.02C57.2565 298.949 58.7045 299.047 59.9764 299.625C61.5984 300.365 62.7618 301.806 63.7423 303.27C65.2626 305.537 66.4983 307.973 67.7272 310.401C70.9712 316.804 74.2175 323.206 77.4615 329.61C77.7891 330.257 78.1279 330.975 77.9517 331.675C77.8049 332.27 77.3214 332.718 76.8583 333.127C66.4938 342.292 54.4056 350.224 40.6863 352.822C39.873 352.976 39.0168 353.109 38.2261 352.866C37.6659 352.694 37.1802 352.345 36.7261 351.98C32.7073 348.764 30.2178 344.121 27.8367 339.608C24.2945 332.899 20.7501 326.188 17.5806 319.303C17.174 318.419 16.7696 317.405 17.1559 316.513C17.4224 315.897 18.0143 315.481 18.5768 315.099C19.7267 314.319 20.8765 313.542 22.0242 312.762" fill="#EEFAFF"/>
<path d="M41.7462 153.305C43.0823 153.305 44.1653 152.231 44.1653 150.905C44.1653 149.579 43.0823 148.504 41.7462 148.504C40.4102 148.504 39.3271 149.579 39.3271 150.905C39.3271 152.231 40.4102 153.305 41.7462 153.305Z" fill="#CFF0FF"/>
<path d="M13.1991 122.584C14.1494 121.641 15.6798 121.641 16.6302 122.584C17.5805 123.527 17.5805 125.046 16.6302 125.99C15.6798 126.933 14.1494 126.933 13.1991 125.99C12.2487 125.046 12.2487 123.515 13.1991 122.584Z" fill="#CFF0FF"/>
<path d="M64.0116 125.414C64.9619 124.471 66.4924 124.471 67.4427 125.414C68.3931 126.358 68.3931 127.876 67.4427 128.82C66.4924 129.763 64.9619 129.763 64.0116 128.82C63.0612 127.876 63.0612 126.358 64.0116 125.414Z" fill="#CFF0FF"/>
<path d="M37.1786 98.7855C38.1289 97.8423 39.6594 97.8423 40.6097 98.7855C41.5601 99.7287 41.5601 101.248 40.6097 102.191C39.6594 103.134 38.1289 103.134 37.1786 102.191C36.2282 101.248 36.2282 99.7164 37.1786 98.7855Z" fill="#CFF0FF"/>
<path d="M12.0636 76.2606C13.3996 76.2606 14.4826 75.1857 14.4826 73.8598C14.4826 72.5338 13.3996 71.459 12.0636 71.459C10.7276 71.459 9.64453 72.5338 9.64453 73.8598C9.64453 75.1857 10.7276 76.2606 12.0636 76.2606Z" fill="#CFF0FF"/>
<path d="M89.7072 105.718C91.0432 105.718 92.1263 104.643 92.1263 103.317C92.1263 101.991 91.0432 100.916 89.7072 100.916C88.3712 100.916 87.2881 101.991 87.2881 103.317C87.2881 104.643 88.3712 105.718 89.7072 105.718Z" fill="#CFF0FF"/>
<path d="M61.16 74.9867C62.1104 74.0435 63.6408 74.0435 64.5912 74.9867C65.5415 75.9298 65.5415 77.4487 64.5912 78.3919C63.6408 79.335 62.1104 79.335 61.16 78.3919C60.2097 77.4487 60.2097 75.9298 61.16 74.9867Z" fill="#CFF0FF"/>
<path d="M36.0314 52.4598C37.3674 52.4598 38.4505 51.3849 38.4505 50.059C38.4505 48.7331 37.3674 47.6582 36.0314 47.6582C34.6954 47.6582 33.6123 48.7331 33.6123 50.059C33.6123 51.3849 34.6954 52.4598 36.0314 52.4598Z" fill="#CFF0FF"/>
<path d="M7.49694 21.7269C8.44729 20.7837 9.97768 20.7837 10.928 21.7269C11.8784 22.6701 11.8784 24.1889 10.928 25.1321C9.97768 26.0753 8.44729 26.0753 7.49694 25.1321C6.54659 24.1889 6.54659 22.6701 7.49694 21.7269Z" fill="#CFF0FF"/>
<path d="M113.677 81.9149C115.013 81.9149 116.096 80.84 116.096 79.5141C116.096 78.1881 115.013 77.1133 113.677 77.1133C112.341 77.1133 111.258 78.1881 111.258 79.5141C111.258 80.84 112.341 81.9149 113.677 81.9149Z" fill="#CFF0FF"/>
<path d="M85.1415 51.1839C86.0918 50.2408 87.6223 50.2408 88.5726 51.1839C89.523 52.1271 89.523 53.646 88.5726 54.5891C87.6223 55.5323 86.0918 55.5323 85.1415 54.5891C84.1911 53.646 84.1911 52.1271 85.1415 51.1839Z" fill="#CFF0FF"/>
<path d="M60.0138 28.657C61.3498 28.657 62.4329 27.5822 62.4329 26.2562C62.4329 24.9303 61.3498 23.8555 60.0138 23.8555C58.6778 23.8555 57.5947 24.9303 57.5947 26.2562C57.5947 27.5822 58.6778 28.657 60.0138 28.657Z" fill="#CFF0FF"/>
<path d="M31.4662 -2.07583C32.4165 -3.01899 33.947 -3.01899 34.8974 -2.07583C35.8477 -1.13266 35.8477 0.386204 34.8974 1.32937C33.947 2.27254 32.4165 2.27254 31.4662 1.32937C30.5282 0.386204 30.5282 -1.13266 31.4662 -2.07583Z" fill="#CFF0FF"/>
<path d="M135.942 54.0257C136.892 53.0826 138.423 53.0826 139.373 54.0257C140.323 54.9689 140.323 56.4878 139.373 57.4309C138.423 58.3741 136.892 58.3741 135.942 57.4309C135.004 56.4755 135.004 54.9567 135.942 54.0257Z" fill="#CFF0FF"/>
<path d="M109.111 27.3851C110.061 26.4419 111.591 26.4419 112.542 27.3851C113.492 28.3283 113.492 29.8471 112.542 30.7903C111.591 31.7335 110.061 31.7335 109.111 30.7903C108.173 29.8471 108.173 28.3283 109.111 27.3851Z" fill="#CFF0FF"/>
<path d="M83.9943 4.86017C85.3303 4.86017 86.4134 3.78531 86.4134 2.45939C86.4134 1.13347 85.3303 0.0585938 83.9943 0.0585938C82.6583 0.0585938 81.5752 1.13347 81.5752 2.45939C81.5752 3.78531 82.6583 4.86017 83.9943 4.86017Z" fill="#CFF0FF"/>
<path d="M161.638 34.3309C162.974 34.3309 164.057 33.256 164.057 31.9301C164.057 30.6042 162.974 29.5293 161.638 29.5293C160.302 29.5293 159.219 30.6042 159.219 31.9301C159.219 33.256 160.302 34.3309 161.638 34.3309Z" fill="#CFF0FF"/>
<path d="M133.091 3.598C134.041 2.65483 135.571 2.65483 136.522 3.598C137.472 4.54117 137.472 6.06003 136.522 7.0032C135.571 7.94637 134.041 7.94637 133.091 7.0032C132.14 6.06003 132.14 4.52892 133.091 3.598Z" fill="#CFF0FF"/>
<path d="M1809.87 0.189165C1882.68 -11.8915 1896.08 -21.1331 1915.21 -9.6437C1934.77 2.10094 1947.05 27.5431 1943.97 49.3651C1940.42 74.4947 1917.58 87.1188 1874.49 110.933C1835.36 132.56 1821.63 128.422 1816.35 126.128C1805.92 121.591 1802.01 112.73 1795.11 100.638C1763.08 44.5113 1732.07 33.7495 1737.85 18.1146C1741.68 7.74215 1756.57 9.03249 1809.87 0.189165Z" fill="#EEFAFF"/>
<path d="M1359.34 181.981C1352.51 182.302 1346.27 178.458 1342.03 173.009C1340.2 170.664 1339.11 168.054 1338.63 165.355C1338.47 164.457 1338.38 163.544 1338.35 162.622C1337.18 156.803 1338.96 152.177 1343.37 147.518C1347.12 143.444 1351.1 140.546 1356.33 140.118C1357.46 140.003 1358.61 139.97 1359.75 140.028C1365.43 140.308 1371.03 142.744 1374.88 147.148C1378.35 151.173 1379.96 156.128 1380 161.239C1380.01 162.177 1379.95 163.124 1379.82 164.062C1379.68 165.001 1379.49 165.939 1379.21 166.869C1378.95 167.775 1378.62 168.672 1378.24 169.536C1377.85 170.4 1377.42 171.24 1376.92 172.038C1373.91 177.01 1368.62 180.615 1362.82 181.619C1361.7 181.833 1360.52 181.957 1359.34 181.981Z" fill="#EEFAFF"/>
<path d="M1554.73 384.987C1550.02 385.216 1545.71 382.47 1542.78 378.578C1541.52 376.903 1540.76 375.039 1540.44 373.11C1540.33 372.47 1540.26 371.817 1540.24 371.159C1539.43 367.002 1540.66 363.698 1543.71 360.37C1546.3 357.46 1549.05 355.39 1552.66 355.085C1553.44 355.002 1554.23 354.979 1555.01 355.02C1558.94 355.22 1562.81 356.96 1565.47 360.105C1567.86 362.98 1568.97 366.52 1569 370.171C1569.01 370.841 1568.96 371.517 1568.87 372.187C1568.78 372.858 1568.65 373.528 1568.46 374.192C1568.27 374.839 1568.05 375.48 1567.78 376.097C1567.52 376.714 1567.22 377.314 1566.88 377.884C1564.79 381.436 1561.14 384.011 1557.14 384.728C1556.37 384.881 1555.55 384.969 1554.73 384.987Z" fill="#EEFAFF"/>
<path d="M1865.99 487.174C1873.52 482.846 1881.29 478.846 1889.49 475.933C1892.14 474.994 1894.86 474.162 1897.67 474.019C1898.96 473.953 1900.29 474.043 1901.45 474.579C1902.94 475.264 1904.01 476.598 1904.91 477.954C1906.31 480.052 1907.44 482.308 1908.57 484.556C1911.55 490.486 1914.53 496.413 1917.51 502.343C1917.81 502.942 1918.12 503.607 1917.96 504.255C1917.82 504.805 1917.38 505.22 1916.95 505.599C1907.44 514.085 1896.34 521.43 1883.74 523.835C1883 523.978 1882.21 524.101 1881.49 523.876C1880.97 523.716 1880.53 523.393 1880.11 523.056C1876.42 520.078 1874.13 515.778 1871.95 511.6C1868.7 505.388 1865.44 499.174 1862.53 492.799C1862.16 491.981 1861.79 491.042 1862.14 490.216C1862.39 489.645 1862.93 489.26 1863.45 488.907C1864.5 488.185 1865.56 487.465 1866.61 486.743" fill="#EEFAFF"/>
</g>
<defs>
<clipPath id="clip0_381_7372">
<rect width="1920" height="561" fill="white"/>
</clipPath>
</defs>
</svg>
