<svg width="550" height="561" viewBox="0 0 550 561" fill="none" xmlns="http://www.w3.org/2000/svg">
<path d="M476.083 536.212C475.427 536.623 474.759 537.021 474.091 537.419C473.471 537.78 472.852 538.141 472.233 538.489C471.589 538.862 470.945 539.223 470.289 539.584C469.633 539.945 468.978 540.293 468.322 540.641C467.666 540.99 467.01 541.338 466.354 541.674C465.686 542.01 465.03 542.346 464.362 542.682C463.694 543.005 463.026 543.329 462.358 543.652C461.69 543.963 461.022 544.274 460.342 544.586C459.54 544.959 458.727 545.32 457.913 545.668C457.099 546.029 456.285 546.377 455.472 546.713C453.832 547.397 452.18 548.057 450.528 548.679C449.885 548.928 449.241 549.164 448.597 549.401C448.342 549.488 448.087 549.587 447.832 549.674C445.391 550.558 442.937 551.379 440.448 552.138C438.759 552.66 437.047 553.158 435.334 553.631C434.472 553.867 433.622 554.091 432.759 554.315C431.751 554.576 430.743 554.838 429.735 555.074C429.006 555.248 428.29 555.423 427.573 555.584C424.051 556.393 420.492 557.102 416.922 557.724C416.096 557.874 415.27 558.01 414.432 558.135C413.557 558.284 412.671 558.421 411.784 558.545C410.011 558.807 408.237 559.043 406.464 559.267C405.578 559.367 404.691 559.479 403.804 559.566C403.173 559.64 402.541 559.703 401.91 559.765C401.497 559.815 401.084 559.852 400.683 559.889C399.067 560.051 397.464 560.188 395.849 560.3C392.072 560.586 388.294 560.785 384.529 560.885C384.007 560.909 383.485 560.922 382.962 560.934C382.064 560.947 381.165 560.972 380.266 560.972C379.197 560.984 378.128 560.997 377.06 560.997C374.448 560.997 371.837 560.959 369.238 560.885C367.355 560.835 365.485 560.76 363.614 560.673C363.25 560.661 362.898 560.636 362.533 560.611C359.449 560.462 356.376 560.25 353.315 560.001C351.226 559.827 349.149 559.628 347.06 559.429L346.805 559.392C345.833 559.292 344.849 559.18 343.878 559.08C342.627 558.931 341.388 558.782 340.149 558.633C339.262 558.521 338.388 558.409 337.501 558.284C336.493 558.147 335.485 558.01 334.465 557.861C330.761 557.326 327.068 556.729 323.388 556.07C322.477 555.908 321.566 555.734 320.655 555.559C318.955 555.248 317.267 554.912 315.591 554.564C314.789 554.402 314 554.241 313.198 554.066C309.627 553.307 306.081 552.499 302.546 551.615C301.538 551.379 300.542 551.118 299.546 550.869C298.55 550.607 297.554 550.359 296.546 550.085C289.283 548.169 282.081 546.004 274.939 543.627C274.174 543.379 273.409 543.117 272.644 542.856C270.749 542.222 268.867 541.562 266.984 540.89C265.356 540.305 263.741 539.721 262.126 539.123C259.624 538.19 257.134 537.232 254.656 536.262C252.956 535.59 251.255 534.906 249.567 534.209C247.648 533.425 245.741 532.629 243.822 531.808C242.158 531.098 240.494 530.377 238.843 529.643C238.223 529.357 237.592 529.083 236.96 528.797C235.454 528.125 233.936 527.428 232.43 526.731C230.681 525.923 228.92 525.101 227.171 524.255C226.916 524.131 226.648 524.006 226.381 523.882C224.644 523.048 222.908 522.19 221.171 521.331C219.677 520.597 218.183 519.838 216.701 519.079C214.479 517.947 212.268 516.79 210.058 515.621C208.211 514.65 206.377 513.655 204.543 512.647C202.928 511.764 201.313 510.868 199.697 509.959C199.479 509.835 199.248 509.711 199.029 509.586C197.378 508.653 195.738 507.72 194.11 506.774C192.871 506.053 191.633 505.331 190.406 504.597C189.204 503.888 188.001 503.179 186.811 502.457C185.669 501.773 184.515 501.076 183.386 500.379C181.442 499.185 179.511 497.99 177.58 496.771C165.86 489.38 154.431 481.529 143.342 473.33C124.674 459.532 106.565 444.303 89.9739 427.656C88.8322 426.511 87.7027 425.366 86.5731 424.209C80.889 418.361 75.387 412.352 70.1401 406.168C56.282 389.894 44.0635 372.45 34.2256 353.874C26.8896 340.026 20.8897 325.544 16.5173 310.439C15.5456 307.092 14.659 303.733 13.8695 300.336C13.2015 297.549 12.6064 294.762 12.0599 291.938C9.83721 280.379 8.67123 268.696 8.48904 257.013C8.42832 253.343 8.46475 249.673 8.6105 246.002C9.47284 222.81 14.1368 199.755 22.0193 177.745C34.347 143.306 54.533 111.442 80.3546 85.6621C133.577 32.5098 177.119 7.55114 251.911 2.26328C251.911 2.26328 312.481 -10.3529 349.489 67.7953C362.716 95.7028 370.878 126.235 388.039 151.878C411.468 186.865 448.682 209.597 478.816 238.935C519.673 278.7 548.021 333.109 549.867 390.28C551.726 447.451 524.592 506.413 476.083 536.212Z" fill="#EFEFEF"/>
<g opacity="0.7">
<path opacity="0.7" d="M476.083 536.212C475.427 536.623 474.759 537.021 474.091 537.419C473.471 537.78 472.852 538.141 472.233 538.489C471.589 538.862 470.945 539.223 470.289 539.584C469.633 539.945 468.978 540.293 468.322 540.641C467.666 540.99 467.01 541.338 466.354 541.674C465.686 542.01 465.03 542.346 464.362 542.682C463.694 543.005 463.026 543.329 462.358 543.652C461.69 543.963 461.022 544.274 460.342 544.586C459.54 544.959 458.727 545.32 457.913 545.668C457.099 546.029 456.285 546.377 455.472 546.713C453.832 547.397 452.18 548.057 450.528 548.679C449.885 548.928 449.241 549.164 448.597 549.401C448.342 549.488 448.087 549.587 447.832 549.674C445.391 550.558 442.937 551.366 440.448 552.138C438.759 552.66 437.047 553.158 435.334 553.631C434.472 553.867 433.622 554.091 432.759 554.315C431.751 554.576 430.743 554.838 429.735 555.074C429.006 555.248 428.29 555.423 427.573 555.584C424.051 556.393 420.492 557.102 416.922 557.724C416.096 557.874 415.27 558.01 414.432 558.135C413.557 558.284 412.671 558.421 411.784 558.545C410.011 558.807 408.237 559.043 406.464 559.267C405.578 559.367 404.691 559.479 403.804 559.566C403.173 559.64 402.541 559.703 401.91 559.765C401.497 559.815 401.084 559.852 400.683 559.889C399.067 560.051 397.464 560.188 395.849 560.3C392.072 560.586 388.294 560.785 384.529 560.885C384.007 560.909 383.485 560.922 382.962 560.934C382.064 560.947 381.165 560.972 380.266 560.972C379.197 560.984 378.128 560.997 377.06 560.997C374.448 560.997 371.837 560.959 369.238 560.885C367.355 560.835 365.485 560.76 363.614 560.673C363.25 560.661 362.898 560.636 362.533 560.611C359.449 560.462 356.376 560.25 353.315 560.001C351.226 559.827 349.149 559.628 347.06 559.429L346.805 559.392C345.833 559.292 344.849 559.18 343.878 559.08C342.627 558.931 341.388 558.782 340.149 558.633C339.262 558.521 338.388 558.409 337.501 558.284C336.493 558.147 335.485 558.01 334.465 557.861C330.761 557.326 327.068 556.729 323.388 556.07C322.477 555.908 321.566 555.734 320.655 555.559C318.955 555.248 317.267 554.912 315.591 554.564C314.789 554.402 314 554.241 313.198 554.066C309.627 553.307 306.081 552.499 302.546 551.615C301.538 551.379 300.542 551.118 299.546 550.869C298.55 550.607 297.554 550.359 296.546 550.085C289.283 548.169 282.081 546.004 274.939 543.627C274.174 543.379 273.409 543.117 272.644 542.856C270.749 542.222 268.867 541.562 266.984 540.89C265.356 540.305 263.741 539.721 262.126 539.123C259.624 538.19 257.134 537.232 254.656 536.262C252.956 535.59 251.255 534.906 249.567 534.209C247.648 533.425 245.741 532.629 243.822 531.808C242.158 531.098 240.494 530.377 238.843 529.643C238.223 529.357 237.592 529.083 236.96 528.797C235.454 528.125 233.936 527.428 232.43 526.731C230.681 525.923 228.92 525.101 227.171 524.255C226.916 524.131 226.648 524.006 226.381 523.882C224.644 523.048 222.908 522.19 221.171 521.331C219.677 520.597 218.183 519.838 216.701 519.079C214.479 517.947 212.268 516.79 210.058 515.621C208.211 514.65 206.377 513.655 204.543 512.647C202.928 511.764 201.313 510.868 199.697 509.959C199.479 509.835 199.248 509.711 199.029 509.586C197.378 508.653 195.738 507.72 194.11 506.774C192.871 506.053 191.633 505.331 190.406 504.597C189.204 503.888 188.001 503.179 186.811 502.457C185.669 501.773 184.515 501.076 183.386 500.379C181.442 499.185 179.511 497.99 177.58 496.771C165.86 489.38 154.431 481.529 143.342 473.33C124.674 459.532 106.565 444.303 89.9739 427.656C88.8322 426.511 87.7027 425.366 86.5731 424.209C80.889 418.361 75.387 412.352 70.1401 406.168C56.282 389.894 44.0635 372.45 34.2256 353.874C26.8896 340.026 20.8897 325.544 16.5173 310.439C15.5456 307.092 14.659 303.733 13.8695 300.336C13.2015 297.549 12.6064 294.762 12.0599 291.938C9.83721 280.379 8.67123 268.696 8.48904 257.013C8.42832 253.343 8.46475 249.673 8.6105 246.002C9.47284 222.81 14.1368 199.755 22.0193 177.745C34.347 143.306 54.533 111.442 80.3546 85.6621C133.577 32.5098 177.119 7.55114 251.911 2.26328C251.911 2.26328 312.481 -10.3529 349.489 67.7953C362.716 95.7028 370.878 126.235 388.039 151.878C411.468 186.865 448.682 209.597 478.816 238.935C519.673 278.7 548.021 333.109 549.867 390.28C551.726 447.451 524.592 506.413 476.083 536.212Z" fill="white"/>
</g>
<path d="M419.399 133.762H451.587C463.456 133.762 473.087 143.392 473.087 155.262C473.087 167.131 463.456 176.761 451.587 176.761H402.279C390.409 176.761 380.779 167.131 380.779 155.262C380.779 143.392 390.409 133.762 402.279 133.762" stroke="#263238" stroke-miterlimit="10"/>
<path d="M409.631 133.762H415.255" stroke="#263238" stroke-miterlimit="10"/>
<path d="M411.441 151.331V152.65H409.886V151.244C409.886 149.912 409.364 149.116 408.157 149.116C406.975 149.116 406.427 149.912 406.427 151.244V159.032C406.427 160.351 406.975 161.16 408.157 161.16C409.351 161.16 409.886 160.364 409.886 159.032V157.116H411.441V158.945C411.441 161.172 410.384 162.653 408.119 162.653C405.867 162.653 404.822 161.185 404.822 158.945V151.331C404.822 149.104 405.867 147.623 408.119 147.623C410.384 147.635 411.441 149.104 411.441 151.331Z" fill="#263238"/>
<path d="M414.598 159.545L414.026 162.506H412.508L415.332 147.787H417.709L420.533 162.506H418.891L418.318 159.545H414.598ZM414.81 158.139H418.094L416.427 149.641L414.81 158.139Z" fill="#263238"/>
<path d="M423.273 162.506H421.805V147.787H423.883L427.292 158.425V147.787H428.747V162.506H427.043L423.273 150.599V162.506V162.506Z" fill="#263238"/>
<path d="M436.924 151.331V152.65H435.369V151.244C435.369 149.912 434.846 149.116 433.639 149.116C432.457 149.116 431.91 149.912 431.91 151.244V159.032C431.91 160.351 432.457 161.16 433.639 161.16C434.834 161.16 435.369 160.364 435.369 159.032V157.116H436.924V158.945C436.924 161.172 435.866 162.653 433.602 162.653C431.35 162.653 430.305 161.185 430.305 158.945V151.331C430.305 149.104 431.35 147.623 433.602 147.623C435.879 147.635 436.924 149.104 436.924 151.331Z" fill="#263238"/>
<path d="M443.656 154.307V155.775H440.06V161.013H444.477V162.506H438.418V147.787H444.477V149.28H440.06V154.307H443.656V154.307Z" fill="#263238"/>
<path d="M445.992 162.506V147.787H447.635V161.013H451.84V162.506H445.992V162.506Z" fill="#263238"/>
<path d="M296.026 2.16955C294.458 1.74652 292.841 1.43547 291.186 1.2364L296.026 2.16955ZM287.192 1C268.405 1 253.113 16.2788 253.113 35.0787C253.113 53.8661 268.405 69.1449 287.192 69.1449C305.979 69.1449 321.271 53.8661 321.271 35.0787C321.271 20.7703 312.412 8.50253 299.895 3.45107L287.192 1ZM277.549 31.8562L298.751 56.6033C295.292 58.4572 291.372 59.5148 287.18 59.5148C273.705 59.5148 262.731 48.5533 262.731 35.0787C262.731 29.5544 264.572 24.4407 267.695 20.3473L274.899 28.7581L277.549 31.8562ZM297.146 39.9435L274.899 13.9646C278.507 11.837 282.713 10.6426 287.18 10.6426C300.654 10.6426 311.628 21.604 311.628 35.0911C311.628 40.914 309.563 46.264 306.154 50.4694L303.205 47.023L297.146 39.9435Z" stroke="#263238" stroke-miterlimit="10"/>
<path d="M143.166 124.752L145.082 122.836" stroke="#263238" stroke-miterlimit="10"/>
<path d="M139.162 128.757L120.86 110.455L105.693 125.622L123.996 143.924L105.693 162.226L120.86 177.393L139.162 159.091L157.465 177.393L172.631 162.226L154.329 143.924L172.631 125.622L157.465 110.455L147.449 120.471" stroke="#263238" stroke-miterlimit="10"/>
<path d="M27.2397 200.787C27.5881 198.348 28.6705 195.3 31.134 195.262C33.5851 195.225 34.792 198.311 34.6551 200.762C34.5183 203.2 33.8091 205.863 35.0782 207.966C38.6615 183.878 43.8995 158.645 60.0866 140.443C61.8533 138.452 64.5533 136.412 66.9048 137.643C69.6545 139.074 68.8955 143.155 67.7757 146.054C58.9668 168.91 53.4177 193.01 51.3274 217.409C57.8346 199.393 68.2983 182.509 83.1167 170.366C85.4434 168.462 88.3424 166.571 91.2663 167.305C94.7376 168.176 96.3053 172.282 96.4297 175.853C96.7034 183.442 93.1077 190.559 89.7732 197.39C76.7589 224.041 66.5315 252.048 59.3152 280.814C57.8221 286.773 56.2918 293.094 52.0242 297.523C50.0708 299.551 46.9478 301.119 44.4968 299.725C43.3148 299.054 42.5682 297.834 41.9088 296.652C33.8464 282.443 29.1309 266.356 28.1977 250.057C27.2397 233.534 24.9006 217.322 27.2397 200.787Z" fill="#CEF0FF"/>
<path opacity="0.2" d="M27.2397 200.787C27.5881 198.348 28.6705 195.3 31.134 195.262C33.5851 195.225 34.792 198.311 34.6551 200.762C34.5183 203.2 33.8091 205.863 35.0782 207.966C38.6615 183.878 43.8995 158.645 60.0866 140.443C61.8533 138.452 64.5533 136.412 66.9048 137.643C69.6545 139.074 68.8955 143.155 67.7757 146.054C58.9668 168.91 53.4177 193.01 51.3274 217.409C57.8346 199.393 68.2983 182.509 83.1167 170.366C85.4434 168.462 88.3424 166.571 91.2663 167.305C94.7376 168.176 96.3053 172.282 96.4297 175.853C96.7034 183.442 93.1077 190.559 89.7732 197.39C76.7589 224.041 66.5315 252.048 59.3152 280.814C57.8221 286.773 56.2918 293.094 52.0242 297.523C50.0708 299.551 46.9478 301.119 44.4968 299.725C43.3148 299.054 42.5682 297.834 41.9088 296.652C33.8464 282.443 29.1309 266.356 28.1977 250.057C27.2397 233.534 24.9006 217.322 27.2397 200.787Z" fill="white"/>
<path d="M0.188291 257.26C-0.247179 254.561 -0.0978739 250.977 2.50251 250.144C5.078 249.31 7.36733 252.172 8.0392 254.797C8.69862 257.422 8.8106 260.471 10.8511 262.275C6.73279 235.624 3.99555 207.219 15.1436 182.658C16.3629 179.983 18.5403 176.935 21.4392 177.457C24.8235 178.067 25.346 182.646 25.1221 186.067C23.3055 213.129 25.3336 240.439 31.1316 266.928C32.102 245.739 37.6263 224.451 49.3218 206.746C51.1632 203.959 53.6018 201.01 56.9363 200.836C60.8928 200.624 63.8914 204.444 65.1978 208.189C67.9848 216.127 66.5042 224.837 65.2227 233.148C60.1961 265.597 58.5786 298.568 60.3827 331.365C60.756 338.171 61.2039 345.337 58.1432 351.422C56.7372 354.209 53.9502 356.896 50.9019 356.224C49.4338 355.901 48.2518 354.856 47.1569 353.823C33.9683 341.443 23.7161 325.978 17.3707 309.044C10.9382 291.887 3.13705 275.513 0.188291 257.26Z" fill="#CEF0FF"/>
<path opacity="0.2" d="M0.188291 257.26C-0.247179 254.561 -0.0978739 250.977 2.50251 250.144C5.078 249.31 7.36733 252.172 8.0392 254.797C8.69862 257.422 8.8106 260.471 10.8511 262.275C6.73279 235.624 3.99555 207.219 15.1436 182.658C16.3629 179.983 18.5403 176.935 21.4392 177.457C24.8235 178.067 25.346 182.646 25.1221 186.067C23.3055 213.129 25.3336 240.439 31.1316 266.928C32.102 245.739 37.6263 224.451 49.3218 206.746C51.1632 203.959 53.6018 201.01 56.9363 200.836C60.8928 200.624 63.8914 204.444 65.1978 208.189C67.9848 216.127 66.5042 224.837 65.2227 233.148C60.1961 265.597 58.5786 298.568 60.3827 331.365C60.756 338.171 61.2039 345.337 58.1432 351.422C56.7372 354.209 53.9502 356.896 50.9019 356.224C49.4338 355.901 48.2518 354.856 47.1569 353.823C33.9683 341.443 23.7161 325.978 17.3707 309.044C10.9382 291.887 3.13705 275.513 0.188291 257.26Z" fill="black"/>
<path d="M72.4625 406.043C72.363 406.168 72.0768 406.217 71.6413 406.18C71.3676 406.168 71.0566 406.118 70.6957 406.043C64.7111 400.619 59.0376 394.92 53.7497 388.923C51.8212 384.469 49.4946 380.276 46.832 376.108C42.1787 368.842 36.7788 362.11 31.4785 355.317C30.2343 353.725 29.0026 352.12 27.7833 350.515C26.4768 348.785 25.1829 347.043 23.9262 345.289C19.7706 339.516 15.9509 333.469 13.0021 326.974C11.4842 323.602 10.1903 319.87 10.9865 316.262C11.5216 313.96 13.2261 311.845 15.3164 310.887C15.7643 310.675 16.2246 310.526 16.7099 310.451C17.0831 310.377 17.4813 310.352 17.867 310.377H17.8794C18.29 310.389 18.6757 310.451 19.0863 310.576C21.4254 311.297 22.9184 313.524 24.2248 315.602C27.5095 320.84 30.7942 326.078 34.0914 331.317C29.4256 319.049 24.7474 306.669 22.5949 293.729C20.4425 280.765 20.9775 267.041 26.4146 255.097C26.8874 254.064 27.5095 252.982 28.2809 252.136L28.2934 252.123C28.3058 252.123 28.3183 252.098 28.3307 252.086C29.127 251.252 30.085 250.667 31.2421 250.68C31.7896 250.68 32.2873 250.817 32.7227 251.041C34.6139 252.011 35.5968 254.711 36.0945 256.988C39.2299 271.371 42.3528 285.741 45.4882 300.112C46.0108 302.513 46.5334 304.915 47.0559 307.316C47.2426 308.162 47.4292 309.008 47.6158 309.866C47.5909 308.635 47.566 307.403 47.5412 306.171C47.5163 304.168 47.5163 302.152 47.5412 300.137C47.7154 288.379 49.1959 276.597 55.9395 267.215C57.3952 265.175 59.3735 263.197 61.6255 262.288C62.5587 261.903 63.554 261.716 64.5743 261.778C64.7485 261.778 64.9227 261.803 65.0844 261.815C67.6972 262.201 69.8124 264.291 70.9197 266.693C72.0395 269.082 72.3008 271.769 72.5372 274.394C73.6569 287.633 67.2866 297.91 69.7004 332.25C69.7999 333.755 69.9243 335.298 70.0612 336.891C72.5123 364.786 86.9077 389.744 72.4625 406.043Z" fill="#CEF0FF"/>
<path d="M94.4639 324.048C94.1404 337.92 86.0531 347.687 85.2692 385.909C84.9955 399.434 87.5585 412.585 88.4793 424.218C82.6564 418.37 77.0202 412.361 71.6452 406.177C71.3715 406.165 71.0604 406.115 70.6996 406.04C64.715 400.616 59.0415 394.917 53.7536 388.92C51.8251 384.466 49.4984 380.273 46.8359 376.105C42.1825 368.839 36.7827 362.108 31.4824 355.314C32.1418 354.804 32.8635 354.406 33.6349 354.157C34.033 354.02 34.4436 353.921 34.8542 353.883C35.3146 353.834 35.7749 353.846 36.2353 353.921C36.6334 353.971 37.0316 354.083 37.4297 354.257C39.6693 355.215 40.9135 357.591 41.9959 359.793C44.6834 365.367 47.3957 370.917 50.1081 376.491C47.9059 368.055 45.7036 359.557 44.2479 350.972C43.5138 346.63 42.9788 342.275 42.73 337.871C42.1452 327.519 43.2774 316.881 47.0598 307.313C47.2091 306.927 47.3709 306.542 47.5451 306.168C48.4409 304.003 49.4984 301.913 50.6929 299.885C51.2777 298.902 52.0242 297.882 52.8827 297.136C52.8951 297.123 52.9076 297.098 52.92 297.098C53.8034 296.352 54.8236 295.879 55.9807 296.016C56.5157 296.065 56.9885 296.265 57.4116 296.538C58.5936 297.31 59.2903 298.803 59.6884 300.408C59.9 301.204 60.0244 302.038 60.1115 302.809C61.6792 317.441 63.2344 332.073 64.8021 346.692C65.1505 350.002 65.5113 353.311 65.8597 356.608C66.1459 353.423 66.4445 350.176 66.8426 346.941C67.4647 341.952 68.3108 336.975 69.7043 332.247C71.5457 325.926 74.3327 320.029 78.7496 315.114C80.4168 313.248 82.5942 311.481 84.9208 310.834C85.8913 310.548 86.9116 310.473 87.9069 310.635C88.0811 310.66 88.2553 310.697 88.4046 310.735C90.9677 311.394 92.8464 313.696 93.6925 316.209C94.5385 318.71 94.5261 321.41 94.4639 324.048Z" fill="#CEF0FF"/>
<path opacity="0.2" d="M94.4639 324.048C94.1404 337.92 86.0531 347.687 85.2692 385.909C84.9955 399.434 87.5585 412.585 88.4793 424.218C82.6564 418.37 59.0415 394.917 53.7536 388.92C51.8251 384.466 49.4984 380.273 46.8359 376.105C42.1825 368.839 36.7827 362.108 31.4824 355.314C32.1418 354.804 32.8635 354.406 33.6349 354.157C34.033 354.02 34.4436 353.921 34.8542 353.883C35.3146 353.834 35.7749 353.846 36.2353 353.921C36.6334 353.971 37.0316 354.083 37.4297 354.257C39.6693 355.215 40.9135 357.591 41.9959 359.793C44.6834 365.367 47.3957 370.917 50.1081 376.491C47.9059 368.055 45.7036 359.557 44.2479 350.972C43.5138 346.63 42.9788 342.275 42.73 337.871C42.1452 327.519 43.2774 316.881 47.0598 307.313C47.2091 306.927 47.3709 306.542 47.5451 306.168C48.4409 304.003 49.4984 301.913 50.6929 299.885C51.2777 298.902 52.0242 297.882 52.8827 297.136C52.8951 297.123 52.9076 297.098 52.92 297.098C53.8034 296.352 54.8236 295.879 55.9807 296.016C56.5157 296.065 56.9885 296.265 57.4116 296.538C58.5936 297.31 59.2903 298.803 59.6884 300.408C59.9 301.204 60.0244 302.038 60.1115 302.809C61.6792 317.441 63.2344 332.073 64.8021 346.692C65.1505 350.002 65.5113 353.311 65.8597 356.608C66.1459 353.423 66.4445 350.176 66.8426 346.941C67.4647 341.952 68.3108 336.975 69.7043 332.247C71.5457 325.926 74.3327 320.029 78.7496 315.114C80.4168 313.248 82.5942 311.481 84.9208 310.834C85.8913 310.548 86.9116 310.473 87.9069 310.635C88.0811 310.66 88.2553 310.697 88.4046 310.735C90.9677 311.394 92.8464 313.696 93.6925 316.209C94.5385 318.71 94.5261 321.41 94.4639 324.048Z" fill="white"/>
<path d="M446.832 217.904C447.205 226.116 442.427 237.624 434.066 236.206C432.698 235.982 431.441 235.447 430.185 234.887C431.466 228.853 428.331 221.873 431.702 216.796C433.544 213.997 438.073 208.858 441.32 208.622C445.675 208.299 446.583 213.387 446.832 217.904Z" fill="#CEF0FF"/>
<path d="M435.659 243.001C432.412 248.886 428.219 253.439 419.186 252.519C417.245 252.307 415.205 251.523 413.625 250.304C412.044 249.085 410.85 247.318 410.763 245.327C410.626 242.677 412.492 240.4 414.807 239.367C416.909 238.409 419.622 238.024 422.371 238.061C425.258 238.123 428.169 238.633 430.483 239.492C432.536 240.276 434.079 241.682 435.659 243.001Z" fill="#CEF0FF"/>
<path d="M429.811 235.207C434.75 241.055 439.714 246.828 444.368 252.788" stroke="#CEF0FF" stroke-miterlimit="10"/>
<path d="M474.611 253.344C474.623 257.761 472.931 262.75 470.231 266.159C467.544 269.581 463.848 271.472 459.854 270.19C458.548 269.767 457.391 269.058 456.209 268.374C457.217 265.5 457.105 262.178 457.105 258.968C457.067 255.795 457.229 252.684 458.946 250.121C460.85 247.334 465.267 242.022 468.763 242.183C473.404 242.445 474.71 248.442 474.611 253.344Z" fill="#CEF0FF"/>
<path d="M460.391 277.093C458.301 279.718 455.974 281.97 453.15 283.264C450.325 284.558 446.966 284.919 442.661 284.023C440.844 283.637 439.09 282.741 437.809 281.522C436.49 280.315 435.706 278.76 435.942 276.943C436.253 274.53 438.331 272.452 440.67 271.543C442.798 270.722 445.448 270.486 448.111 270.735C450.898 270.996 453.747 271.767 455.849 272.949C457.716 273.982 459.022 275.562 460.391 277.093Z" fill="#CEF0FF"/>
<path d="M444.365 252.797C448.77 258.309 452.764 264.094 456.645 269.954C460.366 275.914 463.961 281.961 467.109 288.257" stroke="#CEF0FF" stroke-miterlimit="10"/>
<path d="M496.685 294.457C494.807 303.141 486.52 312.249 479.018 308.255C477.786 307.608 476.753 306.725 475.758 305.804C476.529 304.473 477.077 302.98 477.462 301.437C477.836 299.907 478.084 298.314 478.383 296.746C478.98 293.623 479.752 290.587 481.954 288.41C484.368 286.046 489.668 281.716 493.127 282.525C497.594 283.67 497.668 289.779 496.685 294.457Z" fill="#CEF0FF"/>
<path d="M478.345 315.163C473.281 319.692 467.831 322.392 459.682 318.859C456.186 317.403 453.187 313.907 454.257 310.386C454.954 308.059 457.38 306.417 459.868 305.969C462.12 305.571 464.833 305.82 467.408 306.591C470.083 307.4 472.671 308.731 474.587 310.261C476.255 311.617 477.349 313.384 478.345 315.163Z" fill="#CEF0FF"/>
<path d="M467.113 288.238C473.508 300.767 478.747 313.906 483.251 327.294" stroke="#CEF0FF" stroke-miterlimit="10"/>
<path d="M511.752 338.574C510.159 343.004 506.75 347.047 502.955 349.187C499.161 351.34 495.03 351.626 491.82 348.914C490.737 348.03 489.941 346.948 489.107 345.878C491.148 343.576 492.218 340.465 493.263 337.355C494.283 334.22 495.378 331.457 497.854 329.604C500.542 327.613 506.476 324.117 509.724 325.348C511.876 326.194 512.747 327.974 512.946 330.338C513.27 333.237 512.61 336.136 511.752 338.574Z" fill="#CEF0FF"/>
<path d="M489.608 355.467C483.661 358.714 477.701 359.809 470.622 355.019C467.623 352.991 465.396 349.507 467.188 346.745C468.37 344.929 471.045 343.734 473.533 343.597C475.798 343.473 478.361 344.02 480.737 345.153C483.238 346.31 485.503 348.077 487.058 349.93C488.414 351.573 488.986 353.539 489.608 355.467Z" fill="#CEF0FF"/>
<path d="M483.248 327.301L486.483 337.391C487.516 340.676 488.25 344.06 488.909 347.482C490.203 354.337 490.975 361.33 491.31 368.31" stroke="#CEF0FF" stroke-miterlimit="10"/>
<path d="M515.318 387.097C512.569 390.78 508.164 393.791 503.946 394.799C499.679 395.831 495.673 394.948 493.296 391.464C492.525 390.319 492.039 389.063 491.529 387.794C496.78 384.521 498.982 376.907 504.693 374.754C507.853 373.622 514.559 371.843 517.297 374.132C520.967 377.193 518.317 383.116 515.318 387.097Z" fill="#CEF0FF"/>
<path d="M489.377 397.137C486.092 397.833 482.895 398.032 479.871 397.236C476.86 396.452 474.011 394.648 471.249 391.475C468.897 388.776 467.74 384.831 470.241 382.356C471.921 380.726 474.832 380.327 477.246 380.987C479.448 381.584 481.713 382.953 483.703 384.744C485.731 386.598 487.486 388.925 488.431 391.127C489.315 393.093 489.277 395.121 489.377 397.137Z" fill="#CEF0FF"/>
<path d="M491.319 368.332C491.99 382.304 490.908 396.414 487.25 409.826" stroke="#CEF0FF" stroke-miterlimit="10"/>
<path d="M502.934 436.402C500.831 437.721 498.504 438.717 496.091 439.252C493.652 439.774 491.251 439.849 489.098 439.463C484.793 438.692 481.546 436.091 480.837 431.948C480.625 430.604 480.663 429.248 480.687 427.892C483.736 427.444 486.498 425.615 489.26 423.861C491.972 422.094 494.71 420.414 497.77 420.327C501.142 420.302 508.11 420.688 509.864 423.935C512.29 428.303 507.388 433.541 502.934 436.402Z" fill="#CEF0FF"/>
<path d="M474.901 435.357C471.704 434.536 468.743 433.192 466.416 431.151C464.102 429.136 462.235 426.262 460.917 422.604C459.735 419.394 459.934 416.009 462.994 414.964C465.06 414.292 467.909 415.014 469.937 416.457C471.778 417.764 473.421 419.779 474.628 422.131C475.81 424.507 476.594 427.319 476.544 429.646C476.569 431.748 475.71 433.54 474.901 435.357Z" fill="#CEF0FF"/>
<path d="M487.253 409.814C485.375 416.496 482.849 422.966 479.539 429C476.205 435.022 472.037 440.534 467.135 445.324" stroke="#CEF0FF" stroke-miterlimit="10"/>
<path d="M469.873 474.933C465.742 475.219 460.678 474.261 456.921 472.096C453.151 469.931 450.7 466.609 451.359 462.453C451.571 461.085 452.093 459.816 452.641 458.559C458.687 459.766 465.63 456.456 470.744 459.791C472.1 460.724 474.227 462.167 476.019 463.809C477.823 465.439 479.117 467.455 479.08 469.271C479.515 473.552 474.451 474.572 469.873 474.933Z" fill="#CEF0FF"/>
<path d="M444.591 464.019C438.731 460.685 434.414 456.355 435.048 447.571C435.31 443.863 437.823 439.608 441.842 439.322C444.492 439.148 446.806 440.964 447.888 443.266C448.871 445.356 449.307 448.056 449.319 450.794C449.332 453.668 448.871 456.579 448.038 458.881C447.291 460.921 445.91 462.452 444.591 464.019Z" fill="#CEF0FF"/>
<path d="M467.136 445.318C465.967 446.575 464.586 447.608 463.329 448.765L459.223 452.211L451.123 459.204C448.436 461.518 445.761 463.82 443.024 466.009C441.655 467.104 440.274 468.187 438.88 469.232C437.499 470.252 436.068 471.297 434.588 472.442" stroke="#CEF0FF" stroke-miterlimit="10"/>
<path d="M439.335 500.776C437.506 500.863 435.478 500.801 433.35 500.514C431.235 500.228 428.995 499.718 427.005 498.984C423.061 497.553 419.651 494.965 419.552 490.772C419.515 489.391 419.826 488.035 420.174 486.679C426.395 486.94 432.815 483.319 438.016 486.666C440.865 488.396 445.991 492.838 446.613 495.898C446.825 496.906 446.713 497.678 446.364 498.275C446.053 498.909 445.493 499.37 444.772 499.706C443.329 500.353 441.313 500.651 439.335 500.776Z" fill="#CEF0FF"/>
<path d="M413.242 493.957C409.92 493.173 406.872 492.265 404.458 490.237C402.045 488.196 400.402 485.111 400.29 479.885C400.178 475.506 403.04 469.683 407.494 468.526C410.381 467.717 412.931 469.384 414.113 471.624C415.183 473.652 415.793 476.489 415.992 479.325C416.166 482.274 416.104 485.397 415.619 487.91C415.146 490.1 414.213 492.066 413.242 493.957Z" fill="#CEF0FF"/>
<path d="M434.594 472.443C422.911 481.302 413.418 492.886 406.762 505.9" stroke="#CEF0FF" stroke-miterlimit="10"/>
<path d="M423.182 529.539C419.984 531.256 415.592 532.774 411.275 533.16C406.994 533.52 402.951 532.662 401.035 528.892C400.425 527.66 400.039 526.279 399.865 524.923C405.564 522.497 409.893 516.525 416.003 517.271C419.312 517.595 425.844 519.374 427.723 521.912C430.224 525.197 426.603 527.548 423.182 529.539Z" fill="#CEF0FF"/>
<path d="M396.679 534.467C390.097 535.823 383.689 536.582 378.937 527.238C378.016 525.272 377.543 522.684 377.717 520.183C377.991 517.72 378.924 515.356 380.629 513.887C382.993 511.959 385.929 512.37 387.97 513.9C389.836 515.281 391.478 517.545 392.934 520.046C394.414 522.659 395.547 525.483 396.256 527.984C396.542 529.092 396.617 530.162 396.654 531.244C396.704 532.314 396.679 533.397 396.679 534.467Z" fill="#CEF0FF"/>
<path d="M406.756 505.887C400.099 518.889 396.242 533.371 395.906 548.04" stroke="#CEF0FF" stroke-miterlimit="10"/>
<path d="M439.488 290.376C439.525 292.678 439.065 295.029 438.231 297.144C437.447 299.247 436.228 301.126 434.822 302.557C431.998 305.418 428.39 306.488 424.943 304.858C423.774 304.336 422.778 303.614 421.82 302.868C422.977 300.367 423.052 297.294 423.015 294.295C422.977 291.309 422.94 288.298 424.259 285.834C425.789 283.172 429.186 277.722 432.72 278.071C435.108 278.295 436.813 280.148 437.958 282.525C439.015 284.926 439.525 287.825 439.488 290.376Z" fill="#CEF0FF"/>
<path d="M424.446 311.115C422.144 313.118 419.706 314.649 416.943 315.346C414.169 316.08 411.158 315.905 407.649 315.022C404.725 314.164 402.187 312.521 403.145 309.821C403.718 308.067 405.683 306.25 407.786 305.392C409.677 304.621 412.079 304.272 414.368 304.558C416.831 304.795 419.208 305.691 421.024 306.897C422.542 307.992 423.55 309.535 424.446 311.115Z" fill="#CEF0FF"/>
<path d="M421.311 303.143C424.757 309.749 426.984 316.381 428.129 322.191" stroke="#CEF0FF" stroke-miterlimit="10"/>
<path d="M451.791 337.306C449.551 341.088 445.744 344.161 441.962 345.343C438.155 346.55 434.459 345.965 432.095 342.917C431.336 341.922 430.801 340.802 430.254 339.682C434.82 336.36 436.139 329.131 441.016 326.456C443.753 325.05 449.589 322.512 452.338 324.466C456.034 327.116 454.23 333.25 451.791 337.306Z" fill="#CEF0FF"/>
<path d="M428.847 348.338C425.899 349.159 423 349.532 420.225 348.972C417.451 348.412 414.763 346.919 412.063 344.232C410.906 343.099 410.023 341.656 409.662 340.288C409.289 338.931 409.5 337.588 410.533 336.468C411.951 334.987 414.527 334.39 416.791 334.751C418.832 335.074 420.984 336.082 422.938 337.513C424.916 339.006 426.683 340.972 427.665 342.925C428.574 344.642 428.661 346.496 428.847 348.338Z" fill="#CEF0FF"/>
<path d="M428.124 322.18C429.418 328.376 429.878 334.746 429.779 341.092C429.617 347.449 428.883 353.82 427.639 360.103" stroke="#CEF0FF" stroke-miterlimit="10"/>
<path d="M444.797 381.861C441.637 384.449 437.182 386.117 433.213 386.179C429.244 386.241 425.798 384.736 424.404 381.152C423.932 379.97 423.757 378.739 423.596 377.507C428.921 375.64 432.504 369.407 438.053 368.76C441.089 368.449 447.397 368.337 449.326 370.975C451.889 374.496 448.293 379.087 444.797 381.861Z" fill="#CEF0FF"/>
<path d="M419.812 385.52C413.666 385.644 408.291 384.176 404.758 376.972C403.277 373.924 403.103 369.856 405.915 368.114C407.756 366.957 410.419 367.218 412.409 368.35C414.214 369.37 415.955 371.1 417.299 373.14C418.73 375.268 419.75 377.719 420.161 379.909C420.509 381.837 420.148 383.679 419.812 385.52Z" fill="#CEF0FF"/>
<path d="M427.653 360.115C425.177 372.694 420.909 384.925 415.883 396.844" stroke="#CEF0FF" stroke-miterlimit="10"/>
<path d="M429.644 420.306C426.384 422.073 422.004 423.069 418.085 422.82C414.178 422.571 410.732 421.028 409.562 417.345C409.189 416.138 409.102 414.882 409.064 413.625C414.514 412.219 418.931 406.794 424.505 407.23C427.541 407.479 433.7 408.686 435.193 411.435C437.159 415.118 433.202 418.378 429.644 420.306Z" fill="#CEF0FF"/>
<path d="M404.748 421.6C398.639 421.65 392.94 420.741 390.091 412.268C388.897 408.698 389.506 403.721 392.692 401.967C394.807 400.797 397.395 401.407 399.199 402.862C400.829 404.181 402.247 406.234 403.305 408.511C404.424 410.887 405.171 413.525 405.407 415.814C405.606 417.83 405.121 419.696 404.748 421.6Z" fill="#CEF0FF"/>
<path d="M415.881 396.834C410.88 408.741 404.895 420.536 401.324 433.451" stroke="#CEF0FF" stroke-miterlimit="10"/>
<path d="M420.528 450.941C418.115 452.882 414.556 454.972 410.923 456.328C407.34 457.634 403.495 458.057 400.895 455.183C400.024 454.25 399.489 453.106 398.941 451.924C401.231 450.194 402.91 447.793 404.876 445.777C406.805 443.762 408.932 442.132 411.67 441.883C414.693 441.559 420.864 441.958 422.992 443.811C425.829 446.213 423.116 448.738 420.528 450.941Z" fill="#CEF0FF"/>
<path d="M398.554 461.292C395.891 462.873 393.328 464.341 390.467 464.515C387.63 464.677 384.432 463.507 381.173 459.488C378.373 456.117 376.992 449.647 379.567 446.088C381.235 443.712 383.947 443.488 386.075 444.446C388.003 445.317 389.969 447.084 391.723 449.05C393.602 451.127 395.257 453.442 396.464 455.544C397.484 457.398 397.944 459.364 398.554 461.292Z" fill="#CEF0FF"/>
<path d="M401.329 433.459C399.549 439.904 398.454 446.623 398.479 453.416C398.504 460.197 394.423 474.916 400.221 523.216" stroke="#CEF0FF" stroke-miterlimit="10"/>
<path d="M363.876 185.645V321.375L303.856 390.602C294.462 400.73 283.053 408.78 270.325 414.142C264.539 416.581 257.646 417.253 257.186 417.688C253.764 420.948 215.903 475.73 195.76 505.019C183.753 497.628 172.045 489.777 160.686 481.578C141.562 467.78 123.011 452.551 106.016 435.904L170.316 348.772C181.352 321.375 179.934 305.797 182.833 278.45C185.371 254.437 191.89 234.579 192.55 226.281C192.786 223.357 195.163 188.183 195.212 185.247C195.299 181.377 200.239 172.22 201.11 168.45C208.525 136.648 214.448 131.883 222.796 136.698C224.028 137.407 235.226 143.666 225.272 179.81C222.995 188.096 226.193 241.186 226.193 241.186L363.876 185.645Z" fill="white"/>
<path d="M279.363 377.53C257.863 385.867 233.614 389.126 211.703 381.96C220.811 389.997 229.906 398.035 239.013 406.072C243.38 409.929 247.909 413.886 253.421 415.765C262.79 418.962 273.142 415.566 281.789 410.751C305.068 397.786 321.255 375.328 336.658 353.58C339.806 349.138 342.854 341.959 334.929 345.953C328.558 349.163 322.686 354.239 316.639 358.059C304.794 365.549 292.477 372.442 279.363 377.53Z" fill="#CDEFFF"/>
<path opacity="0.5" d="M279.363 377.53C257.863 385.867 233.614 389.126 211.703 381.96C220.811 389.997 229.906 398.035 239.013 406.072C243.38 409.929 247.909 413.886 253.421 415.765C262.79 418.962 273.142 415.566 281.789 410.751C305.068 397.786 321.255 375.328 336.658 353.58C339.806 349.138 342.854 341.959 334.929 345.953C328.558 349.163 322.686 354.239 316.639 358.059C304.794 365.549 292.477 372.442 279.363 377.53Z" fill="white"/>
<path d="M216.418 186.779C229.519 205.193 222.415 240.715 217.986 247.682C217.986 247.682 226.745 315.578 244.027 341.445C252.873 297.114 255.536 251.564 251.915 206.512C250.186 184.962 243.081 155.263 227.79 139.984C227.79 139.972 226.919 174.125 216.418 186.779Z" fill="#CDEFFF"/>
<g opacity="0.5">
<path opacity="0.5" d="M216.418 186.779C229.519 205.193 222.415 240.715 217.986 247.682C217.986 247.682 226.745 315.578 244.027 341.445C252.873 297.114 255.536 251.564 251.915 206.512C250.186 184.962 243.081 155.263 227.79 139.984C227.79 139.972 226.919 174.125 216.418 186.779Z" fill="white"/>
</g>
<path d="M227.683 355.999C230.159 363.937 232.635 371.888 235.111 379.826C251.833 377.798 268.692 377.001 285.538 377.449C294.198 377.686 302.969 378.233 311.442 376.404C319.915 374.588 328.239 369.984 332.332 362.345C335.045 357.293 335.194 350.064 330.541 346.717C327.866 344.789 324.307 344.652 321.023 344.839C310.347 345.424 299.971 348.559 289.358 349.828C278.745 351.11 267.199 350.263 258.651 343.831C253.027 339.601 249.27 333.38 244.268 328.428C239.926 324.135 228.516 317.23 223.788 324.048C218.7 331.377 225.381 348.634 227.683 355.999Z" fill="#CDEFFF"/>
<path opacity="0.5" d="M227.683 355.999C230.159 363.937 232.635 371.888 235.111 379.826C251.833 377.798 268.692 377.001 285.538 377.449C294.198 377.686 302.969 378.233 311.442 376.404C319.915 374.588 328.239 369.984 332.332 362.345C335.045 357.293 335.194 350.064 330.541 346.717C327.866 344.789 324.307 344.652 321.023 344.839C310.347 345.424 299.971 348.559 289.358 349.828C278.745 351.11 267.199 350.263 258.651 343.831C253.027 339.601 249.27 333.38 244.268 328.428C239.926 324.135 228.516 317.23 223.788 324.048C218.7 331.377 225.381 348.634 227.683 355.999Z" fill="white"/>
<path d="M199.83 386.91C197.877 393.144 194.418 398.78 190.996 404.354C179.425 423.179 167.854 442.004 156.283 460.841C186.928 428.828 199.942 406.843 219.165 386.985C218.22 389.038 205.417 375.215 205.006 375.078C199.221 373.162 201.211 382.494 199.83 386.91Z" fill="#CDEFFF"/>
<g opacity="0.5">
<g opacity="0.5">
<path opacity="0.5" d="M199.83 386.91C197.877 393.144 194.418 398.78 190.996 404.354C179.425 423.179 167.854 442.004 156.283 460.841C186.928 428.828 199.942 406.843 219.165 386.985C218.22 389.038 205.417 375.215 205.006 375.078C199.221 373.162 201.211 382.494 199.83 386.91Z" fill="white"/>
</g>
</g>
<path d="M198.236 442.083C204.196 434.295 210.168 426.506 216.128 418.705C221.752 411.364 228.371 403.426 237.553 402.331C233.198 402.854 229.03 391.668 223.655 392.589C219.052 393.385 216.974 402.879 215.319 406.561C209.944 418.568 204.246 430.413 198.236 442.083Z" fill="#CDEFFF"/>
<path opacity="0.5" d="M198.236 442.083C204.196 434.295 210.168 426.506 216.128 418.705C221.752 411.364 228.371 403.426 237.553 402.331C233.198 402.854 229.03 391.668 223.655 392.589C219.052 393.385 216.974 402.879 215.319 406.561C209.944 418.568 204.246 430.413 198.236 442.083Z" fill="white"/>
<path d="M171.436 512.763C176.089 516.57 180.742 520.389 185.395 524.197C214.721 491.885 239.792 455.728 259.761 416.922C256.576 415.466 253.603 416.262 244.283 408.772C241.733 406.732 207.928 468.096 171.436 512.763Z" fill="#CDEFFF"/>
<path opacity="0.5" d="M171.436 512.763C176.089 516.57 180.742 520.389 185.395 524.197C214.721 491.885 239.792 455.728 259.761 416.922C256.576 415.466 253.603 416.262 244.283 408.772C241.733 406.732 207.928 468.096 171.436 512.763Z" fill="white"/>
<path d="M106.016 435.904L170.316 348.772C181.352 321.375 179.934 305.797 182.833 278.45C185.371 254.437 191.89 234.579 192.55 226.281C192.786 223.357 195.163 188.183 195.212 185.247C195.299 181.377 200.239 172.22 201.11 168.45C208.525 136.648 214.448 131.883 222.796 136.698C224.028 137.407 237.353 143.666 227.4 179.81C225.123 188.096 227.81 240.539 227.81 240.539L363.876 185.645V321.375L303.856 390.602C294.462 400.73 283.053 408.78 270.325 414.142C264.539 416.581 257.646 417.253 257.186 417.688C253.764 420.948 215.903 475.73 195.76 505.019" stroke="#263238" stroke-miterlimit="10"/>
<path d="M367.255 172.923C368.748 172.226 370.129 171.691 371.361 171.268C376.362 169.588 383.342 168.829 387.697 171.815C392.549 175.15 395.349 186.883 384.139 195.032C384.139 195.032 375.653 201.763 362.216 207.076C358.744 208.445 354.775 208.32 351.503 206.504C349.537 205.409 347.87 203.791 347.771 201.44C347.236 187.766 354.838 178.708 367.255 172.923Z" fill="white"/>
<path d="M363.309 180.91C361.766 186.173 362.525 191.809 363.309 197.246C363.719 200.095 364.503 203.442 367.178 204.512C369.567 205.458 372.18 204.039 374.295 202.584C378.289 199.834 382.146 196.686 384.684 192.543C387.222 188.412 388.267 183.124 386.438 178.633C381.723 167.024 366.469 170.16 363.309 180.91Z" fill="#1f527d"/>
<path opacity="0.5" d="M363.309 180.91C361.766 186.173 362.525 191.809 363.309 197.246C363.719 200.095 364.503 203.442 367.178 204.512C369.567 205.458 372.18 204.039 374.295 202.584C378.289 199.834 382.146 196.686 384.684 192.543C387.222 188.412 388.267 183.124 386.438 178.633C381.723 167.024 366.469 170.16 363.309 180.91Z" fill="white"/>
<path d="M367.255 172.923C368.748 172.226 370.129 171.691 371.361 171.268C376.362 169.588 383.342 168.829 387.697 171.815C392.549 175.15 395.349 186.883 384.139 195.032C384.139 195.032 375.653 201.763 362.216 207.076C358.744 208.445 354.775 208.32 351.503 206.504C349.537 205.409 347.87 203.791 347.771 201.44C347.236 187.766 354.838 178.708 367.255 172.923Z" stroke="#263238" stroke-miterlimit="10"/>
<path d="M365.485 236.322L345.678 246.213V215.917L369.84 204.682C369.84 204.682 357.535 221.366 365.485 236.322Z" stroke="#263238" stroke-miterlimit="10"/>
<path d="M358.729 247.865L345.678 255.106V289.036L367.09 281.135L369.84 249.968C369.84 249.955 366.506 248.525 358.729 247.865Z" stroke="#263238" stroke-miterlimit="10"/>
<path d="M368.049 94.415V337.955C368.049 348.07 359.837 356.282 349.722 356.282H237.794C227.679 356.282 219.467 348.07 219.467 337.955V94.415C219.467 84.2872 227.679 76.0879 237.794 76.0879H349.722C351.078 76.0879 352.397 76.2372 353.679 76.5234C361.89 78.3275 368.049 85.6434 368.049 94.415Z" fill="#263238"/>
<path d="M342.193 348.746H245.382C235.266 348.746 227.055 340.547 227.055 330.419V101.772C227.055 91.657 235.254 83.4453 245.382 83.4453H342.205C352.321 83.4453 360.533 91.6446 360.533 101.772V330.419C360.52 340.534 352.321 348.746 342.193 348.746Z" fill="#1f527d"/>
<path d="M317.51 98.9081H273.129C265.739 98.9081 259.754 92.9235 259.754 85.5329V83.4551H330.885V85.5329C330.885 92.911 324.9 98.9081 317.51 98.9081Z" fill="#263238"/>
<path d="M271.997 94.0374C273.901 94.0374 275.444 92.4944 275.444 90.591C275.444 88.6876 273.901 87.1445 271.997 87.1445C270.094 87.1445 268.551 88.6876 268.551 90.591C268.551 92.4944 270.094 94.0374 271.997 94.0374Z" fill="white" stroke="#263238" stroke-miterlimit="10"/>
<path d="M304.96 94.7137H285.675C284.032 94.7137 282.701 93.3824 282.701 91.7401V90.8194C282.701 89.177 284.032 87.8457 285.675 87.8457H304.96C306.602 87.8457 307.934 89.177 307.934 90.8194V91.7401C307.946 93.3824 306.615 94.7137 304.96 94.7137Z" fill="white" stroke="#263238" stroke-miterlimit="10"/>
<path d="M359.517 221.399C358.783 225.517 359.99 229.859 362.802 233.281C365.626 236.702 370.031 239.153 374.858 239.987C378.541 240.622 382.846 240.161 385.235 237.71C387.313 235.57 387.375 232.547 387.35 229.772C387.275 223.004 385.546 213.747 376.239 211.632C368.575 209.902 360.637 215.128 359.517 221.399Z" fill="white"/>
<path d="M359.507 219.329C358.126 223.97 359.756 229.195 363.028 232.766C366.3 236.337 370.978 238.39 375.756 239.186C376.801 237.183 375.171 234.906 373.964 232.99C371.812 229.618 370.754 225.575 370.966 221.581C371.065 219.777 371.762 217.599 373.541 217.263C375.121 216.952 376.577 218.396 377.05 219.938C377.523 221.481 377.349 223.136 377.535 224.729C377.722 226.334 378.468 228.063 379.974 228.61C380.098 224.965 380.061 221.195 378.667 217.823C374.897 208.591 362.269 210.072 359.507 219.329Z" fill="#1f527d"/>
<path opacity="0.5" d="M359.507 219.329C358.126 223.97 359.756 229.195 363.028 232.766C366.3 236.337 370.978 238.39 375.756 239.186C376.801 237.183 375.171 234.906 373.964 232.99C371.812 229.618 370.754 225.575 370.966 221.581C371.065 219.777 371.762 217.599 373.541 217.263C375.121 216.952 376.577 218.396 377.05 219.938C377.523 221.481 377.349 223.136 377.535 224.729C377.722 226.334 378.468 228.063 379.974 228.61C380.098 224.965 380.061 221.195 378.667 217.823C374.897 208.591 362.269 210.072 359.507 219.329Z" fill="white"/>
<path d="M359.517 221.399C358.783 225.517 359.99 229.859 362.802 233.281C365.626 236.702 370.031 239.153 374.858 239.987C378.541 240.622 382.846 240.161 385.235 237.71C387.313 235.57 387.375 232.547 387.35 229.772C387.275 223.004 385.546 213.747 376.239 211.632C368.575 209.902 360.637 215.128 359.517 221.399Z" stroke="#263238" stroke-miterlimit="10"/>
<path d="M367.428 299.326L353.679 309.74C353.679 309.74 345.144 323.675 361.692 327.27L375.95 323.177C382.781 321.211 387.845 315.127 387.944 308.023C388.044 301.341 384.025 294.274 367.564 292.682L367.428 299.326Z" fill="white"/>
<path d="M364.293 305.172C364.306 306.317 364.915 307.375 365.463 308.382C368.262 313.546 370.054 319.257 370.701 325.092C370.228 320.874 372.58 315.425 372.455 310.896C372.331 306.342 371.908 300.432 369.519 296.562C368.15 298.852 364.256 302.336 364.293 305.172Z" fill="#1f527d"/>
<path opacity="0.5" d="M364.293 305.172C364.306 306.317 364.915 307.375 365.463 308.382C368.262 313.546 370.054 319.257 370.701 325.092C370.228 320.874 372.58 315.425 372.455 310.896C372.331 306.342 371.908 300.432 369.519 296.562C368.15 298.852 364.256 302.336 364.293 305.172Z" fill="white"/>
<path d="M367.428 299.326L353.679 309.74C353.679 309.74 345.144 323.675 361.692 327.27L375.95 323.177C382.781 321.211 387.845 315.127 387.944 308.023C388.044 301.341 384.025 294.274 367.564 292.682L367.428 299.326Z" stroke="#263238" stroke-miterlimit="10"/>
<path d="M362.487 258.54L349.721 272.313C349.721 272.313 343.202 288.873 361.628 289.595L376.024 282.565C383.215 279.057 388.578 272.425 389.946 264.537C391.315 256.574 388.304 248.499 369.355 249.992L362.487 258.54Z" fill="white"/>
<path d="M363.382 288.008C364.638 289.09 366.766 288.306 367.599 286.876C368.433 285.432 368.334 283.653 368.122 282.011C367.811 279.485 364.626 262.514 360.756 264.592C358.442 265.836 362.934 284.959 363.382 288.008Z" fill="#1f527d"/>
<path opacity="0.5" d="M363.382 288.008C364.638 289.09 366.766 288.306 367.599 286.876C368.433 285.432 368.334 283.653 368.122 282.011C367.811 279.485 364.626 262.514 360.756 264.592C358.442 265.836 362.934 284.959 363.382 288.008Z" fill="white"/>
<path d="M362.487 258.54L349.721 272.313C349.721 272.313 343.202 288.873 361.628 289.595L376.024 282.565C383.215 279.057 388.578 272.425 389.946 264.537C391.315 256.574 388.304 248.499 369.355 249.992L362.487 258.54Z" stroke="#263238" stroke-miterlimit="10"/>
<path d="M361.593 268.693C357.648 269.378 354.948 274.043 356.317 277.801C357.673 281.558 362.737 283.412 366.208 281.409" stroke="#263238" stroke-miterlimit="10"/>
<path d="M365.847 310.182C361.915 309.548 358.12 313.965 359.339 317.76C360.559 321.554 366.207 322.935 369.044 320.124" fill="white"/>
<path d="M365.847 310.182C361.915 309.548 358.12 313.965 359.339 317.76C360.559 321.554 366.207 322.935 369.044 320.124" stroke="#263238" stroke-miterlimit="10"/>
<path d="M202.012 176.746C208.009 177.231 214.168 175.365 218.896 171.645" stroke="#263238" stroke-miterlimit="10"/>
<path d="M216.618 234.006C211.815 237.95 205.644 240.19 199.436 240.264" stroke="#263238" stroke-miterlimit="10"/>
<path d="M234 355.229C231.288 363.055 225.876 369.923 218.908 374.389" stroke="#263238" stroke-miterlimit="10"/>
<path d="M310.88 168.863C318.638 159.442 317.289 145.515 307.868 137.757C298.446 129.999 284.52 131.348 276.762 140.769C269.004 150.191 270.352 164.117 279.774 171.875C289.195 179.633 303.122 178.285 310.88 168.863Z" stroke="white" stroke-miterlimit="10"/>
<path d="M289.979 167.227L278.844 155.208L281.581 152.67L290.141 161.902L307.51 145.18L310.098 147.867L289.979 167.227Z" fill="white"/>
<path d="M294.953 292.523C314.269 292.523 329.927 276.865 329.927 257.549C329.927 238.233 314.269 222.574 294.953 222.574C275.637 222.574 259.979 238.233 259.979 257.549C259.979 276.865 275.637 292.523 294.953 292.523Z" fill="white"/>
<path d="M307.857 233.838L318.445 244.426L305.667 257.204L318.445 269.982L307.857 280.57L295.079 267.792L282.301 280.57L271.713 269.982L284.491 257.204L271.713 244.426L282.301 233.838L295.079 246.603L307.857 233.838Z" fill="#1f527d"/>
<path d="M278.168 206.85V208.181H276.6V206.763C276.6 205.431 276.078 204.623 274.871 204.623C273.689 204.623 273.142 205.431 273.142 206.763V214.576C273.142 215.908 273.689 216.716 274.871 216.716C276.078 216.716 276.6 215.908 276.6 214.576V212.648H278.168V214.489C278.168 216.729 277.111 218.209 274.834 218.209C272.569 218.209 271.512 216.729 271.512 214.489V206.837C271.512 204.598 272.569 203.117 274.834 203.117C277.111 203.142 278.168 204.61 278.168 206.85Z" fill="white"/>
<path d="M281.34 215.101L280.768 218.075H279.25L282.087 203.281H284.476L287.312 218.075H285.658L285.085 215.101H281.34V215.101ZM281.552 213.683H284.849L283.182 205.148L281.552 213.683Z" fill="white"/>
<path d="M290.049 218.075H288.568V203.281H290.659L294.08 213.969V203.281H295.536V218.075H293.819L290.037 206.118V218.075H290.049Z" fill="white"/>
<path d="M303.762 206.85V208.181H302.194V206.763C302.194 205.431 301.672 204.623 300.465 204.623C299.283 204.623 298.735 205.431 298.735 206.763V214.576C298.735 215.908 299.283 216.716 300.465 216.716C301.672 216.716 302.194 215.908 302.194 214.576V212.648H303.762V214.489C303.762 216.729 302.704 218.209 300.427 218.209C298.163 218.209 297.105 216.729 297.105 214.489V206.837C297.105 204.598 298.163 203.117 300.427 203.117C302.704 203.142 303.762 204.61 303.762 206.85Z" fill="white"/>
<path d="M310.532 209.839V211.32H306.924V216.583H311.365V218.088H305.281V203.295H311.365V204.8H306.924V209.852H310.532V209.839Z" fill="white"/>
<path d="M312.867 218.075V203.281H314.51V216.569H318.74V218.075H312.867V218.075Z" fill="white"/>
<path opacity="0.2" d="M274.53 86.1348L227.785 146.578V104.462C227.785 94.3341 235.997 86.1348 246.112 86.1348H274.53V86.1348Z" fill="white"/>
<path opacity="0.2" d="M362.011 86.1698L227.799 254.336V189.264L313.773 85.7344H358.054C359.41 85.7344 360.729 85.8837 362.011 86.1698Z" fill="white"/>
<path opacity="0.2" d="M360 265.008V293.176L352.485 302.396L312.969 350.845L306.823 358.385H282.449L288.708 350.845L352.485 274.053L360 265.008Z" fill="white"/>
</svg>
