<svg width="558" height="560" viewBox="0 0 558 560" fill="none" xmlns="http://www.w3.org/2000/svg">
<path d="M454.401 58.1777L504.875 58.1777V43.3067L454.401 43.3067V58.1777Z" fill="#EBEBEB"/>
<path d="M482.548 24.5566C490.961 24.4237 512.171 24.0915 520.304 23.9985L533.035 23.9453H533.647V24.5566L533.7 39.4277V40.0921H533.035L507.798 39.9991C501.512 39.946 488.847 39.8131 482.561 39.72H482.256V39.4277L482.548 24.5566ZM482.548 24.5566L482.841 39.4277L482.548 39.1353C488.847 39.0423 501.499 38.9094 507.785 38.8562L533.022 38.7632L532.358 39.4277L532.411 24.5566L533.022 25.168L520.503 25.1148C512.516 25.0218 490.828 24.6895 482.548 24.5566Z" fill="#EBEBEB"/>
<path d="M426.23 24.5566C434.642 24.4237 455.852 24.0915 463.986 23.9985L476.717 23.9453H477.328V24.5566L477.381 39.4277V40.0921H476.717L451.48 39.9991C445.194 39.946 432.529 39.8131 426.243 39.72H425.938V39.4277L426.23 24.5566ZM426.23 24.5566L426.522 39.4277L426.23 39.1353C432.529 39.0423 445.181 38.9094 451.467 38.8562L476.704 38.7632L476.039 39.4277L476.092 24.5566L476.704 25.168L464.185 25.1148C456.198 25.0218 434.509 24.6895 426.23 24.5566Z" fill="#EBEBEB"/>
<path d="M24.8838 24.5566C33.2961 24.4237 54.5063 24.0915 62.6395 23.9985L75.3576 23.9453H75.9689V24.5566L76.0221 39.4277V40.0921H75.3576L50.1207 39.9991C43.8347 39.946 31.1698 39.8131 24.8838 39.72H24.5781V39.4277L24.8838 24.5566ZM24.8838 24.5566L25.1762 39.4277L24.8838 39.1353C31.183 39.0423 43.8347 38.9094 50.1207 38.8562L75.3576 38.7632L74.6931 39.4277L74.7463 24.5566L75.3576 25.168L62.8388 25.1148C54.8385 25.0218 33.1499 24.6895 24.8838 24.5566Z" fill="#EBEBEB"/>
<path d="M53.0438 476.191H103.518V461.32H53.0438V476.191Z" fill="#EBEBEB"/>
<path d="M24.8838 442.584C33.2961 442.451 54.5063 442.119 62.6395 442.026L75.3576 441.973H75.9689V442.584L76.0221 457.455V458.119H75.3576L50.1207 458.026C43.8347 457.973 31.1698 457.84 24.8838 457.747H24.5781V457.455L24.8838 442.584ZM24.8838 442.584L25.1762 457.455L24.8838 457.163C31.183 457.07 43.8347 456.937 50.1207 456.884L75.3576 456.791L74.6931 457.455L74.7463 442.584L75.3576 443.195L62.8388 443.142C54.8385 443.049 33.1499 442.717 24.8838 442.584Z" fill="#EBEBEB"/>
<path d="M127.442 138.885C135.855 138.752 157.065 138.42 165.198 138.327L177.916 138.273H178.528V138.885L178.581 153.756V154.42H177.916L152.679 154.327C146.393 154.274 133.728 154.141 127.442 154.048H127.137V153.756L127.442 138.885ZM127.442 138.885L127.735 153.756L127.442 153.463C133.742 153.37 146.393 153.238 152.679 153.184L177.916 153.091L177.252 153.756L177.305 138.885L177.916 139.496L165.397 139.443C157.397 139.363 135.722 139.018 127.442 138.885Z" fill="#EBEBEB"/>
<path d="M482.548 461.307C490.961 461.174 512.171 460.842 520.304 460.748L533.035 460.695H533.647V461.307L533.7 476.178V476.842H533.035L507.798 476.749C501.512 476.696 488.847 476.563 482.561 476.47H482.256V476.178L482.548 461.307ZM482.548 461.307L482.841 476.178L482.548 475.885C488.847 475.792 501.499 475.659 507.785 475.606L533.022 475.513L532.358 476.178L532.411 461.307L533.022 461.918L520.503 461.865C512.516 461.785 490.828 461.44 482.548 461.307Z" fill="#EBEBEB"/>
<path d="M329.214 219.328H278.74V234.199H329.214V219.328Z" fill="#EBEBEB"/>
<path d="M301.052 252.948C292.64 253.081 271.43 253.413 263.296 253.506L250.565 253.559H249.954V252.948L249.9 238.077V237.412H250.565L275.802 237.505C282.088 237.558 294.753 237.691 301.039 237.784H301.344V238.077L301.052 252.948ZM301.052 252.948L300.76 238.077L301.052 238.369C294.753 238.462 282.101 238.595 275.815 238.648L250.578 238.741L251.243 238.077L251.189 252.948L250.578 252.336L263.097 252.389C271.097 252.482 292.773 252.828 301.052 252.948Z" fill="#EBEBEB"/>
<path fill-rule="evenodd" clip-rule="evenodd" d="M270.327 103.384C267.629 104.553 265.144 106.48 261.874 105.669C260.625 105.35 260.745 106.44 260.639 107.131C258.738 119.557 256.851 131.969 254.964 144.382C254.831 145.286 254.765 146.03 255.682 146.681C264.439 152.901 267.124 162.934 271.722 171.865C276.639 181.393 277.357 191.015 274.327 201.089C273.503 203.826 274.619 205.275 277.051 206.232C279.975 207.388 283.124 207.002 284.48 205.075C287.816 200.291 290.832 195.254 292.361 189.62C293.623 184.995 292.627 180.144 292.746 175.4C292.826 171.918 292.547 168.436 292.427 164.874C293.344 164.396 294.274 164.861 295.165 164.981C305.664 166.562 316.149 168.157 326.648 169.752C331.073 170.416 333.426 169.486 334.489 166.642C335.804 163.094 334.436 159.093 331.299 156.848C330.582 156.329 329.106 156.475 329.186 155.226C329.279 153.964 330.728 154.309 331.525 153.911C335.725 151.877 335.831 146.402 331.911 142.628C330.967 141.724 328.867 141.764 329.053 140.196C329.213 138.96 331.14 139.265 332.136 138.521C335.658 135.956 334.994 130.069 330.768 127.092C330.223 126.707 329.505 126.547 329.027 126.095C328.562 125.67 328.11 125.192 329.226 124.634C334.263 122.082 334.847 117.537 330.781 113.55C330.382 113.165 329.97 112.753 329.558 112.367C328.083 110.892 326.116 110.613 324.216 110.321C307.763 107.796 291.311 105.311 274.858 102.825C273.303 102.599 271.735 102.413 270.327 103.384Z" fill="#EBEBEB"/>
<path fill-rule="evenodd" clip-rule="evenodd" d="M220.212 118.188C219.016 126.082 217.86 133.976 216.597 141.856C216.345 143.465 216.385 144.275 218.352 144.554C228 145.897 237.608 147.358 247.216 148.927C249.104 149.232 249.489 148.621 249.742 146.946C252.094 131.052 254.486 115.171 256.984 99.3033C257.303 97.2832 256.838 96.632 254.805 96.353C245.449 95.0373 236.106 93.6552 226.804 92.087C224.491 91.7016 224.039 92.4591 223.76 94.5057C222.684 102.413 221.421 110.294 220.212 118.188Z" fill="#EBEBEB"/>
<path fill-rule="evenodd" clip-rule="evenodd" d="M45.1048 265.782C47.2976 266.021 49.517 266.858 51.6699 265.543C52.4938 265.038 52.6533 265.848 52.8792 266.314C56.999 274.806 61.1188 283.298 65.2253 291.79C65.5309 292.401 65.7303 292.933 65.2253 293.597C60.3214 300.003 60.6271 307.804 59.3114 315.233C57.9027 323.166 59.524 330.223 63.9362 336.788C65.1322 338.569 64.6538 339.858 63.1255 341.081C61.2782 342.556 58.9393 342.981 57.5439 341.905C54.0886 339.22 50.8061 336.27 48.4538 332.562C46.5268 329.519 46.1547 325.824 45.0118 322.449C44.1746 319.977 43.6031 317.399 42.8988 314.834C42.128 314.701 41.5698 315.233 40.9585 315.512C33.7821 318.98 26.6058 322.449 19.4294 325.931C16.3994 327.392 14.499 327.246 13.1168 325.439C11.3892 323.193 11.4822 320.003 13.2364 317.704C13.6351 317.173 14.7249 316.947 14.3926 316.083C14.0471 315.193 13.0903 315.764 12.4258 315.658C8.97049 315.126 7.66811 311.232 9.64826 307.644C10.1267 306.794 11.6417 306.342 11.1633 305.265C10.7646 304.415 9.4622 305.053 8.58509 304.747C5.48862 303.697 4.65138 299.312 7.03021 296.242C7.33587 295.843 7.81429 295.564 8.05351 295.139C8.29272 294.727 8.51864 294.288 7.58837 294.129C3.40216 293.411 1.98017 290.288 4.01348 286.527C4.21282 286.155 4.41217 285.783 4.6248 285.397C5.35573 284.015 6.71126 283.377 8.00035 282.74C19.2433 277.264 30.4996 271.829 41.7559 266.393C42.7925 265.875 43.8822 265.397 45.1048 265.782Z" fill="#EBEBEB"/>
<path fill-rule="evenodd" clip-rule="evenodd" d="M84.3481 265.263C86.9661 270.658 89.5443 276.067 92.2022 281.436C92.7471 282.526 92.8933 283.124 91.5378 283.762C84.9196 286.872 78.3412 290.048 71.7894 293.317C70.5004 293.955 70.0884 293.61 69.5435 292.453C64.3207 281.569 59.0713 270.712 53.7688 259.881C53.091 258.498 53.2771 257.927 54.6725 257.276C61.0913 254.259 67.4836 251.176 73.8095 248C75.3909 247.202 75.8693 247.654 76.5338 249.05C79.0721 254.498 81.73 259.867 84.3481 265.263Z" fill="#EBEBEB"/>
<path d="M0 559.383C178.718 558.572 379.191 558.559 557.896 559.383C379.191 560.206 178.705 560.206 0 559.383Z" fill="#263238"/>
<path d="M398.64 247.329C390.72 245.096 386.175 236.976 388.487 228.79L418.601 122.168C420.834 114.247 429.034 109.436 436.954 111.682C444.875 113.915 449.606 122.38 447.36 130.301L417.246 236.923C414.947 245.096 406.561 249.561 398.64 247.329ZM374.626 277.882L376.114 272.606C378.347 264.685 386.547 259.874 394.467 262.12C402.388 264.353 407.119 272.818 404.886 280.739L403.398 286.015C401.086 294.201 392.7 298.666 384.793 296.434C376.859 294.188 372.314 286.055 374.626 277.882Z" fill="#1f527d"/>
<path d="M355.463 167.046C349.031 167.219 343.755 162.222 343.569 155.577L341.204 69.0489C341.031 62.6167 346.028 57.1281 352.447 56.9553C358.865 56.7826 364.367 61.9921 364.54 68.411L366.906 154.939C367.105 161.584 361.882 166.873 355.463 167.046ZM344.659 195.419L344.539 191.14C344.366 184.721 349.363 179.219 355.782 179.047C362.201 178.874 367.703 184.083 367.876 190.502L367.995 194.782C368.181 201.426 362.959 206.702 356.54 206.888C350.121 207.061 344.845 202.064 344.659 195.419Z" fill="#1f527d"/>
<path d="M167.008 27.2171L160.217 14.3129L165.825 12.5719L161.267 1.75422L167.247 0L168.616 14.4458L163.499 15.4824L167.008 27.2171Z" fill="#455A64"/>
<path d="M171.697 32.6407L174.701 21.2249L177.97 22.9127L182.316 15.7363L185.851 17.464L178.887 26.5009L176.096 24.0689L171.697 32.6407Z" fill="#455A64"/>
<path d="M164.017 33.0119L153.784 28.6795L156.016 25.3836L147.963 21.317L149.558 17.1973L158.807 24.7856L156.601 27.5897L164.017 33.0119Z" fill="#455A64"/>
<g opacity="0.5">
<g opacity="0.5">
<path opacity="0.5" d="M485.568 137.738C489.661 144.064 485.807 151.666 483.561 157.912C481.581 163.321 480.544 167.587 486.471 170.59C497.329 176.026 509.927 177.78 520.227 184.624C529.29 190.192 535.284 200.824 534.832 211.522C533.37 232.094 507.083 232.918 491.561 229.901C487.255 228.984 483.401 226.805 479.175 225.954C477.408 225.715 476.451 226.433 477.514 228.174C479.335 231.084 482.365 232.892 485.288 234.606C491.322 238.739 498.844 246.381 496.624 254.368C493.98 261.531 484.85 263.777 478.232 261.291C470.976 258.939 465.248 253.902 459.228 249.703C456.955 248.467 456.756 255.019 456.729 256.401C456.742 263.272 458.231 270.235 461.181 276.455C462.683 279.538 464.663 282.435 467.308 284.575C472.81 288.748 480.398 289.014 487.003 288.057C497.754 286.223 507.602 279.963 516.958 289.306C524.666 296.628 528.081 308.124 525.662 318.477C524.094 325.361 520.333 331.872 514.433 335.886C501.276 344.989 484.97 346.664 469.846 350.465C467.839 351.089 465.607 351.488 464.105 352.963C462.231 355.222 460.902 358.133 461.115 361.109C461.726 368.831 470.63 370.239 476.305 373.216C488.744 378.851 501.847 388.034 504.093 402.493C505.967 423.384 490.511 443.345 474.471 455.093C451.613 471.679 422.123 475.905 394.561 473.141C422.097 475.825 451.56 471.519 474.325 454.894C490.259 443.159 505.555 423.318 503.668 402.56C501.382 388.273 488.398 379.316 476.052 373.774C470.165 370.811 461.022 369.176 460.45 361.149C460.224 357.973 461.606 354.917 463.587 352.511C465.195 350.863 467.6 350.425 469.673 349.773C484.69 345.973 500.983 344.272 513.981 335.248C519.748 331.301 523.363 325.002 524.878 318.29C527.217 308.217 523.881 297.027 516.373 289.917C507.376 280.867 497.581 287.206 487.149 288.934C480.318 289.944 472.411 289.638 466.723 285.292C463.919 283.033 461.886 280.016 460.331 276.867C457.287 270.488 455.786 263.444 455.759 256.401C455.746 253.464 456.357 245.729 460.862 249.623C466.457 253.677 471.932 258.182 478.551 260.321C489.196 264.162 501.116 255.604 493.701 244.56C491.415 240.972 488.292 237.849 484.717 235.536C481.395 233.503 477.301 231.31 476.026 227.35C475.6 223.934 480.066 224.758 481.966 225.529C485.315 226.672 488.491 228.041 491.84 228.825C511.642 232.825 540.879 228.426 532.094 201.448C523.097 173.221 476.943 179.521 481.023 162.67C482.697 154.417 489.754 146.204 485.568 137.738Z" fill="#263238"/>
</g>
<g opacity="0.5">
<path opacity="0.5" d="M418.497 468.793C444.837 466.441 466.22 449.231 471.244 422.838C472.493 416.592 472.626 410.133 468.572 404.844C461.223 394.611 450.432 387.474 439.973 380.723C434.631 377.467 429.209 374.131 424.77 369.64C420.305 365.241 416.942 359.26 417.275 352.815C417.833 342.609 424.491 334.622 434.843 333.519C444.213 332.203 453.715 334.422 462.951 331.964C468.958 330.675 475.244 328.894 479.895 324.708C484.374 320.721 486.314 313.385 483.576 307.963C480.174 302.607 472.865 301.982 467.124 300.786C461.609 299.75 453.821 299.152 448.572 297.225C436.412 292.547 429.342 280.241 426.072 268.227C423.654 259.097 422.816 249.316 425.155 240.066C427.082 231.694 432.451 218.431 443.269 222.006C446.379 223.042 448.957 225.089 451.269 227.229C453.608 229.342 455.695 231.76 458.26 233.368C459.535 234.126 460.997 234.578 462.353 234.152C468.679 232.039 462.977 227.029 460.32 224.291C458.113 221.979 455.655 219.813 454.446 216.73C453.794 215.162 454.206 213.328 454.804 211.786C456.426 207.135 461.582 203.387 466.552 205.194C469.689 206.244 471.656 208.929 474.313 210.723C479.151 214.178 485.144 217.607 491.244 216.491C497.172 215.241 501.039 208.557 500.64 202.736C500.454 199.719 499.205 196.809 497.331 194.43C495.431 191.971 492.892 190.297 490.048 189.034C484.427 186.27 478.008 184.104 474.167 178.748C467.855 169.698 476.945 160.409 480.666 152.395C485.915 140.74 481.503 135.663 469.277 134.414C482.553 133.803 487.377 140.767 481.769 152.913C478.3 160.701 469.237 169.379 475.137 178.084C480.679 186.018 492.294 186.19 498.208 193.725C503.657 200.197 502.647 210.351 495.909 215.534C487.284 221.594 476.666 214.377 469.968 208.57C466.712 205.208 461.383 204.769 458.14 208.384C456.572 209.979 455.535 212.118 455.15 214.311C454.871 216.557 456.426 218.471 457.808 220.158C460.133 223.468 469.729 229.687 464.851 233.9C462.871 235.667 459.801 235.641 457.728 234.206C451.455 230.046 446.91 221.673 438.525 222.418C430.803 223.933 427.827 233.568 426.019 240.279C423.707 249.382 424.504 258.977 426.883 268.001C430.059 279.762 436.97 291.882 448.824 296.454C453.861 298.328 461.861 298.979 467.217 300.002C473.171 301.251 480.639 301.929 484.188 307.591C487.111 313.385 485.065 321 480.334 325.239C475.536 329.532 469.184 331.312 463.044 332.628C453.794 335.073 444.226 332.788 434.883 334.05C424.77 335.02 418.178 342.914 417.607 352.842C417.248 359.181 420.531 365.081 424.929 369.467C429.328 373.959 434.697 377.308 440.04 380.59C450.499 387.368 461.29 394.518 468.639 404.79C472.679 410.053 472.559 416.632 471.297 422.864C466.273 449.231 444.864 466.481 418.497 468.793Z" fill="#263238"/>
</g>
</g>
<g opacity="0.4">
<path opacity="0.4" d="M341.602 553.437C265.041 575.817 219.059 522.446 219.059 522.446C206.035 522.193 175.044 527.203 175.044 527.203L143.561 444.582C143.561 444.582 170.02 427.704 179.589 418.854C179.589 418.854 178.406 348.419 250.435 314.185C300.484 290.396 390.813 298.078 423.798 384.62L424.143 385.51C457.101 472.065 394.787 537.902 341.602 553.437Z" fill="#1f527d"/>
</g>
<g opacity="0.4">
<path opacity="0.4" d="M337.913 544.767C266.987 565.499 224.394 516.048 224.394 516.048C212.327 515.822 173.136 522.52 173.136 522.52L145.268 449.374C145.268 449.374 178.97 428.284 187.821 420.071C187.821 420.071 186.718 354.819 253.458 323.097C299.825 301.063 383.51 308.172 414.063 388.348L414.381 389.172C444.921 469.362 387.191 530.361 337.913 544.767Z" fill="#1f527d"/>
</g>
<path d="M144.633 468.489L265.462 394.639" stroke="#A6A6A6" stroke-width="3" stroke-miterlimit="10"/>
<path d="M159.955 508.705L299.296 483.375" stroke="#A6A6A6" stroke-width="3" stroke-miterlimit="10"/>
<path d="M261.287 398.615C261.287 398.615 237.645 413.127 242.044 424.663C246.443 436.198 288.531 432.544 282.763 417.393C276.995 402.257 232.834 435.866 240.157 455.096C247.479 474.326 301.448 466.419 296.318 452.956C291.189 439.494 253.154 458.857 260.211 477.369C263.998 487.297 292.239 484.652 292.239 484.652" stroke="#A6A6A6" stroke-miterlimit="10"/>
<path d="M178.904 537.695L139.471 434.182L82.5043 455.883L121.938 559.396L178.904 537.695Z" fill="#455A64"/>
<path d="M117.482 547.656C104.366 545.676 90.2654 537.689 81.7867 515.429C73.3079 493.169 78.5174 477.82 86.9829 467.613L117.482 547.656Z" fill="#455A64"/>
<path d="M117.482 547.656C113.735 547.085 109.921 546.035 106.173 544.281L84.4844 470.936C85.2817 469.766 86.1057 468.663 86.9828 467.613L117.482 547.656Z" fill="#37474F"/>
<path d="M169.203 544.865L117.334 439.16L122.304 437.26L174.174 542.965L169.203 544.865Z" fill="#37474F"/>
<path d="M154.175 550.594L102.293 444.889L107.263 442.988L159.132 548.694L154.175 550.594Z" fill="#37474F"/>
<path d="M139.129 556.321L87.2598 450.615L92.2301 448.715L144.099 554.42L139.129 556.321Z" fill="#37474F"/>
<path d="M277.726 326.579C278.537 330.619 299.986 328.067 330.685 340.493C344.32 346.008 370.434 376.707 381.092 369.717C391.751 362.727 367.723 335.616 343.204 326.725C303.747 312.399 276.982 322.858 277.726 326.579Z" fill="white"/>
<path d="M344.8 521.937C347.458 528.914 358.316 524.794 355.645 517.804C352.987 510.814 342.129 514.947 344.8 521.937Z" fill="white"/>
<path d="M250.191 518.853C248.742 523.784 272.876 535.784 296.465 536.369C316.028 536.847 337.889 529.897 337.357 524.754C336.826 519.624 306.313 527.784 293.356 526.296C277.009 524.435 251.746 513.591 250.191 518.853Z" fill="white"/>
<path d="M429.506 462.867C422.383 490.15 405.917 512.796 386.355 529.009L369.145 510.271L344.373 505.752L346.752 480.927L320.532 473.857V461.777L305.209 460.249L326.127 457.352L332.027 463.837L360.015 457.352L372.68 475.917L398.9 460.249L406.861 468.488L429.506 462.867Z" fill="white"/>
<path opacity="0.4" d="M510.48 480.344C517.616 507.627 514.334 535.429 505.217 559.138L481.043 551.217L457.228 559.403L447.155 536.585L420.828 543.243L414.914 532.705L400.801 538.871L417.625 526.113L425.945 528.877L447.181 509.528L467.315 519.521L482.518 493.022L493.496 496.318L510.48 480.344Z" fill="#1f527d"/>
<path d="M277.952 37.7162C277.952 58.1555 261.367 74.7409 240.928 74.7409C232.661 74.7409 225.033 72.0298 218.867 67.4449L200.727 72.0697L208.275 55.1787C205.471 49.9692 203.889 44.0154 203.889 37.7162C203.889 17.2768 220.475 0.691406 240.914 0.691406C261.38 0.691406 277.952 17.2635 277.952 37.7162Z" fill="white"/>
<path d="M277.952 37.7165C277.753 68.9602 242.19 85.4792 218.986 67.8971L200.873 72.6282L199.703 72.9338L200.195 71.8308L207.69 54.9132L207.717 55.4713C199.211 40.3345 203.331 19.8951 216.767 9.01098C241.1 -11.043 277.859 6.19359 277.952 37.7165ZM277.952 37.7165C278.072 14.0477 254.908 -4.05267 232.01 2.19343C209.165 7.89466 197.564 34.5801 208.993 55.1657L208.86 55.4448L201.258 72.3092L200.58 71.5118L218.747 66.9934C243.492 84.8812 277.381 68.5616 277.952 37.7165Z" fill="#263238"/>
<path d="M245.868 15.3926H237.217L237.788 47.3141H245.297L245.868 15.3926Z" fill="#1f527d"/>
<path d="M237.79 58.7969H245.285V51.3016H237.79V58.7969Z" fill="#1f527d"/>
<path d="M155.018 279.955C155.163 280.194 155.159 280.458 155.006 280.747C154.839 281.012 154.648 281.209 154.432 281.34C154.169 281.499 153.9 281.596 153.626 281.63C153.362 281.626 153.107 281.502 152.862 281.258C151.942 280.44 150.934 279.855 149.838 279.504C148.727 279.128 147.597 279.288 146.447 279.983L140.768 283.416L147.308 294.235C147.667 294.017 148.027 293.8 148.386 293.583C148.745 293.366 149.105 293.148 149.464 292.931C150.351 292.395 151.223 291.835 152.081 291.251C152.962 290.653 153.776 289.997 154.523 289.284C154.801 288.985 155.083 288.668 155.37 288.331C155.657 287.993 155.98 287.716 156.34 287.499C156.627 287.325 156.851 287.37 157.01 287.634C157.126 287.825 157.23 288.106 157.322 288.475C157.439 288.83 157.519 289.125 157.563 289.361C157.655 289.73 157.652 289.994 157.551 290.153C157.46 290.273 157.259 290.428 156.948 290.616C155.845 291.282 154.719 291.881 153.568 292.413C152.418 292.945 151.291 293.545 150.189 294.211C149.686 294.515 149.271 294.913 148.947 295.403C148.607 295.87 148.626 296.415 149.002 297.038L154.043 305.377C154.478 306.096 154.906 306.508 155.329 306.612C155.752 306.716 156.199 306.643 156.668 306.391C157.124 306.116 157.615 305.819 158.142 305.5C158.334 305.385 158.53 305.331 158.732 305.34C158.943 305.311 159.114 305.404 159.244 305.619C159.549 306.123 159.449 306.526 158.946 306.83C158.826 306.903 158.706 306.975 158.587 307.048C158.467 307.12 158.34 307.181 158.205 307.229C157.386 307.659 156.58 308.113 155.79 308.591C154.999 309.069 154.22 309.54 153.453 310.003C152.663 310.481 151.886 310.983 151.125 311.509C150.377 312.059 149.608 312.573 148.817 313.051C148.626 313.167 148.424 313.24 148.213 313.269C148.016 313.323 147.846 313.23 147.701 312.99C147.512 312.678 147.492 312.429 147.641 312.241C147.813 312.039 148.062 311.856 148.388 311.691C148.7 311.503 148.989 311.279 149.257 311.018C149.511 310.734 149.632 310.367 149.621 309.915C149.619 309.425 149.387 308.797 148.923 308.03L136.973 288.262C136.64 287.71 136.303 287.342 135.961 287.156C135.605 286.945 135.128 287.021 134.529 287.384C134.313 287.514 134.105 287.656 133.903 287.811C133.712 287.927 133.508 288.05 133.292 288.18C133.005 288.354 132.703 288.504 132.386 288.63C132.079 288.717 131.81 288.569 131.578 288.186C131.448 287.97 131.418 287.759 131.489 287.552C131.561 287.345 131.692 287.184 131.884 287.068C132.723 286.561 133.564 286.085 134.408 285.641C135.261 285.158 136.095 284.67 136.909 284.178C140.456 282.034 143.969 279.861 147.447 277.66C148.056 277.26 148.677 276.852 149.309 276.437C149.942 276.022 150.54 275.578 151.105 275.106C151.621 275.742 152.137 276.379 152.653 277.016C153.169 277.653 153.685 278.29 154.201 278.927C154.326 279.081 154.459 279.246 154.599 279.423C154.762 279.586 154.902 279.763 155.018 279.955ZM177.94 289.754C177.187 288.671 176.458 287.574 175.754 286.462C175.034 285.327 174.339 284.176 173.668 283.012C172.787 283.773 172.017 284.664 171.357 285.684C170.707 286.666 170.308 287.709 170.157 288.814C170.007 289.919 170.28 291.047 170.975 292.197C171.265 292.676 171.636 293.155 172.089 293.634C172.566 294.098 173.088 294.421 173.656 294.601C174.232 294.743 174.82 294.633 175.419 294.271C175.851 294.011 176.233 293.616 176.568 293.086C176.888 292.533 177.162 291.958 177.39 291.362C177.643 290.751 177.826 290.215 177.94 289.754ZM186.626 287.399C186.684 287.495 186.701 287.631 186.678 287.809C186.678 287.972 186.664 288.112 186.636 288.227C186.415 289.539 185.717 290.549 184.543 291.259C183.512 291.882 182.548 292.154 181.65 292.075C180.752 291.997 179.845 291.58 178.93 290.824C178.656 292.102 178.22 293.249 177.623 294.264C177.05 295.265 176.177 296.12 175.003 296.83C174.164 297.337 173.205 297.671 172.125 297.833C171.054 297.957 170.022 297.845 169.026 297.498C168.055 297.136 167.294 296.5 166.744 295.589C166.194 294.679 165.936 293.738 165.971 292.768C166.016 291.76 166.246 290.787 166.66 289.849C167.06 288.887 167.531 288.014 168.071 287.229C168.783 286.243 169.577 285.337 170.453 284.513C171.315 283.665 172.176 282.817 173.038 281.969L172.951 281.826C172.69 281.394 172.33 280.826 171.872 280.122C171.423 279.379 170.909 278.692 170.331 278.06C169.738 277.404 169.122 276.926 168.482 276.625C167.828 276.301 167.178 276.334 166.531 276.725C165.788 277.174 165.247 277.796 164.909 278.589C164.594 279.368 164.535 280.189 164.73 281.053C164.812 281.298 164.907 281.535 165.013 281.765C165.105 281.971 165.192 282.197 165.274 282.441C165.458 282.854 165.39 283.255 165.07 283.645C164.759 283.997 164.435 284.274 164.1 284.477C163.693 284.723 163.246 284.878 162.762 284.942C162.262 284.982 161.861 284.75 161.556 284.247C161.441 284.056 161.363 283.873 161.324 283.701C161.295 283.489 161.265 283.278 161.236 283.067C161.069 281.925 161.238 280.906 161.744 280.011C162.25 279.116 162.915 278.322 163.739 277.628C164.586 276.919 165.43 276.311 166.268 275.804C168.233 274.616 170.169 274.166 172.077 274.453C173.984 274.739 175.56 275.913 176.806 277.974L180.087 283.401C180.469 284.086 180.877 284.789 181.311 285.507C181.755 286.188 182.211 286.861 182.679 287.527C182.973 287.905 183.308 288.243 183.684 288.539C184.045 288.812 184.477 288.796 184.98 288.492C185.316 288.289 185.548 288.051 185.676 287.776C185.829 287.488 186.001 287.286 186.193 287.17C186.289 287.112 186.378 287.123 186.46 287.205C186.542 287.286 186.597 287.351 186.626 287.399ZM198.814 281.749C199.046 282.132 198.97 282.44 198.587 282.671C197.892 283.091 197.164 283.483 196.401 283.845C195.653 284.232 194.92 284.643 194.201 285.077C193.482 285.512 192.766 285.978 192.052 286.474C191.377 286.981 190.68 287.451 189.961 287.886C189.793 287.987 189.637 288 189.493 287.924C189.334 287.823 189.218 287.713 189.146 287.593C188.914 287.21 188.978 286.91 189.337 286.692C189.577 286.547 189.812 286.422 190.042 286.315C190.272 286.209 190.495 286.091 190.711 285.96C190.998 285.786 191.12 285.582 191.076 285.347C191.056 285.097 190.973 284.853 190.829 284.613L182.203 270.343C182.058 270.104 181.875 269.855 181.653 269.596C181.417 269.314 181.131 269.274 180.795 269.477C180.484 269.665 180.175 269.884 179.868 270.135C179.562 270.386 179.241 270.613 178.905 270.815C178.762 270.902 178.596 270.953 178.409 270.968C178.246 270.969 178.113 270.885 178.012 270.717C177.824 270.406 177.856 270.108 178.11 269.824C178.344 269.617 178.598 269.414 178.871 269.216C179.154 268.98 179.42 268.77 179.669 268.587C180.435 267.96 181.163 267.324 181.852 266.678C182.551 265.994 183.25 265.31 183.949 264.626C184.021 264.582 184.093 264.539 184.164 264.495C184.222 264.428 184.274 264.38 184.322 264.351C184.682 264.134 184.948 264.169 185.122 264.456C186.86 267.332 188.594 270.226 190.323 273.14C192.037 276.03 193.763 278.913 195.501 281.788C195.762 282.22 196.024 282.437 196.289 282.441C196.538 282.421 196.8 282.312 197.073 282.115C197.37 281.902 197.674 281.702 197.985 281.514C198.321 281.311 198.597 281.389 198.814 281.749ZM181.623 258.424C182.072 259.167 182.188 259.981 181.97 260.865C181.776 261.735 181.296 262.402 180.529 262.865C179.786 263.314 178.972 263.43 178.088 263.212C177.204 262.994 176.537 262.513 176.088 261.77C175.625 261.004 175.509 260.19 175.741 259.33C175.959 258.446 176.44 257.779 177.183 257.33C177.949 256.866 178.763 256.751 179.623 256.983C180.493 257.177 181.16 257.658 181.623 258.424ZM211.328 274.135C211.56 274.519 211.484 274.826 211.101 275.058C210.358 275.507 209.605 275.913 208.843 276.276C208.095 276.662 207.35 277.08 206.607 277.529C205.84 277.993 205.076 278.487 204.314 279.013C203.591 279.549 202.846 280.048 202.079 280.512C201.911 280.613 201.755 280.626 201.611 280.549C201.452 280.449 201.329 280.327 201.242 280.183C201.083 279.919 201.101 279.679 201.297 279.463C201.518 279.231 201.791 279.034 202.117 278.869C202.467 278.69 202.725 278.55 202.893 278.449C203.42 278.13 203.51 277.683 203.162 277.108L201.402 274.197C199.49 271.034 197.586 267.883 195.688 264.744C193.776 261.581 191.864 258.418 189.952 255.255C189.793 254.991 189.573 254.682 189.294 254.328C188.999 253.949 188.649 253.883 188.241 254.129C187.954 254.303 187.695 254.525 187.466 254.795C187.245 255.026 186.992 255.228 186.704 255.402C186.345 255.62 186.049 255.536 185.817 255.153C185.658 254.889 185.698 254.604 185.937 254.296C186.19 254.011 186.471 253.744 186.777 253.493C187.107 253.228 187.407 252.965 187.675 252.705C188.292 252.103 188.898 251.508 189.491 250.92C190.094 250.294 190.693 249.687 191.286 249.099C191.343 249.032 191.408 248.976 191.48 248.933C191.537 248.865 191.602 248.81 191.674 248.766C191.818 248.679 191.971 248.636 192.134 248.635C192.307 248.596 192.451 248.673 192.567 248.864C195.117 253.082 197.661 257.318 200.201 261.574C202.741 265.83 205.286 270.066 207.835 274.284C208.081 274.691 208.36 274.882 208.672 274.857C208.985 274.832 209.301 274.706 209.622 274.479C209.929 274.229 210.214 274.024 210.477 273.864C210.813 273.662 211.096 273.752 211.328 274.135ZM221.476 266.185C221.925 266.928 222.021 267.737 221.765 268.611C221.533 269.472 221.045 270.126 220.302 270.575C219.559 271.024 218.741 271.159 217.847 270.98C216.977 270.786 216.318 270.317 215.869 269.574C215.405 268.808 215.297 268.006 215.544 267.17C215.815 266.319 216.322 265.669 217.065 265.22C217.808 264.771 218.607 264.631 219.462 264.801C220.341 264.957 221.013 265.418 221.476 266.185ZM207.678 243.116C207.968 243.595 208.21 244.104 208.404 244.641C208.622 245.163 208.851 245.679 209.093 246.187C210.293 248.93 211.493 251.673 212.693 254.415C213.917 257.144 215.136 259.891 216.35 262.658L215.092 263.418C213.351 260.97 211.545 258.578 209.674 256.241C207.812 253.865 205.917 251.542 203.989 249.272C203.628 248.837 203.254 248.408 202.868 247.987C202.507 247.551 202.181 247.093 201.892 246.614C201.457 245.895 201.428 245.144 201.805 244.36C202.191 243.538 202.708 242.931 203.355 242.54C203.762 242.293 204.259 242.141 204.844 242.081C205.415 241.997 205.965 242.041 206.494 242.212C207.008 242.36 207.403 242.661 207.678 243.116Z" fill="black"/>
</svg>
