<svg width="656" height="561" viewBox="0 0 656 561" fill="none" xmlns="http://www.w3.org/2000/svg">
<path d="M104.036 287.527C104.036 287.527 90.8317 290.991 101.942 319.293C113.053 347.581 121.284 361.87 121.284 361.87C121.284 361.87 123.102 368.365 117.706 368.798C112.311 369.245 100.822 366.229 97.8121 372.435C94.6854 378.872 98.9319 385.655 108.283 392.164C117.634 398.673 137.572 413.683 139.375 415.054C141.134 416.397 142.734 419.485 139.098 420.38C135.477 421.26 108.952 421.361 109.752 433.846C110.551 446.33 139.593 460.229 142.734 461.802C145.875 463.375 146.515 464.833 146.079 466.594C145.628 468.354 136.714 467.546 129.166 467.878C121.618 468.21 112.936 469.913 114.013 477.072C115.089 484.23 131.449 500.698 174.364 509.242L194.52 511.912L207.245 496.065C232.389 460.488 232.782 437.367 228.579 431.45C224.376 425.532 216.901 430.252 211.215 435.159C205.529 440.081 199.625 446.763 198.083 445.796C196.542 444.829 195.989 443.342 197.167 440.037C198.345 436.747 209.703 406.799 201.603 397.216C193.502 387.632 174.233 405.716 170.99 407.549C167.747 409.397 166.744 406.063 167.093 403.883C167.442 401.661 171.456 377.14 173.695 366.026C175.935 354.913 174.292 347.091 167.558 344.579C161.072 342.155 154.848 352.2 150.631 355.563C146.413 358.94 143.229 352.994 143.229 352.994C143.229 352.994 139.258 337.017 127.639 308.931C116.019 280.845 103.775 287.599 103.775 287.599" fill="#EBEBEB"/>
<path d="M195.085 516.719C186.636 496.052 172.224 459.09 159.688 427.41C147.153 395.744 135.78 367.081 127.433 346.385C123.259 336.051 119.871 327.694 117.515 321.878C116.351 319.006 115.45 316.754 114.824 315.21C114.534 314.459 114.301 313.882 114.141 313.464C113.996 313.074 113.923 312.857 113.923 312.857C113.923 312.857 114.025 313.045 114.199 313.435C114.374 313.839 114.621 314.416 114.941 315.152C115.595 316.697 116.526 318.919 117.748 321.777C120.176 327.535 123.623 335.878 127.84 346.211C136.289 366.879 147.734 395.514 160.255 427.179C172.791 458.859 187.13 495.85 195.478 516.546" fill="#E0E0E0"/>
<path d="M113.708 377.266C113.723 377.222 114.217 377.424 115.075 377.8C115.948 378.175 117.184 378.752 118.696 379.488C121.736 380.946 125.881 383.082 130.418 385.507C134.882 387.917 138.911 390.096 141.994 391.77C143.39 392.521 144.568 393.142 145.513 393.647C146.342 394.08 146.793 394.354 146.778 394.383C146.764 394.426 146.269 394.238 145.397 393.863C144.524 393.488 143.288 392.911 141.776 392.16C138.751 390.659 134.635 388.48 130.098 386.055C125.619 383.674 121.576 381.523 118.478 379.878C117.082 379.142 115.904 378.521 114.944 378.016C114.13 377.569 113.679 377.309 113.708 377.266Z" fill="#E0E0E0"/>
<path d="M148.29 393.232C148.13 393.16 152.173 384.486 157.321 373.863C162.469 363.241 166.759 354.682 166.919 354.754C167.079 354.827 163.036 363.501 157.888 374.123C152.74 384.76 148.45 393.319 148.29 393.232Z" fill="#E0E0E0"/>
<path d="M165.319 442.733C165.29 442.704 165.625 442.286 166.264 441.579C166.992 440.77 167.908 439.76 168.984 438.562C171.282 436.022 174.437 432.486 177.782 428.459C181.127 424.447 184.035 420.709 186.115 417.981C187.089 416.697 187.918 415.614 188.587 414.763C189.169 413.998 189.518 413.594 189.547 413.623C189.576 413.651 189.314 414.099 188.776 414.907C188.253 415.715 187.467 416.855 186.464 418.255C184.472 421.055 181.621 424.837 178.262 428.878C174.917 432.905 171.689 436.412 169.318 438.88C168.126 440.107 167.137 441.102 166.439 441.766C165.755 442.416 165.363 442.762 165.319 442.733Z" fill="#E0E0E0"/>
<path d="M130.841 435.135C130.856 435.092 131.336 435.15 132.223 435.294C133.226 435.482 134.477 435.698 135.931 435.958C139.058 436.55 143.377 437.401 148.132 438.397C152.888 439.378 157.192 440.317 160.29 441.009C161.73 441.356 162.966 441.644 163.955 441.875C164.813 442.092 165.293 442.236 165.278 442.279C165.263 442.323 164.784 442.265 163.896 442.121C162.893 441.933 161.642 441.716 160.188 441.457C157.061 440.865 152.742 440.013 147.987 439.018C143.231 438.036 138.927 437.098 135.829 436.405C134.39 436.059 133.153 435.77 132.165 435.539C131.306 435.323 130.827 435.178 130.841 435.135Z" fill="#E0E0E0"/>
<path d="M140.272 480.724C140.287 480.681 140.912 480.767 142.032 480.94C143.268 481.157 144.868 481.446 146.788 481.778C150.801 482.514 156.342 483.567 162.45 484.78C168.558 485.992 174.084 487.118 178.069 487.955C179.974 488.373 181.559 488.72 182.795 488.994C183.9 489.254 184.511 489.412 184.511 489.456C184.496 489.499 183.871 489.412 182.751 489.239C181.515 489.023 179.916 488.734 177.996 488.402C173.982 487.666 168.441 486.613 162.334 485.4C156.226 484.188 150.699 483.062 146.715 482.225C144.81 481.806 143.225 481.46 141.988 481.186C140.883 480.926 140.272 480.767 140.272 480.724Z" fill="#E0E0E0"/>
<path d="M183.528 488.954C183.499 488.925 183.906 488.391 184.691 487.453C185.549 486.428 186.669 485.114 188.007 483.512C190.799 480.178 194.653 475.56 198.739 470.35C202.84 465.14 206.432 460.319 209.006 456.826C210.243 455.138 211.275 453.752 212.06 452.684C212.788 451.703 213.209 451.183 213.238 451.198C213.267 451.226 212.918 451.804 212.264 452.814C211.595 453.839 210.621 455.296 209.37 457.086C206.883 460.665 203.349 465.529 199.234 470.739C195.133 475.964 191.221 480.554 188.341 483.815C186.902 485.446 185.709 486.745 184.866 487.626C184.037 488.506 183.557 488.982 183.528 488.954Z" fill="#E0E0E0"/>
<path d="M533.528 498.109L432.559 332.249C429.432 327.096 431.09 320.414 436.282 317.297L538.385 256.073C543.577 252.97 550.31 254.615 553.451 259.768L654.42 425.628C657.547 430.766 655.889 437.463 650.712 440.566L548.609 501.79C543.402 504.907 536.669 503.247 533.528 498.109Z" fill="#EBEBEB"/>
<path d="M615.415 424.618C608.333 428.861 599.113 426.61 594.837 419.581C590.562 412.552 592.83 403.402 599.913 399.159C606.995 394.916 616.215 397.167 620.49 404.196C624.78 411.225 622.512 420.375 615.415 424.618Z" fill="white"/>
<path d="M617.046 442.842C615.781 442.842 614.516 442.683 613.25 442.38C609.178 441.384 605.732 438.873 603.565 435.308C599.086 427.947 601.471 418.335 608.888 413.89C616.304 409.444 625.99 411.811 630.469 419.172C634.948 426.533 632.563 436.145 625.146 440.59C622.659 442.077 619.867 442.842 617.046 442.842ZM616.988 413.067C614.414 413.067 611.898 413.76 609.644 415.117C606.386 417.065 604.089 420.168 603.172 423.834C602.256 427.5 602.838 431.31 604.816 434.543C608.888 441.225 617.671 443.376 624.405 439.335C631.138 435.293 633.305 426.576 629.233 419.894C627.269 416.661 624.143 414.38 620.449 413.471C619.286 413.211 618.137 413.067 616.988 413.067Z" fill="white"/>
<path d="M480.449 313.272L470.138 319.463L469.498 318.41L478.878 312.795L477.409 310.385L478.354 309.822L480.449 313.272Z" fill="white"/>
<path d="M477.482 329.426L476.537 329.988L472.159 322.801L472.915 322.354L479.707 324.085C481.554 324.547 482.383 324.36 483.095 323.927C484.288 323.205 484.52 321.935 483.561 320.376C482.833 319.178 481.903 318.471 480.71 318.269L480.899 317.129C482.325 317.345 483.633 318.312 484.579 319.871C485.844 321.949 485.582 323.898 483.851 324.937C482.863 325.529 481.786 325.76 479.605 325.197L474.035 323.782L477.482 329.426Z" fill="white"/>
<path d="M485.814 339.15L484.564 337.101L481.859 338.732L481.219 337.678L483.938 336.047L480.419 330.274L481.19 329.812L491.326 331.14L492.038 332.309L482.193 331.068L484.898 335.513L487.283 334.085L487.908 335.109L485.523 336.538L486.774 338.588L485.814 339.15Z" fill="white"/>
<path d="M495.369 354.84L494.118 352.79L491.413 354.421L490.773 353.368L493.493 351.737L489.974 345.964L490.744 345.502L500.88 346.83L501.593 347.999L491.748 346.758L494.453 351.203L496.838 349.774L497.463 350.799L495.078 352.228L496.329 354.277L495.369 354.84Z" fill="white"/>
<path d="M501.143 363.596C499.383 364.65 497.274 364.26 495.747 361.749C494.846 360.277 494.511 358.559 494.846 357.289H495.995C495.704 358.357 495.907 359.829 496.722 361.143C497.783 362.889 499.194 363.293 500.445 362.543C501.768 361.749 502.103 360.436 500.517 357.823L499.194 355.644L504.691 353.061L508.109 358.66L507.163 359.223L504.313 354.547L500.808 356.164L501.608 357.477C503.484 360.594 502.975 362.499 501.143 363.596Z" fill="white"/>
<path d="M507.352 373.689C505.418 374.844 503.266 374.079 502.059 372.087C500.401 369.373 501.404 366.747 504.662 364.798C508.167 362.691 511.148 363.499 512.85 366.285C513.417 367.209 513.78 368.161 513.766 369.056L512.646 369.143C512.675 368.407 512.384 367.627 511.919 366.862C510.581 364.654 508.283 364.091 505.476 365.765C505.244 365.91 504.953 366.097 504.662 366.314C506.102 366.141 507.469 366.963 508.341 368.378C509.577 370.427 509.243 372.563 507.352 373.689ZM506.698 372.679C508.05 371.87 508.312 370.355 507.352 368.767C506.407 367.209 504.778 366.718 503.499 367.483C502.364 368.161 501.855 369.749 502.931 371.51C503.833 372.996 505.316 373.501 506.698 372.679Z" fill="white"/>
<path d="M515.774 387.774C514.043 388.813 511.964 388.366 510.466 385.883C509.564 384.411 509.215 382.679 509.55 381.409H510.698C510.408 382.477 510.626 383.964 511.44 385.306C512.473 387.009 513.84 387.457 515.119 386.692C516.356 385.956 516.646 384.599 515.483 382.694L515.032 381.958L515.817 381.496L521.126 382.189L517.941 376.95L518.886 376.387L522.9 382.968L522.144 383.415L516.705 382.723C517.912 384.989 517.417 386.793 515.774 387.774Z" fill="white"/>
<path d="M522.143 397.978C520.209 399.133 518.057 398.368 516.85 396.376C515.192 393.663 516.195 391.036 519.453 389.087C522.958 386.98 525.939 387.788 527.64 390.574C528.207 391.498 528.571 392.45 528.556 393.345L527.437 393.432C527.466 392.696 527.175 391.916 526.71 391.151C525.372 388.943 523.074 388.38 520.267 390.054C520.035 390.199 519.744 390.386 519.453 390.603C520.907 390.43 522.26 391.252 523.132 392.667C524.368 394.702 524.019 396.838 522.143 397.978ZM521.474 396.953C522.827 396.145 523.088 394.63 522.129 393.042C521.169 391.483 519.555 390.993 518.275 391.757C517.141 392.436 516.632 394.023 517.708 395.784C518.609 397.271 520.107 397.776 521.474 396.953Z" fill="white"/>
<path d="M535.115 403.059L534.359 403.507L522.186 404.95L521.488 403.81L533.428 402.395L530.214 397.127L528.28 398.282L527.654 397.243L530.534 395.525L535.115 403.059Z" fill="white"/>
<path d="M544.014 417.69L543.258 418.138L531.086 419.581L530.388 418.441L542.327 417.026L539.128 411.758L537.194 412.913L536.568 411.874L539.448 410.156L544.014 417.69Z" fill="white"/>
<path d="M542.719 432.242C540.886 433.339 538.821 432.487 537.338 430.034C535.84 427.58 536.073 425.401 537.891 424.304C539.127 423.568 540.421 423.741 541.628 424.751C541.41 423.467 541.846 422.428 542.922 421.778C544.609 420.768 546.514 421.562 547.838 423.726C549.161 425.891 548.987 427.97 547.314 428.98C546.238 429.63 545.104 429.514 544.042 428.706C544.391 430.265 543.94 431.506 542.719 432.242ZM542.064 431.145C543.33 430.38 543.475 428.821 542.37 427.017C541.265 425.199 539.825 424.607 538.545 425.372C537.265 426.137 537.12 427.681 538.225 429.5C539.33 431.318 540.785 431.924 542.064 431.145ZM543.213 426.512C544.188 428.1 545.482 428.619 546.602 427.955C547.765 427.263 547.867 425.819 546.922 424.289C545.976 422.745 544.682 422.182 543.519 422.875C542.384 423.553 542.239 424.924 543.213 426.512Z" fill="white"/>
<path d="M551.14 440.759C547.635 442.866 544.64 442.058 542.953 439.272C542.386 438.349 542.022 437.396 542.037 436.501L543.142 436.415C543.113 437.151 543.404 437.93 543.869 438.695C545.207 440.903 547.505 441.466 550.311 439.778C550.544 439.633 550.835 439.446 551.126 439.229C549.671 439.402 548.319 438.58 547.446 437.165C546.21 435.13 546.559 432.994 548.435 431.854C550.369 430.699 552.522 431.464 553.729 433.456C555.401 436.198 554.398 438.811 551.14 440.759ZM552.304 438.089C553.438 437.411 553.947 435.823 552.871 434.062C551.969 432.59 550.486 432.085 549.104 432.908C547.752 433.716 547.475 435.231 548.45 436.819C549.41 438.378 551.024 438.854 552.304 438.089Z" fill="white"/>
<path d="M562.528 448.1L552.217 454.291L551.577 453.238L560.957 447.624L559.488 445.213L560.434 444.65L562.528 448.1Z" fill="white"/>
<path d="M559.575 464.267L558.63 464.83L554.253 457.643L555.009 457.195L561.801 458.927C563.647 459.389 564.476 459.201 565.189 458.768C566.381 458.047 566.614 456.777 565.654 455.218C564.927 454.02 563.996 453.313 562.804 453.111L562.993 451.971C564.418 452.202 565.727 453.154 566.672 454.713C567.937 456.791 567.676 458.74 565.945 459.779C564.956 460.371 563.88 460.587 561.699 460.039L556.129 458.624L559.575 464.267Z" fill="white"/>
<path d="M567.181 472.233C565.45 473.272 563.371 472.825 561.873 470.342C560.971 468.87 560.622 467.138 560.957 465.868H562.106C561.815 466.936 562.033 468.423 562.847 469.765C563.88 471.468 565.247 471.916 566.527 471.151C567.763 470.415 568.054 469.058 566.89 467.153L566.439 466.417L567.225 465.955L572.533 466.648L569.348 461.409L570.293 460.846L574.292 467.427L573.536 467.874L568.097 467.182C569.333 469.448 568.839 471.252 567.181 472.233Z" fill="white"/>
<path d="M508.655 399.836L504.174 402.523L554.124 484.559L558.605 481.872L508.655 399.836Z" fill="white"/>
<path d="M524.033 445.147L519.552 447.834L545.17 489.908L549.651 487.221L524.033 445.147Z" fill="white"/>
<path d="M502.698 329.881L489.202 307.727C487.137 304.335 488.243 299.933 491.645 297.884L505.199 289.758C508.617 287.709 513.052 288.805 515.117 292.183L528.613 314.337C530.678 317.729 529.573 322.13 526.17 324.166L512.616 332.291C509.198 334.355 504.763 333.258 502.698 329.881Z" fill="#E0E0E0"/>
<path d="M492.648 297.292L494.306 296.296L505.097 314.02C506.348 316.069 509.038 316.718 511.088 315.492C513.153 314.25 513.822 311.552 512.572 309.545L501.781 291.822L503.439 290.826L514.23 308.55C516.033 311.508 515.073 315.362 512.092 317.151C509.111 318.941 505.228 317.988 503.424 315.03L492.648 297.292Z" fill="#EBEBEB"/>
<path d="M512.472 315.781L510.803 316.779L518.2 328.954L519.869 327.955L512.472 315.781Z" fill="#EBEBEB"/>
<path d="M589.1 365.834L535.212 277.312L527.557 281.902L581.445 370.424L589.1 365.834Z" fill="white"/>
<path d="M190.699 0C189.594 15.5873 190.714 44.6115 184.984 59.1741C179.254 73.7367 171.634 88.7322 157.324 95.2414C139.698 103.266 118.99 99.8598 100.186 104.565C70.7084 111.926 49.4035 138.756 40.3144 167.535C31.2252 196.314 32.2287 227.142 33.3194 257.292L183.733 278.003C183.733 278.003 184.519 217.342 197.636 200.788C210.753 184.233 273.068 169.339 293.646 123.991C312.174 83.1901 317.758 18.4883 317.758 18.4883L190.699 0Z" fill="#F5F5F5"/>
<path d="M262.51 65.8697C262.48 66.0718 248.781 64.3975 231.912 62.1172C215.042 59.8368 201.387 57.8162 201.416 57.6142C201.445 57.4121 215.144 59.0863 232.014 61.3811C248.883 63.6471 262.539 65.6676 262.51 65.8697Z" fill="#E0E0E0"/>
<path d="M260.866 78.0357C260.837 78.2378 247.138 76.5636 230.268 74.2832C213.399 72.0028 199.743 69.9823 199.773 69.7802C199.802 69.5781 213.501 71.2523 230.37 73.5471C247.24 75.8131 260.895 77.8192 260.866 78.0357Z" fill="#E0E0E0"/>
<path d="M255.267 90.4224C255.238 90.6245 241.539 88.9503 224.67 86.6699C207.8 84.3896 194.145 82.369 194.174 82.1669C194.203 81.9649 207.902 83.6391 224.772 85.9339C241.641 88.1998 255.296 90.2204 255.267 90.4224Z" fill="#E0E0E0"/>
<path d="M245.057 102.919C245.028 103.121 231.329 101.446 214.46 99.166C197.59 96.8856 183.935 94.8651 183.964 94.663C183.993 94.4609 197.692 96.1351 214.561 98.4299C231.431 100.696 245.086 102.716 245.057 102.919Z" fill="#E0E0E0"/>
<path d="M228.828 115.407C228.799 115.609 215.1 113.935 198.23 111.654C181.361 109.374 167.705 107.353 167.734 107.151C167.764 106.949 181.463 108.623 198.332 110.918C215.201 113.184 228.857 115.205 228.828 115.407Z" fill="#E0E0E0"/>
<path d="M289.908 69.9239C289.879 70.126 286.505 69.7508 282.39 69.0868C278.274 68.4229 274.958 67.7157 274.987 67.5137C275.017 67.3116 278.39 67.6869 282.506 68.3508C286.622 69.0147 289.937 69.7219 289.908 69.9239Z" fill="#E0E0E0"/>
<path d="M289.371 80.7696C289.342 80.9717 285.968 80.5965 281.853 79.9325C277.737 79.2686 274.421 78.5614 274.45 78.3594C274.479 78.1573 277.853 78.5326 281.969 79.1965C286.099 79.8604 289.415 80.5676 289.371 80.7696Z" fill="#E0E0E0"/>
<path d="M285.676 95.7589C285.647 95.961 282.273 95.5713 278.143 94.893C274.028 94.2146 270.668 93.5074 270.756 93.3487C270.726 93.0889 274.159 93.4786 278.274 94.1569C282.39 94.8208 285.705 95.5569 285.676 95.7589Z" fill="#E0E0E0"/>
<path d="M280.323 108.444C280.294 108.647 276.92 108.257 272.79 107.579C268.674 106.9 265.315 106.193 265.402 106.034C265.373 105.774 268.805 106.164 272.921 106.842C277.036 107.506 280.352 108.242 280.323 108.444Z" fill="#E0E0E0"/>
<path d="M268.804 120.495C268.775 120.697 265.401 120.308 261.271 119.629C257.156 118.951 253.796 118.244 253.883 118.085C253.854 117.825 257.286 118.215 261.402 118.893C265.532 119.572 268.848 120.293 268.804 120.495Z" fill="#E0E0E0"/>
<path d="M214.942 130.639C214.913 130.841 194.35 128.128 169.002 124.563C143.655 120.998 123.135 117.953 123.164 117.751C123.193 117.549 143.756 120.262 169.104 123.827C194.452 127.392 214.972 130.437 214.942 130.639Z" fill="#E0E0E0"/>
<path d="M204.324 143.411C204.324 143.44 203.975 143.411 203.306 143.325C202.565 143.223 201.605 143.108 200.412 142.949C197.824 142.574 194.217 142.054 189.796 141.419C180.765 140.034 168.433 138.158 154.807 136.065C141.151 133.929 128.79 131.937 119.861 130.465C115.454 129.714 111.877 129.094 109.288 128.661C108.038 128.43 107.078 128.257 106.423 128.112C105.769 127.968 105.435 127.882 105.435 127.853C105.449 127.824 105.798 127.867 106.453 127.954C107.194 128.055 108.139 128.185 109.332 128.358C111.921 128.747 115.527 129.281 119.948 129.931C128.979 131.316 141.311 133.222 154.938 135.314C168.549 137.479 180.867 139.442 189.883 140.885C194.29 141.621 197.882 142.228 200.47 142.661C201.663 142.877 202.608 143.05 203.335 143.18C203.975 143.31 204.324 143.382 204.324 143.411Z" fill="#E0E0E0"/>
<path d="M185.129 155.083C185.26 155.213 183.791 155.054 181.348 154.751C178.875 154.434 175.312 153.943 170.921 153.322C162.122 152.052 149.979 150.234 136.586 148.141C123.177 146.063 111.049 144.129 102.28 142.685C97.9605 141.964 94.4411 141.372 91.8962 140.939C90.7328 140.723 89.8021 140.564 89.0749 140.419C88.4351 140.29 88.1006 140.217 88.1006 140.189C88.1006 140.16 88.4496 140.189 89.104 140.275C89.8311 140.376 90.7764 140.492 91.9398 140.65C94.4848 141.026 98.0186 141.531 102.352 142.166C111.223 143.523 123.323 145.37 136.687 147.405C150.037 149.512 162.137 151.403 170.993 152.803C178.992 154.087 183.267 154.78 185.129 155.083Z" fill="#E0E0E0"/>
<path d="M249.599 137.661C249.57 137.863 246.196 137.474 242.066 136.795C237.951 136.117 234.591 135.41 234.678 135.251C234.649 134.991 238.081 135.381 242.197 136.059C246.312 136.738 249.628 137.459 249.599 137.661Z" fill="#E0E0E0"/>
<path d="M234.78 145.841C234.751 146.043 231.377 145.653 227.247 144.975C223.131 144.297 219.772 143.589 219.859 143.431C219.83 143.171 223.262 143.561 227.378 144.239C231.493 144.903 234.809 145.639 234.78 145.841Z" fill="#E0E0E0"/>
<path d="M214.821 159.624C214.792 159.826 211.418 159.437 207.288 158.758C203.172 158.08 199.813 157.373 199.9 157.214C199.871 156.954 203.303 157.344 207.419 158.022C211.534 158.7 214.85 159.422 214.821 159.624Z" fill="#E0E0E0"/>
<path d="M176.678 181.384C176.649 181.586 151.229 177.877 119.904 173.099C88.5793 168.322 63.2025 164.267 63.2461 164.065C63.2752 163.862 88.6957 167.572 120.02 172.349C151.345 177.141 176.707 181.182 176.678 181.384Z" fill="#E0E0E0"/>
<path d="M161.45 208.71C161.421 208.912 153.088 207.743 142.835 206.098C132.583 204.452 124.308 202.951 124.352 202.749C124.381 202.547 132.714 203.716 142.966 205.362C153.204 207.007 161.479 208.508 161.45 208.71Z" fill="#E0E0E0"/>
<path d="M626.539 559.758C626.539 559.96 486.275 560.133 313.291 560.133C140.249 560.133 0 559.96 0 559.758C0 559.556 140.234 559.383 313.291 559.383C486.275 559.383 626.539 559.556 626.539 559.758Z" fill="#263238"/>
<path d="M612.682 190.136L467.184 210.53C461.788 211.28 456.786 207.557 456.029 202.202L436.688 66.2606C435.932 60.9061 439.684 55.9412 445.079 55.1907L590.577 34.7973C595.973 34.0468 600.975 37.7705 601.732 43.125L621.073 179.067C621.844 184.421 618.092 189.386 612.682 190.136Z" fill="#1f527d"/>
<path d="M559.866 142.157C559.866 142.186 559.487 142.258 558.76 142.388C557.975 142.518 556.913 142.691 555.575 142.907C552.725 143.34 548.726 143.947 543.767 144.712C533.674 146.184 519.757 148.204 504.08 150.499L503.76 150.542L503.673 150.225C503.077 148.19 502.451 146.025 501.812 143.831C496.416 125.098 491.588 108.37 488.432 97.4445L488.694 97.6177C484.215 98.2094 480.638 98.6857 478.107 99.0176C476.929 99.162 475.984 99.2774 475.286 99.364C474.646 99.4362 474.312 99.465 474.312 99.4362C474.312 99.4073 474.631 99.3496 475.271 99.2341C475.969 99.1187 476.9 98.9599 478.078 98.7723C480.608 98.3826 484.171 97.8341 488.636 97.1558L488.84 97.127L488.898 97.329C492.112 108.24 497.027 124.939 502.539 143.644C503.179 145.837 503.804 148.002 504.4 150.037L503.978 149.777C519.655 147.584 533.602 145.65 543.694 144.235C548.668 143.571 552.681 143.037 555.532 142.662C556.87 142.503 557.946 142.373 558.731 142.272C559.473 142.157 559.866 142.128 559.866 142.157Z" fill="#EBEBEB"/>
<path d="M500.75 138.866C500.75 138.852 500.838 138.837 501.027 138.794C501.245 138.751 501.521 138.707 501.841 138.65C502.612 138.52 503.674 138.346 505.026 138.13C507.862 137.697 511.905 137.091 516.965 136.326C527.218 134.825 541.557 132.732 558.15 130.322L557.845 130.668C558.063 123.611 558.31 115.976 558.557 108.081C558.688 104.025 558.819 100.028 558.95 96.2174L559.372 96.5926C540.088 99.2915 523.059 101.673 510.785 103.39C504.721 104.213 499.82 104.863 496.388 105.324C494.744 105.526 493.45 105.7 492.505 105.815C492.098 105.858 491.763 105.902 491.501 105.931C491.269 105.945 491.152 105.959 491.152 105.945C491.152 105.931 491.269 105.902 491.487 105.858C491.749 105.815 492.083 105.757 492.49 105.685C493.421 105.541 494.715 105.324 496.359 105.065C499.791 104.545 504.662 103.809 510.727 102.9C522.986 101.125 540.001 98.6421 559.27 95.8566L559.706 95.7988L559.692 96.2463C559.575 100.056 559.444 104.04 559.314 108.11C559.052 116.005 558.805 123.64 558.572 130.697L558.557 131L558.252 131.044C541.644 133.353 527.291 135.359 517.024 136.788C511.963 137.466 507.905 138 505.055 138.39C503.703 138.563 502.626 138.693 501.856 138.779C501.521 138.808 501.245 138.837 501.027 138.866C500.852 138.88 500.75 138.88 500.75 138.866Z" fill="#EBEBEB"/>
<path d="M520.165 163.174C520.092 163.189 520.019 162.698 519.656 161.904C519.292 161.125 518.551 160.042 517.184 159.321C515.86 158.599 513.853 158.383 512.079 159.35C510.319 160.259 509.011 162.438 509.36 164.719C509.665 166.999 511.541 168.731 513.49 169.106C515.453 169.539 517.329 168.774 518.391 167.706C519.496 166.638 519.903 165.383 520.019 164.531C520.165 163.679 520.107 163.174 520.165 163.174C520.194 163.16 520.368 163.651 520.339 164.56C520.296 165.455 519.961 166.84 518.798 168.067C517.678 169.294 515.613 170.217 513.373 169.77C511.163 169.38 508.982 167.418 508.632 164.805C508.225 162.193 509.752 159.71 511.774 158.715C513.795 157.661 516.049 157.979 517.46 158.83C518.929 159.682 519.641 160.923 519.932 161.774C520.238 162.655 520.208 163.174 520.165 163.174Z" fill="#EBEBEB"/>
<path d="M556.099 158.043C556.027 158.058 555.954 157.567 555.59 156.773C555.227 155.994 554.485 154.912 553.118 154.19C551.795 153.468 549.788 153.252 548.014 154.219C546.254 155.128 544.945 157.307 545.294 159.588C545.6 161.868 547.476 163.6 549.424 163.975C551.388 164.408 553.264 163.643 554.325 162.575C555.43 161.507 555.838 160.252 555.954 159.4C556.099 158.549 556.027 158.043 556.099 158.043C556.128 158.029 556.303 158.52 556.274 159.429C556.23 160.324 555.896 161.709 554.732 162.936C553.613 164.163 551.548 165.087 549.308 164.639C547.097 164.249 544.916 162.287 544.567 159.674C544.16 157.062 545.687 154.58 547.708 153.584C549.73 152.53 551.984 152.848 553.394 153.699C554.863 154.551 555.576 155.792 555.867 156.643C556.158 157.524 556.128 158.043 556.099 158.043Z" fill="#EBEBEB"/>
<path d="M568.865 99.856C573.769 92.4961 571.733 82.5839 564.317 77.7167C556.901 72.8495 546.913 74.8702 542.009 82.2302C537.105 89.5902 539.141 99.5023 546.557 104.37C553.973 109.237 563.96 107.216 568.865 99.856Z" fill="#FAFAFA"/>
<path d="M563.252 83.9301C563.339 83.9879 562.685 85.0703 561.55 86.7734C560.43 88.4764 558.831 90.8001 557.013 93.3403C556.344 94.2784 555.69 95.1876 555.079 96.0392L554.875 96.3278L554.584 96.1402C550.701 93.6001 547.968 91.6805 548.055 91.5362C548.142 91.3919 551.051 93.0805 554.977 95.534L554.483 95.6351C555.093 94.7835 555.733 93.8598 556.388 92.9217C558.191 90.3816 559.863 88.1156 561.099 86.4847C562.35 84.8538 563.165 83.8724 563.252 83.9301Z" fill="#1f527d"/>
<path d="M564.062 464.602C568.497 466.522 571.769 470.592 573.413 475.109C575.056 479.627 575.201 484.563 574.649 489.34C573.587 498.577 568.308 507.901 562.607 515.29C554.769 508.507 552.966 496.657 552.428 490.596C551.599 481.012 555.932 463.174 564.062 464.602Z" fill="#1f527d"/>
<path d="M571.729 530.546C570.478 525.322 572.66 519.592 576.703 516.027C580.745 512.462 586.388 510.947 591.769 511.351C594.255 511.538 596.96 512.26 598.386 514.295C599.723 516.2 599.578 518.856 598.487 520.92C597.411 522.969 595.535 524.513 593.543 525.74C586.766 529.969 579.407 532.827 571.729 530.546Z" fill="#1f527d"/>
<path d="M561.677 558.849C561.633 558.835 561.735 558.171 561.953 556.959C562.2 555.631 562.52 553.899 562.898 551.835C563.771 547.549 564.876 541.415 568.236 535.454C571.551 529.508 576.176 525.135 580.088 522.955C582.022 521.844 583.724 521.18 584.916 520.834C585.512 520.632 585.992 520.56 586.312 520.487C586.632 520.415 586.807 520.401 586.807 520.415C586.865 520.56 584.087 521.065 580.335 523.359C576.569 525.597 572.089 529.926 568.832 535.772C565.545 541.602 564.353 547.664 563.378 551.922C562.899 554.072 562.52 555.819 562.215 557.016C561.91 558.2 561.721 558.864 561.677 558.849Z" fill="#263238"/>
<path d="M561.969 478.459C561.998 478.459 562.027 478.748 562.071 479.282C562.114 479.902 562.158 480.682 562.216 481.663C562.332 483.727 562.449 486.729 562.565 490.424C562.812 497.828 563.001 508.06 562.943 519.361C562.885 530.662 562.609 540.895 562.303 548.299C562.158 551.994 561.998 554.996 561.867 557.059C561.794 558.041 561.751 558.82 561.707 559.441C561.663 559.989 561.736 559.441 561.707 559.441C561.809 558.618 561.576 559.975 561.576 559.441C561.591 558.82 561.591 558.041 561.605 557.059C561.663 554.909 561.736 551.936 561.823 548.299C562.012 540.895 562.216 530.676 562.26 519.376C562.303 508.089 562.187 497.857 562.071 490.453C562.012 486.816 561.969 483.842 561.925 481.692C561.925 480.71 561.911 479.917 561.911 479.311C561.94 478.748 561.954 478.459 561.969 478.459Z" fill="#263238"/>
<path d="M558.176 536.147C556.387 524.976 548.796 514.859 538.514 509.981C535.896 508.74 532.479 507.917 530.327 509.851C528.174 511.785 528.654 515.263 529.701 517.948C534.093 529.133 545.887 537.042 557.987 536.898" fill="#1f527d"/>
<path d="M539.783 518.747C539.797 518.704 540.394 518.963 541.441 519.468C541.964 519.714 542.619 520.031 543.317 520.464C544.015 520.897 544.873 521.33 545.716 521.951C546.574 522.557 547.52 523.192 548.45 524C549.425 524.751 550.37 525.66 551.359 526.627C553.293 528.604 555.227 530.957 556.9 533.685C558.528 536.427 559.721 539.241 560.55 541.868C560.928 543.196 561.277 544.452 561.466 545.664C561.728 546.862 561.83 548.002 561.931 549.027C562.077 550.051 562.033 551.004 562.062 551.827C562.106 552.649 562.048 553.356 562.004 553.934C561.917 555.088 561.844 555.723 561.8 555.723C561.64 555.723 561.917 553.154 561.451 549.07C561.32 548.045 561.19 546.934 560.913 545.765C560.71 544.581 560.332 543.34 559.953 542.041C559.11 539.472 557.932 536.716 556.318 534.017C554.689 531.347 552.799 529.008 550.923 527.046C549.963 526.079 549.047 525.169 548.101 524.419C547.2 523.611 546.283 522.947 545.454 522.341C542.081 519.945 539.71 518.877 539.783 518.747Z" fill="#263238"/>
<path d="M470.382 550.728H222.108C210.45 550.728 201 541.951 201 531.124V162.604C201 151.777 210.45 143 222.108 143H470.382C482.039 143 491.49 151.777 491.49 162.604V531.124C491.49 541.951 482.039 550.728 470.382 550.728Z" fill="#FAFAFA"/>
<path d="M277.534 327.933H271.397V325.047H287.118V327.933H280.981V343.434H277.534V327.933Z" fill="#1f527d"/>
<path d="M303.303 335.397V343.436H299.987V335.816C299.987 333.319 298.736 332.106 296.628 332.106C294.272 332.106 292.687 333.521 292.687 336.335V343.436H289.371V323.938H292.687V331.038C293.777 329.884 295.435 329.249 297.399 329.249C300.787 329.249 303.303 331.168 303.303 335.397Z" fill="#1f527d"/>
<path d="M319.345 335.205V343.431H316.218V341.728C315.418 342.941 313.891 343.619 311.768 343.619C308.54 343.619 306.504 341.858 306.504 339.419C306.504 337.081 308.089 335.248 312.379 335.248H316.029V335.032C316.029 333.112 314.866 331.986 312.51 331.986C310.925 331.986 309.282 332.506 308.22 333.372L306.926 330.976C308.438 329.821 310.634 329.244 312.903 329.244C316.989 329.244 319.345 331.164 319.345 335.205ZM316.044 339.044V337.413H312.626C310.372 337.413 309.761 338.25 309.761 339.275C309.761 340.458 310.765 341.223 312.466 341.223C314.081 341.223 315.491 340.487 316.044 339.044Z" fill="#1f527d"/>
<path d="M337.508 335.392V343.432H334.192V335.811C334.192 333.314 332.942 332.102 330.833 332.102C328.477 332.102 326.892 333.516 326.892 336.331V343.432H323.576V329.403H326.732V331.221C327.823 329.937 329.539 329.244 331.604 329.244C334.992 329.244 337.508 331.164 337.508 335.392Z" fill="#1f527d"/>
<path d="M347.482 337.418L345.025 339.727V343.436H341.709V323.938H345.025V335.715L351.874 329.408H355.844L349.94 335.296L356.397 343.436H352.369L347.482 337.418Z" fill="#1f527d"/>
<path d="M379.086 329.408L372.469 344.563C371.175 347.738 369.371 348.719 367.015 348.719C365.619 348.719 364.136 348.243 363.234 347.435L364.558 345.024C365.198 345.631 366.099 345.991 366.986 345.991C368.15 345.991 368.833 345.443 369.473 344.043L369.706 343.494L363.54 329.408H366.986L371.436 339.785L375.916 329.408H379.086Z" fill="#1f527d"/>
<path d="M379.579 336.417C379.579 332.217 382.749 329.244 387.098 329.244C391.489 329.244 394.645 332.217 394.645 336.417C394.645 340.617 391.489 343.619 387.098 343.619C382.764 343.619 379.579 340.617 379.579 336.417ZM391.315 336.417C391.315 333.733 389.512 332.03 387.112 332.03C384.727 332.03 382.924 333.733 382.924 336.417C382.924 339.102 384.727 340.805 387.112 340.805C389.512 340.805 391.315 339.102 391.315 336.417Z" fill="#1f527d"/>
<path d="M411.517 329.407V343.436H408.361V341.646C407.299 342.93 405.627 343.623 403.809 343.623C400.188 343.623 397.716 341.646 397.716 337.417V329.407H401.031V336.97C401.031 339.524 402.253 340.722 404.347 340.722C406.645 340.722 408.215 339.308 408.215 336.493V329.393H411.517V329.407Z" fill="#1f527d"/>
<path d="M415.238 341.572C415.238 340.447 416.14 339.552 417.376 339.552C418.598 339.552 419.47 340.447 419.47 341.572C419.47 342.698 418.598 343.622 417.376 343.622C416.14 343.622 415.238 342.698 415.238 341.572ZM415.427 325.047H419.339L418.67 337.344H416.053L415.427 325.047Z" fill="#1f527d"/>
<path d="M344.198 304.986C365.225 304.986 382.271 288.069 382.271 267.201C382.271 246.333 365.225 229.416 344.198 229.416C323.172 229.416 306.126 246.333 306.126 267.201C306.126 288.069 323.172 304.986 344.198 304.986Z" fill="#1f527d"/>
<path d="M362.947 251.257C363.427 251.647 356.315 261.144 347.066 272.459C345.088 274.84 343.198 277.121 341.453 279.214L340.682 280.137L339.853 279.3C332.626 271.911 327.681 266.412 328.03 266.065C328.379 265.719 333.905 270.612 341.366 277.799L339.78 277.886C341.497 275.764 343.343 273.455 345.292 271.059C354.556 259.715 362.452 250.853 362.947 251.257Z" fill="white"/>
<path d="M398.284 251.976C397.15 248.008 391.958 248.397 391.958 248.397L392.103 251.154C395.114 250.634 396.975 254.141 396.975 254.141L398.284 251.976Z" fill="#1f527d"/>
<path d="M287.993 260.303C286.859 256.334 281.667 256.723 281.667 256.723L281.812 259.48C284.823 258.96 286.684 262.468 286.684 262.468L287.993 260.303Z" fill="#E0E0E0"/>
<path d="M348.737 205.402C354.772 207.22 358.524 200.307 358.524 200.307L354.859 198.229C353.07 202.457 347.05 201.967 347.05 201.967L348.737 205.402Z" fill="#E0E0E0"/>
<path d="M315.275 212.83C312.468 213.119 312.134 216.626 312.134 216.626L314.01 216.842C314.01 214.793 316.584 213.941 316.584 213.941L315.275 212.83Z" fill="#1f527d"/>
<path d="M430.945 238.398C431.353 235.627 428.022 234.443 428.022 234.443L427.339 236.19C429.346 236.695 429.535 239.379 429.535 239.379L430.945 238.398Z" fill="#E0E0E0"/>
<path d="M331.65 176.349C332.058 173.578 328.727 172.395 328.727 172.395L328.044 174.141C330.051 174.646 330.225 177.331 330.225 177.331L331.65 176.349Z" fill="#1f527d"/>
<path d="M262.31 221.047C261.801 225.391 267.603 226.445 267.603 226.445L268.65 223.602C265.175 223.284 264.666 219.229 264.666 219.229L262.31 221.047Z" fill="#1f527d"/>
<path d="M391.391 205.301C394.213 205.46 395.114 202.068 395.114 202.068L393.296 201.549C392.962 203.584 390.286 203.988 390.286 203.988L391.391 205.301Z" fill="#1f527d"/>
<path d="M406.792 216.7C406.792 216.83 405.745 216.931 404.465 216.931C403.186 216.931 402.139 216.83 402.139 216.7C402.139 216.57 403.186 216.469 404.465 216.469C405.745 216.483 406.792 216.584 406.792 216.7Z" fill="#E0E0E0"/>
<path d="M409.265 210.434C409.396 210.434 409.498 211.487 409.498 212.772C409.498 214.071 409.396 215.11 409.265 215.11C409.134 215.11 409.032 214.056 409.032 212.772C409.032 211.487 409.134 210.434 409.265 210.434Z" fill="#E0E0E0"/>
<path d="M411.882 216.563C411.882 216.433 412.929 216.332 414.209 216.332C415.488 216.332 416.535 216.433 416.535 216.563C416.535 216.693 415.488 216.794 414.209 216.794C412.929 216.779 411.882 216.678 411.882 216.563Z" fill="#E0E0E0"/>
<path d="M409.424 222.84C409.293 222.84 409.191 221.787 409.191 220.502C409.191 219.203 409.293 218.164 409.424 218.164C409.555 218.164 409.657 219.218 409.657 220.502C409.642 221.787 409.54 222.84 409.424 222.84Z" fill="#E0E0E0"/>
<path d="M413.178 220.135C413.076 220.222 412.64 219.847 412.175 219.298C411.724 218.75 411.433 218.245 411.52 218.173C411.622 218.086 412.058 218.461 412.524 219.01C412.989 219.558 413.28 220.063 413.178 220.135Z" fill="#E0E0E0"/>
<path d="M412.958 213.024C413.046 213.111 412.74 213.572 412.26 214.049C411.78 214.525 411.33 214.843 411.242 214.756C411.155 214.669 411.461 214.207 411.94 213.731C412.42 213.255 412.871 212.937 412.958 213.024Z" fill="#E0E0E0"/>
<path d="M407.632 214.849C407.545 214.95 407.123 214.719 406.672 214.344C406.221 213.969 405.916 213.594 406.003 213.493C406.09 213.391 406.512 213.622 406.963 213.998C407.399 214.373 407.705 214.748 407.632 214.849Z" fill="#E0E0E0"/>
<path d="M407.42 217.971C407.508 218.058 407.246 218.505 406.81 218.967C406.373 219.429 405.952 219.746 405.864 219.66C405.777 219.573 406.039 219.126 406.475 218.664C406.911 218.202 407.333 217.885 407.42 217.971Z" fill="#E0E0E0"/>
<path d="M280.097 203.842C280.097 203.972 279.05 204.073 277.77 204.073C276.49 204.073 275.443 203.972 275.443 203.842C275.443 203.712 276.49 203.611 277.77 203.611C279.05 203.611 280.097 203.712 280.097 203.842Z" fill="#1f527d"/>
<path d="M282.57 197.562C282.7 197.562 282.802 198.616 282.802 199.901C282.802 201.2 282.7 202.239 282.57 202.239C282.439 202.239 282.337 201.185 282.337 199.901C282.337 198.602 282.439 197.562 282.57 197.562Z" fill="#1f527d"/>
<path d="M285.203 203.686C285.203 203.556 286.25 203.455 287.53 203.455C288.81 203.455 289.857 203.556 289.857 203.686C289.857 203.816 288.81 203.917 287.53 203.917C286.25 203.917 285.203 203.816 285.203 203.686Z" fill="#1f527d"/>
<path d="M282.729 209.977C282.598 209.977 282.496 208.923 282.496 207.639C282.496 206.34 282.598 205.301 282.729 205.301C282.86 205.301 282.961 206.354 282.961 207.639C282.961 208.923 282.86 209.977 282.729 209.977Z" fill="#1f527d"/>
<path d="M286.497 207.272C286.395 207.359 285.959 206.984 285.493 206.435C285.042 205.887 284.751 205.381 284.839 205.309C284.941 205.223 285.377 205.598 285.842 206.146C286.293 206.68 286.584 207.186 286.497 207.272Z" fill="#1f527d"/>
<path d="M286.277 200.163C286.364 200.25 286.059 200.712 285.579 201.188C285.099 201.664 284.648 201.982 284.561 201.895C284.473 201.809 284.779 201.347 285.259 200.87C285.724 200.38 286.175 200.062 286.277 200.163Z" fill="#1f527d"/>
<path d="M280.937 201.97C280.849 202.071 280.428 201.84 279.977 201.465C279.526 201.09 279.221 200.715 279.308 200.614C279.395 200.513 279.817 200.744 280.268 201.119C280.718 201.494 281.009 201.884 280.937 201.97Z" fill="#1f527d"/>
<path d="M280.74 205.122C280.827 205.208 280.565 205.656 280.129 206.118C279.693 206.579 279.271 206.897 279.184 206.81C279.096 206.724 279.358 206.276 279.794 205.814C280.216 205.353 280.638 205.035 280.74 205.122Z" fill="#1f527d"/>
<path d="M320.835 501.197L368.724 501.568L369.196 441.572L321.307 441.201L320.835 501.197Z" fill="#EBEBEB"/>
<path d="M350.485 443.357L349.627 501.448L342.064 501.39L343.679 443.299L350.485 443.357Z" fill="#FAFAFA"/>
<path d="M293.828 442.924L321.299 443.126L369.188 443.501L321.255 449.765L320.848 501.217L293.377 501.001L293.828 442.924Z" fill="#E0E0E0"/>
<path d="M308.789 443.037L307.699 501.114L299.54 501.056L300.878 442.965L308.789 443.037Z" fill="#FAFAFA"/>
<path d="M330.532 425.362C330.547 425.723 329.747 426.113 328.278 426.459C326.81 426.806 324.657 427.166 321.923 427.296C320.556 427.368 319.044 427.368 317.415 427.253C316.601 427.195 315.743 427.109 314.87 426.964C313.983 426.82 313.154 426.69 312.063 426.373C311.525 426.199 310.958 425.997 310.347 425.636C309.737 425.276 309.053 424.756 308.53 423.948C307.991 423.14 307.759 422.129 307.744 421.335C307.73 420.527 307.861 419.863 307.977 419.315C308.428 417.395 308.893 415.433 309.809 413.296C310.275 412.243 310.856 411.204 311.554 410.237C311.918 409.746 312.282 409.313 312.732 408.851C313.198 408.389 313.707 407.956 314.332 407.567C314.957 407.191 315.685 406.859 316.499 406.701C317.313 406.542 318.215 406.571 318.986 406.758C320.527 407.163 321.502 407.942 322.258 408.563C325.166 411.002 327.231 413.744 328.555 416.226C329.878 418.709 330.474 420.931 330.678 422.476C330.867 424.034 330.678 424.915 330.329 424.987C329.558 425.175 328.424 422.115 325.384 418.261C323.857 416.356 321.821 414.263 319.233 412.416C318.637 411.983 318.084 411.723 317.837 411.709C317.706 411.694 317.662 411.709 317.575 411.738C317.488 411.767 317.342 411.839 317.153 411.954C316.979 412.084 316.761 412.257 316.543 412.488C316.324 412.719 316.077 413.037 315.859 413.325C315.423 413.946 315.045 414.639 314.696 415.418C314.027 416.948 313.532 418.781 313.052 420.513C312.951 420.874 312.907 421.148 312.907 421.263V421.321V421.335C312.878 421.335 312.791 421.364 312.761 421.364C312.587 421.408 312.543 421.451 312.66 421.379C312.674 421.364 312.791 421.292 312.834 421.249C312.834 421.249 312.834 421.263 312.849 421.278C312.863 421.307 312.907 421.35 312.98 421.408C313.125 421.509 313.372 421.639 313.663 421.754C314.245 421.985 315.074 422.201 315.801 422.389C316.543 422.591 317.284 422.735 317.997 422.894C319.436 423.183 320.803 423.385 322.083 423.558C324.628 423.89 326.751 424.121 328.22 424.41C329.689 424.669 330.518 424.987 330.532 425.362Z" fill="#E0E0E0"/>
<path d="M329.543 425.796C329.413 425.046 332.99 423.934 338.589 422.303C341.367 421.466 344.639 420.442 348.013 418.955C348.842 418.594 349.598 418.204 350.049 417.829C350.267 417.656 350.369 417.497 350.339 417.512C350.31 417.526 350.281 417.728 350.267 417.627C350.252 417.541 350.136 417.237 349.918 416.79C349.685 416.328 349.467 415.852 349.234 415.376C348.769 414.452 348.304 413.586 347.78 412.792C347.256 412.013 346.689 411.335 346.078 410.772C345.773 410.483 345.439 410.238 345.119 410.007C344.813 409.805 344.522 409.646 344.246 409.545C343.679 409.328 343.272 409.3 342.835 409.415C342.385 409.53 341.774 409.877 341.148 410.396C338.4 412.677 336.175 415.202 334.604 417.454C331.39 421.986 330.547 425.522 329.747 425.406C329.398 425.363 329.136 424.396 329.253 422.65C329.384 420.918 329.951 418.407 331.318 415.578C332.685 412.734 334.822 409.646 337.891 406.716C338.72 405.966 339.782 405.1 341.279 404.58C342.792 404.046 344.595 404.133 346.02 404.652C346.747 404.898 347.402 405.244 348.013 405.619C348.58 405.994 349.132 406.384 349.641 406.846C350.674 407.741 351.532 408.794 352.259 409.877C352.972 410.959 353.553 412.056 354.048 413.095C354.281 413.615 354.513 414.12 354.746 414.625C354.979 415.159 355.299 415.852 355.458 416.805C355.633 417.743 355.473 419.042 354.92 419.965C354.397 420.903 353.728 421.466 353.146 421.914C351.954 422.765 350.848 423.169 349.874 423.53C345.991 424.945 342.385 425.623 339.389 426.027C333.354 426.705 329.66 426.489 329.543 425.796Z" fill="#EBEBEB"/>
<path d="M285.104 442.839L355.49 443.385L355.646 423.525L285.26 422.98L285.104 442.839Z" fill="#E0E0E0"/>
<path d="M310.985 443.036L374.608 443.529L374.765 423.67L311.141 423.177L310.985 443.036Z" fill="#EBEBEB"/>
<path d="M355.254 423.542L354.803 443.488L347.387 443.329L347.91 423.484L355.254 423.542Z" fill="#FAFAFA"/>
<path d="M302.536 423.225L301.809 442.998L293.65 442.94L294.087 423.066L302.536 423.225Z" fill="#FAFAFA"/>
<path d="M372.712 500.116L399.849 500.326L400.116 466.337L372.98 466.127L372.712 500.116Z" fill="#EBEBEB"/>
<path d="M389.515 467.341L389.035 500.248L384.745 500.219L385.661 467.312L389.515 467.341Z" fill="#FAFAFA"/>
<path d="M357.406 467.082L372.981 467.212L400.118 467.414L372.952 470.964L372.72 500.133L357.159 500.003L357.406 467.082Z" fill="#E0E0E0"/>
<path d="M365.883 467.152L365.272 500.073L360.647 500.03L361.404 467.123L365.883 467.152Z" fill="#FAFAFA"/>
<path d="M378.201 457.136C378.201 457.627 376.427 458.248 373.315 458.507C371.729 458.594 369.912 458.623 367.628 458.046C367.018 457.844 366.16 457.569 365.432 456.53C365.083 456.011 364.938 455.361 364.923 454.87C364.909 454.365 364.996 453.961 365.054 453.644C365.316 452.547 365.563 451.421 366.116 450.165C366.392 449.545 366.727 448.939 367.149 448.361C367.57 447.813 368.05 447.236 368.835 446.759C369.563 446.283 370.755 445.994 371.744 446.269C372.704 446.528 373.285 447.005 373.736 447.365C375.409 448.794 376.572 450.396 377.314 451.84C378.783 454.784 378.564 456.877 378.099 456.949C377.561 457.079 376.834 455.376 375.074 453.283C374.187 452.244 373.038 451.104 371.599 450.093C371.264 449.862 370.988 449.747 370.944 449.761H370.93V449.689L370.944 449.776C370.944 449.79 370.9 449.805 370.828 449.848C370.682 449.934 370.45 450.209 370.202 450.541C369.984 450.858 369.781 451.233 369.592 451.652C369.228 452.475 368.952 453.514 368.676 454.481L368.603 454.813C368.661 454.813 368.414 454.827 368.356 454.827C368.268 454.842 368.196 454.856 368.137 454.87C368.036 454.899 368.021 454.914 368.079 454.885C368.137 454.856 368.21 454.784 368.341 454.654L368.414 454.567C368.414 454.567 368.428 454.582 368.443 454.596C368.486 454.64 368.603 454.712 368.748 454.769C370.246 455.318 372.02 455.635 373.416 455.852C376.296 456.27 378.201 456.602 378.201 457.136Z" fill="#E0E0E0"/>
<path d="M377.647 457.381C377.545 456.804 379.567 456.039 382.693 455.029C384.25 454.509 386.067 453.903 387.929 453.037C388.38 452.835 388.787 452.604 388.961 452.445C389.049 452.373 389.049 452.315 388.976 452.431C388.903 452.532 388.859 452.806 388.874 452.82C388.7 452.445 388.51 452.07 388.336 451.695C388.074 451.175 387.827 450.713 387.551 450.295C387.274 449.876 386.984 449.53 386.678 449.256C386.358 448.967 386.024 448.736 385.82 448.649C385.587 448.563 385.5 448.548 385.355 448.563C385.209 448.577 384.904 448.736 384.569 448.996C383.043 450.223 381.777 451.594 380.861 452.806C379 455.245 378.374 457.208 377.778 457.121C377.255 457.107 376.818 454.725 378.345 451.363C379.102 449.688 380.294 447.884 382.068 446.167C382.563 445.72 383.202 445.171 384.162 444.839C385.122 444.493 386.285 444.55 387.187 444.868C387.652 445.027 388.06 445.229 388.438 445.474C388.787 445.705 389.121 445.936 389.427 446.21C390.052 446.744 390.576 447.379 390.997 448.029C391.419 448.678 391.753 449.313 392.044 449.919L392.437 450.8C392.568 451.117 392.771 451.536 392.873 452.171C392.99 452.791 392.873 453.672 392.51 454.292C392.161 454.913 391.724 455.288 391.346 455.563C390.59 456.097 389.936 456.328 389.368 456.53C387.114 457.323 385.035 457.67 383.319 457.857C379.843 458.175 377.735 457.915 377.647 457.381Z" fill="#E0E0E0"/>
<path d="M352.452 467.029L392.342 467.338L392.43 456.08L352.54 455.771L352.452 467.029Z" fill="#E0E0E0"/>
<path d="M367.133 467.146L403.185 467.426L403.273 456.168L367.222 455.889L367.133 467.146Z" fill="#EBEBEB"/>
<path d="M392.221 456.114L391.96 467.414L387.757 467.328L388.048 456.07L392.221 456.114Z" fill="#FAFAFA"/>
<path d="M362.338 455.926L361.945 467.141L357.32 467.097L357.568 455.84L362.338 455.926Z" fill="#FAFAFA"/>
<path d="M223.521 381.844V366.571H228.965C230.153 366.571 231.137 366.787 231.918 367.22C232.698 367.652 233.282 368.244 233.67 368.995C234.058 369.74 234.252 370.581 234.252 371.515C234.252 372.455 234.055 373.3 233.663 374.051C233.275 374.797 232.688 375.388 231.903 375.826C231.122 376.258 230.14 376.474 228.957 376.474H225.214V374.521H228.748C229.499 374.521 230.108 374.391 230.575 374.133C231.043 373.869 231.386 373.511 231.604 373.059C231.823 372.607 231.933 372.092 231.933 371.515C231.933 370.939 231.823 370.426 231.604 369.979C231.386 369.532 231.04 369.181 230.568 368.928C230.101 368.674 229.484 368.547 228.718 368.547H225.825V381.844H223.521ZM244.03 377.093V370.389H246.268V381.844H244.075V379.86H243.956C243.692 380.472 243.27 380.981 242.688 381.389C242.111 381.792 241.393 381.993 240.533 381.993C239.797 381.993 239.146 381.831 238.579 381.508C238.017 381.18 237.575 380.695 237.252 380.054C236.933 379.413 236.774 378.62 236.774 377.675V370.389H239.004V377.407C239.004 378.187 239.22 378.809 239.653 379.271C240.085 379.733 240.647 379.964 241.338 379.964C241.756 379.964 242.171 379.86 242.584 379.651C243.001 379.442 243.347 379.127 243.62 378.704C243.899 378.282 244.035 377.745 244.03 377.093ZM249.264 381.844V370.389H251.419V372.209H251.538C251.747 371.592 252.115 371.108 252.642 370.755C253.174 370.397 253.775 370.218 254.446 370.218C254.586 370.218 254.75 370.223 254.939 370.233C255.133 370.243 255.284 370.255 255.394 370.27V372.403C255.304 372.378 255.145 372.35 254.916 372.321C254.688 372.286 254.459 372.268 254.23 372.268C253.703 372.268 253.233 372.38 252.821 372.604C252.413 372.823 252.09 373.129 251.851 373.521C251.613 373.909 251.493 374.352 251.493 374.849V381.844H249.264ZM261.738 382.075C260.629 382.075 259.675 381.824 258.874 381.322C258.079 380.815 257.467 380.116 257.04 379.226C256.612 378.336 256.398 377.317 256.398 376.169C256.398 375.005 256.617 373.979 257.055 373.089C257.492 372.194 258.109 371.495 258.904 370.993C259.7 370.491 260.637 370.24 261.716 370.24C262.586 370.24 263.361 370.402 264.042 370.725C264.723 371.043 265.273 371.49 265.69 372.067C266.113 372.644 266.364 373.317 266.444 374.088H264.273C264.154 373.551 263.881 373.089 263.453 372.701C263.031 372.313 262.464 372.119 261.753 372.119C261.131 372.119 260.587 372.283 260.12 372.612C259.657 372.935 259.297 373.397 259.038 373.999C258.78 374.595 258.651 375.301 258.651 376.116C258.651 376.952 258.777 377.673 259.031 378.279C259.284 378.886 259.642 379.355 260.105 379.689C260.572 380.022 261.121 380.188 261.753 380.188C262.175 380.188 262.558 380.111 262.901 379.957C263.249 379.798 263.54 379.572 263.774 379.278C264.012 378.985 264.179 378.632 264.273 378.219H266.444C266.364 378.96 266.123 379.621 265.72 380.203C265.317 380.785 264.778 381.242 264.102 381.575C263.431 381.908 262.643 382.075 261.738 382.075ZM271.058 375.043V381.844H268.828V366.571H271.028V372.254H271.17C271.438 371.637 271.848 371.147 272.4 370.784C272.952 370.422 273.673 370.24 274.563 370.24C275.348 370.24 276.034 370.402 276.621 370.725C277.213 371.048 277.67 371.53 277.993 372.172C278.321 372.808 278.485 373.603 278.485 374.558V381.844H276.256V374.826C276.256 373.986 276.039 373.335 275.607 372.873C275.174 372.405 274.573 372.172 273.802 372.172C273.275 372.172 272.803 372.283 272.385 372.507C271.973 372.731 271.647 373.059 271.408 373.491C271.175 373.919 271.058 374.436 271.058 375.043ZM284.794 382.097C284.068 382.097 283.412 381.963 282.826 381.695C282.239 381.421 281.774 381.026 281.431 380.509C281.093 379.992 280.924 379.358 280.924 378.607C280.924 377.961 281.048 377.429 281.297 377.011C281.545 376.594 281.881 376.263 282.304 376.02C282.726 375.776 283.198 375.592 283.72 375.468C284.242 375.343 284.774 375.249 285.316 375.184C286.002 375.105 286.559 375.04 286.987 374.99C287.414 374.936 287.725 374.849 287.919 374.729C288.113 374.61 288.21 374.416 288.21 374.148V374.096C288.21 373.444 288.026 372.94 287.658 372.582C287.295 372.224 286.753 372.045 286.032 372.045C285.282 372.045 284.69 372.211 284.257 372.544C283.83 372.873 283.534 373.238 283.37 373.641L281.274 373.163C281.523 372.467 281.886 371.906 282.363 371.478C282.845 371.045 283.4 370.732 284.026 370.538C284.653 370.339 285.311 370.24 286.002 370.24C286.46 370.24 286.945 370.295 287.457 370.404C287.974 370.509 288.456 370.702 288.903 370.986C289.356 371.269 289.726 371.674 290.014 372.201C290.303 372.723 290.447 373.402 290.447 374.237V381.844H288.269V380.278H288.18C288.036 380.566 287.82 380.849 287.531 381.128C287.243 381.406 286.872 381.637 286.42 381.821C285.968 382.005 285.426 382.097 284.794 382.097ZM285.279 380.308C285.896 380.308 286.422 380.186 286.86 379.942C287.302 379.699 287.638 379.38 287.867 378.988C288.1 378.59 288.217 378.165 288.217 377.712V376.236C288.138 376.315 287.984 376.39 287.755 376.46C287.531 376.524 287.275 376.581 286.987 376.631C286.698 376.676 286.418 376.718 286.144 376.758C285.871 376.793 285.642 376.822 285.458 376.847C285.025 376.902 284.63 376.994 284.272 377.123C283.919 377.252 283.636 377.439 283.422 377.683C283.213 377.921 283.109 378.239 283.109 378.637C283.109 379.189 283.313 379.607 283.72 379.89C284.128 380.168 284.648 380.308 285.279 380.308ZM302 373.186L299.979 373.544C299.895 373.285 299.761 373.039 299.577 372.805C299.398 372.572 299.154 372.38 298.846 372.231C298.538 372.082 298.152 372.007 297.69 372.007C297.059 372.007 296.532 372.149 296.109 372.433C295.686 372.711 295.475 373.071 295.475 373.514C295.475 373.897 295.617 374.205 295.9 374.439C296.184 374.672 296.641 374.864 297.272 375.013L299.092 375.43C300.146 375.674 300.931 376.049 301.449 376.556C301.966 377.064 302.224 377.722 302.224 378.533C302.224 379.219 302.025 379.83 301.627 380.367C301.235 380.899 300.685 381.317 299.979 381.62C299.278 381.923 298.466 382.075 297.541 382.075C296.258 382.075 295.212 381.801 294.401 381.255C293.591 380.703 293.094 379.92 292.91 378.906L295.065 378.577C295.199 379.139 295.475 379.564 295.893 379.853C296.31 380.136 296.855 380.278 297.526 380.278C298.257 380.278 298.841 380.126 299.278 379.823C299.716 379.515 299.935 379.139 299.935 378.697C299.935 378.339 299.8 378.038 299.532 377.794C299.268 377.551 298.863 377.367 298.316 377.243L296.377 376.817C295.309 376.574 294.518 376.186 294.006 375.654C293.499 375.122 293.245 374.449 293.245 373.633C293.245 372.957 293.434 372.365 293.812 371.858C294.19 371.351 294.712 370.956 295.378 370.673C296.044 370.384 296.808 370.24 297.668 370.24C298.906 370.24 299.88 370.509 300.591 371.045C301.302 371.577 301.772 372.291 302 373.186ZM309.612 382.075C308.484 382.075 307.512 381.834 306.697 381.352C305.886 380.864 305.26 380.181 304.817 379.301C304.38 378.416 304.161 377.379 304.161 376.191C304.161 375.018 304.38 373.984 304.817 373.089C305.26 372.194 305.876 371.495 306.667 370.993C307.462 370.491 308.392 370.24 309.456 370.24C310.102 370.24 310.729 370.347 311.335 370.561C311.942 370.775 312.486 371.11 312.968 371.567C313.451 372.025 313.831 372.619 314.109 373.35C314.388 374.076 314.527 374.958 314.527 375.997V376.788H305.421V375.117H312.342C312.342 374.531 312.223 374.011 311.984 373.559C311.745 373.101 311.41 372.741 310.977 372.477C310.55 372.214 310.047 372.082 309.471 372.082C308.844 372.082 308.297 372.236 307.83 372.544C307.368 372.848 307.01 373.245 306.756 373.738C306.508 374.225 306.383 374.754 306.383 375.326V376.631C306.383 377.397 306.518 378.048 306.786 378.585C307.06 379.122 307.44 379.532 307.927 379.815C308.414 380.094 308.984 380.233 309.635 380.233C310.057 380.233 310.443 380.173 310.791 380.054C311.139 379.93 311.44 379.746 311.693 379.502C311.947 379.259 312.141 378.958 312.275 378.6L314.385 378.98C314.216 379.602 313.913 380.146 313.475 380.613C313.043 381.076 312.498 381.436 311.842 381.695C311.191 381.948 310.448 382.075 309.612 382.075ZM325.042 381.844L321.671 370.389H323.975L326.22 378.801H326.332L328.584 370.389H330.888L333.126 378.764H333.237L335.467 370.389H337.772L334.408 381.844H332.134L329.807 373.574H329.636L327.309 381.844H325.042ZM343.221 382.097C342.495 382.097 341.839 381.963 341.252 381.695C340.666 381.421 340.201 381.026 339.858 380.509C339.52 379.992 339.351 379.358 339.351 378.607C339.351 377.961 339.475 377.429 339.724 377.011C339.972 376.594 340.308 376.263 340.73 376.02C341.153 375.776 341.625 375.592 342.147 375.468C342.669 375.343 343.201 375.249 343.743 375.184C344.429 375.105 344.986 375.04 345.414 374.99C345.841 374.936 346.152 374.849 346.346 374.729C346.54 374.61 346.637 374.416 346.637 374.148V374.096C346.637 373.444 346.453 372.94 346.085 372.582C345.722 372.224 345.18 372.045 344.459 372.045C343.708 372.045 343.117 372.211 342.684 372.544C342.257 372.873 341.961 373.238 341.797 373.641L339.701 373.163C339.95 372.467 340.313 371.906 340.79 371.478C341.272 371.045 341.827 370.732 342.453 370.538C343.079 370.339 343.738 370.24 344.429 370.24C344.887 370.24 345.371 370.295 345.883 370.404C346.4 370.509 346.883 370.702 347.33 370.986C347.782 371.269 348.153 371.674 348.441 372.201C348.73 372.723 348.874 373.402 348.874 374.237V381.844H346.696V380.278H346.607C346.463 380.566 346.246 380.849 345.958 381.128C345.67 381.406 345.299 381.637 344.847 381.821C344.394 382.005 343.852 382.097 343.221 382.097ZM343.706 380.308C344.322 380.308 344.849 380.186 345.287 379.942C345.729 379.699 346.065 379.38 346.294 378.988C346.527 378.59 346.644 378.165 346.644 377.712V376.236C346.564 376.315 346.41 376.39 346.182 376.46C345.958 376.524 345.702 376.581 345.414 376.631C345.125 376.676 344.844 376.718 344.571 376.758C344.297 376.793 344.069 376.822 343.885 376.847C343.452 376.902 343.057 376.994 342.699 377.123C342.346 377.252 342.063 377.439 341.849 377.683C341.64 377.921 341.536 378.239 341.536 378.637C341.536 379.189 341.74 379.607 342.147 379.89C342.555 380.168 343.074 380.308 343.706 380.308ZM360.427 373.186L358.406 373.544C358.322 373.285 358.187 373.039 358.003 372.805C357.824 372.572 357.581 372.38 357.273 372.231C356.964 372.082 356.579 372.007 356.117 372.007C355.485 372.007 354.958 372.149 354.536 372.433C354.113 372.711 353.902 373.071 353.902 373.514C353.902 373.897 354.044 374.205 354.327 374.439C354.61 374.672 355.068 374.864 355.699 375.013L357.519 375.43C358.573 375.674 359.358 376.049 359.875 376.556C360.392 377.064 360.651 377.722 360.651 378.533C360.651 379.219 360.452 379.83 360.054 380.367C359.661 380.899 359.112 381.317 358.406 381.62C357.705 381.923 356.892 382.075 355.968 382.075C354.685 382.075 353.638 381.801 352.828 381.255C352.018 380.703 351.521 379.92 351.337 378.906L353.492 378.577C353.626 379.139 353.902 379.564 354.32 379.853C354.737 380.136 355.282 380.278 355.953 380.278C356.684 380.278 357.268 380.126 357.705 379.823C358.143 379.515 358.361 379.139 358.361 378.697C358.361 378.339 358.227 378.038 357.959 377.794C357.695 377.551 357.29 377.367 356.743 377.243L354.804 376.817C353.735 376.574 352.945 376.186 352.433 375.654C351.926 375.122 351.672 374.449 351.672 373.633C351.672 372.957 351.861 372.365 352.239 371.858C352.617 371.351 353.139 370.956 353.805 370.673C354.471 370.384 355.234 370.24 356.094 370.24C357.332 370.24 358.307 370.509 359.018 371.045C359.729 371.577 360.198 372.291 360.427 373.186ZM377.244 373.186L375.223 373.544C375.138 373.285 375.004 373.039 374.82 372.805C374.641 372.572 374.397 372.38 374.089 372.231C373.781 372.082 373.396 372.007 372.933 372.007C372.302 372.007 371.775 372.149 371.352 372.433C370.93 372.711 370.718 373.071 370.718 373.514C370.718 373.897 370.86 374.205 371.143 374.439C371.427 374.672 371.884 374.864 372.516 375.013L374.335 375.43C375.389 375.674 376.175 376.049 376.692 376.556C377.209 377.064 377.467 377.722 377.467 378.533C377.467 379.219 377.268 379.83 376.871 380.367C376.478 380.899 375.929 381.317 375.223 381.62C374.522 381.923 373.709 382.075 372.784 382.075C371.501 382.075 370.455 381.801 369.644 381.255C368.834 380.703 368.337 379.92 368.153 378.906L370.308 378.577C370.442 379.139 370.718 379.564 371.136 379.853C371.554 380.136 372.098 380.278 372.769 380.278C373.5 380.278 374.084 380.126 374.522 379.823C374.959 379.515 375.178 379.139 375.178 378.697C375.178 378.339 375.044 378.038 374.775 377.794C374.512 377.551 374.106 377.367 373.56 377.243L371.621 376.817C370.552 376.574 369.761 376.186 369.249 375.654C368.742 375.122 368.489 374.449 368.489 373.633C368.489 372.957 368.677 372.365 369.055 371.858C369.433 371.351 369.955 370.956 370.621 370.673C371.288 370.384 372.051 370.24 372.911 370.24C374.149 370.24 375.123 370.509 375.834 371.045C376.545 371.577 377.015 372.291 377.244 373.186ZM387.175 377.093V370.389H389.412V381.844H387.22V379.86H387.1C386.837 380.472 386.414 380.981 385.833 381.389C385.256 381.792 384.537 381.993 383.677 381.993C382.942 381.993 382.29 381.831 381.724 381.508C381.162 381.18 380.719 380.695 380.396 380.054C380.078 379.413 379.919 378.62 379.919 377.675V370.389H382.149V377.407C382.149 378.187 382.365 378.809 382.797 379.271C383.23 379.733 383.792 379.964 384.483 379.964C384.9 379.964 385.316 379.86 385.728 379.651C386.146 379.442 386.491 379.127 386.765 378.704C387.043 378.282 387.18 377.745 387.175 377.093ZM397.233 382.075C396.124 382.075 395.17 381.824 394.369 381.322C393.574 380.815 392.962 380.116 392.535 379.226C392.107 378.336 391.894 377.317 391.894 376.169C391.894 375.005 392.112 373.979 392.55 373.089C392.987 372.194 393.604 371.495 394.399 370.993C395.195 370.491 396.132 370.24 397.211 370.24C398.081 370.24 398.856 370.402 399.537 370.725C400.218 371.043 400.768 371.49 401.185 372.067C401.608 372.644 401.859 373.317 401.939 374.088H399.769C399.649 373.551 399.376 373.089 398.948 372.701C398.526 372.313 397.959 372.119 397.248 372.119C396.627 372.119 396.082 372.283 395.615 372.612C395.152 372.935 394.792 373.397 394.533 373.999C394.275 374.595 394.146 375.301 394.146 376.116C394.146 376.952 394.272 377.673 394.526 378.279C394.78 378.886 395.138 379.355 395.6 379.689C396.067 380.022 396.617 380.188 397.248 380.188C397.671 380.188 398.053 380.111 398.396 379.957C398.744 379.798 399.035 379.572 399.269 379.278C399.508 378.985 399.674 378.632 399.769 378.219H401.939C401.859 378.96 401.618 379.621 401.215 380.203C400.813 380.785 400.273 381.242 399.597 381.575C398.926 381.908 398.138 382.075 397.233 382.075ZM409.148 382.075C408.039 382.075 407.085 381.824 406.284 381.322C405.489 380.815 404.877 380.116 404.45 379.226C404.022 378.336 403.809 377.317 403.809 376.169C403.809 375.005 404.027 373.979 404.465 373.089C404.902 372.194 405.519 371.495 406.314 370.993C407.11 370.491 408.047 370.24 409.126 370.24C409.996 370.24 410.771 370.402 411.452 370.725C412.134 371.043 412.683 371.49 413.1 372.067C413.523 372.644 413.774 373.317 413.854 374.088H411.684C411.564 373.551 411.291 373.089 410.863 372.701C410.441 372.313 409.874 372.119 409.163 372.119C408.542 372.119 407.997 372.283 407.53 372.612C407.067 372.935 406.707 373.397 406.449 373.999C406.19 374.595 406.061 375.301 406.061 376.116C406.061 376.952 406.188 377.673 406.441 378.279C406.695 378.886 407.053 379.355 407.515 379.689C407.982 380.022 408.532 380.188 409.163 380.188C409.586 380.188 409.968 380.111 410.311 379.957C410.659 379.798 410.95 379.572 411.184 379.278C411.423 378.985 411.589 378.632 411.684 378.219H413.854C413.774 378.96 413.533 379.621 413.13 380.203C412.728 380.785 412.188 381.242 411.512 381.575C410.841 381.908 410.053 382.075 409.148 382.075ZM421.175 382.075C420.046 382.075 419.074 381.834 418.259 381.352C417.449 380.864 416.822 380.181 416.38 379.301C415.942 378.416 415.724 377.379 415.724 376.191C415.724 375.018 415.942 373.984 416.38 373.089C416.822 372.194 417.439 371.495 418.229 370.993C419.025 370.491 419.954 370.24 421.018 370.24C421.665 370.24 422.291 370.347 422.898 370.561C423.504 370.775 424.049 371.11 424.531 371.567C425.013 372.025 425.393 372.619 425.672 373.35C425.95 374.076 426.089 374.958 426.089 375.997V376.788H416.984V375.117H423.904C423.904 374.531 423.785 374.011 423.546 373.559C423.308 373.101 422.972 372.741 422.54 372.477C422.112 372.214 421.61 372.082 421.033 372.082C420.407 372.082 419.86 372.236 419.393 372.544C418.93 372.848 418.572 373.245 418.319 373.738C418.07 374.225 417.946 374.754 417.946 375.326V376.631C417.946 377.397 418.08 378.048 418.349 378.585C418.622 379.122 419.002 379.532 419.49 379.815C419.977 380.094 420.546 380.233 421.197 380.233C421.62 380.233 422.005 380.173 422.353 380.054C422.701 379.93 423.002 379.746 423.256 379.502C423.509 379.259 423.703 378.958 423.837 378.6L425.948 378.98C425.779 379.602 425.475 380.146 425.038 380.613C424.605 381.076 424.061 381.436 423.405 381.695C422.753 381.948 422.01 382.075 421.175 382.075ZM437.147 373.186L435.126 373.544C435.041 373.285 434.907 373.039 434.723 372.805C434.544 372.572 434.301 372.38 433.992 372.231C433.684 372.082 433.299 372.007 432.836 372.007C432.205 372.007 431.678 372.149 431.256 372.433C430.833 372.711 430.622 373.071 430.622 373.514C430.622 373.897 430.763 374.205 431.047 374.439C431.33 374.672 431.787 374.864 432.419 375.013L434.238 375.43C435.292 375.674 436.078 376.049 436.595 376.556C437.112 377.064 437.371 377.722 437.371 378.533C437.371 379.219 437.172 379.83 436.774 380.367C436.381 380.899 435.832 381.317 435.126 381.62C434.425 381.923 433.612 382.075 432.687 382.075C431.405 382.075 430.358 381.801 429.548 381.255C428.737 380.703 428.24 379.92 428.056 378.906L430.211 378.577C430.346 379.139 430.622 379.564 431.039 379.853C431.457 380.136 432.001 380.278 432.672 380.278C433.403 380.278 433.987 380.126 434.425 379.823C434.862 379.515 435.081 379.139 435.081 378.697C435.081 378.339 434.947 378.038 434.678 377.794C434.415 377.551 434.01 377.367 433.463 377.243L431.524 376.817C430.455 376.574 429.665 376.186 429.153 375.654C428.645 375.122 428.392 374.449 428.392 373.633C428.392 372.957 428.581 372.365 428.959 371.858C429.336 371.351 429.858 370.956 430.525 370.673C431.191 370.384 431.954 370.24 432.814 370.24C434.052 370.24 435.026 370.509 435.737 371.045C436.448 371.577 436.918 372.291 437.147 373.186ZM448.406 373.186L446.385 373.544C446.3 373.285 446.166 373.039 445.982 372.805C445.803 372.572 445.559 372.38 445.251 372.231C444.943 372.082 444.558 372.007 444.095 372.007C443.464 372.007 442.937 372.149 442.514 372.433C442.092 372.711 441.88 373.071 441.88 373.514C441.88 373.897 442.022 374.205 442.305 374.439C442.589 374.672 443.046 374.864 443.678 375.013L445.497 375.43C446.551 375.674 447.337 376.049 447.854 376.556C448.371 377.064 448.629 377.722 448.629 378.533C448.629 379.219 448.43 379.83 448.033 380.367C447.64 380.899 447.091 381.317 446.385 381.62C445.684 381.923 444.871 382.075 443.946 382.075C442.663 382.075 441.617 381.801 440.807 381.255C439.996 380.703 439.499 379.92 439.315 378.906L441.47 378.577C441.604 379.139 441.88 379.564 442.298 379.853C442.716 380.136 443.26 380.278 443.931 380.278C444.662 380.278 445.246 380.126 445.684 379.823C446.121 379.515 446.34 379.139 446.34 378.697C446.34 378.339 446.206 378.038 445.937 377.794C445.674 377.551 445.269 377.367 444.722 377.243L442.783 376.817C441.714 376.574 440.923 376.186 440.411 375.654C439.904 375.122 439.651 374.449 439.651 373.633C439.651 372.957 439.84 372.365 440.217 371.858C440.595 371.351 441.117 370.956 441.783 370.673C442.45 370.384 443.213 370.24 444.073 370.24C445.311 370.24 446.285 370.509 446.996 371.045C447.707 371.577 448.177 372.291 448.406 373.186ZM456.532 370.389V372.179H450.059V370.389H456.532ZM451.834 381.844V369.062C451.834 368.346 451.991 367.752 452.304 367.279C452.617 366.802 453.032 366.447 453.549 366.213C454.066 365.974 454.628 365.855 455.235 365.855C455.682 365.855 456.065 365.892 456.383 365.967C456.701 366.037 456.938 366.101 457.092 366.161L456.57 367.966C456.465 367.936 456.331 367.901 456.167 367.861C456.003 367.816 455.804 367.794 455.57 367.794C455.028 367.794 454.641 367.928 454.407 368.197C454.178 368.465 454.064 368.853 454.064 369.36V381.844H451.834ZM466.089 377.093V370.389H468.326V381.844H466.134V379.86H466.014C465.751 380.472 465.328 380.981 464.747 381.389C464.17 381.792 463.452 381.993 462.591 381.993C461.856 381.993 461.204 381.831 460.638 381.508C460.076 381.18 459.633 380.695 459.31 380.054C458.992 379.413 458.833 378.62 458.833 377.675V370.389H461.063V377.407C461.063 378.187 461.279 378.809 461.711 379.271C462.144 379.733 462.706 379.964 463.397 379.964C463.814 379.964 464.23 379.86 464.642 379.651C465.06 379.442 465.405 379.127 465.679 378.704C465.957 378.282 466.094 377.745 466.089 377.093ZM473.552 366.571V381.844H471.322V366.571H473.552Z" fill="#263238"/>
</svg>
