<?xml version="1.0" encoding="utf-8"?>
<!-- Generator: Adobe Illustrator 25.0.0, SVG Export Plug-In . SVG Version: 6.00 Build 0)  -->
<svg version="1.1" xmlns="http://www.w3.org/2000/svg" xmlns:xlink="http://www.w3.org/1999/xlink" x="0px" y="0px"
	 viewBox="0 0 1122 1122" style="enable-background:new 0 0 1122 1122;" xml:space="preserve">
<style type="text/css">
	.st0{fill:#1f527d;}
</style>
<g id="Bg">
</g>
<g id="Object">
	<g>
		<path class="st0" d="M479.39,663.15l198.99-177.18l19.2,6.99l0.75-24.75l0.34-0.3l-0.32-0.36l1.35-44.5l-23.32,15.26
			c-30.07-26.67-68.76-41.33-109.19-41.33c-38.62,0-76.11,13.57-105.57,38.2l-2.22,1.86l21.57,21.57l1.85-1.5
			c23.71-19.18,53.67-29.74,84.36-29.74c29.97,0,59.16,10.04,82.6,28.34l-19.48,12.75l21.83,7.95L462.31,645.42
			c-27.45-34.23-36.47-79.62-23.74-122.32l20.24,13.89l-2.92-71.54l-65.47,24.62l22.06,15.14c-21.79,60.05-6.89,127.67,38.25,172.81
			c21.18,21.18,47.7,36.16,76.71,43.32l2.81,0.69l4.68-30.14l-2.3-0.61C512.98,686.08,494.76,676.42,479.39,663.15z"/>
		<path class="st0" d="M722.81,507.83l-0.94-2.74l-27.83,12.5l0.73,2.26c15.74,48.41,3.23,100.78-32.66,136.67
			c-14.48,14.48-31.52,25.17-50.7,31.81l-0.33-24.26l-56.76,43.65L612.2,747l-0.36-26.97c27.06-7.58,51.84-22.08,71.78-42.02
			c22.2-22.2,37.51-50.11,44.26-80.7C734.45,567.54,732.7,536.59,722.81,507.83z"/>
	</g>
</g>
</svg>
