<?xml version="1.0" encoding="utf-8"?>
<!-- Generator: Adobe Illustrator 25.0.0, SVG Export Plug-In . SVG Version: 6.00 Build 0)  -->
<svg version="1.1" xmlns="http://www.w3.org/2000/svg" xmlns:xlink="http://www.w3.org/1999/xlink" x="0px" y="0px"
	 viewBox="0 0 1122 1122" style="enable-background:new 0 0 1122 1122;" xml:space="preserve">
<style type="text/css">
	.st0{fill:#5FA7F2;}
</style>
<g id="Bg">
</g>
<g id="Object">
	<g>
		<path class="st0" d="M684.84,698.52c-29.98,26.61-68.19,41.19-108.65,41.19c-26.76,0-52.51-6.33-75.55-18.26l188.66-261.2
			c0.38,0.37,0.76,0.74,1.14,1.11c29.89,29.9,46.79,69.42,47.86,111.68c17.96-2.95,35.96-5.83,53.96-8.72
			c-3.16-53.41-25.54-103.34-63.49-141.3c-41.23-41.23-96.04-63.93-154.34-63.93h-0.02c-58.32,0-113.13,22.71-154.36,63.93
			c-4.85,4.85-9.43,9.89-13.76,15.11l-39.83-39.82l-22.58,152.74l152.34-22.98l-51.29-51.28c4.18-5.38,8.6-10.57,13.45-15.42
			c30.95-30.94,72.11-47.98,115.91-47.99c24.79,0,48.72,5.43,70.44,15.72L457.18,688.77c-26.37-27.59-41.27-60.13-44.34-96.84
			l-39.22,4.39l-0.53,0.06l-0.53,0.02c-3.06,0.1-7.09,0.26-11.07,0.75c-0.85,0.1-1.71,0.23-2.56,0.35
			c5,50.07,27.13,96.91,62.79,132.57C462.95,771.3,517.77,794,576.08,794c54.98,0,106.85-20.21,147.16-57.08l39.32,39.32
			l22.98-152.34l-152.74,22.58L684.84,698.52z"/>
	</g>
</g>
</svg>
