<svg xmlns="http://www.w3.org/2000/svg" width="61" height="57" viewBox="0 0 61 57">
  <g id="logo-fallback-placeholder" transform="translate(-147 -386)">
    <g id="NoPath_-_Copy_4_" data-name="NoPath - Copy (4)" transform="translate(147 386)" fill="#fcfdff" stroke="#d1d1db" stroke-width="0.7">
      <rect width="61" height="57" rx="5" stroke="none"/>
      <rect x="0.35" y="0.35" width="60.3" height="56.3" rx="4.65" fill="none"/>
    </g>
    <g id="Group_2937" data-name="Group 2937" transform="translate(163.588 401.006)">
      <path id="Path_9019" data-name="Path 9019" d="M325.5,242.531a.412.412,0,0,0,.412.412h2.06a.41.41,0,0,0,.155-.032h.01a.318.318,0,0,0,.039-.019l.008-.005h0a.4.4,0,0,1-.045.023.412.412,0,0,0,.244-.379v-4.119a.412.412,0,0,0-.412-.412h-2.06a.412.412,0,0,0-.29.12l.006-.007-.011.011-.009.01.008-.008h0a.414.414,0,0,0-.083.125l.024-.047-.005.008a.355.355,0,0,0-.02.041v.006a.411.411,0,0,0-.031.152Zm.824-3.707h1.236v3.3h-1.236Z" transform="translate(-312.111 -227.86)" fill="#d1d1db"/>
      <path id="Path_9020" data-name="Path 9020" d="M132.836,235.22a1.236,1.236,0,0,1-1.236,1.236h-2.06a1.236,1.236,0,0,1-1.236-1.236v-1.463l-11.455-3.525v15.128a.412.412,0,0,0,.412.412h26.617a.412.412,0,0,0,.412-.412V230.231l-11.455,3.525Z" transform="translate(-115.74 -220.548)" fill="#d1d1db"/>
      <path id="Path_9021" data-name="Path 9021" d="M369.087,321.68l-.031.008.022-.005Z" transform="translate(-353.105 -306.617)" fill="#d1d1db"/>
      <path id="Path_9022" data-name="Path 9022" d="M371.574,320.51l-.015.011.007-.005Z" transform="translate(-355.46 -305.515)" fill="#d1d1db"/>
      <path id="Path_9023" data-name="Path 9023" d="M367.9,238.017l-.022,0h.007l.024,0Z" transform="translate(-351.986 -227.875)" fill="#d1d1db"/>
      <path id="Path_9024" data-name="Path 9024" d="M127.245,70.136h-9.569V68.329a2.631,2.631,0,0,0-2.63-2.63h-4.437a2.631,2.631,0,0,0-2.63,2.63v1.806H98.409a.412.412,0,0,0-.412.412v3.326a.412.412,0,0,0,.29.394l12.274,3.776V76.251a1.236,1.236,0,0,1,1.236-1.236h2.06a1.236,1.236,0,0,1,1.236,1.236v1.794l12.274-3.776a.412.412,0,0,0,.29-.394V70.548a.412.412,0,0,0-.412-.412Zm-10.393,0H108.8V68.329a1.808,1.808,0,0,1,1.806-1.806h4.437a1.808,1.808,0,0,1,1.806,1.806Z" transform="translate(-97.997 -65.699)" fill="#d1d1db"/>
      <path id="Path_9025" data-name="Path 9025" d="M326.989,240.305l-.005.006.02-.023,0,0Z" transform="translate(-313.508 -230.014)" fill="#d1d1db"/>
      <path id="Path_9026" data-name="Path 9026" d="M372.87,240.52a.438.438,0,0,1,.064.1.37.37,0,0,0-.029-.055A.358.358,0,0,0,372.87,240.52Z" transform="translate(-356.694 -230.232)" fill="#d1d1db"/>
      <path id="Path_9027" data-name="Path 9027" d="M331.572,238.035h0l.012,0Z" transform="translate(-317.824 -227.893)" fill="#d1d1db"/>
      <path id="Path_9028" data-name="Path 9028" d="M368.909,238.147l-.009,0,.021.005.009,0Z" transform="translate(-352.958 -227.996)" fill="#d1d1db"/>
      <path id="Path_9029" data-name="Path 9029" d="M330.981,238.075l-.015,0-.008,0,.02,0,.016,0Z" transform="translate(-317.248 -227.931)" fill="#d1d1db"/>
      <path id="Path_9030" data-name="Path 9030" d="M325.771,242.589l-.006.02.006-.019v0Z" transform="translate(-312.361 -232.17)" fill="#d1d1db"/>
      <path id="Path_9031" data-name="Path 9031" d="M327.91,239.5l.007-.006.008-.007Z" transform="translate(-314.38 -229.256)" fill="#d1d1db"/>
    </g>
  </g>
</svg>
