<svg width="26" height="26" viewBox="0 0 26 26" fill="none" xmlns="http://www.w3.org/2000/svg">
<path d="M9.28539 9.13128C8.94368 8.78957 8.38966 8.78957 8.04795 9.13128C7.70624 9.47299 7.70624 10.027 8.04795 10.3687L9.28539 9.13128ZM14.0833 15.1667H14.9583C14.9583 14.9346 14.8661 14.712 14.7021 14.5479L14.0833 15.1667ZM14.0833 22.75V23.625C14.5666 23.625 14.9583 23.2332 14.9583 22.75H14.0833ZM8.66667 22.75H7.79167C7.79167 23.2332 8.18342 23.625 8.66667 23.625V22.75ZM9.54167 18.4167C9.54167 17.9334 9.14992 17.5417 8.66667 17.5417C8.18342 17.5417 7.79167 17.9334 7.79167 18.4167H9.54167ZM8.66667 23.625C9.14992 23.625 9.54167 23.2332 9.54167 22.75C9.54167 22.2668 9.14992 21.875 8.66667 21.875V23.625ZM3.25 22.75H2.375C2.375 23.2332 2.76675 23.625 3.25 23.625V22.75ZM3.25 15.1667L2.63128 14.5479C2.46719 14.712 2.375 14.9346 2.375 15.1667H3.25ZM9.28539 10.3687C9.62709 10.027 9.62709 9.47299 9.28539 9.13128C8.94368 8.78957 8.38966 8.78957 8.04795 9.13128L9.28539 10.3687ZM8.875 10.8333C8.875 11.3166 9.26675 11.7083 9.75 11.7083C10.2332 11.7083 10.625 11.3166 10.625 10.8333H8.875ZM22.75 22.75V23.625C23.2332 23.625 23.625 23.2332 23.625 22.75H22.75ZM14.0833 21.875C13.6001 21.875 13.2083 22.2668 13.2083 22.75C13.2083 23.2332 13.6001 23.625 14.0833 23.625V21.875ZM8.04795 10.3687L13.4646 15.7854L14.7021 14.5479L9.28539 9.13128L8.04795 10.3687ZM13.2083 15.1667V22.75H14.9583V15.1667H13.2083ZM14.0833 21.875H8.66667V23.625H14.0833V21.875ZM9.54167 22.75V18.4167H7.79167V22.75H9.54167ZM8.66667 21.875H3.25V23.625H8.66667V21.875ZM4.125 22.75V15.1667H2.375V22.75H4.125ZM3.86872 15.7854L9.28539 10.3687L8.04795 9.13128L2.63128 14.5479L3.86872 15.7854ZM10.625 10.8333V4.33333H8.875V10.8333H10.625ZM10.625 4.33333C10.625 4.21827 10.7183 4.125 10.8333 4.125V2.375C9.75178 2.375 8.875 3.25178 8.875 4.33333H10.625ZM10.8333 4.125H21.6667V2.375H10.8333V4.125ZM21.6667 4.125C21.7817 4.125 21.875 4.21827 21.875 4.33333H23.625C23.625 3.25178 22.7482 2.375 21.6667 2.375V4.125ZM21.875 4.33333V22.75H23.625V4.33333H21.875ZM22.75 21.875H14.0833V23.625H22.75V21.875Z" fill="#FF9F43"/>
<path d="M14.0833 7.58337V7.5942" stroke="#FF9F43" stroke-width="1.75" stroke-linecap="round" stroke-linejoin="round"/>
<path d="M18.4167 7.58337V7.5942" stroke="#FF9F43" stroke-width="1.75" stroke-linecap="round" stroke-linejoin="round"/>
<path d="M18.4167 11.9166V11.9275" stroke="#FF9F43" stroke-width="1.75" stroke-linecap="round" stroke-linejoin="round"/>
<path d="M18.4167 16.25V16.2608" stroke="#FF9F43" stroke-width="1.75" stroke-linecap="round" stroke-linejoin="round"/>
</svg>
