<svg width="20" height="20" viewBox="0 0 20 20" fill="none" xmlns="http://www.w3.org/2000/svg">
<g clip-path="url(#clip0_3144_28734)">
<path d="M5.59174 7.17203V6.57083C5.59174 6.40894 5.46052 6.27771 5.29862 6.27771C5.13673 6.27771 5.0055 6.40894 5.0055 6.57083V7.17203C5.0055 7.33392 5.13673 7.465 5.29862 7.465C5.46052 7.465 5.59174 7.33392 5.59174 7.17203Z" fill="#7367F0"/>
<path d="M11.942 7.465C12.1037 7.465 12.235 7.33392 12.235 7.17203V6.57083C12.235 6.40894 12.1037 6.27771 11.942 6.27771C11.7801 6.27771 11.6489 6.40894 11.6489 6.57083V7.17203C11.6489 7.33392 11.7801 7.465 11.942 7.465Z" fill="#7367F0"/>
<path d="M8.62031 7.78606C9.02436 7.78606 9.40354 7.6173 9.66081 7.32311C9.76731 7.20119 9.7548 7.0161 9.63304 6.90959C9.51112 6.80309 9.32603 6.81545 9.21952 6.93736C9.07365 7.10414 8.85514 7.19981 8.62031 7.19981C8.38532 7.19981 8.16697 7.10414 8.0211 6.93736C7.91459 6.81545 7.7295 6.80309 7.60758 6.90959C7.48566 7.0161 7.4733 7.20119 7.57981 7.32311C7.83692 7.6173 8.21626 7.78606 8.62031 7.78606Z" fill="#7367F0"/>
<path d="M19.3215 14.4333L17.7355 14.2029C17.6659 14.1928 17.6059 14.1492 17.5749 14.0862L17.2406 13.4088C17.2406 13.4088 17.2406 5.21027 17.2406 5.20997C17.2406 4.26926 16.4752 3.50388 15.5345 3.50388H12.348V2.69837C12.348 1.44745 11.3304 0.429688 10.0795 0.429688H7.16111C5.9102 0.429688 4.89243 1.44745 4.89243 2.69837V3.50388H4.01902C3.85728 3.50388 3.72605 3.63511 3.72605 3.797C3.72605 3.95875 3.85728 4.08997 4.01902 4.08997H15.5344C16.1521 4.08997 16.6544 4.59244 16.6544 5.20997C16.6544 6.60676 16.0709 7.95594 15.0725 8.92824C14.6633 9.32664 14.1852 9.65288 13.6673 9.8932C13.6084 9.49449 13.2387 9.17512 12.8348 9.17512C12.8348 9.17512 12.3044 9.17512 12.3039 9.17512C11.8479 9.17512 11.4624 9.56148 11.4624 10.0168V10.3732H5.77821V10.0168C5.77821 9.5627 5.39521 9.17512 4.93653 9.17512C4.93653 9.17512 4.40598 9.17512 4.40583 9.17512C4.00757 9.17512 3.64838 9.47679 3.57819 9.86787C3.57667 9.87642 3.57453 9.88466 3.57316 9.8932C2.45881 9.37593 1.54343 8.45094 1.03943 7.32972C0.740205 6.66703 0.586091 5.93675 0.586091 5.20997C0.586091 4.59244 1.08856 4.08997 1.70609 4.08997H2.84684C3.00873 4.08997 3.13981 3.95875 3.13981 3.797C3.13981 3.63511 3.00873 3.50388 2.84684 3.50388H1.70609C0.765382 3.50388 0 4.26926 0 5.21058V14.7093C0 16.0111 1.05896 17.07 2.36069 17.07H9.58696C9.74886 17.07 9.88008 16.939 9.88008 16.7771C9.88008 16.6152 9.74886 16.4839 9.58696 16.4839H2.36069C1.38214 16.4839 0.586091 15.6879 0.586091 14.7093V7.74263C0.588227 7.74705 0.590669 7.75132 0.592957 7.75575C0.611878 7.79405 0.63202 7.83189 0.652009 7.86988C1.24069 8.99385 2.20322 9.91868 3.36106 10.4413C3.42652 10.4707 3.49259 10.4991 3.55881 10.5269C3.56064 10.5277 3.56232 10.5286 3.56415 10.5292V11.3159C3.56415 11.78 3.94166 12.1576 4.40583 12.1576H4.93653C5.39368 12.1576 5.77821 11.7734 5.77821 11.3159V10.9593H11.4624V11.3159C11.4624 11.7742 11.846 12.1576 12.3041 12.1576H12.8348C13.2988 12.1576 13.6765 11.7801 13.6765 11.3159V10.5293C13.6785 10.5286 13.6803 10.5277 13.6823 10.5269C14.3273 10.2609 14.9243 9.8752 15.4318 9.39668C15.9328 8.92427 16.3506 8.36076 16.6545 7.74263V12.3827C16.5134 12.2672 16.3309 12.2034 16.1489 12.2034C15.855 12.2034 15.5568 12.3787 15.432 12.6489L14.7226 14.0863C14.6916 14.1492 14.6315 14.1928 14.5621 14.2029C14.5621 14.2029 12.9791 14.433 12.9759 14.4335C12.3337 14.5267 12.0673 15.3427 12.533 15.7968L13.2381 16.4841H10.7593C10.5974 16.4841 10.4662 16.6152 10.4662 16.7771C10.4662 16.939 10.5974 17.0702 10.7593 17.0702H13.7448C13.7447 17.0815 13.4719 18.68 13.4711 18.684C13.3606 19.3315 14.0541 19.8149 14.6309 19.5265L16.0495 18.7808C16.1106 18.7488 16.187 18.7488 16.2479 18.7808C16.2479 18.7808 17.6628 19.5247 17.6667 19.5265C18.2376 19.8268 18.9354 19.3196 18.8263 18.684L18.5555 17.1042C18.5436 17.0351 18.5665 16.9646 18.6167 16.9155C18.6167 16.9155 19.7615 15.7996 19.7644 15.7968C20.2307 15.3423 19.964 14.5267 19.3215 14.4333ZM10.3641 3.50388H6.87638V2.69837C6.87638 2.54135 7.0041 2.41364 7.16111 2.41364H10.0795C10.2364 2.41364 10.3641 2.54135 10.3641 2.69837V3.50388ZM10.9502 3.50388V2.69837C10.9502 2.21817 10.5596 1.82755 10.0795 1.82755H7.16111C6.68092 1.82755 6.29029 2.21817 6.29029 2.69837V3.50388H5.47852V2.69837C5.47852 1.77063 6.23338 1.01578 7.16111 1.01578H10.0795C11.0072 1.01578 11.762 1.77063 11.762 2.69837V3.50388H10.9502ZM4.40583 11.5715C4.26484 11.5715 4.15024 11.4569 4.15024 11.3159V10.0168C4.15024 9.87581 4.26484 9.76121 4.40583 9.76121H4.93653C5.07127 9.76121 5.19196 9.87794 5.19196 10.0168V11.3159C5.19196 11.4551 5.07584 11.5715 4.93653 11.5715H4.40583ZM12.3041 11.5715C12.1654 11.5715 12.0487 11.4543 12.0487 11.3159C12.0487 11.3159 12.0487 10.0171 12.0487 10.0168C12.0487 9.87764 12.1649 9.76137 12.3041 9.76137H12.8348C12.9756 9.76137 13.0904 9.87596 13.0904 10.0168V11.3161C13.0904 11.4569 12.9756 11.5715 12.8348 11.5715C12.8348 11.5715 12.3049 11.5715 12.3041 11.5715ZM19.3553 15.3769L18.2076 16.4958C18.0191 16.6794 17.9332 16.944 17.9776 17.2032L18.2486 18.783C18.2779 18.9539 18.093 19.0885 17.9393 19.0077C17.9393 19.0077 16.5207 18.2619 16.5206 18.2619C16.2899 18.1404 16.0076 18.1406 15.7767 18.2619L14.3581 19.0077C14.2049 19.0882 14.0193 18.9545 14.0488 18.783L14.3196 17.2032C14.3619 16.9568 14.2862 16.7058 14.117 16.5239C14.1089 16.5151 12.9421 15.3769 12.9421 15.3769C12.8165 15.2545 12.8888 15.0382 13.0602 15.0133L14.6463 14.7829C14.9068 14.745 15.1317 14.5815 15.2481 14.3456C15.2481 14.3456 15.9561 12.9111 15.9575 12.9082C16.0344 12.7524 16.2631 12.7529 16.3399 12.9083L17.0491 14.3456C17.1656 14.5816 17.3906 14.745 17.6509 14.7829L19.2371 15.0133C19.4068 15.038 19.4811 15.2544 19.3553 15.3769Z" fill="#7367F0"/>
</g>
<defs>
<clipPath id="clip0_3144_28734">
<rect width="20" height="20" fill="white"/>
</clipPath>
</defs>
</svg>
