<svg xmlns="http://www.w3.org/2000/svg" xmlns:xlink="http://www.w3.org/1999/xlink" width="23.511" height="23.5" viewBox="0 0 23.511 23.5">
  <defs>
    <linearGradient id="linear-gradient" x1="0.5" y1="-0.302" x2="0.5" y2="1" gradientUnits="objectBoundingBox">
      <stop offset="0" stop-color="#f6b4a9"/>
      <stop offset="1" stop-color="#ec456e"/>
    </linearGradient>
  </defs>
  <g id="add-profile" transform="translate(0.049)">
    <path id="Path_7859" data-name="Path 7859" d="M10.538,17.625a7.022,7.022,0,0,1,2.021-4.935.707.707,0,0,0-.306-1.175c-.118-.047-.235-.071-.352-.118a.432.432,0,0,1-.118-.776,4.55,4.55,0,0,0,2.045-3.807V4.582A4.609,4.609,0,0,0,9.222,0H9.128A4.613,4.613,0,0,0,4.522,4.606V6.815a4.656,4.656,0,0,0,2.044,3.831.433.433,0,0,1-.117.775A10.117,10.117,0,0,0,.386,16.144,3.374,3.374,0,0,0,3.347,21.15h7a.7.7,0,0,0,.658-.963A7.18,7.18,0,0,1,10.538,17.625Z" fill="url(#linear-gradient)"/>
    <path id="Path_7860" data-name="Path 7860" d="M55.875,50a5.875,5.875,0,1,0,5.875,5.875A5.877,5.877,0,0,0,55.875,50Zm2.679,6.416H56.416v2.139a.541.541,0,0,1-1.081,0V56.416H53.2a.541.541,0,0,1,0-1.081h2.139V53.2a.541.541,0,0,1,1.081,0v2.139h2.139a.532.532,0,0,1,.541.541A.547.547,0,0,1,58.554,56.416Z" transform="translate(-38.287 -38.25)" fill="url(#linear-gradient)"/>
  </g>
</svg>
