<svg xmlns="http://www.w3.org/2000/svg" width="24.558" height="27.072" viewBox="0 0 24.558 27.072">
  <g id="applied-jobs" transform="translate(-5.5 -1)">
    <path id="Path_7848" data-name="Path 7848" d="M60.787,55a5.387,5.387,0,1,0,5.387,5.387A5.376,5.376,0,0,0,60.787,55Zm2.956,4.834-3.232,3.232a.967.967,0,0,1-1.381,0L57.859,61.8a.967.967,0,0,1,0-1.381h0a.967.967,0,0,1,1.381,0l.58.58,2.541-2.541a.967.967,0,0,1,1.381,0h0A.967.967,0,0,1,63.743,59.834Z" transform="translate(-36.115 -39.083)" fill="#287cc4"/>
    <path id="Path_7849" data-name="Path 7849" d="M17.9,21.3a6.779,6.779,0,0,1,6.768-6.768H25.8V2.133A1.12,1.12,0,0,0,24.672,1H6.633A1.138,1.138,0,0,0,5.5,2.133V26.94a1.12,1.12,0,0,0,1.133,1.133H24.672A6.779,6.779,0,0,1,17.9,21.3Zm-4.917-1.3H10.555a1.133,1.133,0,1,1,0-2.265h2.431a1.133,1.133,0,0,1,0,2.265Zm2.4-5.967H10.555a1.133,1.133,0,0,1,0-2.265h4.807a1.133,1.133,0,0,1,.028,2.265ZM10.555,8.072a1.133,1.133,0,0,1,0-2.265h7.072a1.133,1.133,0,0,1,0,2.265Z" fill="#287cc4"/>
  </g>
</svg>
