<svg xmlns="http://www.w3.org/2000/svg" xmlns:xlink="http://www.w3.org/1999/xlink" width="15.349" height="19" viewBox="0 0 15.349 19">
  <defs>
    <linearGradient id="linear-gradient" x1="0.5" x2="0.5" y2="1" gradientUnits="objectBoundingBox">
      <stop offset="0" stop-color="#7b8ffc"/>
      <stop offset="1" stop-color="#3851d9"/>
    </linearGradient>
  </defs>
  <g id="candiate-master-data" transform="translate(-17.692 -10)">
    <path id="Path_7850" data-name="Path 7850" d="M19.354,14.293a15.7,15.7,0,0,0,5.93,1.044,15.609,15.609,0,0,0,5.93-1.044c.617-.285,1.589-.64,1.779-1.376a.889.889,0,0,0-.047-.617c-.261-.617-1.139-.973-1.684-1.21A14.708,14.708,0,0,0,25.332,10a14.98,14.98,0,0,0-5.883,1.067c-.64.285-1.494.688-1.708,1.447C17.433,13.463,18.643,13.961,19.354,14.293Z" fill="url(#linear-gradient)"/>
    <path id="Path_7851" data-name="Path 7851" d="M32.976,66.166a6.79,6.79,0,0,1-1.376.806,16.4,16.4,0,0,1-6.262,1.139A16.461,16.461,0,0,1,19.052,67a7.317,7.317,0,0,1-1.352-.783v3.392a4.446,4.446,0,0,0,1.684,1.186,15.737,15.737,0,0,0,5.954,1.044,15.522,15.522,0,0,0,5.93-1.044,3.938,3.938,0,0,0,1.755-1.3V66.166C33.047,66.142,33,66.166,32.976,66.166Zm-3.724,3.3a.474.474,0,0,1-.949,0h0a.476.476,0,0,1,.474-.474.461.461,0,0,1,.474.474Zm1.566-.332a.474.474,0,0,1-.949,0h0a.474.474,0,1,1,.949,0Zm1.115-.142a.474.474,0,1,1,.474-.474A.476.476,0,0,1,31.932,68.989Z" transform="translate(-0.006 -42.835)" fill="url(#linear-gradient)"/>
    <path id="Path_7852" data-name="Path 7852" d="M31.79,28.788l-.142.071a16.461,16.461,0,0,1-6.286,1.115,16.375,16.375,0,0,1-6.286-1.115l-.047-.024A6.921,6.921,0,0,1,17.7,28.1v3.392a4.194,4.194,0,0,0,1.684,1.162,15.761,15.761,0,0,0,5.954,1.02,15.163,15.163,0,0,0,5.93-1.044,3.927,3.927,0,0,0,1.755-1.281V28.124A4.859,4.859,0,0,1,31.79,28.788Zm-3.012,3.06a.474.474,0,1,1,.474-.474A.476.476,0,0,1,28.777,31.848Zm1.566-.332a.474.474,0,1,1,.474-.474A.476.476,0,0,1,30.343,31.516Zm1.589-.617a.474.474,0,1,1,.474-.474A.476.476,0,0,1,31.932,30.9Z" transform="translate(-0.006 -13.807)" fill="url(#linear-gradient)"/>
    <path id="Path_7853" data-name="Path 7853" d="M31.7,48.059a16.248,16.248,0,0,1-6.262,1.115,16.6,16.6,0,0,1-6.286-1.091,7.038,7.038,0,0,1-1.352-.759v3.321a3.984,3.984,0,0,0,1.684,1.186,15.737,15.737,0,0,0,5.954,1.044,15.06,15.06,0,0,0,5.93-1.067,3.938,3.938,0,0,0,1.755-1.3V47.3a2.587,2.587,0,0,1-.261.142A8.817,8.817,0,0,1,31.7,48.059Zm-2.846,2.965a.474.474,0,1,1,.474-.474A.476.476,0,0,1,28.854,51.024Zm1.566-.308a.474.474,0,1,1,.474-.474A.476.476,0,0,1,30.419,50.716ZM32.483,49.6a.474.474,0,0,1-.949,0h0a.474.474,0,0,1,.949,0Z" transform="translate(-0.082 -28.452)" fill="url(#linear-gradient)"/>
  </g>
</svg>
