<svg xmlns="http://www.w3.org/2000/svg" xmlns:xlink="http://www.w3.org/1999/xlink" width="36.001" height="17.999" viewBox="0 0 36.001 17.999">
  <defs>
    <linearGradient id="linear-gradient" x1="0.5" y1="-0.621" x2="0.5" y2="1" gradientUnits="objectBoundingBox">
      <stop offset="0" stop-color="#45e5b2"/>
      <stop offset="1" stop-color="#05c98a"/>
    </linearGradient>
  </defs>
  <g id="my-log" transform="translate(-857 -390)">
    <path id="Path_7854" data-name="Path 7854" d="M10.1,7a8.1,8.1,0,1,0,8.1,8.1A8.1,8.1,0,0,0,10.1,7Zm2.754,10.854a1.349,1.349,0,0,1-1.909,0l-1.8-1.8a1.349,1.349,0,0,1-.4-.954V11.05a1.35,1.35,0,1,1,2.7,0v3.491l1.4,1.4a1.349,1.349,0,0,1,0,1.909Z" transform="translate(855 383)" fill="url(#linear-gradient)"/>
    <path id="Path_7855" data-name="Path 7855" d="M13.9,8.8H28.3a.9.9,0,0,0,0-1.8H13.9a.9.9,0,0,0,0,1.8Z" transform="translate(863.801 383)" fill="url(#linear-gradient)"/>
    <path id="Path_7856" data-name="Path 7856" d="M22.9,16h-9a.9.9,0,0,0,0,1.8h9a.9.9,0,1,0,0-1.8Z" transform="translate(863.801 390.199)" fill="url(#linear-gradient)"/>
    <path id="Path_7857" data-name="Path 7857" d="M28.3,13H13.9a.9.9,0,1,0,0,1.8H28.3a.9.9,0,0,0,0-1.8Z" transform="translate(863.801 387.801)" fill="url(#linear-gradient)"/>
    <path id="Path_7858" data-name="Path 7858" d="M28.3,10H13.9a.9.9,0,1,0,0,1.8H28.3a.9.9,0,0,0,0-1.8Z" transform="translate(863.801 385.4)" fill="url(#linear-gradient)"/>
  </g>
</svg>
