<svg xmlns="http://www.w3.org/2000/svg" xmlns:xlink="http://www.w3.org/1999/xlink" width="23.789" height="23.735" viewBox="0 0 23.789 23.735">
  <defs>
    <linearGradient id="linear-gradient" x1="0.5" y1="-0.298" x2="0.5" y2="1" gradientUnits="objectBoundingBox">
      <stop offset="0" stop-color="#84d1ff"/>
      <stop offset="1" stop-color="#1eabff"/>
    </linearGradient>
  </defs>
  <path id="show-add-attachement" d="M24.961,7.247A7.251,7.251,0,0,0,20.89,2.313a22.85,22.85,0,0,0-7.2-.913,23.41,23.41,0,0,0-7.18.888A7.251,7.251,0,0,0,2.435,7.223a24.913,24.913,0,0,0-.641,6.02,26.138,26.138,0,0,0,.641,6.045,7.251,7.251,0,0,0,4.071,4.935,24.092,24.092,0,0,0,7.18.913,23.31,23.31,0,0,0,7.18-.913,7.251,7.251,0,0,0,4.071-4.935,24.912,24.912,0,0,0,.641-6.02A24.6,24.6,0,0,0,24.961,7.247Zm-8.29,11.942a3.661,3.661,0,0,1-4.861-1.776L8.627,10.7A2.191,2.191,0,0,1,12.6,8.851l3.207,6.859a.707.707,0,0,1-1.283.592L11.341,9.443a.778.778,0,0,0-1.406.666l3.133,6.736a2.246,2.246,0,1,0,4.071-1.9l-2.171-4.663a.707.707,0,0,1,1.283-.592l2.171,4.663A3.623,3.623,0,0,1,16.671,19.189Z" transform="translate(-1.791 -1.4)" fill="url(#linear-gradient)"/>
</svg>
