<svg width="20" height="20" viewBox="0 0 20 20" fill="none" xmlns="http://www.w3.org/2000/svg">
<g clip-path="url(#clip0_3144_28562)">
<path d="M19.6875 9.375C19.86 9.375 20 9.235 20 9.0625V7.8125C20 7.64 19.86 7.5 19.6875 7.5H13.4375V7.1875C13.4375 5.3975 12.0619 3.92437 10.3125 3.76594V3.125H13.75C13.9225 3.125 14.0625 2.985 14.0625 2.8125V0.3125C14.0625 0.14 13.9225 0 13.75 0H10C9.8275 0 9.6875 0.14 9.6875 0.3125V3.76594C7.93813 3.92437 6.5625 5.3975 6.5625 7.1875V7.5H0.3125C0.14 7.5 0 7.64 0 7.8125V9.0625C0 9.235 0.14 9.375 0.3125 9.375H0.625V17.5H0.3125C0.14 17.5 0 17.64 0 17.8125V19.6875C0 19.86 0.14 20 0.3125 20H19.6875C19.86 20 20 19.86 20 19.6875V17.8125C20 17.64 19.86 17.5 19.6875 17.5H19.375V9.375H19.6875ZM10.3125 0.625H13.4375V2.5H10.3125V1.25V0.625ZM7.1875 7.1875C7.1875 5.63688 8.44938 4.375 10 4.375C11.5506 4.375 12.8125 5.63688 12.8125 7.1875V7.5H7.1875V7.1875ZM0.625 8.125H19.375V8.75H0.625V8.125ZM19.375 19.375H0.625V18.125H19.375V19.375ZM6.25 17.5H3.125V12.8125C3.125 11.9509 3.82594 11.25 4.6875 11.25C5.54906 11.25 6.25 11.9509 6.25 12.8125V17.5ZM11.5625 17.5H8.4375V12.8125C8.4375 11.9509 9.13844 11.25 10 11.25C10.8616 11.25 11.5625 11.9509 11.5625 12.8125V17.5ZM16.875 17.5H13.75V12.8125C13.75 11.9509 14.4509 11.25 15.3125 11.25C16.1741 11.25 16.875 11.9509 16.875 12.8125V17.5ZM18.75 17.5H17.5V12.8125C17.5 11.6062 16.5187 10.625 15.3125 10.625C14.1062 10.625 13.125 11.6062 13.125 12.8125V17.5H12.1875V12.8125C12.1875 11.6062 11.2063 10.625 10 10.625C8.79375 10.625 7.8125 11.6062 7.8125 12.8125V17.5H6.875V12.8125C6.875 11.6062 5.89375 10.625 4.6875 10.625C3.48125 10.625 2.5 11.6062 2.5 12.8125V17.5H1.25V9.375H18.75V17.5Z" fill="#28C76F"/>
<path d="M8.4375 6.25H9.0625V6.875H8.4375V6.25Z" fill="#28C76F"/>
<path d="M9.6875 6.25H10.3125V6.875H9.6875V6.25Z" fill="#28C76F"/>
<path d="M10.9375 6.25H11.5625V6.875H10.9375V6.25Z" fill="#28C76F"/>
</g>
<defs>
<clipPath id="clip0_3144_28562">
<rect width="20" height="20" fill="white"/>
</clipPath>
</defs>
</svg>
