<svg width="20" height="20" viewBox="0 0 20 20" fill="none" xmlns="http://www.w3.org/2000/svg">
<path d="M17.0375 7.91646L17.0207 7.8977C16.8242 7.7102 16.5688 7.60708 16.298 7.60708H14.0227V6.31802C14.0227 6.10239 13.9371 5.89692 13.7816 5.73989C13.6301 5.58677 13.4195 5.49927 13.2035 5.49927H8.97891C8.76016 5.49927 8.55391 5.58481 8.39883 5.73989C8.24688 5.89185 8.15977 6.10278 8.15977 6.31802V7.60708H5.88242C5.60391 7.60708 5.34141 7.71646 5.14297 7.9145C4.94453 8.11294 4.83555 8.37544 4.83555 8.65435V15.7137C4.83555 15.9926 4.94453 16.2551 5.14297 16.4532C5.34102 16.6516 5.60352 16.761 5.88242 16.761H16.298C16.577 16.761 16.8395 16.6516 17.0375 16.4532C17.2359 16.2551 17.3453 15.9922 17.3453 15.7137V8.65435C17.3453 8.377 17.2359 8.11489 17.0375 7.91646ZM8.54805 6.31802C8.54805 6.20396 8.59297 6.09653 8.67383 6.01528C8.75625 5.93286 8.86445 5.88755 8.97891 5.88755H13.2035C13.3102 5.88755 13.4105 5.92661 13.4887 5.9981H13.4895L13.5086 6.01528C13.5895 6.09653 13.6344 6.20396 13.6344 6.31841V7.60708H12.9555V6.53286H9.22695V7.60708H8.54805V6.31802ZM12.5672 6.92114V7.60708H9.61524V6.92114H12.5672ZM16.957 15.7137C16.957 15.8899 16.8883 16.0555 16.7641 16.1801C16.702 16.2422 16.6297 16.2903 16.5504 16.3231C16.4715 16.3555 16.3859 16.3727 16.298 16.3727H5.88242C5.70742 16.3727 5.54219 16.3043 5.41797 16.1801C5.29258 16.0547 5.22383 15.8891 5.22383 15.7137V11.0098L5.31406 11.068C5.46797 11.1672 5.65274 11.2387 5.84766 11.275L9.83399 12.0317V12.5704C9.83399 12.9028 9.96524 13.2176 10.2035 13.4575C10.441 13.6954 10.7563 13.8262 11.0902 13.8262C11.4242 13.8262 11.7414 13.6954 11.977 13.4575C12.2152 13.2196 12.3465 12.9043 12.3465 12.5704V12.0383L16.3344 11.275C16.5285 11.2391 16.7125 11.1672 16.8664 11.068L16.957 11.0098V15.7137ZM10.2242 12.5704V10.6864H11.9582V12.5704C11.9582 12.7977 11.8656 13.0208 11.7039 13.1821C11.5391 13.3473 11.3211 13.4379 11.0902 13.4379C10.8594 13.4379 10.6434 13.3473 10.4785 13.1821C10.3172 13.0227 10.2242 12.7997 10.2242 12.5704ZM16.957 10.2907H16.9539C16.941 10.4235 16.884 10.5434 16.7867 10.6407C16.6613 10.7645 16.4797 10.8524 16.2617 10.8954L12.3465 11.645V10.7204C12.3465 10.6098 12.3016 10.5012 12.223 10.4227C12.1418 10.3418 12.0367 10.2981 11.9258 10.2981H10.2566C10.1516 10.2981 10.0512 10.3375 9.97149 10.4094L9.9586 10.4231C9.87969 10.5008 9.83399 10.609 9.83399 10.7204V11.6383L5.91914 10.8954C5.70781 10.8555 5.52188 10.7649 5.3957 10.6411C5.2832 10.5282 5.22383 10.3868 5.22383 10.2321V8.65435C5.22383 8.48013 5.29258 8.31528 5.41797 8.18989C5.48047 8.127 5.55313 8.07856 5.63203 8.04575C5.71094 8.01255 5.79531 7.99536 5.88242 7.99536H16.298C16.4297 7.99536 16.5563 8.03442 16.6641 8.10747V8.08989L16.7641 8.18833C16.8883 8.31255 16.957 8.47817 16.957 8.65435V10.2907Z" fill="#FF0000"/>
<path d="M11.1313 12.7856C11.2691 12.7632 11.3626 12.6334 11.3403 12.4956C11.3179 12.3579 11.1881 12.2643 11.0503 12.2867C10.9125 12.309 10.819 12.4388 10.8413 12.5766C10.8637 12.7144 10.9935 12.808 11.1313 12.7856Z" fill="#FF0000"/>
<path d="M1.4543 7.21675C1.4543 5.223 3.07617 3.60112 5.06992 3.60112C6.4125 3.60112 7.62383 4.32964 8.25625 5.51011C8.34726 5.42847 8.45273 5.36479 8.5668 5.323C7.86758 4.03511 6.53633 3.23901 5.06992 3.23901C2.87656 3.23901 1.09219 5.02339 1.09219 7.21675C1.09219 9.20581 2.55898 10.8839 4.51875 11.1558V10.7906C2.7668 10.5214 1.4543 8.99722 1.4543 7.21675Z" fill="#FF0000"/>
<path d="M4.30859 9.65665C3.68633 9.41876 3.48672 9.20157 3.20156 8.51486C3.08984 8.24532 3.09649 8.01447 3.14492 7.834C3.15664 7.89454 3.18242 7.95197 3.22109 8.00157C3.25625 8.04728 3.30195 8.08517 3.35274 8.11134C3.40391 8.13751 3.46016 8.15118 3.51602 8.15118C3.66875 8.15118 3.84844 8.04493 3.89297 7.7465C3.93086 7.49376 3.86641 7.2922 3.79766 7.07853C3.72461 6.85079 3.64922 6.61486 3.70938 6.28868C3.73672 6.14142 3.78672 6.02736 3.85859 5.94767C3.85664 5.96759 3.85586 5.9879 3.85703 6.00782C3.86992 6.24767 4.11524 6.39181 4.14375 6.40782C4.16875 6.4215 4.19805 6.42697 4.22617 6.42345C4.56992 6.38048 4.78633 5.7879 4.84688 5.59845C4.98594 5.33556 4.95234 5.00157 4.8918 4.75079C5.11055 4.96915 5.27695 5.2379 5.29922 5.27423C5.30859 5.28947 5.31992 5.30196 5.33203 5.31134C5.39336 5.359 5.46758 5.37345 5.53359 5.35431C5.61328 5.58829 5.63516 5.90509 5.65313 6.16642C5.67617 6.49884 5.68867 6.68204 5.80547 6.75665C5.86563 6.79493 5.92656 6.81407 5.98672 6.81407C6.06953 6.81407 6.14375 6.77892 6.20586 6.71134C6.21328 6.73829 6.22031 6.76525 6.22773 6.7922C6.28555 7.01134 6.33594 7.2004 6.40156 7.33907L6.41758 7.37228H6.73477L6.67774 7.28243C6.61055 7.17579 6.52656 6.85822 6.49063 6.72267L6.48906 6.71642C6.44883 6.56486 6.40703 6.40782 6.35977 6.27775C6.33867 6.22032 6.28164 6.184 6.2207 6.18947C6.15859 6.19415 6.1082 6.24025 6.09805 6.30118C6.07617 6.4254 6.0125 6.54181 5.98672 6.54181C5.98398 6.54181 5.97734 6.54064 5.96797 6.53634C5.94766 6.4797 5.93281 6.2672 5.92461 6.14728C5.9 5.78556 5.86914 5.33517 5.68945 5.0465C5.66094 5.00079 5.6082 4.97618 5.55586 4.984C5.52109 4.98829 5.48984 5.00626 5.46836 5.03322C5.33672 4.83634 5.02539 4.41603 4.67891 4.2629C4.62695 4.23986 4.56524 4.25157 4.52617 4.2922C4.48672 4.33243 4.47617 4.39376 4.50039 4.44571C4.51289 4.47306 4.80391 5.11564 4.60274 5.47736C4.59805 5.48556 4.59414 5.49454 4.59102 5.5047C4.50977 5.76603 4.35391 6.06837 4.23086 6.13907C4.18125 6.10001 4.13164 6.04454 4.12891 5.99337C4.12617 5.93712 4.18398 5.86329 4.28789 5.79025C4.33281 5.75821 4.35391 5.70236 4.34141 5.64767C4.32852 5.59376 4.28477 5.55314 4.22891 5.54415C4.22617 5.54376 4.20234 5.54025 4.16406 5.54025C4.025 5.54025 3.56172 5.59064 3.4418 6.23907C3.36875 6.63165 3.45898 6.9129 3.53867 7.16212C3.59961 7.35197 3.65234 7.51642 3.62383 7.70587C3.60781 7.81251 3.56641 7.87892 3.51602 7.87892C3.48828 7.87892 3.45703 7.86173 3.43633 7.83478C3.42149 7.81564 3.39883 7.77384 3.41445 7.71212C3.42539 7.67228 3.41758 7.63087 3.39375 7.59806C3.39102 7.57579 3.38906 7.49611 3.45938 7.31134C3.48125 7.25275 3.46094 7.18673 3.40938 7.15118C3.3582 7.11564 3.28945 7.11954 3.2418 7.16095C3.23555 7.16642 2.58906 7.74923 2.95 8.61915C3.30234 9.46681 3.56836 9.70353 4.53203 10.0246C4.5375 10.0266 4.54297 10.0277 4.54961 10.0289L4.61641 10.0383V9.70353L4.61016 9.69142C4.52734 9.52384 4.41719 9.17853 4.61094 8.75236L4.61641 8.74103V8.5172C4.61641 8.48165 4.61797 8.44767 4.62109 8.41447L4.64336 8.18282L4.51406 8.37618C4.1625 8.90197 4.21328 9.36915 4.30859 9.65665Z" fill="#FF0000"/>
</svg>
