<svg width="40" height="41" viewBox="0 0 40 41" fill="none" xmlns="http://www.w3.org/2000/svg">
<path fill-rule="evenodd" clip-rule="evenodd" d="M12.9791 4.04453C11.9097 3.72371 10.8335 4.52446 10.8335 5.6409V37.0209H16.6668V31.1875C16.6668 30.267 17.413 29.5209 18.3335 29.5209H21.6668C22.5873 29.5209 23.3335 30.267 23.3335 31.1875V37.0209H29.1668V10.1409C29.1668 9.40488 28.684 8.75601 27.979 8.54453L12.9791 4.04453ZM16.6668 13.6875C16.2066 13.6875 15.8335 14.0606 15.8335 14.5209V16.1875C15.8335 16.6478 16.2066 17.0209 16.6668 17.0209H18.3335C18.7937 17.0209 19.1668 16.6478 19.1668 16.1875V14.5209C19.1668 14.0606 18.7937 13.6875 18.3335 13.6875H16.6668ZM15.8335 19.5209C15.8335 19.0607 16.2066 18.6875 16.6668 18.6875H18.3335C18.7937 18.6875 19.1668 19.0607 19.1668 19.5209V21.1875C19.1668 21.6477 18.7937 22.0209 18.3335 22.0209H16.6668C16.2066 22.0209 15.8335 21.6477 15.8335 21.1875V19.5209ZM16.6668 23.6875C16.2066 23.6875 15.8335 24.0607 15.8335 24.5209V26.1875C15.8335 26.6477 16.2066 27.0209 16.6668 27.0209H18.3335C18.7937 27.0209 19.1668 26.6477 19.1668 26.1875V24.5209C19.1668 24.0607 18.7937 23.6875 18.3335 23.6875H16.6668ZM20.8335 14.5209C20.8335 14.0606 21.2067 13.6875 21.6668 13.6875H23.3335C23.7937 13.6875 24.1668 14.0606 24.1668 14.5209V16.1875C24.1668 16.6478 23.7937 17.0209 23.3335 17.0209H21.6668C21.2067 17.0209 20.8335 16.6478 20.8335 16.1875V14.5209ZM21.6668 18.6875C21.2067 18.6875 20.8335 19.0607 20.8335 19.5209V21.1875C20.8335 21.6477 21.2067 22.0209 21.6668 22.0209H23.3335C23.7937 22.0209 24.1668 21.6477 24.1668 21.1875V19.5209C24.1668 19.0607 23.7937 18.6875 23.3335 18.6875H21.6668ZM20.8335 24.5209C20.8335 24.0607 21.2067 23.6875 21.6668 23.6875H23.3335C23.7937 23.6875 24.1668 24.0607 24.1668 24.5209V26.1875C24.1668 26.6477 23.7937 27.0209 23.3335 27.0209H21.6668C21.2067 27.0209 20.8335 26.6477 20.8335 26.1875V24.5209Z" fill="#7367F0"/>
<path d="M9.16683 37.0208V8.6875H6.66683C5.74636 8.6875 5.00016 9.4337 5.00016 10.3542V35.3542H4.16683C3.7066 35.3542 3.3335 35.7273 3.3335 36.1875C3.3335 36.6477 3.7066 37.0208 4.16683 37.0208H9.16683Z" fill="#7367F0"/>
<path d="M35.8335 37.021H30.8335V14.9897L34.1603 16.8908C34.6797 17.1876 35.0002 17.7398 35.0002 18.338V35.3543H35.8335C36.2937 35.3543 36.6668 35.7275 36.6668 36.1876C36.6668 36.6478 36.2937 37.021 35.8335 37.021Z" fill="#7367F0"/>
<path d="M21.6668 37.0208V31.1875H18.3335V37.0208H21.6668Z" fill="#7367F0"/>
</svg>
