<svg width="40" height="41" viewBox="0 0 40 41" fill="none" xmlns="http://www.w3.org/2000/svg">
<path d="M25.9539 23.3345C29.8812 17.977 29.4266 10.4194 24.5842 5.57696C19.2388 0.231507 10.5721 0.231507 5.22056 5.57696C-0.124953 10.9224 -0.124953 19.5891 5.22056 24.9345C10.063 29.777 17.6266 30.2376 22.9781 26.3103C23.5417 25.8982 24.0811 25.4376 24.5841 24.9345C25.0872 24.4315 25.5478 23.8921 25.9539 23.3345ZM23.3599 21.7327V21.3466C23.3599 18.8557 21.3417 16.8376 18.8447 16.8376H17.3842L14.9357 21.5103C14.9236 21.5406 14.875 21.5406 14.869 21.5103L12.4206 16.8376H10.9539C8.46299 16.8376 6.44487 18.8558 6.44487 21.3466V21.7282C5.0245 19.878 4.24486 17.6288 4.24486 15.2557C4.24486 12.4072 5.35396 9.73448 7.36608 7.7163C9.37814 5.70417 12.057 4.59508 14.9054 4.59508C17.7478 4.59508 20.4266 5.70417 22.4387 7.7163C26.1842 11.4618 26.6387 17.2799 23.5114 21.5405C23.4637 21.6064 23.4094 21.6679 23.3599 21.7327Z" fill="#9B59B6"/>
<path d="M37.8205 33.486L29.5719 25.2496L28.7175 26.0981L26.8144 24.1951C26.4084 24.7526 25.9416 25.292 25.4387 25.789C24.9418 26.292 24.4083 26.7526 23.8447 27.1769L25.7417 29.0738L24.8872 29.9223L33.1357 38.1768C34.4326 39.4617 36.5235 39.4617 37.8205 38.1768C39.1113 36.8799 39.1113 34.7829 37.8205 33.486Z" fill="#9B59B6"/>
<path d="M14.9032 6.30103C12.5571 6.30103 10.6553 8.2029 10.6553 10.5489C10.6553 12.895 12.5572 16.4506 14.9032 16.4506C17.2492 16.4506 19.1512 12.895 19.1512 10.5489C19.1511 8.2029 17.2492 6.30103 14.9032 6.30103Z" fill="#9B59B6"/>
</svg>
