<?xml version="1.0" encoding="utf-8"?>
<!-- Generator: Adobe Illustrator 25.0.0, SVG Export Plug-In . SVG Version: 6.00 Build 0)  -->
<svg version="1.1" id="Layer_1" xmlns="http://www.w3.org/2000/svg" xmlns:xlink="http://www.w3.org/1999/xlink" x="0px" y="0px"
	 viewBox="0 0 512 512" style="enable-background:new 0 0 512 512;" xml:space="preserve">
<style type="text/css">
	.st0{fill:#6F6B7D;}
</style>
<path class="st0" d="M161.5,33.4c-4.1,1.8-8.3,6.9-9,10.9c-0.3,1.8-0.5,14.9-0.3,29.2c0.3,25.6,0.3,26.1,2.7,29.4
	c3.3,4.6,9.2,7.1,16.9,7.1c5.3,0,6.7,0.4,8.7,2.5c3.2,3.1,3.2,6.6,0.1,10.2c-2.3,2.7-2.8,2.8-11.3,2.8c-7.3-0.1-9.7-0.5-14.3-2.7
	c-6.6-3-12.3-8.5-15.8-15.3c-2.6-4.8-2.7-5.7-3-24.8L135.8,63h-22.6c-24.6,0-29.1,0.7-38.8,5.6c-6.9,3.5-16.3,12.9-19.8,19.8
	C50,97.5,49,103.1,49,120.7V137h207h207v-15.5c0-8.4-0.5-17.8-1.1-20.7C458.6,85,446.8,71.5,431,65.6c-4.8-1.8-8.4-2.1-30-2.6
	l-24.5-0.5L376,52c-0.6-12-1.9-14.9-8.1-18.1c-3.4-1.7-6-1.9-22.4-1.9c-21,0-23.6,0.6-28.1,6.6l-2.9,3.7l-0.3,26.6
	c-0.4,30.7,0.1,33.3,7,37.8c3.1,2.1,5.4,2.7,11.9,3.1c7,0.4,8.2,0.8,9.9,3c5.2,6.5,0.3,13.2-9.7,13.2c-14.4,0-27-7.6-32.5-19.5
	c-2.1-4.5-2.3-6.8-2.6-24.3L297.8,63h-41.9H214v-9.6c0-11.7-2-16.2-8.5-19.4c-3.7-1.8-6.1-2-22.6-2
	C169.9,32.1,163.6,32.5,161.5,33.4z M198,55.5V63h-15h-15v-7.5V48h15h15V55.5z M360,55.5V63h-15h-15v-7.5V48h15h15V55.5z"/>
<path class="st0" d="M49,290v137h152.5H354v-35.6c0-23.8,0.4-36.9,1.1-39.5c1.7-5.5,6.5-10.8,12.3-13.5l5.1-2.4h45.3H463v-91.5V153
	H256H49V290z M343.1,195.5c13.6,4.7,20.6,20.1,14.7,32.4c-2.8,6-111.2,114.9-117.3,117.9c-6.3,3.1-11.6,3.6-18.2,1.7
	c-5.6-1.6-6.8-2.7-35.1-30.8c-16.2-16.1-30.5-31.1-31.8-33.3c-9.3-15.7,2.2-35.4,20.6-35.4c9.6,0,13.4,2.7,34.5,23.9l19,19.1l47-47
	c25.9-25.9,47.3-47,47.5-47c0.3,0,2.3-0.7,4.5-1.5C333.7,193.7,337.6,193.7,343.1,195.5z M322.1,392.9c2.5,3.1,2.5,8.5-0.1,11.1
	c-2,2-3.3,2-66,2s-64,0-66-2c-3.5-3.5-2.2-11.2,2.3-13c1.2-0.5,30-0.8,65-0.7l62.9,0.2L322.1,392.9z"/>
<path class="st0" d="M332.5,211.2c-1.1,0.5-24.1,23-51,49.9c-45.4,45.3-49.3,48.9-52.4,48.9c-3.1,0-5.5-2.1-26.7-23.2
	c-20.2-20-23.7-23.1-26.4-23.1c-4.1,0-8,3.7-8,7.7c0,2.6,3.7,6.7,28.7,31.7c15.7,15.8,29.7,29,31,29.4c1.3,0.3,3.6-0.1,5.1-0.9
	c1.5-0.8,27.1-25.9,57-55.8c47.6-47.7,54.2-54.7,54.2-57.3c-0.1-3.4-1.5-5.6-4.7-7.3C336.6,209.7,335.1,209.7,332.5,211.2z"/>
<path class="st0" d="M372.2,354.3c-2.2,2.3-2.2,2.7-2,31.9l0.3,29.5l32.4-31.8l32.3-31.9h-30.4h-30.5L372.2,354.3z"/>
<path class="st0" d="M414.1,395.2c-24.3,23.8-45.8,44.2-47.9,45.3c-3.6,2-5.9,2-159.9,2.3L50,443l1.9,5
	c5.9,15.5,17.9,26.4,33.8,30.5c5,1.3,27.6,1.5,170.3,1.5c181.2,0,169.9,0.4,182.1-6.1c7-3.8,15.7-12.6,19.3-19.7
	c5.4-10.6,5.6-13.1,5.6-59.4V352h-2.4C458.8,352,447.6,362.4,414.1,395.2z"/>
</svg>
