<svg width="512" height="512" viewBox="0 0 512 512" fill="none" xmlns="http://www.w3.org/2000/svg">
<path d="M161.5 33.4C157.4 35.2 153.2 40.3 152.5 44.3C152.2 46.1 152 59.2 152.2 73.5C152.5 99.1 152.5 99.6 154.9 102.9C158.2 107.5 164.1 110 171.8 110C177.1 110 178.5 110.4 180.5 112.5C183.7 115.6 183.7 119.1 180.6 122.7C178.3 125.4 177.8 125.5 169.3 125.5C162 125.4 159.6 125 155 122.8C148.4 119.8 142.7 114.3 139.2 107.5C136.6 102.7 136.5 101.8 136.2 82.7L135.8 63H113.2C88.6 63 84.1 63.7 74.4 68.6C67.5 72.1 58.1 81.5 54.6 88.4C50 97.5 49 103.1 49 120.7V137H256H463V121.5C463 113.1 462.5 103.7 461.9 100.8C458.6 85 446.8 71.5 431 65.6C426.2 63.8 422.6 63.5 401 63L376.5 62.5L376 52C375.4 40 374.1 37.1 367.9 33.9C364.5 32.2 361.9 32 345.5 32C324.5 32 321.9 32.6 317.4 38.6L314.5 42.3L314.2 68.9C313.8 99.6 314.3 102.2 321.2 106.7C324.3 108.8 326.6 109.4 333.1 109.8C340.1 110.2 341.3 110.6 343 112.8C348.2 119.3 343.3 126 333.3 126C318.9 126 306.3 118.4 300.8 106.5C298.7 102 298.5 99.7 298.2 82.2L297.8 63H255.9H214V53.4C214 41.7 212 37.2 205.5 34C201.8 32.2 199.4 32 182.9 32C169.9 32.1 163.6 32.5 161.5 33.4ZM198 55.5V63H183H168V55.5V48H183H198V55.5ZM360 55.5V63H345H330V55.5V48H345H360V55.5Z" fill="white"/>
<path d="M49 290V427H201.5H354V391.4C354 367.6 354.4 354.5 355.1 351.9C356.8 346.4 361.6 341.1 367.4 338.4L372.5 336H417.8H463V244.5V153H256H49V290ZM343.1 195.5C356.7 200.2 363.7 215.6 357.8 227.9C355 233.9 246.6 342.8 240.5 345.8C234.2 348.9 228.9 349.4 222.3 347.5C216.7 345.9 215.5 344.8 187.2 316.7C171 300.6 156.7 285.6 155.4 283.4C146.1 267.7 157.6 248 176 248C185.6 248 189.4 250.7 210.5 271.9L229.5 291L276.5 244C302.4 218.1 323.8 197 324 197C324.3 197 326.3 196.3 328.5 195.5C333.7 193.7 337.6 193.7 343.1 195.5ZM322.1 392.9C324.6 396 324.6 401.4 322 404C320 406 318.7 406 256 406C193.3 406 192 406 190 404C186.5 400.5 187.8 392.8 192.3 391C193.5 390.5 222.3 390.2 257.3 390.3L320.2 390.5L322.1 392.9Z" fill="white"/>
<path d="M332.5 211.2C331.4 211.7 308.4 234.2 281.5 261.1C236.1 306.4 232.2 310 229.1 310C226 310 223.6 307.9 202.4 286.8C182.2 266.8 178.7 263.7 176 263.7C171.9 263.7 168 267.4 168 271.4C168 274 171.7 278.1 196.7 303.1C212.4 318.9 226.4 332.1 227.7 332.5C229 332.8 231.3 332.4 232.8 331.6C234.3 330.8 259.9 305.7 289.8 275.8C337.4 228.1 344 221.1 344 218.5C343.9 215.1 342.5 212.9 339.3 211.2C336.6 209.7 335.1 209.7 332.5 211.2Z" fill="white"/>
<path d="M372.2 354.3C370 356.6 370 357 370.2 386.2L370.5 415.7L402.9 383.9L435.2 352H404.8H374.3L372.2 354.3Z" fill="white"/>
<path d="M414.1 395.2C389.8 419 368.3 439.4 366.2 440.5C362.6 442.5 360.3 442.5 206.3 442.8L50 443L51.9 448C57.8 463.5 69.8 474.4 85.7 478.5C90.7 479.8 113.3 480 256 480C437.2 480 425.9 480.4 438.1 473.9C445.1 470.1 453.8 461.3 457.4 454.2C462.8 443.6 463 441.1 463 394.8V352H460.6C458.8 352 447.6 362.4 414.1 395.2Z" fill="white"/>
</svg>
