<svg xmlns="http://www.w3.org/2000/svg" width="26.115" height="28.813" viewBox="0 0 26.115 28.813">
  <g id="business-op-disabled-r" transform="translate(670.99 -2881.5)">
    <path id="Subtraction_4" data-name="Subtraction 4" d="M10.306,22.9H5.726a1.148,1.148,0,0,1-1.145-1.145V20.613h6.87v1.145A1.148,1.148,0,0,1,10.306,22.9Zm1.145-4.581H4.581a1.148,1.148,0,0,1-1.145-1.145V14.543A7.8,7.8,0,0,1,0,8.016,7.967,7.967,0,0,1,8.016,0a7.967,7.967,0,0,1,8.016,8.016A8.125,8.125,0,0,1,12.6,14.543v2.634A1.148,1.148,0,0,1,11.451,18.323ZM8.145,2.68a5.662,5.662,0,1,0,5.663,5.663A5.669,5.669,0,0,0,8.145,2.68Z" transform="translate(-666.078 2887.409)" fill="#696969"/>
    <line id="Line_28" data-name="Line 28" x2="4.045" transform="translate(-670.349 2890.611) rotate(20)" fill="none" stroke="#696969" stroke-linecap="round" stroke-width="1"/>
    <line id="Line_26" data-name="Line 26" x2="4.045" transform="translate(-666.361 2885.306) rotate(45)" fill="none" stroke="#696969" stroke-linecap="round" stroke-width="1"/>
    <line id="Line_27" data-name="Line 27" x2="4.045" transform="translate(-657.933 2882) rotate(90)" fill="none" stroke="#696969" stroke-linecap="round" stroke-width="1"/>
    <line id="Line_30" data-name="Line 30" x2="4.045" transform="translate(-645.516 2890.611) rotate(160)" fill="none" stroke="#696969" stroke-linecap="round" stroke-width="1"/>
    <line id="Line_29" data-name="Line 29" x2="4.045" transform="translate(-649.749 2885.306) rotate(135)" fill="none" stroke="#696969" stroke-linecap="round" stroke-width="1"/>
    <path id="Icon_metro-dollar2" data-name="Icon metro-dollar2" d="M14.59,8.088A1.889,1.889,0,0,1,14.1,9.4a2.132,2.132,0,0,1-1.284.678v.869a.153.153,0,0,1-.159.159h-.67a.161.161,0,0,1-.159-.159v-.869a3.13,3.13,0,0,1-.633-.154,3.049,3.049,0,0,1-.871-.459,2.83,2.83,0,0,1-.231-.186q-.062-.06-.087-.089a.151.151,0,0,1-.01-.2l.511-.67a.155.155,0,0,1,.114-.06.123.123,0,0,1,.119.045l.01.01a2.593,2.593,0,0,0,1.207.621,1.734,1.734,0,0,0,.367.04,1.2,1.2,0,0,0,.708-.214.7.7,0,0,0,.305-.606.5.5,0,0,0-.074-.263.93.93,0,0,0-.166-.209,1.363,1.363,0,0,0-.29-.186q-.2-.1-.328-.159t-.4-.161l-.305-.124q-.112-.045-.305-.132t-.31-.154q-.117-.067-.281-.176a1.748,1.748,0,0,1-.266-.211,3.1,3.1,0,0,1-.216-.243,1.215,1.215,0,0,1-.176-.288,1.991,1.991,0,0,1-.1-.33,1.723,1.723,0,0,1-.042-.387,1.7,1.7,0,0,1,.487-1.2,2.272,2.272,0,0,1,1.266-.665V2.362a.161.161,0,0,1,.159-.159h.67a.153.153,0,0,1,.159.159v.874a2.762,2.762,0,0,1,.549.114,3.181,3.181,0,0,1,.432.166,2.392,2.392,0,0,1,.315.186q.149.1.194.144t.074.07a.144.144,0,0,1,.025.189L14,4.83a.135.135,0,0,1-.114.079.158.158,0,0,1-.134-.035q-.015-.015-.072-.06t-.194-.132a2.562,2.562,0,0,0-.29-.159,2.218,2.218,0,0,0-.37-.129,1.657,1.657,0,0,0-.425-.057,1.29,1.29,0,0,0-.77.214.668.668,0,0,0-.256.79.559.559,0,0,0,.146.206,2.188,2.188,0,0,0,.2.164A1.749,1.749,0,0,0,12,5.865q.186.087.3.134t.348.137q.263.1.4.156t.377.174a3,3,0,0,1,.375.211,3.17,3.17,0,0,1,.308.248,1.286,1.286,0,0,1,.263.315,1.8,1.8,0,0,1,.156.38,1.638,1.638,0,0,1,.065.467Z" transform="translate(-670.336 2889.099)" fill="#696969"/>
  </g>
</svg>
