<svg width="24" height="24" viewBox="0 0 24 24" fill="none" xmlns="http://www.w3.org/2000/svg">
<g clip-path="url(#clip0_2348_38685)">
<path d="M12.0046 0.403137C11.9859 0.403137 11.9671 0.403137 11.9484 0.403137C10.0124 0.4172 8.17962 1.17657 6.78743 2.54064C5.39525 3.90001 4.59837 5.71876 4.54681 7.6547C4.49056 9.67032 5.23118 11.5828 6.62806 13.0313C7.72493 14.175 8.33431 15.6938 8.33431 17.3109V20.4235C8.33431 21.0609 8.77962 21.6 9.37493 21.7453V22.1625C9.37493 22.9547 10.0218 23.6016 10.814 23.6016H13.1906C13.9827 23.6016 14.6296 22.9547 14.6296 22.1625V21.75C15.2296 21.6094 15.6796 21.0703 15.6796 20.4281V17.3156C15.6796 15.7172 16.3031 14.1797 17.4327 12.9844C18.7452 11.5922 19.4671 9.77814 19.4671 7.86095C19.4671 5.85939 18.6843 3.9797 17.264 2.56876C15.8531 1.17189 13.9874 0.403137 12.0046 0.403137ZM13.7202 22.1578C13.7202 22.4531 13.4812 22.6922 13.1859 22.6922H10.8093C10.514 22.6922 10.2749 22.4531 10.2749 22.1578V21.7828H13.7202V22.1578ZM14.7702 20.4235C14.7702 20.6719 14.5687 20.8781 14.3156 20.8781H9.68899C9.44056 20.8781 9.23431 20.6766 9.23431 20.4235V17.8453H14.7656V20.4235H14.7702ZM16.7718 12.361C15.5718 13.6313 14.8734 15.2484 14.7843 16.9406H9.22962C9.14524 15.225 8.46087 13.6266 7.27962 12.4031C6.0515 11.1281 5.40462 9.45001 5.4515 7.67814C5.54525 4.19064 8.46556 1.33126 11.9531 1.30782C13.7156 1.29376 15.3702 1.97345 16.6171 3.21095C17.864 4.44845 18.5531 6.10314 18.5531 7.86095C18.5577 9.54376 17.9249 11.1375 16.7718 12.361Z" fill="white"/>
<path d="M20.278 4.34532C20.4187 4.34532 20.5499 4.28907 20.6483 4.19064L21.4921 3.34689C21.6937 3.14532 21.6937 2.81251 21.4921 2.61095C21.2905 2.40939 20.9577 2.40939 20.7562 2.61095L19.9124 3.4547C19.7108 3.65626 19.7108 3.98907 19.9124 4.19064C20.0062 4.28907 20.1374 4.34532 20.278 4.34532Z" fill="white"/>
<path d="M20.6484 11.5312C20.4469 11.3297 20.1141 11.3297 19.9125 11.5312C19.8141 11.6297 19.7578 11.7609 19.7578 11.9016C19.7578 12.0422 19.8141 12.1734 19.9125 12.2719L20.7562 13.1156C20.8547 13.214 20.9859 13.2703 21.1266 13.2703C21.2672 13.2703 21.3984 13.214 21.4969 13.1156C21.5953 13.0172 21.6516 12.8859 21.6516 12.7453C21.6516 12.6047 21.5953 12.4734 21.4969 12.375L20.6484 11.5312Z" fill="white"/>
<path d="M23.1468 7.34064H21.9515C21.6655 7.34064 21.4312 7.57501 21.4312 7.86095C21.4312 8.14689 21.6655 8.38126 21.9515 8.38126H23.1468C23.4327 8.38126 23.6671 8.14689 23.6671 7.86095C23.6671 7.57501 23.4327 7.34064 23.1468 7.34064Z" fill="white"/>
<path d="M3.35156 4.19064C3.45 4.28907 3.58125 4.34532 3.72188 4.34532C3.8625 4.34532 3.99375 4.28907 4.09219 4.19064C4.29375 3.98907 4.29375 3.65626 4.09219 3.4547L3.24844 2.61095C3.04688 2.40939 2.71406 2.40939 2.5125 2.61095C2.31094 2.81251 2.31094 3.14532 2.5125 3.34689L3.35156 4.19064Z" fill="white"/>
<path d="M3.72178 11.3813C3.58115 11.3813 3.4499 11.4375 3.35146 11.536L2.50771 12.3797C2.40928 12.4782 2.35303 12.6094 2.35303 12.75C2.35303 12.8907 2.40928 13.0219 2.50771 13.1203C2.60615 13.2188 2.7374 13.275 2.87803 13.275C3.01865 13.275 3.1499 13.2188 3.24834 13.1203L4.09209 12.2766C4.29365 12.075 4.29365 11.7422 4.09209 11.5407C3.99365 11.4328 3.8624 11.3813 3.72178 11.3813Z" fill="white"/>
<path d="M2.5687 7.86095C2.5687 7.57501 2.33433 7.34064 2.04839 7.34064H0.853076C0.567139 7.34064 0.332764 7.57501 0.332764 7.86095C0.332764 8.14689 0.567139 8.38126 0.853076 8.38126H2.04839C2.33433 8.38126 2.5687 8.14689 2.5687 7.86095Z" fill="white"/>
<path d="M13.0968 6.74845C13.0968 7.05314 13.3453 7.29689 13.6453 7.29689C13.95 7.29689 14.1937 7.04845 14.1937 6.74845C14.1937 5.75939 13.4343 5.18751 12.5437 5.01876V4.5547C12.5484 4.25001 12.3046 4.00157 12 3.99689C11.9953 3.99689 11.9906 3.99689 11.9859 3.99689C11.6812 4.00157 11.4421 4.25001 11.4468 4.5547V5.01876C10.5609 5.18751 9.80151 5.75939 9.80151 6.74845C9.80151 7.43751 10.1109 7.99064 10.5281 8.31407C10.9453 8.63751 11.414 8.78282 11.8265 8.91876C12.239 9.0547 12.5953 9.18595 12.7968 9.34532C12.9984 9.5047 13.0968 9.63595 13.0968 10.0484C13.0968 10.9672 10.9031 10.9672 10.9031 10.0484C10.9078 9.74376 10.6687 9.49532 10.364 9.48595C10.0593 9.48126 9.81089 9.72032 9.80151 10.025C9.80151 10.0344 9.80151 10.0391 9.80151 10.0484C9.80151 11.0375 10.5609 11.6094 11.4468 11.7781V12.2375C11.4421 12.5422 11.6812 12.7906 11.9859 12.8C12.2906 12.8047 12.539 12.5656 12.5484 12.2609C12.5484 12.2516 12.5484 12.2469 12.5484 12.2375V11.7781C13.4343 11.6094 14.1984 11.0375 14.1984 10.0484C14.1984 9.35939 13.889 8.80626 13.4718 8.48282C13.0546 8.15939 12.5859 8.01407 12.1734 7.87814C11.7609 7.7422 11.4046 7.61095 11.2031 7.45157C11.0015 7.2922 10.9031 7.16095 10.9031 6.74845C10.9031 5.83439 13.0968 5.83439 13.0968 6.74845Z" fill="white"/>
</g>
<defs>
<clipPath id="clip0_2348_38685">
<rect width="24" height="24" fill="white"/>
</clipPath>
</defs>
</svg>
