<svg width="24" height="24" viewBox="0 0 24 24" fill="none" xmlns="http://www.w3.org/2000/svg">
<path d="M20.4042 1.91531H18.7233C18.7233 0.988594 17.9691 0.234375 17.0424 0.234375C16.1156 0.234375 15.3614 0.988594 15.3614 1.91531H8.63862C8.63862 0.988594 7.8844 0.234375 6.95768 0.234375C6.03096 0.234375 5.27674 0.988594 5.27674 1.91531H3.59581C2.05127 1.91531 0.794556 3.17203 0.794556 4.71656V20.9644C0.794556 22.5089 2.05127 23.7656 3.59581 23.7656H20.4042C21.9488 23.7656 23.2055 22.5089 23.2055 20.9644V4.71656C23.2055 3.17203 21.9488 1.91531 20.4042 1.91531ZM16.4822 1.91531C16.4822 1.60641 16.733 1.35469 17.0424 1.35469C17.3517 1.35469 17.6025 1.60641 17.6025 1.91531V3.03562C17.6025 3.34453 17.3517 3.59578 17.0424 3.59578C16.733 3.59578 16.4822 3.34453 16.4822 3.03562V1.91531ZM6.39752 1.91531C6.39752 1.60641 6.64831 1.35469 6.95768 1.35469C7.26706 1.35469 7.51784 1.60641 7.51784 1.91531V3.03562C7.51784 3.34453 7.26706 3.59578 6.95768 3.59578C6.64831 3.59578 6.39752 3.34453 6.39752 3.03562V1.91531ZM22.0847 20.9644C22.0847 21.8911 21.3305 22.6453 20.4042 22.6453H3.59581C2.66956 22.6453 1.91534 21.8911 1.91534 20.9644V8.07797H22.0847V20.9644ZM22.0847 6.95766H1.91534V4.71656C1.91534 3.78984 2.66956 3.03562 3.59581 3.03562H5.27674C5.27674 3.96234 6.03096 4.71656 6.95768 4.71656C7.8844 4.71656 8.63862 3.96234 8.63862 3.03562H15.3614C15.3614 3.96234 16.1156 4.71656 17.0424 4.71656C17.9691 4.71656 18.7233 3.96234 18.7233 3.03562H20.4042C21.3305 3.03562 22.0847 3.78984 22.0847 4.71656V6.95766Z" fill="white"/>
<path d="M5.99997 14.0002H7.49997C8.05168 14.0002 8.49981 13.5516 8.49981 12.9998V11.4998C8.49981 10.9486 8.05168 10.5 7.49997 10.5H5.99997C5.44825 10.5 5.00012 10.9486 5.00012 11.4998V12.9998C5.00012 13.5516 5.44825 14.0002 5.99997 14.0002ZM5.99997 11.4998H7.49997L7.5009 12.9998H5.99997V11.4998Z" fill="white"/>
<path d="M11.25 14.0002H12.75C13.3017 14.0002 13.7498 13.5516 13.7498 12.9998V11.4998C13.7498 10.9486 13.3017 10.5 12.75 10.5H11.25C10.6982 10.5 10.2501 10.9486 10.2501 11.4998V12.9998C10.2501 13.5516 10.6982 14.0002 11.25 14.0002ZM11.25 11.4998H12.75L12.7509 12.9998H11.25V11.4998Z" fill="white"/>
<path d="M16.5 14.0002H18C18.5517 14.0002 18.9998 13.5516 18.9998 12.9998V11.4998C18.9998 10.9486 18.5517 10.5 18 10.5H16.5C15.9482 10.5 15.5001 10.9486 15.5001 11.4998V12.9998C15.5001 13.5516 15.9482 14.0002 16.5 14.0002ZM16.5 11.4998H18L18.0009 12.9998H16.5V11.4998Z" fill="white"/>
<path d="M5.99997 19.5H7.49997C8.05168 19.5 8.49981 19.0514 8.49981 18.5002V17.0002C8.49981 16.4484 8.05168 15.9998 7.49997 15.9998H5.99997C5.44825 15.9998 5.00012 16.4484 5.00012 17.0002V18.5002C5.00012 19.0514 5.44825 19.5 5.99997 19.5ZM5.99997 17.0002H7.49997L7.5009 18.5002H5.99997V17.0002Z" fill="white"/>
<path d="M11.25 19.5H12.75C13.3017 19.5 13.7498 19.0514 13.7498 18.5002V17.0002C13.7498 16.4484 13.3017 15.9998 12.75 15.9998H11.25C10.6982 15.9998 10.2501 16.4484 10.2501 17.0002V18.5002C10.2501 19.0514 10.6982 19.5 11.25 19.5ZM11.25 17.0002H12.75L12.7509 18.5002H11.25V17.0002Z" fill="white"/>
<path d="M16.5 19.5H18C18.5517 19.5 18.9998 19.0514 18.9998 18.5002V17.0002C18.9998 16.4484 18.5517 15.9998 18 15.9998H16.5C15.9482 15.9998 15.5001 16.4484 15.5001 17.0002V18.5002C15.5001 19.0514 15.9482 19.5 16.5 19.5ZM16.5 17.0002H18L18.0009 18.5002H16.5V17.0002Z" fill="white"/>
</svg>
