<svg width="24" height="24" viewBox="0 0 24 24" fill="none" xmlns="http://www.w3.org/2000/svg">
<g clip-path="url(#clip0_2348_38666)">
<path d="M21.6561 0H19.1256C19.1253 0 19.1253 0 19.1249 0H4.59384C3.30151 0 2.24999 1.05152 2.24999 2.34386V2.53124H1.59363C0.715075 2.53124 0 3.24631 0 4.12486C0 5.00341 0.715075 5.71849 1.59363 5.71849H2.24999V10.4062H1.59363C0.715075 10.4062 0 11.1213 0 11.9998C0 12.8787 0.715075 13.5934 1.59363 13.5934H2.24999V18.2812H1.59363C0.715075 18.2812 0 18.9962 0 19.8748C0 20.7533 0.715075 21.4684 1.59363 21.4684H2.24999V21.6561C2.24999 22.9485 3.30151 24 4.59384 24H11.8596H19.1249H21.6561C22.9485 24 24 22.9485 24 21.6561V2.34386C24 1.05152 22.9485 0 21.6561 0ZM0.937613 4.12486C0.937613 3.76311 1.23187 3.4685 1.59398 3.4685H3.84397C4.20572 3.4685 4.50033 3.76276 4.50033 4.12486C4.50033 4.48697 4.20572 4.78123 3.84361 4.78123H1.59363C1.23187 4.78123 0.937613 4.48697 0.937613 4.12486ZM0.937613 11.9998C0.937613 11.6381 1.23187 11.3435 1.59398 11.3435H3.84397C4.20572 11.3435 4.50033 11.6377 4.50033 11.9998C4.50033 12.3616 4.20607 12.6562 3.84397 12.6562H1.59398C1.23187 12.6562 0.937613 12.3619 0.937613 11.9998ZM0.937613 19.8748C0.937613 19.513 1.23187 19.2184 1.59398 19.2184H3.84397C4.20572 19.2184 4.50033 19.5127 4.50033 19.8748C4.50033 20.2369 4.20572 20.5312 3.84361 20.5312H1.59363C1.23187 20.5312 0.937613 20.2369 0.937613 19.8748ZM23.0624 21.6561C23.0624 22.4317 22.4317 23.0624 21.6561 23.0624H20.9987C21.2937 22.6704 21.4688 22.1835 21.4688 21.6561V14.1092C21.4688 13.8504 21.2589 13.6406 21.0001 13.6406C20.7414 13.6406 20.5312 13.8504 20.5312 14.1092V21.6561C20.5312 22.4317 19.9004 23.0624 19.1249 23.0624H11.8592H4.59384C3.8183 23.0624 3.1876 22.4317 3.1876 21.6561V21.4688H3.84397C4.72287 21.4688 5.43759 20.7537 5.43759 19.8751C5.43759 18.9966 4.72252 18.2812 3.84361 18.2812H3.1876V13.5938H3.84397C4.72287 13.5938 5.43759 12.8787 5.43759 12.0002C5.43759 11.1213 4.72252 10.4066 3.84397 10.4066H3.1876V5.71884H3.84397C4.72287 5.71884 5.43759 5.00376 5.43759 4.12521C5.43759 3.24666 4.72252 2.53124 3.84361 2.53124H3.1876V2.34386C3.1876 1.56831 3.8183 0.937613 4.59384 0.937613H11.8592H11.8596H19.126C19.9012 0.937964 20.5315 1.56866 20.5315 2.34386V9.89081C20.5315 10.1496 20.7414 10.3594 21.0001 10.3594C21.2589 10.3594 21.4688 10.1496 21.4688 9.89081V2.34386C21.4688 1.81651 21.2937 1.3296 20.9987 0.937613H21.6561C22.4317 0.937613 23.0624 1.56831 23.0624 2.34386V21.6561Z" fill="white"/>
<path d="M13.5133 11.5073C13.9391 11.0826 14.2031 10.4959 14.2031 9.8483V9.08787C14.2031 7.79554 13.1516 6.74402 11.8592 6.74402C10.5669 6.74402 9.51538 7.79554 9.51538 9.08787V9.8483C9.51538 10.4959 9.7794 11.0826 10.2051 11.5073C7.96077 12.2122 6.32812 14.3121 6.32812 16.7867C6.32812 17.0455 6.53801 17.2553 6.79676 17.2553H16.9217C17.1805 17.2553 17.3903 17.0448 17.3903 16.786C17.3907 14.3121 15.7577 12.2122 13.5133 11.5073ZM10.453 9.84865V9.08823C10.453 8.31268 11.0837 7.68198 11.8592 7.68198C12.6348 7.68198 13.2655 8.31268 13.2655 9.08823V9.84865C13.2655 10.6238 12.6348 11.2545 11.8596 11.2549H11.8592H11.8589C11.0837 11.2545 10.453 10.6238 10.453 9.84865ZM7.28929 16.3181C7.50902 14.1584 9.23096 12.4365 11.3906 12.2164V13.9057C11.3906 14.1644 11.6005 14.3743 11.8592 14.3743C12.118 14.3743 12.3279 14.1644 12.3279 13.9057V12.2164C14.4875 12.4361 16.2094 14.1581 16.4292 16.3181H7.28929Z" fill="white"/>
<path d="M14.9002 18.9428H8.81824C8.55949 18.9428 8.34961 19.1527 8.34961 19.4114C8.34961 19.6702 8.55949 19.8801 8.81824 19.8801H14.9002C15.159 19.8801 15.3689 19.6702 15.3689 19.4114C15.3689 19.1527 15.1593 18.9428 14.9002 18.9428Z" fill="white"/>
<path d="M21.4592 11.9084C21.4533 11.8786 21.4445 11.849 21.4325 11.8206C21.4209 11.7924 21.4065 11.765 21.3896 11.7397C21.3812 11.727 21.3721 11.7144 21.3622 11.7028C21.3524 11.6908 21.3422 11.6792 21.3313 11.6683C21.3204 11.6578 21.3091 11.6472 21.2972 11.6374C21.2852 11.6279 21.2729 11.6188 21.2599 11.6103C21.2346 11.5934 21.2075 11.5787 21.1791 11.5671C21.1509 11.5555 21.1214 11.5463 21.0915 11.5404C21.0764 11.5372 21.0613 11.5351 21.0462 11.5337C21.0152 11.5305 20.9843 11.5305 20.9537 11.5337C20.9386 11.5351 20.9231 11.5372 20.9084 11.5404C20.8785 11.5463 20.8489 11.5555 20.8205 11.5671C20.7923 11.5787 20.7649 11.5934 20.7396 11.6103C20.7269 11.6188 20.7143 11.6279 20.7027 11.6374C20.6907 11.6472 20.6791 11.6578 20.6682 11.6683C20.6577 11.6792 20.6471 11.6908 20.6373 11.7028C20.6278 11.7144 20.6187 11.727 20.6102 11.7397C20.5934 11.765 20.5786 11.7924 20.567 11.8206C20.5554 11.849 20.5462 11.8786 20.5403 11.9084C20.5371 11.9232 20.535 11.9387 20.5332 11.9538C20.5318 11.9693 20.5311 11.9847 20.5311 11.9999C20.5311 12.0153 20.5318 12.0308 20.5332 12.0463C20.535 12.0614 20.5371 12.0765 20.5403 12.0916C20.5462 12.1215 20.5554 12.151 20.567 12.1791C20.5786 12.2076 20.5934 12.2347 20.6102 12.26C20.6187 12.273 20.6278 12.2853 20.6373 12.2973C20.6471 12.3092 20.6577 12.3205 20.6682 12.3314C20.6791 12.3423 20.6907 12.3525 20.7027 12.3623C20.7143 12.3722 20.7269 12.3813 20.7396 12.3897C20.7649 12.4066 20.7923 12.421 20.8205 12.4326C20.8489 12.4446 20.8785 12.4534 20.9084 12.4593C20.9231 12.4625 20.9386 12.465 20.9537 12.4664C20.9692 12.4678 20.9846 12.4688 20.9998 12.4688C21.0152 12.4688 21.0307 12.4678 21.0462 12.4664C21.0613 12.465 21.0764 12.4625 21.0915 12.4593C21.1214 12.4534 21.1509 12.4446 21.1791 12.4326C21.2075 12.421 21.2346 12.4066 21.2599 12.3897C21.2729 12.3813 21.2852 12.3722 21.2972 12.3623C21.3091 12.3525 21.3204 12.3423 21.3313 12.3314C21.3422 12.3205 21.3524 12.3092 21.3622 12.2973C21.3721 12.2853 21.3812 12.273 21.3896 12.26C21.4065 12.2347 21.4209 12.2076 21.4325 12.1791C21.4445 12.151 21.4533 12.1215 21.4592 12.0916C21.4624 12.0765 21.4649 12.0614 21.4663 12.0463C21.4677 12.0308 21.4687 12.0153 21.4687 11.9999C21.4687 11.9847 21.4677 11.9693 21.4663 11.9538C21.4649 11.9387 21.4624 11.9232 21.4592 11.9084Z" fill="white"/>
</g>
<defs>
<clipPath id="clip0_2348_38666">
<rect width="24" height="24" fill="white"/>
</clipPath>
</defs>
</svg>
