<svg width="512" height="512" viewBox="0 0 512 512" fill="none" xmlns="http://www.w3.org/2000/svg">
<path d="M245.9 9.3C235.9 12.1 226.6 20 221.6 29.7C220.2 32.5 218.1 35.1 216.5 35.8C214.8 36.6 207.7 37 195.5 37H177L173.8 39.9L170.5 42.8L170.2 63.2C169.8 86.4 170.4 90.1 175.3 93C178.4 94.9 180.9 95 256 95C331.1 95 333.6 94.9 336.7 93C341.6 90.1 342.2 86.4 341.8 63.2L341.5 42.8L338.2 39.9L335 37H316.5C304.6 37 297.2 36.6 295.5 35.8C294.1 35.2 291.5 32.1 289.5 28.5C285.3 21 278.6 14.6 271.4 11.3C264.7 8.3 252.9 7.3 245.9 9.3ZM263.9 31.1C266.5 33.7 267 34.9 267 39C267 43.1 266.5 44.3 263.9 46.9C261.3 49.5 260.1 50 256 50C251.9 50 250.7 49.5 248.1 46.9C245.5 44.3 245 43.1 245 39C245 34.9 245.5 33.7 248.1 31.1C250.7 28.5 251.9 28 256 28C260.1 28 261.3 28.5 263.9 31.1Z" fill="white"/>
<path d="M77.9001 51.5C72.7001 53.2 67.1001 58.1 64.7001 63.3C63.1001 66.6 63.0001 82.2 63.2001 278.3L63.5001 489.8L66.5001 494.2C68.5001 497 71.4001 499.4 74.9001 501.3L80.4001 504H256H431.6L437.1 501.3C440.6 499.4 443.5 497 445.5 494.2L448.5 489.8L448.8 278.3C449 42.5 449.7 63.7 442.2 56.4C436 50.4 432.9 50 393.3 50H358V61.5V73H383.8C398.4 73 411.1 73.5 413.2 74C417.7 75.3 422.5 79.1 424.8 83.4C426.4 86.3 426.5 99 426.5 277V467.5L424.2 471.5C422.9 473.7 420.3 476.7 418.3 478L414.6 480.5H256H97.4001L93.7001 478C91.7001 476.7 89.1001 473.7 87.8001 471.5L85.5001 467.5V277C85.5001 99 85.6001 86.3 87.2001 83.4C89.5001 79.1 94.3001 75.3 98.8001 74C100.9 73.5 113.6 73 128.3 73H154V61.5V50L118.3 50.1C90.5001 50.1 81.5001 50.5 77.9001 51.5Z" fill="white"/>
<path d="M102.2 90.2C101.3 91.1 101 133.9 101 276.6C101 378.5 101.3 462.5 101.6 463.4C102.2 464.9 116.7 465 256 465C395.3 465 409.8 464.9 410.4 463.4C410.7 462.5 411 378.5 411 276.6C411 133.9 410.7 91.1 409.8 90.2C408.9 89.3 401.6 89 383 89H357.5L355.8 93.8C353.7 99.7 348.2 105.6 342.1 108.4C337.5 110.5 336.9 110.5 256 110.5C175.1 110.5 174.5 110.5 169.9 108.4C163.8 105.6 158.3 99.7 156.2 93.8L154.5 89H129C110.4 89 103.1 89.3 102.2 90.2ZM186.9 125.8C200.5 134.2 198.6 155.2 183.8 161.5C172.4 166.2 158.7 159.1 156.1 147C152.3 129.3 171.3 116.1 186.9 125.8ZM375.3 140C379.7 143.5 379.6 149.3 375.1 152.7C373.9 153.6 358.9 153.9 312.8 154C279.5 154 251.4 153.7 250.5 153.4C248.7 152.7 246 147.9 246 145.5C246 144.6 247.3 142.5 248.9 140.9L251.8 138H312.3C371.1 138 372.8 138.1 375.3 140ZM192.3 172.2C199.9 175.8 208.2 183.8 212 191.3C215.8 199 215.9 202.3 212.1 206.1L209.2 209H176H142.8L139.9 206.1C136.2 202.4 136.1 198.5 139.5 191.9C143.2 184.5 146.5 180.6 152.5 176.4C161 170.6 166.9 168.9 177.5 169.3C184.7 169.5 187.7 170.1 192.3 172.2ZM331.7 185.2C334.6 187.9 334.7 192.9 332.1 196.1L330.2 198.5L291 198.8L251.9 199.1L248.8 196C246.3 193.4 245.9 192.4 246.4 189.7C247.7 182.9 246.9 183 290.3 183C329 183 329.4 183 331.7 185.2ZM186.9 237.8C200.5 246.2 198.6 267.2 183.8 273.5C172.4 278.2 158.7 271.1 156.1 259C152.3 241.2 171.3 228.1 186.9 237.8ZM375.3 252C379.7 255.5 379.6 261.3 375.1 264.7C373.9 265.6 358.9 265.9 312.8 266C279.5 266 251.4 265.7 250.5 265.4C248.7 264.7 246 259.9 246 257.5C246 256.6 247.3 254.5 248.9 252.9L251.8 250H312.3C371.1 250 372.8 250.1 375.3 252ZM192.3 284.2C199.9 287.8 208.2 295.8 212 303.3C215.8 311 215.9 314.3 212.1 318.1L209.2 321H176H142.8L139.9 318.1C136.2 314.3 136.1 310.6 139.8 303.3C143.1 296.5 150.1 289 156.1 285.9C163.9 281.9 168.1 281 177.5 281.3C184.7 281.5 187.6 282.1 192.3 284.2ZM331.7 297.2C334.6 299.9 334.7 304.9 332.1 308.1L330.2 310.5L291 310.8L251.9 311.1L248.8 308C246.3 305.4 245.9 304.4 246.4 301.7C247.7 294.9 246.9 295 290.3 295C329 295 329.4 295 331.7 297.2ZM186.9 349.8C200.5 358.2 198.6 379.2 183.8 385.5C172.4 390.2 158.7 383.1 156.1 371C152.3 353.1 171.2 340 186.9 349.8ZM376.1 364.9C379.7 368.5 379.8 370.9 376.4 374.9L373.8 378H312.6C253.1 378 251.3 377.9 249.3 376C248.1 375 246.9 373.1 246.5 372C245.6 369.1 247.6 364.5 250.3 363.2C251.8 362.5 272.8 362.1 312.8 362.1L373.2 362L376.1 364.9ZM193.3 396.8C201.4 400.8 208.1 407.4 212 415.3C215.8 423 215.8 426.3 212.1 430.1L209.2 433H176H142.8L139.9 430.1C136.2 426.3 136.1 422.6 139.8 415.3C143.1 408.5 150.1 401 156.1 397.9C164 393.9 168.1 393 177.6 393.3C185.5 393.5 187.6 394 193.3 396.8ZM331.7 409.2C334.6 411.9 334.7 416.9 332.1 420.1L330.2 422.5L291 422.8L251.9 423.1L248.8 420C246.3 417.4 245.9 416.4 246.4 413.7C247.7 406.9 246.9 407 290.3 407C329 407 329.4 407 331.7 409.2Z" fill="white"/>
</svg>
