<?xml version="1.0" encoding="utf-8"?>
<!-- Generator: Adobe Illustrator 25.0.0, SVG Export Plug-In . SVG Version: 6.00 Build 0)  -->
<svg version="1.1" id="Layer_1" xmlns="http://www.w3.org/2000/svg" xmlns:xlink="http://www.w3.org/1999/xlink" x="0px" y="0px"
	 viewBox="0 0 24 24" style="enable-background:new 0 0 24 24;" xml:space="preserve">
<style type="text/css">
	.st0{fill:#6F6B7D;}
</style>
<g>
	<path class="st0" d="M8.2,4.4C8.4,4.4,8.5,4.5,12,4.5c3.5,0,3.6,0,3.8-0.1C16,4.2,16,4.1,16,3l0-1l-0.2-0.1l-0.2-0.1h-0.9
		c-0.6,0-0.9,0-1-0.1c-0.1,0-0.2-0.2-0.3-0.3c-0.2-0.4-0.5-0.7-0.8-0.8c-0.3-0.1-0.9-0.2-1.2-0.1c-0.5,0.1-0.9,0.5-1.1,1
		c-0.1,0.1-0.2,0.3-0.2,0.3c-0.1,0-0.4,0.1-1,0.1H8.3L8.1,1.9L8,2l0,1C8,4.1,8,4.2,8.2,4.4z M11.6,1.5c0.1-0.1,0.2-0.1,0.4-0.1
		s0.2,0,0.4,0.1c0.1,0.1,0.1,0.2,0.1,0.4s0,0.2-0.1,0.4c-0.1,0.1-0.2,0.1-0.4,0.1s-0.2,0-0.4-0.1S11.5,2,11.5,1.8S11.5,1.6,11.6,1.5
		z"/>
</g>
<path class="st0" d="M20.7,2.6c-0.3-0.3-0.4-0.3-2.3-0.3h-1.7v0.5v0.5H18c0.7,0,1.3,0,1.4,0c0.2,0.1,0.4,0.2,0.5,0.4
	C20,4,20,4.6,20,13v8.9l-0.1,0.2c-0.1,0.1-0.2,0.2-0.3,0.3l-0.2,0.1H12H4.6l-0.2-0.1c-0.1-0.1-0.2-0.2-0.3-0.3L4,21.9V13
	C4,4.6,4,4,4.1,3.9c0.1-0.2,0.3-0.4,0.5-0.4c0.1,0,0.7,0,1.4,0h1.2V2.9V2.3l-1.7,0c-1.3,0-1.7,0-1.9,0.1C3.4,2.5,3.1,2.7,3,3
	C3,3.1,3,3.9,3,13L3,23l0.1,0.2c0.1,0.1,0.2,0.2,0.4,0.3l0.3,0.1H12h8.2l0.3-0.1c0.2-0.1,0.3-0.2,0.4-0.3L21,23l0-9.9
	C21,2,21.1,3,20.7,2.6z"/>
<g>
	<path class="st0" d="M4.8,4.2c0,0-0.1,2-0.1,8.7c0,4.8,0,8.7,0,8.8c0,0.1,0.7,0.1,7.2,0.1c6.5,0,7.2,0,7.2-0.1c0,0,0-4,0-8.8
		c0-6.7,0-8.7-0.1-8.7c0,0-0.4-0.1-1.3-0.1h-1.2l-0.1,0.2C16.6,4.7,16.3,5,16,5.1c-0.2,0.1-0.2,0.1-4,0.1s-3.8,0-4-0.1
		C7.7,5,7.4,4.7,7.3,4.4L7.2,4.2H6C5.2,4.2,4.8,4.2,4.8,4.2z M9.9,20.2l-0.1,0.1H8.2H6.7l-0.1-0.1c-0.2-0.2-0.2-0.4,0-0.7
		c0.2-0.3,0.5-0.7,0.8-0.8c0.4-0.2,0.6-0.2,1-0.2c0.4,0,0.5,0,0.7,0.2c0.4,0.2,0.7,0.5,0.9,0.9C10.1,19.8,10.1,20,9.9,20.2z
		 M8.8,16.4c0.6,0.4,0.5,1.4-0.1,1.7c-0.5,0.2-1.2-0.1-1.3-0.7C7.1,16.6,8,15.9,8.8,16.4z M9.9,14.9L9.8,15H8.2H6.7l-0.1-0.1
		c-0.2-0.2-0.2-0.4,0-0.7c0.2-0.3,0.5-0.7,0.8-0.8c0.4-0.2,0.6-0.2,1-0.2c0.3,0,0.5,0,0.7,0.1c0.4,0.2,0.7,0.5,0.9,0.9
		C10.1,14.6,10.1,14.7,9.9,14.9z M8.8,11.1c0.6,0.4,0.5,1.4-0.1,1.7c-0.5,0.2-1.2-0.1-1.3-0.7C7.1,11.3,8,10.7,8.8,11.1z M15.6,19.7
		l-0.1,0.1l-1.8,0l-1.8,0l-0.1-0.1c-0.1-0.1-0.1-0.2-0.1-0.3c0.1-0.3,0-0.3,2.1-0.3c1.8,0,1.8,0,1.9,0.1
		C15.7,19.3,15.7,19.5,15.6,19.7z M17.6,17.6l-0.1,0.1h-2.9c-2.8,0-2.9,0-3-0.1c-0.1,0-0.1-0.1-0.1-0.2c0-0.1,0.1-0.4,0.2-0.4
		c0.1,0,1.1-0.1,2.9-0.1l2.8,0l0.1,0.1C17.8,17.3,17.8,17.4,17.6,17.6z M11.5,14.1c0.1-0.3,0-0.3,2.1-0.3c1.8,0,1.8,0,1.9,0.1
		c0.1,0.1,0.1,0.4,0,0.5l-0.1,0.1l-1.8,0l-1.8,0l-0.1-0.1C11.5,14.3,11.5,14.3,11.5,14.1z M11.7,6.6l0.1-0.1h2.8c2.8,0,2.8,0,3,0.1
		c0.2,0.2,0.2,0.4,0,0.6c-0.1,0-0.8,0.1-2.9,0.1c-1.6,0-2.9,0-2.9,0c-0.1,0-0.2-0.3-0.2-0.4C11.5,6.8,11.6,6.7,11.7,6.6z M15.6,9.2
		l-0.1,0.1l-1.8,0l-1.8,0l-0.1-0.1c-0.1-0.1-0.1-0.2-0.1-0.3c0.1-0.3,0-0.3,2.1-0.3c1.8,0,1.8,0,1.9,0.1C15.7,8.8,15.7,9,15.6,9.2z
		 M11.7,11.9l0.1-0.1h2.8c2.8,0,2.8,0,3,0.1c0.2,0.2,0.2,0.4,0,0.6c-0.1,0-0.8,0.1-2.9,0.1c-1.6,0-2.9,0-2.9,0
		c-0.1,0-0.2-0.3-0.2-0.4C11.5,12,11.6,11.9,11.7,11.9z M8.8,5.9c0.6,0.4,0.5,1.4-0.1,1.7C8.1,7.8,7.4,7.5,7.3,6.9
		C7.1,6.1,8,5.4,8.8,5.9z M6.5,9c0.2-0.3,0.3-0.5,0.6-0.7C7.5,8,7.8,7.9,8.3,7.9c0.3,0,0.5,0,0.7,0.1C9.4,8.2,9.8,8.6,9.9,9
		c0.2,0.4,0.2,0.5,0,0.7L9.8,9.8H8.2H6.7L6.6,9.7C6.4,9.5,6.4,9.3,6.5,9z"/>
</g>
</svg>
