<svg width="18" height="18" viewBox="0 0 18 18" fill="none" xmlns="http://www.w3.org/2000/svg">
<path d="M12.3029 6.47117C12.3504 6.39629 12.3303 6.32457 12.3303 6.25566C12.3317 5.24246 12.3303 4.22926 12.3332 3.21781C12.3346 2.82406 12.6552 2.58711 12.9973 2.72914C13.2156 2.81984 13.2947 2.99914 13.2947 3.22766C13.2919 4.46797 13.2947 5.70793 13.2933 6.94824C13.2933 7.64961 13.3063 8.35098 13.2845 9.05199C13.2286 10.8886 11.7569 12.3946 9.913 12.5166C7.91401 12.6502 6.2571 11.3713 5.93085 9.4025C5.66507 7.79305 6.54608 6.22508 8.04339 5.50508C9.35964 4.87262 10.5827 5.10113 11.7137 5.97055C11.9134 6.12488 12.099 6.29715 12.3029 6.47117ZM9.60116 11.5899C11.0957 11.5871 12.3444 10.3468 12.3286 8.88254C12.3099 7.35922 11.0855 6.12031 9.59659 6.12031C8.07608 6.12172 6.83893 7.35606 6.84175 8.86953C6.84772 10.3728 8.08522 11.5927 9.60116 11.5899Z" fill="#6A6678"/>
<path d="M4.5858 9.21858C4.5858 8.05596 4.5858 6.89475 4.5858 5.73214C4.5858 5.40729 4.77846 5.18757 5.06146 5.18897C5.35045 5.19038 5.54873 5.40307 5.54873 5.72932C5.55154 8.0862 5.55892 10.4431 5.54592 12.7996C5.54029 14.0181 4.72537 15.0141 3.57857 15.2542C3.42037 15.2873 3.25654 15.3045 3.09412 15.3119C2.76506 15.3249 2.54955 15.135 2.54357 14.8446C2.53795 14.5486 2.73904 14.3588 3.0681 14.3475C3.73642 14.3261 4.19029 13.9882 4.45502 13.3892C4.55135 13.1677 4.58299 12.9293 4.58299 12.685C4.5858 11.5294 4.5858 10.3742 4.5858 9.21858Z" fill="#6A6678"/>
<path d="M5.07155 4.10128C4.70663 4.10409 4.43347 3.84534 4.42925 3.49483C4.42503 3.12393 4.68941 2.84971 5.05151 2.84514C5.42241 2.84092 5.68819 3.1053 5.6896 3.47585C5.68925 3.83831 5.43226 4.09846 5.07155 4.10128Z" fill="#6A6678"/>
<path d="M14.758 2.68732C15.1532 2.68732 15.4618 3.00689 15.4562 3.40205C15.4509 3.79193 15.1366 4.10025 14.7471 4.10025C14.3519 4.10025 14.038 3.78631 14.0433 3.39115C14.0433 2.98791 14.3576 2.68205 14.758 2.68732ZM15.3293 3.39642C15.3293 3.06631 15.0748 2.80369 14.7475 2.80369C14.4279 2.80369 14.16 3.07158 14.1547 3.38553C14.1547 3.7051 14.4173 3.96736 14.7422 3.96736C15.0719 3.97053 15.3293 3.71599 15.3293 3.39642Z" fill="#6A6678"/>
<path d="M14.8393 3.44813C14.9448 3.54024 15.0017 3.65661 15.0777 3.77297C14.9803 3.80286 14.91 3.78387 14.8692 3.68649C14.845 3.62953 14.7989 3.57539 14.7637 3.52407C14.7395 3.48891 14.7068 3.47274 14.6664 3.46711C14.6013 3.45621 14.55 3.46184 14.5609 3.54832C14.5662 3.60528 14.5609 3.66469 14.5609 3.72164C14.5662 3.7786 14.5366 3.78668 14.4906 3.78668C14.4445 3.78668 14.4255 3.77051 14.4255 3.72164C14.4255 3.50789 14.4255 3.29661 14.4255 3.08286C14.4255 3.04243 14.4364 3.01254 14.4825 3.01782C14.5936 3.02309 14.7043 3.01254 14.8126 3.02871C14.9342 3.04489 14.9993 3.10465 15.0155 3.20203C15.0264 3.29942 14.9803 3.37536 14.8692 3.4295C14.8692 3.43196 14.8583 3.43723 14.8393 3.44813ZM14.6906 3.12856C14.6555 3.13946 14.5985 3.09868 14.5742 3.15844C14.5282 3.27481 14.5795 3.34512 14.7068 3.34512C14.8474 3.34512 14.8991 3.31524 14.8935 3.23403C14.8882 3.15844 14.8341 3.12856 14.6906 3.12856Z" fill="#6A6678"/>
</svg>
