<svg width="24" height="24" viewBox="0 0 24 24" fill="none" xmlns="http://www.w3.org/2000/svg">
<g clip-path="url(#clip0_842_10726)">
<path d="M14.3485 14.5589C16.3628 13.2359 16.9233 10.5305 15.6004 8.51619C14.2774 6.50166 11.572 5.94118 9.55769 7.26412C7.54334 8.58706 6.98267 11.2924 8.30561 13.3068C8.633 13.8054 9.05909 14.2315 9.55769 14.5589C7.71051 15.3111 6.50165 17.1055 6.49854 19.1001V20.191C6.49854 20.4922 6.74262 20.7363 7.04401 20.7363H16.8621C17.1634 20.7363 17.4076 20.4922 17.4076 20.191V19.1001C17.4045 17.1055 16.1956 15.3111 14.3485 14.5589ZM8.68024 10.9182C8.68024 9.11074 10.1456 7.64534 11.9531 7.64534C13.7605 7.64534 15.2259 9.11056 15.2259 10.9182C15.2259 12.7256 13.7605 14.1908 11.9531 14.1908C10.1464 14.1888 8.68226 12.7249 8.68024 10.9182ZM16.3167 19.6456H7.58948V19.1001C7.59204 16.9924 9.29987 15.2843 11.4076 15.2818H12.4985C14.6063 15.2843 16.3143 16.9924 16.3169 19.1001V19.6456H16.3167Z" fill="#6A6678"/>
<path d="M20.894 11.2861C22.9089 9.97175 23.4767 7.27258 22.1622 5.25768C20.8479 3.24279 18.1487 2.67498 16.1338 3.98949C15.5182 4.39104 15.0141 4.94201 14.6688 5.59094C14.526 5.85626 14.6254 6.18713 14.8907 6.32977C15.1562 6.47241 15.4869 6.37298 15.6295 6.10766C16.483 4.51903 18.4627 3.92303 20.0514 4.77648C21.64 5.62994 22.236 7.60968 21.3825 9.19812C20.8122 10.2598 19.7036 10.921 18.4986 10.9182C18.341 10.914 18.1839 10.8977 18.0288 10.8697L18.0095 10.8666C17.7144 10.8263 17.4421 11.0314 17.3993 11.3262C17.3584 11.6267 17.567 11.9041 17.8669 11.9484C18.0756 11.9846 18.2868 12.0048 18.4986 12.0092H19.0441C21.1516 12.0117 22.8597 13.7196 22.8622 15.8273V16.3728H18.6627C18.3615 16.3728 18.1172 16.617 18.1172 16.9182C18.1172 17.2194 18.3615 17.4637 18.6627 17.4637H23.4077C23.7089 17.4637 23.9532 17.2194 23.9532 16.9182V15.8273C23.95 13.8329 22.7412 12.0385 20.894 11.2861Z" fill="#6A6678"/>
<path d="M5.89674 10.8666L5.87752 10.8697C5.72243 10.8979 5.56532 10.914 5.40767 10.9182C3.60023 10.9292 2.12623 9.47278 2.11524 7.66534C2.10425 5.8579 3.56068 4.38371 5.36812 4.37291C6.58485 4.3654 7.7051 5.03374 8.27675 6.10766C8.41958 6.37298 8.75027 6.4724 9.01559 6.32976C9.28091 6.18694 9.38033 5.85625 9.23769 5.59093C8.10372 3.47038 5.46553 2.67058 3.34498 3.80455C1.22461 4.93834 0.424806 7.57672 1.5586 9.69727C1.90247 10.3402 2.40235 10.8865 3.01228 11.2861C1.1651 12.0385 -0.0437622 13.8329 -0.046875 15.8273V16.9182C-0.046875 17.2194 0.197388 17.4637 0.498597 17.4637H5.2436C5.54481 17.4637 5.78908 17.2194 5.78908 16.9182C5.78908 16.617 5.54481 16.3728 5.2436 16.3728H1.04407V15.8273C1.04663 13.7197 2.75465 12.0117 4.86219 12.0092H5.40767C5.61952 12.0049 5.83064 11.9846 6.03938 11.9484C6.33931 11.9041 6.54787 11.6267 6.50703 11.3262C6.46419 11.0314 6.19173 10.8263 5.89674 10.8666Z" fill="#6A6678"/>
</g>
<defs>
<clipPath id="clip0_842_10726">
<rect width="24" height="24" fill="white"/>
</clipPath>
</defs>
</svg>
