<?xml version="1.0" encoding="utf-8"?>
<!-- Generator: Adobe Illustrator 25.0.0, SVG Export Plug-In . SVG Version: 6.00 Build 0)  -->
<svg version="1.1" id="Layer_1" xmlns="http://www.w3.org/2000/svg" xmlns:xlink="http://www.w3.org/1999/xlink" x="0px" y="0px"
	 viewBox="0 0 24 24" style="enable-background:new 0 0 24 24;" xml:space="preserve">
<style type="text/css">
	.st0{fill:#6F6B7D;}
</style>
<path id="Subtraction_18" class="st0" d="M4.5,23.8c-0.4,0-0.7-0.1-0.9-0.4c-0.2-0.3-0.4-0.6-0.4-0.9L3,3.9c0-0.4,0.1-0.7,0.4-1
	C3.6,2.7,4,2.6,4.3,2.6h1.3v0C5.6,3.9,6.7,5,8,5h0l8.1-0.1c0.6,0,1.2-0.3,1.7-0.7c0.4-0.5,0.7-1.1,0.7-1.7v0h1
	c0.4,0,0.7,0.1,0.9,0.4c0.2,0.3,0.4,0.6,0.4,0.9L21,22.3c0,0.4-0.1,0.7-0.4,1c-0.2,0.3-0.6,0.4-0.9,0.4L4.5,23.8z M5.6,20.8v1.3
	h12.5v-1.3H5.6z M5.6,18.9v1.3h14.1v-1.3L5.6,18.9z M5.6,17v1.3h10.3V17L5.6,17z M16.2,8.5L16.2,8.5L16,8.5l-0.1,0.1l-3.7,2v4.2
	l4-2.1V8.5z M7.8,8.5L7.8,8.5v4.2l4,2.1v-4.2l-3.7-2L8,8.5L7.8,8.5L7.8,8.5L7.8,8.5z M14.4,7.3l-0.2,0.1l-0.2,0.1l-3.7,1.9l1.6,0.8
	l3.7-1.9l0.2-0.1l0.1-0.1l0,0L14.4,7.3z M12,6L8,8.1l0,0l0.1,0.1l0.2,0.1L10,9.2l3.7-1.9l0.2-0.1L14,7.1L12,6z M8,3.9
	c-0.4,0-0.7-0.2-1-0.4C6.8,3.3,6.6,3,6.7,2.6v-1c0-0.4,0.1-0.7,0.4-1C7.3,0.5,7.6,0.3,8,0.3l8.1-0.1c0.7,0,1.3,0.6,1.3,1.3v1
	c0,0.4-0.1,0.7-0.4,0.9c-0.3,0.2-0.6,0.4-0.9,0.4L8,3.9z"/>
</svg>
