<svg xmlns="http://www.w3.org/2000/svg" width="21.557" height="28.215" viewBox="0 0 21.557 28.215">
  <g id="my-orders" transform="translate(2875 1239.506)">
    <path id="Subtraction_18" data-name="Subtraction 18" d="M1.845,28.215A1.54,1.54,0,0,1,.73,27.752a1.736,1.736,0,0,1-.461-1.119L0,4.439A1.639,1.639,0,0,1,.456,3.3a1.542,1.542,0,0,1,1.119-.478H3.112v.039A2.834,2.834,0,0,0,5.956,5.674h.038l9.683-.116a2.775,2.775,0,0,0,2-.849,2.867,2.867,0,0,0,.807-2.046V2.625h1.229a1.542,1.542,0,0,1,1.115.463,1.737,1.737,0,0,1,.461,1.119L21.557,26.4a1.639,1.639,0,0,1-.456,1.144,1.542,1.542,0,0,1-1.119.478ZM3.074,24.7v1.544H18.06V24.7Zm0-2.316v1.544H19.981V22.387Zm0-2.316v1.544h12.3V20.071ZM15.775,9.86l-.07.039-.109.058-.178.1-4.4,2.339v5.037L15.775,14.9Zm-9.994,0h0V14.9l4.755,2.524V12.391l-4.4-2.337L5.96,9.959,5.846,9.9l-.064-.036Zm7.877-1.407-.192.1-.193.1L8.88,10.969l1.894,1.007,4.374-2.323.192-.1.139-.074.05-.029Zm-2.88-1.528L6.025,9.45l.049.028.142.075.191.1L8.369,10.7l4.393-2.312.193-.1.192-.1ZM5.956,4.439a1.627,1.627,0,0,1-1.177-.5,1.417,1.417,0,0,1-.4-1.047V1.737A1.639,1.639,0,0,1,4.837.593,1.542,1.542,0,0,1,5.956.116L15.639,0a1.581,1.581,0,0,1,1.575,1.583V2.741a1.555,1.555,0,0,1-.461,1.119,1.72,1.72,0,0,1-1.114.463Z" transform="translate(-2875 -1239.506)" fill="#fff"/>
  </g>
</svg>
