<svg xmlns="http://www.w3.org/2000/svg" width="30.289" height="30.215" viewBox="0 0 30.289 30.215">
  <g id="my-proposal" transform="translate(2885 1289.506)">
    <path id="Subtraction_17" data-name="Subtraction 17" d="M3193.924,759.215h0L3189,750.686l2.842-1.642,4.927,8.529-2.844,1.641Zm3.518-2.662h0l-4.378-7.581,1.423-.821a.561.561,0,0,0,.184-.174l1.276-1.933,6.049-3.492a1.095,1.095,0,0,1,1.1,1.9l-2.371,1.368a.544.544,0,0,0-.2.748,3.831,3.831,0,0,1-1.405,5.233l.472.814v2.106a2.645,2.645,0,0,0,.06.565l-2.205,1.272Zm20.206-.2h-15.324a1.626,1.626,0,0,1-1.523-1.04,1.518,1.518,0,0,1-.119-.6v-2.773a4.919,4.919,0,0,0,1.033-5.438l1.922-1.109a2.19,2.19,0,0,0,.8-2.991,2.19,2.19,0,0,0-2.991-.8l-.767.443v-11.4a1.644,1.644,0,0,1,1.642-1.641h12.587v2.736a1.643,1.643,0,0,0,1.642,1.641h2.737v21.339A1.643,1.643,0,0,1,3217.648,756.358Zm-13.683-3.83v1.094H3217.1v-1.094Zm0-2.189v1.095H3217.1v-1.095Zm0-2.188v1.094H3217.1v-1.094Zm3.284-2.188v1.095h9.851v-1.095Zm-3.284,0v1.095h2.189v-1.095Zm1.968-2.857v.91h10.918v-.91Zm0-2.729v.91h10.918v-.91Zm-2.729-6.368v3.639h4.549v-3.639Zm15.312-1.725h-1.963a.547.547,0,0,1-.547-.547v-1.962l2.508,2.508Z" transform="translate(-6074 -2018.506)" fill="#fff"/>
  </g>
</svg>
