<?xml version="1.0" encoding="utf-8"?>
<!-- Generator: Adobe Illustrator 25.0.0, SVG Export Plug-In . SVG Version: 6.00 Build 0)  -->
<svg version="1.1" id="Layer_1" xmlns="http://www.w3.org/2000/svg" xmlns:xlink="http://www.w3.org/1999/xlink" x="0px" y="0px"
	 viewBox="0 0 30.3 30.2" style="enable-background:new 0 0 30.3 30.2;" xml:space="preserve">
<style type="text/css">
	.st0{fill:#6F6B7D;}
</style>
<g id="my-proposal" transform="translate(2885 1289.506)">
	<path id="Subtraction_17" class="st0" d="M-2880.1-1259.3L-2880.1-1259.3l-4.9-8.5l2.8-1.6l4.9,8.5L-2880.1-1259.3L-2880.1-1259.3z
		 M-2876.6-1262L-2876.6-1262l-4.4-7.6l1.4-0.8c0.1,0,0.1-0.1,0.2-0.2l1.3-1.9l6-3.5c0.5-0.3,1.2-0.1,1.5,0.4
		c0.3,0.5,0.1,1.2-0.4,1.5l-2.4,1.4c-0.3,0.1-0.4,0.5-0.2,0.7c0,0,0,0,0,0c1.1,1.8,0.4,4.2-1.4,5.2c0,0,0,0,0,0l0.5,0.8v2.1
		c0,0.2,0,0.4,0.1,0.6L-2876.6-1262L-2876.6-1262z M-2856.4-1262.2h-15.3c-0.7,0-1.3-0.4-1.5-1c-0.1-0.2-0.1-0.4-0.1-0.6v-2.8
		c1.4-1.4,1.8-3.6,1-5.4l1.9-1.1c1-0.6,1.4-1.9,0.8-3c-0.6-1-1.9-1.4-3-0.8l-0.8,0.4v-11.4c0-0.9,0.7-1.6,1.6-1.6h12.6v2.7
		c0,0.9,0.7,1.6,1.6,1.6h2.7v21.3C-2854.7-1262.9-2855.4-1262.1-2856.4-1262.2L-2856.4-1262.2z M-2870-1266v1.1h13.1v-1.1H-2870z
		 M-2870-1268.2v1.1h13.1v-1.1H-2870z M-2870-1270.4v1.1h13.1v-1.1H-2870z M-2866.8-1272.5v1.1h9.9v-1.1H-2866.8z M-2870-1272.5v1.1
		h2.2v-1.1H-2870z M-2868.1-1275.4v0.9h10.9v-0.9H-2868.1z M-2868.1-1278.1v0.9h10.9v-0.9H-2868.1z M-2870.8-1284.5v3.6h4.5v-3.6
		H-2870.8z M-2855.5-1286.2h-2c-0.3,0-0.5-0.2-0.5-0.5c0,0,0,0,0,0v-2L-2855.5-1286.2L-2855.5-1286.2z"/>
</g>
</svg>
