<svg xmlns="http://www.w3.org/2000/svg" width="27.508" height="26.143" viewBox="0 0 27.508 26.143">
  <g id="my_profile" data-name="my profile" transform="translate(2876 1089.835)">
    <path id="Path_7822" data-name="Path 7822" d="M-2856.247-1089.8h6.841v6.551" transform="translate(-0.444 0.966)" fill="none" stroke="#fff" stroke-linejoin="round" stroke-width="2"/>
    <path id="Path_7823" data-name="Path 7823" d="M-2849.407-1089.8h-6.841v6.551" transform="translate(-18.753 0.966)" fill="none" stroke="#fff" stroke-linejoin="round" stroke-width="2"/>
    <path id="Path_7824" data-name="Path 7824" d="M-2849.407-1083.25h-6.841v-6.551" transform="translate(-18.753 18.558)" fill="none" stroke="#fff" stroke-linejoin="round" stroke-width="2"/>
    <path id="Path_7825" data-name="Path 7825" d="M-2856.247-1083.25h6.841v-6.551" transform="translate(-0.085 18.558)" fill="none" stroke="#fff" stroke-linejoin="round" stroke-width="2"/>
    <path id="Icon_awesome-user-alt" data-name="Icon awesome-user-alt" d="M7.85,8.832A4.416,4.416,0,1,0,3.434,4.416,4.417,4.417,0,0,0,7.85,8.832Zm3.925.981h-1.69a5.338,5.338,0,0,1-4.471,0H3.925A3.925,3.925,0,0,0,0,13.738v.491A1.472,1.472,0,0,0,1.472,15.7H14.229A1.472,1.472,0,0,0,15.7,14.229v-.491A3.925,3.925,0,0,0,11.775,9.813Z" transform="translate(-2869.917 -1086.077)" fill="#fff"/>
  </g>
</svg>
