<?xml version="1.0" encoding="utf-8"?>
<!-- Generator: Adobe Illustrator 25.0.0, SVG Export Plug-In . SVG Version: 6.00 Build 0)  -->
<svg version="1.1" id="Layer_1" xmlns="http://www.w3.org/2000/svg" xmlns:xlink="http://www.w3.org/1999/xlink" x="0px" y="0px"
	 viewBox="0 0 24 24" style="enable-background:new 0 0 24 24;" xml:space="preserve">
<style type="text/css">
	.st0{fill:#6F6B7D;}
</style>
<polygon class="st0" points="1.4,0.8 12,0.8 22.6,0.8 23,0.4 23.4,0 12,0 0.6,0 1,0.4 "/>
<polygon class="st0" points="0.8,8.7 0.8,1.4 0.4,1 0,0.6 0,8.7 0,16.8 0.4,16.4 0.8,16 "/>
<path class="st0" d="M24,0.6c0,0-0.2,0.2-0.4,0.4l-0.4,0.4v7.3V16l0.4,0.4l0.4,0.4V8.7C24,4.3,24,0.6,24,0.6z"/>
<g>
	<path class="st0" d="M12,1.7c-5.7,0-10.3,0-10.3,0c0,0,0,3.2,0,7v7H12h10.4l0-7l0-7L12,1.7z M9.9,12.4v2.5H6.2H2.5v-2.5V9.9h1.3
		c1,0,1.3,0,1.3-0.1c0-0.2,0.5-0.7,0.9-0.7c0.2-0.1,0.6,0,0.9,0.1C7,9.4,7.2,9.6,7.3,9.8l0.1,0.1h1.3h1.3V12.4z M9.9,5.8l0,2.5
		l-3.7,0l-3.7,0V5.8V3.3h1.3H5l0.1-0.2c0.3-0.5,0.9-0.7,1.5-0.5c0.3,0.1,0.5,0.3,0.7,0.5l0.1,0.2h1.3h1.3L9.9,5.8z M21.5,9.1v5.8
		h-5.4h-5.4V9.1V3.3h2.1h2.1L15,3.2c0.3-0.5,0.9-0.8,1.4-0.6c0.3,0.1,0.6,0.3,0.7,0.6l0.1,0.2h2.1h2.1V9.1z"/>
</g>
<path class="st0" d="M6.2,4.1c0.2,0,0.4-0.2,0.4-0.4c0-0.4-0.4-0.5-0.7-0.3C5.7,3.7,5.9,4.1,6.2,4.1z"/>
<path class="st0" d="M7.4,4.1L7.2,4.4C7.1,4.7,6.7,4.9,6.4,5C5.9,5,5.4,4.8,5.1,4.4L5,4.1H4.2H3.3v1.7v1.7h2.9h2.9V5.8V4.1H8.2
	L7.4,4.1z"/>
<path class="st0" d="M16.5,3.7c0-0.4-0.5-0.5-0.7-0.3c-0.2,0.2-0.1,0.4,0,0.6C16.1,4.3,16.5,4.1,16.5,3.7z"/>
<g>
	<path class="st0" d="M17.3,4.1l-0.1,0.1c-0.1,0.2-0.3,0.4-0.5,0.6c-0.6,0.3-1.3,0.1-1.7-0.5l-0.1-0.2h-1.7h-1.7v5v5h4.5h4.5v-5v-5
		H19H17.3z M19.5,9.5v3.3h-3.3h-3.3V9.5V6.2h3.3h3.3V9.5z"/>
</g>
<polygon class="st0" points="14.1,7.5 14.1,7.9 14.1,8.3 16.1,8.3 18.2,8.3 18.2,7.9 18.2,7.5 16.1,7.5 "/>
<polygon class="st0" points="14.1,9.1 14.1,9.5 14.1,9.9 16.1,9.9 18.2,9.9 18.2,9.5 18.2,9.1 16.1,9.1 "/>
<polygon class="st0" points="14.1,10.8 14.1,11.2 14.1,11.6 16.1,11.6 18.2,11.6 18.2,11.2 18.2,10.8 16.1,10.8 "/>
<path class="st0" d="M6.6,10.3c0-0.4-0.4-0.5-0.7-0.3c-0.2,0.2-0.2,0.4,0,0.6C6.2,10.9,6.6,10.7,6.6,10.3z"/>
<path class="st0" d="M7.4,10.8L7.3,11c-0.1,0.2-0.4,0.5-0.7,0.5c-0.3,0.1-0.7,0-0.9-0.1c-0.2-0.1-0.5-0.4-0.5-0.6
	C5,10.8,5,10.8,4.2,10.8H3.3v1.6v1.6h2.9h2.9v-1.6v-1.6H8.2L7.4,10.8z"/>
<polygon class="st0" points="22.6,16.5 12,16.5 1.4,16.5 1,17 0.6,17.4 12,17.4 23.4,17.4 23,17 "/>
<polygon class="st0" points="6.2,22.4 6.2,20.3 6.2,18.2 5.8,18.2 5.4,18.2 5.4,20.3 5.4,22.4 5.8,22.4 "/>
<polygon class="st0" points="18.6,22.4 18.6,20.3 18.6,18.2 18.2,18.2 17.8,18.2 17.8,20.3 17.8,22.4 18.2,22.4 "/>
<polygon class="st0" points="17,20.3 17,19.9 12,19.9 7,19.9 7,20.3 7,20.7 12,20.7 17,20.7 "/>
<polygon class="st0" points="4.5,23.2 4.5,23.6 4.5,24 5.8,24 7,24 7,23.6 7,23.2 5.8,23.2 "/>
<polygon class="st0" points="17,23.2 17,23.6 17,24 18.2,24 19.5,24 19.5,23.6 19.5,23.2 18.2,23.2 "/>
</svg>
