<svg xmlns="http://www.w3.org/2000/svg" width="22.074" height="27.608" viewBox="0 0 22.074 27.608">
  <g id="notification" transform="translate(-6.761 -3.93)">
    <path id="Path_7826" data-name="Path 7826" d="M17.93,31.993c2.146,0,3.319-1.518,3.319-3.657H14.6C14.6,30.475,15.777,31.993,17.93,31.993Z" transform="translate(-0.146 -0.454)" fill="#fff"/>
    <path id="Path_7827" data-name="Path 7827" d="M28.555,24.376c-1.063-1.4-3.153-2.222-3.153-8.494,0-6.438-2.843-9.026-5.493-9.647-.248-.062-.428-.145-.428-.407v-.2a1.684,1.684,0,1,0-3.367,0v.2c0,.255-.179.345-.428.407-2.657.628-5.493,3.209-5.493,9.647,0,6.272-2.091,7.087-3.153,8.494a1.37,1.37,0,0,0,1.1,2.194H27.465A1.37,1.37,0,0,0,28.555,24.376Z" transform="translate(0 0)" fill="#fff"/>
  </g>
</svg>
