<?xml version="1.0" encoding="utf-8"?>
<!-- Generator: Adobe Illustrator 25.0.0, SVG Export Plug-In . SVG Version: 6.00 Build 0)  -->
<svg version="1.1" id="Layer_1" xmlns="http://www.w3.org/2000/svg" xmlns:xlink="http://www.w3.org/1999/xlink" x="0px" y="0px"
	 viewBox="0 0 24 24" style="enable-background:new 0 0 24 24;" xml:space="preserve">
<style type="text/css">
	.st0{fill:#6F6B7D;}
</style>
<g>
	<path class="st0" d="M12,23.6c1.8,0,2.8-1.3,2.8-3.1H9.2C9.2,22.3,10.2,23.6,12,23.6z"/>
	<path class="st0" d="M21,17.6c-0.9-1.2-2.6-1.9-2.6-7.1c0-5.4-2.4-7.6-4.6-8.1c-0.2-0.1-0.4-0.1-0.4-0.3V1.8c0-0.8-0.6-1.4-1.4-1.4
		c-0.8,0-1.4,0.6-1.4,1.4c0,0,0,0,0,0.1V2c0,0.2-0.2,0.3-0.4,0.3C8,2.9,5.6,5,5.6,10.4c0,5.3-1.8,6-2.6,7.1
		c-0.4,0.5-0.3,1.2,0.2,1.6c0.2,0.2,0.4,0.2,0.7,0.2h16.2c0.6,0,1.1-0.5,1.1-1.2C21.3,18,21.2,17.8,21,17.6z"/>
</g>
</svg>
