<svg width="512" height="512" viewBox="0 0 512 512" fill="none" xmlns="http://www.w3.org/2000/svg">
<path d="M21.5 9L30.5 18H256H481.5L490.5 9L499.5 -2.68221e-07H256H12.5L21.5 9Z" fill="white"/>
<path d="M0 185.5V358.5L9 349.5L18 340.5V185.5V30.5L9 21.5L0 12.5V185.5Z" fill="white"/>
<path d="M502.7 21.8L494 30.5V185.5V340.5L503 349.5L512 358.5V185.7C512 90.7 511.9 13 511.7 13C511.6 13 507.5 16.9 502.7 21.8Z" fill="white"/>
<path d="M35.7 35.7C35.3 36 35 103.5 35 185.7V335H256H477L476.8 185.2L476.5 35.5L256.4 35.2C135.4 35.1 36 35.3 35.7 35.7ZM141.1 54.5C147.1 56.6 151.6 60.4 155.2 66.1L158.2 71H185.1H212L211.8 123.7L211.5 176.5L132.3 176.8L53 177V124V71H79.9H106.7L109.7 66.2C116.6 55.1 129.3 50.4 141.1 54.5ZM351.5 54.1C357.7 55.8 363.8 60.6 366.8 66.1L369.5 71H414.3H459V194.5V318H344.5H230V194.5V71H274.5H318.9L320.6 67.7C326.4 56.3 339.1 50.7 351.5 54.1ZM145.2 197.7C150 200.3 153.9 204.5 156.1 209.4L157.3 212H184.7H212V265V318H132.5H53V265V212H80.5C102.9 212 108 211.8 108 210.7C108 206.1 118.7 196.8 126.3 194.9C131.5 193.6 139.9 194.8 145.2 197.7Z" fill="white"/>
<path d="M126.5 73.5C121.1 78.8 124.9 88 132.5 88C137.4 88 141 84.4 141 79.5C141 71.9 131.8 68.1 126.5 73.5Z" fill="white"/>
<path d="M71 123.5V159H132.5H194V123.5V88H175.8L157.5 88.1L154.5 93.3C151 99.4 143.4 104.5 136.2 105.6C126 107.1 115.4 102 109.8 92.9L106.7 88H88.9H71V123.5Z" fill="white"/>
<path d="M338.1 73.3999C334.8 76.8999 335 82.6999 338.5 85.6999C344.3 90.6999 353 86.8999 353 79.2999C353 71.7999 343.2 67.9999 338.1 73.3999Z" fill="white"/>
<path d="M247 194V300H344H441V194V88H405.2H369.3L368.1 90.6C365.9 95.6 362 99.7 357 102.4C344.2 109.4 328.8 105.1 321.4 92.4L318.8 88H282.9H247V194ZM415 203V274H344.5H274V203V132H344.5H415V203Z" fill="white"/>
<path d="M300.2 167.7L300.5 176.5L344.3 176.8L388 177V168V159H344H299.9L300.2 167.7Z" fill="white"/>
<path d="M300 203V212H344H388V203V194H344H300V203Z" fill="white"/>
<path d="M300 238.5V247H344H388V238.5V230H344H300V238.5Z" fill="white"/>
<path d="M126.5 214.5C123.1 217.8 123.1 223.8 126.3 226.8C131.8 231.9 141 228 141 220.5C141 213 131.8 209.2 126.5 214.5Z" fill="white"/>
<path d="M71 265V300H132.5H194V265V230H175.8L157.5 230.1L154.8 234.5C151.7 239.7 145.3 244.6 139.6 246.1C134.1 247.6 125.3 246.7 120.3 244.2C116.1 242 110.6 236.4 108.8 232.4C107.7 230 107.7 230 89.3 230H71V265Z" fill="white"/>
<path d="M21.5 362L12.5 371H256H499.5L490.5 362L481.5 353H256H30.5L21.5 362Z" fill="white"/>
<path d="M115 432.5V477H123.5H132V432.5V388H123.5H115V432.5Z" fill="white"/>
<path d="M380 432.5V477H388.5H397V432.5V388H388.5H380V432.5Z" fill="white"/>
<path d="M150 432.5V441H256H362V432.5V424H256H150V432.5Z" fill="white"/>
<path d="M97 503V512H123.5H150V503V494H123.5H97V503Z" fill="white"/>
<path d="M362 503V512H388.5H415V503V494H388.5H362V503Z" fill="white"/>
</svg>
