<svg width="512" height="512" viewBox="0 0 512 512" fill="none" xmlns="http://www.w3.org/2000/svg">
<path d="M177.7 31.6001C156.9 35.3001 139.4 44.5001 124.5 59.5001C111.5 72.4001 103 87.2001 98.2 104.9C94.9 117.6 94.5 139.1 97.4 151.5C106.3 189.9 135.1 218.7 173.5 227.6C185.1 230.3 206.5 230.2 218 227.3C255.2 217.9 282.9 190.3 292.3 153C295.3 140.9 295.3 119.1 292.3 107C283.6 72.7001 259.1 46.0001 226.3 35.1001C211.6 30.2001 193 28.8001 177.7 31.6001Z" fill="white"/>
<path d="M375.5 220.9C369.3 222.5 364.9 225 359.9 229.7C350.7 238.3 348.1 246.9 348 268.7V280H342C328.4 280 317.5 284.3 308.4 293.4C299.1 302.7 295 313.3 295 328V335H403.5H512V328C512 313.3 507.9 302.7 498.6 293.4C489.3 284.2 478.8 280 464.9 280H459V268.7C458.9 246.9 456.3 238.3 447.1 229.7C437.7 220.9 436.5 220.6 405.5 220.3C390.7 220.2 377.2 220.5 375.5 220.9ZM426.8 251.2C427.6 252 428 256.8 428 266.2V280H403.5H379V266.2C379 256.8 379.4 252 380.2 251.2C381.9 249.5 425.1 249.5 426.8 251.2Z" fill="white"/>
<path d="M108 260.5C107.2 260.7 103.1 261.4 99 262C58.3 268.6 22.5 298.5 7.40001 338.7C0.800012 356.1 0.700012 357.4 0.300012 416.2C-0.0999877 468.9 -0.0999876 469.9 2.00001 473.9C3.30001 476.6 5.40001 478.7 8.00001 480C11.8 482 13.7 482 99.5 482C147.6 482 187 481.8 187 481.5C187 481.2 176.6 468 164 452.2C148.6 433 140.8 422.5 140.4 420.3C140.1 418.6 143.1 392.4 147.3 360.8L154.9 304.5L151.1 282.5L147.4 260.5L128.5 260.4C118 260.3 108.8 260.3 108 260.5Z" fill="white"/>
<path d="M178.1 261.7C178.1 262.7 179.1 269.3 180.3 276.5L182.6 289.5H195H207.4L209.7 276.5C210.9 269.3 211.9 262.7 211.9 261.7C212 260.1 210.5 260 195 260C179.5 260 178 260.1 178.1 261.7Z" fill="white"/>
<path d="M242.6 261.1C242.3 261.9 240.6 271.9 238.6 283.5L235.1 304.5L242.8 361.7C250.2 417.4 250.4 419 248.7 422.5C247.8 424.4 237.1 438.4 225 453.5C212.9 468.6 203 481.2 203 481.5C203 481.8 220.3 482 241.5 482H280L276.5 476.6C272.9 471 269.9 464.2 267.2 455.5C264.8 447.8 264.2 322.2 266.5 310.7C269.7 294.7 276.6 282.5 288.9 270.7L296.8 263.1L292.2 262C289.6 261.4 277.5 260.6 265.3 260.3C246.9 259.8 243 260 242.6 261.1Z" fill="white"/>
<path d="M182.2 327.2C181.6 331.2 178.8 352.1 175.9 373.6L170.7 412.7L182.5 427.3C188.9 435.4 194.6 442 195 442C195.4 442 201.1 435.4 207.5 427.3L219.3 412.7L214.1 373.6C211.2 352.1 208.4 331.2 207.8 327.2L206.8 320H195H183.2L182.2 327.2Z" fill="white"/>
<path d="M295 403C295 427 295.4 442.8 296.1 446.2C299.7 463.3 313.6 477.2 330.8 480.9C338.1 482.4 468.8 482.5 476.2 480.9C493.3 477.3 507.2 463.4 510.9 446.2C511.6 442.8 512 427.5 512 403V365H403.5H295V403Z" fill="white"/>
</svg>
