<svg width="40" height="40" viewBox="0 0 40 40" fill="none" xmlns="http://www.w3.org/2000/svg">
<path d="M13.8828 2.46879C12.2578 2.75785 10.8906 3.4766 9.72655 4.64848C8.71093 5.65629 8.04686 6.81254 7.67186 8.19534C7.41405 9.18753 7.3828 10.8672 7.60936 11.836C8.30468 14.836 10.5547 17.086 13.5547 17.7813C14.4609 17.9922 16.1328 17.9844 17.0312 17.7578C19.9375 17.0235 22.1015 14.8672 22.8359 11.9532C23.0703 11.0078 23.0703 9.30472 22.8359 8.35941C22.1562 5.67973 20.2422 3.59379 17.6797 2.74223C16.5312 2.35941 15.0781 2.25004 13.8828 2.46879Z" fill="#848484"/>
<path d="M29.3359 17.2579C28.8516 17.3829 28.5078 17.5782 28.1172 17.9454C27.3984 18.6172 27.1953 19.2891 27.1875 20.9922V21.875H26.7188C25.6562 21.875 24.8047 22.211 24.0937 22.9219C23.3672 23.6485 23.0469 24.4766 23.0469 25.625V26.1719H31.5234H40V25.625C40 24.4766 39.6797 23.6485 38.9531 22.9219C38.2266 22.2032 37.4062 21.875 36.3203 21.875H35.8594V20.9922C35.8516 19.2891 35.6484 18.6172 34.9297 17.9454C34.1953 17.2579 34.1016 17.2344 31.6797 17.211C30.5234 17.2032 29.4688 17.2266 29.3359 17.2579ZM33.3437 19.625C33.4062 19.6875 33.4375 20.0626 33.4375 20.7969V21.875H31.5234H29.6094V20.7969C29.6094 20.0626 29.6406 19.6875 29.7031 19.625C29.8359 19.4922 33.2109 19.4922 33.3437 19.625Z" fill="#848484"/>
<path d="M8.43749 20.3516C8.37499 20.3672 8.05468 20.4219 7.73437 20.4688C4.55468 20.9844 1.7578 23.3203 0.578116 26.4609C0.0624914 27.8203 0.0546789 27.9219 0.0234289 32.5156C-0.00782106 36.6328 -0.00782104 36.7109 0.156241 37.0234C0.257804 37.2344 0.421866 37.3984 0.624991 37.5C0.921865 37.6563 1.0703 37.6563 7.77343 37.6563C11.5312 37.6563 14.6094 37.6406 14.6094 37.6172C14.6094 37.5938 13.7969 36.5625 12.8125 35.3281C11.6094 33.8281 11 33.0078 10.9687 32.8359C10.9453 32.7031 11.1797 30.6563 11.5078 28.1875L12.1016 23.7891L11.8047 22.0703L11.5156 20.3516L10.0391 20.3438C9.21874 20.3359 8.49999 20.3359 8.43749 20.3516Z" fill="#848484"/>
<path d="M13.9142 20.4453C13.9142 20.5234 13.9923 21.0391 14.086 21.6016L14.2657 22.6172H15.2345H16.2032L16.3829 21.6016C16.4767 21.0391 16.5548 20.5234 16.5548 20.4453C16.5626 20.3203 16.4454 20.3125 15.2345 20.3125C14.0235 20.3125 13.9063 20.3203 13.9142 20.4453Z" fill="#848484"/>
<path d="M18.9531 20.3984C18.9297 20.4609 18.7969 21.2422 18.6406 22.1484L18.3672 23.7891L18.9688 28.2578C19.5469 32.6094 19.5625 32.7344 19.4297 33.0078C19.3594 33.1563 18.5234 34.25 17.5781 35.4297C16.6328 36.6094 15.8594 37.5938 15.8594 37.6172C15.8594 37.6406 17.2109 37.6563 18.8672 37.6563H21.875L21.6016 37.2344C21.3203 36.7969 21.0859 36.2656 20.875 35.5859C20.6875 34.9844 20.6406 25.1719 20.8203 24.2734C21.0703 23.0234 21.6094 22.0703 22.5703 21.1484L23.1875 20.5547L22.8281 20.4688C22.625 20.4219 21.6797 20.3594 20.7266 20.3359C19.2891 20.2969 18.9844 20.3125 18.9531 20.3984Z" fill="#848484"/>
<path d="M14.2344 25.5625C14.1875 25.875 13.9687 27.5078 13.7422 29.1875L13.3359 32.2422L14.2578 33.3828C14.7578 34.0156 15.2031 34.5312 15.2344 34.5312C15.2656 34.5312 15.7109 34.0156 16.2109 33.3828L17.1328 32.2422L16.7266 29.1875C16.5 27.5078 16.2813 25.875 16.2344 25.5625L16.1563 25H15.2344H14.3125L14.2344 25.5625Z" fill="#848484"/>
<path d="M23.0469 31.4844C23.0469 33.3594 23.0781 34.5938 23.1328 34.8594C23.4141 36.1953 24.5 37.2812 25.8437 37.5703C26.4141 37.6875 36.625 37.6953 37.2031 37.5703C38.5391 37.2891 39.625 36.2031 39.9141 34.8594C39.9687 34.5938 40 33.3984 40 31.4844V28.5156H31.5234H23.0469V31.4844Z" fill="#848484"/>
</svg>
