<?xml version="1.0" encoding="utf-8"?>
<!-- Generator: Adobe Illustrator 25.0.0, SVG Export Plug-In . SVG Version: 6.00 Build 0)  -->
<svg version="1.1" id="Layer_1" xmlns="http://www.w3.org/2000/svg" xmlns:xlink="http://www.w3.org/1999/xlink" x="0px" y="0px"
	 viewBox="0 0 24 24" style="enable-background:new 0 0 24 24;" xml:space="preserve">
<style type="text/css">
	.st0{fill:#6F6B7D;}
</style>
<g>
	<path class="st0" d="M8.2,10.7c0.5,0.1,1.5,0.1,2,0c1.7-0.4,3-1.7,3.4-3.4c0.1-0.6,0.1-1.6,0-2.1c-0.4-1.6-1.5-2.8-3-3.3
		C10,1.7,9.1,1.6,8.4,1.7C7.5,1.9,6.7,2.3,6,3C5.4,3.6,5,4.3,4.8,5.1c-0.2,0.6-0.2,1.6,0,2.1C5.2,9,6.5,10.3,8.2,10.7z"/>
	<path class="st0" d="M23.1,13.7c-0.4-0.4-0.9-0.6-1.5-0.6h-0.3v-0.5c0-1-0.1-1.4-0.5-1.8c-0.4-0.4-0.5-0.4-1.9-0.4
		c-0.7,0-1.3,0-1.4,0c-0.3,0.1-0.5,0.2-0.7,0.4c-0.4,0.4-0.5,0.8-0.5,1.8v0.5h-0.3c-0.6,0-1.1,0.2-1.5,0.6c-0.4,0.4-0.6,0.9-0.6,1.6
		v0.3h5h5v-0.3C23.7,14.6,23.5,14.1,23.1,13.7z M19.9,13.1h-1.1h-1.1v-0.6c0-0.4,0-0.6,0.1-0.7c0.1-0.1,2.1-0.1,2.1,0
		c0,0,0.1,0.3,0.1,0.7V13.1z"/>
	<path class="st0" d="M6.7,19.5c0-0.1,0.1-1.3,0.3-2.7l0.3-2.6l-0.2-1l-0.2-1l-0.9,0c-0.5,0-0.9,0-0.9,0c0,0-0.2,0-0.4,0.1
		c-1.9,0.3-3.5,1.7-4.2,3.5c-0.3,0.8-0.3,0.9-0.3,3.5c0,2.4,0,2.5,0.1,2.6c0.1,0.1,0.2,0.2,0.3,0.3c0.2,0.1,0.3,0.1,4.2,0.1
		c2.2,0,4,0,4,0c0,0-0.5-0.6-1.1-1.3C7.1,20.1,6.7,19.6,6.7,19.5z"/>
	<path class="st0" d="M8.4,12.3c0,0,0,0.3,0.1,0.7l0.1,0.6h0.6h0.6l0.1-0.6c0.1-0.3,0.1-0.6,0.1-0.7c0-0.1-0.1-0.1-0.8-0.1
		C8.5,12.2,8.4,12.2,8.4,12.3z"/>
	<path class="st0" d="M13.5,12.7l0.4-0.3l-0.2-0.1c-0.1,0-0.7-0.1-1.2-0.1c-0.8,0-1,0-1,0c0,0-0.1,0.5-0.2,1l-0.2,1l0.4,2.6
		c0.3,2.5,0.3,2.6,0.3,2.8c0,0.1-0.5,0.7-1.1,1.4c-0.6,0.7-1,1.3-1,1.3s0.8,0,1.8,0h1.8l-0.2-0.2c-0.2-0.3-0.3-0.6-0.4-1
		c-0.1-0.4-0.1-6.1,0-6.6C12.6,13.8,12.9,13.2,13.5,12.7z"/>
	<path class="st0" d="M10.3,19.2l-0.2-1.8c-0.1-1-0.3-1.9-0.3-2.1l0-0.3H9.2H8.7l0,0.3c0,0.2-0.2,1.1-0.3,2.1l-0.2,1.8l0.5,0.7
		c0.3,0.4,0.6,0.7,0.6,0.7s0.3-0.3,0.6-0.7L10.3,19.2z"/>
	<path class="st0" d="M13.8,17v1.7c0,1.1,0,1.8,0.1,2c0.2,0.8,0.8,1.4,1.6,1.6c0.3,0.1,6.3,0.1,6.6,0c0.8-0.2,1.4-0.8,1.6-1.6
		c0-0.2,0.1-0.9,0.1-2V17h-5H13.8z"/>
</g>
</svg>
