<svg width="24" height="24" viewBox="0 0 24 24" fill="none" xmlns="http://www.w3.org/2000/svg">
<g clip-path="url(#clip0_2348_38676)">
<path d="M22.004 0.500185H2.00012C1.17278 0.498779 0.501062 1.16862 0.500124 1.99597V18C0.498718 18.8274 1.16856 19.4991 1.99591 19.5H12.5798C12.5282 19.7738 12.5015 20.0513 12.5001 20.3302V21.9202C12.4978 22.0983 12.5939 22.2638 12.75 22.35C15.3759 23.8833 18.6239 23.8833 21.2498 22.35C21.4064 22.2638 21.5025 22.0983 21.5001 21.9202V20.3302C21.4987 20.0513 21.472 19.7738 21.42 19.5H21.9998C22.8272 19.501 23.4989 18.8311 23.4998 18.0042V2.00019C23.5012 1.17284 22.8314 0.501123 22.004 0.500185ZM20.4998 21.63C18.3107 22.7902 15.689 22.7902 13.5 21.63V20.3302C13.4976 20.0503 13.5309 19.7714 13.5998 19.5C13.6861 19.1466 13.8276 18.8091 14.0198 18.5002C14.6531 17.4699 15.7725 16.8389 16.9818 16.8314L17.0001 16.8328L17.0151 16.8314C17.9372 16.8357 18.8203 17.2055 19.47 17.8599C19.665 18.0521 19.8361 18.2672 19.98 18.5002C20.1768 18.8063 20.3193 19.1447 20.4 19.5C20.4684 19.7714 20.5017 20.0503 20.4998 20.3302V21.63ZM14.8336 13.6669C14.8326 12.4707 15.8015 11.4999 16.9982 11.4985C18.1945 11.4975 19.1653 12.4664 19.1667 13.6632C19.1676 14.8542 18.2067 15.8232 17.0151 15.8316L17.0001 15.8302L16.9828 15.8311C15.794 15.8213 14.835 14.8557 14.8336 13.6669ZM22.5 18C22.5028 18.2733 22.2834 18.4974 22.0097 18.5002H21.1101C20.887 17.9958 20.5715 17.5378 20.1801 17.1502C19.792 16.7658 19.3378 16.4555 18.8386 16.2342C20.2631 15.2189 20.5945 13.2413 19.5792 11.8172C18.5639 10.3932 16.5862 10.0617 15.1622 11.0771C13.7376 12.0924 13.4062 14.07 14.4215 15.4941C14.6245 15.7786 14.8729 16.0275 15.157 16.231C14.1492 16.6847 13.3429 17.4919 12.8901 18.5002H2.00012C1.72637 18.5025 1.50278 18.2832 1.49997 18.0099V5.49987H22.5V18ZM22.5 4.50003H1.49997V2.00019C1.49716 1.72644 1.71653 1.50284 1.99028 1.50003H21.9998C22.2736 1.49722 22.4972 1.71659 22.5 1.99034V4.50003Z" fill="white"/>
<path d="M18 2.49988H15.9998C15.7237 2.49988 15.5001 2.72394 15.5001 3.00003C15.5001 3.27613 15.7237 3.50019 15.9998 3.50019H18C18.2761 3.50019 18.5001 3.27613 18.5001 3.00003C18.5001 2.72394 18.2761 2.49988 18 2.49988Z" fill="white"/>
<path d="M21 2.49988H20.0002C19.7241 2.49988 19.5 2.72394 19.5 3.00003C19.5 3.27613 19.7241 3.50019 20.0002 3.50019H21C21.2761 3.50019 21.5002 3.27613 21.5002 3.00003C21.5002 2.72394 21.2761 2.49988 21 2.49988Z" fill="white"/>
<path d="M5.00016 9.50019H11.0002C11.2762 9.50019 11.4998 9.27613 11.4998 9.00003C11.4998 8.72394 11.2762 8.49988 11.0002 8.49988H5.00016C4.72406 8.49988 4.5 8.72394 4.5 9.00003C4.5 9.27613 4.72406 9.50019 5.00016 9.50019Z" fill="white"/>
<path d="M5.00016 12.5002H11.0002C11.2762 12.5002 11.4998 12.2761 11.4998 12C11.4998 11.7239 11.2762 11.4999 11.0002 11.4999H5.00016C4.72406 11.4999 4.5 11.7239 4.5 12C4.5 12.2761 4.72406 12.5002 5.00016 12.5002Z" fill="white"/>
<path d="M5.00016 15.5002H11.0002C11.2762 15.5002 11.4998 15.2761 11.4998 15C11.4998 14.7239 11.2762 14.4999 11.0002 14.4999H5.00016C4.72406 14.4999 4.5 14.7239 4.5 15C4.5 15.2761 4.72406 15.5002 5.00016 15.5002Z" fill="white"/>
</g>
<defs>
<clipPath id="clip0_2348_38676">
<rect width="24" height="24" fill="white"/>
</clipPath>
</defs>
</svg>
