<?xml version="1.0" encoding="utf-8"?>
<!-- Generator: Adobe Illustrator 25.0.0, SVG Export Plug-In . SVG Version: 6.00 Build 0)  -->
<svg version="1.1" id="Layer_1" xmlns="http://www.w3.org/2000/svg" xmlns:xlink="http://www.w3.org/1999/xlink" x="0px" y="0px"
	 viewBox="0 0 24 24" style="enable-background:new 0 0 24 24;" xml:space="preserve">
<style type="text/css">
	.st0{fill:#6F6B7D;}
</style>
<g>
	<path class="st0" d="M16.2,22v-0.9c0-0.1,0-0.1-0.1-0.2c0-0.1-0.1-0.1-0.2-0.1l-3.8-1v-2h0.1c0,0,0.1,0,0.1-0.1c0,0,0-0.1,0-0.1
		v-1.1h-1.9v1.1c0,0,0,0.1,0,0.1c0,0,0.1,0.1,0.1,0.1h0.2v2l-3.8,1c-0.1,0-0.1,0.1-0.2,0.1C7,21,7,21,7,21.1V22
		c-0.1,0-0.3,0.1-0.4,0.2c-0.1,0.1-0.2,0.2-0.2,0.4c-0.1,0.2-0.1,0.4-0.1,0.6c0,0.2,0.1,0.4,0.3,0.5c0.1,0.1,0.2,0.2,0.3,0.2
		C7,24,7.1,24,7.2,24c0.1,0,0.3,0,0.4-0.1c0.2-0.1,0.3-0.2,0.4-0.4c0.1-0.2,0.2-0.4,0.2-0.6c0-0.2-0.1-0.4-0.2-0.6S7.7,22.1,7.5,22
		v-0.7l3.8-1V22c-0.2,0.1-0.4,0.2-0.5,0.4c-0.1,0.2-0.2,0.4-0.2,0.6c0,0.2,0,0.4,0.2,0.6c0.1,0.2,0.3,0.3,0.4,0.4
		c0.1,0.1,0.2,0.1,0.4,0.1c0.1,0,0.3,0,0.4-0.1c0.1-0.1,0.2-0.1,0.3-0.2c0.1-0.1,0.2-0.3,0.3-0.5c0-0.2,0-0.4-0.1-0.6
		c-0.1-0.1-0.1-0.3-0.2-0.4c-0.1-0.1-0.2-0.2-0.4-0.2v-1.7l3.8,1V22c-0.1,0-0.3,0.1-0.4,0.2c-0.1,0.1-0.2,0.2-0.2,0.4
		C15,22.8,14.9,23,15,23.2c0,0.2,0.1,0.4,0.3,0.5c0.1,0.1,0.2,0.2,0.3,0.2c0.1,0.1,0.2,0.1,0.4,0.1c0.1,0,0.3,0,0.4-0.1
		c0.2-0.1,0.3-0.2,0.4-0.4c0.1-0.2,0.2-0.4,0.2-0.6c0-0.2-0.1-0.4-0.2-0.6C16.6,22.2,16.4,22.1,16.2,22z"/>
	<path class="st0" d="M19,11.7c0-0.1-0.1-0.1-0.2-0.1h-1.4c-0.1,0-0.1,0-0.2,0.1c0,0.1-0.1,0.1-0.1,0.2v1c0,0.1,0,0.1,0.1,0.2
		c0,0,0.1,0,0.1,0.1c0,0,0.1,0,0.1,0h0.4v1.2c0,0.2-0.1,0.4-0.2,0.5c-0.1,0.1-0.3,0.2-0.5,0.2h-0.4c-0.1-0.3-0.2-0.5-0.4-0.7
		c-0.2-0.2-0.5-0.3-0.7-0.3h-2.9v-0.8h1.9c0.1,0,0.2,0,0.3-0.1c0.1-0.1,0.2-0.2,0.2-0.3l0.5-2.4c-1.2,0.7-2.6,1-4,1
		c-1.3,0-2.7-0.3-3.8-1L8.1,13c0,0.1,0.1,0.2,0.2,0.3s0.2,0.1,0.3,0.1h1.9v0.8H7.6c-0.3,0-0.5,0.1-0.7,0.3c-0.2,0.2-0.4,0.4-0.4,0.6
		H6c-0.2,0-0.4-0.1-0.5-0.2c-0.1-0.1-0.2-0.3-0.2-0.5v-1.2h0.4c0,0,0.1,0,0.1,0c0,0,0.1,0,0.1-0.1c0-0.1,0.1-0.1,0.1-0.2v-1
		c0-0.1,0-0.1-0.1-0.2c0-0.1-0.1-0.1-0.2-0.1H4.3c-0.1,0-0.1,0-0.2,0.1C4,11.8,4,11.8,4,11.9v1C4,12.9,4,13,4.1,13
		c0,0.1,0.1,0.1,0.2,0.1h0.4v1.2c0,0.4,0.1,0.7,0.4,1c0.2,0.3,0.6,0.4,0.9,0.4h0.4c0.1,0.2,0.2,0.5,0.4,0.6c0.2,0.1,0.4,0.2,0.7,0.2
		h8c0.3,0,0.5-0.1,0.7-0.2c0.2-0.1,0.4-0.4,0.4-0.6h0.4c0.4,0,0.7-0.2,0.9-0.4c0.2-0.3,0.4-0.6,0.4-1v-1.2h0.4c0.1,0,0.1,0,0.2-0.1
		c0-0.1,0.1-0.1,0.1-0.2v-1C19.1,11.8,19.1,11.8,19,11.7z"/>
	<path class="st0" d="M8.2,8.6c0.7,0.7,1.6,1.2,2.6,1.4c1,0.2,2,0.1,2.9-0.3c0.9-0.4,1.7-1,2.3-1.9C16.5,7,16.8,6,16.8,5
		c0-0.7-0.1-1.3-0.4-1.9s-0.6-1.2-1.1-1.6c-0.5-0.5-1-0.8-1.6-1.1C13.1,0.1,12.4,0,11.7,0c-1,0-2,0.3-2.8,0.8
		C8.1,1.4,7.5,2.2,7.1,3.1C6.7,4,6.6,5,6.8,6C7,7,7.5,7.9,8.2,8.6z M7.8,3.2h1.2c0.1,0,0.2,0,0.2-0.1l1.3-1.3c0,0,0.1-0.1,0.1-0.1
		c0,0,0-0.1,0-0.1V0.8c1.1-0.3,2.2-0.2,3.2,0.3c0,0-0.1,0.1-0.1,0.1c-0.3,0.3-0.4,0.6-0.5,1c-0.1,0.4,0,0.7,0.1,1.1
		c0.1,0.3,0.4,0.6,0.7,0.8s0.7,0.3,1,0.3c0,0,0.1,0,0.1,0c0.3,1.2,0.3,2.5-0.1,3.7c0,0,0,0,0,0.1c-0.4,0.4-0.9,0.8-1.4,1
		c-0.5,0.2-1.1,0.3-1.7,0.3c-0.4,0-0.7,0-1-0.2l1.6-2.7c0.1-0.1,0.1-0.1,0.1-0.2V5.4c0-0.1,0-0.2-0.1-0.2S12.1,5,12.1,5
		c-1.1,0-1.1-0.6-1.1-0.6C10.9,4.4,9.9,5,9.8,5L9.1,4.4C9,4.4,8.4,5.7,8.4,5.8L7.4,6C7.2,5,7.3,4,7.8,3.2z"/>
</g>
</svg>
