<svg width="50" height="40" viewBox="0 0 50 40" fill="none" xmlns="http://www.w3.org/2000/svg">
<g clip-path="url(#clip0_3764_11249)">
<path d="M28.4464 34.9476H3.31322C2.4346 34.9467 1.59226 34.5954 0.970826 33.9715C0.349388 33.3476 -0.000344436 32.5016 -0.00170898 31.619V8.31506C-0.000798474 7.43236 0.348766 6.58615 0.970301 5.96215C1.59184 5.33815 2.43446 4.98739 3.31322 4.98694L6.62657 5.08893V0.0965391L13.1827 -0.00671387L13.0469 4.98694H33.1672L33.1329 2.91849e-05L39.835 0.103704V4.99242H43.0778C43.9563 4.99333 44.7984 5.3441 45.4196 5.96805C46.0408 6.592 46.3902 7.43813 46.3911 8.32053V22.32L43.7428 21.9318L39.78 13.8616C39.6197 13.5343 39.371 13.2588 39.0623 13.0668C38.7535 12.8748 38.3972 12.7738 38.034 12.7756C37.6715 12.7703 37.3151 12.8701 37.0074 13.0626C36.6996 13.2551 36.4535 13.5325 36.2983 13.8616L35.7518 14.9751H24.8496V16.6389H34.9321L34.1141 18.3049H24.8496V19.9692H33.2961L32.4798 21.633H24.8496V23.028L23.4747 23.2298C23.1158 23.2813 22.7787 23.4331 22.5018 23.6681C22.2249 23.9032 22.0196 24.2122 21.9093 24.5591C21.796 24.905 21.782 25.276 21.8689 25.6295C21.9558 25.9831 22.1401 26.3048 22.4007 26.558L28.8142 32.8345L28.4533 34.9438L28.4464 34.9476ZM10.8231 23.4456C9.62804 23.6129 8.46243 23.948 7.36037 24.4415C6.48222 25.0284 6.07829 28.1739 6.07485 28.205H20.3472C20.3472 28.1773 20.0722 25.1354 19.0376 24.4415C17.9358 23.9457 16.7692 23.6105 15.5731 23.4456C15.4013 23.6338 13.8546 25.2355 13.1999 25.2355C12.5022 25.2355 10.8403 23.4646 10.8266 23.4456H10.8231ZM13.2531 13.0002C11.2544 13.0002 9.62882 15.1459 9.62882 17.7836C9.62882 20.4212 11.2544 22.5686 13.2531 22.5686C15.2517 22.5686 16.8792 20.423 16.8792 17.7836C16.8792 15.1442 15.2517 13.0002 13.2531 13.0002ZM34.7895 1.6643V8.32053H38.1027V1.6643H34.7895ZM8.28319 1.6643V8.32053H11.5964V1.6643H8.28319Z" fill="#848484"/>
<path d="M37.3903 17.7821L34.5496 23.6064L28.1911 24.5437C27.9334 24.5834 27.6918 24.6944 27.4934 24.8643C27.295 25.0341 27.1475 25.2561 27.0676 25.5054C26.9877 25.7546 26.9784 26.0213 27.0409 26.2756C27.1033 26.5298 27.235 26.7616 27.4212 26.9449L32.0216 31.4762L30.9338 37.8771C30.8887 38.1347 30.9163 38.3998 31.0135 38.6424C31.1108 38.8851 31.2737 39.0955 31.4839 39.2499C31.6941 39.4042 31.9432 39.4964 32.2028 39.5158C32.4625 39.5353 32.7224 39.4812 32.9531 39.3599L38.6396 36.3338L44.3262 39.3564C44.5568 39.4778 44.8167 39.5318 45.0764 39.5124C45.3361 39.4929 45.5851 39.4008 45.7953 39.2464C46.0055 39.0921 46.1685 38.8816 46.2657 38.639C46.3629 38.3964 46.3905 38.1312 46.3454 37.8736L45.2576 31.4728L49.8563 26.9414C50.0425 26.7581 50.1742 26.5264 50.2366 26.2721C50.2991 26.0179 50.2898 25.7512 50.2099 25.5019C50.13 25.2527 49.9826 25.0307 49.7841 24.8608C49.5857 24.691 49.3441 24.58 49.0864 24.5403L42.728 23.6029L39.8873 17.7821C39.7728 17.5475 39.5952 17.3498 39.3745 17.2116C39.1538 17.0733 38.8989 17 38.6388 17C38.3787 17 38.1238 17.0733 37.9031 17.2116C37.6824 17.3498 37.5047 17.5475 37.3903 17.7821V17.7821Z" fill="#848484"/>
</g>
<defs>
<clipPath id="clip0_3764_11249">
<rect width="50" height="40" fill="white"/>
</clipPath>
</defs>
</svg>
