<svg width="24" height="24" viewBox="0 0 24 24" fill="none" xmlns="http://www.w3.org/2000/svg">
<path fill-rule="evenodd" clip-rule="evenodd" d="M19.079 17.3105C17.7754 17.3105 16.7189 18.3675 16.7189 19.6711C16.7189 20.9747 17.7754 22.0313 19.079 22.0313C20.3826 22.0313 21.4392 20.9747 21.4392 19.6711C21.4392 18.3675 20.3826 17.3105 19.079 17.3105ZM19.079 20.851C18.4275 20.851 17.8987 20.3227 17.8987 19.6711C17.8987 19.0191 18.4275 18.4908 19.079 18.4908C19.7306 18.4908 20.2593 19.0191 20.2593 19.6711C20.2593 20.3227 19.7306 20.851 19.079 20.851Z" fill="#6A6678"/>
<path fill-rule="evenodd" clip-rule="evenodd" d="M11.9981 17.3105C10.6945 17.3105 9.63794 18.3675 9.63794 19.6711C9.63794 20.9747 10.6945 22.0313 11.9981 22.0313C13.3017 22.0313 14.3583 20.9747 14.3583 19.6711C14.3583 18.3675 13.3017 17.3105 11.9981 17.3105ZM11.9981 20.851C11.3465 20.851 10.8183 20.3227 10.8183 19.6711C10.8183 19.0191 11.3465 18.4908 11.9981 18.4908C12.6501 18.4908 13.1784 19.0191 13.1784 19.6711C13.1784 20.3227 12.6501 20.851 11.9981 20.851Z" fill="#6A6678"/>
<path fill-rule="evenodd" clip-rule="evenodd" d="M20.2594 12.5902H12.4233L9.8269 4.79532C9.26487 3.10594 7.68331 1.96688 5.90299 1.96875H1.9669C0.989087 1.96875 0.196899 2.76141 0.196899 3.73875C0.196899 4.71656 0.989087 5.50922 1.9669 5.50922H5.82002C6.08581 5.50922 6.32252 5.6775 6.41018 5.92828L9.14206 14.13C9.54612 15.3173 10.6561 16.1194 11.9096 16.1306H20.2594C21.2367 16.1306 22.0294 15.338 22.0294 14.3602C22.0294 13.3828 21.2367 12.5902 20.2594 12.5902ZM20.2594 14.9503H11.9096C11.1657 14.9433 10.5056 14.4717 10.2577 13.77C9.49034 11.475 8.10987 7.32656 7.52534 5.56828C7.28206 4.83188 6.59581 4.33313 5.82002 4.32891H1.9669C1.81034 4.32985 1.6594 4.26844 1.54784 4.15781C1.43768 4.04672 1.37581 3.89578 1.37674 3.73875C1.37581 3.58219 1.43768 3.43125 1.54784 3.32016C1.6594 3.20953 1.81034 3.14813 1.9669 3.14906H5.90299C7.17424 3.14719 8.30393 3.96047 8.70565 5.16703L11.4375 13.3688C11.5186 13.6092 11.7446 13.7709 11.9981 13.77H20.2594C20.5852 13.77 20.8496 14.0344 20.8496 14.3602C20.8496 14.6864 20.5852 14.9503 20.2594 14.9503Z" fill="#6A6678"/>
<path fill-rule="evenodd" clip-rule="evenodd" d="M6.68769 12.5901H3.73737C3.41159 12.5901 3.14722 12.8545 3.14722 13.1803C3.14722 13.5061 3.41159 13.7705 3.73737 13.7705H6.68769C7.01347 13.7705 7.27784 13.5061 7.27784 13.1803C7.27784 12.8541 7.01347 12.5901 6.68769 12.5901Z" fill="#6A6678"/>
<path fill-rule="evenodd" clip-rule="evenodd" d="M6.09754 10.8197C6.09754 10.4939 5.83317 10.2295 5.50739 10.2295H2.55708C2.23129 10.2295 1.96692 10.4939 1.96692 10.8197C1.96692 11.1455 2.23129 11.4098 2.55708 11.4098H5.50739C5.83317 11.4098 6.09754 11.1459 6.09754 10.8197Z" fill="#6A6678"/>
<path fill-rule="evenodd" clip-rule="evenodd" d="M23.7051 2.80077C23.5903 2.64327 23.4047 2.55233 23.2097 2.5589H11.408C11.2214 2.5603 11.0461 2.64983 10.9359 2.80077C10.8248 2.94936 10.7897 3.14155 10.8417 3.32015L13.2019 10.9908C13.2773 11.2406 13.508 11.4108 13.7686 11.4098H20.8495C21.1186 11.4216 21.3614 11.2491 21.4392 10.9908L23.7998 3.32015C23.8519 3.14155 23.8167 2.94936 23.7051 2.80077ZM14.9484 10.23H14.205L13.2966 7.27921H14.9484V10.23ZM14.9484 6.09936H12.9305L12.2048 3.73874H14.9484V6.09936ZM18.4889 10.23H16.1287V7.27921H18.4889V10.23ZM18.4889 6.09936H16.1287V3.73874H18.4889V6.09936ZM20.4126 10.23H19.6692V7.27921H21.3216L20.4126 10.23ZM21.6872 6.09936H19.6692V3.73874H22.4128L21.6872 6.09936Z" fill="#6A6678"/>
<path fill-rule="evenodd" clip-rule="evenodd" d="M4.91725 8.45954C4.91725 8.13376 4.65287 7.86938 4.32709 7.86938H1.37678C1.051 7.86938 0.786621 8.13376 0.786621 8.45954C0.786621 8.78532 1.051 9.0497 1.37678 9.0497H4.32709C4.65334 9.0497 4.91725 8.78532 4.91725 8.45954Z" fill="#6A6678"/>
</svg>
