<svg xmlns="http://www.w3.org/2000/svg" width="21" height="26" viewBox="0 0 21 26">
  <path id="recruiter-proposal" d="M4010,1362h-19a1,1,0,0,1-1-1v-24a1,1,0,0,1,1-1h19a1,1,0,0,1,1,1v24A1,1,0,0,1,4010,1362Zm-18.836-4.655v1.673H4007.4v-1.673Zm0-2.508v1.673h18.316v-1.673Zm9.315-16.742a7.145,7.145,0,1,0,7.144,7.146A7.154,7.154,0,0,0,4000.479,1338.094Zm0,12.531c-1.209,0-2.335-.016-3.089-.044a.87.87,0,0,1-.829-.957l.233-2.349a2.739,2.739,0,0,1,2.091-2.324l1.074,4.721.234-3.961h-.152a.18.18,0,0,1-.176-.175V1345a.18.18,0,0,1,.176-.175h.852a.18.18,0,0,1,.176.175v.526a.181.181,0,0,1-.176.176h-.151l.234,3.961,1.086-4.709a2.738,2.738,0,0,1,2.091,2.324l.246,2.349a.872.872,0,0,1-.83.957C4002.817,1350.609,4001.691,1350.625,4000.482,1350.625Zm-.006-6.259a2.43,2.43,0,1,1,2.43-2.429A2.432,2.432,0,0,1,4000.476,1344.366Z" transform="translate(-3990 -1336)" fill="#fff"/>
</svg>
