<?xml version="1.0" encoding="utf-8"?>
<!-- Generator: Adobe Illustrator 25.0.0, SVG Export Plug-In . SVG Version: 6.00 Build 0)  -->
<svg version="1.1" id="Layer_1" xmlns="http://www.w3.org/2000/svg" xmlns:xlink="http://www.w3.org/1999/xlink" x="0px" y="0px"
	 viewBox="0 0 24 24" style="enable-background:new 0 0 24 24;" xml:space="preserve">
<style type="text/css">
	.st0{fill:none;}
	.st1{fill:#6F6B7D;}
	.st2{opacity:0.2;}
</style>
<rect x="2" class="st0" width="19.4" height="24"/>
<g>
	<path class="st1" d="M20.5,24H2.9c-0.2,0-0.5-0.1-0.7-0.3C2.1,23.6,2,23.3,2,23.1V0.9c0-0.2,0.1-0.5,0.3-0.7C2.4,0.1,2.7,0,2.9,0
		h17.5c0.2,0,0.5,0.1,0.7,0.3c0.2,0.2,0.3,0.4,0.3,0.7v22.2c0,0.2-0.1,0.5-0.3,0.7C20.9,23.9,20.7,24,20.5,24z M3.1,19.7v1.5h15
		v-1.5H3.1z M3.1,17.4v1.5H20v-1.5H3.1z M11.7,1.9C10.4,1.9,9.1,2.3,8,3C6.9,3.8,6.1,4.8,5.6,6C5.1,7.2,4.9,8.5,5.2,9.8
		c0.3,1.3,0.9,2.5,1.8,3.4c0.9,0.9,2.1,1.6,3.4,1.8c1.3,0.3,2.6,0.1,3.8-0.4c1.2-0.5,2.2-1.3,3-2.4c0.7-1.1,1.1-2.4,1.1-3.7
		c0-1.7-0.7-3.4-1.9-4.7C15.1,2.6,13.4,1.9,11.7,1.9z M11.7,13.5c-1.1,0-2.2,0-2.9,0c-0.1,0-0.2,0-0.3-0.1c-0.1,0-0.2-0.1-0.3-0.2
		c-0.1-0.1-0.1-0.2-0.2-0.3c0-0.1,0-0.2,0-0.3l0.2-2.2c0.1-0.5,0.3-1,0.6-1.4c0.3-0.4,0.8-0.7,1.3-0.8l1,4.4L11.4,9h-0.1
		c0,0-0.1,0-0.1,0c0,0,0-0.1,0-0.1V8.3c0,0,0-0.1,0-0.1c0,0,0.1,0,0.1,0h0.8c0,0,0.1,0,0.1,0c0,0,0,0.1,0,0.1v0.5c0,0,0,0.1,0,0.1
		s-0.1,0-0.1,0h-0.1l0.2,3.7l1-4.3c0.5,0.1,1,0.4,1.3,0.8s0.6,0.9,0.6,1.4l0.2,2.2c0,0.1,0,0.2,0,0.3c0,0.1-0.1,0.2-0.2,0.3
		s-0.2,0.1-0.3,0.2c-0.1,0-0.2,0.1-0.3,0.1C13.8,13.5,12.8,13.5,11.7,13.5L11.7,13.5z M11.7,7.7c-0.4,0-0.9-0.1-1.2-0.4
		s-0.7-0.6-0.8-1C9.4,5.9,9.4,5.5,9.5,5c0.1-0.4,0.3-0.8,0.6-1.1c0.3-0.3,0.7-0.5,1.1-0.6c0.4-0.1,0.9,0,1.3,0.1
		c0.4,0.2,0.8,0.5,1,0.8c0.2,0.4,0.4,0.8,0.4,1.2c0,0.6-0.2,1.2-0.7,1.6C12.8,7.5,12.3,7.7,11.7,7.7L11.7,7.7z"/>
	<g class="st2">
		<path class="st1" d="M20.5,24H2.9c-0.2,0-0.5-0.1-0.7-0.3C2.1,23.6,2,23.3,2,23.1V0.9c0-0.2,0.1-0.5,0.3-0.7C2.4,0.1,2.7,0,2.9,0
			h17.5c0.2,0,0.5,0.1,0.7,0.3c0.2,0.2,0.3,0.4,0.3,0.7v22.2c0,0.2-0.1,0.5-0.3,0.7C20.9,23.9,20.7,24,20.5,24z M3.1,19.7v1.5h15
			v-1.5H3.1z M3.1,17.4v1.5H20v-1.5H3.1z M11.7,1.9C10.4,1.9,9.1,2.3,8,3C6.9,3.8,6.1,4.8,5.6,6C5.1,7.2,4.9,8.5,5.2,9.8
			c0.3,1.3,0.9,2.5,1.8,3.4c0.9,0.9,2.1,1.6,3.4,1.8c1.3,0.3,2.6,0.1,3.8-0.4c1.2-0.5,2.2-1.3,3-2.4c0.7-1.1,1.1-2.4,1.1-3.7
			c0-1.7-0.7-3.4-1.9-4.7C15.1,2.6,13.4,1.9,11.7,1.9z M11.7,13.5c-1.1,0-2.2,0-2.9,0c-0.1,0-0.2,0-0.3-0.1c-0.1,0-0.2-0.1-0.3-0.2
			c-0.1-0.1-0.1-0.2-0.2-0.3c0-0.1,0-0.2,0-0.3l0.2-2.2c0.1-0.5,0.3-1,0.6-1.4c0.3-0.4,0.8-0.7,1.3-0.8l1,4.4L11.4,9h-0.1
			c0,0-0.1,0-0.1,0c0,0,0-0.1,0-0.1V8.3c0,0,0-0.1,0-0.1c0,0,0.1,0,0.1,0h0.8c0,0,0.1,0,0.1,0c0,0,0,0.1,0,0.1v0.5c0,0,0,0.1,0,0.1
			s-0.1,0-0.1,0h-0.1l0.2,3.7l1-4.3c0.5,0.1,1,0.4,1.3,0.8s0.6,0.9,0.6,1.4l0.2,2.2c0,0.1,0,0.2,0,0.3c0,0.1-0.1,0.2-0.2,0.3
			s-0.2,0.1-0.3,0.2c-0.1,0-0.2,0.1-0.3,0.1C13.8,13.5,12.8,13.5,11.7,13.5L11.7,13.5z M11.7,7.7c-0.4,0-0.9-0.1-1.2-0.4
			s-0.7-0.6-0.8-1C9.4,5.9,9.4,5.5,9.5,5c0.1-0.4,0.3-0.8,0.6-1.1c0.3-0.3,0.7-0.5,1.1-0.6c0.4-0.1,0.9,0,1.3,0.1
			c0.4,0.2,0.8,0.5,1,0.8c0.2,0.4,0.4,0.8,0.4,1.2c0,0.6-0.2,1.2-0.7,1.6C12.8,7.5,12.3,7.7,11.7,7.7L11.7,7.7z"/>
	</g>
</g>
</svg>
