<svg width="32" height="36" viewBox="0 0 32 36" fill="none" xmlns="http://www.w3.org/2000/svg">
<path d="M9.7188 25.91C11.3497 25.925 12.9599 26.2763 14.4488 26.942C15.7726 27.4991 17.1531 27.9109 18.5658 28.17C19.7778 28.401 20.9978 28.595 22.2068 28.84C22.5129 28.9101 22.8006 29.0444 23.0508 29.234C23.1501 29.2992 23.2321 29.3873 23.2901 29.491C23.348 29.5947 23.3801 29.7109 23.3837 29.8297C23.3872 29.9484 23.3621 30.0662 23.3104 30.1732C23.2587 30.2801 23.182 30.373 23.0868 30.444C22.8092 30.6889 22.4822 30.8711 22.128 30.9782C21.7737 31.0854 21.4005 31.115 21.0338 31.065C20.6558 31.029 20.2838 30.949 19.9088 30.893C18.6208 30.702 17.3348 30.493 16.0418 30.33C15.1656 30.2227 14.2764 30.3254 13.4478 30.6299C13.3318 30.6755 13.234 30.7581 13.1698 30.8649C13.1578 30.9095 13.1574 30.9563 13.1684 31.001C13.1794 31.0458 13.2016 31.0872 13.2328 31.121C13.2682 31.149 13.3093 31.1685 13.3533 31.1784C13.3973 31.1883 13.4429 31.1881 13.4868 31.1779C14.7037 30.7817 16.006 30.7271 17.2518 31.02C18.4988 31.232 19.7518 31.437 21.0038 31.595C21.4445 31.6567 21.8934 31.6215 22.3191 31.492C22.7448 31.3625 23.1371 31.1417 23.4688 30.845C23.6139 30.7373 23.7336 30.5991 23.8195 30.4401C23.9054 30.2812 23.9554 30.1053 23.966 29.9249C23.9766 29.7445 23.9475 29.564 23.8808 29.3961C23.8141 29.2281 23.7113 29.0769 23.5798 28.9529C23.5098 28.8729 23.4938 28.805 23.6008 28.753C24.6691 28.1323 25.6777 27.4142 26.6138 26.608C27.1948 26.172 27.8028 25.7639 28.4248 25.3799C28.6349 25.2365 28.8847 25.1625 29.139 25.1683C29.3933 25.174 29.6394 25.2592 29.8428 25.4119C29.9054 25.4406 29.9757 25.448 30.0428 25.4329C30.7928 25.3039 31.3428 25.8329 31.1428 26.5109C31.0847 26.6966 30.9932 26.8702 30.8728 27.023C30.0188 28.123 29.1488 29.2229 28.2948 30.3229C27.7834 30.9777 27.1231 31.5009 26.3688 31.8489C24.4508 32.7649 22.5278 33.674 20.6398 34.639C19.4848 35.2438 18.1539 35.4236 16.8798 35.147C15.5938 34.883 14.3288 34.529 13.0548 34.216C12.1118 33.984 11.1768 33.716 10.2228 33.534C9.19901 33.3429 8.1416 33.4567 7.18181 33.861C5.81181 34.418 4.43683 34.9609 3.06883 35.5259C2.97693 35.5735 2.87316 35.5934 2.77019 35.5831C2.66722 35.5728 2.56948 35.5328 2.48882 35.468C2.28752 35.3211 2.10214 35.1535 1.93578 34.968C0.960681 33.8002 0.301994 32.4015 0.0228132 30.906C0.0111456 30.8315 0.00481427 30.7563 0.0038313 30.681C-0.0171687 30.115 0.0308347 30.048 0.594835 29.817C1.56683 29.417 2.5658 29.064 3.4998 28.602C4.11153 28.2587 4.69442 27.8665 5.24278 27.429C6.54005 26.4687 8.10497 25.9375 9.7188 25.91Z" fill="#848484"/>
<path d="M19.0105 13.294C19.7606 13.294 20.4937 13.0715 21.1174 12.6548C21.741 12.2381 22.227 11.6458 22.514 10.9529C22.801 10.2599 22.876 9.49742 22.7296 8.76181C22.5832 8.02621 22.2219 7.35054 21.6915 6.82026C21.1611 6.28998 20.4853 5.92891 19.7497 5.7827C19.0141 5.6365 18.2516 5.71174 17.5587 5.9989C16.8658 6.28606 16.2737 6.77225 15.8571 7.39597C15.4406 8.01969 15.2183 8.75293 15.2185 9.50296C15.2191 10.5084 15.6188 11.4725 16.3298 12.1834C17.0409 12.8942 18.0051 13.2937 19.0105 13.294ZM22.3805 14.137H20.9295C20.3277 14.4146 19.6728 14.5583 19.01 14.5583C18.3473 14.5583 17.6924 14.4146 17.0905 14.137H15.6395C15.1966 14.137 14.7581 14.2243 14.349 14.3939C13.9398 14.5635 13.5682 14.8121 13.2552 15.1254C12.9422 15.4388 12.694 15.8108 12.5249 16.2201C12.3558 16.6294 12.269 17.0681 12.2695 17.511V17.932C12.2695 18.2672 12.4027 18.5887 12.6398 18.8257C12.8768 19.0628 13.1983 19.196 13.5335 19.196H24.4865C24.8218 19.196 25.1433 19.0628 25.3803 18.8257C25.6174 18.5887 25.7505 18.2672 25.7505 17.932V17.511C25.7511 17.0681 25.6643 16.6294 25.4952 16.2201C25.326 15.8108 25.0779 15.4388 24.7649 15.1254C24.4519 14.8121 24.0802 14.5635 23.6711 14.3939C23.262 14.2243 22.8234 14.137 22.3805 14.137Z" fill="#848484"/>
<path d="M19.0117 25.817C16.8429 25.8189 14.7115 25.2518 12.8303 24.1724C10.9491 23.0931 9.38399 21.5392 8.29103 19.6659C7.19806 17.7926 6.61572 15.6653 6.60182 13.4965C6.58791 11.3277 7.14307 9.19323 8.21192 7.30605L8.38185 7.49505C7.03213 9.9178 6.55102 12.7291 7.01808 15.4628C7.48514 18.1966 8.87243 20.6886 10.95 22.5258C13.0275 24.363 15.6703 25.4351 18.4407 25.5643C21.211 25.6934 23.9424 24.872 26.1819 23.236L26.3547 23.408C24.2295 24.9791 21.6546 25.8238 19.0117 25.817ZM29.7378 19.6391L29.565 19.46C30.9602 17.0269 31.4714 14.1863 31.0122 11.4193C30.5531 8.65238 29.1517 6.12916 27.0454 4.27703C24.9391 2.4249 22.2573 1.35772 19.4544 1.25622C16.6514 1.15471 13.8995 2.02513 11.6648 3.72005L11.4939 3.54805C13.6499 1.88852 16.2961 0.992249 19.0169 1.00005C21.1981 0.998236 23.3413 1.57183 25.23 2.66295C27.1187 3.75407 28.6861 5.32412 29.7742 7.21462C30.8622 9.10512 31.4324 11.2492 31.427 13.4304C31.4217 15.6117 30.8412 17.7529 29.7439 19.6381L29.7378 19.6391Z" fill="#848484" stroke="#848484"/>
<path d="M10.7395 1.68652L9.39453 5.64751L13.4945 4.83251L10.7395 1.68652Z" fill="#848484"/>
<path d="M24.5527 22.0474L27.1647 25.0274L28.4398 21.2744L24.5527 22.0474Z" fill="#848484"/>
</svg>
