<?xml version="1.0" encoding="utf-8"?>
<!-- Generator: Adobe Illustrator 25.0.0, SVG Export Plug-In . SVG Version: 6.00 Build 0)  -->
<svg version="1.1" id="Layer_1" xmlns="http://www.w3.org/2000/svg" xmlns:xlink="http://www.w3.org/1999/xlink" x="0px" y="0px"
	 viewBox="0 0 31.9 35.1" style="enable-background:new 0 0 31.9 35.1;" xml:space="preserve">
<style type="text/css">
	.st0{fill:#6F6B7D;}
</style>
<g>
	<path class="st0" d="M30,24.9c-0.1,0-0.1,0-0.2,0c-0.4-0.3-1-0.3-1.4,0c-0.6,0.4-1.2,0.8-1.8,1.2c-0.9,0.8-1.9,1.5-3,2.1
		c-0.1,0.1-0.1,0.1,0,0.2c0.1,0,0.1,0.1,0.1,0.2c0.4,0.5,0.3,1.3-0.3,1.7c-0.7,0.6-1.6,0.9-2.5,0.8c-1.3-0.2-2.5-0.4-3.8-0.6
		c-1.2-0.3-2.5-0.2-3.8,0.2c-0.1,0-0.2,0-0.3-0.1c-0.1-0.1-0.1-0.2-0.1-0.3c0.1-0.1,0.2-0.2,0.3-0.2c0.8-0.3,1.7-0.4,2.6-0.3
		c1.3,0.2,2.6,0.4,3.9,0.6c0.4,0.1,0.7,0.1,1.1,0.2c0.7,0.1,1.5-0.1,2.1-0.6c0.1-0.1,0.1-0.1,0.2-0.2c0.2-0.3,0.1-0.8-0.2-1
		c-0.3-0.2-0.5-0.3-0.8-0.4c-1.2-0.2-2.4-0.4-3.6-0.7c-1.4-0.3-2.8-0.7-4.1-1.2c-1.5-0.7-3.1-1-4.7-1c-1.6,0-3.2,0.6-4.5,1.5
		c-0.5,0.4-1.1,0.8-1.7,1.2c-0.9,0.5-1.9,0.8-2.9,1.2C0,29.5,0,29.6,0,30.2c0,0.1,0,0.2,0,0.2c0.3,1.5,0.9,2.9,1.9,4.1
		c0.2,0.2,0.4,0.4,0.6,0.5c0.2,0.1,0.4,0.2,0.6,0.1c1.4-0.6,2.7-1.1,4.1-1.7c1-0.4,2-0.5,3-0.3c1,0.2,1.9,0.4,2.8,0.7
		c1.3,0.3,2.5,0.7,3.8,0.9c1.3,0.3,2.6,0.1,3.8-0.5c1.9-1,3.8-1.9,5.7-2.8c0.8-0.3,1.4-0.9,1.9-1.5c0.9-1.1,1.7-2.2,2.6-3.3
		c0.1-0.2,0.2-0.3,0.3-0.5C31.3,25.3,30.8,24.8,30,24.9z"/>
	<path class="st0" d="M12.3,17C12.3,17,12.3,17,12.3,17v0.4c0,0.7,0.6,1.3,1.3,1.3h11c0.7,0,1.3-0.6,1.3-1.3V17
		c0-1.9-1.5-3.4-3.4-3.4c0,0,0,0,0,0h-1.5c-1.2,0.6-2.6,0.6-3.8,0h-1.5C13.8,13.6,12.3,15.1,12.3,17z"/>
	<path class="st0" d="M19,12.8c2.1,0,3.8-1.7,3.8-3.8c0-2.1-1.7-3.8-3.8-3.8c-2.1,0-3.8,1.7-3.8,3.8c0,0,0,0,0,0
		C15.2,11.1,16.9,12.8,19,12.8z"/>
	<path class="st0" d="M19,25.8C19,25.8,19,25.8,19,25.8c2.6,0,5.2-0.8,7.3-2.3l0.9,1l1.3-3.8l-3.9,0.8l0.9,1.1
		c-3.6,2.4-8.3,2.6-12.2,0.5C7.7,20,5.7,12.9,8.8,7.2L9,6.9L8.1,6L7.8,6.6c-1.1,1.9-1.7,4.1-1.7,6.4C6.1,20,11.9,25.8,19,25.8z"/>
	<path class="st0" d="M12.5,3.2c3.7-2.5,8.4-2.7,12.3-0.4c5.6,3.2,7.5,10.3,4.3,15.9L28.9,19l0.6,0.6l0.5-0.1l0.1-0.2
		c1.1-2,1.8-4.2,1.8-6.5C31.9,5.8,26.1,0,19,0c0,0,0,0,0,0c-2.6,0-5.1,0.8-7.3,2.3l-1-1.1l-1.3,4l4.1-0.8L12.5,3.2z"/>
</g>
</svg>
