<svg width="24" height="24" viewBox="0 0 24 24" fill="none" xmlns="http://www.w3.org/2000/svg">
<g clip-path="url(#clip0_2348_38657)">
<path d="M19.0282 3.14427H16.8567V2.1731C16.8567 1.85867 16.5139 1.71594 16.1994 1.71594H14.5141C14.1144 0.57306 13.1142 0.00161865 11.9713 0.00161865C10.841 -0.0410344 9.81295 0.652351 9.42853 1.71594H7.77162C7.45719 1.71594 7.14331 1.85867 7.14331 2.1731V3.14427H4.97183C3.68513 3.15794 2.63248 4.17287 2.57178 5.45848V21.8285C2.57178 23.0857 3.71466 24 4.97183 24H19.0282C20.2854 24 21.4283 23.0857 21.4283 21.8285V5.45848C21.3676 4.17342 20.3149 3.15794 19.0282 3.14427ZM8.28619 2.85883H9.85779C10.1323 2.82547 10.3521 2.61658 10.4008 2.3448C10.5698 1.60822 11.2161 1.07888 11.9719 1.0592C12.7205 1.08216 13.3575 1.61259 13.5145 2.3448C13.5659 2.62642 13.8005 2.8375 14.0859 2.85883H15.7144V5.14459H8.28619V2.85883ZM19.0282 22.8571H4.97183C4.34352 22.8571 3.71466 22.4574 3.71466 21.8285V5.45848C3.77317 4.80446 4.31508 4.29919 4.97183 4.28716H7.14331V5.74447C7.17339 6.06437 7.45063 6.30388 7.77162 6.28748H16.1994C16.5264 6.30552 16.8124 6.06929 16.8567 5.74447V4.28716H19.0282C19.6849 4.29919 20.2269 4.80446 20.2854 5.45848V21.8285C20.2854 22.4574 19.6565 22.8571 19.0282 22.8571Z" fill="white"/>
<path d="M9.80042 12.7724C9.58606 12.5465 9.23061 12.534 9.0004 12.7439L7.17178 14.4867L6.4002 13.6867C6.18584 13.4608 5.8304 13.4483 5.60018 13.6582C5.37872 13.8901 5.37872 14.2548 5.60018 14.4867L6.7715 15.6865C6.87267 15.8002 7.01922 15.8625 7.17124 15.8582C7.32216 15.856 7.46543 15.7942 7.57097 15.6865L9.79932 13.5724C10.0202 13.3695 10.035 13.0261 9.83213 12.8052C9.82284 12.7937 9.8119 12.7828 9.80042 12.7724Z" fill="white"/>
<path d="M17.9996 14.0005H11.4289C11.1133 14.0005 10.8574 14.2565 10.8574 14.572C10.8574 14.8875 11.1133 15.1434 11.4289 15.1434H17.9996C18.3151 15.1434 18.5711 14.8875 18.5711 14.572C18.5711 14.2565 18.3151 14.0005 17.9996 14.0005Z" fill="white"/>
<path d="M9.80042 8.20139C9.58606 7.97555 9.23061 7.96297 9.0004 8.17296L7.17178 9.91572L6.4002 9.1157C6.18584 8.88985 5.8304 8.87728 5.60018 9.08726C5.37872 9.31912 5.37872 9.68386 5.60018 9.91572L6.7715 11.1155C6.87267 11.2292 7.01922 11.2916 7.17124 11.2872C7.32216 11.285 7.46543 11.2232 7.57097 11.1155L9.79932 9.00141C10.0202 8.79853 10.035 8.45512 9.83213 8.2342C9.82284 8.22272 9.8119 8.21178 9.80042 8.20139Z" fill="white"/>
<path d="M17.9996 9.42957H11.4289C11.1133 9.42957 10.8574 9.68548 10.8574 10.001C10.8574 10.3165 11.1133 10.5724 11.4289 10.5724H17.9996C18.3151 10.5724 18.5711 10.3165 18.5711 10.001C18.5711 9.68548 18.3151 9.42957 17.9996 9.42957Z" fill="white"/>
<path d="M9.80042 17.3434C9.58606 17.1175 9.23061 17.1049 9.0004 17.3149L7.17178 19.0577L6.4002 18.2577C6.18584 18.0318 5.8304 18.0192 5.60018 18.2292C5.37872 18.4611 5.37872 18.8258 5.60018 19.0577L6.7715 20.2574C6.87267 20.3712 7.01922 20.4335 7.17124 20.4291C7.32216 20.427 7.46543 20.3652 7.57097 20.2574L9.79932 18.1434C10.0202 17.9405 10.035 17.5971 9.83213 17.3767C9.82284 17.3647 9.8119 17.3537 9.80042 17.3434Z" fill="white"/>
<path d="M17.9996 18.5721H11.4289C11.1133 18.5721 10.8574 18.828 10.8574 19.1435C10.8574 19.459 11.1133 19.715 11.4289 19.715H17.9996C18.3151 19.715 18.5711 19.459 18.5711 19.1435C18.5711 18.828 18.3151 18.5721 17.9996 18.5721Z" fill="white"/>
</g>
<defs>
<clipPath id="clip0_2348_38657">
<rect width="24" height="24" fill="white"/>
</clipPath>
</defs>
</svg>
