<svg width="24" height="24" viewBox="0 0 24 24" fill="none" xmlns="http://www.w3.org/2000/svg">
<g clip-path="url(#clip0_2348_38632)">
<path d="M11.9998 5.5311C8.43291 5.5311 5.53113 8.43288 5.53113 11.9998C5.53113 15.5668 8.43291 18.4685 11.9998 18.4685C15.5668 18.4685 18.4686 15.5668 18.4686 11.9998C18.4686 8.43288 15.5668 5.5311 11.9998 5.5311ZM11.9998 17.5313C8.95006 17.5313 6.46874 15.05 6.46874 12.0002C6.46874 8.95038 8.95006 6.46871 11.9998 6.46871C15.0496 6.46871 17.531 8.95003 17.531 11.9998C17.531 15.0496 15.05 17.5313 11.9998 17.5313Z" fill="white"/>
<path d="M12.7649 11.5242C12.6675 11.4897 12.568 11.4539 12.4688 11.4169V9.57583C12.722 9.6595 12.8872 9.77832 12.89 9.78078L12.8872 9.77868L13.4532 9.03126C13.4283 9.01227 13.0405 8.7247 12.4685 8.60657V8.21775C12.4685 7.959 12.2586 7.74911 11.9999 7.74911C11.7411 7.74911 11.5312 7.959 11.5312 8.21775V8.60341C11.469 8.61642 11.4061 8.63188 11.3424 8.65087C10.7279 8.83544 10.2684 9.36067 10.1436 10.0213C10.0294 10.6259 10.2241 11.2099 10.6516 11.5453C10.8749 11.7203 11.1512 11.88 11.5309 12.0487V14.4435C11.2141 14.4182 11.0099 14.3381 10.6639 14.1117C10.4474 13.97 10.1566 14.0308 10.015 14.2474C9.87328 14.4639 9.9341 14.7547 10.1507 14.8963C10.6892 15.2486 11.0577 15.3555 11.5309 15.3829V15.7819C11.5309 16.0407 11.7408 16.2506 11.9995 16.2506C12.2583 16.2506 12.4681 16.0407 12.4681 15.7819V15.3302C12.8063 15.2483 13.114 15.0851 13.3741 14.8461C13.7204 14.5279 13.9542 14.0969 14.0322 13.6325C14.1926 12.6805 13.6951 11.8529 12.7649 11.5242ZM11.2307 10.8077C11.0819 10.691 11.0169 10.4509 11.0651 10.1953C11.1076 9.96922 11.2524 9.69993 11.5312 9.57899V11.0035C11.4187 10.9406 11.3168 10.8755 11.2307 10.8077ZM13.108 13.4771C13.0517 13.8111 12.8348 14.164 12.4685 14.3402V12.4143C13.1829 12.6762 13.1389 13.2932 13.108 13.4771Z" fill="white"/>
<path d="M2.99987 11.9998C2.99987 7.03719 7.03719 2.99987 11.9998 2.99987C14.1974 2.99987 16.2829 3.78666 17.924 5.2249L17.5636 5.58525C17.4413 5.70759 17.3963 5.88759 17.4466 6.05317C17.4968 6.21876 17.6343 6.34321 17.8041 6.37661L21.3805 7.0829C21.5342 7.11313 21.6924 7.06497 21.8027 6.95458C21.9131 6.84419 21.9613 6.68563 21.9311 6.53235L21.2258 2.95557C21.1924 2.78577 21.068 2.64831 20.9024 2.59803C20.7368 2.54776 20.5568 2.59276 20.4345 2.7151L20.0492 3.10041C17.8389 1.09757 14.9986 0 11.9998 0C9.54909 0 7.1975 0.729489 5.19923 2.10901C4.98619 2.25597 4.93275 2.54811 5.0797 2.76116C5.22665 2.9742 5.5188 3.02764 5.73185 2.88069C7.57262 1.60945 9.73999 0.937613 11.9998 0.937613C14.9069 0.937613 17.6526 2.05663 19.7313 4.08865C19.9149 4.2683 20.2088 4.26654 20.3905 4.08478L20.4763 3.999L20.8767 6.02751L18.8482 5.62708L18.9323 5.54306C19.0208 5.45447 19.0704 5.33388 19.0697 5.20837C19.069 5.08287 19.0177 4.96298 18.9277 4.87544C17.0627 3.06104 14.6024 2.0619 12.0002 2.0619C6.67755 2.06261 2.31925 6.26868 2.07351 11.5312H0.947105C1.03359 9.44116 1.69734 7.44535 2.88034 5.7322C3.02729 5.51915 2.97385 5.22736 2.76081 5.08005C2.54776 4.9331 2.25597 4.98654 2.10866 5.19958C0.729489 7.1975 0 9.54909 0 11.9998C0 12.2586 0.209882 12.4685 0.468631 12.4685H2.53124C2.78999 12.4688 2.99987 12.2589 2.99987 11.9998Z" fill="white"/>
<path d="M23.531 11.5312H21.4684C21.2096 11.5312 20.9997 11.7411 20.9997 11.9998C20.9997 16.9625 16.9624 20.9998 11.9998 20.9998C9.80218 20.9998 7.71637 20.213 6.07528 18.7747L6.43563 18.4144C6.55797 18.2921 6.60297 18.1121 6.5527 17.9465C6.50243 17.7809 6.36497 17.6564 6.19516 17.623L2.61873 16.9167C2.46545 16.8865 2.3069 16.9347 2.19651 17.0451C2.08612 17.1555 2.03796 17.314 2.06819 17.4673L2.77412 21.0441C2.80752 21.2139 2.93198 21.3513 3.09756 21.4016C3.26315 21.4519 3.44314 21.4069 3.56549 21.2845L3.9508 20.8992C6.16106 22.9021 9.00132 23.9996 12.0001 23.9996C15.2053 23.9996 18.2189 22.7516 20.4854 20.4851C22.7519 18.2186 24 15.205 24 11.9998C24 11.7411 23.7901 11.5312 23.531 11.5312ZM19.8224 19.8224C17.7327 21.9117 14.9547 23.0624 11.9998 23.0624C9.09273 23.0624 6.34704 21.9434 4.26826 19.9113C4.1772 19.8224 4.05873 19.7778 3.9406 19.7778C3.82072 19.7778 3.70049 19.8235 3.60908 19.9152L3.5233 20.001L3.12287 17.9725L5.15138 18.3729L5.06736 18.4569C4.97876 18.5455 4.92919 18.6661 4.93025 18.7916C4.93095 18.9171 4.98228 19.037 5.07228 19.1245C6.93731 20.9383 9.39753 21.9374 11.9998 21.9374C17.3221 21.9374 21.6807 17.7313 21.9265 12.4688H23.0529C22.9375 15.2475 21.8009 17.8435 19.8224 19.8224Z" fill="white"/>
<path d="M3.38658 3.93783C3.39256 3.96771 3.4017 3.99724 3.4133 4.02537C3.4249 4.05384 3.43967 4.08091 3.45654 4.10623C3.46498 4.11923 3.47412 4.13154 3.48361 4.14349C3.49346 4.15509 3.504 4.1667 3.51455 4.17759C3.52545 4.18849 3.53705 4.19869 3.549 4.20853C3.5606 4.21837 3.57326 4.22752 3.58592 4.23595C3.61123 4.25283 3.63865 4.26724 3.66678 4.27884C3.69525 4.2908 3.72478 4.29959 3.75467 4.30591C3.76943 4.30873 3.7849 4.31119 3.80002 4.31259C3.81549 4.314 3.83095 4.31505 3.84607 4.31505C3.86154 4.31505 3.87701 4.314 3.89213 4.31259C3.9076 4.31119 3.92271 4.30873 3.93783 4.30591C3.96771 4.29959 3.99724 4.2908 4.02537 4.27884C4.05384 4.26724 4.08091 4.25283 4.10623 4.23595C4.11923 4.22752 4.13154 4.21837 4.14349 4.20853C4.15509 4.19869 4.1667 4.18849 4.17759 4.17759C4.18849 4.1667 4.19869 4.15509 4.20853 4.14349C4.21837 4.13154 4.22752 4.11923 4.23595 4.10623C4.25283 4.08091 4.26724 4.05384 4.27884 4.02537C4.2908 3.99724 4.29959 3.96771 4.30591 3.93783C4.30873 3.92271 4.31119 3.9076 4.31259 3.89213C4.314 3.87701 4.31505 3.86154 4.31505 3.84607C4.31505 3.83095 4.314 3.81549 4.31259 3.80002C4.31119 3.7849 4.30873 3.76943 4.30591 3.75467C4.29959 3.72478 4.2908 3.69525 4.27884 3.66678C4.26724 3.63865 4.25283 3.61123 4.23595 3.58592C4.22752 3.57326 4.21837 3.5606 4.20853 3.549C4.19869 3.53705 4.18849 3.52545 4.17759 3.51455C4.1667 3.504 4.15509 3.49346 4.14349 3.48361C4.13154 3.47412 4.11923 3.46498 4.10623 3.45654C4.08091 3.43967 4.05384 3.4249 4.02537 3.4133C3.99724 3.4017 3.96771 3.39256 3.93783 3.38658C3.92271 3.38342 3.9076 3.38131 3.89213 3.37955C3.86154 3.37674 3.8306 3.37674 3.80002 3.37955C3.7849 3.38131 3.76943 3.38342 3.75467 3.38658C3.72478 3.39256 3.69525 3.4017 3.66678 3.4133C3.63865 3.4249 3.61123 3.43967 3.58592 3.45654C3.57326 3.46498 3.5606 3.47412 3.549 3.48361C3.53705 3.49346 3.52545 3.504 3.51455 3.51455C3.504 3.52545 3.49346 3.53705 3.48361 3.549C3.47412 3.5606 3.46498 3.57326 3.45654 3.58592C3.43967 3.61123 3.4249 3.63865 3.4133 3.66678C3.4017 3.69525 3.39256 3.72478 3.38658 3.75467C3.38342 3.76943 3.38131 3.7849 3.37955 3.80002C3.37814 3.81549 3.37744 3.83095 3.37744 3.84607C3.37744 3.86154 3.37814 3.87701 3.37955 3.89213C3.38131 3.9076 3.38342 3.92271 3.38658 3.93783Z" fill="white"/>
</g>
<defs>
<clipPath id="clip0_2348_38632">
<rect width="24" height="24" fill="white"/>
</clipPath>
</defs>
</svg>
