<svg width="24" height="24" viewBox="0 0 24 24" fill="none" xmlns="http://www.w3.org/2000/svg">
<path fill-rule="evenodd" clip-rule="evenodd" d="M18.2 5.00002H15.9V4.70002C15.7 3.40002 14.6 2.40002 13.3 2.40002H10.7C9.40005 2.40002 8.30005 3.40002 8.10005 4.70002L8.00005 5.00002H5.80005C3.90005 5.00002 2.30005 6.60002 2.30005 8.50002V12C2.30005 12.2 2.40005 12.3 2.50005 12.4C5.20005 13.9 8.20005 14.7 11.2 14.7H11.5V16.8C11.5 17 11.7 17.3 12 17.3C12.3 17.3 12.5 17.1 12.5 16.8V14.7H12.8C15.8 14.6 18.9 13.8 21.5 12.3C21.6 12.2 21.7001 12.1 21.7001 11.9V8.50002C21.7001 6.60002 20.1 5.00002 18.2 5.00002ZM9.00005 4.60002C9.20005 3.80002 9.90005 3.30002 10.7 3.30002H13.3C14.1 3.30002 14.8 3.80002 15 4.60002L15.1 5.00002H8.90005L9.00005 4.60002ZM20.8 11.7L20.6 11.8C18.0001 13.1 15.1 13.8 12.2 13.8H11.7C8.80005 13.8 5.90005 13.1 3.30005 11.8L3.10005 11.7V8.50002C3.10005 7.10002 4.30005 5.90002 5.70005 5.90002H18.1C19.5 5.90002 20.7001 7.10002 20.7001 8.50002V11.7H20.8Z" fill="white"/>
<path fill-rule="evenodd" clip-rule="evenodd" d="M21.7001 15.7L21.5 18.2C21.3 20.1 19.7 21.6 17.8 21.6H6.20005C4.30005 21.6 2.70005 20.1 2.50005 18.2L2.30005 15.7C2.30005 15.6 2.30005 15.5 2.40005 15.4C2.50005 15.3 2.60005 15.2 2.70005 15.2C2.80005 15.2 2.90005 15.2 3.00005 15.3C3.10005 15.4 3.10005 15.5 3.10005 15.6L3.30005 18.1C3.40005 19.5 4.60005 20.7 6.10005 20.7H17.7C19.2 20.7 20.4 19.6 20.5 18.1L20.7001 15.6C20.7001 15.4 20.9001 15.2 21.2001 15.2C21.3001 15.2 21.4 15.3 21.5 15.4C21.7 15.4 21.7001 15.5 21.7001 15.7Z" fill="white"/>
</svg>
