<svg width="1521" height="827" viewBox="0 0 1521 827" fill="none" xmlns="http://www.w3.org/2000/svg">
<g clip-path="url(#clip0_77_2)">
<rect width="1521" height="827" fill="white"/>
<path d="M1620.93 -228.859H-98.0381V917.117H1620.93V-228.859Z" fill="url(#paint0_linear_77_2)"/>
<path d="M1620.93 -228.859H-98.0381V917.117H1620.93V-228.859Z" fill="url(#paint1_linear_77_2)"/>
<path d="M1648.2 1182.52H1077.73L817.138 387.446L1648.2 1182.52Z" fill="url(#paint2_linear_77_2)"/>
<path d="M-126 1094.97H444.467L705.062 299.665L-126 1094.97Z" fill="url(#paint3_linear_77_2)"/>
<path d="M1433.21 -228.859L817.138 387.447L1191.18 766.077L1040.15 917.117H1620.93V-228.859H1433.21Z" fill="url(#paint4_linear_77_2)"/>
<path d="M1622.07 -99.5933L1051.15 471.332L1622.07 1042.26V-99.5933Z" fill="url(#paint5_linear_77_2)"/>
<path d="M1622.07 119.517L1270.49 471.332L1622.07 822.917V119.517Z" fill="url(#paint6_linear_77_2)"/>
<path d="M90.5893 917.117L706.895 300.811L332.619 -77.8197L483.659 -228.859H-96.8923V917.117H90.5893Z" fill="url(#paint7_linear_77_2)"/>
<path d="M-98.0381 787.85L472.887 216.925L-98.0381 -354V787.85Z" fill="url(#paint8_linear_77_2)"/>
<path d="M-98.0381 568.74L253.547 216.926L-98.0381 -134.66V568.74Z" fill="url(#paint9_linear_77_2)"/>
</g>
<defs>
<linearGradient id="paint0_linear_77_2" x1="-98.0381" y1="344.129" x2="1620.93" y2="344.129" gradientUnits="userSpaceOnUse">
<stop stop-color="white"/>
<stop offset="1" stop-color="#FAFAFA"/>
</linearGradient>
<linearGradient id="paint1_linear_77_2" x1="761.444" y1="1073.14" x2="761.444" y2="171.339" gradientUnits="userSpaceOnUse">
<stop stop-color="#F5F5F5"/>
<stop offset="0.5552" stop-color="#FEFEFE"/>
<stop offset="0.5898" stop-color="white"/>
<stop offset="1" stop-color="white"/>
</linearGradient>
<linearGradient id="paint2_linear_77_2" x1="1069.93" y1="894.865" x2="1294.67" y2="743.052" gradientUnits="userSpaceOnUse">
<stop stop-color="#FAFAFA" stop-opacity="0"/>
<stop offset="0.0696374" stop-color="#F8F8F8" stop-opacity="0.0696374"/>
<stop offset="0.5275" stop-color="#ECECEC" stop-opacity="0.5275"/>
<stop offset="1" stop-color="#E8E8E8"/>
</linearGradient>
<linearGradient id="paint3_linear_77_2" x1="452.208" y1="807.209" x2="227.472" y2="655.395" gradientUnits="userSpaceOnUse">
<stop stop-color="#FAFAFA" stop-opacity="0"/>
<stop offset="0.0696374" stop-color="#F8F8F8" stop-opacity="0.0696374"/>
<stop offset="0.5275" stop-color="#ECECEC" stop-opacity="0.5275"/>
<stop offset="1" stop-color="#E8E8E8"/>
</linearGradient>
<linearGradient id="paint4_linear_77_2" x1="1553.22" y1="566.786" x2="776.269" y2="-210.162" gradientUnits="userSpaceOnUse">
<stop stop-color="#F5F5F5"/>
<stop offset="0.5552" stop-color="#FEFEFE"/>
<stop offset="0.5898" stop-color="white"/>
<stop offset="1" stop-color="white"/>
</linearGradient>
<linearGradient id="paint5_linear_77_2" x1="1754.53" y1="603.733" x2="1188.65" y2="37.8532" gradientUnits="userSpaceOnUse">
<stop stop-color="#F5F5F5"/>
<stop offset="0.5552" stop-color="#FEFEFE"/>
<stop offset="0.5898" stop-color="white"/>
<stop offset="1" stop-color="white"/>
</linearGradient>
<linearGradient id="paint6_linear_77_2" x1="1707.59" y1="556.794" x2="1321.88" y2="171.082" gradientUnits="userSpaceOnUse">
<stop stop-color="#F5F5F5"/>
<stop offset="0.5552" stop-color="#FEFEFE"/>
<stop offset="0.5898" stop-color="white"/>
<stop offset="1" stop-color="white"/>
</linearGradient>
<linearGradient id="paint7_linear_77_2" x1="-27.2456" y1="123.493" x2="615.831" y2="766.57" gradientUnits="userSpaceOnUse">
<stop stop-color="#F5F5F5"/>
<stop offset="0.5552" stop-color="#FEFEFE"/>
<stop offset="0.5898" stop-color="white"/>
<stop offset="1" stop-color="white"/>
</linearGradient>
<linearGradient id="paint8_linear_77_2" x1="-272.723" y1="42.3842" x2="190.578" y2="505.685" gradientUnits="userSpaceOnUse">
<stop stop-color="#F5F5F5"/>
<stop offset="0.5552" stop-color="#FEFEFE"/>
<stop offset="0.5898" stop-color="white"/>
<stop offset="1" stop-color="white"/>
</linearGradient>
<linearGradient id="paint9_linear_77_2" x1="-183.644" y1="131.464" x2="202.067" y2="517.175" gradientUnits="userSpaceOnUse">
<stop stop-color="#F5F5F5"/>
<stop offset="0.5552" stop-color="#FEFEFE"/>
<stop offset="0.5898" stop-color="white"/>
<stop offset="1" stop-color="white"/>
</linearGradient>
<clipPath id="clip0_77_2">
<rect width="1521" height="827" fill="white"/>
</clipPath>
</defs>
</svg>
