<svg width="310" height="310" viewBox="0 0 310 310" fill="none" xmlns="http://www.w3.org/2000/svg">
<path d="M155 310C240.604 310 310 240.604 310 155C310 69.3959 240.604 0 155 0C69.3959 0 0 69.3959 0 155C0 240.604 69.3959 310 155 310Z" fill="#E2F7FF"/>
<path d="M248.661 302.53H234.651C234.448 302.53 234.279 302.36 234.279 302.157V298.312C232.483 297.973 230.687 297.482 228.943 296.889L227.028 300.209C226.977 300.294 226.893 300.362 226.808 300.379C226.706 300.412 226.605 300.395 226.52 300.345L214.391 293.348C214.205 293.247 214.154 293.01 214.256 292.84L216.17 289.52C214.781 288.317 213.476 287.013 212.274 285.624L208.953 287.538C208.869 287.589 208.767 287.606 208.665 287.572C208.564 287.538 208.496 287.487 208.445 287.403L201.449 275.274C201.347 275.087 201.415 274.867 201.585 274.765L204.905 272.851C204.312 271.106 203.821 269.328 203.482 267.515H199.653C199.45 267.515 199.281 267.346 199.281 267.142V253.133C199.281 252.93 199.45 252.761 199.653 252.761H203.482C203.821 250.965 204.312 249.169 204.905 247.424L201.585 245.51C201.5 245.459 201.432 245.375 201.415 245.29C201.381 245.188 201.398 245.087 201.449 245.002L208.445 232.873C208.496 232.788 208.581 232.721 208.665 232.704C208.767 232.687 208.869 232.687 208.953 232.738L212.274 234.652C213.476 233.263 214.781 231.958 216.17 230.756L214.256 227.435C214.154 227.249 214.222 227.029 214.391 226.927L226.52 219.931C226.605 219.88 226.706 219.863 226.808 219.897C226.91 219.931 226.977 219.982 227.028 220.067L228.943 223.387C230.687 222.794 232.466 222.303 234.279 221.964V218.135C234.279 217.932 234.448 217.763 234.651 217.763H248.661C248.864 217.763 249.033 217.932 249.033 218.135V221.964C250.829 222.303 252.624 222.794 254.369 223.387L256.283 220.067C256.385 219.88 256.622 219.829 256.792 219.931L268.921 226.927C269.107 227.029 269.158 227.266 269.056 227.435L267.142 230.756C268.531 231.958 269.835 233.263 271.038 234.652L274.358 232.738C274.443 232.687 274.545 232.67 274.646 232.704C274.748 232.738 274.816 232.788 274.867 232.873L281.863 245.002C281.914 245.087 281.93 245.188 281.897 245.29C281.863 245.392 281.812 245.459 281.727 245.51L278.407 247.424C279 249.169 279.491 250.948 279.83 252.761H283.658C283.862 252.761 284.031 252.93 284.031 253.133V267.142C284.031 267.346 283.862 267.515 283.658 267.515H279.847C279.508 269.311 279.017 271.106 278.424 272.851L281.744 274.765C281.93 274.867 281.981 275.104 281.88 275.274L274.883 287.403C274.833 287.487 274.748 287.555 274.663 287.572C274.562 287.589 274.46 287.589 274.375 287.538L271.038 285.607C269.835 286.996 268.531 288.3 267.142 289.503L269.056 292.823C269.158 293.01 269.09 293.23 268.921 293.332L256.792 300.328C256.605 300.429 256.385 300.362 256.283 300.192L254.369 296.872C252.624 297.465 250.846 297.956 249.033 298.295V302.123C249.033 302.361 248.864 302.53 248.661 302.53ZM235.041 301.768H248.305V298.007C248.305 297.821 248.44 297.668 248.61 297.634C250.575 297.279 252.54 296.753 254.42 296.076C254.59 296.008 254.776 296.093 254.861 296.245L256.741 299.498L268.226 292.874L266.346 289.605C266.261 289.452 266.295 289.249 266.43 289.13C267.955 287.826 269.378 286.403 270.682 284.879C270.801 284.743 271.004 284.709 271.157 284.794L274.426 286.674L281.05 275.189L277.797 273.309C277.645 273.224 277.577 273.038 277.628 272.868C278.305 270.971 278.814 269.023 279.186 267.058C279.22 266.888 279.373 266.753 279.559 266.753H283.32V253.489H279.559C279.373 253.489 279.22 253.353 279.186 253.184C278.83 251.219 278.305 249.254 277.628 247.374C277.56 247.204 277.645 247.018 277.797 246.933L281.05 245.053L274.426 233.568L271.157 235.448C271.004 235.533 270.801 235.499 270.682 235.363C269.378 233.839 267.955 232.416 266.43 231.111C266.295 230.993 266.261 230.789 266.346 230.637L268.226 227.368L256.741 220.744L254.861 223.997C254.776 224.149 254.59 224.217 254.42 224.166C252.523 223.488 250.575 222.98 248.61 222.607C248.44 222.574 248.305 222.421 248.305 222.235V218.474H235.041V222.235C235.041 222.421 234.905 222.574 234.736 222.607C232.771 222.963 230.806 223.488 228.926 224.166C228.756 224.234 228.57 224.149 228.485 223.997L226.605 220.744L215.12 227.368L217 230.637C217.085 230.789 217.051 230.993 216.915 231.111C215.391 232.416 213.968 233.839 212.663 235.363C212.545 235.499 212.341 235.533 212.189 235.448L208.92 233.568L202.296 245.053L205.549 246.933C205.701 247.018 205.769 247.204 205.718 247.374C205.04 249.271 204.532 251.219 204.159 253.184C204.126 253.353 203.973 253.489 203.787 253.489H200.026V266.753H203.787C203.973 266.753 204.126 266.888 204.159 267.058C204.515 269.023 205.04 270.988 205.718 272.868C205.786 273.038 205.701 273.224 205.549 273.309L202.296 275.189L208.92 286.674L212.189 284.794C212.341 284.709 212.545 284.743 212.663 284.879C213.968 286.403 215.391 287.826 216.915 289.13C217.051 289.249 217.085 289.452 217 289.605L215.12 292.874L226.605 299.498L228.485 296.245C228.57 296.093 228.756 296.025 228.926 296.076C230.823 296.753 232.771 297.262 234.736 297.634C234.905 297.668 235.041 297.821 235.041 298.007V301.768ZM241.647 283.422C235.43 283.422 229.603 281.016 225.199 276.595C220.608 272.004 218.186 265.872 218.389 259.367C218.779 247.136 228.671 237.244 240.902 236.854C247.407 236.651 253.522 239.056 258.13 243.664C262.721 248.255 265.143 254.387 264.94 260.892C264.55 273.122 254.657 283.015 242.427 283.405C242.173 283.422 241.902 283.422 241.647 283.422ZM241.664 237.599C241.41 237.599 241.173 237.599 240.919 237.616C229.078 237.989 219.507 247.56 219.134 259.401C218.931 265.703 221.269 271.632 225.724 276.07C230.179 280.525 236.091 282.846 242.393 282.659C254.234 282.287 263.805 272.716 264.177 260.875C264.381 254.573 262.043 248.644 257.588 244.206C253.319 239.937 247.695 237.599 241.664 237.599Z" fill="#C2EEFF"/>
<path d="M241.665 291.146C224.572 291.146 210.665 277.239 210.665 260.146C210.665 252.676 213.358 245.459 218.254 239.818C223.098 234.245 229.773 230.569 237.023 229.485C237.226 229.451 237.413 229.587 237.447 229.807C237.48 230.01 237.345 230.197 237.125 230.231C222.455 232.433 211.393 245.29 211.393 260.146C211.393 276.832 224.962 290.401 241.648 290.401C255.437 290.401 267.481 281.101 270.937 267.769C270.988 267.566 271.191 267.447 271.394 267.498C271.597 267.549 271.716 267.752 271.665 267.956C268.125 281.609 255.792 291.146 241.665 291.146Z" fill="#EEFAFF"/>
<path d="M247.61 167.366C247.424 167.366 247.272 167.231 247.238 167.044C244.985 152.442 239.428 138.348 231.162 126.27C224.301 116.258 215.73 107.687 205.667 100.775C205.498 100.657 205.447 100.42 205.566 100.25C205.684 100.081 205.921 100.03 206.091 100.149C216.238 107.111 224.877 115.75 231.772 125.829C240.106 137.992 245.713 152.205 247.983 166.926C248.017 167.129 247.881 167.315 247.678 167.349C247.661 167.366 247.627 167.366 247.61 167.366Z" fill="#94CFEA"/>
<path d="M253.302 168.45C253.268 168.45 253.218 168.45 253.184 168.433C252.98 168.366 252.879 168.162 252.947 167.959C256.707 157.016 258.384 145.039 257.825 133.317C257.351 123.61 255.403 114.175 252.032 105.281C251.964 105.095 252.049 104.875 252.252 104.807C252.438 104.739 252.659 104.824 252.726 105.027C256.131 114.006 258.096 123.509 258.554 133.3C259.13 145.107 257.419 157.185 253.641 168.213C253.607 168.349 253.472 168.45 253.302 168.45Z" fill="#94CFEA"/>
<path d="M229.229 186.218H275.289V152.44H229.229V186.218Z" fill="#C2EEFF"/>
<path d="M185.034 116.258L213.256 111.142L175.717 99.8602C168.738 84.1908 166.417 69.3853 166.417 69.3853C166.417 69.3853 173.126 68.9957 182.748 69.9782L199.857 98.7421L198.281 72.5192C206.243 74.3656 214.713 77.2624 222.472 81.7684C223.556 82.3951 224.606 83.0558 225.605 83.7334L229.146 123.39L239.462 98.2678C246.103 109.719 245.611 122.187 239.699 129.403C230.62 140.482 207.293 141.16 189.574 121.899C187.982 120.103 186.457 118.223 185.034 116.258Z" fill="#AADFF6"/>
<path d="M182.748 69.9614C187.389 70.4357 192.708 71.215 198.298 72.5193L199.874 98.7423L182.748 69.9614Z" fill="#94CFEA"/>
<path d="M225.639 83.7163C231.873 87.9343 236.447 92.9824 239.496 98.2507L229.18 123.373L225.639 83.7163Z" fill="#94CFEA"/>
<path d="M185.034 116.258C181.274 111.091 178.207 105.416 175.717 99.8433L213.256 111.125L185.034 116.258Z" fill="#94CFEA"/>
<path d="M239.022 139.499C238.886 139.499 238.751 139.415 238.683 139.279C236.515 134.756 233.991 130.386 231.162 126.252C224.301 116.241 215.73 107.669 205.667 100.758C205.498 100.639 205.447 100.402 205.566 100.233C205.684 100.063 205.921 100.012 206.091 100.131C216.238 107.093 224.877 115.733 231.772 125.812C234.618 129.962 237.175 134.383 239.344 138.94C239.428 139.127 239.361 139.347 239.174 139.432C239.124 139.482 239.073 139.499 239.022 139.499Z" fill="#94CFEA"/>
<path d="M235.007 107.348L252.93 115.513L235.346 92.2202C236.769 78.5667 240.547 67.4541 240.547 67.4541C240.547 67.4541 244.511 69.9612 249.694 74.6197L249.559 101.452L257.724 82.8016C261.637 87.3754 265.499 92.8639 268.379 99.1656C268.785 100.046 269.158 100.944 269.497 101.825L257.825 130.504L272.411 117.528C272.258 128.133 267.667 136.501 261.789 139.008C252.76 142.854 239.175 133.655 235.702 113.107C235.38 111.21 235.143 109.279 235.007 107.348Z" fill="#94CFEA"/>
<path d="M249.694 74.6196C252.184 76.8557 254.962 79.6 257.707 82.8016L249.542 101.452L249.694 74.6196Z" fill="#AADFF6"/>
<path d="M269.497 101.825C271.614 107.297 272.478 112.667 272.41 117.528L257.825 130.504L269.497 101.825Z" fill="#AADFF6"/>
<path d="M235.007 107.348C234.635 102.249 234.838 97.0821 235.346 92.2373L252.93 115.53L235.007 107.348Z" fill="#AADFF6"/>
<path d="M258.113 144.531C258.113 144.531 258.096 144.531 258.079 144.531C257.876 144.514 257.724 144.345 257.724 144.141C257.961 140.55 257.995 136.925 257.825 133.334C257.351 123.627 255.403 114.192 252.032 105.298C251.964 105.112 252.049 104.892 252.252 104.824C252.438 104.756 252.659 104.841 252.726 105.044C256.131 114.022 258.096 123.525 258.554 133.317C258.723 136.942 258.689 140.601 258.452 144.209C258.469 144.378 258.3 144.531 258.113 144.531Z" fill="#94CFEA"/>
<path d="M99.3695 188.558H94.9482C94.5586 186.407 93.9826 184.323 93.2712 182.29L97.0826 180.088L89.6122 167.146L85.7837 169.348C84.3777 167.705 82.8531 166.163 81.21 164.774L83.4122 160.946L70.4701 153.475L68.2679 157.287C66.252 156.575 64.1515 155.999 62.0001 155.61V151.188H47.093V155.61C44.9417 155.999 42.8581 156.575 40.8253 157.287L38.6231 153.475L25.681 160.946L27.8832 164.774C26.24 166.18 24.6985 167.705 23.3094 169.348L19.481 167.146L12.0105 180.088L15.822 182.29C15.1105 184.306 14.5346 186.407 14.1449 188.558H9.72363V203.499H14.1449C14.5346 205.65 15.1105 207.734 15.822 209.767L12.0105 211.969L19.481 224.911L23.3094 222.709C24.7154 224.352 26.24 225.893 27.8832 227.282L25.681 231.111L38.6231 238.581L40.8253 234.77C42.8411 235.481 44.9417 236.057 47.093 236.447V240.868H62.034V236.447C64.1854 236.057 66.269 235.481 68.3018 234.77L70.504 238.581L83.446 231.111L81.2438 227.282C82.887 225.876 84.4285 224.352 85.8176 222.709L89.646 224.911L97.1165 211.969L93.3051 209.767C94.0165 207.751 94.5925 205.65 94.9821 203.499H99.4034V188.558H99.3695ZM78.9739 196.825C78.5674 209.614 68.1493 220.032 55.3597 220.439C41.2318 220.896 29.6788 209.343 30.1362 195.215C30.5428 182.426 40.9608 172.008 53.7504 171.601C67.8783 171.161 79.4313 182.697 78.9739 196.825Z" fill="white"/>
<path d="M212.037 39.8086H92.7798V264.787H212.037V39.8086Z" fill="white"/>
<path d="M207.632 278.441H96.3543C89.1717 278.441 83.3105 272.597 83.3105 265.397V37.0476C83.3105 29.8651 89.1548 24.0039 96.3543 24.0039H207.615C214.798 24.0039 220.659 29.8482 220.659 37.0476V265.414C220.659 272.597 214.815 278.441 207.632 278.441ZM96.3543 24.7493C89.5783 24.7493 84.0728 30.2547 84.0728 37.0307V265.397C84.0728 272.173 89.5783 277.679 96.3543 277.679H207.615C214.391 277.679 219.897 272.173 219.897 265.397V37.0476C219.897 30.2717 214.391 24.7662 207.615 24.7662H96.3543V24.7493Z" fill="#363E44"/>
<path d="M168.84 33.05H135.977C135.773 33.05 135.604 32.8806 135.604 32.6774C135.604 32.4741 135.773 32.3047 135.977 32.3047H168.84C169.043 32.3047 169.213 32.4741 169.213 32.6774C169.213 32.8806 169.043 33.05 168.84 33.05Z" fill="#363E44"/>
<path d="M152.29 123.052C135.384 123.052 121.646 109.297 121.646 92.4074C121.646 75.5014 135.401 61.7632 152.29 61.7632C169.179 61.7632 182.934 75.5184 182.934 92.4074C182.934 109.313 169.196 123.052 152.29 123.052ZM152.29 62.5085C135.807 62.5085 122.391 75.9249 122.391 92.4074C122.391 108.89 135.807 122.306 152.29 122.306C168.772 122.306 182.189 108.89 182.189 92.4074C182.189 75.9249 168.772 62.5085 152.29 62.5085Z" fill="#C2EEFF"/>
<path d="M152.29 92.6108C142.668 92.6108 136.417 96.3037 136.417 102.199C139.415 107.908 145.395 111.787 152.29 111.787C159.184 111.787 165.164 107.891 168.162 102.199C168.179 96.5917 161.302 92.6108 152.29 92.6108Z" fill="#C2EEFF"/>
<path d="M152.29 88.0031C156.809 88.0031 160.472 84.3399 160.472 79.8211C160.472 75.3023 156.809 71.6392 152.29 71.6392C147.771 71.6392 144.108 75.3023 144.108 79.8211C144.108 84.3399 147.771 88.0031 152.29 88.0031Z" fill="#C2EEFF"/>
<path d="M186.627 162.386L117.411 162.606C111.837 162.623 107.314 158.117 107.297 152.561C107.28 146.988 111.786 142.465 117.343 142.448L186.559 142.228C192.132 142.211 196.655 146.717 196.672 152.273C196.689 157.846 192.2 162.369 186.627 162.386Z" fill="#1f527d"/>
<path d="M186.627 202.11L117.411 202.33C111.837 202.347 107.314 197.841 107.297 192.285C107.28 186.712 111.786 182.189 117.343 182.172L186.559 181.952C192.132 181.935 196.655 186.441 196.672 191.997C196.689 197.57 192.2 202.093 186.627 202.11Z" fill="#1f527d"/>
<path d="M125.113 155.498C126.679 155.128 127.648 153.559 127.279 151.993C126.909 150.427 125.34 149.457 123.774 149.827C122.208 150.196 121.238 151.766 121.608 153.332C121.977 154.898 123.547 155.867 125.113 155.498Z" fill="white"/>
<path d="M136.174 155.497C137.74 155.127 138.71 153.558 138.34 151.992C137.97 150.426 136.401 149.456 134.835 149.826C133.269 150.196 132.299 151.765 132.669 153.331C133.038 154.897 134.608 155.867 136.174 155.497Z" fill="white"/>
<path d="M146.879 155.497C148.445 155.127 149.415 153.558 149.045 151.992C148.676 150.426 147.106 149.456 145.54 149.826C143.974 150.195 143.004 151.765 143.374 153.331C143.744 154.897 145.313 155.867 146.879 155.497Z" fill="white"/>
<path d="M159.335 154.743C160.472 153.606 160.472 151.761 159.335 150.623C158.197 149.485 156.352 149.485 155.214 150.623C154.076 151.761 154.076 153.606 155.214 154.743C156.352 155.881 158.197 155.881 159.335 154.743Z" fill="white"/>
<path d="M169.086 155.492C170.652 155.123 171.622 153.553 171.252 151.987C170.883 150.421 169.313 149.451 167.747 149.821C166.181 150.191 165.211 151.76 165.581 153.326C165.951 154.892 167.52 155.862 169.086 155.492Z" fill="white"/>
<path d="M181.538 154.733C182.676 153.595 182.676 151.75 181.538 150.612C180.4 149.474 178.555 149.474 177.417 150.612C176.279 151.75 176.279 153.595 177.417 154.733C178.555 155.87 180.4 155.87 181.538 154.733Z" fill="white"/>
<path d="M173.21 223.505H135.519C131.403 223.505 128.083 226.843 128.083 230.942C128.083 235.058 131.42 238.379 135.519 238.379H173.21C177.327 238.379 180.647 235.041 180.647 230.942C180.647 226.826 177.327 223.505 173.21 223.505Z" fill="#B7EBFF"/>
<path d="M125.112 195.779C126.678 195.41 127.648 193.84 127.278 192.274C126.908 190.708 125.339 189.738 123.773 190.108C122.207 190.478 121.237 192.047 121.607 193.613C121.977 195.179 123.546 196.149 125.112 195.779Z" fill="white"/>
<path d="M136.173 195.779C137.739 195.409 138.709 193.84 138.339 192.274C137.969 190.708 136.4 189.738 134.834 190.108C133.268 190.478 132.298 192.047 132.668 193.613C133.038 195.179 134.607 196.149 136.173 195.779Z" fill="white"/>
<path d="M146.879 195.778C148.445 195.409 149.415 193.839 149.045 192.273C148.675 190.707 147.106 189.738 145.54 190.107C143.974 190.477 143.004 192.046 143.374 193.612C143.743 195.178 145.313 196.148 146.879 195.778Z" fill="white"/>
<path d="M159.327 195.029C160.465 193.892 160.465 192.047 159.327 190.909C158.189 189.771 156.344 189.771 155.206 190.909C154.068 192.047 154.068 193.892 155.206 195.029C156.344 196.167 158.189 196.167 159.327 195.029Z" fill="white"/>
<path d="M169.086 195.774C170.652 195.404 171.622 193.835 171.252 192.269C170.882 190.703 169.313 189.733 167.747 190.103C166.181 190.473 165.211 192.042 165.581 193.608C165.95 195.174 167.52 196.144 169.086 195.774Z" fill="white"/>
<path d="M181.53 195.019C182.668 193.881 182.668 192.036 181.53 190.898C180.392 189.76 178.548 189.76 177.41 190.898C176.272 192.036 176.272 193.881 177.41 195.019C178.548 196.157 180.393 196.157 181.53 195.019Z" fill="white"/>
<path d="M10.689 53.936V79.8879C10.689 98.2677 25.5961 113.175 43.9758 113.175C62.3556 113.175 77.2627 98.2677 77.2627 79.8879V53.936H10.689Z" fill="#B2E9FF"/>
<path d="M43.976 113.548C25.4098 113.548 10.3164 98.4542 10.3164 79.8881V53.9362C10.3164 53.7329 10.4858 53.5635 10.6891 53.5635H77.2628C77.4661 53.5635 77.6355 53.7329 77.6355 53.9362V79.8881C77.6355 98.4542 62.5421 113.548 43.976 113.548ZM11.0618 54.3088V79.8881C11.0618 98.0307 25.8333 112.802 43.976 112.802C62.1186 112.802 76.8902 98.0307 76.8902 79.8881V54.3088H11.0618V54.3088Z" fill="#363E44"/>
<path d="M73.604 47.3467C73.4007 47.3467 73.2313 47.1773 73.2313 46.974C73.2313 30.8473 60.1029 17.7188 43.9761 17.7188C27.8494 17.7188 14.7209 30.8303 14.7209 46.9571C14.7209 47.1604 14.5515 47.3298 14.3483 47.3298C14.145 47.3298 13.9756 47.1604 13.9756 46.9571C13.9756 30.4238 27.4259 16.9565 43.9761 16.9565C60.5095 16.9565 73.9767 30.4068 73.9767 46.9571C73.9767 47.1773 73.8073 47.3467 73.604 47.3467Z" fill="#363E44"/>
<path d="M43.3492 94.6938L29.8481 82.4293L34.0154 77.2796L42.5869 84.1233L56.0203 64.6255L61.4749 68.3861L43.3492 94.6938Z" fill="#1f527d"/>
<path d="M155 33.6765H153.052C152.882 32.7279 152.628 31.7962 152.306 30.9153L154 29.9497L150.697 24.241L149.003 25.2235C148.376 24.4951 147.699 23.8175 146.987 23.2077L147.97 21.5137L142.261 18.2104L141.295 19.9044C140.398 19.5825 139.483 19.3454 138.534 19.159V17.2109H131.945V19.1421C130.996 19.3115 130.064 19.5656 129.183 19.8874L128.218 18.1934L122.509 21.4967L123.492 23.1907C122.763 23.8175 122.086 24.4951 121.476 25.2066L119.782 24.2241L116.478 29.9328L118.172 30.8984C117.851 31.7962 117.613 32.7109 117.427 33.6596H115.479V40.2492H117.427C117.596 41.1978 117.851 42.1295 118.172 43.0104L116.478 43.976L119.782 49.6847L121.476 48.7022C122.102 49.4306 122.78 50.1082 123.492 50.718L122.509 52.412L128.218 55.7153L129.183 54.0213C130.081 54.3432 130.996 54.5803 131.945 54.7667V56.7148H138.534V54.7667C139.483 54.5973 140.415 54.3432 141.295 54.0213L142.261 55.7153L147.97 52.412L146.987 50.718C147.716 50.0913 148.393 49.4137 149.003 48.7022L150.697 49.6847L154 43.976L152.306 43.0104C152.628 42.1126 152.865 41.1978 153.052 40.2492H155V33.6765ZM146.005 37.3186C145.818 42.9596 141.228 47.5672 135.587 47.7366C129.353 47.9399 124.254 42.841 124.457 36.6071C124.643 30.9661 129.234 26.3585 134.875 26.1891C141.109 25.9858 146.208 31.0847 146.005 37.3186Z" fill="#B7EBFF"/>
<path d="M135.231 51.7515C127.066 51.7515 120.442 45.1111 120.442 36.963C120.442 29.6958 125.846 23.4111 133.029 22.3269C133.232 22.2931 133.418 22.4286 133.452 22.6488C133.486 22.8521 133.351 23.0384 133.13 23.0723C126.321 24.0887 121.188 30.0685 121.188 36.963C121.188 44.7045 127.489 51.0062 135.231 51.0062C141.634 51.0062 147.224 46.6865 148.834 40.5034C148.884 40.3002 149.088 40.1816 149.291 40.2324C149.494 40.2832 149.613 40.4865 149.562 40.6898C147.851 47.2117 141.973 51.7515 135.231 51.7515Z" fill="#EEFAFF"/>
</svg>
