<svg width="18" height="18" viewBox="0 0 18 18" fill="none" xmlns="http://www.w3.org/2000/svg">
<path fill-rule="evenodd" clip-rule="evenodd" d="M5.01345 11.8357C4.88012 11.8357 4.74595 11.7932 4.63262 11.7066C4.35928 11.4957 4.30762 11.1032 4.51845 10.8299L7.01262 7.58822C7.11428 7.45572 7.26512 7.36989 7.43012 7.34906C7.59845 7.32739 7.76345 7.37406 7.89428 7.47822L10.2443 9.32406L12.3001 6.67156C12.5118 6.39739 12.9035 6.34656 13.1768 6.55989C13.4501 6.77156 13.5001 7.16406 13.2885 7.43656L10.8468 10.5866C10.7451 10.7182 10.5951 10.8041 10.4301 10.8241C10.2635 10.8466 10.0985 10.7982 9.96678 10.6957L7.61845 8.85072L5.50928 11.5916C5.38595 11.7516 5.20095 11.8357 5.01345 11.8357Z" fill="#28C76F"/>
<mask id="mask0_1227_2226" style="mask-type:luminance" maskUnits="userSpaceOnUse" x="13" y="0" width="5" height="5">
<path fill-rule="evenodd" clip-rule="evenodd" d="M13.4126 0.166748H17.8659V4.62083H13.4126V0.166748Z" fill="white"/>
</mask>
<g mask="url(#mask0_1227_2226)">
<path fill-rule="evenodd" clip-rule="evenodd" d="M15.6393 1.41669C15.1009 1.41669 14.6626 1.85419 14.6626 2.39335C14.6626 2.93169 15.1009 3.37085 15.6393 3.37085C16.1776 3.37085 16.6159 2.93169 16.6159 2.39335C16.6159 1.85419 16.1776 1.41669 15.6393 1.41669ZM15.6393 4.62085C14.4118 4.62085 13.4126 3.62169 13.4126 2.39335C13.4126 1.16502 14.4118 0.166687 15.6393 0.166687C16.8676 0.166687 17.8659 1.16502 17.8659 2.39335C17.8659 3.62169 16.8676 4.62085 15.6393 4.62085Z" fill="#28C76F"/>
</g>
<mask id="mask1_1227_2226" style="mask-type:luminance" maskUnits="userSpaceOnUse" x="0" y="0" width="18" height="18">
<path fill-rule="evenodd" clip-rule="evenodd" d="M0.666504 0.868408H17.2181V17.4192H0.666504V0.868408Z" fill="white"/>
</mask>
<g mask="url(#mask1_1227_2226)">
<path fill-rule="evenodd" clip-rule="evenodd" d="M12.5273 17.4192H5.35734C2.5515 17.4192 0.666504 15.4484 0.666504 12.5151V5.78008C0.666504 2.84257 2.5515 0.868408 5.35734 0.868408H11.414C11.759 0.868408 12.039 1.14841 12.039 1.49341C12.039 1.83841 11.759 2.11841 11.414 2.11841H5.35734C3.26734 2.11841 1.9165 3.55507 1.9165 5.78008V12.5151C1.9165 14.7692 3.23484 16.1692 5.35734 16.1692H12.5273C14.6173 16.1692 15.9682 14.7351 15.9682 12.5151V6.64924C15.9682 6.30424 16.2482 6.02424 16.5932 6.02424C16.9382 6.02424 17.2182 6.30424 17.2182 6.64924V12.5151C17.2182 15.4484 15.3332 17.4192 12.5273 17.4192Z" fill="#28C76F"/>
</g>
</svg>
