<svg width="24" height="25" viewBox="0 0 24 25" fill="none" xmlns="http://www.w3.org/2000/svg">
<path d="M20.2 4.2H19.6V3.6C19.6 3.3 19.3 3 19 3C18.7 3 18.4 3.3 18.4 3.6V4.2H16V3.6C16 3.3 15.7 3 15.4 3C15.1 3 14.8 3.3 14.8 3.6V4.2H12.5V3.6C12.5 3.3 12.2 3 11.9 3C11.6 3 11.3 3.3 11.3 3.6V4.2H9.1V3.6C9.1 3.3 8.8 3 8.5 3C8.2 3 7.9 3.3 7.9 3.6V4.2H5.5V3.6C5.5 3.3 5.2 3 4.9 3C4.6 3 4.3 3.3 4.3 3.6V4.2H3.8C2.8 4.2 2 5 2 6C2 6.7 2 20.5 2 21.3C2 22.3 2.8 23.1 3.8 23.1H20.3C21.3 23.1 22.1 22.3 22.1 21.3C22.1 20.5 22.1 6.7 22.1 6C22 5 21.2 4.2 20.2 4.2ZM20.8 21.3C20.8 21.6 20.5 21.9 20.2 21.9H3.8C3.5 21.9 3.2 21.6 3.2 21.3V8.9H20.9V21.3H20.8ZM20.8 7.7H3.2V6C3.2 5.7 3.5 5.4 3.8 5.4H4.4V6C4.4 6.3 4.7 6.6 5 6.6C5.3 6.6 5.6 6.3 5.6 6V5.4H8V6C8 6.3 8.3 6.6 8.6 6.6C8.9 6.6 9.2 6.3 9.2 6V5.4H11.5V6C11.5 6.3 11.8 6.6 12.1 6.6C12.4 6.6 12.7 6.3 12.7 6V5.4H15V6C15 6.3 15.3 6.6 15.6 6.6C15.9 6.6 16.2 6.3 16.2 6V5.4H18.6V6C18.6 6.3 18.9 6.6 19.2 6.6C19.5 6.6 19.8 6.3 19.8 6V5.4H20.4C20.7 5.4 21 5.7 21 6V7.7H20.8Z" fill="#28C76F"/>
<path d="M16.7 18.7998H16.1V16.9998C16.1 15.9998 15.3 15.1998 14.3 15.1998H12.5V13.9998C13.2 13.7998 13.7 13.0998 13.7 12.2998C13.7 11.9998 13.6 11.6998 13.5 11.4998L12.4 9.5998C12.3 9.3998 12.1 9.2998 11.9 9.2998C11.7 9.2998 11.5 9.3998 11.4 9.5998L10.3 11.4998C10.2 11.6998 10.1 11.9998 10.1 12.2998C10.1 13.0998 10.6 13.6998 11.3 13.9998V15.2998H9.69995C8.69995 15.2998 7.89995 16.0998 7.89995 17.0998V18.8998H7.29995C6.99995 18.8998 6.69995 19.1998 6.69995 19.4998C6.69995 19.6998 6.99995 19.9998 7.29995 19.9998C7.59995 19.9998 16.2 19.9998 16.7 19.9998C17 19.9998 17.3 19.6998 17.3 19.3998C17.3 19.0998 17 18.7998 16.7 18.7998ZM11.5 12.0998L12 11.0998L12.5 12.0998C12.5 12.1998 12.5 12.1998 12.5 12.2998C12.5 12.5998 12.2 12.8998 11.9 12.8998C11.6 12.8998 11.3 12.5998 11.3 12.2998C11.4 12.2998 11.4 12.1998 11.5 12.0998ZM14.9 18.7998H9.09995V16.9998C9.09995 16.6998 9.39995 16.3998 9.69995 16.3998H14.4C14.7 16.3998 15 16.6998 15 16.9998V18.7998H14.9Z" fill="#28C76F"/>
</svg>
