<svg width="18" height="19" viewBox="0 0 18 19" fill="none" xmlns="http://www.w3.org/2000/svg">
<path d="M2.25 8.625C1.76675 8.625 1.375 9.01675 1.375 9.5C1.375 9.98325 1.76675 10.375 2.25 10.375V8.625ZM3 10.375C3.48325 10.375 3.875 9.98325 3.875 9.5C3.875 9.01675 3.48325 8.625 3 8.625V10.375ZM9.875 2.75C9.875 2.26675 9.48325 1.875 9 1.875C8.51675 1.875 8.125 2.26675 8.125 2.75H9.875ZM8.125 3.5C8.125 3.98325 8.51675 4.375 9 4.375C9.48325 4.375 9.875 3.98325 9.875 3.5H8.125ZM15 8.625C14.5168 8.625 14.125 9.01675 14.125 9.5C14.125 9.98325 14.5168 10.375 15 10.375V8.625ZM15.75 10.375C16.2332 10.375 16.625 9.98325 16.625 9.5C16.625 9.01675 16.2332 8.625 15.75 8.625V10.375ZM4.81868 4.08128C4.47697 3.73957 3.92295 3.73957 3.58124 4.08128C3.23954 4.42299 3.23954 4.97701 3.58124 5.31872L4.81868 4.08128ZM4.10624 5.84372C4.44795 6.18542 5.00197 6.18542 5.34368 5.84372C5.68539 5.50201 5.68539 4.94799 5.34368 4.60628L4.10624 5.84372ZM14.4188 5.31872C14.7605 4.97701 14.7605 4.42299 14.4188 4.08128C14.077 3.73957 13.523 3.73957 13.1813 4.08128L14.4188 5.31872ZM12.6563 4.60628C12.3146 4.94799 12.3146 5.50201 12.6563 5.84372C12.998 6.18542 13.552 6.18542 13.8938 5.84372L12.6563 4.60628ZM2.25 10.375H3V8.625H2.25V10.375ZM8.125 2.75V3.5H9.875V2.75H8.125ZM15 10.375H15.75V8.625H15V10.375ZM3.58124 5.31872L4.10624 5.84372L5.34368 4.60628L4.81868 4.08128L3.58124 5.31872ZM13.1813 4.08128L12.6563 4.60628L13.8938 5.84372L14.4188 5.31872L13.1813 4.08128Z" fill="#4B4753"/>
<path d="M6.75024 12.5C5.45895 11.5315 4.93225 9.84543 5.44268 8.31415C5.95311 6.78286 7.38613 5.75 9.00024 5.75C10.6144 5.75 12.0474 6.78286 12.5578 8.31415C13.0682 9.84543 12.5415 11.5315 11.2502 12.5C10.6564 13.0879 10.3779 13.9234 10.5002 14.75C10.5002 15.5784 9.82867 16.25 9.00024 16.25C8.17181 16.25 7.50024 15.5784 7.50024 14.75C7.62262 13.9234 7.34412 13.0879 6.75024 12.5" stroke="#4B4753" stroke-width="1.75" stroke-linecap="round" stroke-linejoin="round"/>
<path d="M7.2749 13.25H10.7249" stroke="#4B4753" stroke-width="1.75" stroke-linecap="round" stroke-linejoin="round"/>
</svg>
