<svg width="24" height="25" viewBox="0 0 24 25" fill="none" xmlns="http://www.w3.org/2000/svg">
<path fill-rule="evenodd" clip-rule="evenodd" d="M10.0803 19.0928H3.7793C3.3653 19.0928 3.0293 18.7568 3.0293 18.3428C3.0293 17.9288 3.3653 17.5928 3.7793 17.5928H10.0803C10.4943 17.5928 10.8303 17.9288 10.8303 18.3428C10.8303 18.7568 10.4943 19.0928 10.0803 19.0928Z" fill="#6A6678"/>
<path fill-rule="evenodd" clip-rule="evenodd" d="M19.1911 9.40045H12.8911C12.4771 9.40045 12.1411 9.06445 12.1411 8.65045C12.1411 8.23645 12.4771 7.90045 12.8911 7.90045H19.1911C19.6051 7.90045 19.9411 8.23645 19.9411 8.65045C19.9411 9.06445 19.6051 9.40045 19.1911 9.40045Z" fill="#6A6678"/>
<mask id="mask0_453_127436" style="mask-type:luminance" maskUnits="userSpaceOnUse" x="3" y="5" width="7" height="7">
<path fill-rule="evenodd" clip-rule="evenodd" d="M3 5.50043H9.2258V11.692H3V5.50043Z" fill="white"/>
</mask>
<g mask="url(#mask0_453_127436)">
<path fill-rule="evenodd" clip-rule="evenodd" d="M6.113 7C5.224 7 4.5 7.716 4.5 8.597C4.5 9.477 5.224 10.192 6.113 10.192C7.003 10.192 7.726 9.477 7.726 8.597C7.726 7.716 7.003 7 6.113 7ZM6.113 11.692C4.397 11.692 3 10.304 3 8.597C3 6.89 4.397 5.5 6.113 5.5C7.83 5.5 9.226 6.89 9.226 8.597C9.226 10.304 7.83 11.692 6.113 11.692Z" fill="#6A6678"/>
</g>
<path fill-rule="evenodd" clip-rule="evenodd" d="M17.3879 16.708C16.4979 16.708 15.7739 17.424 15.7739 18.304C15.7739 19.185 16.4979 19.9 17.3879 19.9C18.2769 19.9 18.9999 19.185 18.9999 18.304C18.9999 17.424 18.2769 16.708 17.3879 16.708ZM17.3879 21.4C15.6709 21.4 14.2739 20.011 14.2739 18.304C14.2739 16.597 15.6709 15.208 17.3879 15.208C19.1039 15.208 20.4999 16.597 20.4999 18.304C20.4999 20.011 19.1039 21.4 17.3879 21.4Z" fill="#6A6678"/>
</svg>
