<svg width="18" height="18" viewBox="0 0 18 18" fill="none" xmlns="http://www.w3.org/2000/svg">
<path d="M15.4499 2.25002C15.2999 1.50002 14.6249 0.900024 13.7999 0.900024H12.9749C12.5999 0.675024 12.2249 0.525024 11.7749 0.525024H2.9249C1.7999 0.525024 0.899902 1.50002 0.899902 2.62502V15.375C0.899902 16.5 1.7999 17.475 2.9999 17.475H11.8499C12.2999 17.475 12.6749 17.325 13.0499 17.1H13.8749C14.6999 17.1 15.3749 16.5 15.5249 15.75C16.2749 15.6 16.8749 14.925 16.8749 14.1V3.90002C16.7999 3.07502 16.1999 2.40002 15.4499 2.25002ZM2.9249 16.275C2.4749 16.275 2.0249 15.9 2.0249 15.375V2.62502C2.0249 2.17502 2.3999 1.72502 2.9249 1.72502H8.5499H9.6749H11.7749C12.2249 1.72502 12.5999 2.02502 12.6749 2.47502C12.6749 2.55002 12.6749 2.55002 12.6749 2.62502V15.375C12.6749 15.45 12.6749 15.45 12.6749 15.525C12.5999 15.9 12.2249 16.275 11.7749 16.275H10.6499H9.6749H8.5499H2.9249ZM13.7999 16.35H13.5749C13.6499 16.2 13.7249 15.975 13.7249 15.825C13.7249 15.675 13.7999 15.525 13.7999 15.45V2.70002C13.7999 2.55002 13.7999 2.40002 13.7249 2.32502C13.7249 2.17502 13.6499 1.95002 13.5749 1.80002H13.7999C14.1749 1.80002 14.4749 2.02502 14.6249 2.32502C14.6999 2.47502 14.6999 2.55002 14.6999 2.70002V3.07502V15.15V15.525C14.6999 15.675 14.6999 15.75 14.6249 15.9C14.5499 16.125 14.1749 16.35 13.7999 16.35ZM16.0499 14.1C16.0499 14.475 15.8249 14.775 15.5249 14.925V3.07502C15.8249 3.22502 16.0499 3.52502 16.0499 3.90002V14.1Z" fill="white"/>
<path d="M5.92499 3.07502H8.84999C9.14999 3.07502 9.37499 2.85002 9.37499 2.55002C9.37499 2.25002 9.14999 2.02502 8.84999 2.02502H5.92499C5.69999 2.02502 5.47499 2.25002 5.47499 2.47502C5.39999 2.85002 5.62499 3.07502 5.92499 3.07502Z" fill="white"/>
<path d="M7.3499 9.97501C8.3999 9.97501 9.2999 9.07501 9.2999 8.02501C9.2999 6.97501 8.3999 6.07501 7.3499 6.07501C6.2999 6.07501 5.3999 6.97501 5.3999 8.02501C5.3999 9.07501 6.2999 9.97501 7.3499 9.97501Z" fill="white"/>
<path d="M10.7999 13.35V12.75C10.7249 11.7 9.8249 10.8751 8.6999 10.9501H8.5499C7.7999 11.2501 6.8999 11.2501 6.0749 10.9501H5.9999C4.9499 10.8751 4.0499 11.7 3.8999 12.75V13.35C3.8999 13.725 4.1999 13.95 4.5749 13.95H10.0499C10.4999 13.95 10.7999 13.65 10.7999 13.35Z" fill="white"/>
</svg>
