<svg width="120" height="120" viewBox="0 0 120 120" fill="none" xmlns="http://www.w3.org/2000/svg">
<mask id="mask0_1271_47771" style="mask-type:luminance" maskUnits="userSpaceOnUse" x="0" y="0" width="120" height="120">
<path d="M120 0H0V120H120V0Z" fill="white"/>
</mask>
<g mask="url(#mask0_1271_47771)">
<path fill-rule="evenodd" clip-rule="evenodd" d="M57.4002 63H57.2002C57.3002 62.9 57.3002 62.9 57.4002 63C57.4002 62.9 57.3002 62.9 57.4002 63Z" fill="#1F527D"/>
<path d="M82.6004 26.9H73.1004C73.1004 26.4 73.1004 25.9 73.0004 25.4C72.9004 24.9 72.8004 24.4 72.7004 23.9C71.4004 19.6 67.3004 16.4 62.6004 16.4H52.0004C47.2004 16.4 43.2004 19.6 41.9004 23.9C41.7004 24.4 41.6004 24.9 41.6004 25.4C41.5004 25.9 41.5004 26.4 41.5004 26.9H32.0004C24.2004 26.9 17.9004 33.2 17.9004 40.9V55C17.9004 55.6 18.2004 56.1 18.7004 56.3C28.2004 61.9 40.1004 65.2 52.7004 65.8C53.2004 65.8 53.7004 65.8 54.2004 65.9C54.7004 65.9 55.2004 65.9 55.7004 65.9V74.7C55.7004 75.6 56.4004 76.3 57.3004 76.3C58.2004 76.3 58.9004 75.6 58.9004 74.7V65.9C59.4004 65.9 59.9004 65.9 60.4004 65.9C60.9004 65.9 61.4004 65.9 61.9004 65.8C74.5004 65.1 86.4004 61.8 95.9004 56.3C96.4004 56 96.7004 55.5 96.7004 55V41C96.7004 33.3 90.4004 26.9 82.6004 26.9ZM44.8004 25.4C44.9004 24.9 45.1004 24.4 45.3004 23.9C46.5004 21.3 49.1004 19.5 52.1004 19.5H62.6004C65.6004 19.5 68.2004 21.3 69.4004 23.9C69.6004 24.4 69.8004 24.9 69.9004 25.4C70.0004 25.9 70.1004 26.4 70.1004 26.9H44.6004C44.6004 26.4 44.6004 25.9 44.8004 25.4ZM93.5004 54.2L92.7004 54.6C83.9004 59.4 72.9004 62.3 61.5004 62.8C61.0004 62.8 60.4004 62.8 59.9004 62.9C59.1004 62.9 58.2004 62.9 57.4004 62.9H57.2004C56.4004 62.9 55.5004 62.9 54.7004 62.9C54.1004 62.9 53.6004 62.9 53.1004 62.8C41.7004 62.2 30.7004 59.3 21.9004 54.6L21.1004 54.2V41C21.1004 35 26.0004 30.1 32.0004 30.1H82.6004C88.6004 30.1 93.5004 35 93.5004 41.1V54.2Z" fill="#1F527D"/>
<path fill-rule="evenodd" clip-rule="evenodd" d="M96.6 70.1L95.8 80.3C95.2 88 88.7 94.1 81 94.1H33.6C25.9 94.1 19.4 88.1 18.8 80.4L18 70.2C18 69.8 18.1 69.4 18.4 69.1C18.7 68.8 19.1 68.6 19.4 68.6H19.5C20.4 68.6 21.1 69.2 21.2 70.1L22 80.1C22.5 86.2 27.6 90.9 33.6 90.9H81C87.1 90.9 92.2 86.2 92.6 80.1L93.4 69.9C93.5 69 94.2 68.4 95.1 68.4C95.5 68.4 95.9 68.6 96.2 68.9C96.5 69.3 96.6 69.7 96.6 70.1Z" fill="#1F527D"/>
<g opacity="0.97">
<path d="M96.8232 102.049C86.3186 102.049 77.7744 93.5047 77.7744 83.0001C77.7744 72.4955 86.3186 63.9513 96.8232 63.9513C107.328 63.9513 115.872 72.4955 115.872 83.0001C115.872 93.5047 107.328 102.049 96.8232 102.049Z" fill="white"/>
<path d="M96.8229 66.7254C105.796 66.7254 113.098 74.0268 113.098 83.0001C113.098 91.9734 105.796 99.2748 96.8229 99.2748C87.8496 99.2748 80.5482 91.9734 80.5482 83.0001C80.5482 74.0268 87.8459 66.7254 96.8229 66.7254ZM96.8229 61.1772C84.7685 61.1772 75 70.9494 75 83.0001C75 95.0508 84.7722 104.823 96.8229 104.823C108.874 104.823 118.646 95.0508 118.646 83.0001C118.646 70.9494 108.874 61.1772 96.8229 61.1772Z" fill="#1F527D"/>
</g>
<g opacity="0.97">
<path d="M96.5 72.1772C95.6726 72.1772 95 72.9128 95 73.8177V84.5366C95 85.4415 95.6726 86.1772 96.5 86.1772C97.3274 86.1772 98 85.4415 98 84.5366V73.8177C98 72.9128 97.3274 72.1772 96.5 72.1772Z" fill="#1F527D" stroke="#1F527D" stroke-width="2.5" stroke-miterlimit="0"/>
<path d="M96.3541 90.1772C95.6072 90.1772 95 90.7844 95 91.5312V92.524C95 93.2708 95.6072 93.878 96.3541 93.878C97.1009 93.878 97.7081 93.2708 97.7081 92.524V91.5312C97.7081 90.7844 97.1009 90.1772 96.3541 90.1772Z" fill="#1F527D" stroke="#1F527D" stroke-width="2.5" stroke-miterlimit="0"/>
</g>
</g>
</svg>
