<?xml version="1.0" encoding="utf-8"?>
<!-- Generator: Adobe Illustrator 28.0.0, SVG Export Plug-In . SVG Version: 6.00 Build 0)  -->
<svg version="1.1" id="Layer_1" xmlns="http://www.w3.org/2000/svg" xmlns:xlink="http://www.w3.org/1999/xlink" x="0px" y="0px"
	 viewBox="0 0 24 24" style="enable-background:new 0 0 24 24;" xml:space="preserve">
<style type="text/css">
	.st0{fill:#939393;}
</style>
<g>
	<path class="st0" d="M13.9,12.5c0,0,0,0.1,0,0.1c0.2,0.2,0.4,0.3,0.6,0.5c0-0.1,0-0.2,0-0.2c0-1.1,0-2.3,0-3.4c0-0.9,0-1.8,0-2.6
		c0-0.1,0-0.2,0-0.2c0.1-0.1,0.2-0.2,0.4-0.3c0.7-0.7,1.3-1.3,2-2c0.3-0.3,0.6-0.5,0.8-0.8c0,0,0,0,0.1,0c0,5.7,0,11.3,0,17
		c0.5,0,1,0,1.5,0c0-0.2,0-0.4,0-0.5c0-3.9,0-7.8,0-11.8c0-0.3,0-0.7-0.1-1c-0.2-1-0.5-2-0.8-3c-0.2-0.6-0.3-1.2-0.5-1.8
		c-0.5,0.5-0.9,0.9-1.4,1.3c-0.9,0.9-1.7,1.7-2.6,2.6c-0.1,0.1-0.1,0.1-0.1,0.2c0,0.6,0,1.3,0,1.9C13.9,9.7,13.9,11.1,13.9,12.5z"/>
	<path class="st0" d="M15.7,18.1C15.7,18.1,15.7,18.1,15.7,18.1c0-0.7,0-1.4,0-2c0,0,0,0,0-0.1c-0.3-0.2-0.5-0.5-0.8-0.7
		c-1-0.9-1.9-1.8-2.9-2.7c-0.7-0.7-1.4-1.4-2.1-2.1C9.7,10.3,9.6,10,9.7,9.7c1.9,2,4,4,6,5.9c0-0.3,0-0.4-0.2-0.6
		c-0.7-0.7-1.4-1.4-2-2.1c-0.6-0.6-1.1-1.2-1.7-1.9c-0.7-0.8-1.4-1.7-2.2-2.5C9.6,8.5,9.5,8.4,9.5,8.3c0,2,0,4.1,0,6.2
		c0.3-0.1,0.6-0.2,0.8-0.3C12.1,15.5,13.9,16.8,15.7,18.1z"/>
	<path class="st0" d="M21.8,20.9c-6.5,0-13,0-19.5,0c0,0.3,0,0.6,0,0.9c6.5,0,13,0,19.5,0c0-0.2,0-0.3,0-0.4
		C21.8,21.2,21.8,21,21.8,20.9z"/>
	<path class="st0" d="M15.6,18.6c-0.6-0.3-1.1-0.7-1.7-1c-0.9-0.5-1.8-1.1-2.7-1.6c-0.6-0.3-1.1-0.7-1.7-1c0,1,0,2.1,0,3.1
		c0.1,0,0.2,0,0.2,0c0.2-0.1,0.3,0,0.4,0c0.9,0.3,1.9,0.6,2.8,0.9c0.9,0.3,1.8,0.6,2.7,0.9c0,0,0,0,0.1,0c0-0.4,0-0.8,0-1.1
		C15.7,18.7,15.7,18.6,15.6,18.6z"/>
	<path class="st0" d="M5.3,20c0.9,0.2,1.8,0.4,2.8,0.4c0-0.2,0-0.3,0-0.5c-0.1,0-0.1-0.1-0.2-0.1c-0.8-0.3-1.7-0.6-2.5-0.8
		C5.3,19,5.3,19,5.2,19c0,0,0,0,0,0c0,0,0.1,0,0.1,0c0-0.1,0-0.3,0-0.4c0-0.8,0-1.6,0-2.4c0-0.1,0.1-0.1,0.1-0.2
		c0.6-0.4,1.2-0.8,1.8-1.2c0.3-0.2,0.7-0.4,1-0.6c0-0.2,0-0.5-0.1-0.7c-0.1,0-0.1,0.1-0.2,0.1c-0.3,0.2-0.6,0.4-1,0.6
		c-0.7,0.5-1.4,0.9-2.1,1.4c-0.1,0-0.1,0.1-0.1,0.2c0,1.4,0,2.8,0,4.3c0,0.1,0,0.3,0,0.5c0.2,0,0.4,0,0.5,0
		C5.3,20.3,5.3,20.2,5.3,20z"/>
	<path class="st0" d="M9.5,20.4c1.6,0,3.2,0,4.8,0c0-0.1,0.1-0.3,0.1-0.4c-1.6-0.5-3.3-1-4.9-1.5C9.5,19.1,9.5,19.8,9.5,20.4z"/>
	<path class="st0" d="M9.1,20.5c0-3.9,0-7.7,0-11.6C9,9,8.9,9.1,8.9,9.2C8.7,9.4,8.7,9.5,8.7,9.7c0,1,0,1.9,0,2.9c0,2,0,3.9,0,5.9
		c0,0.6,0,1.3,0,1.9C8.8,20.5,9,20.5,9.1,20.5z"/>
	<path class="st0" d="M8,18.5c-0.4-0.2-0.8-0.4-1.2-0.5c-0.3-0.1-0.6-0.3-1-0.4c0,0.3,0,0.6,0,0.9c0,0.1,0.1,0.2,0.1,0.2
		c0.7,0.2,1.4,0.5,2.1,0.7c0-0.3,0-0.5,0-0.7C8.1,18.5,8.1,18.5,8,18.5z"/>
	<path class="st0" d="M8,17c-0.6-0.3-1.1-0.7-1.7-1c-0.1-0.1-0.3-0.1-0.4-0.2c0,0.2,0,0.4,0,0.6c0,0.3,0.1,0.4,0.3,0.5
		c0.5,0.2,1,0.5,1.4,0.7c0.2,0.1,0.3,0.2,0.5,0.2c0-0.2,0-0.4,0-0.6C8.1,17.1,8.1,17,8,17z"/>
	<path class="st0" d="M16,5.7c-0.2,0.1-0.3,0.3-0.2,0.5c0.1,0.2,0,0.5,0,0.8c0.3-0.3,0.6-0.6,0.9-0.9c0,0,0-0.1,0-0.1
		c0-0.3,0-0.6,0-1C16.5,5.2,16.2,5.5,16,5.7z"/>
	<path class="st0" d="M16.7,9.7c0,0,0-0.1,0-0.1c0-0.3,0-0.6,0-1c-0.3,0.3-0.6,0.6-0.9,0.9c0,0-0.1,0.1-0.1,0.1c0,0.3,0,0.6,0,0.9
		C16.1,10.2,16.4,9.9,16.7,9.7z"/>
	<path class="st0" d="M8.1,15.1c-0.4,0.2-0.8,0.5-1.2,0.7c0.4,0.2,0.8,0.5,1.2,0.7C8.1,16,8.1,15.6,8.1,15.1z"/>
	<path class="st0" d="M16,7.5c-0.1,0.1-0.2,0.2-0.2,0.3c0,0.3,0,0.5,0,0.8c0.3-0.3,0.6-0.6,0.9-0.8c0,0,0.1-0.1,0.1-0.1
		c0-0.3,0-0.6,0-0.9c0,0,0,0,0,0C16.5,7.1,16.2,7.3,16,7.5z"/>
	<path class="st0" d="M16.7,11.4C16.7,11.4,16.7,11.4,16.7,11.4c0-0.4,0-0.7,0-1c-0.3,0.3-0.6,0.5-0.9,0.8c0,0-0.1,0.1-0.1,0.1
		c0,0.3,0,0.5,0,0.8C16.1,11.9,16.4,11.7,16.7,11.4z"/>
	<path class="st0" d="M17.6,10.6c0-0.3,0-0.7,0-1c-0.2,0.2-0.5,0.4-0.7,0.6c0,0.3,0,0.7,0,1c0.2-0.2,0.4-0.3,0.6-0.4
		C17.6,10.8,17.6,10.7,17.6,10.6z"/>
	<path class="st0" d="M16.9,7.6c0.2-0.2,0.4-0.3,0.6-0.5c0.1-0.1,0.1-0.1,0.1-0.2c0-0.3,0-0.6,0-0.9c-0.2,0.2-0.4,0.4-0.6,0.6
		c0,0-0.1,0.1-0.1,0.2C16.9,7,16.9,7.3,16.9,7.6z"/>
	<path class="st0" d="M17.6,5.1c0-0.3,0-0.7,0-1c0,0-0.1,0-0.1-0.1c-0.2,0.3-0.4,0.5-0.6,0.8c0,0.2,0,0.6,0,0.9
		c0.2-0.2,0.4-0.4,0.6-0.5C17.6,5.2,17.6,5.1,17.6,5.1z"/>
	<path class="st0" d="M17.6,7.7c-0.2,0.2-0.5,0.4-0.7,0.6c0,0,0,0.1,0,0.1c0,0.3,0,0.6,0,0.9c0.2-0.2,0.4-0.4,0.7-0.5
		c0,0,0.1-0.1,0.1-0.1C17.6,8.4,17.6,8.1,17.6,7.7z"/>
	<path class="st0" d="M16.7,12.2c-0.3,0.3-0.6,0.5-0.9,0.7c0,0-0.1,0.1-0.1,0.1c0,0.2,0,0.5,0,0.7c0.1-0.1,0.1-0.1,0.2-0.2
		c0.2-0.2,0.5-0.3,0.6-0.5C16.8,12.9,16.7,12.6,16.7,12.2C16.7,12.3,16.7,12.3,16.7,12.2z"/>
	<path class="st0" d="M17.6,16c-0.3,0.2-0.5,0.3-0.7,0.4c0,0.3,0,0.6,0,0.9c0.3-0.1,0.5-0.3,0.7-0.4C17.6,16.6,17.6,16.3,17.6,16z"
		/>
	<path class="st0" d="M17.6,11.5c-0.2,0.2-0.5,0.4-0.7,0.6c0,0.3,0,0.6,0,0.9c0.2-0.2,0.4-0.3,0.7-0.4c0,0,0.1-0.1,0.1-0.1
		C17.6,12.1,17.6,11.8,17.6,11.5z"/>
	<path class="st0" d="M16.7,13.7c-0.3,0.3-0.6,0.5-0.9,0.7c0,0-0.1,0.1-0.1,0.1c0,0.2,0,0.5,0,0.7c0.1-0.1,0.1-0.1,0.2-0.2
		c0.2-0.2,0.5-0.3,0.6-0.5C16.8,14.3,16.7,14,16.7,13.7C16.7,13.8,16.7,13.7,16.7,13.7z"/>
	<path class="st0" d="M17.6,12.9c-0.2,0.2-0.5,0.4-0.7,0.6c0,0.3,0,0.6,0,0.9c0.2-0.2,0.4-0.3,0.7-0.4c0,0,0.1-0.1,0.1-0.1
		C17.6,13.6,17.6,13.3,17.6,12.9z"/>
	<path class="st0" d="M17.6,18.8c0-0.3,0-0.6,0-1c-0.2,0.2-0.5,0.3-0.7,0.5c0,0.3,0,0.6,0,0.9C17.2,19,17.4,18.9,17.6,18.8z"/>
	<path class="st0" d="M17.6,14.5c-0.3,0.2-0.5,0.3-0.7,0.5c0,0.2,0,0.4,0,0.7c0.2-0.1,0.5-0.3,0.7-0.4c0,0,0-0.1,0-0.1
		C17.6,15,17.6,14.8,17.6,14.5z"/>
	<path class="st0" d="M16.7,17.4c0-0.3,0-0.6,0-0.8c-0.2,0.1-0.4,0.3-0.6,0.4c0,0.3,0,0.5,0,0.8C16.3,17.7,16.5,17.6,16.7,17.4
		C16.7,17.5,16.7,17.5,16.7,17.4z"/>
	<path class="st0" d="M16.1,19.5c0.2-0.1,0.4-0.2,0.6-0.3c0,0,0.1-0.1,0.1-0.1c0-0.2,0-0.5,0-0.7c-0.2,0.1-0.4,0.2-0.6,0.3
		C16.1,19,16.1,19.2,16.1,19.5z"/>
	<path class="st0" d="M16.7,15.2c-0.2,0.1-0.4,0.3-0.6,0.3c0,0.2,0,0.5,0,0.7c0.2-0.1,0.4-0.2,0.5-0.3c0,0,0.1-0.1,0.1-0.1
		C16.7,15.6,16.7,15.4,16.7,15.2z"/>
</g>
</svg>
