<svg width="100" height="100" viewBox="0 0 100 100" fill="none" xmlns="http://www.w3.org/2000/svg">
<g clip-path="url(#clip0_5597_40664)">
<path d="M71.6568 0.00759599C58.5961 0.0347407 47.2431 8.97942 44.1606 21.6712H9.99863C4.47888 21.6767 0.005468 26.1501 0 31.6699V74.9974C0.005468 80.5171 4.47888 84.9905 9.99863 84.996H13.3316V96.2427C13.3304 97.6054 14.0692 98.8611 15.2606 99.5221C16.4522 100.183 17.9087 100.145 19.064 99.4223L42.1392 84.996H76.6561C82.1759 84.9905 86.6493 80.5171 86.6548 74.9974V52.3338C97.3865 45.6521 102.385 32.6635 98.9021 20.511C95.419 8.35841 84.2986 -0.00997973 71.6568 0.00759599ZM83.322 74.9974C83.322 78.6787 80.3376 81.663 76.6563 81.663H41.6611C41.3488 81.663 41.0428 81.7507 40.7778 81.9163L17.2976 96.5977C17.1691 96.6758 17.0084 96.6788 16.8774 96.6053C16.7461 96.5317 16.6647 96.3932 16.6645 96.2429V83.3296C16.6645 82.4092 15.9185 81.6632 14.9981 81.6632H9.99863C6.3173 81.6632 3.33294 78.6789 3.33294 74.9975V31.6701C3.33294 27.9887 6.3173 25.0044 9.99863 25.0044H43.5407C42.5448 33.0482 45.0585 41.1317 50.4402 47.1924C55.8219 53.2531 63.5517 56.7047 71.6568 56.6667C75.6824 56.6635 79.6604 55.7963 83.3218 54.1236V74.9974H83.322ZM71.6568 53.3337C57.8517 53.3337 46.6602 42.1423 46.6602 28.3371C46.6602 14.532 57.8517 3.34054 71.6568 3.34054C85.462 3.34054 96.6534 14.532 96.6534 28.3371C96.6378 42.1358 85.4557 53.3181 71.6568 53.3337Z" fill="#EA5455"/>
<path fill-rule="evenodd" clip-rule="evenodd" d="M11.6654 35.0028H36.662C37.5824 35.0028 38.3284 34.2568 38.3284 33.3364C38.3284 32.416 37.5822 31.67 36.662 31.67H11.6654C10.745 31.67 9.99902 32.4162 9.99902 33.3364C9.99902 34.2566 10.7452 35.0028 11.6654 35.0028Z" fill="#EA5455"/>
<path fill-rule="evenodd" clip-rule="evenodd" d="M11.6654 45.0014H39.9949C40.9153 45.0014 41.6613 44.2553 41.6613 43.3351C41.6613 42.4149 40.9151 41.6687 39.9949 41.6687H11.6654C10.745 41.6687 9.99902 42.4147 9.99902 43.3351C9.99902 44.2555 10.7452 45.0014 11.6654 45.0014Z" fill="#EA5455"/>
<path fill-rule="evenodd" clip-rule="evenodd" d="M11.6654 55H46.6606C47.581 55 48.327 54.2539 48.327 53.3337C48.327 52.4135 47.5808 51.6673 46.6606 51.6673H11.6654C10.745 51.6673 9.99902 52.4133 9.99902 53.3337C9.99902 54.2541 10.7452 55 11.6654 55Z" fill="#EA5455"/>
<path fill-rule="evenodd" clip-rule="evenodd" d="M24.9971 63.3323C24.9971 64.2527 25.7433 64.9987 26.6634 64.9987H74.9902C75.9106 64.9987 76.6566 64.2527 76.6566 63.3323C76.6566 62.4119 75.9106 61.666 74.9902 61.666H26.6634C25.7433 61.666 24.9971 62.4119 24.9971 63.3323Z" fill="#EA5455"/>
<path fill-rule="evenodd" clip-rule="evenodd" d="M19.9977 61.666H11.6654C10.745 61.666 9.99902 62.4119 9.99902 63.3323C9.99902 64.2527 10.7452 64.9987 11.6654 64.9987H19.9977C20.918 64.9987 21.664 64.2527 21.664 63.3323C21.664 62.4119 20.918 61.666 19.9977 61.666Z" fill="#EA5455"/>
<path d="M71.6565 38.3358C68.8956 38.3358 66.6572 40.5741 66.6572 43.3351C66.6572 46.0962 68.8956 48.3344 71.6565 48.3344C74.4175 48.3344 76.6559 46.096 76.6559 43.3351C76.6559 40.5741 74.4177 38.3358 71.6565 38.3358ZM71.6565 45.0014C70.7362 45.0014 69.9902 44.2553 69.9902 43.3351C69.9902 42.4149 70.7362 41.6687 71.6565 41.6687C72.5769 41.6687 73.3229 42.4147 73.3229 43.3351C73.3229 44.2555 72.5769 45.0014 71.6565 45.0014Z" fill="#EA5455"/>
<path d="M71.6565 8.33984C68.8956 8.33984 66.6572 10.5782 66.6572 13.3392V30.0035C66.6572 32.7644 68.8956 35.0028 71.6565 35.0028C74.4175 35.0028 76.6559 32.7644 76.6559 30.0035V13.3392C76.6559 10.578 74.4177 8.33984 71.6565 8.33984ZM73.3231 30.0035C73.3231 30.9239 72.5771 31.6699 71.6567 31.6699C70.7364 31.6699 69.9904 30.9237 69.9904 30.0035V13.3392C69.9904 12.4188 70.7364 11.6728 71.6567 11.6728C72.5771 11.6728 73.3231 12.419 73.3231 13.3392V30.0035Z" fill="#EA5455"/>
</g>
<defs>
<clipPath id="clip0_5597_40664">
<rect width="100" height="100" fill="white"/>
</clipPath>
</defs>
</svg>
