<svg width="20" height="20" viewBox="0 0 20 20" fill="none" xmlns="http://www.w3.org/2000/svg">
<path fill-rule="evenodd" clip-rule="evenodd" d="M6.01345 13.3356C5.88012 13.3356 5.74595 13.2931 5.63262 13.2064C5.35928 12.9956 5.30762 12.6031 5.51845 12.3298L8.01262 9.0881C8.11428 8.9556 8.26512 8.86977 8.43012 8.84894C8.59845 8.82727 8.76345 8.87394 8.89428 8.9781L11.2443 10.8239L13.3001 8.17143C13.5118 7.89727 13.9035 7.84643 14.1768 8.05977C14.4501 8.27143 14.5001 8.66394 14.2885 8.93643L11.8468 12.0864C11.7451 12.2181 11.5951 12.3039 11.4301 12.3239C11.2635 12.3464 11.0985 12.2981 10.9668 12.1956L8.61845 10.3506L6.50928 13.0914C6.38595 13.2514 6.20095 13.3356 6.01345 13.3356Z" fill="#7367F0"/>
<mask id="mask0_488_129020" style="mask-type:luminance" maskUnits="userSpaceOnUse" x="14" y="1" width="5" height="6">
<path fill-rule="evenodd" clip-rule="evenodd" d="M14.4121 1.66602H18.8654V6.1201H14.4121V1.66602Z" fill="white"/>
</mask>
<g mask="url(#mask0_488_129020)">
<path fill-rule="evenodd" clip-rule="evenodd" d="M16.6388 2.91602C16.1004 2.91602 15.6621 3.35352 15.6621 3.89268C15.6621 4.43102 16.1004 4.87018 16.6388 4.87018C17.1771 4.87018 17.6154 4.43102 17.6154 3.89268C17.6154 3.35352 17.1771 2.91602 16.6388 2.91602ZM16.6388 6.12018C15.4113 6.12018 14.4121 5.12102 14.4121 3.89268C14.4121 2.66435 15.4113 1.66602 16.6388 1.66602C17.8671 1.66602 18.8654 2.66435 18.8654 3.89268C18.8654 5.12102 17.8671 6.12018 16.6388 6.12018Z" fill="#7367F0"/>
</g>
<mask id="mask1_488_129020" style="mask-type:luminance" maskUnits="userSpaceOnUse" x="1" y="2" width="18" height="17">
<path fill-rule="evenodd" clip-rule="evenodd" d="M1.66602 2.36719H18.2176V18.918H1.66602V2.36719Z" fill="white"/>
</mask>
<g mask="url(#mask1_488_129020)">
<path fill-rule="evenodd" clip-rule="evenodd" d="M13.5268 18.918H6.35685C3.55102 18.918 1.66602 16.9472 1.66602 14.0139V7.27885C1.66602 4.34135 3.55102 2.36719 6.35685 2.36719H12.4135C12.7585 2.36719 13.0385 2.64719 13.0385 2.99219C13.0385 3.33719 12.7585 3.61719 12.4135 3.61719H6.35685C4.26685 3.61719 2.91602 5.05385 2.91602 7.27885V14.0139C2.91602 16.268 4.23435 17.668 6.35685 17.668H13.5268C15.6168 17.668 16.9677 16.2339 16.9677 14.0139V8.14802C16.9677 7.80302 17.2477 7.52302 17.5927 7.52302C17.9377 7.52302 18.2177 7.80302 18.2177 8.14802V14.0139C18.2177 16.9472 16.3327 18.918 13.5268 18.918Z" fill="#7367F0"/>
</g>
</svg>
