<svg xmlns="http://www.w3.org/2000/svg" width="23.858" height="35.438" viewBox="0 0 23.858 35.438">
  <g id="certificate" transform="translate(-6.802 -2.603)">
    <path id="Path_991" data-name="Path 991" d="M30.085,8.814a5.464,5.464,0,1,0,5.464,5.464A5.47,5.47,0,0,0,30.085,8.814ZM30.5,15.7l-1.235,1.235L28.027,15.7l-1.2-1.2,1.235-1.235,1.2,1.2,2.844-2.844,1.235,1.235Zm10.516-2.957a1.569,1.569,0,0,1-.412-1.759l.225-.561a1.547,1.547,0,0,0-1.01-2.1l-.6-.15a1.563,1.563,0,0,1-1.123-1.422V6.12a1.549,1.549,0,0,0-1.8-1.46l-.6.112a1.482,1.482,0,0,1-1.609-.786l-.3-.524a1.543,1.543,0,0,0-2.245-.524l-.487.337a1.577,1.577,0,0,1-1.8,0L28.776,2.9a1.557,1.557,0,0,0-2.283.524l-.3.524a1.558,1.558,0,0,1-1.647.786l-.6-.112a1.582,1.582,0,0,0-1.834,1.46l-.037.6A1.563,1.563,0,0,1,20.954,8.1l-.6.187a1.547,1.547,0,0,0-1.01,2.1l.225.561a1.569,1.569,0,0,1-.412,1.759l-.449.412a1.529,1.529,0,0,0,0,2.32l.449.412a1.569,1.569,0,0,1,.412,1.759l-.225.561a1.547,1.547,0,0,0,1.01,2.1l.6.15a1.563,1.563,0,0,1,1.123,1.422l.037.6a1.549,1.549,0,0,0,1.8,1.46l.6-.112a1.482,1.482,0,0,1,1.609.786l.3.524a1.543,1.543,0,0,0,2.245.524l.487-.337a1.577,1.577,0,0,1,1.8,0l.487.374a1.557,1.557,0,0,0,2.283-.524l.3-.524a1.558,1.558,0,0,1,1.647-.786l.6.112a1.582,1.582,0,0,0,1.834-1.46l.037-.6a1.563,1.563,0,0,1,1.123-1.422l.6-.15a1.547,1.547,0,0,0,1.01-2.1l-.225-.561a1.569,1.569,0,0,1,.412-1.759l.449-.412a1.529,1.529,0,0,0,0-2.32ZM30.085,21.875a7.56,7.56,0,1,1,7.56-7.56A7.563,7.563,0,0,1,30.085,21.875ZM18.334,35.049,22,25.88a3.9,3.9,0,0,0,1.609.374,4.124,4.124,0,0,0,.674-.075h.075l.037.075A3.794,3.794,0,0,0,27.765,28.2a3.716,3.716,0,0,0,1.123-.187l-3.855,9.693a.365.365,0,0,1-.674.037l-1.834-3.219a.251.251,0,0,0-.3-.112L18.783,35.5A.346.346,0,0,1,18.334,35.049Zm16.8,2.769-3.892-9.73a3.92,3.92,0,0,0,1.123.187,3.8,3.8,0,0,0,3.368-1.984l.037-.075h.075a4.124,4.124,0,0,0,.674.075,4.079,4.079,0,0,0,1.647-.374l3.668,9.244a.36.36,0,0,1-.449.487l-3.443-1.085a.251.251,0,0,0-.3.112l-1.834,3.219A.405.405,0,0,1,35.138,37.818Z" transform="translate(-11.373)" fill="#287cc4"/>
  </g>
</svg>
