<svg xmlns="http://www.w3.org/2000/svg" xmlns:xlink="http://www.w3.org/1999/xlink" width="1639" height="214" viewBox="0 0 1639 214">
  <defs>
    <linearGradient id="linear-gradient" x1="0.5" x2="0.5" y2="1" gradientUnits="objectBoundingBox">
      <stop offset="0" stop-color="#e9effd"/>
      <stop offset="1" stop-color="#dbe7ff"/>
    </linearGradient>
    <clipPath id="clip-path">
      <rect id="Rectangle_60" data-name="Rectangle 60" width="1639" height="214" transform="translate(281 62)" fill="url(#linear-gradient)"/>
    </clipPath>
  </defs>
  <g id="Mask_Group_1" data-name="Mask Group 1" transform="translate(-281 -62)" clip-path="url(#clip-path)">
    <g id="Group_775" data-name="Group 775" transform="translate(98.311 -98.839)">
      <g id="Group_766" data-name="Group 766" transform="translate(122.877 113.899)">
        <path id="Path_754" data-name="Path 754" d="M2169.647,586.483c67.659-38.068,24.037-283.2-85.044-308.033-119.838-27.279-216.136,18.186-310.294-17.919-41.065-15.746-7.133-54.825-92.017-67.663-119.232-18.031-418,49.744-370.925-.267s-273.2-84.512-578.676-77.889S483.92,189.125,488.2,200.09s49.219,63.918-124.83,88.256-134.1,57.5-116.984,76.488c14.911,16.538,99.151,36.1-23.539,78.9C120.7,479.355,147.657,567.841,177.329,585.986Z" transform="translate(-468.483 -316.956)" fill="#eafcfc"/>
        <path id="Path_755" data-name="Path 755" d="M870.272,611.109a11.625,11.625,0,0,0-11.478-8.46,12.686,12.686,0,0,0-2.973.351,17.466,17.466,0,0,0-15.7-9.261,18.6,18.6,0,0,0-5.159.723,21.749,21.749,0,0,0-18.3-9.576c-9.239,0-17.108,5.432-20.089,13.035a15.507,15.507,0,0,0-7.128-1.713c-8.1,0-14.663,6.081-14.663,13.582a12.686,12.686,0,0,0,.07,1.318Z" transform="translate(-379.188 -515.005)" fill="#fff" opacity="0.8"/>
        <path id="Path_756" data-name="Path 756" d="M1155.7,276.825a9.927,9.927,0,0,1,9.8-7.224,10.838,10.838,0,0,1,2.539.3,14.914,14.914,0,0,1,13.41-7.908,15.881,15.881,0,0,1,4.406.618,18.572,18.572,0,0,1,15.63-8.177c7.889,0,14.609,4.638,17.155,11.131a13.242,13.242,0,0,1,6.087-1.463c6.915,0,12.521,5.193,12.521,11.6a10.854,10.854,0,0,1-.06,1.125Z" transform="translate(-539.33 -226.052)" fill="#fff" opacity="0.8"/>
        <path id="Path_757" data-name="Path 757" d="M1612.019,631.552a5.58,5.58,0,0,1,5.509-4.061,6.085,6.085,0,0,1,1.427.169,8.384,8.384,0,0,1,7.538-4.445,8.934,8.934,0,0,1,2.477.347,10.44,10.44,0,0,1,8.786-4.6,10.249,10.249,0,0,1,9.643,6.257,7.444,7.444,0,0,1,3.421-.822,6.794,6.794,0,0,1,7.038,6.52,6.155,6.155,0,0,1-.033.632Z" transform="translate(-758.426 -542.958)" fill="#fff" opacity="0.8"/>
        <path id="Path_758" data-name="Path 758" d="M2251.826,685.422a8.707,8.707,0,0,1,8.6-6.336,9.5,9.5,0,0,1,2.227.263,13.082,13.082,0,0,1,11.762-6.936,13.931,13.931,0,0,1,3.865.542,16.29,16.29,0,0,1,13.709-7.172,15.993,15.993,0,0,1,15.046,9.763,11.618,11.618,0,0,1,5.339-1.283c6.065,0,10.982,4.554,10.982,10.173a9.494,9.494,0,0,1-.052.987Z" transform="translate(-996.021 -583.321)" fill="#fff" opacity="0.8"/>
        <path id="Path_759" data-name="Path 759" d="M1923.393,979.828h-48.547V946.281h-27.091v14.937h-38.649V926.8h-63.282v31.472l-18.93.2V926.741h-22.085V913.219h-13.251v-9.082h-51.742v9.082h-13.251v13.522H1604.48v17.19l-10.19.2-3.06-50.927h-68.148V920.3l-23.978.2V878.156h-8.2v-8.936h-71.934v8.936h-8.2v49.666h-15.144v-10.4H1383v-8.7h-18.3v-25.4h-26.5v25.4h-18.3v8.7h-12.621v17.2l-15.775-.03V912.623l-150.946,1.607L1104.726,943h-15.775V932.71h-39.289V863.357h-35.979v7.266H997.272v56.4H940.463v10.293H892.292v-24.1l-76.108-.571v34.876l-6.943.03H800.4v-30.1H787.78v-8.7h-18.3v-25.4H742.964v25.4h-18.3v8.7H712.034v17.792H696.885V878.184H688.68v-8.936H616.722v8.936h-8.206v42.344l-23.986-.2V893.234H546.1l-.613,50.927-10.829-.2V892.539H481.012V879.017H467.757v-9.082H416v9.082H402.742v47.751H380.649V958.5l-18.936-.2V926.828l-63.3,20.821v13.6H256.2v105.512l843.4-.014,823.791-.014Z" transform="translate(-229.276 -799.994)" fill="#c5ddf9" opacity="0.5" style="mix-blend-mode: multiply;isolation: isolate"/>
        <path id="Path_760" data-name="Path 760" d="M711.71,1434.579c-77.9-8.372-175.447-89.655-241.6-99.135-69.757-10-141.459,101.342-141.459,101.342l383.059-.975Z" transform="translate(-287.095 -1176.236)" fill="#86b1f2"/>
        <g id="Group_696" data-name="Group 696" transform="translate(414.944 123.93)">
          <rect id="Rectangle_110" data-name="Rectangle 110" width="3.455" height="38.301" transform="translate(9.551 74.303)" fill="#355389"/>
          <path id="Path_761" data-name="Path 761" d="M876.05,1044.512l-11.279,91.152h22.558Z" transform="translate(-864.771 -1044.512)" fill="#3c8f7c"/>
          <path id="Path_762" data-name="Path 762" d="M885.028,1316.208,901.111,1330l-.618-5-14.965-12.833Z" transform="translate(-880.937 -1258.116)" fill="#50bfa5"/>
          <path id="Path_763" data-name="Path 763" d="M897.27,1219.645l9.849,3.367-.463-3.742-8.96-3.063Z" transform="translate(-890.707 -1181.533)" fill="#50bfa5"/>
        </g>
        <g id="Group_697" data-name="Group 697" transform="translate(514.411 153.848)">
          <rect id="Rectangle_111" data-name="Rectangle 111" width="3.098" height="28.79" transform="translate(6.117 51.329)" fill="#355389"/>
          <path id="Path_764" data-name="Path 764" d="M1056.706,1207.238l-8.1,58.112H1064.8Z" transform="translate(-1048.609 -1207.238)" fill="#3c8f7c"/>
          <path id="Path_765" data-name="Path 765" d="M1051.153,1452.412l14.527-4.58-.22-1.576-14.068,4.435Z" transform="translate(-1050.64 -1397.987)" fill="#50bfa5"/>
          <path id="Path_766" data-name="Path 766" d="M1063.818,1367.609l9.627-3.035-.22-1.576-9.167,2.89Z" transform="translate(-1060.747 -1331.542)" fill="#50bfa5"/>
        </g>
        <path id="Path_767" data-name="Path 767" d="M2977.838,1524.88l2.5-5.146a7.467,7.467,0,0,0-3.336-10.01h0c-9.134-4.228-20.179.21-24.671,9.913l-3.283,7.094a8.995,8.995,0,0,1-7.385,5.276,7.945,7.945,0,0,0-6.471,4.687l-1.731,3.74a15.018,15.018,0,0,0-.035,12.567,9.111,9.111,0,0,1-.07,7.63l-2.451,5.3c-2.71,5.854-.439,12.668,5.072,15.219l3.144,1.455c5.511,2.551,12.175-.127,14.885-5.981h0c2.519-7.813,6.687-11.066,10.345-12.335a21.409,21.409,0,0,0,12.362-11.238l.346-.748a21.257,21.257,0,0,0,.173-17.515C2976.163,1532.366,2975.885,1529.1,2977.838,1524.88Z" transform="translate(-1263.208 -1314.552)" fill="#96d9c9"/>
        <path id="Path_768" data-name="Path 768" d="M209.862,1524.6l-2.5-5.145a7.468,7.468,0,0,1,3.336-10.01h0c9.134-4.228,20.18.21,24.671,9.913l3.284,7.094a8.995,8.995,0,0,0,7.385,5.276,7.945,7.945,0,0,1,6.471,4.686l1.731,3.74a15.018,15.018,0,0,1,.035,12.567,9.111,9.111,0,0,0,.07,7.63l2.451,5.3c2.71,5.855.439,12.668-5.072,15.219l-3.144,1.455c-5.511,2.551-12.175-.127-14.885-5.981h0c-2.518-7.813-6.686-11.066-10.345-12.335a21.408,21.408,0,0,1-12.362-11.238l-.346-.748a21.257,21.257,0,0,1-.173-17.515C211.538,1532.088,211.815,1528.821,209.862,1524.6Z" transform="translate(-189.698 -1314.329)" fill="#96d9c9"/>
        <g id="Group_698" data-name="Group 698" transform="translate(1272.774 145.307)">
          <rect id="Rectangle_112" data-name="Rectangle 112" width="3.455" height="38.301" transform="translate(13.007 112.604) rotate(180)" fill="#355389"/>
          <path id="Path_769" data-name="Path 769" d="M2409.8,1269.122l11.279,91.152h-22.558Z" transform="translate(-2398.519 -1269.122)" fill="#3c8f7c"/>
          <path id="Path_770" data-name="Path 770" d="M2426.407,1540.819l-16.083,13.792.619-5,14.965-12.833Z" transform="translate(-2407.94 -1482.727)" fill="#50bfa5"/>
          <path id="Path_771" data-name="Path 771" d="M2438.8,1444.255l-9.849,3.367.463-3.742,8.96-3.063Z" transform="translate(-2422.807 -1406.144)" fill="#50bfa5"/>
        </g>
        <g id="Group_699" data-name="Group 699" transform="translate(1203.573 178.169)">
          <rect id="Rectangle_113" data-name="Rectangle 113" width="3.098" height="28.79" transform="translate(10.076 80.12) rotate(180)" fill="#355389"/>
          <path id="Path_772" data-name="Path 772" d="M2296.918,1431.848l8.1,58.113h-16.193Z" transform="translate(-2288.822 -1431.848)" fill="#3c8f7c"/>
          <path id="Path_773" data-name="Path 773" d="M2309.053,1677.023l-14.527-4.579.219-1.576,14.068,4.435Z" transform="translate(-2293.374 -1622.597)" fill="#50bfa5"/>
          <path id="Path_774" data-name="Path 774" d="M2315.752,1592.219l-9.627-3.035.22-1.576,9.168,2.89Z" transform="translate(-2302.631 -1556.153)" fill="#50bfa5"/>
        </g>
        <path id="Path_775" data-name="Path 775" d="M190.85,1603.065s210.1-66.435,480.992-70.516c90.966-1.37,463.451,26.1,777.116,47.691,13.186.908,341.923,23.013,386.682,23.669Z" transform="translate(-177.123 -1334.004)" fill="#96d9c9"/>
        <path id="Path_776" data-name="Path 776" d="M2599.611,1737.262s18.189-24.16,29.635-27.866.658,11.012.658,11.012,20.3-22.2,27.756-20.2c6.83,1.835,0,15.6,0,15.6s7.693-7.621,17.022-7.621-7.211,28.536-7.211,28.536Z" transform="translate(-999.729 -1467.741)" fill="#50bfa5"/>
        <path id="Path_777" data-name="Path 777" d="M2889.956,1766.1s12.433-33.249,27.831-29.4c12.478,3.116,3.606,19.846,4.367,19.085s7.453-12.116,18.281-12.116-3.324,15.325-3.324,15.325,23.071-7.2,24.878.361c1.5,6.279-6.886,6.749-6.886,6.749Z" transform="translate(-1231.439 -1496.719)" fill="#3c8f7c"/>
        <path id="Path_778" data-name="Path 778" d="M296.008,1718.542s-18.189-24.16-29.635-27.866-.658,11.011-.658,11.011-19.761-26.961-27.213-24.96c-6.83,1.835-4.048,15.451-4.048,15.451s-4.188-2.716-13.517-2.716S228.148,1718,228.148,1718Z" transform="translate(-198.858 -1449.02)" fill="#50bfa5"/>
        <path id="Path_779" data-name="Path 779" d="M181.485,1799.257s-8.923-23.862-19.973-21.1c-8.955,2.236-2.588,14.243-3.134,13.7s-5.349-8.695-13.12-8.695,2.385,11,2.385,11-16.557-5.171-17.853.259c-1.076,4.506,4.941,4.843,4.941,4.843Z" transform="translate(-128.291 -1529.871)" fill="#3c8f7c"/>
        <g id="Group_700" data-name="Group 700" transform="translate(85.374 243.158)">
          <path id="Path_780" data-name="Path 780" d="M580.454,1801.218a8.885,8.885,0,0,0,.124-1.479c0-5.6-5.248-10.14-11.723-10.14s-11.723,4.54-11.723,10.14a8.885,8.885,0,0,0,.124,1.479Z" transform="translate(-554.809 -1782.341)" fill="#3c8f7c"/>
          <path id="Path_781" data-name="Path 781" d="M646.15,1770.041a17.511,17.511,0,0,0,.124-2.085c0-7.9-5.249-14.3-11.723-14.3s-11.723,6.4-11.723,14.3a17.563,17.563,0,0,0,.124,2.085Z" transform="translate(-607.238 -1753.656)" fill="#50bfa5"/>
          <path id="Path_782" data-name="Path 782" d="M716.569,1832.269a8.857,8.857,0,0,1-.124-1.478c0-5.6,5.248-10.14,11.723-10.14s11.723,4.54,11.723,10.14a8.883,8.883,0,0,1-.124,1.478Z" transform="translate(-681.949 -1807.121)" fill="#50bfa5"/>
          <path id="Path_783" data-name="Path 783" d="M623.534,1813.433a13.873,13.873,0,0,1-.157-2.085c0-7.9,6.654-14.3,14.861-14.3s14.861,6.4,14.861,14.3a13.9,13.9,0,0,1-.157,2.085Z" transform="translate(-607.676 -1788.285)" fill="#3c8f7c"/>
          <path id="Path_784" data-name="Path 784" d="M572.9,1797.048a12.791,12.791,0,0,0-10.185,5.217,16.89,16.89,0,0,0-3.9-.45c-7.283,0-13.187,4.54-13.187,10.14a7.924,7.924,0,0,0,.139,1.479h40.177a15.613,15.613,0,0,0,.139-2.085C586.085,1803.45,580.181,1797.048,572.9,1797.048Z" transform="translate(-545.63 -1788.285)" fill="#50bfa5"/>
        </g>
        <g id="Group_731" data-name="Group 731" transform="translate(32.757 209.335)">
          <g id="Group_709" data-name="Group 709" transform="translate(20.437)">
            <g id="Group_701" data-name="Group 701" transform="translate(4.341 3.746)">
              <path id="Path_785" data-name="Path 785" d="M412.065,1629.823c-3.451-5.391-4.095-11.9-4.027-16.414a42.18,42.18,0,0,1,.986-8.6l-.249-.088a42.442,42.442,0,0,0-1,8.662c-.069,4.557.582,11.134,4.076,16.592Z" transform="translate(-407.775 -1604.718)" fill="#3c8f7c"/>
            </g>
            <g id="Group_702" data-name="Group 702" transform="translate(4.287)">
              <path id="Path_786" data-name="Path 786" d="M409.662,1589.109a3.682,3.682,0,0,1-1.282,2.609,4.27,4.27,0,0,1-.858-2.938,3.682,3.682,0,0,1,1.282-2.609A4.269,4.269,0,0,1,409.662,1589.109Z" transform="translate(-407.509 -1586.171)" fill="#3c8f7c"/>
            </g>
            <g id="Group_703" data-name="Group 703" transform="translate(1.687 3.696)">
              <path id="Path_787" data-name="Path 787" d="M397.055,1606.273a4.248,4.248,0,0,1,.579,3,3.877,3.877,0,0,1-2.349-1.8,4.247,4.247,0,0,1-.579-3A3.875,3.875,0,0,1,397.055,1606.273Z" transform="translate(-394.635 -1604.473)" fill="#3c8f7c"/>
            </g>
            <g id="Group_704" data-name="Group 704" transform="translate(0 7.9)">
              <path id="Path_788" data-name="Path 788" d="M389.067,1625.9a4.161,4.161,0,0,1,1.762,2.467,3.412,3.412,0,0,1-2.786-.494,4.16,4.16,0,0,1-1.762-2.467A3.411,3.411,0,0,1,389.067,1625.9Z" transform="translate(-386.281 -1625.29)" fill="#3c8f7c"/>
            </g>
            <g id="Group_705" data-name="Group 705" transform="translate(0.88 12.304)">
              <path id="Path_789" data-name="Path 789" d="M392.953,1647.492a3.035,3.035,0,0,1,1.287,2.162,2.424,2.424,0,0,1-2.314-.19,3.036,3.036,0,0,1-1.287-2.162A2.424,2.424,0,0,1,392.953,1647.492Z" transform="translate(-390.639 -1647.095)" fill="#3c8f7c"/>
            </g>
            <g id="Group_706" data-name="Group 706" transform="translate(4.609 7.377)">
              <path id="Path_790" data-name="Path 790" d="M410.663,1623.056a2.932,2.932,0,0,1,2.49-.144,3.128,3.128,0,0,1-1.558,2.02,2.933,2.933,0,0,1-2.49.144A3.128,3.128,0,0,1,410.663,1623.056Z" transform="translate(-409.105 -1622.701)" fill="#3c8f7c"/>
            </g>
            <g id="Group_707" data-name="Group 707" transform="translate(4.52 10.273)">
              <path id="Path_791" data-name="Path 791" d="M410.22,1637.4a2.933,2.933,0,0,1,2.49-.144,3.128,3.128,0,0,1-1.558,2.02,2.932,2.932,0,0,1-2.49.144A3.127,3.127,0,0,1,410.22,1637.4Z" transform="translate(-408.662 -1637.041)" fill="#3c8f7c"/>
            </g>
            <g id="Group_708" data-name="Group 708" transform="translate(2.571 17.271)">
              <path id="Path_792" data-name="Path 792" d="M400.155,1671.727a1.574,1.574,0,0,1,1,.765,1.3,1.3,0,0,1-1.144.264,1.575,1.575,0,0,1-1-.764A1.3,1.3,0,0,1,400.155,1671.727Z" transform="translate(-399.011 -1671.69)" fill="#3c8f7c"/>
            </g>
          </g>
          <g id="Group_718" data-name="Group 718" transform="translate(0 6.972)">
            <g id="Group_710" data-name="Group 710" transform="translate(3.613 3.815)">
              <path id="Path_793" data-name="Path 793" d="M327.008,1661.456c-7.9-1.888-13.921-7.73-17.583-12.3a52.456,52.456,0,0,1-6.127-9.576l-.322.165a52.81,52.81,0,0,0,6.168,9.644c3.7,4.614,9.783,10.515,17.779,12.426Z" transform="translate(-302.976 -1639.582)" fill="#3c8f7c"/>
            </g>
            <g id="Group_711" data-name="Group 711" transform="translate(0.68)">
              <path id="Path_794" data-name="Path 794" d="M291.81,1622.755a5.221,5.221,0,0,1,.877,3.9,4.791,4.791,0,0,1-3.283-2.062,5.22,5.22,0,0,1-.878-3.9A4.792,4.792,0,0,1,291.81,1622.755Z" transform="translate(-288.448 -1620.693)" fill="#3c8f7c"/>
            </g>
            <g id="Group_712" data-name="Group 712" transform="translate(0 6.805)">
              <path id="Path_795" data-name="Path 795" d="M288.914,1654.554a4.838,4.838,0,0,1,3.057,2.405,4.784,4.784,0,0,1-3.831.58,4.838,4.838,0,0,1-3.057-2.405A4.785,4.785,0,0,1,288.914,1654.554Z" transform="translate(-285.083 -1654.388)" fill="#3c8f7c"/>
            </g>
            <g id="Group_713" data-name="Group 713" transform="translate(1.816 11.175)">
              <path id="Path_796" data-name="Path 796" d="M297.26,1676.161a4.722,4.722,0,0,1,3.8.679,5.031,5.031,0,0,1-3.186,2.324,4.722,4.722,0,0,1-3.8-.679A5.033,5.033,0,0,1,297.26,1676.161Z" transform="translate(-294.074 -1676.026)" fill="#3c8f7c"/>
            </g>
            <g id="Group_714" data-name="Group 714" transform="translate(4.962 15.12)">
              <path id="Path_797" data-name="Path 797" d="M312.841,1695.7a4.721,4.721,0,0,1,3.8.679,5.032,5.032,0,0,1-3.186,2.324,4.72,4.72,0,0,1-3.8-.679A5.031,5.031,0,0,1,312.841,1695.7Z" transform="translate(-309.655 -1695.562)" fill="#3c8f7c"/>
            </g>
            <g id="Group_715" data-name="Group 715" transform="translate(7.2 5.181)">
              <path id="Path_798" data-name="Path 798" d="M320.744,1649.865a5.121,5.121,0,0,1,1.125-3.516,4.477,4.477,0,0,1,1.477,3.2,5.122,5.122,0,0,1-1.125,3.516A4.477,4.477,0,0,1,320.744,1649.865Z" transform="translate(-320.737 -1646.349)" fill="#3c8f7c"/>
            </g>
            <g id="Group_716" data-name="Group 716" transform="translate(10.477 9.242)">
              <path id="Path_799" data-name="Path 799" d="M336.973,1669.991a5.137,5.137,0,0,1,1.072-3.537,4.461,4.461,0,0,1,1.525,3.171,5.136,5.136,0,0,1-1.072,3.537A4.462,4.462,0,0,1,336.973,1669.991Z" transform="translate(-336.961 -1666.455)" fill="#3c8f7c"/>
            </g>
            <g id="Group_717" data-name="Group 717" transform="translate(12.279 18.821)">
              <path id="Path_800" data-name="Path 800" d="M346.808,1714.216a1.938,1.938,0,0,1,1.626-.245,2.1,2.1,0,0,1-.922,1.419,1.938,1.938,0,0,1-1.626.245A2.1,2.1,0,0,1,346.808,1714.216Z" transform="translate(-345.886 -1713.89)" fill="#3c8f7c"/>
            </g>
          </g>
          <g id="Group_729" data-name="Group 729" transform="translate(48.5 6.011)">
            <g id="Group_728" data-name="Group 728">
              <g id="Group_719" data-name="Group 719" transform="translate(0 4.479)">
                <path id="Path_801" data-name="Path 801" d="M525.294,1671.442l.341-.022c-.492-9.034,2.824-17.533,5.693-23.073a60.07,60.07,0,0,1,6.418-9.972l-.25-.258a60.439,60.439,0,0,0-6.46,10.033C528.141,1653.737,524.8,1662.312,525.294,1671.442Z" transform="translate(-525.244 -1638.117)" fill="#3c8f7c"/>
              </g>
              <g id="Group_720" data-name="Group 720" transform="translate(10.889)">
                <path id="Path_802" data-name="Path 802" d="M582.26,1620.156a4.732,4.732,0,0,1-3.036,2.352,6.6,6.6,0,0,1,.866-4.22,4.732,4.732,0,0,1,3.036-2.352A6.6,6.6,0,0,1,582.26,1620.156Z" transform="translate(-579.166 -1615.936)" fill="#3c8f7c"/>
              </g>
              <g id="Group_721" data-name="Group 721" transform="translate(7.105 1.962)">
                <path id="Path_803" data-name="Path 803" d="M563.137,1629.481a6.474,6.474,0,0,1-1.213,4.106,5.749,5.749,0,0,1-1.492-3.831,6.475,6.475,0,0,1,1.213-4.106A5.751,5.751,0,0,1,563.137,1629.481Z" transform="translate(-560.428 -1625.65)" fill="#3c8f7c"/>
              </g>
              <g id="Group_722" data-name="Group 722" transform="translate(3.522 6.103)">
                <path id="Path_804" data-name="Path 804" d="M545.647,1648.67a6.465,6.465,0,0,1,.428,4.255,4.425,4.425,0,0,1-2.784-2.512,6.467,6.467,0,0,1-.428-4.255A4.426,4.426,0,0,1,545.647,1648.67Z" transform="translate(-542.682 -1646.157)" fill="#3c8f7c"/>
              </g>
              <g id="Group_723" data-name="Group 723" transform="translate(2.923 14.599)">
                <path id="Path_805" data-name="Path 805" d="M541,1689.182a2.7,2.7,0,0,1,.3,1.768,1.821,1.821,0,0,1-1.238-.956,2.7,2.7,0,0,1-.3-1.768A1.821,1.821,0,0,1,541,1689.182Z" transform="translate(-539.719 -1688.226)" fill="#3c8f7c"/>
              </g>
              <g id="Group_724" data-name="Group 724" transform="translate(1.937 17.09)">
                <path id="Path_806" data-name="Path 806" d="M536.11,1701.516a2.7,2.7,0,0,1,.3,1.768,1.821,1.821,0,0,1-1.238-.956,2.7,2.7,0,0,1-.3-1.768A1.821,1.821,0,0,1,536.11,1701.516Z" transform="translate(-534.833 -1700.56)" fill="#3c8f7c"/>
              </g>
              <g id="Group_725" data-name="Group 725" transform="translate(7.738 9.965)">
                <path id="Path_807" data-name="Path 807" d="M566.539,1665.279a3.58,3.58,0,0,1,2.85,1.521,3.816,3.816,0,0,1-2.978,1.435,3.58,3.58,0,0,1-2.85-1.521A3.816,3.816,0,0,1,566.539,1665.279Z" transform="translate(-563.561 -1665.279)" fill="#3c8f7c"/>
              </g>
              <g id="Group_726" data-name="Group 726" transform="translate(5.847 13.486)">
                <path id="Path_808" data-name="Path 808" d="M557.175,1682.718a3.58,3.58,0,0,1,2.85,1.521,3.815,3.815,0,0,1-2.978,1.435,3.58,3.58,0,0,1-2.85-1.521A3.816,3.816,0,0,1,557.175,1682.718Z" transform="translate(-554.197 -1682.717)" fill="#3c8f7c"/>
              </g>
              <g id="Group_727" data-name="Group 727" transform="translate(3.757 18.285)">
                <path id="Path_809" data-name="Path 809" d="M545.787,1706.478a2.33,2.33,0,0,1,1.855.99,2.484,2.484,0,0,1-1.938.934,2.33,2.33,0,0,1-1.855-.99A2.485,2.485,0,0,1,545.787,1706.478Z" transform="translate(-543.849 -1706.478)" fill="#3c8f7c"/>
              </g>
            </g>
          </g>
          <path id="Path_810" data-name="Path 810" d="M340.562,1691.4c0-1.5,9.08.271,9.836-1.778s-7.777-2.167-7.777-4.938,4.349-.828,6.9-.828-5.034-1.186-5.034-2.167,2.661-.467,2.661-1.508-13.973-1.827-12.338-4.376,9.148.743,11.21-.576-11.02-2.758-11.343-4.719,9.64,1.681,11.05.27-15.754-6.481-15.035-10.208,13.01,4.773,16.083,3.858-15.495-14-11.18-19.093,12.553,16.87,15.364,16.086-3.521-13.881-.649-16.159,11.115,18.438,11.635,22.692,1.566-9.151,6.078-10.719.131,8.3.915,11.312,4.446-7.715,9.382-6.93-8.924,10.591-7.551,13.468,12.076-9.6,15.43-6.25-12.891,12.661-12,15.209,10.635-1.818,13.441.988-10.47,4.589-12.231,4.589-8.488,2.213-1.918,1.778S340.562,1692.907,340.562,1691.4Z" transform="translate(-321.462 -1632.778)" fill="#3c8f7c"/>
          <g id="Group_730" data-name="Group 730" transform="translate(44.984 43.188)">
            <path id="Path_811" data-name="Path 811" d="M507.832,1817.2s10.935.586,14.119-1.418.671-3.565.671-3.565,10.112-.22,10.087-2.616a2.263,2.263,0,0,0-2.477-2.257s5.1-3.469,4.152-5.631c-1.463-3.323-9.776,2.462-9.776,2.462s2.725-3.236.523-3.993C519.086,1798.11,507.832,1817.2,507.832,1817.2Z" transform="translate(-507.832 -1800.029)" fill="#50bfa5"/>
            <path id="Path_812" data-name="Path 812" d="M534.384,1808.388c.952,2.162-4.152,5.631-4.152,5.631s3.684-.049,3.086,2.281-9.857,3.1-9.857,3.1,3.233.632.05,2.636-15.678,1.834-15.678,1.834Z" transform="translate(-507.832 -1806.7)" fill="#96d9c9"/>
          </g>
        </g>
        <g id="Group_762" data-name="Group 762" transform="translate(1587.438 204.314)">
          <g id="Group_740" data-name="Group 740" transform="translate(46.177)">
            <g id="Group_732" data-name="Group 732" transform="translate(0.028 4.064)">
              <path id="Path_813" data-name="Path 813" d="M2766.787,1608.669c3.744-5.85,4.443-12.914,4.37-17.81a45.749,45.749,0,0,0-1.07-9.334l.271-.1a46.105,46.105,0,0,1,1.08,9.4c.075,4.944-.632,12.08-4.423,18Z" transform="translate(-2766.787 -1581.43)" fill="#3c8f7c"/>
            </g>
            <g id="Group_733" data-name="Group 733" transform="translate(2.392)">
              <path id="Path_814" data-name="Path 814" d="M2778.5,1564.494a4,4,0,0,0,1.391,2.83,4.63,4.63,0,0,0,.931-3.187,3.993,3.993,0,0,0-1.391-2.83A4.632,4.632,0,0,0,2778.5,1564.494Z" transform="translate(-2778.49 -1561.307)" fill="#3c8f7c"/>
            </g>
            <g id="Group_734" data-name="Group 734" transform="translate(4.231 4.01)">
              <path id="Path_815" data-name="Path 815" d="M2788.3,1583.116a4.607,4.607,0,0,0-.629,3.254,4.206,4.206,0,0,0,2.549-1.953,4.606,4.606,0,0,0,.628-3.254A4.206,4.206,0,0,0,2788.3,1583.116Z" transform="translate(-2787.597 -1581.163)" fill="#3c8f7c"/>
            </g>
            <g id="Group_735" data-name="Group 735" transform="translate(4.458 8.571)">
              <path id="Path_816" data-name="Path 816" d="M2790.634,1604.409a4.511,4.511,0,0,0-1.912,2.677,3.7,3.7,0,0,0,3.022-.536,4.515,4.515,0,0,0,1.912-2.677A3.7,3.7,0,0,0,2790.634,1604.409Z" transform="translate(-2788.722 -1603.749)" fill="#3c8f7c"/>
            </g>
            <g id="Group_736" data-name="Group 736" transform="translate(4.531 13.349)">
              <path id="Path_817" data-name="Path 817" d="M2790.48,1627.839a3.292,3.292,0,0,0-1.4,2.345,2.629,2.629,0,0,0,2.51-.206,3.292,3.292,0,0,0,1.4-2.346A2.63,2.63,0,0,0,2790.48,1627.839Z" transform="translate(-2789.083 -1627.408)" fill="#3c8f7c"/>
            </g>
            <g id="Group_737" data-name="Group 737" transform="translate(0 8.004)">
              <path id="Path_818" data-name="Path 818" d="M2769.347,1601.326a3.182,3.182,0,0,0-2.7-.157,3.394,3.394,0,0,0,1.691,2.192,3.182,3.182,0,0,0,2.7.156A3.393,3.393,0,0,0,2769.347,1601.326Z" transform="translate(-2766.646 -1600.941)" fill="#3c8f7c"/>
            </g>
            <g id="Group_738" data-name="Group 738" transform="translate(0.097 11.146)">
              <path id="Path_819" data-name="Path 819" d="M2769.828,1616.885a3.184,3.184,0,0,0-2.7-.156,3.393,3.393,0,0,0,1.691,2.192,3.182,3.182,0,0,0,2.7.157A3.4,3.4,0,0,0,2769.828,1616.885Z" transform="translate(-2767.127 -1616.5)" fill="#3c8f7c"/>
            </g>
            <g id="Group_739" data-name="Group 739" transform="translate(4.281 18.738)">
              <path id="Path_820" data-name="Path 820" d="M2788.927,1654.133a1.708,1.708,0,0,0-1.082.83,1.411,1.411,0,0,0,1.241.286,1.708,1.708,0,0,0,1.082-.829A1.411,1.411,0,0,0,2788.927,1654.133Z" transform="translate(-2787.846 -1654.093)" fill="#3c8f7c"/>
            </g>
          </g>
          <g id="Group_749" data-name="Group 749" transform="translate(47.749 7.564)">
            <g id="Group_741" data-name="Group 741" transform="translate(0 4.139)">
              <path id="Path_821" data-name="Path 821" d="M2774.432,1642.989c8.569-2.049,15.1-8.387,19.077-13.343a56.881,56.881,0,0,0,6.648-10.39l.349.179a57.292,57.292,0,0,1-6.692,10.464c-4.012,5.006-10.615,11.408-19.29,13.482Z" transform="translate(-2774.432 -1619.257)" fill="#3c8f7c"/>
            </g>
            <g id="Group_742" data-name="Group 742" transform="translate(24.571)">
              <path id="Path_822" data-name="Path 822" d="M2897.137,1601a5.662,5.662,0,0,0-.952,4.229,5.2,5.2,0,0,0,3.563-2.237,5.663,5.663,0,0,0,.952-4.229A5.2,5.2,0,0,0,2897.137,1601Z" transform="translate(-2896.099 -1598.763)" fill="#3c8f7c"/>
            </g>
            <g id="Group_743" data-name="Group 743" transform="translate(22.521 7.383)">
              <path id="Path_823" data-name="Path 823" d="M2889.267,1635.5a5.249,5.249,0,0,0-3.317,2.61,5.191,5.191,0,0,0,4.156.629,5.249,5.249,0,0,0,3.317-2.61A5.19,5.19,0,0,0,2889.267,1635.5Z" transform="translate(-2885.95 -1635.32)" fill="#3c8f7c"/>
            </g>
            <g id="Group_744" data-name="Group 744" transform="translate(20.448 12.124)">
              <path id="Path_824" data-name="Path 824" d="M2879.8,1658.944a5.124,5.124,0,0,0-4.119.737,5.459,5.459,0,0,0,3.457,2.522,5.121,5.121,0,0,0,4.119-.737A5.458,5.458,0,0,0,2879.8,1658.944Z" transform="translate(-2875.684 -1658.798)" fill="#3c8f7c"/>
            </g>
            <g id="Group_745" data-name="Group 745" transform="translate(17.034 16.404)">
              <path id="Path_825" data-name="Path 825" d="M2862.9,1680.141a5.123,5.123,0,0,0-4.119.737,5.459,5.459,0,0,0,3.457,2.521,5.123,5.123,0,0,0,4.119-.737A5.46,5.46,0,0,0,2862.9,1680.141Z" transform="translate(-2858.78 -1679.994)" fill="#3c8f7c"/>
            </g>
            <g id="Group_746" data-name="Group 746" transform="translate(19.343 5.621)">
              <path id="Path_826" data-name="Path 826" d="M2873.045,1630.413a5.556,5.556,0,0,0-1.22-3.815,4.857,4.857,0,0,0-1.6,3.471,5.557,5.557,0,0,0,1.221,3.815A4.857,4.857,0,0,0,2873.045,1630.413Z" transform="translate(-2870.215 -1626.598)" fill="#3c8f7c"/>
            </g>
            <g id="Group_747" data-name="Group 747" transform="translate(15.783 10.027)">
              <path id="Path_827" data-name="Path 827" d="M2855.417,1652.25a5.569,5.569,0,0,0-1.163-3.837,4.839,4.839,0,0,0-1.654,3.441,5.573,5.573,0,0,0,1.163,3.837A4.838,4.838,0,0,0,2855.417,1652.25Z" transform="translate(-2852.587 -1648.413)" fill="#3c8f7c"/>
            </g>
            <g id="Group_748" data-name="Group 748" transform="translate(13.907 20.42)">
              <path id="Path_828" data-name="Path 828" d="M2845.059,1700.233a2.1,2.1,0,0,0-1.764-.266,2.283,2.283,0,0,0,1,1.539,2.1,2.1,0,0,0,1.764.266A2.284,2.284,0,0,0,2845.059,1700.233Z" transform="translate(-2843.295 -1699.88)" fill="#3c8f7c"/>
            </g>
          </g>
          <g id="Group_760" data-name="Group 760" transform="translate(8.946 6.522)">
            <g id="Group_759" data-name="Group 759">
              <g id="Group_750" data-name="Group 750" transform="translate(2.612 4.86)">
                <path id="Path_829" data-name="Path 829" d="M2608.732,1653.824l-.37-.025c.534-9.8-3.064-19.023-6.176-25.033a65.182,65.182,0,0,0-6.963-10.819l.272-.28a65.547,65.547,0,0,1,7.009,10.886C2605.643,1634.614,2609.272,1643.918,2608.732,1653.824Z" transform="translate(-2595.223 -1617.667)" fill="#3c8f7c"/>
              </g>
              <g id="Group_751" data-name="Group 751">
                <path id="Path_830" data-name="Path 830" d="M2583.293,1598.18a5.133,5.133,0,0,0,3.293,2.552,7.158,7.158,0,0,0-.939-4.578,5.132,5.132,0,0,0-3.294-2.552A7.161,7.161,0,0,0,2583.293,1598.18Z" transform="translate(-2582.29 -1593.602)" fill="#3c8f7c"/>
              </g>
              <g id="Group_752" data-name="Group 752" transform="translate(5.522 2.128)">
                <path id="Path_831" data-name="Path 831" d="M2609.638,1608.3a7.022,7.022,0,0,0,1.316,4.455,6.242,6.242,0,0,0,1.618-4.156,7.028,7.028,0,0,0-1.316-4.455A6.238,6.238,0,0,0,2609.638,1608.3Z" transform="translate(-2609.633 -1604.141)" fill="#3c8f7c"/>
              </g>
              <g id="Group_753" data-name="Group 753" transform="translate(8.478 6.622)">
                <path id="Path_832" data-name="Path 832" d="M2624.929,1629.117a7.018,7.018,0,0,0-.464,4.617,4.8,4.8,0,0,0,3.021-2.726,7.018,7.018,0,0,0,.464-4.616A4.8,4.8,0,0,0,2624.929,1629.117Z" transform="translate(-2624.269 -1626.391)" fill="#3c8f7c"/>
              </g>
              <g id="Group_754" data-name="Group 754" transform="translate(11.25 15.839)">
                <path id="Path_833" data-name="Path 833" d="M2638.367,1673.07a2.929,2.929,0,0,0-.326,1.918,1.975,1.975,0,0,0,1.343-1.037,2.927,2.927,0,0,0,.326-1.918A1.977,1.977,0,0,0,2638.367,1673.07Z" transform="translate(-2637.999 -1672.033)" fill="#3c8f7c"/>
              </g>
              <g id="Group_755" data-name="Group 755" transform="translate(12.321 18.542)">
                <path id="Path_834" data-name="Path 834" d="M2643.667,1686.453a2.93,2.93,0,0,0-.326,1.918,1.976,1.976,0,0,0,1.343-1.037,2.932,2.932,0,0,0,.326-1.918A1.975,1.975,0,0,0,2643.667,1686.453Z" transform="translate(-2643.299 -1685.416)" fill="#3c8f7c"/>
              </g>
              <g id="Group_756" data-name="Group 756" transform="translate(1.456 10.812)">
                <path id="Path_835" data-name="Path 835" d="M2592.594,1647.138a3.884,3.884,0,0,0-3.092,1.65,4.14,4.14,0,0,0,3.231,1.557,3.882,3.882,0,0,0,3.092-1.65A4.14,4.14,0,0,0,2592.594,1647.138Z" transform="translate(-2589.502 -1647.138)" fill="#3c8f7c"/>
              </g>
              <g id="Group_757" data-name="Group 757" transform="translate(3.508 14.632)">
                <path id="Path_836" data-name="Path 836" d="M2602.754,1666.057a3.883,3.883,0,0,0-3.093,1.65,4.139,4.139,0,0,0,3.231,1.557,3.882,3.882,0,0,0,3.093-1.65A4.141,4.141,0,0,0,2602.754,1666.057Z" transform="translate(-2599.661 -1666.057)" fill="#3c8f7c"/>
              </g>
              <g id="Group_758" data-name="Group 758" transform="translate(7.983 19.839)">
                <path id="Path_837" data-name="Path 837" d="M2623.833,1691.838a2.528,2.528,0,0,0-2.013,1.074,2.7,2.7,0,0,0,2.1,1.013,2.527,2.527,0,0,0,2.013-1.074A2.694,2.694,0,0,0,2623.833,1691.838Z" transform="translate(-2621.82 -1691.838)" fill="#3c8f7c"/>
              </g>
            </g>
          </g>
          <path id="Path_838" data-name="Path 838" d="M2616.847,1675.482c0-1.631-9.853.294-10.672-1.929s8.438-2.351,8.438-5.358-4.718-.9-7.484-.9,5.461-1.287,5.461-2.351-2.887-.506-2.887-1.636,15.16-1.982,13.386-4.748-9.925.806-12.163-.625,11.956-2.992,12.307-5.12-10.458,1.823-11.989.292,17.093-7.031,16.313-11.075-14.116,5.178-17.45,4.185,16.812-15.186,12.13-20.716-13.62,18.3-16.67,17.453,3.82-15.06.7-17.532-12.06,20.005-12.624,24.621-1.7-9.928-6.594-11.63-.142,9.01-.993,12.273-4.823-8.37-10.179-7.519,9.683,11.491,8.193,14.613-13.1-10.42-16.74-6.781,13.987,13.737,13.023,16.5-11.538-1.973-14.583,1.072,11.36,4.979,13.27,4.979,9.21,2.4,2.08,1.929S2616.847,1677.113,2616.847,1675.482Z" transform="translate(-2559.827 -1611.874)" fill="#3c8f7c"/>
          <g id="Group_761" data-name="Group 761" transform="translate(0 46.858)">
            <path id="Path_839" data-name="Path 839" d="M2566.927,1811.972s-11.865.636-15.319-1.539-.728-3.867-.728-3.867-10.971-.239-10.944-2.838a2.456,2.456,0,0,1,2.687-2.45s-5.538-3.763-4.5-6.109c1.587-3.6,10.607,2.672,10.607,2.672s-2.957-3.511-.568-4.332C2554.716,1791.256,2566.927,1811.972,2566.927,1811.972Z" transform="translate(-2537.99 -1793.337)" fill="#50bfa5"/>
            <path id="Path_840" data-name="Path 840" d="M2538.119,1802.406c-1.033,2.346,4.5,6.109,4.5,6.109s-4-.053-3.348,2.475,10.7,3.368,10.7,3.368-3.509.686-.054,2.861,17.01,1.99,17.01,1.99Z" transform="translate(-2537.99 -1800.575)" fill="#3c8f7c"/>
          </g>
        </g>
        <g id="Group_763" data-name="Group 763" transform="translate(17.509 86.481)">
          <path id="Path_841" data-name="Path 841" d="M286,1386.709c.018-.591.834-1.05,1.267-.526s.413.17.833,1.3a36.711,36.711,0,0,0,5.043,9.129c3.954,5.258,7.869,7.91,12.313,10.537a35.3,35.3,0,0,1-3.214-12.974,10.363,10.363,0,0,1,.667-4.784.558.558,0,0,1,1.012.133c.373,2.293-.176,4.021.566,8.124,1.771,9.791,8.779,20.176,15.54,27.448-1.3-12.311-1.925-26.3.394-38.72.38-2.037.985-3.974,1.547-5.964a.371.371,0,0,1,.716.2c-.117.662-1.221,9.207-1.288,9.8a152.446,152.446,0,0,0-.024,29.487,59.073,59.073,0,0,0,10.4-24.081c.485-2.564.615-5.211,1.295-7.727.094-.347.666-.384.738,0,.7,3.77-.7,10.439-1.72,14.063a57.884,57.884,0,0,1-9.891,19.805c-.176.229,7.258,57.688,7.058,58.416-.337,1.227-2.474,2.088-2.806-.089-.135-.886-4.22-35.824-6.062-52.008-.7-.384-1.144-1.066-2.936-3.08a77.526,77.526,0,0,1-10.986-15.928c-1.644-.094-13.518-5.871-19.409-19.027-.17-.379-.935-2.16-1.044-2.558A3.046,3.046,0,0,1,286,1386.709Z" transform="translate(-270.533 -1298.9)" fill="#184655"/>
          <path id="Path_842" data-name="Path 842" d="M474.189,1152.133q-.2-2.653-.206-5.417c0-20.523,8.711-37.161,19.456-37.161s19.456,16.637,19.456,37.161q0,2.76-.206,5.417Z" transform="translate(-420.587 -1082.954)" fill="#3c8f7c"/>
          <path id="Path_843" data-name="Path 843" d="M365.158,1037.878q-.2-3.741-.206-7.64c0-28.943,8.711-52.407,19.456-52.407s19.456,23.463,19.456,52.407q0,3.893-.206,7.64Z" transform="translate(-333.575 -977.831)" fill="#50bfa5"/>
          <path id="Path_844" data-name="Path 844" d="M248.286,1265.929q.2-2.652.206-5.417c0-20.523-8.711-37.161-19.456-37.161s-19.456,16.637-19.456,37.161q0,2.761.206,5.417Z" transform="translate(-209.58 -1173.768)" fill="#50bfa5"/>
          <path id="Path_845" data-name="Path 845" d="M361.527,1196.9q.257-3.741.261-7.64c0-28.943-11.043-52.406-24.664-52.406s-24.664,23.463-24.664,52.406q0,3.893.261,7.64Z" transform="translate(-291.683 -1104.738)" fill="#3c8f7c"/>
          <path id="Path_846" data-name="Path 846" d="M375.171,1136.852c6.808,0,12.89,7.443,16.9,19.117a13.824,13.824,0,0,1,6.467-1.649c12.087,0,21.885,16.637,21.885,37.161q0,2.76-.231,5.417H353.517q-.228-3.741-.231-7.64C353.286,1160.315,363.084,1136.852,375.171,1136.852Z" transform="translate(-324.265 -1104.738)" fill="#50bfa5"/>
        </g>
        <g id="Group_765" data-name="Group 765" transform="translate(1641.708 78.692)">
          <g id="Group_764" data-name="Group 764" transform="translate(11.078 76.555)">
            <path id="Path_847" data-name="Path 847" d="M2995.1,1389.568a211.024,211.024,0,0,0,7.493-22.032c6.093-23.2,4.622-40.1,4.395-48.233-.03-1.074,1.693-1.369,1.844-.26a90.311,90.311,0,0,1,.658,11.542,145.753,145.753,0,0,1-1.186,19.514c4.469,1.164,8.7-.579,12.155-3.71,5.963-5.4,8.091-12.59,9.028-20.559.1-.814.125-1.584.788-2.055a.462.462,0,0,1,.909.077c.945.971.487,2.921.341,4.175-1.968,16.971-12.283,25.2-20.59,25.125a11.913,11.913,0,0,1-3.009-.328q-.9,6.089-2.31,12.08a175.756,175.756,0,0,1-7.082,22.2c-9.472,24.846-12.493,37.539-15.185,44.731a1.13,1.13,0,1,1-2.171-.623C2981.309,1430.692,2988.7,1406.213,2995.1,1389.568Z" transform="translate(-2956.989 -1318.342)" fill="#29446d"/>
            <path id="Path_848" data-name="Path 848" d="M2861.736,1329.73c.09-.535.4-.889.521-1.39.157-.661,1.235-.727,1.347,0,.065.416.295.671.385,1.1.289,1.374-.41,9.1,1.413,20.936a51.981,51.981,0,0,0,2.067,9.273c1.693,4.852,4.777,10.082,8.613,13.387a202.765,202.765,0,0,1,1.367-20.737q.747-6.181,1.887-12.3.557-2.978,1.2-5.935a22.655,22.655,0,0,1,1.871-5.928.629.629,0,0,1,1.171.33,24.655,24.655,0,0,1-.746,5.314q-.573,2.665-1.072,5.348a200.051,200.051,0,0,0-3.381,38.279,80.591,80.591,0,0,0,16.431-40.143q.372-3.312.446-6.65.037-1.726.071-3.452c.012-.592.239-2.377,1.236-1.854.917.481.83,1.555.907,2.493.084,1.023.091,2.043.078,3.069q-.037,2.947-.312,5.884a82.931,82.931,0,0,1-14.8,39.664,41.14,41.14,0,0,1-4.025,5.153c.347,22.686,3.789,52.932,3.848,55.222.013.506,0,.375-.187.563-.736.736-1.6.978-1.876.188-.522-1.495-.437-2.9-1.216-11.171-1.389-14.758-2.947-48.566-2.94-49.936-4.829-3.469-8.248-8.805-10.482-14.379a43.334,43.334,0,0,1-2.4-9.151C2861.387,1342.191,2861.443,1331.481,2861.736,1329.73Z" transform="translate(-2861.579 -1323.824)" fill="#29446d"/>
          </g>
          <path id="Path_849" data-name="Path 849" d="M3025.607,1100.377a45.043,45.043,0,0,1-.278-5.007c0-18.971,11.789-34.35,26.331-34.35s26.332,15.379,26.332,34.35a44.984,44.984,0,0,1-.279,5.007Z" transform="translate(-2981.182 -1036.431)" fill="#4e9b87"/>
          <path id="Path_850" data-name="Path 850" d="M2878.045,994.765q-.275-3.458-.279-7.062c0-26.754,11.789-48.443,26.332-48.443s26.332,21.689,26.332,48.443q0,3.6-.278,7.062Z" transform="translate(-2863.419 -939.26)" fill="#50bfa5"/>
          <path id="Path_851" data-name="Path 851" d="M2873.132,1141.757a70.568,70.568,0,0,0,.353-7.062c0-26.754-14.945-48.443-33.38-48.443s-33.38,21.688-33.38,48.443a70.5,70.5,0,0,0,.353,7.062Z" transform="translate(-2806.724 -1056.567)" fill="#4e9b87"/>
          <path id="Path_852" data-name="Path 852" d="M2891.6,1086.252c9.214,0,17.445,6.88,22.878,17.671a25.877,25.877,0,0,1,8.752-1.524c16.358,0,29.619,15.379,29.619,34.35a40.088,40.088,0,0,1-.313,5.008h-90.243q-.309-3.458-.313-7.062C2861.978,1107.94,2875.239,1086.252,2891.6,1086.252Z" transform="translate(-2850.82 -1056.567)" fill="#50bfa5"/>
        </g>
        <rect id="Rectangle_114" data-name="Rectangle 114" width="1734.065" height="1.648" transform="translate(0 268.13)" fill="#1a2538"/>
      </g>
    </g>
  </g>
</svg>
