<svg width="25" height="24" viewBox="0 0 25 24" fill="none" xmlns="http://www.w3.org/2000/svg">
<path d="M20.5566 14.1935C20.9 13.8534 20.9027 13.2994 20.5626 12.9561C20.2226 12.6127 19.6685 12.61 19.3252 12.9501L20.5566 14.1935ZM12.4409 20.9998L11.8252 21.6215C12.1662 21.9592 12.7156 21.9592 13.0566 21.6215L12.4409 20.9998ZM5.55665 12.9501C5.21329 12.61 4.65928 12.6127 4.31922 12.9561C3.97917 13.2994 3.98184 13.8534 4.32519 14.1935L5.55665 12.9501ZM4.33065 14.1989C4.67698 14.5359 5.23095 14.5284 5.56797 14.1821C5.90499 13.8357 5.89743 13.2817 5.5511 12.9447L4.33065 14.1989ZM12.4409 7.00583L11.7386 7.52778C11.9032 7.74921 12.1625 7.88006 12.4384 7.88082C12.7143 7.88159 12.9744 7.75219 13.1402 7.53168L12.4409 7.00583ZM19.3277 12.9536C18.983 13.2922 18.978 13.8462 19.3166 14.191C19.6553 14.5357 20.2093 14.5407 20.554 14.2021L19.3277 12.9536ZM19.3252 12.9501L11.8252 20.3781L13.0566 21.6215L20.5566 14.1935L19.3252 12.9501ZM13.0566 20.3781L5.55665 12.9501L4.32519 14.1935L11.8252 21.6215L13.0566 20.3781ZM5.5511 12.9447C4.43842 11.862 4.02792 10.2462 4.48889 8.76366L2.81781 8.24406C2.16128 10.3555 2.74592 12.6568 4.33065 14.1989L5.5511 12.9447ZM4.48889 8.76366C4.94986 7.28113 6.20421 6.18299 7.73468 5.92208L7.44059 4.19697C5.26084 4.56856 3.47434 6.13258 2.81781 8.24406L4.48889 8.76366ZM7.73468 5.92208C9.26514 5.66118 10.8125 6.28171 11.7386 7.52778L13.1431 6.48387C11.8241 4.70917 9.62034 3.82538 7.44059 4.19697L7.73468 5.92208ZM13.1402 7.53168C14.0702 6.29483 15.6143 5.68254 17.1392 5.94588L17.437 4.22141C15.2651 3.84634 13.0661 4.7184 11.7415 6.47997L13.1402 7.53168ZM17.1392 5.94588C18.6641 6.20922 19.9133 7.3039 20.3746 8.78102L22.0451 8.25933C21.3881 6.15555 19.6088 4.59647 17.437 4.22141L17.1392 5.94588ZM20.3746 8.78102C20.836 10.2581 20.4317 11.8692 19.3277 12.9536L20.554 14.2021C22.1264 12.6577 22.7021 10.3631 22.0451 8.25933L20.3746 8.78102Z" fill="#6A6678"/>
</svg>
