<svg width="308" height="180" viewBox="0 0 308 180" fill="none" xmlns="http://www.w3.org/2000/svg">
<g clip-path="url(#clip0_2965_3685)">
<path d="M297.131 178.704C291.443 178.704 279.787 179.214 279.663 179.447H250.276L241.676 179.424H164.661L142.169 179.401H82.8762L58.1116 179.378H13.3268C13.3268 179.378 13.2527 179.191 13.1044 178.819L13.0797 178.773C13.0797 178.773 13.055 178.727 13.055 178.703C12.9561 178.516 -24.2123 104.5 37.1556 68.0125C61.166 53.7346 48.513 25.228 84.0516 7.95854C129.872 -14.3066 142.361 18.0444 196.543 10.2225C243.6 3.42954 265.042 25.0649 261.739 57.2399C260.188 72.3538 270.838 83.9386 281.345 86.0159C310.328 91.7487 309.29 125.326 306.92 149.997C305.459 165.207 297.331 178.704 297.131 178.704Z" fill="#EBF3FA"/>
<g opacity="0.5">
<path d="M230.054 50.793L227.911 49.5033C227.734 49.3939 227.633 49.1954 227.649 48.9883C227.67 48.7233 227.681 48.4561 227.681 48.1868C227.681 47.6846 227.646 47.1943 227.569 46.7168C227.534 46.4936 227.635 46.2726 227.829 46.1578L230.068 44.808C230.309 44.6664 230.399 44.3606 230.274 44.1074L229.22 41.9636C229.099 41.7211 228.818 41.6095 228.564 41.6985L226.301 42.5194C226.082 42.6041 225.833 42.5301 225.686 42.3391C225.064 41.5344 224.312 40.8305 223.463 40.2554C223.258 40.1159 223.174 39.8488 223.258 39.617L223.761 38.2425C223.853 37.9807 223.739 37.6856 223.488 37.5612L221.355 36.5193C221.311 36.4979 221.268 36.4807 221.221 36.4732C221.003 36.4271 220.771 36.5247 220.652 36.7243L219.686 38.3219L219.45 38.7114C219.011 38.6492 218.557 38.6159 218.101 38.6159C217.486 38.6159 216.882 38.6728 216.304 38.7822C216.083 38.823 215.86 38.7275 215.745 38.5344L214.657 36.7318C214.507 36.4861 214.195 36.3938 213.94 36.5215L212.298 37.3262L211.829 37.558C211.572 37.6835 211.449 37.9829 211.547 38.2511L212.233 40.1406C212.314 40.3584 212.249 40.6041 212.068 40.7458C211.535 41.1792 211.05 41.6674 210.623 42.2018C210.582 42.2458 210.549 42.2887 210.513 42.3359C210.503 42.352 210.489 42.3659 210.475 42.3799C210.324 42.5408 210.092 42.5923 209.885 42.5161L207.648 41.7061C207.623 41.6953 207.597 41.69 207.572 41.6846C207.331 41.6352 207.08 41.7554 206.968 41.9797L205.925 44.1009C205.799 44.3574 205.889 44.6653 206.135 44.8155L208.372 46.16C208.563 46.2715 208.661 46.4904 208.626 46.7082C208.552 47.1879 208.514 47.6814 208.514 48.1868C208.514 48.454 208.525 48.719 208.546 48.9808C208.562 49.1932 208.459 49.3982 208.276 49.5076L206.124 50.8059C205.886 50.9475 205.796 51.2501 205.918 51.5012L206.964 53.6203C207.089 53.8767 207.387 53.9991 207.66 53.9014L209.451 53.2523C209.692 53.1654 209.956 53.2523 210.098 53.4626C210.647 54.2941 211.324 55.0334 212.099 55.6579C212.285 55.8027 212.356 56.0538 212.274 56.277L211.543 58.2899C211.444 58.5602 211.567 58.8596 211.824 58.9884L213.941 60.027C214.194 60.1525 214.504 60.0602 214.646 59.8199L214.703 59.7276L215.825 57.8703C215.946 57.6718 216.172 57.5699 216.401 57.6117H216.404C216.953 57.7094 217.518 57.762 218.098 57.762C218.406 57.762 218.709 57.7459 219.012 57.718C219.222 57.6965 219.424 57.7974 219.534 57.9765L220.637 59.807C220.788 60.0581 221.107 60.1504 221.367 60.0227L223.48 58.9841C223.54 58.954 223.592 58.9132 223.636 58.8693C223.776 58.7223 223.827 58.5012 223.756 58.3017L223.205 56.7931C223.14 56.6074 223.178 56.4004 223.301 56.2534C223.333 56.2147 223.372 56.1793 223.416 56.1493C224.481 55.44 225.391 54.527 226.097 53.4604C226.215 53.278 226.434 53.19 226.643 53.2254C226.673 53.2308 226.703 53.2394 226.734 53.2501L228.544 53.9079C228.806 54.0033 229.098 53.8864 229.224 53.6353L229.249 53.586L230.267 51.5184C230.396 51.2533 230.304 50.9432 230.054 50.793ZM213.133 46.7157C213.237 46.3477 213.379 45.9743 213.565 45.5999C213.919 44.8885 214.796 44.0076 215.512 43.6556C215.588 43.617 215.664 43.5816 215.74 43.5462C220.42 41.4464 224.935 46.0366 222.666 50.7136C222.368 51.3241 221.71 52.042 221.068 52.4862C220.918 52.587 220.771 52.6772 220.631 52.7426C219.978 53.0591 219.329 53.2448 218.695 53.3156C215.085 53.7158 212.114 50.4025 213.133 46.7157Z" fill="#AFCDFB"/>
</g>
<path d="M137.94 39.9622L132.62 37.4986C132.18 37.2894 131.894 36.8506 131.879 36.3645C131.863 35.7433 131.821 35.1177 131.752 34.489C131.625 33.3205 131.418 32.1853 131.119 31.093C130.98 30.5812 131.159 30.0415 131.582 29.725L136.457 26.0157C136.981 25.6252 137.113 24.8902 136.757 24.3312L133.759 19.6037C133.417 19.0683 132.734 18.8794 132.166 19.153L127.1 21.6359C126.612 21.888 126.015 21.7786 125.624 21.3719C123.97 19.6552 122.043 18.2056 119.919 17.079C119.406 16.8065 119.142 16.2056 119.281 15.6444L120.104 12.3161C120.254 11.683 119.912 11.0253 119.296 10.7968L114.065 8.90834C113.957 8.86864 113.852 8.84181 113.741 8.8343C113.22 8.78173 112.704 9.06821 112.482 9.56177L110.634 13.5275L110.186 14.4953C109.146 14.4599 108.082 14.4985 107.02 14.6133C105.589 14.7678 104.197 15.0543 102.877 15.4534C102.372 15.6047 101.826 15.4384 101.51 15.0167L98.5235 11.0918C98.112 10.5575 97.3632 10.4201 96.798 10.7839L93.1784 13.0715L92.1427 13.7303C91.5765 14.0876 91.3659 14.8172 91.6624 15.4148L93.7371 19.6445C93.9831 20.1316 93.8929 20.7206 93.5083 21.0962C92.378 22.24 91.3691 23.4996 90.5118 24.8526C90.428 24.9642 90.3624 25.0747 90.2915 25.1917C90.27 25.2325 90.2421 25.2679 90.2131 25.3033C89.9037 25.7164 89.3762 25.8956 88.8733 25.77L83.4595 24.4471C83.3993 24.4277 83.3349 24.4224 83.2758 24.4159C82.7031 24.3623 82.1488 24.7046 81.9446 25.2539L80.0515 30.4589C79.8238 31.0877 80.1117 31.7829 80.722 32.0705L86.2712 34.6381C86.745 34.8506 87.0286 35.3334 87.0018 35.8506C86.9513 36.9868 86.9867 38.1467 87.1146 39.3216C87.1823 39.9439 87.2747 40.5577 87.3918 41.1617C87.4842 41.6532 87.294 42.1553 86.8954 42.4557L82.2111 46.0223C81.6932 46.4129 81.56 47.1403 81.9102 47.694L84.882 52.3657C85.2398 52.9311 85.9639 53.1414 86.5752 52.8442L90.5838 50.8807C91.121 50.6167 91.7602 50.753 92.1438 51.2069C93.6329 53.0062 95.397 54.5567 97.361 55.8153C97.8305 56.105 98.0594 56.6715 97.9251 57.2133L96.7293 62.0857C96.5681 62.7391 96.9302 63.4065 97.5608 63.6404L102.753 65.5267C103.376 65.7552 104.072 65.4612 104.342 64.8657L104.453 64.6351L106.598 60.0267C106.827 59.5331 107.329 59.2402 107.874 59.2777L107.88 59.2767C109.184 59.3668 110.514 59.3453 111.862 59.1994C112.581 59.1211 113.282 59.0073 113.982 58.8668C114.466 58.7627 114.962 58.9473 115.262 59.3389L118.294 63.3228C118.708 63.869 119.475 64.0052 120.047 63.6404L124.707 60.6876C124.84 60.6028 124.95 60.4945 125.04 60.3818C125.327 60.0041 125.393 59.4762 125.177 59.0299L123.511 55.6565C123.311 55.2412 123.347 54.7487 123.596 54.3743C123.663 54.2766 123.744 54.1844 123.837 54.1039C126.138 52.1833 128.025 49.826 129.404 47.1639C129.631 46.709 130.118 46.4504 130.617 46.4794C130.687 46.4847 130.759 46.4955 130.832 46.5137L135.216 47.5877C135.851 47.7444 136.502 47.3968 136.731 46.7809L136.776 46.6607L138.626 41.5888C138.851 40.9493 138.556 40.2487 137.94 39.9622ZM97.4921 34.7336C97.6403 33.8495 97.8767 32.9439 98.2151 32.0265C98.8619 30.2786 100.681 28.0061 102.259 27.0061C102.428 26.8977 102.596 26.7958 102.766 26.6938C113.137 20.6219 124.812 30.1746 120.709 41.6414C120.169 43.1392 118.818 44.9761 117.436 46.1736C117.111 46.4461 116.791 46.6929 116.483 46.8807C115.042 47.782 113.576 48.3775 112.118 48.7026C103.809 50.547 96.0513 43.5781 97.4921 34.7336Z" fill="#CDE0FB"/>
<path opacity="0.6" d="M225.223 160.025C223.516 160.672 212.208 161.858 212.674 163.288C213.141 164.718 221.042 166.161 225.14 164.341C225.14 164.341 221.816 176.463 215.589 176.604C209.361 176.745 207.004 173.162 203.157 173.32C199.31 173.477 196.644 174.831 198.671 175.631C200.699 176.432 207.07 174.981 210.459 177.232C210.956 177.563 211.438 177.873 211.881 178.168C212.147 178.346 212.401 178.518 212.634 178.685H189.98C189.981 178.501 189.979 178.329 189.975 178.168C189.955 177.216 189.874 176.67 189.874 176.67C189.874 176.67 178.15 171.817 182.293 162.864C182.293 162.864 185.793 157.255 190.037 155.418C190.037 155.418 189.163 168.142 191.544 168.157C193.926 168.174 191.493 153.908 191.493 153.908C191.493 153.908 202.419 146.977 207.017 146.88C207.017 146.88 201.269 159.882 203.581 159.312C205.892 158.743 212.502 145.49 212.502 145.49C212.502 145.49 224.119 141.893 226.858 148.697C229.596 155.5 226.931 159.378 225.223 160.025Z" fill="#AFCDFB"/>
<path d="M82.7505 169.61C77.7438 164.545 85.4418 155.608 85.4418 155.608C85.4418 155.608 99.8107 154.854 101.212 153.02C102.613 151.185 88.8014 151.269 88.8014 151.269C90.6655 147.218 101.068 140.184 101.068 140.184C101.068 140.184 112.844 147.859 113.75 145.736C114.655 143.613 102.976 139.471 102.976 139.471C106.254 136.409 112.607 135.466 112.607 135.466C122.189 135.242 121.983 147.542 121.983 147.542C121.983 147.542 126.121 150.114 132.466 150.325C132.466 150.325 133.699 150.258 135.562 150.543L134.972 151.555C134.652 151.48 134.337 151.418 134.026 151.373C134.023 151.372 134.022 151.372 134.02 151.372C134.016 151.371 134.012 151.371 134.006 151.369C133.81 151.348 133.528 151.318 133.184 151.285H133.183C133.182 151.285 133.182 151.285 133.181 151.285C132.396 151.242 131.826 151.19 131.426 151.134C131.425 151.134 131.423 151.134 131.422 151.133C128.981 150.954 125.726 150.847 124.687 151.435C124.687 151.435 124.595 151.231 124.349 150.948C124.456 151.103 124.569 151.264 124.687 151.435C127.392 155.327 122.965 164.344 119.161 168.592C115.358 172.838 115.222 169.945 114.525 166.062C113.828 162.179 117.584 157.075 117.654 154.964C117.725 152.852 115.488 154.698 113.86 158.057C112.234 161.417 114.516 164.897 111.982 170.379C109.449 175.862 97.3589 174.13 97.3589 174.13C100.565 171.191 102.332 163.608 101.239 162.641C100.145 161.673 94.7159 171.269 93.4793 172.537C92.2438 173.805 87.7582 174.674 82.7505 169.61Z" fill="#DFEBF9"/>
<path d="M84.3942 110.009C85.5868 105.1 93.8628 106.405 93.8628 106.405C93.8628 106.405 99.6817 114.787 101.315 114.947C102.947 115.107 97.7403 106.811 97.7403 106.811C100.884 106.422 109.019 110.068 109.019 110.068C109.019 110.068 108.775 120.033 110.397 119.787C112.018 119.542 110.161 110.952 110.161 110.952C113.236 111.785 116.178 115.265 116.178 115.265C119.891 120.959 112.378 125.426 112.378 125.426C112.378 125.426 112.368 128.881 114.608 132.785C114.608 132.785 115.11 133.504 115.632 134.734L114.8 134.756C114.726 134.535 114.646 134.322 114.558 134.118C114.558 134.117 114.557 134.116 114.555 134.115C114.554 134.111 114.553 134.109 114.551 134.106C114.491 133.979 114.404 133.799 114.297 133.579C114.297 133.579 114.297 133.579 114.297 133.578C114.297 133.578 114.295 133.578 114.295 133.577C114.028 133.087 113.846 132.725 113.731 132.462C113.731 132.461 113.73 132.461 113.73 132.46C112.928 130.921 111.777 128.918 111.034 128.512C111.034 128.512 111.122 128.38 111.201 128.126C111.148 128.25 111.092 128.377 111.034 128.512C109.691 131.596 102.587 132.293 98.5998 131.585C94.6127 130.877 96.3113 129.714 98.3989 127.845C100.486 125.976 104.973 126.335 106.275 125.589C107.578 124.843 105.627 124.183 102.989 124.457C100.35 124.73 99.0983 127.405 94.8383 127.925C90.5784 128.444 87.1113 120.508 87.1113 120.508C90.0842 121.344 95.3283 119.579 95.5055 118.559C95.6817 117.538 87.8548 117.847 86.6268 117.575C85.402 117.299 83.2027 114.919 84.3942 110.009Z" fill="#DFEBF9"/>
<path opacity="0.5" d="M223.043 125.698C228.053 121.454 221.711 112.622 221.711 112.622C221.711 112.622 208.577 110.763 207.439 108.965C206.302 107.167 218.978 108.364 218.978 108.364C217.597 104.494 208.617 97.1903 208.617 97.1903C208.617 97.1903 197.179 103.283 196.519 101.26C195.86 99.2375 206.923 96.3812 206.923 96.3812C204.162 93.3029 198.405 91.922 198.405 91.922C189.624 90.9381 188.813 102.25 188.813 102.25C188.813 102.25 184.803 104.276 178.961 103.955C178.961 103.955 177.834 103.793 176.1 103.904L176.558 104.88C176.858 104.837 177.154 104.806 177.443 104.789C177.445 104.788 177.446 104.788 177.448 104.789C177.452 104.789 177.457 104.789 177.461 104.788C177.644 104.784 177.904 104.779 178.223 104.776H178.224C178.225 104.776 178.225 104.776 178.225 104.776C178.95 104.8 179.476 104.8 179.849 104.78C179.85 104.78 179.851 104.78 179.852 104.78C182.109 104.814 185.107 104.98 186.013 105.603C186.013 105.603 186.114 105.424 186.363 105.184C186.251 105.318 186.135 105.457 186.013 105.603C183.212 108.957 186.544 117.597 189.691 121.806C192.837 126.016 193.197 123.369 194.154 119.859C195.11 116.35 192.076 111.359 192.183 109.415C192.291 107.469 194.194 109.346 195.415 112.563C196.635 115.779 194.257 118.79 196.137 124.031C198.017 129.271 209.261 128.663 209.261 128.663C206.556 125.704 205.55 118.597 206.633 117.798C207.717 116.998 211.92 126.249 212.952 127.514C213.985 128.779 218.033 129.942 223.043 125.698Z" fill="#AFCDFB"/>
<path d="M98.4751 78.3288C97.9293 79.7955 96.9817 81.4983 95.989 81.9211C94.863 82.4007 94.3925 83.0788 94.3925 83.0788L93.4824 82.552L92.3962 81.9211C92.3962 81.9211 92.422 81.8009 92.4747 81.6046C92.5273 81.4093 92.609 81.1368 92.7186 80.8353C92.7186 80.8353 93.0516 80.4071 92.8475 79.8696C92.6434 79.3331 92.6842 78.5026 93.0323 77.9962C93.3804 77.4908 93.7167 76.2451 93.9272 76.2816C94.4354 76.3685 93.678 78.082 93.895 78.3996C94.0916 78.6872 94.3377 78.5885 94.3828 78.567C94.386 78.5649 94.3882 78.5638 94.3914 78.5627C95.8171 77.9372 97.5458 74.5627 98.3107 75.0176C98.5965 75.1882 98.7072 77.7043 98.4751 78.3288Z" fill="#FFB27D"/>
<path d="M93.5437 80.3723L95.3293 81.6255C95.455 81.7146 95.6312 81.6834 95.7193 81.5579L100.293 75.0579C100.382 74.9323 100.351 74.7564 100.225 74.6684L98.4397 73.4152C98.314 73.3261 98.1378 73.3572 98.0497 73.4827L93.476 79.9828C93.3868 80.1083 93.418 80.2832 93.5437 80.3723Z" fill="#2B478B"/>
<path d="M95.1789 81.5193L96.2254 82.2543C96.321 82.3219 96.4553 82.2983 96.523 82.2028L101.174 75.5933C101.242 75.4978 101.218 75.3637 101.122 75.2961L100.076 74.5611C99.9803 74.4935 99.846 74.5171 99.7784 74.6126L95.1273 81.2221C95.0586 81.3186 95.0822 81.4517 95.1789 81.5193Z" fill="#233862"/>
<path d="M67.9292 71.0449C67.9292 71.0449 77.0142 86.8701 80.3104 89.7822L92.3962 80.7832C92.3962 80.7832 94.1496 81.3207 94.9178 83.0783C94.9178 83.0783 87.5787 98.0107 80.3523 98.6438C73.126 99.2768 62.9849 80.7456 62.9849 80.7456L67.9292 71.0449Z" fill="#233862"/>
<path d="M47.3685 178.682H42.1191C41.4583 178.323 40.8695 177.503 40.6837 176.279C40.4269 174.591 38.5317 173.67 38.1213 172.288C37.7119 170.907 39.8123 168.963 39.8123 168.963L40.1637 168.51L40.529 168.04L44.0132 168.86C44.0132 168.86 44.0992 169.688 44.1518 170.744C44.1894 171.506 44.2098 172.386 44.1668 173.157C44.0648 174.998 44.6825 176.983 46.321 177.342C47.534 177.608 47.4803 178.326 47.3685 178.682Z" fill="#233862"/>
<path d="M77.834 178.683H65.8298C65.2529 177.979 65.4656 175.382 65.5526 174.535C65.5709 174.364 65.5827 174.264 65.5827 174.264C65.5827 174.264 69.6826 170.989 70.2456 173.497C70.2628 173.575 70.2832 173.653 70.3068 173.729C71.0159 176.074 74.1982 177.14 76.0354 177.437C77.2291 177.63 77.6707 178.25 77.834 178.683Z" fill="#233862"/>
<path d="M75.5465 111.76C75.5465 111.76 74.9244 119.517 74.1927 128.84C73.1979 141.505 72.0021 157.061 71.8839 160.009C71.6798 165.127 70.8589 173.312 70.8589 173.312C70.8589 173.312 68.9132 175.257 65.0186 174.438C65.0186 174.438 61.5483 162.752 60.5566 150.388C60.5416 150.186 60.5255 149.982 60.5104 149.778C59.5886 137.191 58.1543 110.688 58.1543 110.688L75.5465 111.76Z" fill="#F99746"/>
<path d="M75.5465 111.761C75.5465 111.761 74.9244 119.517 74.1927 128.84L60.5566 150.387C60.5416 150.185 60.5255 149.981 60.5104 149.777C59.5886 137.19 58.1543 110.687 58.1543 110.687L75.5465 111.761Z" fill="#ED7D2B"/>
<path d="M72.7037 112.682C72.7037 112.682 61.4838 140.771 54.106 153.972C46.7282 167.172 44.4226 170.856 44.4226 170.856C44.4226 170.856 40.1959 169.167 39.8113 168.016C39.8113 168.016 42.6326 142.532 47.5727 136.319C50.3639 132.809 53.644 122.274 53.7977 118.591C53.9513 114.907 54.7968 107.615 54.7968 107.615L72.7037 112.682Z" fill="#F99746"/>
<path d="M69.9115 71.7338C65.5269 73.1157 57.9407 69.3861 57.9407 69.3861C57.9407 69.3861 61.9836 66.356 61.7719 60.0566L65.1616 62.7852L67.464 64.6382C67.464 64.6382 67.4544 65.7305 67.203 67.6457C67.1364 68.149 67.0536 68.7112 66.9494 69.3239C68.8317 70.355 69.9115 71.7338 69.9115 71.7338Z" fill="#FFB27D"/>
<path d="M67.464 64.6374C67.464 64.6374 67.4543 65.7297 67.2029 67.6449C64.6512 67.2082 61.7568 63.0891 61.7568 63.0891C63.0558 62.7146 64.1935 62.647 65.1616 62.7844L67.464 64.6374Z" fill="#ED975D"/>
<path d="M68.8048 64.5339C68.8048 64.5339 61.5623 65.7356 60.8833 61.2195C60.2032 56.7034 58.8108 53.8182 63.406 52.86C68.0011 51.9018 69.1615 53.4898 69.7545 54.9416C70.3487 56.3944 70.671 64.1047 68.8048 64.5339Z" fill="#FFB27D"/>
<path d="M76.0312 112.406C75.899 112.516 75.7465 112.581 75.5703 112.581C73.9243 112.559 69.1229 113.472 65.0606 113.055C61.6355 112.727 58.6046 111.714 55.3492 110.257C54.9173 110.064 53.9225 109.533 53.9439 109.051C53.959 108.523 54.0106 107.756 54.0772 106.791C54.3071 103.436 54.7089 97.6637 54.3178 91.006C54.2469 89.7656 54.2104 88.536 54.2061 87.3257C54.1728 78.3009 55.9649 70.3631 59.5651 67.6775C59.8724 67.4575 61.7612 68.3792 63.4952 69.2333C65.0982 70.023 66.7012 70.1099 68.215 69.8041L69.7299 71.141C71.5746 72.8513 73.5945 75.1754 74.4723 78.7055C75.219 81.7087 75.6584 87.1261 75.8991 92.7388C76.0086 95.2828 76.0967 97.8483 76.1193 100.282V100.369C76.1408 100.61 76.1408 100.874 76.1408 101.114C76.2289 107.363 76.1408 112.318 76.0312 112.406Z" fill="#2B478B"/>
<path d="M54.0759 106.792C54.3058 103.437 54.7077 97.664 54.3166 91.0063C54.2457 89.7659 54.2091 88.5363 54.2049 87.326C55.7047 83.6918 56.9306 81.0566 56.9306 81.0566H60.7113C60.7113 81.0566 63.4833 99.9634 54.0759 106.792Z" fill="#233862"/>
<path d="M34.7102 128.22L50.8346 130.515C52.9328 130.814 54.8947 129.344 55.1934 127.248L56.1893 120.27C56.488 118.174 55.0161 116.215 52.9178 115.917L36.7934 113.621C34.6951 113.323 32.7333 114.793 32.4346 116.889L31.4387 123.867C31.14 125.963 32.6119 127.921 34.7102 128.22Z" fill="#233862"/>
<path d="M53.8278 117.996C53.3745 116.862 52.3968 115.968 51.1569 115.664H51.1558C51.1548 115.664 51.1537 115.664 51.1526 115.663C51.0312 115.634 50.9077 115.609 50.7809 115.591L47.5706 115.135L47.7855 113.629C47.8338 113.293 47.7479 112.957 47.5427 112.684C47.3375 112.412 47.0388 112.235 46.7025 112.188L45.8645 112.068L42.4931 111.589L41.885 111.503C41.1888 111.404 40.5398 111.889 40.4421 112.585L40.2272 114.091L34.6855 113.302C32.5797 113.003 30.6103 114.478 30.3095 116.581L29.3028 123.64C29.003 125.743 30.4803 127.71 32.5861 128.01L48.6815 130.3C48.9652 130.341 49.2467 130.349 49.5206 130.327H49.5217C49.5228 130.327 49.5228 130.327 49.5238 130.327C49.9643 130.294 50.3877 130.184 50.7798 130.011C51.9627 129.489 52.8609 128.387 53.0575 127.02L54.0653 119.961C54.162 119.273 54.0707 118.601 53.8278 117.996ZM41.2339 112.697C41.264 112.487 41.4294 112.327 41.6303 112.295C41.6765 112.287 41.7249 112.286 41.7732 112.293L42.4888 112.395L45.1425 112.773L46.5886 112.979C46.8486 113.016 47.0302 113.258 46.9937 113.517L46.7788 115.023L41.019 114.203L41.2339 112.697Z" fill="#2B478B"/>
<path d="M46.9722 107.441C46.9722 107.441 46.1255 108.567 46.0922 109.017C45.8645 112.067 47.2601 112.489 43.6469 114.184C43.6469 114.184 42.1041 114.772 42.0783 113.576C42.0525 112.38 43.1495 112.36 42.9486 110.685C42.7176 108.754 42.7402 108.736 44.0101 107.727L44.8503 106.34L46.9722 107.441Z" fill="#FFB27D"/>
<path d="M44.818 108.305C46.1793 108.57 47.6555 108.462 47.6555 108.462C47.6555 108.462 51.6973 95.9933 52.2173 94.8538C52.7373 93.7143 64.2225 80.2335 64.2225 80.2335L59.4383 68.2764C59.4383 68.2764 47.0162 88.9986 45.7549 91.9106C43.6706 96.7218 42.9475 107.511 42.9475 107.511C42.9475 107.511 43.749 108.096 44.818 108.305Z" fill="#2B478B"/>
<path d="M60.8769 60.785C60.8769 60.785 61.6204 60.6605 61.5 59.639C61.3797 58.6165 61.3818 57.2806 62.2134 57.5296C63.0461 57.7785 63.0869 58.4437 63.4296 58.0553C63.7713 57.6669 63.7777 56.0296 66.2542 55.9158C68.7307 55.8021 69.7374 56.6626 70.888 56.1573C72.0398 55.6519 72.0999 53.9105 72.0999 53.9105C72.0999 53.9105 71.7722 54.5317 71.278 54.7302C71.278 54.7302 73.199 52.1057 70.975 50.3064C68.7511 48.507 66.483 49.6851 65.1948 49.7624C62.3585 49.934 60.5266 50.1036 59.6005 51.9652C58.6744 53.8257 59.0569 58.9931 60.8769 60.785Z" fill="#2B478B"/>
<path d="M45.6357 108.783C45.6357 108.783 46.4511 109.632 46.5027 109.985C46.6682 111.119 47.0474 111.608 46.8573 111.732C46.4619 111.988 45.9397 111.149 45.6905 110.396C45.4401 109.643 45.6357 108.783 45.6357 108.783Z" fill="#FFB27D"/>
<path d="M243.576 53.3512C243.576 53.3512 245.739 53.3512 247.977 54.7782C249.736 55.8995 253.716 61.5733 255.027 64.9489C256.338 68.3244 253.606 69.7858 255.558 71.7236C257.488 73.6378 260.123 79.038 255.65 81.6904C253.123 83.1883 248.627 78.5563 245.739 77.9028C242.851 77.2483 235.122 83.1947 233.089 81.3256C231.057 79.4565 229.021 76.244 235.128 72.1775C236.706 71.127 229.758 70.4704 232.732 62.9424C234.78 57.7514 238.426 53.2031 243.576 53.3512Z" fill="#233862"/>
<path d="M221.605 85.9358C221.605 85.8597 222.718 83.5603 222.365 83.3843C222.01 83.2073 221.376 83.2341 221.302 83.6375C221.228 84.0388 221.605 85.9358 221.605 85.9358Z" fill="#FFB27D"/>
<path d="M238.226 57.3594C238.226 57.3594 243.675 51.8776 247.132 56.8916C247.132 56.8916 249.266 56.2714 250.199 60.6556C251.151 65.1277 249.696 67.8616 248.157 67.0215C247.169 66.4829 246.422 68.2082 246.422 68.2082L238.226 57.3594Z" fill="#233862"/>
<path d="M230.128 99.0527C224.938 97.1428 219.939 88.2726 219.939 88.2726L221.576 87.1277C222.94 89.1192 229.073 92.9443 229.073 92.9443C229.213 91.2662 229.417 89.7426 229.668 88.3638C231.37 78.9893 235.266 76.2114 236.312 75.6223C236.48 75.5268 236.576 75.4893 236.576 75.4893C236.576 75.4893 236.573 75.5579 236.564 75.6888C236.549 75.971 236.516 76.5397 236.461 77.3187C236.055 83.1213 234.466 100.649 230.128 99.0527Z" fill="#FFB27D"/>
<path d="M255.215 108.625C252.651 102.881 251.424 101.258 251.382 99.4509C251.348 98.0217 252.053 96.4798 253.424 92.6998C253.747 91.8092 253.97 90.8929 254.107 89.9669C255.191 82.6782 250.952 74.7029 248.33 74.1664C247.196 73.8928 246.381 71.4378 246.396 67.1953L246.067 67.2597L240.543 68.352C240.543 68.352 240.669 70.088 240.672 71.7232C240.676 73.0859 240.903 74.5205 240.285 74.5398C239.887 74.5763 239.653 74.5999 239.653 74.5999C239.653 74.5999 235.048 80.9872 234.66 86.9272C234.272 92.8671 238.349 95.4487 234.629 107.319C230.832 119.443 256.631 111.799 255.215 108.625Z" fill="#FFB27D"/>
<path d="M240.542 68.352C240.542 68.352 240.668 70.0881 240.673 71.7233C243.764 71.6364 245.397 68.8209 246.066 67.2598L240.542 68.352Z" fill="#E8945B"/>
<path d="M246.636 66.6589C246.636 66.6589 248.257 64.1031 248.644 61.9175C248.922 60.3574 248.127 54.5741 242.307 55.4067C242.307 55.4067 240.617 55.573 239.028 56.6449C237.764 57.4969 235.941 59.337 237.98 64.3832L238.51 66.0881L246.636 66.6589Z" fill="#233862"/>
<path d="M239.511 69.901C239.511 69.901 246.823 70.0212 246.828 65.4729C246.834 60.9235 247.78 57.8763 243.112 57.607C238.443 57.3376 237.534 59.0726 237.163 60.5909C236.79 62.1081 237.608 69.7529 239.511 69.901Z" fill="#FFB27D"/>
<path d="M239.782 57.4953C239.782 57.4953 241.784 62.8323 244.857 63.6209C247.93 64.4096 249.262 63.5877 249.262 63.5877C249.262 63.5877 246.905 61.7175 246.416 58.4535C246.416 58.4535 241.291 54.9546 239.782 57.4953Z" fill="#233862"/>
<path d="M240.278 57.9277C240.278 57.9277 239.271 58.5275 238.427 59.8129C237.76 60.8279 237.095 61.7292 237.193 63.7389C237.193 63.7389 235.685 60.1112 237.38 58.0597C239.178 55.8848 240.278 57.9277 240.278 57.9277Z" fill="#233862"/>
<path d="M248.74 163.736C246.9 171.045 244.131 176.648 244.131 176.648L241.72 176.482C241.72 176.482 242.903 170.863 242.834 163.272C242.787 157.965 242.129 151.693 240.029 145.705C232.813 125.125 233.98 110.147 233.98 110.147L247.548 111.732L248.18 111.806C248.237 118.029 248.397 126.479 248.538 133.086C248.662 139.029 248.772 143.48 248.772 143.48C251.382 149.089 250.434 157.009 248.74 163.736Z" fill="#163560"/>
<path d="M264.726 114.725L262.531 115.383C262.531 115.383 255.289 103.383 254.631 100.26C254.416 99.2442 253.889 97.2098 253.275 94.9308C252.003 90.2108 250.362 84.4361 250.362 84.4361L249.822 82.0981L247.978 74.126C247.978 74.126 251.507 74.4865 253.572 75.3481C254.256 75.6324 254.778 75.9726 254.959 76.3717C256.476 79.7022 257.99 88.1078 259.055 94.1036C259.648 97.4459 260.1 100.039 260.337 100.589C260.994 102.123 263.005 110.562 264.726 114.725Z" fill="#FFB27D"/>
<path d="M256.525 162.569C255.745 170.885 252.309 176.261 252.309 176.261L251.157 177.098C251.157 177.098 250.067 171.24 249.296 164.27C248.561 157.645 247.553 150.634 246.413 148.495C241.888 140.009 240.526 107.974 240.526 107.974L254.284 107.293C255.668 109.616 256.27 113.426 256.413 117.758C256.775 128.69 254.202 142.947 253.818 145.009C253.818 145.01 253.818 145.011 253.817 145.014C253.786 145.174 253.833 145.331 253.907 145.475C256.643 150.886 257.039 157.077 256.525 162.569Z" fill="#1C468A"/>
<path d="M256.94 112.771C256.963 113.235 256.939 113.605 256.855 113.869C256.562 114.788 255.557 115.208 253.127 114.957C251.641 114.802 250.979 112.316 250.684 110.195C249.792 113.229 248.542 114.932 246.928 115.291C244.571 115.814 232.687 117.257 231.909 111.615C231.054 105.408 233.615 94.4202 233.756 88.4964C233.406 86.3955 233.287 84.5725 233.325 83.006C233.424 78.786 234.786 76.3332 235.739 75.3815C237.424 74.7409 240.097 74.5499 240.086 74.566C239.885 74.9255 239.204 77.0038 239.317 78.065C239.668 81.3601 243.072 81.0049 246.065 79.0113C248.276 77.5392 249.527 74.3311 249.527 74.3311C249.527 74.3311 253.942 74.6905 254.978 76.3793C256.958 79.6111 258.504 88.1992 259.743 94.2389C256.74 95.8913 254.115 95.3999 253.302 95.181C254.368 102.136 256.781 109.603 256.94 112.771Z" fill="#1f527d"/>
<path d="M221.575 87.1285C221.576 86.9032 221.764 83.6413 221.183 82.9557C220.602 82.2701 219.414 81.2958 219.041 81.3259C218.668 81.3559 217.207 83.2937 217.646 84.7787C218.085 86.2637 219.938 88.2733 219.938 88.2733L221.575 87.1285Z" fill="#FFB27D"/>
<path d="M224.242 83.1382L220.857 84.1511C220.745 84.1843 220.626 84.121 220.592 84.0083L218.657 77.563C218.624 77.4504 218.687 77.3323 218.8 77.2991L222.185 76.2862C222.297 76.2529 222.415 76.3162 222.449 76.4289L224.383 82.8742C224.418 82.9858 224.355 83.1038 224.242 83.1382Z" fill="#F1A34F"/>
<path d="M223.362 83.4013L220.291 84.3198C220.092 84.3799 219.882 84.2662 219.823 84.0677L217.982 77.9356C217.922 77.7371 218.036 77.5268 218.235 77.4678L221.305 76.5483C221.504 76.4882 221.715 76.6019 221.774 76.8004L223.614 82.9325C223.675 83.132 223.562 83.3413 223.362 83.4013Z" fill="#D86713"/>
<path d="M245.52 178.668H243.981C243.465 178.586 243.085 178.438 242.555 178.368C241.751 178.263 241.382 178.592 241.309 178.668C241.299 178.677 241.295 178.683 241.295 178.683H234.755C234.59 178.448 234.748 177.905 234.903 177.505C235.007 177.233 235.234 177.027 235.515 176.946C236.209 176.745 237.576 176.567 238.828 175.435C239.533 174.8 242.229 173.098 242.229 173.098L242.243 173.095C242.302 173.096 242.585 173.183 243.811 174.217C244.445 174.75 245.526 173.463 245.526 173.463C245.526 173.463 245.729 173.63 245.88 173.942C246.001 174.189 246.091 174.527 246.021 174.946C245.923 175.534 246.238 176.628 246.489 177.367C246.642 177.816 246.77 178.133 246.77 178.133C246.77 178.133 246.844 178.502 245.52 178.668Z" fill="#1A2D4C"/>
<path d="M245.881 173.942C245.514 174.201 244.738 174.711 244.224 174.777C243.529 174.868 242.229 173.097 242.229 173.097L242.243 173.094C242.303 173.095 242.585 173.182 243.811 174.216C244.445 174.749 245.526 173.462 245.526 173.462C245.526 173.462 245.73 173.63 245.881 173.942Z" fill="#466AA5"/>
<path d="M245.52 178.668H243.981C243.465 178.586 243.085 178.438 242.555 178.368C241.751 178.263 241.382 178.591 241.309 178.668C241.299 178.677 241.295 178.683 241.295 178.683H234.755C234.59 178.448 234.748 177.905 234.903 177.505C235.102 177.329 235.158 178.271 235.267 178.421C235.377 178.571 240.603 178.476 240.903 178.257C241.204 178.038 242.11 177.654 243.372 177.955C244.47 178.217 246.09 177.545 246.49 177.367C246.643 177.816 246.771 178.133 246.771 178.133C246.771 178.133 246.844 178.502 245.52 178.668Z" fill="#3B6096"/>
<path d="M253.735 178.668H252.195C251.68 178.586 251.299 178.438 250.77 178.368C249.966 178.263 249.596 178.592 249.523 178.668C249.514 178.677 249.509 178.683 249.509 178.683H242.97C242.805 178.448 242.963 177.905 243.118 177.505C243.222 177.233 243.449 177.027 243.73 176.946C244.423 176.745 245.791 176.567 247.043 175.435C247.747 174.8 250.444 173.098 250.444 173.098L250.458 173.095C250.517 173.096 250.8 173.183 252.026 174.217C252.66 174.75 253.74 173.463 253.74 173.463C253.74 173.463 253.943 173.63 254.095 173.942C254.216 174.189 254.305 174.527 254.236 174.946C254.138 175.534 254.453 176.628 254.704 177.367C254.857 177.816 254.984 178.133 254.984 178.133C254.984 178.133 255.06 178.502 253.735 178.668Z" fill="#233862"/>
<path d="M254.096 173.942C253.729 174.201 252.953 174.711 252.438 174.777C251.743 174.868 250.444 173.097 250.444 173.097L250.458 173.094C250.517 173.095 250.8 173.182 252.026 174.216C252.66 174.749 253.741 173.462 253.741 173.462C253.741 173.462 253.945 173.63 254.096 173.942Z" fill="#466AA5"/>
<path d="M253.735 178.668H252.195C251.68 178.586 251.299 178.438 250.77 178.368C249.966 178.263 249.596 178.591 249.523 178.668C249.514 178.677 249.509 178.683 249.509 178.683H242.97C242.805 178.448 242.963 177.905 243.118 177.505C243.317 177.329 243.373 178.271 243.482 178.421C243.592 178.571 248.816 178.476 249.118 178.257C249.42 178.038 250.325 177.654 251.587 177.955C252.685 178.217 254.304 177.545 254.704 177.367C254.857 177.816 254.984 178.133 254.984 178.133C254.984 178.133 255.06 178.502 253.735 178.668Z" fill="#466AA5"/>
<path d="M256.939 112.771C255.271 110.146 254.293 106.969 252.987 103.33C249.622 93.9567 250.131 88.8332 250.949 88.6455C251.765 88.4577 253.304 95.1809 253.304 95.1809C254.367 102.136 256.78 109.603 256.939 112.771Z" fill="#79D5FF"/>
<path d="M234.481 89.6245C234.216 89.6095 233.961 89.5698 233.712 89.5086C233.657 89.4947 233.6 89.4797 233.544 89.4636C232.88 89.2736 232.277 88.9389 231.764 88.5709C230.647 87.7736 229.411 86.4056 229.411 86.4056C231.587 76.7274 235.74 75.3809 235.74 75.3809C235.74 75.3809 237.063 89.7618 234.481 89.6245Z" fill="#1f527d"/>
<path d="M218.692 81.5754C218.692 81.5754 220.102 79.4091 220.446 79.5303C220.938 79.702 219.168 82.4509 219.168 82.4509C219.168 82.4509 220.48 80.3973 220.684 80.5518C221.151 80.9037 220.408 82.1945 219.671 83.1838C219.671 83.1838 220.989 81.9777 221.032 82.1945C221.183 82.9552 219.585 84.7986 219.585 84.7986L218.692 82.761V81.5754Z" fill="#FFB27D"/>
<path d="M217.635 83.5866C217.703 83.3215 218.048 78.1498 218.195 78.6402C218.342 79.1305 218.692 81.843 218.692 81.843L217.635 83.5866Z" fill="#FFB27D"/>
<path d="M249.585 86.0341L252.278 95.8099C252.278 95.8099 257.887 96.1962 259.744 94.2391L256.351 85.5352L249.585 86.0341Z" fill="#1f527d"/>
<path d="M233.713 89.5087C233.657 89.4947 233.6 89.4797 233.544 89.4636C232.88 89.2737 232.277 88.9389 231.764 88.5709C231.897 88.2748 232.11 87.9121 232.427 87.617C233.083 87.0054 233.628 84.514 233.854 84.7179C234.08 84.9228 233.713 89.5087 233.713 89.5087Z" fill="#79D5FF"/>
<path d="M264.726 114.725C264.726 114.725 267.374 116.483 267.779 117.224C268.184 117.965 269.129 120.694 269.129 120.694C269.129 120.694 268.454 120.794 267.779 119.615C267.104 118.436 264.878 118.537 264.136 117.897C263.393 117.257 262.531 115.381 262.531 115.381L264.726 114.725Z" fill="#FFB27D"/>
<path d="M262.817 115.963C262.817 115.963 263.258 118.034 263.797 118.64C264.337 119.246 265.079 120.257 265.383 119.988C265.687 119.718 265.046 117.461 265.046 117.461L262.817 115.963Z" fill="#FFB27D"/>
<path d="M267.407 117.461C267.475 117.562 269.802 120.033 269.802 120.033C269.802 120.033 268.959 120.415 268.722 120.033C268.486 119.651 267.407 117.461 267.407 117.461Z" fill="#FFB27D"/>
<path d="M197.583 32.1508V169.489C197.583 174 193.922 177.658 189.405 177.658H117.517C112.999 177.658 109.336 174 109.336 169.489V32.1508C109.336 27.6401 112.998 23.9834 117.517 23.9834H189.405C193.922 23.9823 197.583 27.6401 197.583 32.1508Z" fill="#E7D6FF"/>
<path d="M190.721 91.365C190.721 98.7792 188.551 105.686 184.809 111.486C183.586 113.381 182.195 115.159 180.657 116.797C179.036 118.526 177.251 120.1 175.327 121.494C175.151 121.623 174.973 121.749 174.793 121.873C168.752 126.095 161.397 128.571 153.466 128.571C147.98 128.571 142.771 127.387 138.081 125.262C137.501 124.998 136.93 124.72 136.365 124.427C135.053 123.751 133.787 122.998 132.574 122.175C131.183 121.233 129.859 120.199 128.612 119.081C121 112.271 116.211 102.377 116.211 91.3672C116.211 70.8198 132.89 54.1631 153.466 54.1631C174.04 54.1609 190.721 70.8177 190.721 91.365Z" fill="#F3EBFF"/>
<path d="M184.809 111.486C183.586 113.381 182.195 115.159 180.657 116.796C179.036 118.526 177.252 120.1 175.327 121.494C175.151 121.622 174.973 121.749 174.793 121.872C170.365 121.01 164.992 115.371 160.434 112.997C159.621 112.574 158.834 112.255 158.083 112.085C155.44 111.486 150.821 113.578 146.144 115.745C143.354 117.037 140.541 118.354 138.114 119.143C138.092 119.15 138.072 119.158 138.05 119.164C135.863 119.869 133.991 120.139 132.734 119.565C132.487 119.453 132.264 119.306 132.067 119.125C131.24 118.363 130.411 117.493 129.714 116.523C126.885 112.595 126.187 107.016 136.261 100.308C139.505 98.1491 124.824 98.8648 130.938 83.3808C135.154 72.708 143.044 61.2863 153.635 61.5899C153.635 61.5899 158.083 61.5899 162.687 64.5255C166.306 66.8314 171.473 77.325 174.169 84.2671C176.865 91.2103 171.596 95.6105 175.847 99.3434C180.281 103.237 183.978 107.488 184.809 111.486Z" fill="#233862"/>
<path d="M142.645 69.8005C142.645 69.8005 153.853 58.5269 160.961 68.8381C160.961 68.8381 165.351 67.5634 167.268 76.5785C169.226 85.777 166.234 91.3994 163.068 89.6719C161.037 88.5635 159.5 92.114 159.5 92.114L142.645 69.8005Z" fill="#233862"/>
<path d="M175.327 121.494C175.151 121.622 174.973 121.749 174.793 121.872C168.752 126.094 161.397 128.571 153.466 128.571C147.98 128.571 142.771 127.386 138.082 125.262C137.501 124.998 136.93 124.72 136.365 124.427C136.828 122.673 137.409 120.95 138.054 119.297V119.296C138.074 119.246 138.093 119.195 138.114 119.145C141.167 111.378 145.578 105.261 145.578 105.261C145.578 105.261 145.585 105.26 145.6 105.26C145.607 105.259 145.612 105.259 145.622 105.256C145.633 105.255 145.646 105.253 145.661 105.252H145.666C145.678 105.251 145.694 105.249 145.71 105.248C145.73 105.245 145.75 105.244 145.773 105.241C145.834 105.237 145.912 105.23 146 105.219C146.028 105.216 146.054 105.212 146.082 105.211C146.106 105.21 146.129 105.207 146.152 105.205C146.177 105.202 146.199 105.201 146.221 105.198C146.238 105.197 146.254 105.195 146.274 105.194C146.294 105.193 146.312 105.191 146.329 105.19C146.49 105.175 146.673 105.158 146.878 105.139C148.293 104.902 147.683 102.149 147.676 99.3465C147.675 98.7156 147.664 98.0782 147.648 97.457C147.645 97.354 147.642 97.252 147.638 97.149C147.637 97.0557 147.634 96.9634 147.631 96.8733C147.628 96.7917 147.626 96.7123 147.623 96.634C147.623 96.6029 147.622 96.5729 147.62 96.5439C147.614 96.3443 147.606 96.1501 147.599 95.9591C147.592 95.7992 147.587 95.6447 147.58 95.4945C147.548 94.7713 147.515 94.1276 147.485 93.6179C147.481 93.56 147.478 93.5031 147.475 93.4484C147.474 93.4419 147.474 93.4376 147.474 93.4333C147.473 93.3979 147.471 93.3647 147.467 93.3303C147.463 93.2477 147.457 93.1694 147.452 93.0975C147.449 93.0449 147.446 92.9977 147.443 92.9516C147.44 92.8904 147.436 92.8325 147.432 92.7799C147.432 92.7713 147.432 92.7627 147.431 92.7552C147.427 92.6737 147.421 92.6072 147.419 92.5535C147.418 92.5353 147.416 92.5181 147.415 92.5031C147.411 92.443 147.408 92.413 147.408 92.413L158.123 90.2938L158.769 90.1672L159.444 90.0342V90.0417C159.44 90.7466 159.452 91.428 159.476 92.0857C159.735 99.5535 161.538 103.882 162.917 104.245C163.436 104.509 164.597 104.657 165.718 104.789C166.897 104.925 168.031 105.043 168.34 105.253C171.606 107.461 174.244 113.806 175.327 121.494Z" fill="#DBC1FF"/>
<path d="M147.409 92.4099C147.409 92.4099 147.668 95.9796 147.676 99.3434C154.032 99.1642 157.392 93.3734 158.769 90.1631L147.409 92.4099Z" fill="#E8945B"/>
<path d="M159.942 88.9296C159.942 88.9296 163.273 83.6731 164.073 79.1784C164.643 75.9692 163.007 64.0753 151.039 65.7878C151.039 65.7878 147.562 66.1301 144.295 68.3339C141.696 70.0872 137.946 73.8705 142.139 84.2504L143.229 87.7568L159.942 88.9296Z" fill="#233862"/>
<path d="M145.287 95.5949C145.287 95.5949 160.327 95.8427 160.337 86.4864C160.348 77.1302 162.296 70.8619 152.694 70.3082C143.092 69.7546 141.223 73.3222 140.459 76.4445C139.694 79.5669 141.375 95.2901 145.287 95.5949Z" fill="#C49AFF"/>
<path d="M145.844 70.0794C145.844 70.0794 149.962 81.0559 156.282 82.6782C162.601 84.3016 165.342 82.6106 165.342 82.6106C165.342 82.6106 160.494 78.7651 159.489 72.0515C159.489 72.0515 148.95 64.8551 145.844 70.0794Z" fill="#233862"/>
<path d="M146.865 70.9697C146.865 70.9697 144.793 72.2036 143.057 74.8474C141.685 76.9354 140.317 78.7884 140.522 82.9226C140.522 82.9226 137.419 75.4622 140.906 71.2412C144.602 66.7669 146.865 70.9697 146.865 70.9697Z" fill="#233862"/>
<path d="M177.101 108.92C174.415 105.343 165.721 104.78 165.721 104.78C165.721 104.78 165.721 104.781 165.72 104.785C165.656 104.956 163.839 109.778 160.435 112.997C159.916 113.487 159.361 113.941 158.771 114.335C153.931 117.557 148.568 118.699 146.145 115.746C145.486 114.943 145.045 113.837 144.89 112.388C144.658 110.204 146.059 105.929 146.472 105.191C146.478 105.182 146.419 105.184 146.331 105.188C146.314 105.189 146.295 105.191 146.276 105.192C146.258 105.193 146.241 105.196 146.223 105.197C146.201 105.198 146.179 105.2 146.155 105.203C146.132 105.204 146.108 105.207 146.084 105.209C146.056 105.211 146.03 105.214 146.002 105.217C145.923 105.223 145.843 105.232 145.775 105.24C145.753 105.241 145.732 105.243 145.712 105.246C145.695 105.247 145.68 105.249 145.668 105.25H145.664C145.649 105.251 145.636 105.253 145.624 105.255C145.614 105.256 145.609 105.256 145.602 105.258C145.587 105.258 145.58 105.259 145.58 105.259C143.343 105.553 138.854 106.04 137.281 107.045C137.281 107.045 137.281 107.045 137.28 107.046C137.19 107.093 133.214 109.165 129.716 116.523C129.343 117.311 128.972 118.162 128.613 119.079C129.86 120.197 131.184 121.231 132.575 122.173C133.788 122.996 135.055 123.749 136.366 124.425C136.931 124.718 137.503 124.997 138.083 125.26C142.772 127.384 147.981 128.569 153.467 128.569C161.398 128.569 168.753 126.093 174.795 121.871C174.974 121.748 175.152 121.621 175.328 121.492C177.253 120.098 179.036 118.524 180.659 116.794C179.612 113.471 178.443 110.709 177.101 108.92Z" fill="#8833FF"/>
<g opacity="0.5">
<path d="M141.795 77.0059C141.795 76.5499 142.165 76.1797 142.622 76.1797C143.079 76.1797 143.449 76.5499 143.449 77.0059C143.449 77.4619 143.079 77.8321 142.622 77.8321C142.164 77.8321 141.795 77.4619 141.795 77.0059Z" fill="white"/>
<path d="M141.795 87.8975C141.795 87.4415 142.165 87.0713 142.622 87.0713C143.079 87.0713 143.449 87.4415 143.449 87.8975C143.449 88.3535 143.079 88.7237 142.622 88.7237C142.164 88.7237 141.795 88.3535 141.795 87.8975Z" fill="white"/>
<path d="M141.795 82.6504C141.795 82.1944 142.165 81.8242 142.622 81.8242C143.079 81.8242 143.449 82.1944 143.449 82.6504C143.449 83.1064 143.079 83.4766 142.622 83.4766C142.164 83.4766 141.795 83.1064 141.795 82.6504Z" fill="white"/>
<path d="M135.679 82.6504C135.679 82.1944 136.05 81.8242 136.506 81.8242C136.963 81.8242 137.334 82.1944 137.334 82.6504C137.334 83.1064 136.963 83.4766 136.506 83.4766C136.049 83.4766 135.679 83.1064 135.679 82.6504Z" fill="white"/>
<path d="M148.538 77.0059C148.538 76.5499 148.908 76.1797 149.365 76.1797C149.821 76.1797 150.192 76.5499 150.192 77.0059C150.192 77.4619 149.821 77.8321 149.365 77.8321C148.908 77.8321 148.538 77.4619 148.538 77.0059Z" fill="white"/>
<path d="M148.538 82.6504C148.538 82.1944 148.908 81.8242 149.365 81.8242C149.821 81.8242 150.192 82.1944 150.192 82.6504C150.192 83.1064 149.821 83.4766 149.365 83.4766C148.908 83.4766 148.538 83.1064 148.538 82.6504Z" fill="white"/>
<path d="M148.538 87.8975C148.538 87.4415 148.908 87.0713 149.365 87.0713C149.821 87.0713 150.192 87.4415 150.192 87.8975C150.192 88.3535 149.821 88.7237 149.365 88.7237C148.908 88.7237 148.538 88.3535 148.538 87.8975Z" fill="white"/>
<path d="M148.538 93.46C148.538 93.004 148.908 92.6338 149.365 92.6338C149.821 92.6338 150.192 93.004 150.192 93.46C150.192 93.916 149.821 94.2862 149.365 94.2862C148.908 94.2862 148.538 93.916 148.538 93.46Z" fill="white"/>
<path d="M155.542 82.6504C155.542 82.1944 155.913 81.8242 156.37 81.8242C156.826 81.8242 157.197 82.1944 157.197 82.6504C157.197 83.1064 156.826 83.4766 156.37 83.4766C155.913 83.4766 155.542 83.1064 155.542 82.6504Z" fill="white"/>
<path d="M160.532 82.6504C160.532 82.1944 160.902 81.8242 161.359 81.8242C161.816 81.8242 162.186 82.1944 162.186 82.6504C162.186 83.1064 161.816 83.4766 161.359 83.4766C160.902 83.4766 160.532 83.1064 160.532 82.6504Z" fill="white"/>
<path d="M155.542 87.8975C155.542 87.4415 155.913 87.0713 156.37 87.0713C156.826 87.0713 157.197 87.4415 157.197 87.8975C157.197 88.3535 156.826 88.7237 156.37 88.7237C155.913 88.7237 155.542 88.3535 155.542 87.8975Z" fill="white"/>
<path d="M148.538 71.3623C148.538 70.9063 148.908 70.5361 149.365 70.5361C149.821 70.5361 150.192 70.9063 150.192 71.3623C150.192 71.8183 149.821 72.1885 149.365 72.1885C148.908 72.1885 148.538 71.8183 148.538 71.3623Z" fill="white"/>
<path d="M155.279 77.0059C155.279 76.5499 155.65 76.1797 156.107 76.1797C156.563 76.1797 156.934 76.5499 156.934 77.0059C156.934 77.4619 156.563 77.8321 156.107 77.8321C155.65 77.8321 155.279 77.4619 155.279 77.0059Z" fill="white"/>
<path d="M142.514 88.1167V77.0061H142.728V87.6789L149.256 82.5973V71.3623H149.471V82.7025L142.514 88.1167Z" fill="white"/>
<path d="M149.363 93.5973L142.323 87.7904H149.256V82.7571H142.326L149.363 76.8675L156.477 82.5983V87.6294L161.212 82.6487L156.032 77.0832L149.364 71.5016L142.69 77.0875L136.666 82.6476L142.336 87.6466L142.194 87.8075L136.346 82.6519L142.549 76.9276L149.364 71.2227L156.185 76.933L161.506 82.6508L156.477 87.9406V88.0049H156.407L149.363 93.5973ZM142.92 88.0049L149.365 93.3226L156.063 88.0049H142.92ZM149.471 87.7904H156.262V82.7002L149.365 77.1433L142.915 82.5414H149.47V87.7904H149.471Z" fill="white"/>
<path d="M149.471 93.4606H149.256V87.8446L155.844 82.9111L155.973 83.0828L149.471 87.9519V93.4606Z" fill="white"/>
<path d="M142.036 82.543H137.025V82.7576H142.036V82.543Z" fill="white"/>
<path d="M155.909 82.543H150.191V82.7576H155.909V82.543Z" fill="white"/>
<path d="M156.473 82.3094L156.009 77.113H142.974V76.8984H156.204L156.687 82.2901L156.473 82.3094Z" fill="white"/>
<path d="M156.305 87.9839L149.192 82.6555L156.038 76.9248L156.175 77.089L149.537 82.6459L156.434 87.8122L156.305 87.9839Z" fill="white"/>
<path d="M142.692 76.929L142.559 77.0977L149.301 82.392L149.434 82.2233L142.692 76.929Z" fill="white"/>
<path d="M161.63 82.543H156.37V82.7576H161.63V82.543Z" fill="white"/>
</g>
<path d="M129.09 72.9422H127.28V67.4121H133.311V69.219H129.09V72.9422Z" fill="white"/>
<path d="M178.454 73.1887H176.644V68.9719H172.917V67.165H178.454V73.1887Z" fill="white"/>
<path d="M178.453 108.386H172.422V106.578H176.643V102.855H178.453V108.386Z" fill="white"/>
<path d="M132.817 108.631H127.28V102.608H129.09V106.824H132.817V108.631Z" fill="white"/>
<path d="M184.931 165.029V177.21C184.931 177.359 184.928 177.51 184.922 177.657H122.465C122.459 177.509 122.456 177.359 122.456 177.21V165.029C122.456 159.473 126.047 154.926 130.436 154.926H176.95C181.34 154.927 184.931 159.473 184.931 165.029Z" fill="#8833FF"/>
<path d="M189.404 178.683H117.516C112.44 178.683 108.31 174.559 108.31 169.489V32.1513C108.31 27.0815 112.44 22.957 117.516 22.957H189.405C194.481 22.957 198.611 27.0815 198.611 32.1513V169.489C198.61 174.559 194.48 178.683 189.404 178.683ZM117.516 25.0075C113.572 25.0075 110.363 28.2124 110.363 32.1513V169.489C110.363 173.428 113.572 176.633 117.516 176.633H189.405C193.349 176.633 196.558 173.428 196.558 169.489V32.1513C196.558 28.2124 193.349 25.0075 189.405 25.0075H117.516Z" fill="#2B478B"/>
<path d="M153.664 173.212C149.446 173.212 146.013 169.785 146.013 165.571C146.013 161.358 149.445 157.931 153.664 157.931C157.883 157.931 161.315 161.358 161.315 165.571C161.315 169.785 157.882 173.212 153.664 173.212ZM153.664 158.238C149.615 158.238 146.321 161.527 146.321 165.571C146.321 169.615 149.615 172.905 153.664 172.905C157.714 172.905 161.008 169.615 161.008 165.571C161.008 161.527 157.714 158.238 153.664 158.238Z" fill="white"/>
<path d="M182.911 137.052H124.998V137.569H182.911V137.052Z" fill="#EBF3FA"/>
<path d="M123.102 137.311C123.102 136.265 123.951 135.417 124.999 135.417C126.046 135.417 126.895 136.265 126.895 137.311C126.895 138.357 126.046 139.205 124.999 139.205C123.951 139.205 123.102 138.356 123.102 137.311Z" fill="#F99746"/>
<path d="M151.413 137.311C151.413 135.909 152.551 134.771 153.956 134.771C155.36 134.771 156.499 135.909 156.499 137.311C156.499 138.714 155.36 139.851 153.956 139.851C152.551 139.85 151.413 138.714 151.413 137.311Z" fill="#F99746"/>
<path d="M181.016 137.311C181.016 136.265 181.865 135.417 182.912 135.417C183.96 135.417 184.809 136.265 184.809 137.311C184.809 138.357 183.96 139.205 182.912 139.205C181.865 139.205 181.016 138.356 181.016 137.311Z" fill="#EBF3FA"/>
<path d="M153.915 137.052H124.998V137.569H153.915V137.052Z" fill="#F99746"/>
<path d="M306.478 180H0.442648C0.198762 180 0 179.802 0 179.558V179.125C0 178.881 0.198762 178.683 0.442648 178.683H306.478C306.721 178.683 306.92 178.881 306.92 179.125V179.558C306.92 179.802 306.72 180 306.478 180Z" fill="#2E3552"/>
<path d="M116.54 45.2643V45.0058H122.347L125.879 38.3062H125.957C128.712 38.3062 132.879 38.2793 133.299 38.2074L140.498 31.0186H151.027V31.2771H140.605L133.492 38.3802C133.432 38.4993 132.986 38.5229 129.665 38.5497C128.035 38.5626 126.405 38.5637 126.034 38.5637L122.504 45.2633H116.54V45.2643Z" fill="#EBF3FA"/>
<path d="M134.649 39.4388V37.6469L133.095 36.751L131.542 37.6469V39.4388L133.095 40.3347L134.649 39.4388Z" fill="#EBF3FA"/>
<path d="M142.182 32.3079V30.516L140.629 29.6201L139.074 30.516V32.3079L140.629 33.2038L142.182 32.3079Z" fill="#EBF3FA"/>
<path d="M146.124 44.2386V42.4467L144.571 41.5508L143.017 42.4467V44.2386L144.571 45.1345L146.124 44.2386Z" fill="#EBF3FA"/>
<path d="M124.213 46.0207V44.2299L122.66 43.334L121.106 44.2299V46.0207L122.66 46.9166L124.213 46.0207Z" fill="#EBF3FA"/>
<path d="M116.436 45.6088V44.642L115.598 44.1592L114.761 44.642V45.6088L115.598 46.0916L116.436 45.6088Z" fill="#EBF3FA"/>
<path d="M151.862 31.7737V30.808L151.024 30.3252L150.188 30.808V31.7737L151.024 32.2565L151.862 31.7737Z" fill="#EBF3FA"/>
<path d="M133.283 38.4128L133.457 38.2207L139.148 43.3205H143.492V43.5791H139.048L139.012 43.5458L133.283 38.4128Z" fill="#EBF3FA"/>
<path d="M168.814 44.3008H171.712L173.16 46.8062L171.712 49.3115H168.814L167.366 46.8062L168.814 44.3008Z" fill="#EBF3FA"/>
<path d="M153.218 37.2158H154.665L155.388 38.4669L154.665 39.718H153.218L152.495 38.4669L153.218 37.2158Z" fill="#EBF3FA"/>
<path d="M160.05 45.6348H161.497L162.22 46.8848L161.497 48.1359H160.05L159.327 46.8848L160.05 45.6348Z" fill="#EBF3FA"/>
<path d="M182.61 52.4727H184.057L184.781 53.7237L184.057 54.9748H182.61L181.887 53.7237L182.61 52.4727Z" fill="#EBF3FA"/>
<path d="M188.02 40.8164H189.466L190.189 42.0675L189.466 43.3186H188.02L187.297 42.0675L188.02 40.8164Z" fill="#EBF3FA"/>
<path d="M168.727 44.3577L168.902 44.244L165.005 38.2676H154.795V38.4768H164.893L168.727 44.3577Z" fill="#EBF3FA"/>
<path d="M182.597 52.7226L182.788 52.64L180.199 46.7021H173.16V46.9103H180.063L182.597 52.7226Z" fill="#EBF3FA"/>
<path d="M180.217 46.8673L183.601 42.172H188.671V41.9639H183.494L180.047 46.745L180.217 46.8673Z" fill="#EBF3FA"/>
<path d="M167.366 46.7021H161.438V46.9103H167.366V46.7021Z" fill="#EBF3FA"/>
</g>
<defs>
<clipPath id="clip0_2965_3685">
<rect width="308" height="180" fill="white"/>
</clipPath>
</defs>
</svg>
