<svg xmlns="http://www.w3.org/2000/svg" width="17.776" height="16.841" viewBox="0 0 17.776 16.841">
  <g id="like-unfilled" transform="translate(0.75 1.063)">
    <path id="Path_967" data-name="Path 967" d="M12.737,19.527h6.731a1.436,1.436,0,0,0,1.338-.916l2.235-5.3a1.5,1.5,0,0,0,.1-.548V11.254a1.726,1.726,0,0,0-1.479-1.745H17l.7-3.189.023-.235A1.134,1.134,0,0,0,17.4,5.29l-.791-.79L11.68,9.482a1.506,1.506,0,0,0-.43,1.061v7.514A1.476,1.476,0,0,0,12.737,19.527Z" transform="translate(-6.867 -4.5)" fill="none" stroke="#03a9f5" stroke-width="1.5"/>
    <path id="Path_968" data-name="Path 968" d="M3.375,15.75h2.5v8.766h-2.5Z" transform="translate(-3.375 -9.489)" fill="none" stroke="#03a9f5" stroke-width="1.5"/>
  </g>
</svg>
