<svg width="20" height="20" viewBox="0 0 20 20" fill="none" xmlns="http://www.w3.org/2000/svg">
<g clip-path="url(#clip0_5024_71601)">
<path d="M12.8833 15.2749C12.7083 15.2749 12.575 15.4166 12.575 15.5832V16.4999C12.575 17.0332 12.1417 17.4749 11.6 17.4749H4.575C4.04167 17.4749 3.6 17.0416 3.6 16.4999V3.49157C3.6 2.95824 4.03334 2.51657 4.575 2.51657H11.6C12.1333 2.51657 12.575 2.9499 12.575 3.49157V4.40824C12.575 4.58324 12.7167 4.71657 12.8833 4.71657C13.05 4.71657 13.1917 4.5749 13.1917 4.40824V3.49157C13.1917 2.60824 12.475 1.8999 11.6 1.8999H4.575C3.7 1.8999 2.98334 2.61657 2.98334 3.49157V16.5082C2.98334 17.3832 3.7 18.0999 4.575 18.0999H11.6C12.4833 18.0999 13.1917 17.3832 13.1917 16.5082V15.5916C13.1917 15.4166 13.05 15.2832 12.8833 15.2832V15.2749Z" fill="#28C76F"/>
<path d="M9.59168 3.67479C9.59168 3.49979 9.45001 3.36646 9.28334 3.36646H6.90001C6.72501 3.36646 6.59167 3.50812 6.59167 3.67479C6.59167 3.84145 6.73334 3.98312 6.90001 3.98312H9.28334C9.45834 3.98312 9.59168 3.84145 9.59168 3.67479Z" fill="#28C76F"/>
<path d="M5.96667 16.1499C5.96667 16.3249 6.10834 16.4582 6.27501 16.4582H9.89167C10.0667 16.4582 10.2 16.3166 10.2 16.1499C10.2 15.9832 10.0583 15.8416 9.89167 15.8416H6.28334C6.10834 15.8416 5.97501 15.9832 5.97501 16.1499H5.96667Z" fill="#28C76F"/>
<path d="M15.6167 6.54993C14.7083 5.6416 13.5 5.1416 12.2167 5.1416C10.9333 5.1416 9.72501 5.6416 8.81668 6.54993C6.94168 8.42493 6.94168 11.4749 8.81668 13.3416C9.72501 14.2499 10.9333 14.7499 12.2167 14.7499C13.5 14.7499 14.7083 14.2499 15.6167 13.3416C17.4917 11.4666 17.4917 8.4166 15.6167 6.54993ZM15.175 12.8999C13.5417 14.5333 10.8917 14.5333 9.25835 12.8999C7.62501 11.2666 7.62501 8.6166 9.25835 6.98327C10.05 6.1916 11.1 5.75827 12.2167 5.75827C13.3333 5.75827 14.3833 6.1916 15.175 6.98327C16.8083 8.6166 16.8083 11.2666 15.175 12.8999Z" fill="#28C76F"/>
<path d="M14.2167 8.3748C14.1583 8.31647 14.0583 8.31647 14 8.3748L11.6333 10.7415L10.425 9.53314C10.3667 9.4748 10.2667 9.4748 10.2083 9.53314L9.98333 9.75814C9.92499 9.81647 9.92499 9.91647 9.98333 9.9748L11.525 11.5165C11.5833 11.5748 11.6833 11.5748 11.7417 11.5165L14.4417 8.81647C14.5 8.75814 14.5 8.65814 14.4417 8.5998L14.2167 8.3748Z" fill="#28C76F"/>
</g>
<defs>
<clipPath id="clip0_5024_71601">
<rect width="20" height="20" fill="white"/>
</clipPath>
</defs>
</svg>
