<svg width="256" height="180" viewBox="0 0 256 180" fill="none" xmlns="http://www.w3.org/2000/svg">
<path d="M241.45 100.024C241.45 130.113 228.104 157.098 206.985 175.434H74.9573C53.838 157.098 40.4923 130.113 40.4923 100.024C40.4923 44.782 85.4797 0 140.97 0C171.707 0 199.221 13.7399 217.656 35.3857C210.703 39.7733 206.086 47.5032 206.086 56.3058C206.086 69.9749 217.218 81.0587 230.949 81.0587C233.898 81.0587 236.728 80.5479 239.353 79.6076C240.727 86.1986 241.45 93.0282 241.45 100.024Z" fill="#ECF3FE"/>
<path d="M212.221 121.198H134.417L134.465 120.018C134.799 111.738 137.371 103.827 141.902 97.1418C146.345 90.5862 152.396 85.5827 159.4 82.6729L160.277 84.7665C146.959 90.3 137.844 103.626 136.806 118.929H209.844C208.909 104.131 200.265 90.9838 187.578 85.217L188.525 83.1529C195.245 86.2078 201.016 91.2363 205.215 97.6962C209.487 104.269 211.896 111.99 212.18 120.024L212.221 121.198Z" fill="white"/>
<path d="M174.151 91.1933C174.042 91.1933 173.933 91.1921 173.823 91.1904C170.575 91.1375 167.439 90.2976 164.503 88.695C161.688 87.1579 159.178 84.9882 157.041 82.2461C154.919 79.5226 153.271 76.3685 152.143 72.8724C150.979 69.2649 150.423 65.4461 150.487 61.5228C150.552 57.5989 151.235 53.801 152.516 50.2335C153.759 46.7758 155.51 43.6773 157.72 41.0246C159.946 38.3534 162.527 36.2672 165.391 34.823C168.379 33.3168 171.541 32.5802 174.79 32.6336C178.039 32.687 181.174 33.5263 184.11 35.1295C186.925 36.6666 189.436 38.8363 191.573 41.5784C193.694 44.3019 195.342 47.456 196.47 50.9521C197.634 54.5596 198.191 58.3785 198.126 62.3017C198.061 66.2256 197.378 70.0235 196.097 73.591C194.854 77.0488 193.103 80.1472 190.893 82.7999C188.667 85.4711 186.086 87.5573 183.222 89.0015C180.335 90.4561 177.285 91.1933 174.151 91.1933ZM174.465 34.8991C168.865 34.8991 163.551 37.5808 159.475 42.4728C155.269 47.5205 152.886 54.299 152.766 61.5599C152.646 68.8202 154.804 75.6731 158.842 80.856C162.822 85.9645 168.155 88.8291 173.861 88.9225C179.564 89.0148 184.992 86.3267 189.138 81.3511C193.345 76.3035 195.727 69.5249 195.847 62.264L196.987 62.2826L195.847 62.264C195.967 55.0037 193.809 48.1509 189.771 42.968C185.791 37.8594 180.458 34.9949 174.752 34.9014C174.657 34.8997 174.56 34.8991 174.465 34.8991Z" fill="white"/>
<path d="M19.9842 175.433H108.948C120.975 163.852 128.455 147.62 128.455 129.646C128.455 94.4657 99.8067 65.9463 64.4665 65.9463C29.1263 65.9463 0.477051 94.4657 0.477051 129.646C0.477051 147.62 7.95686 163.852 19.9842 175.433Z" fill="#ECF3FE"/>
<path d="M34.9075 164.145C33.5635 161.691 28.4014 155.931 18.7479 154.145C17.1683 153.852 13.661 153.203 12.3899 154.067C9.86456 155.783 21.1385 162.478 19.675 163.369C18.1193 164.318 4.84245 157.262 2.58824 158.408C1.52936 158.946 11.7444 163.323 11.4628 169.261C11.3992 170.602 10.822 171.719 10.271 172.517H37.8462C37.8462 172.517 38.2188 170.192 34.9075 164.145Z" fill="#33DA82"/>
<path d="M189.092 155.809C189.092 155.809 223.113 81.0353 245.714 69.9399C247.324 69.1493 249.247 70.1367 249.525 71.9018C250.238 76.427 247.693 87.4005 225.631 112.303C192.754 149.413 189.092 155.809 189.092 155.809Z" fill="#C4D7F2"/>
<path d="M188.156 159.01C188.156 159.01 232.783 103.822 253.643 100.071C254.869 99.8509 256.003 100.785 256 102.025C255.991 105.624 252.326 114.18 227.614 130.851C192.546 154.508 188.156 159.01 188.156 159.01Z" fill="#C4D7F2"/>
<path d="M189.767 158.536C189.767 158.536 191.925 97.6658 204.343 84.3873C205.072 83.6072 206.336 83.6681 206.975 84.5232C208.831 87.0052 210.736 94.7734 202.354 118.92C190.459 153.186 189.767 158.536 189.767 158.536Z" fill="#C4D7F2"/>
<path d="M119.005 170.32C118.588 158.492 109.675 148.967 98.5758 148.786C87.2592 148.601 77.8961 158.188 77.4039 170.32H119.005Z" fill="#C4D7F2"/>
<path opacity="0.22" d="M107.354 143.125C107.498 134.367 103.728 127.204 98.9337 127.126C94.1391 127.048 90.1354 134.084 89.9911 142.842C89.8468 151.6 93.6166 158.763 98.4111 158.841C103.206 158.919 107.209 151.883 107.354 143.125Z" fill="#003889"/>
<path d="M111.258 138.449C111.399 129.877 105.914 122.837 99.0063 122.724C92.0989 122.611 86.3847 129.469 86.2435 138.041C86.1023 146.613 91.5874 153.653 98.4949 153.766C105.402 153.879 111.116 147.021 111.258 138.449Z" fill="#C4D7F2"/>
<path d="M115.475 180C179.25 180 230.949 177.377 230.949 174.143C230.949 170.908 179.25 168.285 115.475 168.285C51.6998 168.285 0 170.908 0 174.143C0 177.377 51.6998 180 115.475 180Z" fill="#D7E4F9"/>
<path d="M147.7 57.3703C152.214 53.8574 151.125 51.1699 151.125 51.1699C151.125 51.1699 151.08 51.0648 150.969 50.911L150.968 50.9104C150.529 50.3085 149.048 48.9479 145.142 50.2029C142.788 50.9592 138.984 52.989 135.662 54.8941C135.622 54.9173 135.583 54.94 135.542 54.9632C135.237 55.1385 134.936 55.3126 134.641 55.4844C134.535 55.5465 134.427 55.6092 134.321 55.6702C134.15 55.7712 133.978 55.8722 133.812 55.9703C133.811 55.9703 133.812 55.9703 133.811 55.9703L133.794 55.467C133.81 55.4571 133.826 55.4461 133.841 55.4362C134.372 55.1002 134.977 54.7171 135.641 54.2962C137.282 53.2578 139.252 52.0098 141.166 50.7961C144.918 48.4168 148.454 46.1681 148.858 45.8878C149.169 45.6718 149.936 45.0264 150.67 44.1539C151.71 42.9176 152.685 41.2244 152.207 39.6467C152.122 39.3681 151.993 39.0936 151.81 38.8254C151.665 38.6083 151.481 38.3958 151.261 38.1898C149.356 36.4101 141.274 39.912 135.24 42.9274C135.24 42.9274 135.24 42.9274 135.24 42.9274V42.9269C134.594 43.2496 133.973 43.5665 133.384 43.8707L133.289 41.1669L133.29 41.1664C133.513 41.0032 133.738 40.8384 133.967 40.6706C134.094 40.5766 134.223 40.4826 134.352 40.3885C134.61 40.1987 134.869 40.0083 135.13 39.818C137.762 37.8856 140.451 35.908 142.046 34.7274C142.865 34.1214 143.396 33.7244 143.48 33.653C143.554 33.5903 143.668 33.4765 143.802 33.3215C144.006 33.0841 144.257 32.748 144.489 32.3522C144.914 31.626 145.271 30.6944 145.14 29.7726C145.14 29.7732 145.14 29.7732 145.14 29.7738C145.14 29.7732 145.14 29.7726 145.14 29.7726C145.082 29.3559 144.921 28.9414 144.623 28.549C143.069 26.5139 140.879 27.012 134.856 29.032C134.823 29.0436 134.788 29.0552 134.752 29.0674H134.752V29.0668C134.7 29.0848 134.643 29.1068 134.587 29.1283C134.578 29.1318 134.569 29.1353 134.56 29.1388C134.499 29.162 134.435 29.1875 134.369 29.2136C134.362 29.2165 134.355 29.2194 134.348 29.2218C133.951 29.3826 133.463 29.6014 132.892 29.8742L132.566 20.6247C132.5 18.7301 130.995 17.2429 129.205 17.3056L90.12 18.6685C88.3299 18.7312 86.9334 20.3193 86.9999 22.2134L87.5841 38.8207C86.8827 39.5707 86.0943 40.4408 85.2285 41.4107C82.5119 44.4506 79.0239 48.4714 74.9883 52.8799C67.052 61.5484 65.5768 71.3424 56.1914 91.1934C53.6171 96.6386 50.6492 101.167 47.6964 104.876L42.7006 99.7347L16.453 119.87L59.7861 163.076L77.6192 135.672L70.347 128.188C74.4904 119.654 79.4011 116.348 85.9247 113.226C88.8022 111.847 92.2284 109.168 95.4844 106.246C95.4849 106.246 95.4849 106.246 95.4855 106.246C96.0517 105.738 96.6126 105.223 97.1642 104.706L132.238 103.483C134.028 103.42 135.424 101.833 135.358 99.9373L134.566 77.4296C134.605 77.4099 134.644 77.3884 134.683 77.3687C134.769 77.3252 134.854 77.281 134.939 77.2358C135.021 77.1922 135.103 77.1475 135.185 77.1023C135.266 77.0582 135.348 77.014 135.429 76.9682C135.524 76.9148 135.619 76.8591 135.715 76.8039C135.784 76.7639 135.854 76.7244 135.923 76.6832C136.049 76.6089 136.175 76.5317 136.301 76.4545C136.34 76.4307 136.378 76.408 136.418 76.3837C136.957 76.0493 137.499 75.6906 138.036 75.3133C142.877 71.9223 147.482 67.0993 148.336 66.1642C149.535 64.8489 149.396 62.4075 149.36 62.2241C149.353 62.1933 149.349 62.1341 149.332 62.0592C149.259 61.7406 148.978 61.1183 147.541 61.0063C147.319 60.9889 147.071 60.9825 146.79 60.9924C144.722 61.0661 140.38 63.4552 138.643 64.442C138.257 64.6614 137.998 64.8117 137.923 64.8512C137.816 64.9081 137.75 64.9209 137.71 64.9087C137.595 64.8738 137.699 64.633 137.699 64.633C137.699 64.633 143.187 60.8844 147.7 57.3703Z" fill="#C4D7F2"/>
<path fill-rule="evenodd" clip-rule="evenodd" d="M89.4356 18.8847L129.829 17.275C131.418 17.2117 132.072 18.0976 132.125 19.4153L135.607 106.021C135.667 107.507 134.983 108.278 133.491 108.337L93.0975 109.947C91.521 110.01 90.8586 109.218 90.8018 107.807L87.3191 21.2009C87.2656 19.8091 87.874 18.947 89.4356 18.8847Z" fill="#474747"/>
<path d="M132.194 20.4029L87.3883 22.1885L90.6995 104.528L135.505 102.743L132.194 20.4029Z" fill="#71ABFF"/>
<path fill-rule="evenodd" clip-rule="evenodd" d="M104.156 19.6272L104.538 19.612C104.724 19.6046 104.881 19.7491 104.888 19.9341C104.896 20.1192 104.751 20.2757 104.565 20.2832L104.183 20.2984C103.997 20.3058 103.84 20.1613 103.832 19.9762C103.825 19.7911 103.97 19.6346 104.156 19.6272ZM105.794 19.5619L115.216 19.1864C115.402 19.179 115.559 19.3235 115.567 19.5086C115.574 19.6936 115.429 19.8502 115.243 19.8576L105.821 20.2331C105.635 20.2405 105.478 20.096 105.471 19.9109C105.466 19.7258 105.611 19.5692 105.794 19.5619Z" fill="#8A857E"/>
<path fill-rule="evenodd" clip-rule="evenodd" d="M108.493 78.1537L115.59 77.8709C116.189 77.847 116.702 78.3159 116.726 78.9155L117.011 85.9801C117.035 86.5773 116.564 87.0879 115.961 87.1119L108.865 87.3947C108.265 87.4186 107.752 86.9497 107.728 86.3501L107.444 79.2855C107.422 78.6858 107.893 78.1776 108.493 78.1537ZM96.442 55.4982L103.539 55.2154C104.138 55.1915 104.651 55.6604 104.676 56.2601L104.96 63.3247C104.984 63.9218 104.513 64.4324 103.91 64.4564L96.8136 64.7392C96.2138 64.7631 95.7009 64.2942 95.6767 63.6946L95.3926 56.63C95.3685 56.0304 95.8397 55.5222 96.442 55.4982ZM107.564 55.055L114.661 54.7722C115.261 54.7483 115.773 55.2172 115.798 55.8168L116.082 62.8814C116.106 63.4786 115.635 63.9892 115.032 64.0132L107.936 64.296C107.336 64.3199 106.823 63.851 106.799 63.2514L106.515 56.1868C106.493 55.5871 106.964 55.0789 107.564 55.055ZM107.1 43.5044L114.196 43.2216C114.796 43.1977 115.309 43.6666 115.333 44.2662L115.617 51.3308C115.641 51.928 115.17 52.4386 114.568 52.4626L107.471 52.7454C106.871 52.7693 106.358 52.3004 106.334 51.7008L106.05 44.6362C106.029 44.0389 106.5 43.5283 107.1 43.5044ZM96.9064 67.0464L104.003 66.7636C104.603 66.7397 105.116 67.2086 105.14 67.8082L105.424 74.8728C105.448 75.4699 104.977 75.9805 104.375 76.0045L97.278 76.2873C96.6782 76.3112 96.1652 75.8423 96.1411 75.2427L95.857 68.1781C95.833 67.581 96.3041 67.0704 96.9064 67.0464ZM95.9775 43.9476L103.074 43.6648C103.674 43.6409 104.187 44.1098 104.211 44.7095L104.495 51.7741C104.519 52.3712 104.048 52.8818 103.446 52.9058L96.3491 53.1886C95.7493 53.2125 95.2364 52.7436 95.2123 52.144L94.9282 45.0794C94.9041 44.4823 95.3752 43.9717 95.9775 43.9476ZM119.153 66.1598L126.25 65.877C126.849 65.8531 127.362 66.322 127.387 66.9216L127.671 73.9862C127.695 74.5834 127.224 75.094 126.621 75.118L119.525 75.4008C118.925 75.4247 118.412 74.9558 118.388 74.3562L118.104 67.2916C118.08 66.6944 118.553 66.1837 119.153 66.1598ZM118.224 43.0611L125.321 42.7783C125.921 42.7544 126.434 43.2233 126.458 43.8229L126.742 50.8875C126.766 51.4846 126.295 51.9952 125.692 52.0192L118.596 52.3021C117.996 52.326 117.483 51.857 117.459 51.2574L117.175 44.1928C117.151 43.5957 117.624 43.085 118.224 43.0611ZM118.689 54.6117L125.785 54.3289C126.385 54.305 126.898 54.7739 126.922 55.3735L127.206 62.4381C127.23 63.0352 126.759 63.5458 126.157 63.5698L119.06 63.8526C118.46 63.8766 117.947 63.4076 117.923 62.808L117.639 55.7434C117.615 55.1438 118.089 54.6356 118.689 54.6117ZM108.028 66.6031L115.125 66.3203C115.725 66.2964 116.238 66.7653 116.262 67.365L116.546 74.4295C116.57 75.0267 116.099 75.5373 115.497 75.5613L108.4 75.8441C107.8 75.868 107.287 75.3991 107.263 74.7995L106.979 67.7349C106.958 67.1376 107.429 66.627 108.028 66.6031Z" fill="#317C99"/>
<path fill-rule="evenodd" clip-rule="evenodd" d="M125.663 35.233L119.434 35.4812C119.24 35.489 119.088 35.6532 119.096 35.8481C119.104 36.0431 119.269 36.1947 119.462 36.187L125.691 35.9387C125.885 35.931 126.037 35.7668 126.029 35.5718C126.026 35.4237 125.901 35.2235 125.663 35.233ZM117.528 35.5572L111.299 35.8054C111.105 35.8132 110.953 35.9774 110.961 36.1723C110.969 36.3673 111.134 36.5189 111.327 36.5112L117.556 36.2629C117.749 36.2552 117.902 36.091 117.894 35.896C117.89 35.7479 117.766 35.5477 117.528 35.5572ZM109.395 35.8813L103.166 36.1295C102.973 36.1373 102.82 36.3015 102.828 36.4964C102.836 36.6914 103.001 36.843 103.194 36.8353L109.423 36.587C109.617 36.5793 109.769 36.4151 109.761 36.2201C109.755 36.0721 109.63 35.8719 109.395 35.8813ZM101.26 36.2055L95.0307 36.4537C94.8373 36.4615 94.6851 36.6257 94.6929 36.8206C94.7007 37.0156 94.8657 37.1672 95.0591 37.1595L101.288 36.9112C101.481 36.9035 101.634 36.7393 101.626 36.5443C101.622 36.3962 101.498 36.196 101.26 36.2055Z" fill="#F2E5D9"/>
<path fill-rule="evenodd" clip-rule="evenodd" d="M120.336 49.0166L121.441 48.8391C121.487 49.1215 121.59 49.3324 121.749 49.4768C121.909 49.6212 122.101 49.6877 122.319 49.679C122.554 49.6696 122.749 49.5729 122.903 49.3863C123.057 49.2022 123.126 48.9573 123.114 48.6513C123.103 48.3651 123.016 48.1386 122.856 47.977C122.696 47.8153 122.504 47.7389 122.281 47.7478C122.135 47.7536 121.962 47.7902 121.761 47.855L121.85 46.9246C122.161 46.9197 122.391 46.8438 122.549 46.6941C122.707 46.547 122.778 46.3538 122.769 46.1169C122.761 45.9171 122.695 45.759 122.571 45.6429C122.447 45.5292 122.286 45.4763 122.085 45.4843C121.89 45.4921 121.726 45.5653 121.593 45.709C121.46 45.8503 121.383 46.051 121.364 46.3138L120.306 46.178C120.366 45.8123 120.463 45.5193 120.603 45.2962C120.741 45.0732 120.942 44.8947 121.202 44.7607C121.463 44.6268 121.758 44.5532 122.085 44.5402C122.647 44.5178 123.106 44.6774 123.46 45.0242C123.752 45.3066 123.906 45.6341 123.921 46.0043C123.942 46.5274 123.672 46.9583 123.112 47.2945C123.457 47.3549 123.736 47.5069 123.952 47.7529C124.168 47.9988 124.282 48.3032 124.296 48.6635C124.317 49.1866 124.144 49.6384 123.775 50.0238C123.408 50.4067 122.94 50.6107 122.369 50.6334C121.829 50.655 121.374 50.5174 121.007 50.2206C120.635 49.9166 120.413 49.5177 120.336 49.0166ZM124.555 57.4987L123.449 57.6639C123.413 57.4379 123.337 57.2729 123.218 57.1689C123.1 57.0649 122.949 57.0165 122.768 57.0237C122.525 57.0334 122.326 57.1501 122.166 57.3714C122.009 57.5952 121.923 58.0485 121.906 58.7337C122.177 58.3868 122.525 58.2049 122.949 58.188C123.427 58.1689 123.844 58.3352 124.2 58.6843C124.557 59.0359 124.744 59.4955 124.767 60.0705C124.792 60.68 124.633 61.1781 124.289 61.5601C123.944 61.9421 123.49 62.1455 122.93 62.1679C122.328 62.1919 121.823 61.9772 121.415 61.5239C121.007 61.0705 120.783 60.3133 120.74 59.2473C120.696 58.1542 120.867 57.359 121.252 56.8592C121.636 56.3595 122.155 56.0966 122.802 56.0708C123.255 56.0528 123.637 56.1661 123.945 56.4084C124.25 56.6557 124.454 57.0183 124.555 57.4987ZM122.06 60.0919C122.075 60.462 122.173 60.7473 122.352 60.9428C122.531 61.1383 122.731 61.2317 122.952 61.2229C123.162 61.2145 123.338 61.1235 123.472 60.955C123.607 60.784 123.665 60.5098 123.65 60.1323C123.635 59.7449 123.546 59.4642 123.388 59.2876C123.227 59.1136 123.035 59.0323 122.807 59.0414C122.586 59.0502 122.404 59.1439 122.257 59.3228C122.113 59.4991 122.046 59.7563 122.06 60.0919ZM121.349 72.3072L122.455 72.142C122.491 72.3679 122.567 72.5305 122.686 72.6345C122.802 72.7387 122.955 72.7869 123.141 72.7795C123.376 72.7701 123.57 72.6536 123.725 72.43C123.88 72.2063 123.966 71.7506 123.986 71.0652C123.711 71.4098 123.359 71.5894 122.925 71.6067C122.456 71.6254 122.043 71.4615 121.686 71.1148C121.329 70.7657 121.142 70.3036 121.119 69.7262C121.095 69.1217 121.253 68.6284 121.601 68.2464C121.945 67.8619 122.399 67.6585 122.954 67.6363C123.559 67.6122 124.066 67.8268 124.474 68.2777C124.882 68.731 125.107 69.4907 125.15 70.5641C125.193 71.6523 125.024 72.4474 124.64 72.9447C124.255 73.4444 123.739 73.7072 123.09 73.7331C122.624 73.7516 122.242 73.6408 121.944 73.403C121.649 73.1652 121.449 72.8 121.349 72.3072ZM123.827 69.7097C123.812 69.3421 123.716 69.0617 123.537 68.8662C123.36 68.6705 123.161 68.5772 122.938 68.5861C122.727 68.5945 122.554 68.6854 122.422 68.8562C122.287 69.0272 122.229 69.3014 122.244 69.6789C122.259 70.0614 122.348 70.3396 122.506 70.5137C122.664 70.6854 122.859 70.769 123.087 70.76C123.308 70.7512 123.488 70.6575 123.632 70.4787C123.776 70.3 123.84 70.0429 123.827 69.7097ZM113.141 49.8272L113.184 50.8834L109.168 51.0434C109.194 50.6395 109.31 50.2543 109.514 49.8878C109.718 49.5213 110.127 49.028 110.743 48.4078C111.239 47.9085 111.543 47.5702 111.653 47.3953C111.8 47.1546 111.87 46.9171 111.86 46.6876C111.85 46.4334 111.773 46.2412 111.631 46.1085C111.489 45.9757 111.298 45.9166 111.058 45.9262C110.817 45.9358 110.632 46.0149 110.496 46.1661C110.361 46.3148 110.291 46.5549 110.282 46.8913L109.135 46.8234C109.179 46.1914 109.372 45.7314 109.72 45.4432C110.068 45.155 110.512 45.0014 111.049 44.98C111.639 44.9564 112.109 45.0984 112.459 45.4008C112.809 45.7057 112.993 46.0937 113.012 46.565C113.023 46.834 112.984 47.0901 112.9 47.3382C112.813 47.5839 112.672 47.844 112.472 48.1189C112.34 48.3021 112.1 48.5663 111.751 48.9113C111.4 49.2565 111.181 49.4852 111.089 49.5976C110.996 49.7101 110.921 49.8193 110.866 49.9253L113.141 49.8346L113.141 49.8272ZM109.73 61.0578L110.868 60.8938C110.91 61.1491 111.015 61.3501 111.182 61.4967C111.349 61.6408 111.538 61.7074 111.749 61.699C111.989 61.6894 112.186 61.5852 112.345 61.3836C112.503 61.1821 112.573 60.8852 112.557 60.4928C112.542 60.1252 112.449 59.852 112.276 59.6736C112.105 59.495 111.886 59.4123 111.623 59.4228C111.293 59.436 111.001 59.5909 110.753 59.89L109.82 59.7937L110.281 56.6785L113.312 56.5577L113.355 57.6212L111.194 57.7074L111.054 58.7263C111.304 58.5903 111.561 58.5157 111.829 58.5051C112.337 58.4848 112.776 58.6527 113.145 59.0087C113.515 59.3622 113.71 59.8339 113.734 60.4262C113.753 60.9172 113.627 61.3621 113.358 61.7584C112.99 62.2995 112.46 62.5851 111.771 62.6126C111.218 62.6346 110.761 62.5045 110.402 62.2222C110.041 61.9425 109.817 61.556 109.73 61.0578ZM111.098 70.8794C110.798 70.7653 110.575 70.6036 110.433 70.3918C110.29 70.18 110.214 69.9433 110.203 69.6842C110.185 69.2401 110.327 68.8662 110.625 68.5651C110.923 68.2641 111.361 68.1008 111.931 68.0781C112.499 68.0555 112.943 68.1836 113.27 68.4597C113.594 68.736 113.767 69.0973 113.785 69.5415C113.796 69.8179 113.734 70.065 113.596 70.288C113.461 70.5084 113.265 70.6818 113.009 70.8057C113.347 70.9257 113.607 71.1081 113.791 71.3578C113.975 71.6075 114.071 71.8978 114.084 72.2309C114.106 72.7812 113.948 73.2373 113.61 73.5943C113.275 73.9537 112.813 74.1426 112.228 74.1659C111.685 74.1876 111.228 74.0624 110.855 73.7931C110.415 73.4745 110.183 73.0215 110.16 72.4343C110.147 72.111 110.217 71.8116 110.365 71.5364C110.515 71.256 110.759 71.0387 111.098 70.8794ZM111.29 69.7225C111.299 69.9495 111.37 70.1246 111.502 70.2479C111.636 70.371 111.81 70.4259 112.023 70.4174C112.241 70.4087 112.409 70.3378 112.533 70.2018C112.657 70.0684 112.716 69.8856 112.707 69.6586C112.699 69.4439 112.627 69.2737 112.496 69.1505C112.362 69.0273 112.188 68.9675 111.98 68.9758C111.759 68.9846 111.588 69.0556 111.464 69.1916C111.339 69.3325 111.281 69.5078 111.29 69.7225ZM111.283 72.2783C111.296 72.5966 111.388 72.8376 111.556 73.0089C111.724 73.1801 111.928 73.2609 112.169 73.2514C112.404 73.242 112.597 73.1478 112.744 72.9714C112.89 72.795 112.957 72.5452 112.944 72.2244C112.933 71.9431 112.847 71.7217 112.682 71.5577C112.519 71.3937 112.315 71.3153 112.074 71.3249C111.794 71.3361 111.592 71.4405 111.461 71.641C111.335 71.8388 111.274 72.0513 111.283 72.2783ZM112.403 79.6235C112.983 79.6003 113.442 79.7896 113.786 80.1887C114.195 80.6617 114.421 81.4634 114.466 82.5935C114.512 83.7212 114.348 84.5408 113.977 85.0499C113.668 85.47 113.225 85.6928 112.648 85.7158C112.065 85.739 111.588 85.5356 111.215 85.1031C110.843 84.6706 110.63 83.8833 110.584 82.7384C110.539 81.6156 110.702 80.7985 111.074 80.2893C111.382 79.8693 111.825 79.6465 112.403 79.6235ZM112.441 80.571C112.305 80.5764 112.185 80.6257 112.082 80.7188C111.979 80.8094 111.901 80.9707 111.853 81.2024C111.788 81.5016 111.769 82.0016 111.797 82.6999C111.825 83.4007 111.879 83.8805 111.959 84.1393C112.039 84.3981 112.133 84.5698 112.243 84.6519C112.353 84.7341 112.473 84.7737 112.61 84.7683C112.746 84.7629 112.866 84.7136 112.971 84.6204C113.074 84.5298 113.15 84.3686 113.2 84.1368C113.265 83.8425 113.285 83.3425 113.257 82.6417C113.229 81.9434 113.174 81.4636 113.095 81.2048C113.015 80.946 112.921 80.7743 112.811 80.6897C112.701 80.6051 112.577 80.5656 112.441 80.571ZM101.115 51.3643L99.9719 51.4099L99.7987 47.1015C99.3979 47.508 98.9164 47.8188 98.3562 48.0265L98.3144 46.9877C98.6105 46.8795 98.9253 46.6816 99.2639 46.3962C99.6025 46.1109 99.8301 45.783 99.947 45.4175L100.874 45.3805L101.115 51.3643ZM100.895 62.9397L100.847 61.743L98.4102 61.8401L98.3703 60.8481L100.803 56.9599L101.765 56.9215L101.917 60.7018L102.661 60.6722L102.701 61.6691L101.957 61.6987L102.005 62.8955L100.895 62.9397ZM100.807 60.7461L100.725 58.7153L99.4409 60.8005L100.807 60.7461ZM98.9198 69.7582L98.8773 68.7021L102.801 68.5457L102.835 69.3773C102.523 69.7086 102.214 70.1756 101.9 70.7813C101.59 71.3868 101.36 72.0287 101.211 72.7019C101.061 73.3777 100.999 73.9758 101.025 74.5012L99.9216 74.5451C99.9083 73.7202 100.043 72.872 100.331 72.003C100.619 71.1339 101.017 70.3494 101.527 69.6543L98.9198 69.7582Z" fill="white"/>
<path opacity="0.22" d="M149.317 58.1227C152.763 54.6922 152.763 49.1301 149.317 45.6995C145.871 42.269 140.283 42.269 136.837 45.6995C133.391 49.1301 133.391 54.6922 136.837 58.1227C140.283 61.5533 145.871 61.5533 149.317 58.1227Z" fill="#003889"/>
<path d="M141.992 59.0516C146.866 59.0516 150.817 55.1186 150.817 50.267C150.817 45.4154 146.866 41.4824 141.992 41.4824C137.119 41.4824 133.168 45.4154 133.168 50.267C133.168 55.1186 137.119 59.0516 141.992 59.0516Z" fill="#F4B545"/>
<path d="M140.404 54.6721C140.126 54.6855 139.844 54.5937 139.622 54.3935L136.852 51.8964C136.408 51.4953 136.374 50.8121 136.777 50.3698C137.18 49.9275 137.866 49.8938 138.31 50.2943L140.275 52.0659L145.598 46.2155C146.001 45.7732 146.687 45.7395 147.132 46.14C147.576 46.5411 147.61 47.2243 147.207 47.6666L141.154 54.3174C140.954 54.5398 140.682 54.6587 140.404 54.6721Z" fill="white"/>
<path d="M109.003 165.031C108.67 165.031 108.354 164.832 108.224 164.504C108.053 164.075 108.264 163.591 108.695 163.421C115.839 160.607 121.428 154.87 124.029 147.682C124.186 147.248 124.667 147.023 125.102 147.179C125.537 147.336 125.763 147.813 125.606 148.247C122.842 155.885 116.903 161.981 109.311 164.972C109.21 165.013 109.106 165.031 109.003 165.031Z" fill="white"/>
<path d="M126.114 135.235C125.708 135.235 125.352 134.941 125.287 134.529C123.715 124.471 116.366 116.079 106.563 113.151C106.12 113.019 105.868 112.554 106.001 112.113C106.134 111.672 106.602 111.422 107.044 111.554C117.462 114.666 125.273 123.584 126.943 134.274C127.014 134.729 126.701 135.155 126.244 135.226C126.2 135.232 126.157 135.235 126.114 135.235Z" fill="white"/>
<path d="M69.3236 171.28C69.302 171.876 69.0501 172.421 68.6449 172.837C68.2384 173.254 67.6775 173.54 67.0379 173.623L55.6765 175.079C55.6718 175.08 55.6683 175.079 55.6631 175.08C55.2625 175.13 54.8537 175.094 54.4689 174.977L48.7401 173.226C47.4264 172.825 46.6556 171.567 46.964 170.327L47.2136 169.325C47.2754 169.075 47.3786 168.838 47.5191 168.621C47.655 168.41 47.8258 168.218 48.0258 168.052L48.3827 167.757L54.7884 162.448C55.2759 162.044 55.9097 161.821 56.568 161.822L58.8455 161.826L60.1872 161.828C60.9639 161.829 61.7026 162.142 62.2123 162.685L68.6723 169.58C69.1131 170.051 69.3457 170.659 69.3236 171.28Z" fill="#C4D7F2"/>
<path d="M55.6624 175.08C55.2619 175.13 54.8531 175.094 54.4683 174.977L48.7395 173.226C47.4258 172.825 46.6549 171.567 46.9634 170.327L47.213 169.325C47.2748 169.075 47.378 168.838 47.5185 168.621C47.6543 168.41 47.8252 168.218 48.0252 168.052L48.382 167.757L55.3627 170.143L55.6624 175.08Z" fill="#ACC6E5"/>
<path d="M60.7272 169.386L55.3698 171.025C55.3698 171.025 49.3127 171.191 47.5186 168.62C47.6544 168.409 47.8253 168.217 48.0253 168.051L54.7873 162.447C55.2748 162.043 55.9086 161.82 56.5669 161.821L58.8444 161.825L61.0461 168.824C61.1202 169.061 60.9797 169.309 60.7272 169.386Z" fill="#D7E4F9"/>
<path d="M55.7739 166.045C56.9292 165.121 57.4487 163.855 56.9342 163.218C56.4197 162.581 55.0661 162.814 53.9108 163.738C52.7555 164.663 52.236 165.929 52.7505 166.566C53.265 167.203 54.6186 166.97 55.7739 166.045Z" fill="#ECF3FE"/>
<path d="M51.628 167.47C52.006 167.167 52.1758 166.753 52.0073 166.544C51.8389 166.336 51.3959 166.412 51.0179 166.714C50.6399 167.017 50.4701 167.431 50.6385 167.639C50.807 167.848 51.25 167.772 51.628 167.47Z" fill="#ECF3FE"/>
<path d="M78.1445 175.056L69.5667 173.067C69.5527 173.063 69.5399 173.061 69.5265 173.056C69.3539 173.013 69.1895 172.94 69.0396 172.842L65.0921 170.257C64.5965 169.933 64.3178 169.367 64.3609 168.779L64.4431 167.676L64.4688 167.337C64.5277 166.559 65.1335 165.93 65.9143 165.844L68.5294 165.55C68.7825 165.521 69.0384 165.551 69.2775 165.639L73.2209 167.086C73.3422 167.131 73.4571 167.189 73.5643 167.26L77.404 169.82L79.5264 171.235C80.0354 171.574 80.3106 172.167 80.2407 172.772L80.1363 173.66C80.0238 174.624 79.0943 175.277 78.1445 175.056Z" fill="#C4D7F2"/>
<path d="M69.5265 173.056C69.3539 173.013 69.1895 172.94 69.0396 172.842L65.0921 170.257C64.5965 169.933 64.3178 169.367 64.3609 168.779L64.4688 167.337C64.5277 166.559 65.1335 165.93 65.9143 165.844L68.5294 165.55C68.7825 165.521 69.0384 165.551 69.2775 165.639L69.8297 165.842C69.7609 167.593 69.6005 171.61 69.5265 173.056Z" fill="#ACC6E5"/>
<path d="M77.4038 169.821C77.2475 170.096 77.0883 170.374 76.9443 170.627C76.6108 171.211 75.9554 171.534 75.2866 171.444L69.5968 170.681C69.4038 170.655 69.2178 170.596 69.0458 170.506C68.1129 170.015 64.9823 168.365 64.8785 168.256C64.8441 168.22 64.7549 168.103 64.6453 167.954C64.5141 167.776 64.4511 167.557 64.468 167.337C64.5269 166.559 65.1327 165.93 65.9135 165.844L68.5286 165.55C68.7817 165.521 69.0377 165.551 69.2767 165.639L73.2201 167.086C73.3414 167.131 73.4563 167.189 73.5636 167.26L77.4038 169.821Z" fill="#D7E4F9"/>
<path d="M70.3757 167.206C70.4231 166.683 69.5857 166.18 68.5055 166.083C67.4252 165.986 66.5111 166.332 66.4638 166.855C66.4164 167.378 67.2538 167.881 68.334 167.978C69.4143 168.075 70.3284 167.729 70.3757 167.206Z" fill="#ECF3FE"/>
<path opacity="0.22" d="M77.8092 82.2033L79.4244 80.9605L76.2944 79.9662L71.8069 83.4629C71.7061 83.2185 70.8169 83.3055 70.0863 83.417C70.1545 83.2876 70.2105 83.1558 70.2402 83.0316C70.309 82.7408 70.1242 82.4465 69.9358 82.2334C71.4186 81.8596 73.5049 81.4464 73.4868 81.1753C73.4617 80.7957 68.9003 81.4034 68.1329 81.5085C68.0606 81.5183 67.9912 81.5421 67.9271 81.5793L64.5026 83.5459L64.3959 83.3636L56.431 87.4065C55.4158 84.9517 54.3389 82.2985 53.8555 80.9443C53.7132 80.5467 53.4987 80.1786 53.2351 79.8391L54.0071 79.2122L52.5226 78.4936L52.6398 77.5945L52.8526 75.9628C53.0433 76.076 53.2386 76.188 53.4433 76.2977C56.7808 78.0919 57.4339 73.3409 57.4852 73.0425C57.5342 72.7465 59.5027 71.722 59.1033 71.3041C58.8776 71.069 57.9937 69.9394 57.3389 68.9614C57.3272 68.9434 57.3161 68.9265 57.3033 68.9097C57.1254 68.6427 56.9593 68.3948 56.824 68.1928C56.8123 68.1754 56.8013 68.1592 56.7896 68.1423C56.9564 67.9961 57.08 67.8684 57.1721 67.7726C57.2222 67.7204 57.2549 67.6548 57.2712 67.5839C57.3779 67.1126 56.8234 66.3145 56.5774 66.163C56.2934 65.9883 58.9377 64.1987 57.1225 63.4621C55.3074 62.7267 52.0409 63.8191 50.1465 65.1849C48.2521 66.5513 48.1541 68.8673 48.0672 70.6714C48.027 71.5281 48.3529 72.353 48.7698 72.9903C48.9908 73.3293 49.2375 73.6137 49.469 73.8238L49.3564 74.092L48.3564 76.4753L47.4597 76.0412L47.1045 77.5341C39.0148 86.6641 36.6224 110.309 36.6224 110.309C36.879 110.372 37.139 110.428 37.4009 110.479L37.2627 112.524L33.4907 168.38H33.9367L33.8481 169.79L33.5974 169.823L33.0207 173.093C32.9513 173.484 33.223 173.836 33.6166 173.866C36.0493 174.048 43.7885 174.543 43.6842 173.459C43.56 172.173 42.3804 171.84 40.1577 171.32C38.6638 170.97 37.9635 169.93 37.6644 169.286L37.4417 169.316L37.4609 168.381H38.086L44.2259 138.278L48.0072 119.741C52.7342 123.803 59.9668 128.143 59.9668 128.143L54.6992 157.908L55.2042 157.951L54.8771 159.692L54.7202 159.713L54.1436 162.983C54.0742 163.375 54.3459 163.726 54.7395 163.756C57.1721 163.938 64.9114 164.433 64.807 163.349C64.6828 162.063 63.5032 161.731 61.2805 161.21C59.7866 160.86 59.0864 159.82 58.7872 159.176L58.5167 159.212L58.8129 158.26L59.5388 158.322L70.267 126.423C70.6874 125.172 70.3422 123.832 69.3842 123C65.5644 119.684 55.9295 111.307 53.3132 108.904C53.3086 108.9 53.3051 108.897 53.301 108.893C53.3762 108.868 53.4164 108.854 53.4164 108.854L54.3896 102.144L54.9016 98.6121C55.7669 99.5885 57.0531 100.11 57.894 100.362C58.3942 100.513 58.9517 100.383 59.3622 100.028L71.453 89.5803L71.2209 89.2511C74.0431 87.9753 77.4232 83.4791 77.9066 82.8853C78.4051 82.2694 77.8092 82.2033 77.8092 82.2033ZM69.5959 86.9433L58.6916 92.8099C58.6916 92.8099 58.6362 92.6787 58.5371 92.4448L66.0414 86.1724L65.835 85.8201C66.2356 85.4741 66.9189 84.9482 67.3545 84.9709C67.8373 84.9958 69.8711 84.5326 71.0116 84.0822L70.6629 84.3538L72.2973 85.0103C71.2653 85.7539 70.1656 86.6292 69.6606 87.0367L69.5959 86.9433Z" fill="#003889"/>
<path d="M33.6422 166.599L33.6084 170.321L37.1938 169.708L37.0964 166.798L33.6422 166.599Z" fill="white"/>
<path d="M43.6468 173.464C43.4533 172.178 42.2562 171.846 40.0055 171.325C38.493 170.975 37.7361 169.935 37.4026 169.291L33.3647 169.829L32.9641 173.098C32.9163 173.49 33.2067 173.842 33.6015 173.871C36.044 174.053 43.8101 174.548 43.6468 173.464Z" fill="#15315E"/>
<path d="M54.5557 156.276L54.056 160.005L57.6088 159.616L58.3679 156.658L54.5557 156.276Z" fill="white"/>
<path d="M64.2244 163.353C64.0308 162.066 62.8337 161.734 60.583 161.214C59.0705 160.864 58.3136 159.824 57.9801 159.18L53.9422 159.717L53.5417 162.987C53.4938 163.379 53.7842 163.73 54.179 163.76C56.6215 163.942 64.3876 164.437 64.2244 163.353Z" fill="#15315E"/>
<path d="M33.1799 168.385H37.7746L42.2918 138.282L45.0737 119.744L45.3069 118.183L45.9652 113.795L46.5355 110.32L46.7646 108.923L40.0195 109.308L33.9793 109.651L33.9403 112.53L33.1799 168.385Z" fill="#1F3A6F"/>
<path d="M41.2876 114.562L42.2917 138.283L45.3068 118.184L41.2876 114.562Z" fill="#072542"/>
<path d="M40.1419 112.005C40.2737 112.895 40.5087 113.929 40.9052 115.088C41.3384 116.357 42.9798 118.025 45.0736 119.744C50.0199 123.806 57.4863 128.147 57.4863 128.147L53.8234 157.912L58.6846 158.324L67.6927 126.425C68.046 125.175 67.6279 123.834 66.625 123.003C62.6268 119.687 52.5395 111.31 49.7937 108.907C49.3675 108.534 49.1173 108.304 49.0958 108.261H40.1722C40.1722 108.261 40.0696 108.626 40.0195 109.309C39.9722 109.943 39.9711 110.854 40.1419 112.005Z" fill="#1F3A6F"/>
<path d="M33.9401 112.531C35.4934 112.529 37.6567 112.422 40.1418 112.005C42.1184 111.674 44.298 111.147 46.5353 110.321C47.6128 109.923 48.7049 109.456 49.7936 108.907C49.3673 108.534 49.1172 108.304 49.0956 108.261H40.1721C40.1721 108.261 40.0695 108.626 40.0193 109.309L33.9791 109.653L33.9401 112.531Z" fill="#072542"/>
<path d="M68.773 85.5181L72.8517 82.2078L74.3998 80.965L71.2156 79.9707L65.822 84.3578L68.773 85.5181Z" fill="white"/>
<path d="M64.6274 81.9268C64.6274 81.9268 65.4262 82.4904 65.3265 83.0372C65.2268 83.584 64.6274 84.2799 64.6274 84.2799L62.53 84.1638V82.5728L64.6274 81.9268Z" fill="#EFA37D"/>
<path d="M59.5334 83.6007L62.9357 81.5848C62.9981 81.5482 63.0664 81.5238 63.1375 81.514C63.899 81.4089 68.4272 80.8017 68.4733 81.1808C68.5234 81.5952 63.6786 82.3411 63.562 82.7718C63.4454 83.2025 64.0279 83.6169 64.9107 83.4678C65.7934 83.3186 67.1911 83.1363 66.892 83.65C66.5923 84.1637 63.1964 85.0089 62.5468 84.9758C61.8973 84.9427 60.7655 86.1193 60.7655 86.1193L59.5334 83.6007Z" fill="#FDC8AA"/>
<path d="M64.6945 87.2713C64.6945 87.2713 68.7562 83.7828 69.572 83.7659C70.3877 83.7491 68.7731 85.5183 68.7731 85.5183L72.8518 82.208C72.8518 82.208 73.4512 82.2742 72.9848 82.8877C72.5183 83.5013 69.1889 88.2738 66.3755 89.3673L64.6945 87.2713Z" fill="#FDC8AA"/>
<path d="M59.5004 83.3682L61.2981 86.1776L53.2322 93.237L50.2107 88.2155L59.5004 83.3682Z" fill="#E59D29"/>
<path d="M42.6439 77.7009L47.2637 79.8138L47.4328 77.5994L47.6136 75.2398L44.3174 73.127L43.9617 74.0981L42.6439 77.7009Z" fill="#FDC8AA"/>
<path d="M43.9617 74.0981C45.6899 76.7896 46.8415 77.46 47.4328 77.5994L47.6135 75.2398L44.3174 73.127L43.9617 74.0981Z" fill="#EFA37D"/>
<path d="M52.0328 73.0468C51.9972 73.3452 51.6007 78.0962 48.1663 76.302C47.1115 75.7518 46.2311 75.158 45.5249 74.5444C45.3634 74.4051 45.2113 74.2658 45.0684 74.123C44.5314 73.5919 44.1203 73.0492 43.8363 72.5099C43.4468 71.7727 43.2906 71.0414 43.367 70.3477C43.4766 69.3337 45.034 68.2151 46.7349 67.6126C46.7378 67.6115 46.7401 67.6109 46.743 67.6097C48.2765 67.0653 49.9255 66.9422 50.7284 67.6968C50.775 67.7403 50.915 67.9296 51.1097 68.1977C51.2561 68.3997 51.4357 68.6476 51.6275 68.9146C51.6409 68.9314 51.6532 68.9483 51.666 68.9662C52.3733 69.9443 53.3185 71.0739 53.5564 71.309C53.9791 71.7263 52.066 72.7508 52.0328 73.0468Z" fill="#FDC8AA"/>
<path d="M42.4882 70.6778C42.4941 71.5346 42.8649 72.3594 43.3162 72.9967C43.8136 73.7008 44.4095 74.1762 44.7209 74.2198C44.7675 74.2273 44.8206 74.2215 44.8783 74.2093C45.3815 74.0886 46.2287 73.2382 46.6608 72.6891C46.8001 72.5126 46.8958 72.3675 46.9243 72.2863C46.9447 72.2311 46.929 72.1649 46.8882 72.0889C46.8724 72.0605 46.8549 72.0309 46.8322 71.9984C46.5418 71.5775 45.7249 70.8903 45.7716 69.8524C45.8293 68.5307 47.8019 69.7334 47.8019 69.7334C47.9517 69.6951 48.0952 69.6551 48.2334 69.6138H48.2345C49.6246 69.2029 50.4345 68.6909 50.9196 68.284C51.1616 68.0803 51.3231 67.9033 51.4357 67.7785C51.4829 67.7262 51.512 67.6606 51.5249 67.5898C51.6065 67.1185 51.0088 66.3204 50.7546 66.1689C50.4613 65.9941 53.0094 64.2046 51.154 63.468C49.2992 62.7326 46.0917 63.825 44.2707 65.1908C42.4503 66.5572 42.4777 68.8732 42.4882 70.6778Z" fill="#1F3A6F"/>
<path d="M33.1805 110.315C40.5723 112.105 49.8947 108.856 49.8947 108.856L50.5057 102.146L50.8276 98.6142C51.7454 99.5905 53.0602 100.112 53.9139 100.364C54.4223 100.515 54.9728 100.385 55.364 100.03L66.8916 89.5823L64.894 86.9471L54.3063 92.8137C54.3063 92.8137 50.0282 83.8649 48.8294 80.9481C47.9384 78.7807 44.9565 77.4915 43.4837 76.9725C42.9694 76.7903 42.398 76.9476 42.0434 77.3603C34.3111 86.3591 33.1805 110.315 33.1805 110.315Z" fill="#F4B545"/>
<path d="M46.0656 92.3184C46.0656 92.3184 46.1128 97.9853 50.5057 102.148L50.8276 98.6157C50.827 98.6151 48.4632 96.4448 46.0656 92.3184Z" fill="#E59D29"/>
<path d="M48.8876 79.2171L47.8637 80.0872L41.8701 77.676L42.1698 76.0479L48.8876 79.2171Z" fill="white"/>
<path opacity="0.22" d="M197.662 144.581L128.052 151.005L130.159 173.637L199.77 167.213L197.662 144.581Z" fill="#003889"/>
<path d="M180.879 148.325L182.361 159.441L179.752 159.786L178.269 148.67L180.879 148.325Z" fill="white"/>
<path d="M191.709 146.894L193.192 158.009L190.96 158.304L185.589 151.373C185.62 151.563 185.641 151.687 185.655 151.746C185.702 151.933 185.734 152.092 185.751 152.222L186.639 158.875L184.602 159.145L183.119 148.029L185.939 147.656L190.611 153.709C190.535 153.388 190.486 153.143 190.463 152.975L189.688 147.161L191.709 146.894Z" fill="white"/>
<path opacity="0.22" d="M196.86 136.981L195.584 137.649L195.583 137.651L187.439 129.044C187.439 129.044 177.735 104.863 175.804 100.35C175.745 100.213 175.684 100.08 175.619 99.9486C175.532 99.7721 175.439 99.5997 175.337 99.4331C175.302 99.3751 175.267 99.3171 175.229 99.2596C175.193 99.2039 175.156 99.1481 175.119 99.0924C175.081 99.0367 175.042 98.9816 175.003 98.9258C174.967 98.8718 174.927 98.819 174.884 98.7656C174.844 98.7122 174.804 98.6594 174.762 98.6083C174.72 98.5555 174.678 98.5044 174.633 98.4539C174.59 98.4034 174.546 98.3523 174.502 98.3042C174.232 98.0035 173.937 97.726 173.62 97.4724C173.572 97.4341 173.524 97.3981 173.475 97.3603C173.421 97.3191 173.366 97.2762 173.308 97.2379C173.303 97.2327 173.299 97.2292 173.292 97.2245C173.254 97.1967 173.216 97.1711 173.179 97.1473C172.975 97.0045 172.762 96.871 172.542 96.7468C172.485 96.7143 172.426 96.6818 172.368 96.651C172.294 96.611 172.218 96.5733 172.142 96.5355C172.066 96.4978 171.99 96.4601 171.913 96.4247C171.836 96.3893 171.761 96.3533 171.682 96.3202C171.68 96.3184 171.68 96.3184 171.678 96.319C171.599 96.2836 171.519 96.2505 171.439 96.2198C171.362 96.1878 171.286 96.1582 171.21 96.1309C170.894 96.012 170.565 95.9063 170.224 95.8169C170.163 95.8007 170.103 95.7844 170.042 95.7682C170.02 95.7635 169.997 95.7571 169.974 95.7513C169.91 95.7357 169.843 95.72 169.778 95.7066C169.628 95.6706 169.476 95.6387 169.32 95.6097C169.166 95.5801 169.008 95.5534 168.851 95.5302C168.375 95.4559 167.881 95.4042 167.372 95.3764C167.201 95.3671 167.031 95.3601 166.857 95.3555C166.597 95.3485 166.332 95.3485 166.066 95.3526C165.976 95.3549 165.887 95.3566 165.796 95.3589C165.706 95.3613 165.615 95.3653 165.525 95.3694C165.434 95.3734 165.343 95.3781 165.25 95.3827C165.143 95.3897 165.035 95.3967 164.926 95.4036C164.849 95.4094 164.773 95.4158 164.694 95.4222C164.508 95.4373 164.32 95.4547 164.131 95.4768C164.035 95.4878 163.941 95.4965 163.845 95.5099C163.781 95.518 163.716 95.5261 163.654 95.5337C163.58 95.5435 163.505 95.5528 163.431 95.5627C162.918 95.6329 162.396 95.7223 161.865 95.8274C161.613 95.8808 161.359 95.9301 161.102 95.9922C153.934 97.6163 153.747 96.178 149.62 91.7787C145.498 87.3748 141.627 88.7632 141.627 88.7632L138.409 90.1232H138.408L136.847 90.7803L136.847 90.7797C136.673 90.5627 122.945 73.1914 122.135 71.9986C121.317 70.7993 118.444 68.3643 115.975 70.5869C113.502 72.81 117.284 78.2013 117.477 78.7045C117.61 79.0569 122.972 88.029 127.12 94.7013C127.12 94.7019 127.121 94.7024 127.121 94.7024C126.851 94.923 126.58 95.2376 126.387 95.6904C125.979 96.6539 125.926 98.2322 126.998 100.805C129.163 106.005 129.676 109.581 133.776 109.509C134.175 109.503 134.613 109.458 135.086 109.379C135.086 109.38 135.086 109.38 135.086 109.381L135.089 109.383C137.581 115.775 140.033 123.232 140.033 123.232C140.033 123.232 133.517 119.375 129.716 111.835C125.911 104.301 118.685 107.668 118.685 107.668C118.685 107.668 122.394 117.035 123.697 120.848C125.004 124.663 133.093 130.009 135.823 132.639C138.554 135.271 154.913 143.603 154.913 143.603C154.913 143.603 163.661 145.757 166.746 152.344C166.8 152.458 166.856 152.576 166.913 152.697L165.333 153.527L179.924 178.093L218.731 154.88L196.86 136.981Z" fill="#003889"/>
<path d="M136.971 106.362C136.175 106.561 135.478 106.671 134.86 106.692C130.763 106.848 130.177 103.282 127.907 98.1274C126.782 95.5763 126.803 93.9969 127.191 93.0258C127.708 91.7389 128.87 91.5195 128.87 91.5195C128.87 91.5195 143.039 104.836 136.971 106.362Z" fill="#3B82F4"/>
<path d="M136.971 106.362C136.175 106.561 135.478 106.671 134.86 106.692C133.854 104.313 132.394 100.874 132.107 100.289C131.752 99.5664 128.5 94.8949 127.191 93.0258C127.708 91.7389 128.87 91.5195 128.87 91.5195C128.87 91.5195 143.04 104.836 136.971 106.362Z" fill="#1A71D8"/>
<path d="M202.648 139.073L174.01 157.515C173.936 157.407 173.861 157.299 173.788 157.188C173.641 156.971 173.496 156.754 173.352 156.539C171.591 153.915 169.943 151.293 168.874 149.202C168.814 149.081 168.755 148.964 168.699 148.851C165.479 142.327 156.689 140.352 156.689 140.352C156.689 140.352 140.164 132.352 137.38 129.776C134.597 127.202 126.399 122.02 125.015 118.233C123.635 114.447 119.735 105.157 119.735 105.157C119.735 105.157 126.891 101.645 130.848 109.1C134.803 116.562 141.396 120.286 141.396 120.286C141.396 120.286 138.793 112.879 136.171 106.54L136.168 106.538C134.694 102.976 133.212 99.7512 132.183 98.3674C131.328 97.2192 129.731 94.8272 127.904 92.0218C123.62 85.4348 118.076 76.573 117.936 76.2236C117.732 75.7244 113.842 70.4109 116.269 68.1379C118.691 65.866 121.613 68.2424 122.456 69.4242C123.29 70.6002 137.371 87.6905 137.548 87.9035C137.548 87.9035 137.548 87.9035 137.551 87.9052L139.097 87.2157L142.287 85.7907C142.287 85.7907 146.129 84.3238 150.34 88.6436C154.555 92.9581 154.772 94.3924 161.904 92.6238C162.16 92.5564 162.412 92.5019 162.664 92.4432C163.193 92.3277 163.713 92.2279 164.225 92.1472C164.299 92.1362 164.373 92.1252 164.447 92.1141C164.509 92.1048 164.573 92.0955 164.637 92.0863C164.732 92.0712 164.827 92.0607 164.923 92.0474C165.112 92.0218 165.298 92.0009 165.485 91.9818C165.563 91.9736 165.64 91.9661 165.716 91.9585C165.825 91.9493 165.933 91.94 166.039 91.9313C166.132 91.9249 166.223 91.9185 166.314 91.9127C166.405 91.9069 166.496 91.9005 166.585 91.8965C166.676 91.8924 166.765 91.8883 166.855 91.8843C167.121 91.875 167.386 91.8697 167.646 91.8715C167.82 91.8726 167.991 91.8761 168.162 91.8819C168.671 91.8994 169.166 91.9411 169.643 92.0056C169.801 92.0253 169.959 92.0491 170.114 92.0758C170.271 92.1019 170.423 92.1304 170.573 92.1635C170.639 92.1756 170.706 92.1896 170.77 92.2041C170.793 92.2099 170.816 92.2157 170.839 92.2198C170.9 92.2348 170.96 92.2499 171.021 92.265C171.364 92.3475 171.695 92.4461 172.013 92.5593C172.09 92.5854 172.167 92.6139 172.244 92.6435C172.325 92.6731 172.405 92.7044 172.485 92.7381C172.487 92.7375 172.487 92.7375 172.489 92.7393C172.569 92.7712 172.645 92.8054 172.723 92.8391C172.801 92.8734 172.878 92.9093 172.954 92.9453C173.03 92.9813 173.107 93.0179 173.182 93.0562C173.241 93.0858 173.301 93.1166 173.358 93.1485C173.581 93.2681 173.797 93.3975 174.003 93.5357C174.041 93.5589 174.079 93.5838 174.118 93.6105C174.125 93.6152 174.13 93.6187 174.135 93.6233C174.194 93.6605 174.249 93.7028 174.304 93.7423C174.355 93.7789 174.402 93.8143 174.451 93.8514C174.773 94.0987 175.074 94.3698 175.35 94.6652C175.395 94.7128 175.44 94.7627 175.485 94.8127C175.529 94.8626 175.573 94.9125 175.616 94.9647C175.659 95.0146 175.7 95.0675 175.742 95.1197C175.785 95.172 175.826 95.2242 175.864 95.277C175.903 95.3316 175.943 95.3861 175.983 95.4413C176.021 95.4964 176.059 95.551 176.097 95.6061C176.135 95.663 176.171 95.7205 176.208 95.7774C176.313 95.9416 176.409 96.1117 176.501 96.287C176.568 96.4164 176.631 96.5482 176.694 96.6846C178.717 101.156 188.912 125.137 188.912 125.137L197.23 133.577L199.508 135.886L201.805 138.214L202.621 139.043L202.648 139.073Z" fill="#70ABFF"/>
<path d="M143.455 95.8826C143.432 95.8919 137.548 87.9048 137.548 87.9048L139.096 87.2158C141.022 90.4942 143.425 95.8077 143.455 95.8826Z" fill="#1A71D8"/>
<path d="M220.724 150.335L181.087 175.15L167.31 150.063L197.23 133.578L197.231 133.576L198.493 132.883L220.724 150.335Z" fill="white"/>
<path opacity="0.22" d="M188.118 68.4318C186.931 64 179.422 63.9228 179.422 63.9228L179.415 63.1886L179.391 60.6229C179.715 59.8498 179.935 58.9872 180.026 58.0742C181.708 57.3515 182.293 54.2559 180.925 53.7579C180.876 53.7399 180.828 53.7266 180.78 53.7155C180.913 52.8617 180.554 51.8534 179.756 51.0901C178.945 50.3147 177.897 49.9954 177.033 50.1742C176.63 49.1892 175.548 48.6429 174.431 48.9297C173.937 49.0562 173.511 49.3279 173.189 49.6837C172.134 49.058 170.687 48.9755 169.316 49.5903C167.19 50.5439 166.06 52.8065 166.793 54.6448C167.357 56.0571 168.857 56.8036 170.486 56.6428C170.481 56.9138 170.485 57.189 170.501 57.4693C170.675 60.6316 172.087 63.3325 174.133 63.9704C174.131 64.0035 174.129 64.0441 174.128 64.0923C167.197 64.523 165.394 68.5601 163.213 72.3191C160.837 76.4119 158.802 84.5406 160.969 86.25C163.137 87.9594 167.101 85.0595 167.101 85.0595L166.897 88.6798C166.897 88.6798 150.479 90.3933 150.53 94.3421C150.581 98.2904 148.025 125.878 148.025 125.878L148.298 125.897L148.074 127.503C147.997 127.557 147.919 127.617 147.84 127.687C146.012 129.287 147.677 130.107 143.947 131.872C140.217 133.637 140.985 135.321 141.593 135.816C142.181 136.294 147.795 136.639 151.487 133.78C151.716 133.603 151.872 133.348 151.922 133.07C152.12 131.965 152.595 129.042 152.115 128.845C152.076 128.829 152.036 128.815 151.996 128.802L152.463 126.195L152.824 126.221L159.09 98.1557L166.306 98.1139C165.115 107.126 161.801 129.325 161.976 129.28C162.008 129.272 162.16 129.276 162.389 129.288L162.164 130.9C162.059 130.914 161.96 130.942 161.867 130.978C161.532 131.11 161.287 131.422 161.236 131.772C160.938 133.818 158.094 136.718 158.094 136.718C158.094 136.718 156.805 138.231 158.919 139.611C161.032 140.99 164.655 139.636 164.655 139.636C165.124 139.397 165.574 135.316 165.724 133.814C165.736 133.696 165.717 133.583 165.674 133.483L166.527 129.601C166.87 129.629 167.088 129.648 167.088 129.648L174.532 101.16C174.532 101.16 183.14 99.5691 183.603 91.1281C183.625 90.7259 183.629 90.3085 183.611 89.8744V89.8738L184.022 89.9034L184.036 87.6477C185.969 88.8893 189.134 87.7615 190.177 86.0306C191.22 84.2997 189.305 72.8636 188.118 68.4318Z" fill="#003889"/>
<path d="M166.124 129.245L165.396 134.034L161.726 131.844L161.969 128.45L166.124 129.245Z" fill="white"/>
<path d="M151.929 124.8L151.366 129.851L147.378 128.843L147.736 123.854L151.929 124.8Z" fill="white"/>
<path d="M163.67 88.6807C163.67 88.6807 147.368 90.3942 147.686 94.343C148.004 98.2918 147.315 125.878 147.315 125.878L152.137 126.222L156.504 98.1572L172.572 98.0643L175.579 88.7625L163.67 88.6807Z" fill="#15315E"/>
<path d="M172.149 101.161L166.633 129.648C166.633 129.648 161.7 129.23 161.496 129.281C161.291 129.334 163.893 97.9125 163.894 94.6515C163.893 91.3917 172.362 88.8545 172.362 88.8545L180.411 89.4268C180.432 89.5789 180.451 89.7287 180.465 89.8755C180.512 90.3091 180.537 90.727 180.541 91.1293C180.649 99.5697 172.149 101.161 172.149 101.161Z" fill="#1F3A6F"/>
<path d="M150.571 128.714C150.397 128.728 150.229 128.642 150.137 128.494C149.75 127.867 148.632 126.403 147.252 127.687C145.533 129.287 147.253 130.108 143.643 131.872C140.032 133.637 140.914 135.322 141.555 135.816C142.176 136.295 147.813 136.64 151.312 133.781C151.529 133.603 151.667 133.349 151.698 133.071C151.822 131.965 152.099 129.042 151.606 128.845C151.239 128.699 150.835 128.694 150.571 128.714Z" fill="#15315E"/>
<path d="M160.925 131.773C160.952 131.423 161.176 131.11 161.503 130.979C161.867 130.832 162.368 130.818 162.897 131.361C163.722 132.209 164.497 132.867 165.114 133.136C165.386 133.254 165.562 133.519 165.552 133.814C165.503 135.316 165.33 139.398 164.877 139.636C164.877 139.636 161.346 140.991 159.139 139.611C156.932 138.231 158.118 136.718 158.118 136.718C158.118 136.718 160.765 133.818 160.925 131.773Z" fill="#15315E"/>
<path d="M186.77 86.03C185.844 87.7609 182.755 88.8888 180.739 87.6472L180.877 89.9028L163.67 88.6792L163.629 85.0589C163.629 85.0589 159.862 87.9589 157.578 86.2494C155.294 84.54 156.78 76.4113 158.878 72.3185C160.977 68.2258 162.598 63.7998 171.202 64.0622L174.521 63.9229C174.521 63.9229 182.035 64 183.522 68.4318C185.008 72.8636 187.697 84.2997 186.77 86.03Z" fill="#1f527d"/>
<path d="M171.748 66.9222C169.679 66.7753 169.308 65.0235 169.246 64.2446C169.228 64.0176 169.235 63.8742 169.235 63.8742L173.429 60.1942L174.183 59.5342L174.237 60.2516L174.464 63.1899L174.52 63.9253C174.52 63.9253 174.417 67.112 171.748 66.9222Z" fill="#FDC8AA"/>
<path d="M174.464 63.1901C173.468 64.2732 171.842 65.0696 169.246 64.2447C169.228 64.0178 169.235 63.8744 169.235 63.8744L173.429 60.1943L174.237 60.2518L174.464 63.1901Z" fill="#EFA37D"/>
<path d="M174.661 56.593C175.129 60.4031 173.299 63.7604 170.573 64.0918C167.848 64.4233 165.629 61.2795 165.162 57.47C164.694 53.6605 166.154 50.6265 168.879 50.295C171.605 49.9636 174.194 52.7829 174.661 56.593Z" fill="#FDC8AA"/>
<path d="M173.069 55.6428C173.069 55.6428 173.868 53.2368 175.335 53.7587C176.803 54.2799 176.323 57.6523 174.489 58.1626L173.069 55.6428Z" fill="#FDC8AA"/>
<path d="M173.986 55.4892C173.986 55.4892 174.956 54.4496 175.283 55.0585C175.609 55.6674 175.106 56.8283 174.891 56.913C174.676 56.9983 175.057 55.7248 174.91 55.6807C174.762 55.6372 174.284 56.0969 173.986 55.4892Z" fill="#EFA37D"/>
<path d="M166.545 56.2387C168.607 55.2851 169.584 53.0222 168.726 51.1845C167.869 49.3468 165.502 48.6302 163.44 49.5838C161.378 50.5375 160.401 52.8003 161.259 54.638C162.116 56.4757 164.483 57.1924 166.545 56.2387Z" fill="#1F3A6F"/>
<path d="M171.117 52.3419C171.764 51.239 171.391 49.8223 170.283 49.1775C169.175 48.5328 167.752 48.9041 167.105 50.007C166.457 51.1099 166.83 52.5266 167.938 53.1713C169.046 53.8161 170.469 53.4447 171.117 52.3419Z" fill="#1F3A6F"/>
<path d="M174.75 54.7743C175.578 53.8621 175.238 52.2137 173.991 51.0926C172.743 49.9716 171.062 49.8023 170.234 50.7145C169.407 51.6267 169.747 53.275 170.994 54.3961C172.241 55.5172 173.923 55.6865 174.75 54.7743Z" fill="#1F3A6F"/>
<path d="M173.796 82.4131L180.739 87.6476L180.878 89.9033L170.808 89.187C177.495 88.3755 173.796 82.4131 173.796 82.4131Z" fill="#57CBFF"/>
<path d="M178.357 71.584C178.357 71.584 179.47 78.4252 179.396 78.42C179.321 78.4148 177.035 77.4286 177.035 77.4286L178.357 71.584Z" fill="#E59D29"/>
<path d="M173.973 76.2041L171.488 79.7199L172.194 81.434L175.921 76.5419L173.973 76.2041Z" fill="white"/>
<path d="M173.191 77.3116L173.021 77.5513L171.812 79.2619C171.215 78.9479 170.286 78.3431 169.547 77.3441C168.359 75.7386 166.94 75.9493 166.935 75.4878C166.93 75.0263 167.441 74.8986 168.221 75.0304C168.602 75.0931 168.862 74.984 169.035 74.8447C169.218 74.7001 169.298 74.5219 169.314 74.4854C169.314 74.4854 170.786 74.5898 170.898 74.598C170.979 74.6032 172.424 76.3689 173.191 77.3116Z" fill="#EFA37D"/>
<path d="M173.537 76.8232L173.191 77.3114L173.021 77.5511C172.569 76.98 172.051 76.5063 172.051 76.5063C172.051 76.5063 171.893 76.7884 171.62 76.731C171.349 76.6735 171.275 76.3113 171.275 76.3113C171.275 76.3113 171.151 76.652 170.799 76.6607C170.447 76.6694 170.21 76.3751 170.21 76.3751C170.21 76.3751 170.06 76.7077 169.467 76.5818C168.898 76.4634 168.952 75.4075 169.035 74.8445C169.039 74.8189 169.042 74.7951 169.046 74.7737C169.135 74.2309 168.508 73.438 167.807 73.6534C167.105 73.8693 165.166 72.5012 168.377 72.4623C171.588 72.4251 172.965 75.1341 173.226 76.1505C173.309 76.4779 173.422 76.6874 173.537 76.8232Z" fill="#FDC8AA"/>
<path d="M173.678 78.8828C173.68 78.9629 173.667 79.0395 173.636 79.1074L173.678 78.8828Z" fill="#FDC8AA"/>
<path d="M163.458 72.5859L167.926 73.7933L167.829 82.4537L162.989 80.934L163.458 72.5859Z" fill="#36588E"/>
<path d="M180.542 91.1288L171.727 89.2539L180.464 89.875C180.512 90.3086 180.536 90.7265 180.542 91.1288Z" fill="#072542"/>
<path d="M162.226 81.0243C162.226 81.0243 162.057 77.8051 162.679 76.5037C163.301 75.2029 164.286 74.468 164.607 74.7774C164.928 75.0874 164.374 76.34 163.9 77.0087C163.425 77.6774 164.188 77.6036 164.188 77.6036C164.188 77.6036 166.23 76.6616 166.384 77.3883C166.538 78.115 164.651 78.7756 164.651 78.7756C164.651 78.7756 166.599 78.6392 166.655 79.179C166.712 79.7188 164.461 80.0381 164.461 80.0381C164.461 80.0381 166.737 80.0224 166.641 80.6011C166.546 81.1798 164.485 80.8983 164.389 81.477C164.293 82.0557 164.043 83.1777 164.043 83.1777L162.226 81.0243Z" fill="#FDC8AA"/>
<path d="M161.921 80.416L164.271 82.9288L164.3 84.2429L160.819 81.2443L161.921 80.416Z" fill="white"/>
<path d="M157.799 21.2132C159.968 21.2132 161.726 19.463 161.726 17.3039C161.726 15.1448 159.968 13.3945 157.799 13.3945C155.63 13.3945 153.872 15.1448 153.872 17.3039C153.872 19.463 155.63 21.2132 157.799 21.2132Z" fill="#C4D7F2"/>
<path d="M19.9984 142.994C21.532 141.467 21.532 138.992 19.9984 137.465C18.4648 135.939 15.9783 135.939 14.4447 137.465C12.9111 138.992 12.9111 141.467 14.4447 142.994C15.9783 144.52 18.4648 144.52 19.9984 142.994Z" fill="white"/>
<path d="M33.1805 56.2065C36.4755 56.2065 39.1466 53.5475 39.1466 50.2673C39.1466 46.9872 36.4755 44.3281 33.1805 44.3281C29.8855 44.3281 27.2144 46.9872 27.2144 50.2673C27.2144 53.5475 29.8855 56.2065 33.1805 56.2065Z" fill="#C4D7F2"/>
</svg>
