<svg width="54" height="26" viewBox="0 0 54 26" fill="none" xmlns="http://www.w3.org/2000/svg">
<rect width="54" height="26" rx="13" fill="#8833FF"/>
<path d="M30.1074 13.8184H27.8867V12.6523H30.1074C30.4941 12.6523 30.8066 12.5898 31.0449 12.4648C31.2832 12.3398 31.457 12.168 31.5664 11.9492C31.6797 11.7266 31.7363 11.4727 31.7363 11.1875C31.7363 10.918 31.6797 10.666 31.5664 10.4316C31.457 10.1934 31.2832 10.002 31.0449 9.85742C30.8066 9.71289 30.4941 9.64062 30.1074 9.64062H28.3379V17H26.8672V8.46875H30.1074C30.7676 8.46875 31.3281 8.58594 31.7891 8.82031C32.2539 9.05078 32.6074 9.37109 32.8496 9.78125C33.0918 10.1875 33.2129 10.6523 33.2129 11.1758C33.2129 11.7266 33.0918 12.1992 32.8496 12.5938C32.6074 12.9883 32.2539 13.291 31.7891 13.502C31.3281 13.7129 30.7676 13.8184 30.1074 13.8184ZM35.8086 11.8672V17H34.3965V10.6602H35.7441L35.8086 11.8672ZM37.748 10.6191L37.7363 11.9316C37.6504 11.916 37.5566 11.9043 37.4551 11.8965C37.3574 11.8887 37.2598 11.8848 37.1621 11.8848C36.9199 11.8848 36.707 11.9199 36.5234 11.9902C36.3398 12.0566 36.1855 12.1543 36.0605 12.2832C35.9395 12.4082 35.8457 12.5605 35.7793 12.7402C35.7129 12.9199 35.6738 13.1211 35.6621 13.3438L35.3398 13.3672C35.3398 12.9688 35.3789 12.5996 35.457 12.2598C35.5352 11.9199 35.6523 11.6211 35.8086 11.3633C35.9688 11.1055 36.168 10.9043 36.4062 10.7598C36.6484 10.6152 36.9277 10.543 37.2441 10.543C37.3301 10.543 37.4219 10.5508 37.5195 10.5664C37.6211 10.582 37.6973 10.5996 37.748 10.6191ZM38.2109 13.9004V13.7656C38.2109 13.3086 38.2773 12.8848 38.4102 12.4941C38.543 12.0996 38.7344 11.7578 38.9844 11.4688C39.2383 11.1758 39.5469 10.9492 39.9102 10.7891C40.2773 10.625 40.6914 10.543 41.1523 10.543C41.6172 10.543 42.0312 10.625 42.3945 10.7891C42.7617 10.9492 43.0723 11.1758 43.3262 11.4688C43.5801 11.7578 43.7734 12.0996 43.9062 12.4941C44.0391 12.8848 44.1055 13.3086 44.1055 13.7656V13.9004C44.1055 14.3574 44.0391 14.7812 43.9062 15.1719C43.7734 15.5625 43.5801 15.9043 43.3262 16.1973C43.0723 16.4863 42.7637 16.7129 42.4004 16.877C42.0371 17.0371 41.625 17.1172 41.1641 17.1172C40.6992 17.1172 40.2832 17.0371 39.916 16.877C39.5527 16.7129 39.2441 16.4863 38.9902 16.1973C38.7363 15.9043 38.543 15.5625 38.4102 15.1719C38.2773 14.7812 38.2109 14.3574 38.2109 13.9004ZM39.623 13.7656V13.9004C39.623 14.1855 39.6523 14.4551 39.7109 14.709C39.7695 14.9629 39.8613 15.1855 39.9863 15.377C40.1113 15.5684 40.2715 15.7188 40.4668 15.8281C40.6621 15.9375 40.8945 15.9922 41.1641 15.9922C41.4258 15.9922 41.6523 15.9375 41.8438 15.8281C42.0391 15.7188 42.1992 15.5684 42.3242 15.377C42.4492 15.1855 42.541 14.9629 42.5996 14.709C42.6621 14.4551 42.6934 14.1855 42.6934 13.9004V13.7656C42.6934 13.4844 42.6621 13.2188 42.5996 12.9688C42.541 12.7148 42.4473 12.4902 42.3184 12.2949C42.1934 12.0996 42.0332 11.9473 41.8379 11.8379C41.6465 11.7246 41.418 11.668 41.1523 11.668C40.8867 11.668 40.6562 11.7246 40.4609 11.8379C40.2695 11.9473 40.1113 12.0996 39.9863 12.2949C39.8613 12.4902 39.7695 12.7148 39.7109 12.9688C39.6523 13.2188 39.623 13.4844 39.623 13.7656Z" fill="white"/>
<path d="M14.9311 6.05674C14.8873 6.07588 14.6522 6.2208 14.4115 6.3794C12.76 7.46221 11.0373 8.11846 9.33928 8.31533C8.88538 8.37002 8.66936 8.52861 8.59827 8.85947C8.55998 9.04268 8.60373 10.3552 8.66936 10.9813C8.92913 13.4368 9.59905 15.463 10.6463 16.9696C10.9498 17.4071 11.1631 17.6614 11.5678 18.0634C12.4565 18.9548 13.3615 19.5017 14.603 19.9036C15.0049 20.0321 15.158 20.0321 15.56 19.9036C16.4869 19.6056 17.1979 19.231 17.9498 18.654C18.2287 18.4407 18.885 17.7927 19.1201 17.5028C20.4026 15.9087 21.1846 13.7813 21.4799 11.0661C21.5565 10.3688 21.6084 9.05908 21.5647 8.85947C21.4936 8.52861 21.2776 8.37002 20.8237 8.31533C19.0791 8.11299 17.3045 7.42119 15.6037 6.28369C15.1963 6.01025 15.1033 5.98018 14.9311 6.05674Z" fill="white"/>
<g clip-path="url(#clip0_3352_5506)">
<path fill-rule="evenodd" clip-rule="evenodd" d="M15.6978 12.2352L15 9.9375L14.3022 12.2352H11.9375L13.8507 13.7228L13.1406 16.0625L15 14.6166L16.8594 16.0625L16.1493 13.7228L18.0625 12.2352H15.6978Z" fill="#8833FF"/>
</g>
<defs>
<clipPath id="clip0_3352_5506">
<rect width="7" height="7" fill="white" transform="translate(11.5 9.5)"/>
</clipPath>
</defs>
</svg>
