<svg id="professional-experience" xmlns="http://www.w3.org/2000/svg" width="34.902" height="31.639" viewBox="0 0 34.902 31.639">
  <g id="Group_829" data-name="Group 829" transform="translate(0 0)">
    <path id="Path_989" data-name="Path 989" d="M104.973,492.1V478.4a6.649,6.649,0,0,1-.592.513,6.808,6.808,0,0,1-.592.407,6.052,6.052,0,0,1-2.211.813,21.383,21.383,0,0,1-3.222.1H90.79a.58.58,0,0,1-.083,0v.49c0,.059,0,.115,0,.174a.589.589,0,0,1-.573.573c-.565.028-1.137,0-1.706,0H85.673c-.241,0-.482,0-.723,0a.591.591,0,0,1-.612-.612c0-.205,0-.415,0-.62a.483.483,0,0,1-.075,0h-.051c-1.074.016-2.152,0-3.226,0h-4.8a11.473,11.473,0,0,1-3.542-.292,6.983,6.983,0,0,1-1.382-.62,6.7,6.7,0,0,1-.592-.395,6.1,6.1,0,0,1-.592-.509v14.933c0,.111,0,.221,0,.332a2.006,2.006,0,0,0,1.974,1.864c.257,0,.509,0,.766,0h30.128a2.018,2.018,0,0,0,2.026-2.053Z" transform="translate(-70.075 -463.911)" fill="#287cc4"/>
    <path id="Path_990" data-name="Path 990" d="M105.278,119.836v-1.358a2,2,0,0,0-1.97-1.864H94.632v-2.95a2.191,2.191,0,0,0-.6-1.6,2.132,2.132,0,0,0-1.528-.6H83.391c-.1,0-.2,0-.292,0a2.088,2.088,0,0,0-2.053,2.053c-.024,1.031-.012,2.069,0,3.1H72.426a2.041,2.041,0,0,0-1.414.545,2,2,0,0,0-.612,1.35v2.74c0,.118,0,.233.008.351,0,.083.012.162.02.245,0,.012,0,.024,0,.036.02.115.036.229.059.34a5.841,5.841,0,0,0,.245.813s0,0,0,.008,0,0,0,.008,0,.012.008.02c.024.055.051.111.079.166.051.1.1.2.158.3a.163.163,0,0,0,.028.043c.075.126.154.253.241.371.036.051.075.095.107.146l-.012-.024a.168.168,0,0,0,.02.028c.067.083.138.166.213.245.115.122.237.241.363.355.051.047.1.091.158.134a.22.22,0,0,0,.032.024c.067.043.095.059.1.063s-.024-.016-.051-.032c.083.055.162.118.245.174a5.828,5.828,0,0,0,.687.379h0c.229.071.107.043.032.016l.02.008c.067.024.13.051.2.071q.19.065.379.118c.138.036.276.067.419.095l.142.024c.028,0,.055,0,.079.008.351.032.707.024,1.058.024h9.141a.585.585,0,0,1,.083,0v-.952c0-.276-.039-.573.186-.778a.932.932,0,0,1,.687-.15h4.924a.583.583,0,0,1,.565.525.192.192,0,0,1,0,.047v1.311a.583.583,0,0,1,.083,0h.051c1.046-.02,2.093,0,3.135,0h6.507c.17,0,.336-.008.505-.024l.1-.012c.039-.008.083-.012.122-.02.138-.028.28-.055.419-.095s.272-.079.407-.126l.186-.071a5.751,5.751,0,0,0,.7-.383c.075-.047.146-.095.217-.146l.111-.083,0,0h0s.012-.008.012-.012c.055-.043.107-.091.158-.134.126-.111.245-.229.363-.355a3.159,3.159,0,0,0,.213-.245c0-.008.012-.012.016-.02.032-.051.075-.1.111-.15.075-.107.146-.217.209-.328.012-.024.028-.047.039-.067.059-.107.118-.213.17-.324.024-.051.051-.107.075-.158a5.536,5.536,0,0,0,.245-.8c.02-.087.036-.178.051-.265h0v0h0v0h0v-.012a.015.015,0,0,1,0-.012c0-.039.012-.091.016-.122.008-.071.012-.146.016-.217l.012-.344v-.782C105.282,120.259,105.278,120.049,105.278,119.836Zm-12.608-6.31s0,.008,0,.008h0v0c0,.02.008.032,0,.012,0,0-.012,0-.016-.012.02,1.027.012,2.053,0,3.08H83.016v-3.076c-.012.016-.02.02-.024.016-.008.012-.008-.012,0-.039-.02.024-.032.028,0-.008h0a.168.168,0,0,1,.008-.043h0c0-.008,0-.02.008-.028-.028,0-.02-.008,0-.012,0-.02.012-.028.012,0,.008,0,.016,0,.028,0v0c.016,0,.028,0,.043-.008h0a.3.3,0,0,1,.028-.024l-.024.024c.032,0,.055,0,.043,0,0,0,0,.012-.016.024h9.1c.118,0,.233,0,.351,0-.008,0-.012,0-.016-.008-.028-.016-.02-.02,0-.024-.012-.008-.008-.008,0,0h.016a.236.236,0,0,1-.028-.024l.032.024c.016,0,.032,0,.047,0s.012,0,.02,0,0-.012,0-.012a.017.017,0,0,1,0,.012c.036.008.051.016,0,.02v.02a.156.156,0,0,0,.024.008.059.059,0,0,1-.024,0v0h0s.012.008.02.016-.008,0-.016-.008,0,.012,0,.02a.186.186,0,0,0,.039.039c-.012-.008-.024-.02-.036-.028Z" transform="translate(-70.387 -111.456)" fill="#287cc4"/>
  </g>
</svg>
