<svg xmlns="http://www.w3.org/2000/svg" xmlns:xlink="http://www.w3.org/1999/xlink" width="168" height="181" viewBox="0 0 168 181">
  <defs>
    <linearGradient id="linear-gradient" y1="0.5" x2="1" y2="0.5" gradientUnits="objectBoundingBox">
      <stop offset="0" stop-color="#f9a114"/>
      <stop offset="1" stop-color="#fcbf31"/>
    </linearGradient>
    <linearGradient id="linear-gradient-2" y1="0.5" x2="1" y2="0.5" gradientUnits="objectBoundingBox">
      <stop offset="0" stop-color="#fcbf31"/>
      <stop offset="1" stop-color="#f9a114"/>
    </linearGradient>
    <linearGradient id="linear-gradient-3" x1="-0.01" y1="0.962" x2="0.973" y2="0.012" xlink:href="#linear-gradient"/>
    <linearGradient id="linear-gradient-4" x1="0.998" y1="0.947" x2="0.017" y2="0.009" xlink:href="#linear-gradient"/>
    <linearGradient id="linear-gradient-7" x1="0.499" y1="-0.008" x2="0.501" y2="0.942" gradientUnits="objectBoundingBox">
      <stop offset="0" stop-color="#ffd43b"/>
      <stop offset="1" stop-color="#f9a825"/>
    </linearGradient>
  </defs>
  <g id="rating-2" transform="translate(1435 -4621.5)">
    <rect id="Rectangle_513" data-name="Rectangle 513" width="163" height="176" rx="11" transform="translate(-1432.5 4624)" fill="#f6f6f5" stroke="#fff" stroke-width="5"/>
    <g id="Group_1193" data-name="Group 1193" transform="translate(-1468.296 4649.313)">
      <g id="Group_1180" data-name="Group 1180" transform="translate(103.851 102.523)">
        <path id="Path_7738" data-name="Path 7738" d="M263.927,128.705,256.1,132.82a.255.255,0,0,1-.37-.269l1.495-8.715a.254.254,0,0,0-.073-.226l-6.332-6.172a.255.255,0,0,1,.141-.435l8.75-1.271a.255.255,0,0,0,.192-.139l3.913-7.929a.255.255,0,0,1,.457,0l3.913,7.929a.255.255,0,0,0,.192.139l8.75,1.271a.255.255,0,0,1,.141.435l-6.332,6.172a.255.255,0,0,0-.073.226l1.495,8.715a.255.255,0,0,1-.37.269l-7.826-4.115A.255.255,0,0,0,263.927,128.705Z" transform="translate(-249.978 -106.249)" fill="#f5f5f5"/>
        <g id="Group_1179" data-name="Group 1179" transform="translate(0 0)">
          <path id="Path_7739" data-name="Path 7739" d="M260.927,123.705,253.1,127.82a.255.255,0,0,1-.37-.269l1.495-8.715a.254.254,0,0,0-.073-.226l-6.332-6.172a.255.255,0,0,1,.141-.435l8.75-1.271a.255.255,0,0,0,.192-.139l3.913-7.929a.255.255,0,0,1,.457,0l3.913,7.929a.255.255,0,0,0,.192.139l8.75,1.271a.255.255,0,0,1,.141.435l-6.332,6.172a.255.255,0,0,0-.073.226l1.495,8.715a.255.255,0,0,1-.37.269l-7.826-4.115A.255.255,0,0,0,260.927,123.705Z" transform="translate(-247.743 -102.523)" fill="none" stroke="#fecb37" stroke-width="2"/>
          <path id="Path_7740" data-name="Path 7740" d="M283.57,187.427l-7.826-4.114a.264.264,0,0,0-.239,0l-7.826,4.114a.254.254,0,0,1-.369-.267l.053-.311,8.261-4.343,8.261,4.343.054.311A.254.254,0,0,1,283.57,187.427Z" transform="translate(-262.322 -162.13)" fill="#f9a111"/>
          <path id="Path_7741" data-name="Path 7741" d="M332.863,140.114l-6.333,6.17a.257.257,0,0,0-.074.227l-.087-.5a.509.509,0,0,1,.146-.451l6.052-5.9.153.023A.256.256,0,0,1,332.863,140.114Z" transform="translate(-306.334 -130.196)" fill="url(#linear-gradient)"/>
          <path id="Path_7742" data-name="Path 7742" d="M247.818,140.114l6.333,6.17a.257.257,0,0,1,.074.227l.087-.5a.509.509,0,0,0-.146-.451l-6.052-5.9-.153.023A.256.256,0,0,0,247.818,140.114Z" transform="translate(-247.741 -130.196)" fill="url(#linear-gradient-2)"/>
        </g>
      </g>
      <g id="Group_1182" data-name="Group 1182" transform="translate(134.428 108.354)">
        <path id="Path_7743" data-name="Path 7743" d="M381.4,146.46l-6.3,3.311a.2.2,0,0,1-.3-.216l1.2-7.012a.205.205,0,0,0-.059-.181l-5.095-4.966a.205.205,0,0,1,.114-.35l7.041-1.023a.205.205,0,0,0,.154-.112l3.149-6.38a.2.2,0,0,1,.368,0l3.149,6.38a.205.205,0,0,0,.154.112l7.041,1.023a.205.205,0,0,1,.114.35l-5.095,4.966a.2.2,0,0,0-.059.181l1.2,7.012a.2.2,0,0,1-.3.216l-6.3-3.311A.205.205,0,0,0,381.4,146.46Z" transform="translate(-370.022 -128.397)" fill="#f5f5f5"/>
        <g id="Group_1181" data-name="Group 1181" transform="translate(0 0)">
          <path id="Path_7744" data-name="Path 7744" d="M378.385,142.46l-6.3,3.311a.2.2,0,0,1-.3-.216l1.2-7.012a.2.2,0,0,0-.059-.181l-5.095-4.966a.205.205,0,0,1,.114-.35l7.041-1.023a.205.205,0,0,0,.154-.112l3.149-6.38a.2.2,0,0,1,.368,0l3.149,6.38a.205.205,0,0,0,.154.112l7.041,1.023a.205.205,0,0,1,.114.35l-5.095,4.966a.205.205,0,0,0-.059.181l1.2,7.012a.2.2,0,0,1-.3.216l-6.3-3.311A.205.205,0,0,0,378.385,142.46Z" transform="translate(-367.777 -125.415)" fill="none" stroke="#fecb37" stroke-width="2"/>
          <path id="Path_7745" data-name="Path 7745" d="M396.605,193.732l-6.3-3.31a.212.212,0,0,0-.193,0l-6.3,3.31a.2.2,0,0,1-.3-.215l.043-.25,6.647-3.495,6.647,3.495.043.25A.2.2,0,0,1,396.605,193.732Z" transform="translate(-379.508 -173.378)" fill="#f9a111"/>
          <path id="Path_7746" data-name="Path 7746" d="M436.268,155.662l-5.1,4.965a.207.207,0,0,0-.06.182l-.07-.4a.41.41,0,0,1,.118-.363l4.87-4.748.123.018A.206.206,0,0,1,436.268,155.662Z" transform="translate(-414.921 -147.682)" fill="url(#linear-gradient-3)"/>
          <path id="Path_7747" data-name="Path 7747" d="M367.837,155.662l5.1,4.965a.207.207,0,0,1,.059.182l.07-.4a.41.41,0,0,0-.118-.363l-4.869-4.748-.123.018A.206.206,0,0,0,367.837,155.662Z" transform="translate(-367.776 -147.682)" fill="url(#linear-gradient-4)"/>
        </g>
      </g>
      <g id="Group_1184" data-name="Group 1184" transform="translate(78.47 108.354)">
        <path id="Path_7748" data-name="Path 7748" d="M161.733,146.46l-6.3,3.311a.205.205,0,0,1-.3-.216l1.2-7.012a.2.2,0,0,0-.059-.181l-5.095-4.966a.205.205,0,0,1,.114-.35l7.041-1.023a.2.2,0,0,0,.154-.112l3.149-6.38a.2.2,0,0,1,.368,0l3.149,6.38a.205.205,0,0,0,.154.112l7.041,1.023a.205.205,0,0,1,.114.35l-5.095,4.966a.205.205,0,0,0-.059.181l1.2,7.012a.205.205,0,0,1-.3.216l-6.3-3.311A.205.205,0,0,0,161.733,146.46Z" transform="translate(-150.357 -128.397)" fill="#f5f5f5"/>
        <g id="Group_1183" data-name="Group 1183" transform="translate(0 0)">
          <path id="Path_7749" data-name="Path 7749" d="M158.72,142.46l-6.3,3.311a.2.2,0,0,1-.3-.216l1.2-7.012a.205.205,0,0,0-.059-.181l-5.095-4.966a.205.205,0,0,1,.114-.35l7.041-1.023a.206.206,0,0,0,.154-.112l3.149-6.38a.2.2,0,0,1,.368,0l3.149,6.38a.205.205,0,0,0,.154.112l7.041,1.023a.205.205,0,0,1,.114.35l-5.095,4.966a.2.2,0,0,0-.059.181l1.2,7.012a.205.205,0,0,1-.3.216l-6.3-3.311A.205.205,0,0,0,158.72,142.46Z" transform="translate(-148.112 -125.415)" fill="none" stroke="#fecb37" stroke-width="2"/>
          <path id="Path_7750" data-name="Path 7750" d="M176.94,193.732l-6.3-3.31a.212.212,0,0,0-.193,0l-6.3,3.31a.2.2,0,0,1-.3-.215l.043-.25,6.647-3.495,6.647,3.495.043.25A.2.2,0,0,1,176.94,193.732Z" transform="translate(-159.843 -173.378)" fill="#f9a111"/>
          <path id="Path_7751" data-name="Path 7751" d="M216.6,155.662l-5.1,4.965a.207.207,0,0,0-.059.182l-.07-.4a.41.41,0,0,1,.118-.363l4.869-4.748.123.018A.206.206,0,0,1,216.6,155.662Z" transform="translate(-195.256 -147.682)" fill="url(#linear-gradient)"/>
          <path id="Path_7752" data-name="Path 7752" d="M148.172,155.662l5.1,4.965a.207.207,0,0,1,.06.182l.07-.4a.41.41,0,0,0-.118-.363l-4.87-4.748-.123.018A.206.206,0,0,0,148.172,155.662Z" transform="translate(-148.111 -147.682)" fill="url(#linear-gradient-2)"/>
        </g>
      </g>
      <g id="Group_1186" data-name="Group 1186" transform="translate(161.176 113.21)">
        <path id="Path_7753" data-name="Path 7753" d="M484.927,163.179l-5.432,2.855a.177.177,0,0,1-.257-.186l1.038-6.048a.177.177,0,0,0-.051-.156l-4.394-4.283a.177.177,0,0,1,.1-.3l6.073-.882a.177.177,0,0,0,.133-.1l2.716-5.5a.177.177,0,0,1,.317,0l2.716,5.5a.177.177,0,0,0,.133.1l6.073.882a.177.177,0,0,1,.1.3l-4.394,4.283a.177.177,0,0,0-.051.156l1.037,6.048a.177.177,0,0,1-.257.186l-5.432-2.855A.176.176,0,0,0,484.927,163.179Z" transform="translate(-475.013 -147.459)" fill="#f5f5f5"/>
        <g id="Group_1185" data-name="Group 1185">
          <path id="Path_7754" data-name="Path 7754" d="M481.926,159.179l-5.432,2.855a.177.177,0,0,1-.257-.186l1.038-6.048a.177.177,0,0,0-.051-.156l-4.394-4.283a.177.177,0,0,1,.1-.3l6.073-.882a.176.176,0,0,0,.133-.1l2.716-5.5a.177.177,0,0,1,.317,0l2.716,5.5a.177.177,0,0,0,.133.1l6.073.882a.177.177,0,0,1,.1.3l-4.394,4.283a.177.177,0,0,0-.051.156l1.037,6.048a.177.177,0,0,1-.257.186l-5.432-2.855A.176.176,0,0,0,481.926,159.179Z" transform="translate(-472.776 -144.478)" fill="url(#linear-gradient-7)"/>
          <path id="Path_7755" data-name="Path 7755" d="M497.641,203.4l-5.431-2.855a.184.184,0,0,0-.166,0l-5.431,2.855a.176.176,0,0,1-.256-.186l.037-.216,5.733-3.014L497.86,203l.037.216A.176.176,0,0,1,497.641,203.4Z" transform="translate(-482.895 -185.846)" fill="#f9a111"/>
          <path id="Path_7756" data-name="Path 7756" d="M531.85,170.565l-4.4,4.282a.179.179,0,0,0-.051.157l-.06-.349a.354.354,0,0,1,.1-.313l4.2-4.1.106.016A.178.178,0,0,1,531.85,170.565Z" transform="translate(-513.438 -163.682)" fill="url(#linear-gradient)"/>
          <path id="Path_7757" data-name="Path 7757" d="M472.829,170.565l4.4,4.282a.179.179,0,0,1,.051.157l.06-.349a.353.353,0,0,0-.1-.313l-4.2-4.1-.106.016A.178.178,0,0,0,472.829,170.565Z" transform="translate(-472.776 -163.682)" fill="url(#linear-gradient-2)"/>
        </g>
      </g>
      <g id="Group_1188" data-name="Group 1188" transform="translate(54.666 113.21)">
        <path id="Path_7758" data-name="Path 7758" d="M66.817,163.179l-5.432,2.855a.177.177,0,0,1-.257-.186l1.037-6.048a.177.177,0,0,0-.051-.156l-4.394-4.283a.177.177,0,0,1,.1-.3l6.073-.882a.177.177,0,0,0,.133-.1l2.716-5.5a.177.177,0,0,1,.317,0l2.716,5.5a.177.177,0,0,0,.133.1l6.073.882a.177.177,0,0,1,.1.3l-4.394,4.283a.177.177,0,0,0-.051.156l1.038,6.048a.177.177,0,0,1-.257.186l-5.432-2.855A.176.176,0,0,0,66.817,163.179Z" transform="translate(-56.903 -147.459)" fill="#f5f5f5"/>
        <g id="Group_1187" data-name="Group 1187" transform="translate(0)">
          <path id="Path_7759" data-name="Path 7759" d="M63.816,159.179l-5.432,2.855a.177.177,0,0,1-.257-.186l1.037-6.048a.177.177,0,0,0-.051-.156L54.72,151.36a.177.177,0,0,1,.1-.3l6.073-.882a.177.177,0,0,0,.133-.1l2.716-5.5a.177.177,0,0,1,.317,0l2.716,5.5a.177.177,0,0,0,.133.1l6.073.882a.177.177,0,0,1,.1.3l-4.394,4.283a.177.177,0,0,0-.051.156l1.038,6.048a.177.177,0,0,1-.257.186l-5.432-2.855A.176.176,0,0,0,63.816,159.179Z" transform="translate(-54.667 -144.478)" fill="url(#linear-gradient-7)"/>
          <path id="Path_7760" data-name="Path 7760" d="M79.531,203.4,74.1,200.546a.184.184,0,0,0-.166,0L68.5,203.4a.176.176,0,0,1-.257-.186l.037-.216,5.733-3.014L79.75,203l.037.216A.176.176,0,0,1,79.531,203.4Z" transform="translate(-64.785 -185.846)" fill="#f9a111"/>
          <path id="Path_7761" data-name="Path 7761" d="M113.74,170.565l-4.4,4.282a.179.179,0,0,0-.051.157l-.06-.349a.354.354,0,0,1,.1-.313l4.2-4.1.106.016A.178.178,0,0,1,113.74,170.565Z" transform="translate(-95.329 -163.682)" fill="url(#linear-gradient)"/>
          <path id="Path_7762" data-name="Path 7762" d="M54.719,170.565l4.4,4.282a.179.179,0,0,1,.051.157l.06-.349a.354.354,0,0,0-.1-.313l-4.2-4.1-.106.016A.178.178,0,0,0,54.719,170.565Z" transform="translate(-54.666 -163.682)" fill="url(#linear-gradient-2)"/>
        </g>
      </g>
    </g>
    <circle id="Ellipse_117" data-name="Ellipse 117" cx="50" cy="50" r="50" transform="translate(-1401 4638)" fill="#fff"/>
    <text id="_2" data-name="2" transform="translate(-1371 4714)" fill="#6a7878" font-size="70" font-family="SegoeUI-Bold, Segoe UI" font-weight="700"><tspan x="0" y="0">2</tspan></text>
  </g>
</svg>
