<svg xmlns="http://www.w3.org/2000/svg" width="168" height="181" viewBox="0 0 168 181">
  <g id="rating-photo-5" transform="translate(-341.5 -190.5)">
    <rect id="Rectangle_115" data-name="Rectangle 115" width="163" height="176" rx="11" transform="translate(344 193)" fill="#ddfbfb" stroke="#fff" stroke-width="5"/>
    <g id="Group_821" data-name="Group 821" transform="translate(-187.426 121.852)">
      <g id="fireworks" transform="translate(607.927 121.705)" opacity="0.48">
        <path id="Path_853" data-name="Path 853" d="M668.615,317.837l.267-.557.271-.555.541-1.111.547-1.108.553-1.1c.185-.368.362-.74.542-1.111s.373-.734.578-1.092.417-.711.639-1.059.45-.693.7-1.026l.04.021c-.136.394-.294.776-.459,1.155s-.339.752-.52,1.122-.376.733-.582,1.089-.416.711-.618,1.07l-.607,1.076-.613,1.073-.618,1.07-.309.535-.312.533Z" transform="translate(-659.848 -309.114)" fill="#fbce69"/>
        <path id="Path_854" data-name="Path 854" d="M631.211,363.4l-.435.379-.437.376-.874.752-.878.748-.882.742c-.294.247-.584.5-.875.752s-.591.491-.9.72-.622.452-.943.666-.646.423-.987.611l-.028-.035c.26-.29.535-.562.816-.826s.567-.521.859-.771.593-.489.9-.717.622-.453.928-.685l.92-.694.925-.689.928-.685.464-.342.466-.339Z" transform="translate(-623.166 -353.689)" fill="#fbce69"/>
        <path id="Path_855" data-name="Path 855" d="M668.652,363.41l.285.573.281.574.563,1.148.557,1.151.551,1.153c.183.385.374.766.563,1.148s.363.771.525,1.165.318.791.462,1.193.283.807.4,1.222l-.041.019c-.234-.362-.445-.734-.648-1.11s-.4-.755-.584-1.138-.36-.772-.521-1.167-.318-.791-.484-1.183l-.5-1.179-.489-1.181-.483-1.184-.242-.592-.238-.593Z" transform="translate(-659.844 -353.728)" fill="#fbce69"/>
        <path id="Path_856" data-name="Path 856" d="M668.68,343.606l.587-.257.588-.254,1.175-.507,1.177-.5,1.18-.495c.393-.164.784-.337,1.175-.506s.788-.325,1.19-.469.807-.279,1.216-.4.82-.244,1.241-.339l.016.042c-.373.216-.756.409-1.141.594s-.775.361-1.167.529-.79.322-1.192.464-.806.28-1.207.426l-1.2.438-1.2.431-1.207.426-.6.213-.6.21Z" transform="translate(-659.901 -334.39)" fill="#fbce69"/>
        <path id="Path_857" data-name="Path 857" d="M627.818,329.489l-.539-.406-.537-.408-1.074-.817-1.07-.822-1.065-.827c-.355-.276-.715-.546-1.073-.817s-.707-.555-1.048-.849-.676-.594-1-.9-.652-.623-.96-.957l.029-.035c.39.233.764.486,1.132.745s.731.525,1.089.8.705.558,1.045.853.677.593,1.019.884l1.027.874,1.022.88,1.019.884.509.442.507.445Z" transform="translate(-619.448 -320.234)" fill="#fbce69"/>
        <path id="Path_858" data-name="Path 858" d="M653.68,338.787c-.2-.188-.385-.381-.575-.574l-.281-.292-.276-.3c-.092-.1-.19-.193-.286-.288a1.923,1.923,0,0,1-.254-.314,3.082,3.082,0,0,1-.2-.357,1.966,1.966,0,0,1-.145-.4l.035-.028a1.981,1.981,0,0,1,.36.229,3.124,3.124,0,0,1,.3.274,1.931,1.931,0,0,1,.25.316c.072.115.142.231.218.342l.228.334.223.338c.146.228.293.455.433.687Z" transform="translate(-645.919 -331.401)" fill="#f9dbc1"/>
        <path id="Path_859" data-name="Path 859" d="M666.338,325.2c.023-.563.055-1.124.086-1.686l.051-.842.058-.841c.02-.28.031-.562.045-.843s.043-.56.086-.838.094-.555.154-.831a7.622,7.622,0,0,1,.225-.824l.045,0a7.649,7.649,0,0,1,.049.853q0,.424-.022.845a8.4,8.4,0,0,1-.091.838c-.045.278-.092.555-.131.834l-.119.835-.125.834c-.087.556-.172,1.112-.267,1.667Z" transform="translate(-657.977 -316.819)" fill="#f37463"/>
        <path id="Path_860" data-name="Path 860" d="M676,335.29c.429-.353.862-.7,1.3-1.044l.653-.515.656-.51c.219-.17.433-.346.649-.52a8.191,8.191,0,0,1,.673-.487q.349-.226.713-.431a7.428,7.428,0,0,1,.755-.374l.026.037a7.357,7.357,0,0,1-.594.6q-.309.281-.635.539a8.163,8.163,0,0,1-.676.483c-.234.149-.469.3-.7.45l-.692.46-.7.455c-.466.3-.931.6-1.4.9Z" transform="translate(-665.919 -327.433)" fill="#f37463"/>
        <path id="Path_861" data-name="Path 861" d="M672.087,363.328l.088.046.092.045.184.089.369.178.737.356.735.359.733.364c.244.122.492.236.739.353a8.009,8.009,0,0,1,.72.388q.35.212.687.448a7.175,7.175,0,0,1,.654.51l-.022.04a7.136,7.136,0,0,1-.785-.268q-.382-.153-.751-.331a7.839,7.839,0,0,1-.718-.392c-.232-.143-.463-.29-.7-.428l-.7-.418-.7-.425-.7-.431c-.232-.146-.461-.287-.692-.446Z" transform="translate(-662.677 -353.661)" fill="#f37463"/>
        <path id="Path_862" data-name="Path 862" d="M676.069,358.979c.275-.057.55-.1.825-.154l.413-.069.414-.062c.138-.02.275-.049.413-.075a2.071,2.071,0,0,1,.416-.034,3.3,3.3,0,0,1,.421.035,2.087,2.087,0,0,1,.426.106l0,.045a2.087,2.087,0,0,1-.406.169,3.314,3.314,0,0,1-.411.1,2.061,2.061,0,0,1-.416.029c-.14,0-.28-.012-.419-.011h-.418l-.419-.006c-.279-.007-.559-.013-.839-.028Z" transform="translate(-665.972 -349.764)" fill="#f9dbc1"/>
        <path id="Path_863" data-name="Path 863" d="M674.44,368.251c.215.212.422.43.63.647l.309.329.3.333c.1.111.208.217.313.325a2.388,2.388,0,0,1,.281.35,3.793,3.793,0,0,1,.227.393,2.388,2.388,0,0,1,.172.437l-.036.028a2.381,2.381,0,0,1-.387-.266,3.861,3.861,0,0,1-.332-.31,2.4,2.4,0,0,1-.278-.353c-.081-.127-.16-.255-.246-.379l-.255-.371-.25-.375c-.164-.252-.33-.5-.488-.76Z" transform="translate(-664.605 -357.706)" fill="#f9dbc1"/>
        <path id="Path_864" data-name="Path 864" d="M655.419,364.317c-.165.522-.338,1.04-.51,1.559l-.263.777-.269.774c-.09.258-.172.519-.257.779a7.95,7.95,0,0,1-.3.764q-.167.374-.359.739a7.175,7.175,0,0,1-.426.713L653,370.4a7.2,7.2,0,0,1,.169-.813q.1-.4.236-.787a7.962,7.962,0,0,1,.3-.762c.114-.249.229-.5.338-.747l.326-.752.333-.749c.224-.5.448-1,.679-1.493Z" transform="translate(-647.014 -354.46)" fill="#f37463"/>
        <path id="Path_865" data-name="Path 865" d="M632.831,355.2a.04.04,0,0,1-.011.012l-.006,0-.01,0-.016,0-.028,0h-.054l-.105,0c-.07,0-.139-.007-.209-.012-.139-.01-.278-.022-.416-.035-.277-.026-.553-.055-.829-.085l-.827-.1-.826-.107c-.275-.037-.551-.065-.827-.1a8.06,8.06,0,0,1-.82-.139q-.406-.091-.808-.208a7.27,7.27,0,0,1-.8-.28l.008-.045a7.5,7.5,0,0,1,.842.009q.418.025.83.077a8.307,8.307,0,0,1,.818.143c.27.062.54.126.812.182l.814.167.814.17.814.168q.2.042.408.08l.2.037.1.015.05.006h.037a.013.013,0,0,0-.007.008Z" transform="translate(-625.031 -346.083)" fill="#f37463"/>
        <path id="Path_866" data-name="Path 866" d="M641.855,363.934c-.289.053-.579.1-.869.143l-.435.064-.436.057c-.145.018-.29.045-.435.069a2.272,2.272,0,0,1-.437.029,3.641,3.641,0,0,1-.441-.04,2.269,2.269,0,0,1-.446-.111l0-.045a2.269,2.269,0,0,1,.429-.164,3.593,3.593,0,0,1,.433-.093,2.273,2.273,0,0,1,.437-.024c.147.007.293.016.44.017l.439,0,.44.011c.293.01.586.02.88.038Z" transform="translate(-634.983 -354.062)" fill="#f9dbc1"/>
      </g>
      <g id="fireworks-2" data-name="fireworks" transform="translate(663.447 130.167)" opacity="0.48">
        <path id="Path_867" data-name="Path 867" d="M979.969,365.29l.267-.557.271-.555.541-1.111.547-1.108.553-1.1c.185-.368.362-.74.542-1.111s.373-.734.578-1.091.417-.711.639-1.059.45-.693.7-1.026l.04.021c-.136.394-.294.776-.459,1.155s-.339.752-.52,1.122-.376.733-.582,1.089-.416.711-.618,1.07l-.607,1.076-.613,1.073-.618,1.07-.309.535-.312.533Z" transform="translate(-971.202 -356.567)" fill="#fbce69"/>
        <path id="Path_868" data-name="Path 868" d="M942.566,410.85l-.435.379-.437.376-.874.753-.878.748-.882.742c-.294.247-.583.5-.874.752s-.591.491-.9.72-.622.452-.943.666-.646.423-.986.611l-.028-.036c.26-.29.535-.561.816-.826s.567-.521.859-.771.593-.489.9-.717.622-.453.928-.685l.92-.695.925-.689.929-.685.464-.342.466-.34Z" transform="translate(-934.521 -401.142)" fill="#fbce69"/>
        <path id="Path_869" data-name="Path 869" d="M980.006,410.863l.285.573.282.574.563,1.148.557,1.15.551,1.153c.183.385.374.766.562,1.148s.363.771.525,1.165.318.791.462,1.194.283.807.4,1.222l-.041.019c-.234-.362-.445-.734-.648-1.11s-.4-.755-.584-1.138-.36-.772-.521-1.167-.318-.791-.484-1.183l-.5-1.179-.489-1.181-.483-1.184-.242-.592-.238-.593Z" transform="translate(-971.198 -401.181)" fill="#fbce69"/>
        <path id="Path_870" data-name="Path 870" d="M980.035,391.059l.586-.257.588-.253,1.175-.507,1.177-.5,1.18-.495c.394-.165.784-.337,1.176-.507s.788-.325,1.19-.469.807-.279,1.216-.4.82-.244,1.241-.339l.017.042c-.373.216-.756.409-1.141.594s-.774.361-1.167.529-.79.322-1.192.464-.806.28-1.207.426l-1.2.438-1.2.432-1.207.426-.6.213-.6.21Z" transform="translate(-971.256 -381.843)" fill="#fbce69"/>
        <path id="Path_871" data-name="Path 871" d="M939.172,376.942l-.539-.406-.537-.409-1.074-.817-1.07-.822-1.066-.827c-.355-.276-.715-.546-1.073-.817s-.707-.555-1.048-.849-.676-.594-1-.9-.652-.623-.96-.957l.029-.035c.39.233.764.486,1.133.745s.731.526,1.089.8.705.558,1.045.852.676.593,1.019.884l1.027.875,1.023.88,1.019.885.509.442.507.445Z" transform="translate(-930.803 -367.687)" fill="#fbce69"/>
        <path id="Path_872" data-name="Path 872" d="M965.034,386.24c-.2-.188-.385-.381-.575-.574l-.281-.292-.276-.3c-.092-.1-.19-.193-.286-.288a1.908,1.908,0,0,1-.254-.314,3.076,3.076,0,0,1-.2-.357,1.981,1.981,0,0,1-.145-.4l.036-.028a1.977,1.977,0,0,1,.359.229,3.136,3.136,0,0,1,.3.274,1.94,1.94,0,0,1,.25.317c.072.114.142.231.218.342l.228.334.223.339c.146.227.293.454.433.687Z" transform="translate(-957.273 -378.854)" fill="#f9dbc1"/>
        <path id="Path_873" data-name="Path 873" d="M977.693,372.65c.023-.563.055-1.124.086-1.686l.051-.842.058-.841c.02-.281.031-.562.046-.843a8.361,8.361,0,0,1,.086-.838q.064-.417.154-.831a7.62,7.62,0,0,1,.225-.824l.045,0a7.607,7.607,0,0,1,.048.853q0,.424-.022.845a8.4,8.4,0,0,1-.091.838c-.045.278-.092.555-.131.834l-.119.835-.125.834c-.087.556-.172,1.112-.267,1.667Z" transform="translate(-969.332 -364.272)" fill="#f37463"/>
        <path id="Path_874" data-name="Path 874" d="M987.359,382.743c.429-.353.862-.7,1.3-1.044l.653-.516.656-.51c.219-.17.433-.346.649-.52a8.189,8.189,0,0,1,.673-.487q.349-.226.713-.431a7.365,7.365,0,0,1,.755-.374l.026.037a7.41,7.41,0,0,1-.594.6q-.31.281-.636.539a8.2,8.2,0,0,1-.676.483c-.234.149-.469.3-.7.45l-.692.46-.7.455c-.466.3-.931.6-1.4.9Z" transform="translate(-977.274 -374.886)" fill="#f37463"/>
        <path id="Path_875" data-name="Path 875" d="M983.442,410.782l.088.045.092.045.184.089.369.178.737.356.736.359.733.364c.244.122.492.236.739.353a7.939,7.939,0,0,1,.72.388q.35.212.687.448a7.217,7.217,0,0,1,.654.51l-.022.04a7.159,7.159,0,0,1-.785-.268q-.383-.153-.751-.331a7.856,7.856,0,0,1-.718-.392c-.232-.143-.463-.29-.7-.428l-.7-.418-.7-.425-.7-.431c-.232-.146-.461-.287-.692-.446Z" transform="translate(-974.032 -401.115)" fill="#f37463"/>
        <path id="Path_876" data-name="Path 876" d="M987.423,406.431c.275-.057.55-.1.825-.154l.413-.069.414-.062c.138-.02.275-.049.413-.074a2.062,2.062,0,0,1,.416-.034,3.316,3.316,0,0,1,.421.035,2.1,2.1,0,0,1,.426.106l0,.045a2.074,2.074,0,0,1-.405.169,3.314,3.314,0,0,1-.411.1,2.07,2.07,0,0,1-.416.029c-.14,0-.28-.012-.419-.012h-.418l-.419-.006c-.279-.007-.559-.013-.839-.027Z" transform="translate(-977.327 -397.217)" fill="#f9dbc1"/>
        <path id="Path_877" data-name="Path 877" d="M985.8,415.7c.214.212.422.43.63.647l.309.328.3.333c.1.111.208.217.313.325a2.4,2.4,0,0,1,.281.35,3.806,3.806,0,0,1,.228.393,2.379,2.379,0,0,1,.172.438l-.035.028a2.373,2.373,0,0,1-.387-.266,3.787,3.787,0,0,1-.332-.31,2.37,2.37,0,0,1-.278-.353c-.081-.127-.16-.255-.246-.379l-.255-.371-.25-.375c-.165-.252-.33-.5-.488-.76Z" transform="translate(-975.96 -405.159)" fill="#f9dbc1"/>
        <path id="Path_878" data-name="Path 878" d="M966.773,411.77c-.165.522-.338,1.04-.51,1.559l-.263.777-.269.774c-.09.258-.172.519-.257.779a7.933,7.933,0,0,1-.3.764q-.167.374-.36.739a7.209,7.209,0,0,1-.426.713l-.042-.016a7.2,7.2,0,0,1,.169-.813q.1-.4.236-.787a7.942,7.942,0,0,1,.3-.762c.113-.249.229-.5.338-.747l.326-.752.332-.749c.224-.5.448-1,.68-1.493Z" transform="translate(-958.368 -401.913)" fill="#f37463"/>
        <path id="Path_879" data-name="Path 879" d="M944.185,402.65a.036.036,0,0,1-.011.012l-.006,0-.01,0-.016,0-.028,0h-.053l-.105,0-.209-.012c-.139-.01-.277-.022-.416-.035-.277-.026-.553-.055-.829-.085l-.827-.1-.826-.107c-.275-.037-.551-.065-.827-.1a7.989,7.989,0,0,1-.82-.139q-.407-.091-.808-.208a7.281,7.281,0,0,1-.8-.28l.008-.045a7.55,7.55,0,0,1,.843.008q.418.025.83.077t.818.143c.271.062.541.126.812.182l.814.167.814.17.814.168q.2.041.407.08l.2.037.1.015.05.005h.036a.014.014,0,0,0-.007.008Z" transform="translate(-936.386 -393.536)" fill="#f37463"/>
        <path id="Path_880" data-name="Path 880" d="M953.21,411.387c-.289.053-.579.1-.869.143l-.435.064-.436.057c-.145.018-.29.045-.435.069a2.267,2.267,0,0,1-.437.029,3.586,3.586,0,0,1-.441-.04,2.274,2.274,0,0,1-.446-.111l0-.045a2.288,2.288,0,0,1,.429-.164,3.642,3.642,0,0,1,.433-.093,2.286,2.286,0,0,1,.438-.024c.147.007.293.016.44.017l.439,0,.44.011c.293.01.586.02.88.038Z" transform="translate(-946.338 -401.515)" fill="#f9dbc1"/>
      </g>
      <g id="fireworks-3" data-name="fireworks" transform="translate(639.191 111.363)" opacity="0.48">
        <path id="Path_881" data-name="Path 881" d="M864.693,327.648l.8-.026.8-.021,1.6-.042,1.6-.034,1.6-.026c.533-.008,1.066-.026,1.6-.042s1.065-.011,1.6.011,1.065.054,1.6.1,1.064.1,1.6.191v.059c-.533.08-1.066.127-1.6.163s-1.066.06-1.6.073-1.065.006-1.6-.017-1.065-.053-1.6-.07l-1.6-.054-1.6-.063-1.6-.071-.8-.035-.8-.04Z" transform="translate(-852.225 -313.837)" fill="#fbce69"/>
        <path id="Path_882" data-name="Path 882" d="M805.679,304.662l-.695-.272-.693-.277-1.386-.554L801.523,303l-1.379-.569c-.459-.19-.923-.371-1.386-.554s-.917-.385-1.364-.6-.891-.444-1.328-.685-.871-.488-1.291-.767l.024-.054c.488.125.964.279,1.435.443s.937.34,1.4.526.915.389,1.362.608.891.443,1.34.656l1.347.641,1.343.65,1.34.657.67.328.668.333Z" transform="translate(-794.775 -291.091)" fill="#fbce69"/>
        <path id="Path_883" data-name="Path 883" d="M820.631,331.872l-.487.669-.491.666-.981,1.332-.988,1.327-.995,1.321c-.332.44-.656.887-.982,1.332s-.668.877-1.023,1.3-.719.837-1.094,1.243-.757.807-1.165,1.187l-.046-.036c.276-.484.577-.949.887-1.407s.629-.908.958-1.351.671-.874,1.028-1.3.718-.838,1.069-1.262l1.057-1.272,1.064-1.267,1.07-1.262.535-.631.539-.628Z" transform="translate(-809.24 -317.441)" fill="#fbce69"/>
        <path id="Path_884" data-name="Path 884" d="M861.379,330.294l.645.519.642.523,1.284,1.046,1.279,1.052,1.273,1.059c.424.353.855.7,1.284,1.047s.844.711,1.249,1.086.8.759,1.19,1.154.77.8,1.13,1.222l-.039.044c-.471-.3-.921-.623-1.363-.955s-.877-.673-1.3-1.023-.842-.714-1.245-1.091-.8-.758-1.21-1.131l-1.221-1.118-1.215-1.125-1.21-1.131-.6-.566-.6-.569Z" transform="translate(-849.47 -316.174)" fill="#fbce69"/>
        <path id="Path_885" data-name="Path 885" d="M859.936,264.784l.143-.861.148-.86.3-1.721.3-1.719.313-1.717c.1-.572.2-1.147.3-1.72s.215-1.143.349-1.71.278-1.131.437-1.692.325-1.121.525-1.673l.057.012c-.035.587-.1,1.167-.178,1.745s-.166,1.154-.266,1.727-.219,1.143-.354,1.709-.277,1.131-.406,1.7l-.391,1.7-.4,1.7-.407,1.7-.2.849-.208.848Z" transform="translate(-848.317 -251.111)" fill="#fbce69"/>
        <path id="Path_886" data-name="Path 886" d="M869.928,300c.1-.337.207-.67.315-1l.167-.5.175-.494c.059-.164.108-.333.16-.5a2.514,2.514,0,0,1,.208-.479,4.048,4.048,0,0,1,.29-.443,2.572,2.572,0,0,1,.374-.406l.054.024a2.543,2.543,0,0,1-.048.55,3.975,3.975,0,0,1-.132.512,2.494,2.494,0,0,1-.214.476c-.089.151-.18.3-.262.455l-.247.462-.255.458c-.174.3-.346.608-.53.908Z" transform="translate(-856.527 -288.146)" fill="#f9dbc1"/>
        <path id="Path_887" data-name="Path 887" d="M865.554,310.07c.66-.31,1.323-.608,1.987-.908l1-.445,1-.436c.334-.145.663-.3.994-.451a10.893,10.893,0,0,1,1.014-.4q.517-.176,1.046-.319a9.82,9.82,0,0,1,1.08-.234l.021.055a9.8,9.8,0,0,1-.95.565q-.485.257-.983.479a10.871,10.871,0,0,1-1.016.4c-.346.115-.692.226-1.035.348l-1.029.363-1.033.354c-.69.233-1.379.467-2.073.69Z" transform="translate(-852.933 -296.93)" fill="#f37463"/>
        <path id="Path_888" data-name="Path 888" d="M874.555,334.148c.661.281,1.317.573,1.973.863l.982.441.978.449c.326.15.656.291.985.434a10.616,10.616,0,0,1,.961.482q.468.265.921.561a9.56,9.56,0,0,1,.88.643l-.027.052a9.512,9.512,0,0,1-1.04-.325q-.508-.187-1-.407a10.561,10.561,0,0,1-.958-.487c-.311-.179-.62-.361-.935-.534l-.942-.52-.938-.527c-.624-.355-1.248-.709-1.867-1.073Z" transform="translate(-860.307 -319.341)" fill="#f37463"/>
        <path id="Path_889" data-name="Path 889" d="M858.625,335.813v.128l0,.132.008.264.016.529.031,1.059.028,1.059.02,1.059c.006.353.023.706.037,1.059a10.3,10.3,0,0,1-.015,1.058q-.035.529-.1,1.057a9.267,9.267,0,0,1-.2,1.055H858.4a9.227,9.227,0,0,1-.161-1.061c-.035-.353-.057-.707-.068-1.06a10.236,10.236,0,0,1,.021-1.058c.026-.352.056-.7.075-1.057l.059-1.058.069-1.057.078-1.057c.029-.354.054-.7.1-1.061Z" transform="translate(-846.858 -320.699)" fill="#f37463"/>
        <path id="Path_890" data-name="Path 890" d="M865.751,338.769c.229.281.449.569.669.855l.326.433.318.438c.106.146.22.287.332.429a2.674,2.674,0,0,1,.287.457,4.293,4.293,0,0,1,.212.5,2.743,2.743,0,0,1,.133.553l-.05.031a2.706,2.706,0,0,1-.436-.364,4.275,4.275,0,0,1-.358-.413,2.664,2.664,0,0,1-.282-.46c-.078-.163-.153-.329-.237-.488l-.251-.479-.243-.484c-.159-.325-.319-.649-.469-.979Z" transform="translate(-853.054 -323.138)" fill="#f9dbc1"/>
        <path id="Path_891" data-name="Path 891" d="M847.563,341.435c-.116.373-.242.741-.366,1.11L847,343.1l-.2.547c-.067.182-.125.369-.186.554a3.1,3.1,0,0,1-.234.532,4.942,4.942,0,0,1-.315.5,3.092,3.092,0,0,1-.4.458l-.054-.024a3.07,3.07,0,0,1,.074-.6,4.95,4.95,0,0,1,.158-.566,3.091,3.091,0,0,1,.24-.53c.1-.169.2-.336.288-.508l.273-.515.281-.511c.191-.339.381-.679.581-1.014Z" transform="translate(-836.549 -325.309)" fill="#f9dbc1"/>
        <path id="Path_892" data-name="Path 892" d="M817.317,329.765c-.7.122-1.4.233-2.094.345l-1.048.162-1.049.154c-.35.051-.7.112-1.047.17a10.279,10.279,0,0,1-1.053.117c-.353.021-.707.031-1.063.028a9.3,9.3,0,0,1-1.073-.063l-.006-.058a9.3,9.3,0,0,1,1.034-.291q.52-.118,1.044-.2a10.226,10.226,0,0,1,1.054-.111c.353-.018.707-.033,1.059-.059l1.058-.075,1.059-.066c.706-.04,1.412-.082,2.119-.112Z" transform="translate(-806.368 -315.692)" fill="#f37463"/>
        <path id="Path_893" data-name="Path 893" d="M846.289,285.864a.045.045,0,0,1-.02-.006l-.007-.006a.06.06,0,0,1-.009-.01l-.012-.016-.019-.031c-.012-.02-.022-.041-.033-.061-.021-.041-.04-.081-.059-.122-.038-.082-.075-.164-.111-.247-.071-.165-.14-.332-.209-.5-.136-.333-.267-.668-.4-1l-.383-1.007-.371-1.011c-.122-.338-.254-.672-.383-1.008a10.393,10.393,0,0,1-.33-1.024q-.139-.521-.244-1.052a9.384,9.384,0,0,1-.154-1.08l.056-.017a9.785,9.785,0,0,1,.493.972q.22.494.407,1a10.728,10.728,0,0,1,.324,1.025c.091.347.178.7.276,1.04l.294,1.035.291,1.036.293,1.035q.074.259.152.516c.026.086.052.171.079.256.014.042.028.085.043.126.008.021.015.041.024.061s.008.019.013.028l.006.012,0,0h0a.016.016,0,0,0-.012,0Z" transform="translate(-834.849 -272.93)" fill="#f37463"/>
        <path id="Path_894" data-name="Path 894" d="M840.208,302.155c-.234-.3-.458-.606-.684-.912l-.333-.461-.326-.466c-.108-.156-.225-.306-.339-.458a2.939,2.939,0,0,1-.294-.485,4.656,4.656,0,0,1-.218-.531,2.925,2.925,0,0,1-.139-.578l.05-.03a2.935,2.935,0,0,1,.444.395,4.655,4.655,0,0,1,.365.442,2.94,2.94,0,0,1,.289.488c.08.172.157.346.244.515l.257.507.25.511c.164.343.328.685.482,1.033Z" transform="translate(-830.19 -289.832)" fill="#f9dbc1"/>
      </g>
      <g id="fireworks-4" data-name="fireworks" transform="translate(636.431 81.035)" opacity="0.48">
        <path id="Path_895" data-name="Path 895" d="M931.4,205.308l1.421.749,1.416.757,2.832,1.514,2.824,1.528,2.816,1.543c.938.516,1.886,1.012,2.831,1.515s1.87,1.04,2.778,1.607,1.806,1.151,2.688,1.763,1.756,1.236,2.6,1.919l-.059.1c-1.01-.391-1.988-.838-2.954-1.3s-1.92-.954-2.863-1.461-1.866-1.047-2.772-1.617-1.807-1.15-2.719-1.709l-2.735-1.681-2.727-1.7-2.719-1.71-1.359-.855-1.355-.863Z" transform="translate(-904.227 -183.148)" fill="#fbce69"/>
        <path id="Path_896" data-name="Path 896" d="M852.139,105.072l-.942-1.166-.935-1.172-1.87-2.343-1.857-2.353-1.842-2.363c-.613-.789-1.244-1.564-1.869-2.344s-1.218-1.583-1.783-2.407-1.114-1.66-1.638-2.514-1.035-1.718-1.492-2.622l.095-.07c.729.7,1.406,1.444,2.065,2.2s1.3,1.524,1.919,2.307,1.211,1.588,1.774,2.414,1.116,1.659,1.688,2.477l1.715,2.458,1.7,2.468,1.687,2.478.844,1.239.836,1.244Z" transform="translate(-827.46 -84.884)" fill="#fbce69"/>
        <path id="Path_897" data-name="Path 897" d="M803.972,204.875l-1.515.684-1.518.675-3.036,1.35-3.042,1.335-3.049,1.319c-1.017.438-2.026.9-3.037,1.349s-2.038.867-3.077,1.251-2.086.748-3.144,1.083-2.123.657-3.212.915l-.044-.109c.963-.572,1.95-1.084,2.946-1.575s2-.96,3.013-1.407,2.041-.86,3.081-1.24,2.085-.75,3.121-1.141l3.109-1.172,3.115-1.155,3.121-1.14,1.561-.57,1.564-.561Z" transform="translate(-779.296 -182.703)" fill="#fbce69"/>
        <path id="Path_898" data-name="Path 898" d="M923.961,205.21l.61,1.548.6,1.551,1.2,3.1,1.187,3.107,1.171,3.113c.389,1.038.8,2.069,1.2,3.1s.768,2.079,1.1,3.137.647,2.122.931,3.2.554,2.154.76,3.256l-.111.039c-.525-.991-.989-2-1.431-3.022s-.862-2.047-1.261-3.081-.76-2.082-1.09-3.141-.648-2.121-.99-3.176l-1.02-3.165-1-3.171-.989-3.176-.494-1.588-.485-1.591Z" transform="translate(-898.073 -183.067)" fill="#fbce69"/>
        <path id="Path_899" data-name="Path 899" d="M924.133,102.111l1.106-1.361,1.113-1.355,2.226-2.709,2.238-2.7,2.251-2.687c.752-.895,1.487-1.8,2.227-2.708s1.511-1.783,2.307-2.638,1.608-1.7,2.443-2.519,1.682-1.633,2.579-2.4l.089.078c-.643.989-1.335,1.937-2.044,2.869s-1.436,1.848-2.18,2.75-1.517,1.777-2.316,2.631-1.606,1.7-2.4,2.56L931.406,94.5l-2.385,2.57-2.4,2.56-1.2,1.28-1.205,1.274Z" transform="translate(-898.306 -81.035)" fill="#fbce69"/>
        <path id="Path_900" data-name="Path 900" d="M951.685,168.376c.506-.491,1.027-.964,1.545-1.438l.785-.7.8-.688c.266-.228.519-.474.776-.714a5.016,5.016,0,0,1,.839-.629,8.055,8.055,0,0,1,.946-.485,5.126,5.126,0,0,1,1.056-.337l.07.095a5.127,5.127,0,0,1-.63.912,8.042,8.042,0,0,1-.74.763,5.013,5.013,0,0,1-.846.62c-.3.176-.614.346-.91.534l-.89.56-.9.546c-.605.358-1.209.717-1.826,1.059Z" transform="translate(-920.945 -148.699)" fill="#f9dbc1"/>
        <path id="Path_901" data-name="Path 901" d="M936.835,199.584c1.459.115,2.915.252,4.37.388l2.182.214,2.18.232c.726.079,1.456.136,2.184.2a21.824,21.824,0,0,1,2.169.3q1.077.206,2.144.482a19.7,19.7,0,0,1,2.118.665l-.017.117a19.665,19.665,0,0,1-2.219.044q-1.1-.033-2.193-.139a21.828,21.828,0,0,1-2.168-.317c-.717-.143-1.433-.293-2.152-.422l-2.157-.389-2.155-.407c-1.435-.279-2.871-.555-4.3-.855Z" transform="translate(-908.73 -178.445)" fill="#f37463"/>
        <path id="Path_902" data-name="Path 902" d="M943.1,224.971c.874,1.147,1.729,2.307,2.586,3.466l1.276,1.745,1.261,1.754c.419.586.857,1.159,1.288,1.736a21.23,21.23,0,0,1,1.2,1.8q.554.928,1.051,1.894a19.238,19.238,0,0,1,.9,2l-.1.065a19.136,19.136,0,0,1-1.493-1.6q-.7-.831-1.339-1.7a21.294,21.294,0,0,1-1.19-1.8c-.365-.622-.724-1.247-1.1-1.861l-1.129-1.843-1.114-1.852c-.736-1.239-1.474-2.477-2.193-3.728Z" transform="translate(-913.808 -199.305)" fill="#f37463"/>
        <path id="Path_903" data-name="Path 903" d="M876.994,213.8l-.127.223-.125.234-.249.47-.5.94-1,1.88-1,1.876-1.017,1.868c-.34.622-.661,1.255-.988,1.885A20.7,20.7,0,0,1,870.913,225q-.586.888-1.231,1.741a18.758,18.758,0,0,1-1.389,1.648l-.1-.06a18.525,18.525,0,0,1,.773-2.012q.435-.978.933-1.918a20.453,20.453,0,0,1,1.088-1.826c.4-.589.8-1.175,1.181-1.772l1.154-1.787,1.171-1.777,1.187-1.768c.4-.589.79-1.17,1.226-1.754Z" transform="translate(-852.339 -190.059)" fill="#f37463"/>
        <path id="Path_904" data-name="Path 904" d="M921.716,224.4c.121.719.219,1.438.319,2.158l.138,1.08.121,1.08c.039.36.1.719.153,1.079a5.361,5.361,0,0,1,.047,1.083,8.551,8.551,0,0,1-.131,1.09,5.425,5.425,0,0,1-.316,1.1l-.118,0a5.411,5.411,0,0,1-.4-1.07,8.551,8.551,0,0,1-.214-1.077,5.376,5.376,0,0,1-.035-1.083c.026-.363.059-.726.07-1.088l.038-1.086.056-1.087c.045-.725.087-1.45.153-2.176Z" transform="translate(-895.952 -198.836)" fill="#f9dbc1"/>
        <path id="Path_905" data-name="Path 905" d="M869.536,219.434c-.572.536-1.158,1.054-1.742,1.573l-.883.77-.894.756c-.3.251-.584.519-.875.782a6.232,6.232,0,0,1-.937.7,9.931,9.931,0,0,1-1.043.552,6.185,6.185,0,0,1-1.153.4l-.07-.1a6.16,6.16,0,0,1,.729-.98,9.927,9.927,0,0,1,.839-.831,6.209,6.209,0,0,1,.944-.687c.337-.2.679-.391,1.007-.6l.988-.627,1-.613c.67-.4,1.339-.807,2.021-1.193Z" transform="translate(-847.202 -194.677)" fill="#f9dbc1"/>
        <path id="Path_906" data-name="Path 906" d="M843.371,167.694c-1.339-.479-2.668-.979-4-1.478l-1.991-.758-1.984-.774c-.661-.259-1.33-.5-2-.744a20.607,20.607,0,0,1-1.955-.842q-.955-.471-1.883-1.006a18.678,18.678,0,0,1-1.81-1.175l.047-.108a18.591,18.591,0,0,1,2.095.519q1.025.311,2.021.688a20.634,20.634,0,0,1,1.95.852c.635.319,1.267.644,1.908.95l1.921.92,1.914.936c1.273.631,2.546,1.26,3.811,1.91Z" transform="translate(-819.112 -146.585)" fill="#f37463"/>
        <path id="Path_907" data-name="Path 907" d="M926.251,112.624a.093.093,0,0,1-.03-.031l-.007-.017a.134.134,0,0,1-.007-.026.407.407,0,0,1-.005-.041c0-.025,0-.049,0-.072,0-.047,0-.093,0-.139,0-.092.011-.182.018-.273.015-.181.032-.361.051-.541.04-.36.084-.718.13-1.077.093-.717.2-1.431.3-2.145l.331-2.139.358-2.134c.122-.711.223-1.426.332-2.139a20.922,20.922,0,0,1,.441-2.116q.275-1.047.62-2.078a18.849,18.849,0,0,1,.8-2.038l.115.025a19.5,19.5,0,0,1-.1,2.187q-.106,1.082-.281,2.149c-.115.711-.267,1.415-.452,2.112s-.38,1.391-.551,2.091l-.513,2.1-.521,2.1-.516,2.1q-.127.525-.247,1.051c-.04.175-.079.35-.115.526-.018.088-.035.175-.05.263-.007.044-.014.087-.019.13,0,.021,0,.042-.005.063s0,.02,0,.027,0,.009,0,.007h0a.035.035,0,0,0-.019-.018Z" transform="translate(-900.004 -93.016)" fill="#f37463"/>
        <path id="Path_908" data-name="Path 908" d="M912.744,135.112c-.11-.757-.2-1.514-.287-2.271l-.123-1.136-.105-1.136c-.034-.379-.089-.757-.138-1.136a5.894,5.894,0,0,1-.032-1.138,9.4,9.4,0,0,1,.147-1.142,5.915,5.915,0,0,1,.332-1.147l.118,0a5.909,5.909,0,0,1,.384,1.13,9.443,9.443,0,0,1,.2,1.134,5.932,5.932,0,0,1,.02,1.138c-.031.38-.07.761-.086,1.141l-.054,1.14-.072,1.141c-.055.761-.108,1.521-.184,2.282Z" transform="translate(-888.373 -117.984)" fill="#f9dbc1"/>
      </g>
      <g id="fireworks-5" data-name="fireworks" transform="translate(621.116 102.624)" opacity="0.48">
        <path id="Path_909" data-name="Path 909" d="M716.156,206.139l.124-.258.125-.257.25-.514.253-.513.256-.511c.086-.17.167-.342.251-.514s.172-.34.267-.5.193-.329.3-.49.208-.321.324-.475l.018.01c-.063.182-.136.359-.212.534s-.157.348-.241.519-.174.339-.269.5-.193.329-.286.5l-.281.5-.284.5-.286.495-.143.247-.145.247Z" transform="translate(-712.1 -202.104)" fill="#fbce69"/>
        <path id="Path_910" data-name="Path 910" d="M698.852,227.218l-.2.175-.2.174-.4.348-.406.346-.408.343c-.136.114-.27.232-.4.348s-.274.227-.416.333-.288.209-.436.308-.3.2-.457.283l-.013-.017c.12-.134.248-.26.378-.382s.262-.241.4-.357.274-.226.418-.332.288-.209.429-.317l.426-.321.428-.319.43-.317.215-.158.216-.157Z" transform="translate(-695.13 -222.727)" fill="#fbce69"/>
        <path id="Path_911" data-name="Path 911" d="M716.174,227.224l.132.265.13.266.26.531.258.532.255.534c.085.178.173.354.26.531s.168.357.243.539.147.366.214.552.131.373.184.565l-.019.009c-.108-.167-.206-.34-.3-.513s-.184-.35-.271-.527-.166-.357-.241-.54-.147-.366-.224-.548l-.229-.545-.226-.547-.224-.548-.112-.274-.11-.274Z" transform="translate(-712.099 -222.745)" fill="#fbce69"/>
        <path id="Path_912" data-name="Path 912" d="M716.187,218.061l.271-.119.272-.117.544-.234.545-.232.546-.229c.182-.076.363-.156.544-.234s.365-.15.551-.217.373-.129.563-.187.379-.113.574-.157l.008.02c-.173.1-.35.189-.528.275s-.358.167-.54.245-.365.149-.552.215-.373.129-.558.2l-.556.2-.557.2-.559.2-.279.1-.28.1Z" transform="translate(-712.125 -213.797)" fill="#fbce69"/>
        <path id="Path_913" data-name="Path 913" d="M697.281,211.53l-.25-.188-.248-.189-.5-.378-.495-.38-.493-.383c-.164-.128-.331-.253-.5-.378s-.327-.257-.484-.393-.313-.275-.464-.418-.3-.288-.444-.443l.013-.016c.18.108.354.224.524.345s.339.243.5.369.326.258.483.394.313.274.472.409l.475.4.473.407.471.409.235.2.235.206Z" transform="translate(-693.409 -207.249)" fill="#fbce69"/>
        <path id="Path_914" data-name="Path 914" d="M709.246,215.832c-.091-.087-.178-.176-.266-.265l-.13-.135-.128-.137c-.042-.046-.088-.089-.132-.133a.875.875,0,0,1-.118-.145,1.428,1.428,0,0,1-.093-.165.93.93,0,0,1-.067-.186l.016-.013a.912.912,0,0,1,.166.106,1.465,1.465,0,0,1,.141.127.9.9,0,0,1,.116.146c.033.053.066.107.1.158l.106.155.1.157c.068.105.136.21.2.318Z" transform="translate(-705.655 -212.415)" fill="#f9dbc1"/>
        <path id="Path_915" data-name="Path 915" d="M715.1,209.544c.011-.26.025-.52.04-.78l.023-.39.027-.389c.009-.13.014-.26.021-.39a3.882,3.882,0,0,1,.04-.388q.03-.193.071-.385a3.507,3.507,0,0,1,.1-.381l.021,0a3.556,3.556,0,0,1,.023.394q0,.2-.01.391c-.007.13-.022.259-.042.388s-.043.257-.061.386l-.055.386-.058.386c-.04.257-.08.514-.123.771Z" transform="translate(-711.235 -205.668)" fill="#f37463"/>
        <path id="Path_916" data-name="Path 916" d="M719.575,214.214c.2-.163.4-.323.6-.483l.3-.239.3-.236c.1-.078.2-.16.3-.241a3.744,3.744,0,0,1,.311-.225q.161-.1.33-.2a3.424,3.424,0,0,1,.349-.173l.012.017a3.384,3.384,0,0,1-.275.276q-.143.13-.294.25a3.753,3.753,0,0,1-.313.224c-.108.069-.217.137-.324.208l-.32.213-.322.21c-.215.139-.431.279-.648.415Z" transform="translate(-714.909 -210.579)" fill="#f37463"/>
        <path id="Path_917" data-name="Path 917" d="M717.763,227.186l.041.021.042.021.085.041.171.082.341.165.34.166.339.168c.113.056.228.109.342.163a3.679,3.679,0,0,1,.333.18q.162.1.318.207a3.3,3.3,0,0,1,.3.236l-.01.019a3.324,3.324,0,0,1-.363-.124q-.177-.071-.347-.153a3.666,3.666,0,0,1-.332-.181c-.108-.066-.214-.134-.323-.2l-.326-.193-.324-.2-.322-.2c-.108-.068-.214-.133-.32-.207Z" transform="translate(-713.409 -222.713)" fill="#f37463"/>
        <path id="Path_918" data-name="Path 918" d="M719.6,225.174c.127-.026.255-.048.382-.071l.191-.032.191-.029c.064-.009.127-.023.191-.035a.951.951,0,0,1,.192-.016,1.547,1.547,0,0,1,.195.016.973.973,0,0,1,.2.049l0,.021a.979.979,0,0,1-.188.078,1.527,1.527,0,0,1-.19.045.965.965,0,0,1-.192.014c-.065,0-.129-.006-.194-.005h-.193l-.194,0c-.129,0-.258-.006-.388-.013Z" transform="translate(-714.934 -220.91)" fill="#f9dbc1"/>
        <path id="Path_919" data-name="Path 919" d="M718.852,229.463c.1.1.2.2.291.3l.143.152.14.154c.047.052.1.1.145.15a1.094,1.094,0,0,1,.13.162,1.733,1.733,0,0,1,.105.182,1.106,1.106,0,0,1,.08.2l-.016.013a1.108,1.108,0,0,1-.179-.123,1.749,1.749,0,0,1-.153-.144,1.081,1.081,0,0,1-.129-.163c-.037-.059-.074-.118-.114-.175l-.118-.172-.116-.173c-.076-.117-.152-.233-.226-.352Z" transform="translate(-714.301 -224.584)" fill="#f9dbc1"/>
        <path id="Path_920" data-name="Path 920" d="M710.051,227.644c-.076.241-.157.481-.236.721l-.122.359-.125.358c-.042.119-.08.24-.119.36a3.65,3.65,0,0,1-.137.353q-.077.173-.166.342a3.355,3.355,0,0,1-.2.33l-.02-.008a3.326,3.326,0,0,1,.079-.376c.032-.123.069-.244.109-.364a3.661,3.661,0,0,1,.138-.353c.053-.115.106-.23.156-.346l.151-.348.154-.347c.1-.231.207-.461.315-.691Z" transform="translate(-706.162 -223.083)" fill="#f37463"/>
        <path id="Path_921" data-name="Path 921" d="M699.6,223.424a.015.015,0,0,1-.005.006h-.1l-.1-.005-.192-.016c-.128-.012-.256-.026-.384-.039l-.383-.045-.382-.05c-.127-.017-.255-.03-.383-.045a3.739,3.739,0,0,1-.38-.064c-.125-.028-.25-.06-.374-.1a3.339,3.339,0,0,1-.368-.129l0-.021a3.44,3.44,0,0,1,.39,0q.193.011.384.036a3.837,3.837,0,0,1,.379.066c.125.029.25.058.376.084l.377.077.376.079.377.078.188.037.094.017.047.007.023,0h.017l0,0Z" transform="translate(-695.992 -219.207)" fill="#f37463"/>
        <path id="Path_922" data-name="Path 922" d="M703.776,227.466c-.134.025-.268.045-.4.066l-.2.03-.2.026c-.067.009-.134.021-.2.032a1.037,1.037,0,0,1-.2.013,1.657,1.657,0,0,1-.2-.019,1.044,1.044,0,0,1-.206-.051v-.021a1.055,1.055,0,0,1,.2-.076,1.647,1.647,0,0,1,.2-.043,1.05,1.05,0,0,1,.2-.011c.068,0,.136.007.2.008l.2,0,.2.005c.136,0,.271.009.407.017Z" transform="translate(-700.596 -222.899)" fill="#f9dbc1"/>
      </g>
      <g id="star" transform="translate(616.455 91.82)">
        <path id="Path_923" data-name="Path 923" d="M722.36,307.741l-14.177-3.869c-1.927-.077-4.172-1.128-4.979-.446l-10.935,9.127c-2.031,1.716-4.284,2.009-4.411-.648l-.7-14.679a3.208,3.208,0,0,0-1.514-2.574l-12.49-7.744a3.187,3.187,0,0,1-1.407-3.559,3.215,3.215,0,0,0,.6,4.98l12.49,7.744a3.208,3.208,0,0,1,1.514,2.574l.7,14.679a3.209,3.209,0,0,0,5.276,2.3l11.225-9.485a3.208,3.208,0,0,1,2.916-.645l14.177,3.869c1.845.5,3.873-1.878,3.828-3.848C723.714,306.305,722.683,308.277,722.36,307.741Z" transform="translate(-670.196 -258.057)" fill="#d4821e"/>
        <path id="Path_924" data-name="Path 924" d="M934.7,308.951l5.553,13.607a6.6,6.6,0,0,1,.059,2.956c.81-1.7,1.267-3.1.745-4.377l-5.553-13.607a3.207,3.207,0,0,1-.068-2.235l-.448.683A3.209,3.209,0,0,0,934.7,308.951Z" transform="translate(-886.819 -276.091)" fill="#d4821e"/>
        <path id="Path_925" data-name="Path 925" d="M826.887,154.984c-3.672-.11-14.656,1.076-14.656,1.076a3.209,3.209,0,0,1-2.738-1.192s-7.156-9.172-9.912-11.312c-3.087-2.4-3.475.139-4.284,2.648,1.265-1.284,2.918-2.972,4.2-1.379l9.2,11.464a3.209,3.209,0,0,0,2.738,1.192l14.656-1.076c2.361-.174,2.512,2.457,1.81,4.534l.733-.381C830.085,158.333,829.6,155.065,826.887,154.984Z" transform="translate(-772.468 -142.402)" fill="#d4821e"/>
        <path id="Path_926" data-name="Path 926" d="M694.192,142.72l9.2,11.464a3.209,3.209,0,0,0,2.738,1.192l14.656-1.076a3.208,3.208,0,0,1,2.918,4.96l-8.061,12.288a3.209,3.209,0,0,0-.288,2.972l5.553,13.607a3.209,3.209,0,0,1-3.816,4.308l-14.177-3.869a3.209,3.209,0,0,0-2.916.645l-11.225,9.486a3.209,3.209,0,0,1-5.276-2.3l-.7-14.679a3.208,3.208,0,0,0-1.514-2.574l-12.49-7.744a3.209,3.209,0,0,1,.555-5.728l13.744-5.2a3.208,3.208,0,0,0,1.98-2.235l3.506-14.272A3.209,3.209,0,0,1,694.192,142.72Z" transform="translate(-667.271 -141.517)" fill="#ffc661"/>
        <path id="Path_927" data-name="Path 927" d="M750.191,371.225l-.7-14.679a3.209,3.209,0,0,0-1.514-2.574l-.887-.55a3.2,3.2,0,0,1,1.289,2.415l.7,14.679a3.175,3.175,0,0,0,2.064,2.844A3.15,3.15,0,0,1,750.191,371.225Z" transform="translate(-732.856 -315.636)" fill="#fed698"/>
        <path id="Path_928" data-name="Path 928" d="M670.456,166.387l13.744-5.2a3.209,3.209,0,0,0,1.98-2.235l3.506-14.272a3.213,3.213,0,0,1,4.238-2.246,3.208,3.208,0,0,0-5.35,1.537l-3.506,14.272a3.209,3.209,0,0,1-1.98,2.235l-13.744,5.2a3.209,3.209,0,0,0-.555,5.728l.849.527A3.209,3.209,0,0,1,670.456,166.387Z" transform="translate(-667.271 -141.523)" fill="#fed698"/>
        <path id="Path_929" data-name="Path 929" d="M680.546,312.052c.084.064.17.126.263.183l11.6,7.194c-.073-.055-.146-.11-.225-.159Z" transform="translate(-678.179 -281.643)" fill="#ffc661"/>
        <path id="Path_930" data-name="Path 930" d="M682.795,245.679a3.207,3.207,0,0,0,1.966-2.189,3.2,3.2,0,0,1-1.161.769l-13.744,5.2a3.155,3.155,0,0,0-1.962,2.169,3.205,3.205,0,0,1,1.158-.748Z" transform="translate(-667.782 -225.306)" fill="#fed698"/>
        <path id="Path_931" data-name="Path 931" d="M923.553,291.014c.154-.153-4.061-7.738-3.991-10.5.074-2.94,4.81-7.618,4.634-7.936-.328-.352-5.1,4.036-5.709,7.335C917.984,282.655,923.312,291.2,923.553,291.014Z" transform="translate(-873.663 -249.191)" fill="#ffd799"/>
        <path id="Path_932" data-name="Path 932" d="M737.928,226.811c.01-.156,5.786-1.279,7.177-2.584,1.48-1.389,1.785-6.176,2.027-6.223.327.022.19,4.7-1.24,6.548C744.7,226.089,737.939,227.032,737.928,226.811Z" transform="translate(-725.329 -204.365)" fill="#ffd799"/>
      </g>
      <g id="Group_778" data-name="Group 778" transform="translate(611.464 106.909)">
        <path id="Path_933" data-name="Path 933" d="M639.479,227.073l-.2-.373,1.026-.566.2.373Z" transform="translate(-639.281 -226.134)" fill="#acacf8"/>
      </g>
      <g id="Group_779" data-name="Group 779" transform="translate(622.522 100.625)">
        <path id="Path_934" data-name="Path 934" d="M702.393,191.7l-1.094-.411.144-.4,1.094.411Z" transform="translate(-701.298 -190.894)" fill="#acacf8"/>
      </g>
      <g id="Group_780" data-name="Group 780" transform="translate(658.179 103.164)">
        <path id="Path_935" data-name="Path 935" d="M902.357,205.944l-1.094-.411.144-.4,1.094.411Z" transform="translate(-901.263 -205.135)" fill="#acacf8"/>
      </g>
      <g id="Group_781" data-name="Group 781" transform="translate(612.693 110.718)">
        <path id="Path_936" data-name="Path 936" d="M646.374,248.434l-.2-.373,1.026-.566.2.373Z" transform="translate(-646.177 -247.496)" fill="#acacf8"/>
      </g>
      <g id="Group_782" data-name="Group 782" transform="translate(627.441 98.085)">
        <path id="Path_937" data-name="Path 937" d="M729.974,177.462l-1.094-.411.144-.4,1.094.411Z" transform="translate(-728.88 -176.653)" fill="#acacf8"/>
      </g>
      <g id="Group_783" data-name="Group 783" transform="translate(668.016 95.546)">
        <path id="Path_938" data-name="Path 938" d="M957.519,163.221l-1.094-.411.144-.4,1.094.411Z" transform="translate(-956.425 -162.412)" fill="#acacf8"/>
      </g>
      <g id="Group_784" data-name="Group 784" transform="translate(628.788 104.228)">
        <path id="Path_939" data-name="Path 939" d="M737.1,212.322l-.659-.981.343-.24.659.981Z" transform="translate(-736.437 -211.101)" fill="#acacf8"/>
      </g>
      <g id="Group_785" data-name="Group 785" transform="translate(643.543 108.037)">
        <path id="Path_940" data-name="Path 940" d="M819.839,233.684l-.658-.982.343-.239.659.981Z" transform="translate(-819.181 -232.463)" fill="#acacf8"/>
      </g>
      <g id="Group_786" data-name="Group 786" transform="translate(617.611 96.751)">
        <path id="Path_941" data-name="Path 941" d="M673.956,170.108l-.2-.373,1.026-.566.2.373Z" transform="translate(-673.758 -169.169)" fill="#acacf8"/>
      </g>
      <g id="Group_787" data-name="Group 787" transform="translate(626.329 92.801)">
        <path id="Path_942" data-name="Path 942" d="M723.305,148.237l-.658-.982.343-.24.659.981Z" transform="translate(-722.647 -147.016)" fill="#acacf8"/>
      </g>
      <g id="Group_788" data-name="Group 788" transform="translate(637.395 91.531)">
        <path id="Path_943" data-name="Path 943" d="M785.363,141.116l-.658-.981.343-.24.658.982Z" transform="translate(-784.704 -139.895)" fill="#acacf8"/>
      </g>
      <g id="Group_789" data-name="Group 789" transform="translate(652.039 86.593)">
        <path id="Path_944" data-name="Path 944" d="M867.025,113.143l-.2-.373,1.026-.566.2.373Z" transform="translate(-866.827 -112.205)" fill="#acacf8"/>
      </g>
      <g id="Group_790" data-name="Group 790" transform="translate(654.498 105.639)">
        <path id="Path_945" data-name="Path 945" d="M880.815,219.952l-.2-.373,1.026-.566.2.373Z" transform="translate(-880.617 -219.014)" fill="#acacf8"/>
      </g>
      <g id="Group_791" data-name="Group 791" transform="translate(682.77 109.513)">
        <path id="Path_946" data-name="Path 946" d="M1040.263,241.547l-1.094-.411.144-.4,1.094.411Z" transform="translate(-1039.169 -240.738)" fill="#acacf8"/>
      </g>
      <g id="Group_792" data-name="Group 792" transform="translate(647.113 94.276)">
        <path id="Path_947" data-name="Path 947" d="M840.3,156.1l-1.094-.411.144-.4,1.094.411Z" transform="translate(-839.205 -155.291)" fill="#acacf8"/>
      </g>
      <g id="Group_793" data-name="Group 793" transform="translate(636.055 89.133)">
        <path id="Path_948" data-name="Path 948" d="M777.385,127.385l-.2-.373,1.026-.566.2.373Z" transform="translate(-777.187 -126.446)" fill="#acacf8"/>
      </g>
      <g id="Group_794" data-name="Group 794" transform="translate(646.002 90.261)">
        <path id="Path_949" data-name="Path 949" d="M833.63,134l-.658-.982.343-.24.658.982Z" transform="translate(-832.972 -132.775)" fill="#acacf8"/>
      </g>
      <g id="Group_795" data-name="Group 795" transform="translate(671.712 99.29)">
        <path id="Path_950" data-name="Path 950" d="M977.35,184.349l-.2-.373,1.026-.566.2.373Z" transform="translate(-977.152 -183.411)" fill="#acacf8"/>
      </g>
      <g id="Group_796" data-name="Group 796" transform="translate(605.427 128.353)">
        <path id="Path_951" data-name="Path 951" d="M606.085,347.613l-.658-.982.343-.24.659.982Z" transform="translate(-605.427 -346.392)" fill="#3c3996"/>
      </g>
      <g id="Group_797" data-name="Group 797" transform="translate(607.775 123.415)">
        <path id="Path_952" data-name="Path 952" d="M618.793,319.64l-.2-.373,1.026-.566.2.373Z" transform="translate(-618.595 -318.702)" fill="#3c3996"/>
      </g>
      <g id="Group_798" data-name="Group 798" transform="translate(623.752 119.671)">
        <path id="Path_953" data-name="Path 953" d="M709.288,298.512l-1.094-.411.144-.4,1.094.411Z" transform="translate(-708.194 -297.703)" fill="#3c3996"/>
      </g>
      <g id="Group_799" data-name="Group 799" transform="translate(616.382 131.033)">
        <path id="Path_954" data-name="Path 954" d="M667.06,362.364l-.2-.373,1.026-.566.2.373Z" transform="translate(-666.862 -361.425)" fill="#3c3996"/>
      </g>
      <g id="Group_800" data-name="Group 800" transform="translate(670.475 120.94)">
        <path id="Path_955" data-name="Path 955" d="M971.31,305.633l-1.094-.411.144-.4,1.094.411Z" transform="translate(-970.216 -304.823)" fill="#3c3996"/>
      </g>
      <g id="Group_801" data-name="Group 801" transform="translate(620.07 118.336)">
        <path id="Path_956" data-name="Path 956" d="M687.746,291.158l-.2-.373,1.026-.566.2.373Z" transform="translate(-687.549 -290.219)" fill="#3c3996"/>
      </g>
      <g id="Group_802" data-name="Group 802" transform="translate(676.63 122.145)">
        <path id="Path_957" data-name="Path 957" d="M1004.931,312.52l-.2-.373,1.026-.566.2.373Z" transform="translate(-1004.733 -311.581)" fill="#3c3996"/>
      </g>
      <g id="Group_804" data-name="Group 804" transform="translate(618.834 138.716)">
        <g id="Group_803" data-name="Group 803" transform="translate(0)">
          <path id="Path_958" data-name="Path 958" d="M681.707,405.321l-1.094-.411.144-.4,1.094.411Z" transform="translate(-680.612 -404.511)" fill="#d94e4e"/>
        </g>
      </g>
      <g id="Group_806" data-name="Group 806" transform="translate(659.409 143.795)">
        <g id="Group_805" data-name="Group 805" transform="translate(0 0)">
          <path id="Path_959" data-name="Path 959" d="M909.252,433.8l-1.094-.411.144-.4,1.094.411Z" transform="translate(-908.158 -432.994)" fill="#d94e4e"/>
        </g>
      </g>
      <g id="Group_808" data-name="Group 808" transform="translate(681.659 142.32)">
        <g id="Group_807" data-name="Group 807" transform="translate(0)">
          <path id="Path_960" data-name="Path 960" d="M1033.594,425.94l-.658-.982.343-.239.658.982Z" transform="translate(-1032.936 -424.719)" fill="#d94e4e"/>
        </g>
      </g>
      <g id="Group_810" data-name="Group 810" transform="translate(613.923 137.382)">
        <g id="Group_809" data-name="Group 809" transform="translate(0)">
          <path id="Path_961" data-name="Path 961" d="M653.27,397.967l-.2-.373,1.026-.566.2.373Z" transform="translate(-653.072 -397.028)" fill="#d94e4e"/>
        </g>
      </g>
      <g id="Group_812" data-name="Group 812" transform="translate(625.1 134.701)">
        <g id="Group_811" data-name="Group 811">
          <path id="Path_962" data-name="Path 962" d="M716.41,383.216l-.659-.982.343-.24.659.982Z" transform="translate(-715.752 -381.995)" fill="#d94e4e"/>
        </g>
      </g>
      <g id="Group_814" data-name="Group 814" transform="translate(653.268 145)">
        <g id="Group_813" data-name="Group 813" transform="translate(0 0)">
          <path id="Path_963" data-name="Path 963" d="M873.919,440.69l-.2-.373,1.026-.566.2.373Z" transform="translate(-873.722 -439.752)" fill="#d94e4e"/>
        </g>
      </g>
      <g id="Group_816" data-name="Group 816" transform="translate(675.393 148.874)">
        <g id="Group_815" data-name="Group 815" transform="translate(0 0)">
          <path id="Path_964" data-name="Path 964" d="M998.891,462.285l-1.094-.411.144-.4,1.094.411Z" transform="translate(-997.797 -461.476)" fill="#d94e4e"/>
        </g>
      </g>
      <g id="Group_818" data-name="Group 818" transform="translate(669.253 141.191)">
        <g id="Group_817" data-name="Group 817">
          <path id="Path_965" data-name="Path 965" d="M963.559,419.329l-.2-.373,1.026-.566.2.373Z" transform="translate(-963.361 -418.39)" fill="#d94e4e"/>
        </g>
      </g>
      <g id="Group_820" data-name="Group 820" transform="translate(634.825 146.27)">
        <g id="Group_819" data-name="Group 819" transform="translate(0 0)">
          <path id="Path_966" data-name="Path 966" d="M770.49,447.811l-.2-.373,1.026-.566.2.373Z" transform="translate(-770.292 -446.872)" fill="#591d39"/>
        </g>
      </g>
    </g>
    <text id="_5" data-name="5" transform="translate(370 338)" fill="#6a7878" font-size="97" font-family="SegoeUI-Bold, Segoe UI" font-weight="700"><tspan x="0" y="0">5</tspan></text>
  </g>
</svg>
