<svg xmlns="http://www.w3.org/2000/svg" width="26.086" height="32.477" viewBox="0 0 26.086 32.477">
  <g id="skills" transform="translate(0.001)">
    <path id="Path_992" data-name="Path 992" d="M15.723,19.466a2.07,2.07,0,1,0,1.418-2.561A2.1,2.1,0,0,0,15.723,19.466Zm.394-7.8a1.309,1.309,0,1,1,.709-2.521,1.378,1.378,0,0,1,.906,1.615A1.294,1.294,0,0,1,16.117,11.665Zm9.534-1.655a2.554,2.554,0,0,1,2.324,2.758,2.636,2.636,0,0,1-2.758,2.324,2.55,2.55,0,1,1,.433-5.082Zm7.817,15a2.5,2.5,0,0,0,.022-.931c-.158-.867,0-1.182.867-1.5a3.314,3.314,0,0,0,.788-.315.969.969,0,0,0,.433-1.576c-.709-1.26-1.537-2.521-2.246-3.821a3.257,3.257,0,0,1-.158-1.537,8.615,8.615,0,0,0,.158-1.733,22.393,22.393,0,0,0-1.142-3.23,8.224,8.224,0,0,0-5.673-4.649,16.25,16.25,0,0,0-8.785-.276c-3.821,1.1-8,4.451-8,9.178a11.294,11.294,0,0,0,1.024,4.688c1.931,4.1,2.285,5.988,1.222,10.361a3.507,3.507,0,0,1-.67,1.458L9.733,32.968A17.74,17.74,0,0,0,24.921,37.1a4.961,4.961,0,0,1-.373-1.085,9.691,9.691,0,0,1,.236-1.222c.394-1.26.867-2.521,1.34-3.782.236-.709.867-.709,1.537-.63a16.877,16.877,0,0,0,3.152.118c1.576-.158,1.931-.827,1.891-2.4a2.081,2.081,0,0,1,.355-1.379c.551-.551.355-.945,0-1.418C33.4,25.392,33.468,25.006,33.468,25.006ZM19.82,10.562l-1.142.315a1.672,1.672,0,0,1-.039.2c-.039.079-.039.158-.079.2l.827.906a3.1,3.1,0,0,1-.63.788l-1.024-.63a1.57,1.57,0,0,1-.355.2l-.039,1.182a3.957,3.957,0,0,1-.985.118l-.315-1.142a1.672,1.672,0,0,1-.2-.039c-.079-.039-.158-.039-.2-.079l-.906.827a3.1,3.1,0,0,1-.788-.63l.63-1.024a1.57,1.57,0,0,1-.2-.355L13.2,11.35a3.957,3.957,0,0,1-.118-.985l1.142-.276a1.672,1.672,0,0,1,.039-.2c.039-.079.039-.158.079-.2l-.827-.906A3.1,3.1,0,0,1,14.148,8l1.024.63a1.57,1.57,0,0,1,.355-.2l.039-1.182a3.957,3.957,0,0,1,.985-.118l.315,1.142a1.672,1.672,0,0,1,.2.039c.079.039.158.039.2.079l.867-.828a3.09,3.09,0,0,1,.788.63l-.63,1.024a1.57,1.57,0,0,1,.2.355H19.7A3.969,3.969,0,0,1,19.82,10.562Zm3.822,7.012a4.691,4.691,0,0,1-1.379-.748l.433-1.182a4.277,4.277,0,0,1-.867-1.024l-1.26.236a6.606,6.606,0,0,1-.473-1.5l1.142-.551v-.67c.039-.236.079-.433.118-.63l-1.024-.748a4.691,4.691,0,0,1,.748-1.379l1.182.433a4.285,4.285,0,0,1,1.024-.867l-.236-1.26a6.607,6.607,0,0,1,1.5-.473L25.1,8.356h.67c.236.039.433.079.63.118l.748-1.024a4.691,4.691,0,0,1,1.379.748l-.433,1.182a4.27,4.27,0,0,1,.867,1.024l1.26-.236a6.606,6.606,0,0,1,.473,1.5l-1.142.551v.67c-.039.236-.079.433-.118.63l1.024.748a4.691,4.691,0,0,1-.748,1.379l-1.182-.433a4.277,4.277,0,0,1-1.024.867L27.74,17.3a3.985,3.985,0,0,1-1.5.512l-.551-1.142h-.67c-.236-.039-.433-.079-.63-.118ZM13,21.633l1.379-1.418c-.039-.118-.079-.2-.118-.315a1.154,1.154,0,0,1-.079-.355l-1.852-.473a4.45,4.45,0,0,1,.2-1.576l1.931-.039a2.514,2.514,0,0,1,.315-.551l-.985-1.655a6.065,6.065,0,0,1,1.222-.985l1.418,1.3c.118-.039.2-.079.315-.118a1.154,1.154,0,0,1,.355-.079l.473-1.852a4.45,4.45,0,0,1,1.576.2v2.009a2.514,2.514,0,0,1,.551.315l1.655-.985a5.68,5.68,0,0,1,.945,1.183L21,17.654c.039.118.079.2.118.315a1.154,1.154,0,0,1,.079.355l1.852.433a4.45,4.45,0,0,1-.2,1.576l-1.931.039a2.514,2.514,0,0,1-.315.551l.985,1.655a6.065,6.065,0,0,1-1.222.985l-1.418-1.3c-.118.039-.2.079-.315.118a1.154,1.154,0,0,1-.355.079l-.473,1.852a4.45,4.45,0,0,1-1.576-.2L16.2,22.185a2.514,2.514,0,0,1-.551-.315l-1.655.985A6.077,6.077,0,0,1,13,21.633Z" transform="translate(-9.734 -4.953)" fill="#287cc4"/>
  </g>
</svg>
