<svg width="30" height="30" viewBox="0 0 30 30" fill="none" xmlns="http://www.w3.org/2000/svg">
<circle cx="11.25" cy="8.75" r="5" stroke="#9B59B6" stroke-width="1.75" stroke-linecap="round" stroke-linejoin="round"/>
<path d="M3.75 26.25V23.75C3.75 20.9886 5.98858 18.75 8.75 18.75H13.75C16.5114 18.75 18.75 20.9886 18.75 23.75V26.25" stroke="#9B59B6" stroke-width="1.75" stroke-linecap="round" stroke-linejoin="round"/>
<path d="M20 12.875C19.5168 12.875 19.125 13.2668 19.125 13.75C19.125 14.2332 19.5168 14.625 20 14.625V12.875ZM27.5 14.625C27.9832 14.625 28.375 14.2332 28.375 13.75C28.375 13.2668 27.9832 12.875 27.5 12.875V14.625ZM24.625 10C24.625 9.51675 24.2332 9.125 23.75 9.125C23.2668 9.125 22.875 9.51675 22.875 10H24.625ZM22.875 17.5C22.875 17.9832 23.2668 18.375 23.75 18.375C24.2332 18.375 24.625 17.9832 24.625 17.5H22.875ZM20 14.625H27.5V12.875H20V14.625ZM22.875 10V17.5H24.625V10H22.875Z" fill="#9B59B6"/>
</svg>
