<svg width="56" height="56" viewBox="0 0 56 56" fill="none" xmlns="http://www.w3.org/2000/svg">
<path d="M15.2249 0.120312C12.1295 0.514065 9.08892 2.08906 6.94517 4.40781C3.34673 8.27969 2.27486 13.6391 4.1233 18.5938C5.49048 22.2578 8.3233 26.1844 12.2499 29.8266C13.5733 31.0516 15.7717 32.9 16.6905 33.5563L17.0405 33.7969L18.0577 33.0094C24.2155 28.3172 28.842 22.4875 30.242 17.6422C31.8717 12.0641 29.9139 6.24531 25.2217 2.7125C24.2045 1.94687 22.0389 0.864063 20.8905 0.546875C19.0967 0.0546875 16.9749 -0.109375 15.2249 0.120312ZM17.828 7.01094C19.753 7.31719 21.4264 8.81563 21.9295 10.6531C22.0717 11.1672 22.1045 11.6266 22.0717 12.3922C22.0389 13.3219 21.9842 13.5078 21.6124 14.2625C21.1092 15.2906 20.2561 16.1656 19.3592 16.5922L18.7249 16.8984L18.6811 17.4453L18.6483 17.9922L17.0405 18.025L15.4217 18.0578V15.9688V13.8906H16.3952C16.9311 13.8906 17.5108 13.8359 17.6858 13.7703C19.053 13.2563 19.2499 11.2656 18.0139 10.5219C17.5108 10.2156 17.0295 10.1391 16.5155 10.2922C15.9686 10.4563 15.3561 11.1125 15.2467 11.6375L15.1811 12.0312H13.5514H11.9217V11.6703C11.9217 11.1891 12.1624 10.325 12.4686 9.73438C13.2999 8.09375 14.9405 7.04375 16.8983 6.9125C17.0186 6.90156 17.4342 6.94531 17.828 7.01094ZM18.703 22.2031V23.8438H17.0624H15.4217V22.2031V20.5625H17.0624H18.703V22.2031Z" fill="#F55858"/>
<path d="M35.3278 22.9359C34.5731 23.0672 33.3809 23.45 32.7247 23.7781C30.22 25.0359 28.1419 27.6609 27.4965 30.3734C27.2997 31.1719 27.245 32.8234 27.3762 33.4906L27.4637 33.9062H36.4872C44.9747 33.9062 45.5106 33.8953 45.5872 33.7094C45.7403 33.3266 45.6528 30.9203 45.4559 30.1875C45.1934 29.225 44.5153 27.8031 43.9247 26.9828C43.2794 26.075 41.759 24.6203 40.9497 24.15C39.2106 23.1328 37.0012 22.6516 35.3278 22.9359Z" fill="#F55858"/>
<path d="M10.3906 46.5938V56H12.0312H13.6719V48.2344V40.4688H20.6062H27.5297L27.3766 41.1469C27.0703 42.4594 27.4859 43.6734 28.6016 44.7234C29.75 45.7953 31.2266 46.4406 33.5234 46.8672L34.8359 47.1078L34.8687 48.9781L34.8906 50.8594H31.6641H28.4375V53.4297V56H30.0781H31.7188V55.0703V54.1406H36.4766H41.2344V55.0703V56H42.875H44.5156V53.4297V50.8594H41.3438H38.1719V48.9672V47.075L39.1016 46.9438C41.7812 46.55 44.1328 45.3906 45.0516 44.0125C45.6859 43.05 45.8609 41.8469 45.5438 40.7094L45.4781 40.4688H47.5125H49.5469V48.2344V56H51.1875H52.8281V46.5938V37.1875H31.6094H10.3906V46.5938Z" fill="#F55858"/>
</svg>
