<svg width="20" height="20" viewBox="0 0 20 20" fill="none" xmlns="http://www.w3.org/2000/svg">
<g id="Iconly/Light-Outline/Calendar">
<g id="Calendar">
<path id="Fill 1" fill-rule="evenodd" clip-rule="evenodd" d="M17.2221 8.2536H2.36877C2.02377 8.2536 1.74377 7.9736 1.74377 7.6286C1.74377 7.2836 2.02377 7.0036 2.36877 7.0036H17.2221C17.5671 7.0036 17.8471 7.2836 17.8471 7.6286C17.8471 7.9736 17.5671 8.2536 17.2221 8.2536Z" fill="#1f527d"/>
<path id="Fill 3" fill-rule="evenodd" clip-rule="evenodd" d="M13.501 11.508C13.156 11.508 12.8727 11.228 12.8727 10.883C12.8727 10.538 13.1485 10.258 13.4935 10.258H13.501C13.846 10.258 14.126 10.538 14.126 10.883C14.126 11.228 13.846 11.508 13.501 11.508Z" fill="#1f527d"/>
<path id="Fill 5" fill-rule="evenodd" clip-rule="evenodd" d="M9.80308 11.508C9.45808 11.508 9.17474 11.228 9.17474 10.883C9.17474 10.538 9.45058 10.258 9.79558 10.258H9.80308C10.1481 10.258 10.4281 10.538 10.4281 10.883C10.4281 11.228 10.1481 11.508 9.80308 11.508Z" fill="#1f527d"/>
<path id="Fill 7" fill-rule="evenodd" clip-rule="evenodd" d="M6.09743 11.508C5.75243 11.508 5.46826 11.228 5.46826 10.883C5.46826 10.538 5.74493 10.258 6.08993 10.258H6.09743C6.44243 10.258 6.72243 10.538 6.72243 10.883C6.72243 11.228 6.44243 11.508 6.09743 11.508Z" fill="#1f527d"/>
<path id="Fill 9" fill-rule="evenodd" clip-rule="evenodd" d="M13.501 14.7469C13.156 14.7469 12.8727 14.4669 12.8727 14.1219C12.8727 13.7769 13.1485 13.4969 13.4935 13.4969H13.501C13.846 13.4969 14.126 13.7769 14.126 14.1219C14.126 14.4669 13.846 14.7469 13.501 14.7469Z" fill="#1f527d"/>
<path id="Fill 11" fill-rule="evenodd" clip-rule="evenodd" d="M9.80308 14.7469C9.45808 14.7469 9.17474 14.4669 9.17474 14.1219C9.17474 13.7769 9.45058 13.4969 9.79558 13.4969H9.80308C10.1481 13.4969 10.4281 13.7769 10.4281 14.1219C10.4281 14.4669 10.1481 14.7469 9.80308 14.7469Z" fill="#1f527d"/>
<path id="Fill 13" fill-rule="evenodd" clip-rule="evenodd" d="M6.09743 14.7469C5.75243 14.7469 5.46826 14.4669 5.46826 14.1219C5.46826 13.7769 5.74493 13.4969 6.08993 13.4969H6.09743C6.44243 13.4969 6.72243 13.7769 6.72243 14.1219C6.72243 14.4669 6.44243 14.7469 6.09743 14.7469Z" fill="#1f527d"/>
<path id="Fill 15" fill-rule="evenodd" clip-rule="evenodd" d="M13.1613 4.82584C12.8163 4.82584 12.5363 4.54584 12.5363 4.20084V1.45834C12.5363 1.11334 12.8163 0.833344 13.1613 0.833344C13.5063 0.833344 13.7863 1.11334 13.7863 1.45834V4.20084C13.7863 4.54584 13.5063 4.82584 13.1613 4.82584Z" fill="#1f527d"/>
<path id="Fill 17" fill-rule="evenodd" clip-rule="evenodd" d="M6.42944 4.82584C6.08444 4.82584 5.80444 4.54584 5.80444 4.20084V1.45834C5.80444 1.11334 6.08444 0.833344 6.42944 0.833344C6.77444 0.833344 7.05444 1.11334 7.05444 1.45834V4.20084C7.05444 4.54584 6.77444 4.82584 6.42944 4.82584Z" fill="#1f527d"/>
<g id="Group 21">
<mask id="mask0_2012_4425" style="mask-type:alpha" maskUnits="userSpaceOnUse" x="1" y="2" width="17" height="17">
<path id="Clip 20" fill-rule="evenodd" clip-rule="evenodd" d="M1.66669 2.14926H17.9167V18.75H1.66669V2.14926Z" fill="white"/>
</mask>
<g mask="url(#mask0_2012_4425)">
<path id="Fill 19" fill-rule="evenodd" clip-rule="evenodd" d="M6.26752 3.39926C4.10669 3.39926 2.91669 4.55176 2.91669 6.64426V14.1851C2.91669 16.3234 4.10669 17.5001 6.26752 17.5001H13.3159C15.4767 17.5001 16.6667 16.3451 16.6667 14.2484V6.64426C16.67 5.61509 16.3934 4.81509 15.8442 4.26509C15.2792 3.69843 14.4084 3.39926 13.3234 3.39926H6.26752ZM13.3159 18.7501H6.26752C3.43002 18.7501 1.66669 17.0009 1.66669 14.1851V6.64426C1.66669 3.87093 3.43002 2.14926 6.26752 2.14926H13.3234C14.7475 2.14926 15.925 2.57593 16.7292 3.38176C17.51 4.16593 17.9209 5.29343 17.9167 6.64593V14.2484C17.9167 17.0251 16.1534 18.7501 13.3159 18.7501Z" fill="#1f527d"/>
</g>
</g>
</g>
</g>
</svg>
