<svg width="28" height="28" viewBox="0 0 28 28" fill="none" xmlns="http://www.w3.org/2000/svg">
<path d="M10.6094 2.66328C10.0297 2.76172 9.38984 3.08438 8.925 3.52188C8.60781 3.82266 8.43281 4.07969 7.71094 5.28281C7.24609 6.05938 6.78125 6.77578 6.67734 6.87969C6.33281 7.22969 6.26172 7.24063 4.51172 7.27891C3.02969 7.31172 2.89844 7.32266 2.5375 7.44297C1.52031 7.79297 0.74375 8.58594 0.421094 9.59766L0.300781 9.98047V16.3242C0.300781 22.3289 0.30625 22.6844 0.399219 22.9961C0.732812 24.0734 1.50937 24.8828 2.52656 25.2164L2.92578 25.3477H14H25.0742L25.4789 25.2164C26.4961 24.8828 27.2672 24.0789 27.6008 22.9906C27.6938 22.6844 27.6992 22.3234 27.6992 16.3242V9.98047L27.5789 9.59766C27.2563 8.58047 26.4414 7.75469 25.4297 7.42656C25.1125 7.32266 24.8937 7.30625 23.4883 7.27891C21.7383 7.24063 21.6836 7.22969 21.3281 6.87969C21.2242 6.77578 20.7539 6.05938 20.2891 5.28281C19.5617 4.06328 19.3922 3.82266 19.0641 3.51641C18.632 3.10625 18.0086 2.78359 17.4781 2.68516C17.1664 2.625 10.9375 2.60859 10.6094 2.66328ZM17.3305 4.45703C17.7789 4.59375 17.9977 4.85625 18.9 6.37109C19.8023 7.88047 20.1523 8.30703 20.7539 8.61875C21.432 8.97969 21.4812 8.98516 23.2422 9.02344C25.025 9.06172 25.0742 9.07266 25.4789 9.43906C25.5992 9.54297 25.7523 9.74531 25.8234 9.8875L25.9492 10.1445V16.2969C25.9492 21.3937 25.9383 22.4875 25.8727 22.6625C25.7797 22.9305 25.4242 23.3242 25.1289 23.4773L24.9102 23.5977H14H3.08984L2.87109 23.4773C2.57578 23.3242 2.22031 22.9305 2.12734 22.6625C2.06172 22.4875 2.05078 21.3937 2.05078 16.2969V10.1445L2.17656 9.8875C2.24766 9.74531 2.40078 9.54297 2.52109 9.43906C2.92578 9.07266 2.975 9.06172 4.75781 9.02344C6.50234 8.97969 6.57344 8.96875 7.19141 8.65156C7.85859 8.30156 8.17031 7.92969 9.13281 6.32187C10.0352 4.8125 10.2102 4.59922 10.6641 4.45703C11.0469 4.34219 16.9258 4.34219 17.3305 4.45703Z" fill="#1f527d"/>
<path d="M12.8459 8.56431C10.4287 9.00181 8.41621 10.719 7.66152 12.994C7.38809 13.8143 7.31152 14.2792 7.31152 15.1487C7.31152 15.7612 7.33887 16.0729 7.43184 16.5159C8.01152 19.2776 10.2318 21.3776 13.0154 21.7987C15.4326 22.1596 17.8771 21.1534 19.3646 19.1792C19.7967 18.6049 20.3053 17.5604 20.4748 16.8823C21.0928 14.487 20.4201 12.0807 18.6537 10.3471C17.724 9.42837 16.4607 8.79399 15.11 8.55884C14.5357 8.4604 13.4092 8.4604 12.8459 8.56431ZM14.9459 10.3034C16.1381 10.5331 17.3193 11.2932 18.0248 12.2885C18.7193 13.2565 19.0529 14.5362 18.9217 15.6901C18.774 16.9862 18.1178 18.1948 17.117 19.0151C16.6795 19.376 15.81 19.8135 15.2303 19.9721C14.6014 20.1417 13.3928 20.1362 12.7693 19.9667C12.2826 19.8354 11.5607 19.5073 11.1779 19.2502C10.5545 18.8182 9.90918 18.069 9.55371 17.3635C9.20918 16.6745 8.99043 15.5698 9.05059 14.8534C9.15996 13.6557 9.61387 12.6057 10.385 11.7909C11.1123 11.0252 11.9873 10.5331 13.0154 10.3143C13.4857 10.2104 14.4373 10.2049 14.9459 10.3034Z" fill="#1f527d"/>
</svg>
