<svg width="56" height="56" viewBox="0 0 56 56" fill="none" xmlns="http://www.w3.org/2000/svg">
<g clip-path="url(#clip0_1395_2723)">
<path d="M34.9453 2.8875C34.7703 2.96406 34.475 3.16093 34.3109 3.325C33.7203 3.87187 33.6875 4.10156 33.6875 7.36094V10.3578L34.2453 10.6094C35.3609 11.1344 36.0281 12.2281 36.0281 13.5078C36.0281 14.4922 35.8422 14.8969 34.6281 16.5266L33.6875 17.8062V21.0437V24.2812H36.3016H38.9047L38.9594 23.7891C39.0469 23.0781 39.4625 22.5094 40.1516 22.1594C40.8078 21.8422 41.3875 21.7984 41.9563 22.0391C42.4484 22.2469 48.4969 26.9391 48.7703 27.3328C49.2188 27.9672 49.2953 28.9516 48.9344 29.6406C48.8578 29.7937 48.6062 30.0891 48.3766 30.3078C47.7203 30.9203 42.5359 34.9125 42.1203 35.1312C41.3328 35.5359 40.1297 35.3062 39.5172 34.65C39.2219 34.3328 38.9375 33.6766 38.9375 33.3047V33.0312H36.3125H33.6875L33.7094 42.4703L33.7422 51.9094L34.0047 52.3031C34.1469 52.5109 34.4422 52.8062 34.65 52.9484L35.0437 53.2109L44.7016 53.2437C54.0422 53.2656 54.3703 53.2656 54.775 53.0578C55.2891 52.7953 55.6172 52.4453 55.8359 51.9312C55.9781 51.5703 56 48.9891 56 28C56 7.01093 55.9781 4.42968 55.8359 4.06875C55.6172 3.55468 55.2891 3.20469 54.775 2.94218C54.3813 2.74531 53.9984 2.73437 44.8219 2.73437C37.1219 2.74531 35.2078 2.76719 34.9453 2.8875Z" fill="#3CC6D0"/>
<path d="M21.2735 3.98124C18.9219 4.54999 17.4016 6.81405 17.7954 9.14374C18.2329 11.6484 20.6063 13.3656 23.0454 12.9172C26.6438 12.2609 28.0876 7.95155 25.5938 5.31562C24.4454 4.10155 22.8376 3.59843 21.2735 3.98124Z" fill="#3CC6D0"/>
<path d="M31.9924 11.6156C31.533 11.8672 31.1939 12.2719 29.1924 14.9516C28.0549 16.4719 27.0924 17.7188 27.0377 17.7188C26.9064 17.7188 23.7017 16.625 23.6252 16.5594C23.5924 16.5266 23.9314 16.5375 24.3689 16.5812L25.1783 16.6578L24.9486 16.2203C24.6971 15.7172 24.0955 15.1594 23.5814 14.9406C23.3736 14.8531 21.7002 14.5797 19.8517 14.3281C15.1814 13.6828 15.7502 13.5406 10.5002 16.625C6.65019 18.8781 6.72675 18.8344 6.45331 19.3594C6.16894 19.9172 6.16894 20.125 6.55175 25.6703C6.89081 30.5484 6.93456 30.7781 7.51425 31.3031C8.37831 32.0797 9.85487 31.9375 10.5658 31.0078C10.8174 30.6688 10.883 30.4609 10.9158 29.8703C10.9486 29.2359 10.5877 22.9141 10.4455 21.875L10.4017 21.4922L11.7361 20.7047C12.4689 20.2672 13.0814 19.9281 13.1033 19.95C13.1252 19.9719 12.7861 22.3453 12.3596 25.2219C11.6924 29.7719 11.5502 30.975 11.3096 34.3984C11.1564 36.5641 11.0252 38.3469 11.0142 38.3578C11.0033 38.3688 8.94706 38.7188 6.45331 39.1453C1.33456 40.0203 1.01737 40.1078 0.448624 40.9828C-0.557626 42.5031 0.372061 44.6031 2.14394 44.8C2.63612 44.8547 4.99862 44.4828 12.9064 43.0938C14.3174 42.8531 14.5361 42.7656 15.083 42.2734C15.7611 41.65 15.8267 41.3438 16.0783 37.5703C16.1986 35.7 16.3189 33.9281 16.3627 33.6219L16.4174 33.0641L17.8392 33.3047C18.6267 33.4359 19.3049 33.5891 19.3486 33.6438C19.3924 33.6984 20.0596 35.0656 20.8142 36.6953L22.1924 39.6484L22.8049 45.4453C23.1549 48.8688 23.4721 51.4281 23.5705 51.6906C23.9096 52.5984 24.8721 53.2656 25.8674 53.2656C27.1908 53.2656 28.3174 52.1609 28.3283 50.8594C28.3283 50.5859 28.033 47.6328 27.683 44.2969L27.0377 38.2266L25.2549 34.4531L23.483 30.6797L24.008 26.8516C24.2924 24.7406 24.5549 22.7938 24.5877 22.5094L24.6314 22.0063L23.3736 21.2625C22.6736 20.8578 22.1158 20.5078 22.1267 20.4969C22.1377 20.475 23.308 20.8688 24.7189 21.3609C27.6174 22.3672 28.1752 22.4438 28.8971 22.0063C29.1814 21.8313 30.133 20.6391 31.9377 18.2109C33.3924 16.2641 34.6502 14.5141 34.7486 14.3281C34.858 14.0875 34.9017 13.7812 34.8689 13.3328C34.8142 12.6 34.4533 12.0422 33.7971 11.6922C33.3705 11.4625 32.3424 11.4188 31.9924 11.6156Z" fill="#3CC6D0"/>
<path d="M40.7425 23.3188C40.3378 23.5484 40.2613 23.7672 40.2503 24.6859V25.5938H36.1488H32.0363L31.7738 25.8563C31.4128 26.2172 31.3691 26.5563 31.4128 28.9516L31.4457 31.0625L31.7519 31.3578L32.0472 31.6641L36.1488 31.6969L40.2503 31.7297V32.6047C40.2503 33.3922 40.2832 33.5016 40.5238 33.7422C41.0925 34.3219 41.2347 34.2453 44.5816 31.6313C46.2769 30.3188 47.6878 29.1266 47.7644 28.9734C48.0488 28.3828 47.841 28.1422 45.3035 26.1734C41.0707 22.8813 41.2785 23.0125 40.7425 23.3188Z" fill="#3CC6D0"/>
</g>
<defs>
<clipPath id="clip0_1395_2723">
<rect width="56" height="56" fill="white"/>
</clipPath>
</defs>
</svg>
