<svg width="250" height="196" viewBox="0 0 250 196" fill="none" xmlns="http://www.w3.org/2000/svg">
<path opacity="0.47" d="M42.1103 56.8275C41.6627 54.8536 39.9208 53.3815 37.8366 53.3815C37.4548 53.3815 37.0828 53.4308 36.7295 53.5245C35.7017 51.2967 33.47 49.7531 30.8825 49.7531C30.213 49.7531 29.5683 49.8566 28.9621 50.0477C27.5685 47.7101 25.0381 46.1468 22.1468 46.1468C18.7076 46.1468 15.7779 48.3586 14.667 51.4557C13.881 51.0119 12.9772 50.7579 12.0126 50.7579C8.99738 50.7579 6.55371 53.2348 6.55371 56.29C6.55371 56.4712 6.56239 56.65 6.57975 56.8263H42.1103V56.8275Z" fill="#F0FBFF"/>
<path opacity="0.47" d="M111.928 100.488C112.462 98.2239 114.542 96.536 117.03 96.536C117.486 96.536 117.928 96.5927 118.351 96.7C119.579 94.1454 122.243 92.3749 125.333 92.3749C126.131 92.3749 126.902 92.4933 127.626 92.7127C129.289 90.0324 132.311 88.2397 135.763 88.2397C139.869 88.2397 143.368 90.7771 144.693 94.3279C145.632 93.8187 146.712 93.5277 147.862 93.5277C151.462 93.5277 154.38 96.3683 154.38 99.8723C154.38 100.079 154.369 100.285 154.349 100.488H111.928Z" fill="#F0FBFF"/>
<path opacity="0.47" d="M250 130.775C249.104 130.114 248.032 129.725 246.878 129.725C245.875 129.725 244.934 130.016 244.117 130.525C242.962 126.973 239.913 124.437 236.334 124.437C233.325 124.437 230.691 126.23 229.242 128.91C228.611 128.69 227.939 128.572 227.243 128.572C224.55 128.572 222.229 130.343 221.16 132.898C220.791 132.791 220.406 132.734 220.008 132.734C217.841 132.734 216.027 134.422 215.561 136.686H249.494C249.698 134.705 249.866 132.732 250 130.775Z" fill="#F0FBFF"/>
<path opacity="0.47" d="M16.9805 132.608C17.4454 130.345 19.2592 128.657 21.4277 128.657C21.8257 128.657 22.2112 128.714 22.5795 128.821C23.6494 126.266 25.9716 124.496 28.6632 124.496C29.3587 124.496 30.0307 124.614 30.6618 124.834C32.1111 122.153 34.7445 120.361 37.7535 120.361C41.3328 120.361 44.3815 122.898 45.5358 126.449C46.3541 125.94 47.2951 125.649 48.2969 125.649C51.4336 125.649 53.9777 128.489 53.9777 131.993C53.9777 132.202 53.9678 132.406 53.9504 132.608H16.9805Z" fill="#F0FBFF"/>
<path opacity="0.47" d="M190.537 24.8815C190.089 22.9076 188.346 21.4355 186.263 21.4355C185.882 21.4355 185.51 21.4849 185.156 21.5786C184.128 19.3507 181.897 17.8071 179.309 17.8071C178.64 17.8071 177.995 17.9106 177.389 18.1017C175.995 15.7641 173.465 14.2008 170.574 14.2008C167.134 14.2008 164.205 16.4127 163.094 19.5097C162.308 19.0659 161.404 18.8119 160.439 18.8119C157.424 18.8119 154.98 21.2888 154.98 24.344C154.98 24.5252 154.989 24.704 155.006 24.8803H190.537V24.8815Z" fill="#F0FBFF"/>
<path d="M229.667 194.562C229.667 194.562 194.921 162.022 173.056 157.031C151.191 152.04 171.799 171.862 171.799 171.862C171.799 171.862 137.529 142.6 122.973 144.227C107.035 146.009 114.918 162.055 114.918 162.055C114.918 162.055 104.1 150.657 86.4986 152.621C66.0604 154.902 106.328 193.831 106.328 193.831L229.667 194.562Z" fill="#A1C2F5"/>
<path d="M126.68 193.746C126.68 193.746 106.62 165.89 86.2188 164.689C67.0711 163.561 78.832 181.821 77.6145 180.873C76.3958 179.924 60.0612 161.693 44.4892 166.674C26.7116 172.36 53.6626 184.877 53.6626 184.877C53.6626 184.877 16.7174 175.889 13.8237 185.327C11.4222 193.161 24.8506 193.746 24.8506 193.746H126.68Z" fill="#B6D2FB"/>
<path d="M227.411 159.052C230.925 170.159 232.524 181.878 232.061 193.745H232.505C232.917 182.115 231.342 170.423 227.835 159.328C227.021 156.75 226.203 153.731 223.806 152.166C223.76 152.135 223.72 152.208 223.764 152.239C225.92 153.792 226.649 156.641 227.411 159.052Z" fill="#466EB6"/>
<path d="M230.498 193.745C226.206 182.703 220.271 171.967 212.486 161.924C212.408 161.824 212.23 161.958 212.309 162.06C219.661 171.702 225.601 182.349 229.947 193.745H230.498Z" fill="#466EB6"/>
<path d="M228.428 153.024C228.212 153.212 227.456 153.651 227.071 154.392C226.637 155.075 226.573 156.061 226.601 156.033C226.641 156.064 226.073 155.242 226.109 154.19C226.065 153.159 226.626 151.896 227.112 151.558C228.013 150.742 229.155 150.942 229.243 151.48C229.345 152.017 228.88 152.586 228.428 153.024Z" fill="#466EB6"/>
<path d="M224.724 161.096C224.993 160.996 225.74 160.544 226.572 160.562C227.378 160.511 228.268 160.93 228.23 160.942C228.237 160.993 227.796 160.096 226.861 159.619C225.983 159.083 224.612 158.966 224.083 159.23C222.936 159.628 222.559 160.728 222.984 161.065C223.402 161.416 224.122 161.282 224.724 161.096Z" fill="#466EB6"/>
<path d="M225.915 165.393C226.184 165.293 226.932 164.841 227.764 164.859C228.569 164.807 229.46 165.227 229.421 165.239C229.429 165.288 228.987 164.393 228.052 163.915C227.175 163.378 225.803 163.261 225.274 163.525C224.127 163.923 223.75 165.023 224.176 165.361C224.593 165.712 225.314 165.579 225.915 165.393Z" fill="#466EB6"/>
<path d="M215.834 171.9C216.103 171.8 216.851 171.348 217.683 171.366C218.489 171.315 219.379 171.734 219.34 171.746C219.348 171.797 218.906 170.9 217.97 170.423C217.093 169.887 215.721 169.77 215.192 170.034C214.045 170.432 213.668 171.532 214.094 171.869C214.513 172.218 215.233 172.085 215.834 171.9Z" fill="#466EB6"/>
<path d="M212.797 167.31C213.066 167.21 213.814 166.758 214.646 166.776C215.452 166.725 216.342 167.144 216.303 167.156C216.311 167.205 215.869 166.31 214.933 165.832C214.056 165.297 212.684 165.178 212.155 165.442C211.008 165.841 210.631 166.94 211.056 167.278C211.475 167.63 212.196 167.496 212.797 167.31Z" fill="#466EB6"/>
<path d="M230.362 158.042C230.117 158.194 229.303 158.507 228.806 159.178C228.269 159.784 228.052 160.746 228.084 160.724C228.119 160.761 227.687 159.86 227.887 158.825C228.006 157.801 228.757 156.642 229.29 156.385C230.308 155.722 231.404 156.101 231.407 156.644C231.424 157.193 230.877 157.681 230.362 158.042Z" fill="#466EB6"/>
<path d="M232.447 163.112C232.138 163.184 231.125 163.19 230.462 163.772C229.756 164.259 229.401 165.319 229.442 165.307C229.48 165.367 229.047 164.085 229.389 162.93C229.632 161.75 230.652 160.696 231.319 160.629C232.61 160.294 233.894 161.249 233.845 161.906C233.812 162.573 233.104 162.912 232.447 163.112Z" fill="#466EB6"/>
<path d="M234.124 170.392C233.808 170.411 232.809 170.246 232.056 170.707C231.279 171.067 230.751 172.053 230.793 172.048C230.82 172.114 230.608 170.777 231.139 169.696C231.577 168.574 232.757 167.706 233.426 167.754C234.755 167.642 235.861 168.8 235.703 169.439C235.559 170.09 234.805 170.305 234.124 170.392Z" fill="#466EB6"/>
<path d="M222.946 172.14C222.699 172.215 221.875 172.279 221.369 172.789C220.822 173.226 220.593 174.109 220.626 174.096C220.661 174.143 220.236 173.125 220.449 172.165C220.58 171.191 221.348 170.275 221.887 170.184C222.92 169.838 224.017 170.54 224.014 171.079C224.026 171.622 223.469 171.939 222.946 172.14Z" fill="#466EB6"/>
<path d="M222.473 153.019C222.628 152.949 223.05 152.648 223.543 152.622C224.017 152.556 224.562 152.765 224.541 152.774C224.547 152.804 224.247 152.293 223.673 152.052C223.13 151.773 222.314 151.764 222.011 151.943C221.351 152.229 221.175 152.896 221.442 153.077C221.705 153.266 222.125 153.156 222.473 153.019Z" fill="#466EB6"/>
<path d="M224.407 150.639C224.357 150.801 224.117 151.263 224.156 151.756C224.154 152.237 224.433 152.752 224.438 152.729C224.467 152.731 223.924 152.5 223.609 151.96C223.262 151.457 223.146 150.645 223.282 150.322C223.477 149.625 224.113 149.363 224.326 149.604C224.549 149.842 224.496 150.275 224.407 150.639Z" fill="#466EB6"/>
<path d="M210.891 162.956C211.046 162.885 211.468 162.584 211.961 162.559C212.435 162.493 212.98 162.702 212.957 162.71C212.964 162.74 212.664 162.229 212.09 161.988C211.546 161.709 210.731 161.7 210.429 161.879C209.769 162.165 209.593 162.832 209.86 163.014C210.123 163.203 210.542 163.092 210.891 162.956Z" fill="#466EB6"/>
<path d="M213.081 160.619C213.018 160.778 212.741 161.217 212.741 161.713C212.7 162.192 212.935 162.727 212.943 162.705C212.973 162.71 212.45 162.435 212.181 161.872C211.877 161.342 211.825 160.523 211.989 160.212C212.239 159.534 212.894 159.326 213.087 159.583C213.287 159.836 213.199 160.264 213.081 160.619Z" fill="#466EB6"/>
<path d="M199.658 178.366C203.271 181.836 206.422 185.769 208.776 190.144C209.437 191.372 209.996 192.635 210.572 193.9C210.649 194.068 210.946 193.948 210.881 193.775C210.817 193.601 210.752 193.428 210.688 193.254C210.651 193.152 210.46 193.158 210.476 193.283C210.5 193.461 210.524 193.64 210.549 193.819C210.659 193.804 210.77 193.791 210.88 193.776C209.985 191.489 208.741 189.284 207.403 187.214C203.396 181.009 199.245 177.969 199.658 178.366Z" fill="#466EB6"/>
<path d="M204.142 180.248C204.035 180.367 203.646 180.661 203.488 181.09C203.299 181.492 203.341 182.03 203.354 182.013C203.379 182.026 202.996 181.627 202.933 181.055C202.827 180.501 203.042 179.777 203.287 179.558C203.729 179.049 204.383 179.068 204.475 179.352C204.577 179.634 204.361 179.977 204.142 180.248Z" fill="#466EB6"/>
<path d="M201.689 177.708C201.583 177.827 201.194 178.121 201.036 178.551C200.846 178.952 200.889 179.49 200.902 179.473C200.927 179.486 200.544 179.087 200.481 178.515C200.375 177.961 200.59 177.237 200.835 177.018C201.277 176.509 201.931 176.529 202.023 176.812C202.123 177.094 201.908 177.437 201.689 177.708Z" fill="#466EB6"/>
<path d="M199.037 179.925C199.176 179.844 199.545 179.525 200.008 179.449C200.451 179.338 200.99 179.472 200.97 179.483C200.98 179.508 200.639 179.075 200.069 178.914C199.525 178.717 198.75 178.795 198.483 178.991C197.888 179.322 197.794 179.95 198.067 180.087C198.337 180.231 198.724 180.085 199.037 179.925Z" fill="#466EB6"/>
<path d="M201.64 182.681C201.779 182.599 202.147 182.28 202.611 182.205C203.053 182.094 203.593 182.228 203.573 182.238C203.583 182.264 203.242 181.83 202.672 181.67C202.127 181.474 201.352 181.551 201.086 181.746C200.491 182.078 200.396 182.705 200.669 182.842C200.94 182.988 201.326 182.842 201.64 182.681Z" fill="#466EB6"/>
<path d="M203.544 185.034C203.683 184.953 204.051 184.634 204.515 184.559C204.958 184.448 205.497 184.582 205.477 184.592C205.487 184.618 205.146 184.184 204.576 184.023C204.032 183.827 203.257 183.905 202.99 184.1C202.395 184.432 202.301 185.059 202.574 185.196C202.844 185.341 203.229 185.196 203.544 185.034Z" fill="#466EB6"/>
<path d="M205.128 187.389C205.267 187.308 205.635 186.989 206.099 186.913C206.542 186.802 207.081 186.937 207.061 186.947C207.071 186.973 206.73 186.539 206.16 186.378C205.616 186.181 204.841 186.26 204.574 186.455C203.979 186.786 203.885 187.414 204.158 187.551C204.428 187.695 204.813 187.55 205.128 187.389Z" fill="#466EB6"/>
<path d="M206.174 182.819C206.067 182.937 205.678 183.232 205.52 183.661C205.331 184.063 205.373 184.6 205.387 184.583C205.411 184.597 205.028 184.197 204.965 183.626C204.86 183.073 205.074 182.349 205.32 182.13C205.761 181.621 206.416 181.64 206.507 181.924C206.608 182.205 206.392 182.548 206.174 182.819Z" fill="#466EB6"/>
<path d="M207.976 185.406C207.869 185.524 207.48 185.819 207.322 186.248C207.133 186.65 207.175 187.187 207.188 187.17C207.213 187.183 206.83 186.784 206.767 186.212C206.661 185.658 206.876 184.935 207.121 184.715C207.563 184.206 208.217 184.227 208.309 184.509C208.41 184.792 208.195 185.134 207.976 185.406Z" fill="#466EB6"/>
<path d="M201.192 190.05C201.378 190.162 201.848 190.543 202.09 190.78C202.75 191.428 203.349 192.353 203.677 193.396C203.698 193.463 203.704 193.523 203.767 193.561C203.782 193.571 203.805 193.565 203.814 193.549C203.853 193.479 203.82 193.415 203.799 193.342C203.646 192.818 203.329 192.162 202.855 191.522C202.05 190.441 201.454 190.19 201.196 190.043C201.192 190.041 201.188 190.047 201.192 190.05Z" fill="#466EB6"/>
<path d="M200.538 190.695C200.643 190.648 200.931 190.452 201.265 190.435C201.588 190.391 201.959 190.528 201.944 190.534C201.949 190.553 201.744 190.219 201.353 190.061C200.984 189.879 200.429 189.872 200.224 189.99C199.774 190.177 199.655 190.615 199.836 190.733C200.014 190.856 200.301 190.785 200.538 190.695Z" fill="#466EB6"/>
<path d="M201.854 189.135C201.82 189.242 201.657 189.543 201.684 189.867C201.683 190.183 201.871 190.52 201.876 190.505C201.896 190.506 201.526 190.356 201.313 190.002C201.078 189.673 200.997 189.14 201.091 188.928C201.224 188.472 201.657 188.3 201.802 188.458C201.95 188.612 201.914 188.897 201.854 189.135Z" fill="#466EB6"/>
<path d="M2.57084 138.605C3.64452 139.219 4.62893 140.048 5.60962 140.788C10.9433 144.813 16.3538 148.708 23.7121 156.897C33.5488 167.846 40.8971 180.279 45.3778 193.858C45.5378 194.344 46.3461 194.136 46.1837 193.648C43.2689 184.914 39.1341 176.557 33.9344 168.84C19.8873 147.988 2.38239 138.497 2.57084 138.605Z" fill="#466EB6"/>
<path d="M29.1316 141.117C30.307 148.473 34.3475 155.087 37.1309 161.951C44.5797 180.312 45.7885 194.189 46.458 195.739C46.5249 195.894 46.7382 195.867 46.7605 195.699C46.9465 194.26 45.3174 184.299 42.0815 173.824C36.7007 156.409 31.0682 149.607 29.3845 141.049C29.3548 140.89 29.1068 140.96 29.1316 141.117Z" fill="#466EB6"/>
<path d="M11.4228 138.98C11.2219 139.361 10.3925 140.396 10.2809 141.63C10.0627 142.815 10.5624 144.199 10.5872 144.145C10.6628 144.163 9.34859 143.366 8.76712 141.905C8.08522 140.519 8.13605 138.47 8.6357 137.729C9.44901 136.095 11.2195 135.714 11.6708 136.399C12.1431 137.077 11.8133 138.121 11.4228 138.98Z" fill="#466EB6"/>
<path d="M23.6278 150.625C23.4766 151.025 22.7848 152.14 22.8282 153.373C22.76 154.569 23.427 155.883 23.4444 155.827C23.5225 155.837 22.1227 155.195 21.3652 153.816C20.5184 152.521 20.3138 150.489 20.7168 149.7C21.3181 147.994 23.0216 147.418 23.5535 148.045C24.1039 148.661 23.908 149.731 23.6278 150.625Z" fill="#466EB6"/>
<path d="M39.1673 156.359C38.8549 156.462 37.8568 156.597 37.1278 157.192C36.3703 157.707 35.8806 158.68 35.9227 158.664C35.9525 158.712 35.6946 157.648 36.1831 156.595C36.5773 155.532 37.718 154.482 38.3825 154.337C39.6979 153.879 40.8348 154.547 40.6997 155.126C40.5807 155.712 39.8393 156.099 39.1673 156.359Z" fill="#466EB6"/>
<path d="M40.7108 159.948C40.3983 160.051 39.4003 160.186 38.6713 160.781C37.9138 161.296 37.424 162.269 37.4662 162.253C37.4959 162.3 37.2393 161.237 37.7265 160.184C38.1208 159.121 39.2614 158.069 39.926 157.926C41.2414 157.467 42.3783 158.135 42.2432 158.715C42.1242 159.301 41.3828 159.688 40.7108 159.948Z" fill="#466EB6"/>
<path d="M6.25036 146.6C6.50948 146.294 7.10459 145.239 8.14975 144.678C9.11061 144.051 10.5227 143.919 10.4856 143.96C10.5314 144.013 9.32509 143.272 7.81376 143.368C6.33095 143.356 4.54438 144.179 4.08193 144.861C2.95246 146.134 3.29465 147.688 4.07077 147.786C4.84689 147.902 5.64285 147.24 6.25036 146.6Z" fill="#466EB6"/>
<path d="M13.7211 153.154C13.9802 152.848 14.5753 151.793 15.6205 151.232C16.5813 150.605 17.9935 150.474 17.9563 150.514C18.0021 150.567 16.7958 149.826 15.2845 149.922C13.8017 149.91 12.0151 150.735 11.5526 151.415C10.4232 152.688 10.7654 154.243 11.5415 154.34C12.3188 154.455 13.1136 153.794 13.7211 153.154Z" fill="#466EB6"/>
<path d="M26.9796 147.278C27.3925 147.297 28.641 147.136 29.732 147.609C30.8292 147.982 31.7715 148.989 31.7145 148.984C31.6959 149.051 31.619 147.688 30.6507 146.582C29.7915 145.435 28.0397 144.544 27.1879 144.589C25.441 144.467 24.3165 145.643 24.6897 146.296C25.0468 146.962 26.077 147.185 26.9796 147.278Z" fill="#466EB6"/>
<path d="M29.1671 152.308C29.58 152.328 30.8285 152.166 31.9195 152.64C33.018 153.012 33.959 154.019 33.902 154.014C33.8834 154.081 33.8065 152.719 32.8382 151.613C31.979 150.465 30.2272 149.575 29.3754 149.619C27.6285 149.497 26.504 150.673 26.8772 151.327C27.2343 151.993 28.2645 152.216 29.1671 152.308Z" fill="#466EB6"/>
<path d="M23.234 163.253C23.4931 162.947 24.0883 161.892 25.1322 161.331C26.093 160.704 27.5052 160.572 27.4667 160.613C27.5126 160.666 26.3063 159.925 24.7962 160.021C23.3134 160.009 21.5268 160.834 21.0644 161.514C19.9349 162.787 20.2771 164.341 21.0532 164.439C21.8306 164.555 22.6253 163.893 23.234 163.253Z" fill="#466EB6"/>
<path d="M1.84956 141.156C2.05537 140.997 2.57485 140.409 3.30882 140.187C3.9994 139.915 4.90446 140.009 4.8747 140.029C4.89578 140.069 4.24116 139.452 3.27907 139.323C2.35045 139.129 1.11311 139.423 0.728773 139.793C-0.156452 140.45 -0.158931 141.468 0.314677 141.627C0.787045 141.799 1.37843 141.482 1.84956 141.156Z" fill="#466EB6"/>
<path d="M3.83374 137.029C3.82258 137.28 3.64157 138.028 3.89573 138.719C4.0817 139.407 4.70533 140.038 4.70409 140.002C4.74996 139.995 3.83746 139.869 3.15061 139.216C2.42904 138.626 1.93187 137.512 2.01246 136.997C2.0323 135.929 2.88901 135.315 3.30682 135.579C3.73456 135.836 3.82506 136.475 3.83374 137.029Z" fill="#466EB6"/>
<path d="M3.45294 173.642C13.8128 176.653 22.7791 182.867 31.4008 188.905C37.2142 192.976 36.7258 193.749 37.942 194.418C38.1391 194.527 38.3933 194.347 38.3288 194.135C38.0164 193.101 36.8299 192.226 36.0228 191.518C35.0842 190.695 34.0837 189.937 33.0596 189.212C30.8677 187.663 28.5914 186.213 26.3324 184.753C21.7389 181.783 17.0388 178.922 12.0126 176.652C9.2565 175.408 6.40989 174.355 3.47526 173.561C3.42194 173.547 3.39839 173.628 3.45294 173.642Z" fill="#466EB6"/>
<path d="M13.6106 172.247C13.4594 172.646 12.7676 173.762 12.811 174.995C12.7428 176.191 13.4098 177.505 13.4272 177.448C13.5053 177.458 12.1055 176.817 11.348 175.438C10.5012 174.143 10.2966 172.111 10.6983 171.322C11.2996 169.614 13.0031 169.04 13.535 169.666C14.0867 170.283 13.8908 171.353 13.6106 172.247Z" fill="#466EB6"/>
<path d="M22.2978 177.098C22.1465 177.498 21.4547 178.613 21.4981 179.846C21.4299 181.042 22.0969 182.357 22.1143 182.3C22.1924 182.31 20.7926 181.669 20.0351 180.289C19.1883 178.994 18.9838 176.963 19.3867 176.174C19.988 174.466 21.6915 173.891 22.2234 174.518C22.7726 175.134 22.5767 176.204 22.2978 177.098Z" fill="#466EB6"/>
<path d="M30.9661 182.818C30.8149 183.217 30.123 184.333 30.1664 185.566C30.0982 186.762 30.7653 188.076 30.7826 188.019C30.8607 188.029 29.461 187.388 28.7035 186.008C27.8567 184.714 27.6521 182.682 28.0538 181.893C28.6551 180.185 30.3586 179.611 30.8905 180.237C31.4422 180.854 31.2463 181.924 30.9661 182.818Z" fill="#466EB6"/>
<path d="M9.17321 180.018C9.43233 179.712 10.0274 178.657 11.0726 178.096C12.0335 177.469 13.4456 177.337 13.4072 177.378C13.453 177.431 12.2467 176.69 10.7366 176.786C9.2538 176.774 7.46723 177.599 7.00478 178.279C5.87531 179.552 6.2175 181.106 6.99362 181.203C7.77098 181.32 8.5657 180.658 9.17321 180.018Z" fill="#466EB6"/>
<path d="M18.2184 185.027C18.4775 184.721 19.0726 183.666 20.1178 183.105C21.0786 182.479 22.4908 182.347 22.4524 182.387C22.4982 182.44 21.2919 181.701 19.7806 181.796C18.2977 181.783 16.5112 182.608 16.0487 183.289C14.9193 184.561 15.2614 186.116 16.0376 186.212C16.8149 186.329 17.6096 185.667 18.2184 185.027Z" fill="#466EB6"/>
<path d="M2.46225 175.33C2.66806 175.171 3.18754 174.583 3.92151 174.361C4.61208 174.089 5.51715 174.182 5.48739 174.203C5.50847 174.243 4.85508 173.626 3.89175 173.497C2.96313 173.303 1.7258 173.597 1.34146 173.967C0.454995 174.624 0.453756 175.643 0.927364 175.801C1.39973 175.971 1.99112 175.656 2.46225 175.33Z" fill="#466EB6"/>
<path d="M4.44703 171.201C4.43587 171.453 4.25485 172.201 4.50902 172.892C4.69499 173.579 5.31861 174.211 5.31737 174.175C5.36324 174.168 4.45074 174.042 3.76389 173.388C3.04232 172.799 2.54515 171.685 2.62574 171.169C2.64558 170.101 3.50229 169.487 3.92011 169.753C4.34784 170.01 4.43711 170.649 4.44703 171.201Z" fill="#466EB6"/>
<path d="M243.801 192.998H5.05287C4.53215 192.998 4.10938 193.67 4.10938 194.499C4.10938 195.328 4.53215 196 5.05287 196H243.801C244.322 196 244.744 195.328 244.744 194.499C244.744 193.67 244.322 192.998 243.801 192.998Z" fill="#466EB6"/>
<path d="M99.821 125.56C96.8442 119.016 98.1386 110.03 99.3896 101.341C99.8198 98.3557 100.226 95.5348 100.442 92.8976L100.445 92.8803C100.462 92.8088 102.247 85.6554 103.728 75.2669C105.093 65.6798 106.47 51.2991 105.277 37.2316L105.487 37.2143C106.682 51.3016 105.303 65.7007 103.936 75.299C102.478 85.5371 100.722 92.6374 100.652 92.9222C100.435 95.5644 100.028 98.384 99.5979 101.37C98.3506 110.03 97.0612 118.985 100.012 125.474L99.821 125.56Z" fill="#184655"/>
<path d="M105.503 37.0454C104.728 39.0292 104.616 40.6332 104.513 40.6652C105.691 40.1228 106.181 40.8268 107.413 40.3077C106.768 37.938 105.503 37.0454 105.503 37.0454Z" fill="#466EB6"/>
<path d="M118.752 17.0081C119.351 26.8628 111.38 37.165 105.704 37.4794C100.324 37.7778 90.8684 28.5766 90.2696 18.7219C89.6695 8.86598 95.5599 0.493268 103.425 0.0210628C111.291 -0.453609 118.153 7.15223 118.752 17.0081Z" fill="#466EB6"/>
<path d="M100.619 3.01212C96.7021 2.51772 93.3422 9.38134 96.1987 10.7388C99.1829 12.1566 105.67 3.65077 100.619 3.01212Z" fill="#1C1C1C"/>
<path d="M118.752 17.0081C118.461 12.2318 116.7 7.98443 114.066 4.92804C119.637 15.7777 113.453 30.204 107.412 32.893C104.461 34.206 100.969 34.8854 96.7598 32.5231C99.7465 35.6609 103.175 37.62 105.704 37.4794C111.381 37.165 119.352 26.8628 118.752 17.0081Z" fill="#325CAB"/>
<path d="M106.142 37.7778L105.218 37.8308C105.118 37.8369 105.031 37.7593 105.025 37.6594C105.019 37.5595 105.095 37.4732 105.197 37.4671L106.121 37.414C106.221 37.4079 106.308 37.4843 106.314 37.5854C106.32 37.6853 106.243 37.7716 106.142 37.7778Z" fill="#184655"/>
<path d="M175.978 33.1778C175.978 33.1778 174.127 31.7772 172.117 33.4614C170.108 35.1455 170.9 35.1726 169.913 36.0209C168.926 36.8691 167.281 36.1195 166.769 37.7507C166.257 39.3818 166.942 39.8737 166.942 39.8737C166.942 39.8737 165.851 40.9279 166.207 42.4715C166.563 44.0151 168.12 45.7313 169.774 46.0469C169.774 46.0469 171.763 48.101 174.364 48.2304C176.965 48.3599 176.126 48.0997 177.11 48.4055C178.094 48.7113 181.178 48.1959 181.355 46.1012C181.355 46.1012 183.578 44.6883 182.496 42.6342C181.413 40.5802 181.614 38.8985 181.364 36.5116C181.113 34.1259 177.23 33.0101 175.978 33.1778Z" fill="#184655"/>
<path d="M157.64 40.0587C156.362 39.2918 153.313 36.2724 152.281 35.2454C152.266 35.1209 152.143 34.4008 151.311 33.5107C150.722 32.8819 150.24 31.416 149.886 31.8499C149.532 32.2839 150.494 33.4268 150.075 33.4503C149.655 33.4737 147.482 31.2199 147.161 31.6132C146.84 32.0065 149.036 34.0002 148.66 34.0211C148.285 34.0421 146.487 32.0078 146.033 32.5626C145.579 33.1186 148.373 34.7609 148.128 35.0592C147.885 35.3576 146.152 34.2763 145.788 34.7239C145.423 35.1714 148.226 36.0887 148.004 36.101C147.784 36.1134 146.187 36.1294 146.187 36.4351C146.187 36.7804 150.256 37.1675 150.774 37.747C151.895 39.383 153.894 42.3729 155.851 43.644C158.246 45.1999 163.77 48.4844 163.77 48.4844L166.319 44.9435C166.319 44.9435 159.157 40.9686 157.64 40.0587Z" fill="#F7A491"/>
<path d="M150.102 34.1912C150.005 34.3983 149.969 34.6214 149.963 34.8446C149.973 34.8804 149.901 35.6041 150.538 36.1268C150.282 35.6904 149.998 35.2058 150.102 34.1912Z" fill="#F48C7F"/>
<path d="M157.633 73.4053C158.037 74.8885 158.759 77.2322 158.759 77.2322C158.724 77.882 158.603 80.587 158.46 83.9023L163.3 81.8285C163.3 81.8285 163.061 76.5825 163.271 76.2471C163.448 75.9636 163.806 76.1584 165.248 73.986C165.665 73.3584 165.717 72.2562 165.717 72.2562C165.717 72.2562 165.77 70.9 165.461 70.7816C165.153 70.6633 164.807 70.8753 164.703 71.112C164.598 71.3488 164.641 71.8937 164.536 72.1304C164.432 72.3672 163.732 72.668 163.433 72.6606C163.134 72.6532 163.365 68.6536 163.365 68.6536C163.365 68.6536 163.501 67.5169 163.576 67.1445C163.639 66.8264 163.904 65.8931 163.904 65.8931C163.904 65.8931 164.208 64.5406 163.786 64.4494C163.537 64.3951 162.936 65.5035 162.535 66.6723C162.103 67.9324 161.875 69.2614 161.741 69.2479C161.427 69.2146 161.535 67.0212 161.535 67.0212C161.535 67.0212 161.82 66.0103 161.799 65.5381C162.078 64.9512 162.244 63.8699 161.725 63.7947C161.629 63.7812 160.983 65.1645 160.983 65.1645C160.983 65.1645 160.74 66.1335 160.596 66.5873C160.342 67.3874 160.334 68.6401 160.203 69.1961C160.095 69.6584 159.983 69.4723 159.934 69.4932C159.897 69.5093 159.947 68.8743 160 68.0014C160.027 67.5613 159.963 67.057 160.073 66.5552C160.175 66.0892 160.223 65.4259 160.242 65.0252C160.296 63.8909 159.582 64.0253 159.362 65.0671C159.277 65.4641 159.189 65.8968 159.102 66.3357C158.763 68.0421 158.816 69.6769 158.633 69.6954C158.394 69.7189 158.473 66.7389 158.473 66.7389C158.473 66.7389 158.062 65.1004 157.739 66.639C157.363 68.4243 157.445 69.8705 157.452 69.9334C157.502 70.3649 157.228 71.9221 157.633 73.4053Z" fill="#F8A492"/>
<path d="M158.123 79.9187C158.123 79.9187 163.599 78.4626 163.664 78.9016C165.076 88.5121 165.688 91.9865 165.887 92.0814C166.564 92.4057 175.205 84.1242 176.77 83.5373C177.519 83.2562 178.341 83.2784 179.129 83.2809C181.009 83.287 181.379 83.2846 181.379 83.2846C181.433 83.287 181.449 83.287 181.449 83.287L181.485 85.0439C179.419 86.9919 177.39 124.616 176.982 124.607C176.526 124.597 167.94 124.551 168.348 123.84C168.348 123.84 170.423 112.253 172.056 104.615C172.604 102.051 174.135 96.6913 174.135 96.6913C172.036 97.807 163.835 102.09 162.505 101.587C158.365 100.023 158.123 79.9187 158.123 79.9187Z" fill="#F47458"/>
<path d="M169.915 183.851C169.915 183.851 170.188 188.732 170.189 188.742C170.289 189.362 170.684 190.893 170.684 191.457C170.684 193.574 161.386 189.66 163.471 188.722C163.659 188.637 164.647 187.995 164.709 187.275C164.805 186.165 165.048 183.92 165.048 183.92L169.915 183.851Z" fill="#F7A491"/>
<path d="M163.494 188.702C163.494 188.702 165.677 189.35 166.794 189.511C167.912 189.673 169.386 188.31 170.176 188.678C171.047 189.083 171.361 192.772 170.959 193.073C170.556 193.374 157.944 193.427 156.02 193.083C154.67 192.841 159.032 190.21 163.494 188.702Z" fill="#184655"/>
<path d="M190.397 184.319C190.397 184.319 190.67 189.2 190.671 189.21C190.772 189.83 191.166 191.362 191.166 191.925C191.166 194.042 181.869 190.129 183.953 189.191C184.141 189.106 185.422 187.985 185.484 187.264C185.58 186.154 185.529 184.387 185.529 184.387L190.397 184.319Z" fill="#F7A491"/>
<path d="M183.976 189.17C183.976 189.17 186.16 189.817 187.277 189.978C188.395 190.14 189.869 188.778 190.659 189.145C191.529 189.551 191.564 193.198 191.564 193.198C191.564 193.198 179.197 193.709 176.157 193.174C175.102 192.989 179.514 190.679 183.976 189.17Z" fill="#184655"/>
<path d="M175.665 113.852L171.735 115.57L163.467 155.565L163.802 185.549L170.43 185.705C170.43 185.705 173.513 159.477 173.513 157.444C173.513 155.411 187.792 121.875 187.792 121.875L175.665 113.852Z" fill="#50BFA5"/>
<path d="M178.699 116.053C178.699 116.053 181.595 146.868 181.595 152.063C181.595 157.257 183.944 186.329 183.944 186.329L190.588 186.289C190.588 186.289 191.068 177.427 191.779 164.392C191.891 162.35 191.635 158.231 191.779 156.116C192.813 140.913 194.856 126.602 193.881 120.929C193.723 120.015 193.428 117.629 192.853 117.026C188.501 112.468 178.699 116.053 178.699 116.053Z" fill="#3C8F7C"/>
<path d="M174.346 102.798C175.288 98.1893 177.697 90.6266 178.402 88.9116C180.021 84.9737 181.385 83.3043 181.385 83.3043L187.798 83.493C187.798 83.493 187.946 83.5336 187.991 83.541C188.515 83.6236 188.53 102.194 188.249 109.138C187.966 116.081 186.416 125.117 186.416 125.117L184.586 124.945C184.557 125.882 184.536 126.498 184.536 126.498C175.258 128.126 170.078 123.576 170.078 123.576C170.078 123.576 173.124 108.774 174.346 102.798Z" fill="#466EB6"/>
<path d="M187.469 77.8746L187.799 83.493C187.799 83.493 183.841 90.7043 181.687 89.7697C179.879 88.9856 181.322 83.541 181.322 83.541C181.322 83.541 181.599 82.2946 181.99 80.8595C182.264 79.8571 182.485 78.7734 182.445 77.9831C182.349 76.0634 187.469 77.8746 187.469 77.8746Z" fill="#F7A491"/>
<path d="M182.444 77.9843C182.349 76.0634 187.469 77.8758 187.469 77.8758L187.501 78.4244C187.338 78.6846 187.156 78.9065 186.952 79.0791C185.618 80.2146 183.661 80.762 182.054 80.6203C182.297 79.6882 182.48 78.7117 182.444 77.9843Z" fill="#F47458"/>
<path d="M182.178 65.1805C182.178 65.1805 180.149 68.4021 180.061 71.0714C179.973 73.7407 180.59 75.5444 180.59 75.5444L187.156 67.3098L182.178 65.1805Z" fill="#184655"/>
<path d="M179.345 70.5437C179.275 71.4795 179.66 72.271 180.207 72.3117C180.754 72.3524 181.255 71.6274 181.325 70.6916C181.396 69.7558 181.01 68.9643 180.464 68.9236C179.917 68.8829 179.416 69.6091 179.345 70.5437Z" fill="#F48C7F"/>
<path d="M189.383 68.5426C189.538 68.5056 189.727 76.2631 187.515 78.1482C185.302 80.0321 181.37 80.296 180.173 78.4873C178.849 76.4863 179.842 68.2812 183.158 66.4578C186.476 64.633 189.383 68.5426 189.383 68.5426Z" fill="#F7A491"/>
<path d="M189.829 63.7182C191.595 65.178 192.46 66.2556 193.699 68.9014C195.221 72.1538 192.463 75.6368 190.109 77.0534C187.756 78.47 187.6 80.1135 187.6 80.1135L187.475 79.1062C187.418 78.7376 187.424 78.438 187.481 78.1766C187.548 77.8696 187.683 77.6144 187.8 77.3481C187.992 76.9104 188.606 75.4124 188.85 75.0142C189.495 73.9662 189.621 73.7393 189.264 72.7678C188.989 72.0207 189.24 70.3488 188.813 69.1159L185.579 68.5106C185.579 68.5106 183.555 68.0815 182.507 66.9423C179.5 63.6714 185.17 59.7889 189.829 63.7182Z" fill="#184655"/>
<path d="M188.521 73.637C188.148 74.4988 188.253 75.3717 188.757 75.5887C189.26 75.8045 189.972 75.2817 190.345 74.4199C190.718 73.5581 190.613 72.6852 190.109 72.4682C189.606 72.2525 188.894 72.7752 188.521 73.637Z" fill="#F7A491"/>
<path d="M197.274 50.3954C197.859 51.8182 198.72 54.1139 198.72 54.1139C199.516 55.3073 201.454 58.0173 202.626 59.8173L197.742 60.5361C197.742 60.5361 194.787 56.1087 194.415 55.9682C194.102 55.8498 194.056 56.3134 191.581 55.4602C190.867 55.2136 190.152 54.3703 190.152 54.3703C190.152 54.3703 190.061 54.2273 190.235 53.9462C190.408 53.6651 190.03 52.7232 190.258 52.8477C190.486 52.9722 190.785 53.4309 191.013 53.5554C191.241 53.6799 190.947 52.0167 191.179 51.8305C191.412 51.6444 190.502 49.954 192.878 48.1034C193.066 47.9567 193.84 46.6696 195.372 47.9518C195.708 48.2329 196.689 48.9726 197.274 50.3954Z" fill="#F8A492"/>
<path d="M187.799 83.493C187.799 83.493 194.14 83.0331 195.758 82.2539C196.74 81.7817 203.026 76.458 203.026 76.458L195.88 59.1726L201.703 57.3232C201.703 57.3232 213.384 76.2151 212.409 78.3604C211.402 80.5747 199.699 89.8893 197.414 93.8581C196.097 96.1439 197.347 127.186 196.919 127.473C193.871 129.153 181.062 130.641 181.26 129.664C186.765 102.694 187.799 83.493 187.799 83.493Z" fill="#F47458"/>
<path d="M168.365 45.1309L162.617 42.4555L160.774 47.9851L166.365 51.0538L168.365 45.1309Z" fill="#E3B25B"/>
<path d="M189.462 53.6171C189.462 53.6171 189.49 52.8675 190.321 51.8651C190.854 51.2215 191.514 50.3388 191.858 50.7345C192.203 51.1303 191.085 51.7332 191.479 51.7295C191.873 51.7258 194.238 49.9689 194.55 50.3277C194.862 50.6865 192.739 52.05 192.938 52.1474C193.138 52.2436 194.814 50.3671 195.139 50.806C195.471 51.2548 193.16 52.9082 193.212 53.0228C193.3 53.2152 195.002 51.9144 195.358 52.3225C195.714 52.7306 193.215 53.8822 193.423 53.8797C193.63 53.8772 194.979 53.6898 194.989 53.9845C195 54.3174 192.062 55.0423 191.593 55.6329C191.124 56.2247 184.7 61.779 183.237 61.4942C181.774 61.2094 175.613 56.0052 175.423 54.474C175.232 52.9427 176.126 51.1426 177.123 51.1315C178.12 51.1217 183.847 56.597 184.159 56.5933C184.474 56.5909 189.462 53.6171 189.462 53.6171Z" fill="#F48C7F"/>
<path d="M158.341 80.4773C158.765 81.1665 160.431 82.2182 160.431 82.2182C159.467 84.2389 156.059 88.7341 156.059 88.7341C156.059 88.7341 155.447 88.1645 155.584 87.5357C155.719 86.9069 156.328 84.0194 155.632 82.8876C155.451 82.593 153.451 79.2875 151.938 76.3014C152.993 75.6652 155.508 76.2398 156.464 75.4803C157.385 77.0498 158.201 80.2492 158.341 80.4773Z" fill="#F7A491"/>
<path d="M159.059 81.2256C159.059 81.2256 156.55 85.0205 156.05 85.4458C155.644 85.7923 154.904 89.9867 155.538 90.052C156.172 90.1173 161.466 83.9688 161.532 83.165C161.599 82.3611 159.059 81.2256 159.059 81.2256Z" fill="#184655"/>
<path d="M152.087 86.3632C152.12 87.1486 153.091 88.8598 153.091 88.8598C151.204 90.0459 145.869 92.0494 145.869 92.0494C145.869 92.0494 145.606 91.269 146.045 90.8177C146.484 90.3652 148.902 87.4568 148.846 86.1684C148.831 85.833 148.736 83.3401 148.382 81.8372C149.653 81.8421 150.962 81.6498 152.206 81.5031C152.247 83.2673 152.076 86.103 152.087 86.3632Z" fill="#F7A491"/>
<path d="M160.108 62.4878C160.108 62.4878 149.728 67.814 148.447 69.0666C147.492 70.0024 147.528 82.6841 147.528 82.6841C147.528 82.6841 151.052 83.4929 152.926 82.5584C152.926 82.5584 153.634 73.9379 154.126 73.6925C154.618 73.4472 165.325 71.0319 165.325 71.0319L165.698 65.9079L160.108 62.4878Z" fill="#B75742"/>
<path d="M170.287 60.1132C170.287 60.1132 165.828 63.288 163.907 63.7047C162.437 64.0228 150.516 65.9301 150.057 69.2639C149.797 71.1552 152.556 79.1975 152.556 79.1975L157.724 77.2939C157.724 77.2939 156.278 73.494 156.537 73.0761C156.796 72.6593 166.443 74.2239 169.33 72.8356C172.218 71.4474 172.75 64.9906 172.75 64.9906L170.287 60.1132Z" fill="#F47458"/>
<path d="M171.752 46.8853C171.752 46.8853 169.207 45.7695 168.364 45.1309C167.521 44.4922 161.031 60.2094 157.724 63.3225C162.362 66.9633 171.799 71.1194 171.799 71.1194C171.799 71.1194 173.594 67.7536 174.036 63.9994C174.503 60.0232 174.834 57.6979 175.26 56.343L178.732 59.4314L182.243 54.014C182.243 54.014 177.761 49.578 175.954 48.5818C175.452 48.3056 171.752 46.8853 171.752 46.8853Z" fill="#F7CC7F"/>
<path d="M152.325 87.2607C152.325 87.2607 147.906 89.3135 147.189 89.4208C146.606 89.5083 144.273 92.836 144.854 93.2404C145.434 93.6448 153.255 91.0507 153.757 90.3677C154.259 89.6859 152.325 87.2607 152.325 87.2607Z" fill="#184655"/>
<path d="M171.065 43.9412C171.065 43.9412 170.245 46.8558 169.888 47.0432C169.53 47.2293 169.008 47.561 169.193 48.3747C169.377 49.1884 171.257 49.2895 172.192 49.1465C173.089 49.0097 173.814 48.4623 173.814 48.4623L174.844 43.7624L171.065 43.9412Z" fill="#F7A491"/>
<path d="M171.848 45.497C172.468 45.4761 173.564 45.4033 174.699 44.4195L174.843 43.7611L171.064 43.9411C171.064 43.9411 170.865 44.6525 170.619 45.3947C171.101 45.5229 171.551 45.5069 171.848 45.497Z" fill="#F47458"/>
<path d="M176.468 40.6801C176.468 40.6801 177.083 39.0083 178.029 39.6629C178.974 40.3176 177.371 42.633 176.527 42.2779C175.684 41.9253 176.468 40.6801 176.468 40.6801Z" fill="#F7A491"/>
<path d="M174.913 34.1111C174.913 34.1111 173.284 33.5649 172.046 34.5747C170.809 35.5832 168.759 38.9269 169.36 41.8587C169.96 44.7918 171.922 44.724 172.731 44.6969C173.54 44.6698 175.157 44.5551 176.62 42.4419C178.083 40.3287 179.205 34.9063 174.913 34.1111Z" fill="#F7A491"/>
<path d="M172.851 41.929L170.783 41.1683C170.783 41.1683 170.54 41.9673 171.44 42.3273C172.537 42.7674 172.851 41.929 172.851 41.929Z" fill="white"/>
<path d="M194.597 55.7462C193.355 56.2221 191.322 55.4676 190.42 54.9744C190.335 54.6243 191.555 54.3592 192.373 54.5121C193.191 54.665 194.275 53.7156 195.673 54.432C196.493 55.2666 194.597 55.7462 194.597 55.7462Z" fill="#F8A492"/>
<path d="M193.431 49.9381C195.406 51.3719 193.994 51.3695 192.209 50.9281C193.206 51.3917 193.16 51.6999 192.913 51.9095C192.615 52.1635 190.566 51.8885 190.251 51.4656C189.96 51.0736 190.995 49.7494 191.405 49.4202C191.645 49.2119 191.924 48.9813 192.191 48.699C192.945 47.9038 193.106 47.7866 193.395 47.5857C193.942 47.2047 194.412 47.5388 195.124 47.9753C196.018 48.6768 195.703 49.2723 194.357 48.8395C194.49 48.9369 195.522 49.5127 195.308 50.0589C195.16 50.4374 194.589 50.2808 193.431 49.9381Z" fill="#F7A491"/>
<path d="M166.429 70.7064C165.736 70.9406 165.141 72.4312 165.067 72.3498C165.067 72.3498 162.152 73.5791 160.357 75.4038C160.292 75.5665 160.188 75.9993 160.08 76.1879L162.679 76.7945C164.08 75.7835 165.535 74.0439 165.714 73.6469C165.827 73.3966 166.155 72.7333 166.331 72.3794C166.507 72.0256 166.882 71.2439 167.025 71.0947C167.239 70.8728 167.034 70.5017 166.429 70.7064Z" fill="#F7A491"/>
<path d="M68.1238 69.1887C68.3457 73.2142 74.1394 74.4446 78.1018 73.3633C80.6769 72.6593 81.7729 72.0466 81.3749 69.254C80.7302 64.7231 78.1279 62.6259 75.2738 62.2906C71.5928 61.859 67.9403 65.8672 68.1238 69.1887Z" fill="#184655"/>
<path d="M75.0273 128.806L78.1566 156.529C78.1566 156.529 76.6267 162.392 76.8114 164.058C76.9962 165.723 80.2135 187.572 80.2135 187.572L80.0783 188.797L80.0746 192.416H92.0177C92.0177 192.416 89.4835 191.29 85.9377 189.066C85.6761 188.902 85.0711 188.377 84.9248 187.331C83.9775 180.597 85.8509 158.135 85.8509 158.135L87.3263 128.895L75.0273 128.806Z" fill="#F7A491"/>
<path d="M65.4301 134.638C64.7557 134.807 63.7179 158.644 63.1588 159.701C59.6179 166.399 58.776 186.762 58.776 186.762L57.7197 189.726C58.9335 190.748 60.2998 190.742 61.8297 189.63L61.6413 186.424L70.5753 161.053L75.4639 135.175L65.4301 134.638Z" fill="#F7A491"/>
<path d="M83.1967 88.4628C81.756 86.5111 75.8099 80.8557 75.1491 80.8668C73.2236 80.9001 66.9031 80.9026 65.667 81.5252L65.7265 92.291C65.9274 93.1947 70.2915 107.271 70.0386 110.352L70.0683 110.38C73.7258 113.881 79.4934 113.606 82.8384 109.771C82.8384 109.771 82.8235 105.502 83.3393 101.606C84.1451 95.5052 86.7773 93.3131 83.1967 88.4628Z" fill="#F7CC7F"/>
<path d="M88.441 146.84L88.8662 130.393C88.9394 125.745 87.9847 121.137 86.068 116.905L82.8395 109.772C81.534 110.184 80.3029 110.534 78.9304 110.687C75.9449 111.019 73.0091 110.69 70.0397 110.352C70.031 110.464 70.0174 110.56 69.9988 110.643C69.4595 113.066 66.4591 118.464 65.1945 125.846C63.7601 134.224 63.3844 145.839 63.5642 146.823C71.8746 148.75 80.3934 148.814 88.441 146.84Z" fill="#E25A44"/>
<path d="M73.2119 74.8059C73.2119 74.8059 73.378 78.7783 73.0185 80.2837C72.6589 81.7891 72.1791 81.9038 75.2687 82.3612C76.4825 82.5412 77.6529 82.8099 77.6529 82.8099C77.6529 82.8099 77.3355 80.5981 77.2884 79.6648C77.209 78.1273 77.6454 73.3794 77.6454 73.3794L73.2119 74.8059Z" fill="#F7A491"/>
<path d="M75.5659 76.7822C76.2019 77.1225 76.7957 77.3235 77.3437 77.4073C77.4491 75.5321 77.6463 73.3794 77.6463 73.3794L73.416 74.7393C73.9082 75.553 74.605 76.2681 75.5659 76.7822Z" fill="#F47458"/>
<path d="M61.8283 189.615C60.1968 190.335 58.4412 189.901 57.7357 189.671L57.5014 190.298L56.6025 193.269C56.6025 193.269 60.1819 194.149 62.0366 193.135L61.8283 189.615Z" fill="#E25A44"/>
<path d="M79.95 193.315H92.3655C92.8242 193.274 92.937 192.902 92.7771 192.672C92.4498 192.2 91.0004 191.832 89.3725 191.079C86.5173 191.378 80.5253 189.447 80.0752 188.79C79.8148 190.105 79.6946 193.259 79.95 193.315Z" fill="#E25A44"/>
<path d="M82.4118 93.5991C82.4118 93.5991 84.5121 97.7479 84.8468 98.1757C84.8468 98.1757 94.045 96.15 97.9244 94.943C97.9702 94.922 98.0149 94.9023 98.0607 94.8801C98.1364 94.8431 98.2393 94.8296 98.2579 94.726C98.3422 94.26 98.7712 92.6929 98.9832 92.0272C99.0414 91.8435 99.1394 91.6758 99.2696 91.534C99.5584 91.2184 100.847 89.1237 100.847 89.1237C100.847 89.1237 101.288 89.2889 101.288 89.9756C101.288 90.6623 100.316 91.9692 100.581 91.9791H100.586C100.857 91.9889 101.116 91.9076 101.382 91.8237C101.729 91.714 102.131 91.7029 102.498 91.7436C102.858 91.7831 103.084 92.0444 103.113 92.4291C103.13 92.6658 103.086 92.9272 103.172 93.1331C103.324 93.4894 103.544 96.7628 102.982 97.0821C102.7 97.2424 101.185 97.5198 100.58 97.5296C100.141 97.537 99.7147 97.6455 99.3576 97.8145C99.2782 97.8514 99.1964 97.8823 99.1133 97.9082V97.9094C96.3436 99.0239 87.0983 102.932 87.0983 102.932C87.0983 102.932 82.5656 104.54 81.9035 103.967C81.2415 103.392 77.2803 95.6593 77.2803 95.6593L82.4118 93.5991Z" fill="#F7A491"/>
<path d="M72.4427 86.1227C71.5488 89.7709 76.3171 97.9057 76.3171 97.9057C76.3171 97.9057 83.1113 94.7285 84.3052 93.3599C84.3052 93.3599 79.6894 85.4668 79.3869 84.986C78.0169 82.8136 76.1584 82.8112 74.9459 82.9529C73.9726 83.0664 72.4427 86.1227 72.4427 86.1227Z" fill="#EDA258"/>
<path d="M74.0582 88.0227C76.8664 84.7949 77.1974 78.5083 74.5839 75.1634C75.7679 73.0835 76.7461 73.2857 76.0878 71.0011C74.7885 66.4948 79.9014 62.8035 74.9038 62.2647C69.8912 61.9873 67.2095 65.5368 65.4043 68.8003C64.591 70.2712 63.5062 71.5966 62.1362 72.6137C59.4222 74.6308 58.4205 78.6895 60.5579 82.4696C58.3882 84.1144 56.8744 88.1965 58.8866 91.121C59.3689 91.8225 60.2529 92.5993 60.3075 92.8126C60.2244 92.5524 59.0801 99.8747 67.4562 101.124C76.0035 102.401 76.5713 94.3636 74.0582 88.0227Z" fill="#184655"/>
<path d="M73.2922 65.2705C73.2922 65.2705 71.7388 66.3666 71.3433 68.3737C70.9478 70.3809 73.0889 75.7823 77.4778 76.4579C81.8668 77.1324 82.3689 72.4547 81.1601 69.4772C79.9525 66.4972 77.6241 62.8256 73.2922 65.2705Z" fill="#F7A491"/>
<path d="M71.2336 72.0515C70.222 69.1739 70.1302 66.8979 72.0966 65.5121C74.0641 64.1276 75.7242 62.796 77.9026 64.4728L78.3663 64.6516C78.3663 64.6516 74.9233 66.1421 74.994 68.0569C75.0647 69.9716 73.4814 72.4842 73.9079 73.3695C74.3344 74.2547 74.9382 76.0535 74.9382 76.0535L74.0617 75.5258C74.0617 75.5271 72.2453 74.9291 71.2336 72.0515Z" fill="#184655"/>
<path d="M74.4925 70.8051C75.0194 71.5103 75.0442 72.3684 74.5483 72.7235C74.0523 73.0786 73.2229 72.795 72.6972 72.0898C72.1703 71.3846 72.1455 70.5264 72.6414 70.1714C73.1373 69.8175 73.9655 70.1011 74.4925 70.8051Z" fill="#F7A491"/>
<path d="M116.08 142.329C114.873 142.848 110.965 141.034 109.044 140.055C106.868 138.946 105.523 138.245 102.859 136.857C101.295 136.042 98.8902 135.373 98.4154 136.231C98.1662 138.117 100.888 139.861 102.579 139.515C103.574 139.825 107.23 142.531 108.088 143.163C109.854 144.464 111.776 145.517 114.201 147.406C116.626 149.296 119.13 150.359 120.344 149.666C121.558 148.973 120.613 145.266 119.827 144.098C119.041 142.93 116.08 142.329 116.08 142.329Z" fill="#E3B25B"/>
<path d="M129.327 168.349C129.657 172.409 126.042 175.69 125.903 179.676C125.772 183.474 131.828 185.568 128.954 190.087C128.164 191.135 125.421 191.614 123.182 191.614C120.943 191.614 120.965 193.623 120.965 193.623H128.91C134.133 192.183 135.078 189.83 135.626 188.778C136.524 187.049 148.822 174.462 132.866 184.128C128.969 186.489 138.331 179.087 138.594 176.468C137.82 173.282 128.886 162.918 129.327 168.349Z" fill="#E3B25B"/>
<path d="M131.17 124.22C129.884 123.566 128.076 123.63 126.429 122.582C124.783 121.534 123.861 120.029 123.005 120.029C122.149 120.029 119.527 121.543 121.174 125.012C121.174 125.012 123.715 129.876 123.005 132.731C122.625 134.256 120.7 136.987 117.671 139.868C114.642 142.749 112.667 150.54 114.708 155.124C116.749 159.708 122.806 162.392 125.967 165.141C129.127 167.891 130.115 172.736 130.115 172.736C128.798 177.319 127.218 182.427 131.563 186.092C135.909 189.759 135.712 190.872 135.712 190.872C132.88 191.592 132.024 191.462 129.786 191.462C127.547 191.462 127.613 193.623 127.613 193.623H132.6C133.768 193.623 134.929 193.444 136.043 193.094C140.321 191.75 140.862 191.797 140.98 190.742C141.111 189.563 136.7 187.336 139.926 184.128C143.152 180.92 145.391 179.087 145.654 176.468C152.435 179.741 162.113 180.593 168.829 176.14C169.685 175.485 166.065 176.533 161.126 176.991C156.188 177.449 150.131 175.943 147.497 171.949C145.504 168.926 146.181 166.253 142.032 160.36C137.884 154.468 134.922 152.7 134.329 148.313C133.737 143.927 133.275 143.207 133.802 136.855C134.329 130.504 134.782 130.151 133.934 127.623C133.541 126.445 132.306 124.795 131.17 124.22Z" fill="#F7CC7F"/>
<path d="M128.305 125.442C128.383 125.72 128.362 125.969 128.082 126.047C127.802 126.125 127.512 125.962 127.434 125.682C127.355 125.403 127.519 125.115 127.801 125.037C128.079 124.96 128.2 125.063 128.305 125.442Z" fill="#854D36"/>
<path d="M113.885 151.15C113.911 151.903 113.994 152.636 114.141 153.33C116.658 155.183 120.024 155.652 120.438 154.993C117.976 151.896 114.965 151.146 113.885 151.15Z" fill="#E3B25B"/>
<path d="M131.434 134.957C131.829 135.645 134.628 134.793 134.924 134.564C135.22 134.335 134.43 130.504 133.87 129.162C133.311 127.82 132.553 128.213 132.553 128.213C133.182 129.85 131.038 134.27 131.434 134.957Z" fill="#E3B25B"/>
<path d="M123.713 120.31C123.517 120.814 123.237 120.929 122.958 120.684C122.679 120.438 122.365 120.31 122.365 120.31C122.284 120.16 122.678 119.932 123.008 119.932C123.337 119.932 123.765 120.189 123.713 120.31Z" fill="#BF6F4E"/>
<path d="M116.676 147.024C115.357 147.591 111.086 145.61 108.987 144.539C106.609 143.327 105.139 142.562 102.226 141.044C100.518 140.154 97.8895 139.422 97.3701 140.36C97.0973 142.422 100.072 144.327 101.92 143.949C103.009 144.288 107.005 147.244 107.942 147.936C109.871 149.359 111.971 150.508 114.623 152.573C117.274 154.638 120.01 155.8 121.338 155.043C122.666 154.286 121.632 150.233 120.773 148.957C119.914 147.681 116.676 147.024 116.676 147.024Z" fill="#F7CC7F"/>
</svg>
