<svg width="100" height="100" viewBox="0 0 100 100" fill="none" xmlns="http://www.w3.org/2000/svg">
<rect width="100" height="100" rx="16" fill="#F3EBFF"/>
<path d="M63.7369 25.6314C63.4088 25.9704 63.3541 26.1454 62.8072 28.7595C62.1729 31.811 62.1729 32.0517 62.7963 32.5001C63.1682 32.7626 63.9557 32.7954 64.3057 32.5439C64.7104 32.2595 64.8307 31.8985 65.4104 29.1314C65.9244 26.6923 65.9572 26.4517 65.815 26.1235C65.5963 25.5767 65.1588 25.2814 64.5791 25.2814C64.1744 25.2814 64.0322 25.336 63.7369 25.6314Z" fill="#8833FF"/>
<path d="M50.3172 28.0049C50.175 28.1143 49.65 28.8689 49.1469 29.6783C46.9484 33.2111 44.9797 35.6721 41.7422 38.9096C39.3797 41.2721 37.1812 43.1643 34.8953 44.7721C34.3594 45.1439 33.9219 45.4939 33.9219 45.5377C33.9219 45.5924 39.4453 55.2064 42.9125 61.1783L43.3281 61.9111L44.1812 61.5283C50.7109 58.5096 57.5469 56.858 64.6234 56.5846C66.9422 56.4971 67.0406 56.4643 67.2812 55.7314C67.3906 55.4143 67.3797 55.2939 67.1937 54.9439C66.3078 53.2486 51.7828 28.2346 51.575 28.0377C51.2359 27.7424 50.6781 27.7205 50.3172 28.0049Z" fill="#8833FF"/>
<path d="M71.3936 33.7908C69.4358 34.9392 68.9546 35.2564 68.7905 35.5736C68.4624 36.1751 68.6593 36.897 69.2608 37.247C69.9061 37.6298 70.2343 37.5095 72.8046 36.022C74.9483 34.7861 75.2327 34.5892 75.4186 34.2173C75.5936 33.8564 75.6046 33.7251 75.4952 33.3751C75.3202 32.7845 74.8171 32.3908 74.2483 32.3908C73.8655 32.4017 73.3952 32.6314 71.3936 33.7908Z" fill="#8833FF"/>
<path d="M59.8643 36.2297C59.6675 36.2844 59.5253 36.3719 59.5471 36.4157C59.58 36.4594 60.5971 38.2094 61.8112 40.3204C63.0253 42.4204 64.0315 44.1704 64.0643 44.1922C64.1846 44.3125 64.819 43.5141 65.18 42.7922C65.5737 41.9938 65.5846 41.9391 65.5846 40.7688C65.5846 39.6313 65.5628 39.511 65.2456 38.8329C64.644 37.5641 63.6925 36.7329 62.38 36.3282C61.6362 36.0985 60.4878 36.0547 59.8643 36.2297Z" fill="#8833FF"/>
<path d="M70.2886 42.825C69.4465 43.1969 69.2715 44.3672 69.9715 44.9906C70.2449 45.2313 75.123 46.8281 75.5824 46.8281C76.6543 46.8281 77.2449 45.7344 76.6652 44.8484C76.4246 44.4984 76.2496 44.4219 73.734 43.5797C72.2574 43.0875 70.9558 42.6828 70.8355 42.6828C70.7152 42.6828 70.4636 42.7484 70.2886 42.825Z" fill="#8833FF"/>
<path d="M28.8354 48.5017C26.4073 49.9017 26.0026 50.1642 25.2151 50.9408C24.4932 51.6517 24.2307 52.0017 23.8807 52.7455C23.0276 54.5064 22.8854 56.3986 23.4651 58.1158C23.7495 58.9798 26.0135 63.0267 26.8557 64.1861C27.4463 65.0064 28.3541 65.7392 29.4041 66.2533C30.5088 66.7892 31.537 66.9861 32.8823 66.9205C34.5995 66.833 34.8401 66.7236 40.0901 63.683C40.5713 63.4095 40.9432 63.1251 40.9323 63.0705C40.8995 62.8955 31.6901 46.9376 31.6245 46.9376C31.5916 46.9376 30.3338 47.6376 28.8354 48.5017Z" fill="#8833FF"/>
<path d="M41.2487 66.0454C39.7175 66.9204 38.4378 67.6642 38.405 67.686C38.3284 67.7517 45.0003 74.3907 45.3175 74.5657C45.7003 74.7626 46.4221 74.7626 46.805 74.5657C47.2425 74.3251 49.6378 71.8642 49.769 71.5142C49.9331 71.0767 49.9112 70.6063 49.7143 70.2017C49.5612 69.8845 44.2456 64.4376 44.0925 64.4376C44.0596 64.4376 42.78 65.1595 41.2487 66.0454Z" fill="#8833FF"/>
</svg>
