<svg width="44" height="44" viewBox="0 0 44 44" fill="none" xmlns="http://www.w3.org/2000/svg">
<g clip-path="url(#clip0_2018_6057)">
<path d="M27.457 2.26876C27.3195 2.32891 27.0875 2.4836 26.9586 2.61251C26.4945 3.04219 26.4688 3.22266 26.4688 5.7836V8.13829L26.907 8.33594C27.7836 8.74844 28.3078 9.60782 28.3078 10.6133C28.3078 11.3867 28.1617 11.7047 27.2078 12.9852L26.4688 13.9906V16.5344V19.0781H28.5227H30.568L30.6109 18.6914C30.6797 18.1328 31.0062 17.6859 31.5477 17.4109C32.0633 17.1617 32.5188 17.1273 32.9656 17.3164C33.3523 17.4797 38.1047 21.1664 38.3195 21.4758C38.6719 21.9742 38.732 22.7477 38.4484 23.2891C38.3883 23.4094 38.1906 23.6414 38.0102 23.8133C37.4945 24.2945 33.4211 27.4313 33.0945 27.6031C32.4758 27.9211 31.5305 27.7406 31.0492 27.225C30.8172 26.9758 30.5938 26.4602 30.5938 26.168V25.9531H28.5312H26.4688L26.4859 33.3695L26.5117 40.7859L26.718 41.0953C26.8297 41.2586 27.0617 41.4906 27.225 41.6023L27.5344 41.8086L35.1227 41.8344C42.4617 41.8516 42.7195 41.8516 43.0375 41.6883C43.4414 41.482 43.6992 41.207 43.8711 40.8031C43.9828 40.5195 44 38.4914 44 22C44 5.5086 43.9828 3.48047 43.8711 3.19688C43.6992 2.79297 43.4414 2.51797 43.0375 2.31173C42.7281 2.15704 42.4273 2.14844 35.2172 2.14844C29.1672 2.15704 27.6633 2.17422 27.457 2.26876Z" fill="#3CC6D0"/>
<path d="M16.7149 3.12812C14.8672 3.575 13.6727 5.3539 13.9821 7.18437C14.3258 9.15234 16.1906 10.5016 18.1071 10.1492C20.9344 9.63359 22.0688 6.24765 20.1094 4.17656C19.2071 3.22265 17.9438 2.82734 16.7149 3.12812Z" fill="#3CC6D0"/>
<path d="M25.1367 9.12656C24.7758 9.32422 24.5094 9.64219 22.9367 11.7477C22.043 12.9422 21.2867 13.9219 21.2438 13.9219C21.1406 13.9219 18.6227 13.0625 18.5625 13.0109C18.5367 12.9852 18.8031 12.9937 19.1469 13.0281L19.7828 13.0883L19.6023 12.7445C19.4047 12.3492 18.932 11.9109 18.5281 11.7391C18.3648 11.6703 17.05 11.4555 15.5977 11.2578C11.9281 10.7508 12.375 10.6391 8.25001 13.0625C5.22501 14.8328 5.28516 14.7984 5.07032 15.2109C4.84688 15.6492 4.84688 15.8125 5.14766 20.1695C5.41407 24.0023 5.44844 24.1828 5.90391 24.5953C6.58282 25.2055 7.74298 25.0938 8.30157 24.3633C8.49922 24.0969 8.55079 23.9336 8.57657 23.4695C8.60235 22.9711 8.31876 18.0039 8.20704 17.1875L8.17266 16.8867L9.2211 16.268C9.79688 15.9242 10.2781 15.6578 10.2953 15.675C10.3125 15.6922 10.0461 17.557 9.71094 19.8172C9.18672 23.3922 9.07501 24.3375 8.88594 27.0273C8.76563 28.7289 8.66251 30.1297 8.65391 30.1383C8.64532 30.1469 7.02969 30.4219 5.07032 30.757C1.04844 31.4445 0.799226 31.5133 0.352351 32.2008C-0.438274 33.3953 0.292195 35.0453 1.68438 35.2C2.0711 35.243 3.92735 34.9508 10.1406 33.8594C11.2492 33.6703 11.4211 33.6016 11.8508 33.2148C12.3836 32.725 12.4352 32.4844 12.6328 29.5195C12.7273 28.05 12.8219 26.6578 12.8563 26.4172L12.8992 25.9789L14.0164 26.168C14.6352 26.2711 15.168 26.3914 15.2023 26.4344C15.2367 26.4773 15.7609 27.5516 16.3539 28.832L17.4367 31.1523L17.918 35.707C18.193 38.3969 18.4422 40.4078 18.5195 40.6141C18.7859 41.3273 19.5422 41.8516 20.3242 41.8516C21.3641 41.8516 22.2492 40.9836 22.2578 39.9609C22.2578 39.7461 22.0258 37.4258 21.7508 34.8047L21.2438 30.0352L19.843 27.0703L18.4508 24.1055L18.8633 21.0977C19.0867 19.4391 19.293 17.9094 19.3188 17.6859L19.3531 17.2906L18.3648 16.7062C17.8148 16.3883 17.3766 16.1133 17.3852 16.1047C17.3938 16.0875 18.3133 16.3969 19.4219 16.7836C21.6992 17.5742 22.1375 17.6344 22.7047 17.2906C22.9281 17.1531 23.6758 16.2164 25.0938 14.3086C26.2367 12.7789 27.225 11.4039 27.3023 11.2578C27.3883 11.0687 27.4227 10.8281 27.3969 10.4758C27.3539 9.9 27.0703 9.46172 26.5547 9.18672C26.2195 9.00625 25.4117 8.97187 25.1367 9.12656Z" fill="#3CC6D0"/>
<path d="M32.0118 18.3219C31.6938 18.5023 31.6337 18.6742 31.6251 19.3961V20.1094H28.4024H25.1712L24.9649 20.3156C24.6813 20.5992 24.647 20.8656 24.6813 22.7477L24.7071 24.4062L24.9477 24.6383L25.1798 24.8789L28.4024 24.9047L31.6251 24.9305V25.618C31.6251 26.2367 31.6509 26.3227 31.8399 26.5117C32.2868 26.9672 32.3985 26.907 35.0282 24.8531C36.3602 23.8219 37.4688 22.8852 37.529 22.7648C37.7524 22.3008 37.5892 22.1117 35.5954 20.5648C32.2696 17.9781 32.4329 18.0813 32.0118 18.3219Z" fill="#3CC6D0"/>
</g>
<defs>
<clipPath id="clip0_2018_6057">
<rect width="44" height="44" fill="white"/>
</clipPath>
</defs>
</svg>
