<svg width="44" height="44" viewBox="0 0 44 44" fill="none" xmlns="http://www.w3.org/2000/svg">
<path d="M11.9623 0.0945301C9.53025 0.403906 7.14119 1.64141 5.45682 3.46328C2.62947 6.50547 1.78729 10.7164 3.23963 14.6094C4.31385 17.4883 6.53963 20.5734 9.62478 23.4352C10.6646 24.3977 12.392 25.85 13.1138 26.3656L13.3888 26.5547L14.1881 25.9359C19.0263 22.2492 22.6615 17.6687 23.7615 13.8617C25.042 9.47891 23.5037 4.90703 19.817 2.13125C19.0178 1.52969 17.3162 0.678905 16.4138 0.429688C15.0045 0.0429688 13.3373 -0.0859375 11.9623 0.0945301ZM14.0076 5.50859C15.5201 5.74922 16.8349 6.92656 17.2303 8.37031C17.342 8.77422 17.3678 9.13516 17.342 9.73672C17.3162 10.4672 17.2732 10.6133 16.981 11.2062C16.5857 12.0141 15.9154 12.7016 15.2107 13.0367L14.7123 13.2773L14.6779 13.707L14.6521 14.1367L13.3888 14.1625L12.117 14.1883V12.5469V10.9141H12.8818C13.3029 10.9141 13.7584 10.8711 13.8959 10.8195C14.9701 10.4156 15.1248 8.85156 14.1537 8.26719C13.7584 8.02656 13.3803 7.96641 12.9763 8.08672C12.5467 8.21562 12.0654 8.73125 11.9795 9.14375L11.9279 9.45312H10.6474H9.36697V9.16953C9.36697 8.79141 9.55603 8.1125 9.79666 7.64844C10.4498 6.35938 11.7388 5.53437 13.2771 5.43125C13.3717 5.42266 13.6982 5.45703 14.0076 5.50859ZM14.6951 17.4453V18.7344H13.406H12.117V17.4453V16.1562H13.406H14.6951V17.4453Z" fill="#F55858"/>
<path d="M27.7575 18.0211C27.1645 18.1242 26.2278 18.425 25.7122 18.6828C23.7442 19.6711 22.1114 21.7336 21.6044 23.8648C21.4497 24.4922 21.4067 25.7898 21.5098 26.3141L21.5786 26.6406H28.6684C35.3372 26.6406 35.7583 26.632 35.8184 26.4859C35.9387 26.1852 35.87 24.2945 35.7153 23.7188C35.509 22.9625 34.9762 21.8453 34.5122 21.2008C34.0051 20.4875 32.8106 19.3445 32.1747 18.975C30.8083 18.1758 29.0723 17.7977 27.7575 18.0211Z" fill="#F55858"/>
<path d="M8.16406 36.6094V44H9.45312H10.7422V37.8984V31.7969H16.1906H21.6305L21.5102 32.3297C21.2695 33.3609 21.5961 34.3148 22.4727 35.1398C23.375 35.982 24.5352 36.4891 26.3398 36.8242L27.3711 37.0133L27.3969 38.4828L27.4141 39.9609H24.8789H22.3438V41.9805V44H23.6328H24.9219V43.2695V42.5391H28.6602H32.3984V43.2695V44H33.6875H34.9766V41.9805V39.9609H32.4844H29.9922V38.4742V36.9875L30.7227 36.8844C32.8281 36.575 34.6758 35.6641 35.3977 34.5813C35.8961 33.825 36.0336 32.8797 35.7844 31.9859L35.7328 31.7969H37.3313H38.9297V37.8984V44H40.2188H41.5078V36.6094V29.2188H24.8359H8.16406V36.6094Z" fill="#F55858"/>
</svg>
