<svg width="44" height="44" viewBox="0 0 44 44" fill="none" xmlns="http://www.w3.org/2000/svg">
<path d="M11.9453 7.39064C9.94291 7.63986 8.06088 8.75704 6.90932 10.3727C5.44838 12.4094 5.12182 15.0219 6.02416 17.3594C6.72025 19.1727 8.40463 20.8313 10.2523 21.5274C11.5671 22.0172 13.2687 22.1203 14.6093 21.7766C15.9328 21.4414 17.2992 20.6164 18.2359 19.5938C21.2781 16.2594 20.6078 11 16.8265 8.53361C15.4085 7.60548 13.5953 7.18439 11.9453 7.39064Z" fill="#50E87B"/>
<path d="M28.4453 7.39064C26.4429 7.63986 24.5609 8.75704 23.4093 10.3727C21.9484 12.4094 21.6218 15.0219 22.5242 17.3594C23.2203 19.1727 24.9046 20.8313 26.7523 21.5274C28.0671 22.0172 29.7687 22.1203 31.1093 21.7766C32.4328 21.4414 33.7992 20.6164 34.7359 19.5938C37.7781 16.2594 37.1078 11 33.3265 8.53361C31.9085 7.60548 30.0953 7.18439 28.4453 7.39064Z" fill="#50E87B"/>
<path d="M10.8969 23.8992C6.13596 24.4492 2.43206 28.1961 1.89925 33.0258C1.77893 34.1 1.77893 34.8047 1.90784 35.3031C2.04534 35.8531 2.6469 36.4547 3.1969 36.5922C3.4805 36.6695 5.00159 36.6953 8.37893 36.6953C12.8907 36.6953 13.1571 36.6867 13.1141 36.5406C12.8305 35.5695 12.7789 34.8906 12.8907 33.6703C13.1914 30.3016 14.5578 27.1906 16.7492 24.9047C16.9555 24.6812 17.1188 24.475 17.093 24.4578C16.9899 24.3461 15.3485 23.9766 14.6524 23.8906C13.7414 23.7875 11.8336 23.7961 10.8969 23.8992Z" fill="#50E87B"/>
<path d="M26.5977 23.8562C23.3664 24.2 20.582 25.7555 18.6828 28.2734C17.3766 30.0008 16.5 32.5531 16.5 34.6414C16.5 35.4234 16.8094 36.025 17.4023 36.3945L17.8148 36.6523L29.1242 36.6781C41.9031 36.7039 41.0523 36.7469 41.6625 36.0508C42.1438 35.5008 42.2383 35.0711 42.118 33.8852C41.9031 31.7539 41.2242 29.9578 40.0125 28.3164C38.3883 26.125 36.0938 24.6469 33.3609 24.0539C32.6219 23.8906 32.2008 23.8734 29.7344 23.8477C28.1961 23.8391 26.7867 23.8391 26.5977 23.8562Z" fill="#50E87B"/>
</svg>
