<svg width="44" height="30" viewBox="0 0 44 30" fill="none" xmlns="http://www.w3.org/2000/svg">
<path d="M20.7539 0.768768C18.2188 1.2758 16.2508 3.09767 15.5375 5.60705C15.2883 6.48361 15.2711 8.14221 15.5032 8.98439C16.1907 11.5024 18.1672 13.3758 20.6594 13.8914C21.6477 14.0977 22.3524 14.0977 23.3407 13.8914C25.8328 13.3758 27.8094 11.4938 28.4969 8.98439C28.7289 8.13361 28.7117 6.48361 28.4625 5.59846C27.8094 3.30392 26.0563 1.54221 23.7875 0.906268C22.9711 0.674236 21.5617 0.61408 20.7539 0.768768Z" fill="#8833FF"/>
<path d="M7.86326 8.38281C5.25076 8.90703 3.52341 11.4766 4.07341 14.0375C4.27107 14.9828 4.67497 15.7219 5.37107 16.418C6.33357 17.3891 7.39919 17.8359 8.73982 17.8359C10.2953 17.8359 11.6359 17.1742 12.5554 15.9453C13.157 15.1461 13.4148 14.3898 13.4664 13.3242C13.5437 11.8375 13.1312 10.7719 12.0742 9.70625C10.9742 8.59766 9.34997 8.09062 7.86326 8.38281Z" fill="#8833FF"/>
<path d="M34.5036 8.38283C31.977 8.88986 30.2497 11.3563 30.6794 13.8656C30.9887 15.7391 32.5012 17.3203 34.3661 17.75C35.0536 17.9133 36.3513 17.8188 37.0473 17.561C38.4911 17.0281 39.6169 15.782 40.0122 14.2695C40.1669 13.6938 40.1669 12.4906 40.0036 11.8805C39.677 10.6344 38.663 9.37111 37.5544 8.8297C36.6263 8.37423 35.4317 8.20236 34.5036 8.38283Z" fill="#8833FF"/>
<path d="M20.556 16.0313C18.5021 16.2977 16.517 17.0625 14.781 18.2742C13.9045 18.8844 12.4349 20.3797 11.7904 21.3078C10.5185 23.1383 9.76229 25.3383 9.58182 27.6844C9.51307 28.5867 9.62479 28.9563 10.0459 29.2055C10.2779 29.343 11.1201 29.3516 21.9998 29.3516C35.0537 29.3516 34.0396 29.4031 34.3404 28.7672C34.4951 28.432 34.4607 27.5898 34.2373 26.2578C33.481 21.8148 30.2154 18.025 25.9185 16.5984C24.3373 16.0742 22.1029 15.8422 20.556 16.0313Z" fill="#8833FF"/>
<path d="M6.96078 19.9332C3.11078 20.741 0.300623 23.9293 0.0256232 27.8051C-0.00875176 28.3981 0.00843574 28.5957 0.120154 28.8191C0.395155 29.352 0.395154 29.352 4.30531 29.352C7.63969 29.352 7.83734 29.3434 7.77719 29.1973C7.64828 28.8879 7.63109 27.9598 7.73422 26.9973C7.96625 24.7199 8.7139 22.5715 9.92562 20.6981C10.3639 20.0277 10.3725 20.002 10.2006 19.9418C9.8139 19.8215 7.52797 19.8129 6.96078 19.9332Z" fill="#8833FF"/>
<path d="M34.3317 19.8469C34.2888 19.8727 34.0997 19.907 33.9278 19.9414L33.6099 19.993L34.0825 20.7234C34.9677 22.0727 35.7153 23.8945 36.0419 25.5016C36.3427 26.9367 36.4286 28.707 36.2224 29.1969C36.1622 29.343 36.3599 29.3516 39.6942 29.3516C43.6044 29.3516 43.6044 29.3516 43.8794 28.8187C43.9911 28.5953 44.0083 28.3977 43.9739 27.8047C43.7505 24.6766 41.8427 21.918 38.981 20.5773C37.8466 20.0531 37.0903 19.8812 35.6638 19.8469C34.9763 19.8297 34.3833 19.8297 34.3317 19.8469Z" fill="#8833FF"/>
</svg>
