<svg width="66" height="64" viewBox="0 0 66 64" fill="none" xmlns="http://www.w3.org/2000/svg">
<path d="M32.3753 64C50.2557 64 64.7506 49.6731 64.7506 32C64.7506 14.3269 50.2557 0 32.3753 0C14.4949 0 0 14.3269 0 32C0 49.6731 14.4949 64 32.3753 64Z" fill="#9964E2"/>
<path opacity="0.55" d="M32.3754 61.0831C48.6259 61.0831 61.7995 48.0621 61.7995 32C61.7995 15.9379 48.6259 2.91693 32.3754 2.91693C16.1248 2.91693 2.95117 15.9379 2.95117 32C2.95117 48.0621 16.1248 61.0831 32.3754 61.0831Z" fill="white"/>
<path d="M32.3753 58.1149C46.9673 58.1149 58.7964 46.4228 58.7964 32C58.7964 17.5772 46.9673 5.88513 32.3753 5.88513C17.7833 5.88513 5.9541 17.5772 5.9541 32C5.9541 46.4228 17.7833 58.1149 32.3753 58.1149Z" fill="white"/>
<path d="M32.357 11.7846H32.3051C31.9253 11.7846 31.6182 11.481 31.6182 11.1057V7.70668C31.6182 7.3313 31.9253 7.02771 32.3051 7.02771H32.357C32.7368 7.02771 33.0439 7.3313 33.0439 7.70668V11.1057C33.0439 11.481 32.7368 11.7846 32.357 11.7846Z" fill="#373449"/>
<path d="M32.4459 56.9723H32.394C32.0142 56.9723 31.707 56.6687 31.707 56.2933V52.8944C31.707 52.519 32.0142 52.2154 32.394 52.2154H32.4459C32.8256 52.2154 33.1328 52.519 33.1328 52.8944V56.2933C33.1328 56.6687 32.8256 56.9723 32.4459 56.9723Z" fill="#373449"/>
<path d="M52.8281 31.9816V31.9303C52.8281 31.5549 53.1353 31.2513 53.5151 31.2513H56.9539C57.3337 31.2513 57.6408 31.5549 57.6408 31.9303V31.9816C57.6408 32.357 57.3337 32.6605 56.9539 32.6605H53.5151C53.1353 32.6605 52.8281 32.357 52.8281 31.9816Z" fill="#373449"/>
<path d="M7.11035 32.0698V32.0185C7.11035 31.6431 7.4175 31.3395 7.79729 31.3395H11.2361C11.6159 31.3395 11.9231 31.6431 11.9231 32.0185V32.0698C11.9231 32.4451 11.6159 32.7487 11.2361 32.7487H7.79729C7.4175 32.7487 7.11035 32.4451 7.11035 32.0698Z" fill="#373449"/>
<path d="M47.4696 17.0564L47.4322 17.0195C47.1645 16.7549 47.1645 16.3241 47.4322 16.0595L48.6899 14.8164C48.9576 14.5518 49.3934 14.5518 49.6611 14.8164L49.6985 14.8534C49.9662 15.118 49.9662 15.5487 49.6985 15.8134L48.4409 17.0564C48.1711 17.3211 47.7373 17.3211 47.4696 17.0564Z" fill="#373449"/>
<path d="M15.0712 49.2041L15.0338 49.1672C14.7661 48.9026 14.7661 48.4718 15.0338 48.2072L16.5799 46.679C16.8476 46.4144 17.2835 46.4144 17.5512 46.679L17.5885 46.7159C17.8563 46.9805 17.8563 47.4113 17.5885 47.6759L16.0424 49.2041C15.7726 49.4687 15.3389 49.4687 15.0712 49.2041Z" fill="#373449"/>
<path d="M47.4938 46.9395L47.5311 46.9026C47.7988 46.638 48.2347 46.638 48.5024 46.9026L49.76 48.1457C50.0277 48.4103 50.0277 48.8411 49.76 49.1057L49.7227 49.1426C49.455 49.4072 49.0191 49.4072 48.7514 49.1426L47.4938 47.8995C47.226 47.6329 47.226 47.2041 47.4938 46.9395Z" fill="#373449"/>
<path d="M14.9693 14.917L15.0067 14.88C15.2744 14.6154 15.7102 14.6154 15.978 14.88L17.5241 16.4082C17.7918 16.6729 17.7918 17.1036 17.5241 17.3682L17.4867 17.4052C17.219 17.6698 16.7832 17.6698 16.5155 17.4052L14.9693 15.877C14.7016 15.6123 14.7016 15.1816 14.9693 14.917Z" fill="#373449"/>
<path d="M32.3937 32.4041H32.3356C31.9164 32.4041 31.5781 32.0677 31.5781 31.6554V15.2574C31.5781 14.8431 31.9185 14.5087 32.3356 14.5087H32.3937C32.813 14.5087 33.1512 14.8451 33.1512 15.2574V31.6554C33.1533 32.0677 32.813 32.4041 32.3937 32.4041Z" fill="#3E479B"/>
<path d="M31.5781 33.0154V32.9579C31.5781 32.5436 31.9185 32.2092 32.3356 32.2092H43.8081C44.2273 32.2092 44.5656 32.5456 44.5656 32.9579V33.0154C44.5656 33.4297 44.2253 33.7641 43.8081 33.7641H32.3356C31.9164 33.7662 31.5781 33.4297 31.5781 33.0154Z" fill="#3E479B"/>
<path d="M44.2735 21.4133L32.4648 31.9179" stroke="#373449" stroke-miterlimit="10" stroke-linecap="round"/>
<path d="M32.3751 34.8205C33.9511 34.8205 35.2287 33.5577 35.2287 32C35.2287 30.4423 33.9511 29.1795 32.3751 29.1795C30.7991 29.1795 29.5215 30.4423 29.5215 32C29.5215 33.5577 30.7991 34.8205 32.3751 34.8205Z" fill="#4C65BA"/>
<path d="M59.9446 61.9754H59.9778L59.9716 62.3077L56.3252 62.359L56.3294 62.1149C56.3294 62.0759 56.3543 62.0451 56.3854 62.0328C56.3937 62.0287 56.4041 62.0267 56.4124 62.0267L59.9446 61.9754Z" fill="#373449"/>
<path d="M58.6662 60.7651L59.7703 60.7528C59.7972 60.7528 59.8221 60.761 59.8429 60.7754C59.8512 60.7815 59.8574 60.7877 59.8657 60.7959C59.8844 60.8184 59.8969 60.8472 59.8989 60.88L59.9052 61.0072L59.9238 61.4174L59.9487 61.9774L56.4186 62.0287C56.4082 62.0287 56.3999 62.0308 56.3916 62.0349C56.4705 61.7805 56.6718 61.5815 56.925 61.5261L57.7323 61.4646C57.9232 61.3682 58.0892 61.282 58.2781 61.1856L58.606 60.7856C58.6122 60.7815 58.6184 60.7795 58.6267 60.7774C58.633 60.7754 58.6371 60.7733 58.6433 60.7713C58.6475 60.7651 58.6579 60.7651 58.6662 60.7651Z" fill="#373449"/>
<path d="M65.432 61.9856H65.4652L65.4569 62.3179L61.8105 62.3467L61.8168 62.1026C61.8188 62.0636 61.8417 62.0328 61.8749 62.0205C61.8832 62.0164 61.8936 62.0143 61.9019 62.0143L65.432 61.9856Z" fill="#373449"/>
<path d="M64.162 60.7672L65.2661 60.761C65.2931 60.761 65.318 60.7692 65.3387 60.7856C65.347 60.7918 65.3533 60.7979 65.3595 60.8061C65.3782 60.8287 65.3906 60.8574 65.3927 60.8902L65.3968 61.0174L65.4114 61.4277L65.4321 61.9877L61.902 62.0164C61.8916 62.0164 61.8833 62.0185 61.875 62.0226C61.9559 61.7702 62.1593 61.5713 62.4125 61.5159L63.2219 61.4585C63.4128 61.362 63.5788 61.2779 63.7698 61.1836L64.1018 60.7856C64.1081 60.7815 64.1143 60.7795 64.1226 60.7774C64.1288 60.7754 64.133 60.7733 64.1392 60.7713C64.1433 60.7692 64.1516 60.7672 64.162 60.7672Z" fill="#373449"/>
<path d="M46.0708 19.9077C46.104 19.7887 46.2285 19.721 46.3489 19.7538L46.546 19.8092C46.5481 19.801 46.5481 19.7928 46.5502 19.7846L46.2368 19.7087C46.0978 19.6759 45.9961 19.5323 46.0479 19.401C46.1517 19.1384 46.3696 19.2369 46.5087 19.2697L46.6747 19.3272C46.6705 19.3231 46.3904 19.2143 46.3862 19.2102C46.3489 19.1631 46.3281 19.1015 46.3385 19.0379C46.3572 18.9169 46.4713 18.8328 46.5958 18.8533L47.3845 18.9743C47.8535 19.0113 48.474 19.0933 48.7563 19.1692L48.4657 18.5333C48.4014 18.3938 48.4657 18.2297 48.6068 18.1661C48.748 18.1025 48.914 18.1661 48.9783 18.3056L49.4972 19.442C49.5802 19.5692 49.6404 19.6718 49.6528 19.7128C49.6985 19.8687 50.1218 20.7343 50.1218 20.7343L49.0593 21.0831C49.0593 21.0831 47.453 20.601 46.793 20.3405L46.2285 20.1825C46.1081 20.1477 46.0376 20.0246 46.0708 19.9077Z" fill="#F9DCD2"/>
<path d="M48.7502 19.1938C48.7502 19.1918 48.7481 19.1918 48.746 19.1897C48.7315 19.1733 48.7045 19.1713 48.6879 19.1856C48.5426 19.3108 48.4679 19.4502 48.4658 19.6C48.4638 19.8502 48.6692 20.0349 48.6775 20.0431C48.6941 20.0574 48.7211 20.0574 48.7356 20.039C48.7502 20.0226 48.7502 19.9959 48.7336 19.9815C48.7315 19.9795 48.5468 19.8133 48.5488 19.6C48.5509 19.4749 48.6153 19.3559 48.7419 19.2451C48.7585 19.2328 48.7605 19.2102 48.7502 19.1938Z" fill="#FFA06E"/>
<path d="M62.1089 25.2636H61.6876H60.5648H60.1435C59.386 25.2636 58.558 25.6144 57.8565 26.1108C56.686 26.0328 55.2208 25.9118 54.9406 25.6923C54.509 25.3559 50.9539 21.1754 50.1736 20.2564C50.0885 20.1559 49.9391 20.1395 49.8332 20.2174L48.8495 20.9497C48.7457 21.0277 48.7188 21.1692 48.7893 21.278C49.4887 22.3569 52.9276 27.639 53.463 27.959C53.6975 28.0985 54.9095 28.5436 56.2979 29.0318L56.5968 30.759C57.0471 33.3538 57.1446 35.998 56.8873 38.6195L56.7441 40.0656C56.7441 40.1744 56.63 40.2626 56.7462 40.2626H65.2924C65.4087 40.2626 64.7466 37.241 64.7466 37.1323L65.9711 28.7672C66.2616 26.6092 64.0991 25.2636 62.1089 25.2636Z" fill="#9964E2"/>
<path d="M49.5515 31.3395C49.5245 31.2574 49.5826 31.1774 49.6697 31.1774L50.6555 31.1692L49.512 31.0256C49.4435 31.0174 49.3917 30.96 49.3917 30.8944V30.88C49.3896 30.8082 49.4498 30.7528 49.5245 30.7549L50.6493 30.8L49.7237 30.6338C49.649 30.6195 49.5992 30.5518 49.6116 30.48L49.6179 30.4492C49.6303 30.3856 49.6905 30.3426 49.759 30.3487L50.6472 30.4472C50.6535 30.4472 50.6618 30.4472 50.668 30.4472L51.357 30.4205C51.4628 30.4164 51.5168 30.2995 51.4504 30.2174L51.1059 29.7826C51.0644 29.7292 51.0685 29.6574 51.1163 29.6123L51.1329 29.5959C51.1785 29.5549 51.2491 29.5508 51.301 29.5877L52.017 30.0841C52.4092 30.3323 52.596 30.5395 52.679 30.6954L52.5773 32.0061C52.5731 32.0103 52.5669 32.0082 52.5607 32.0082C52.0979 32.0369 50.8817 31.9159 50.7821 31.9056C50.778 31.9056 50.7738 31.9056 50.7676 31.9056L50.0163 31.9077C49.9354 31.9077 49.869 31.8379 49.8794 31.7579C49.8856 31.7026 49.9292 31.6615 49.9852 31.6513L50.6597 31.5467L49.6843 31.4667C49.6282 31.4626 49.5805 31.4256 49.5639 31.3744L49.5515 31.3395Z" fill="#F9DCD2"/>
<path d="M64.9798 26.7795C64.3676 26.3323 63.5167 26.4082 62.9895 26.9518L62.9875 26.9538C62.506 27.4461 60.4805 29.881 59.9512 30.0144C59.4179 30.1477 53.8975 30.3877 52.6855 30.439C52.5527 30.4451 52.4489 30.5518 52.4489 30.681L52.4385 31.8974C52.4364 32.0267 52.536 32.1333 52.6647 32.1436C53.9535 32.2523 60.2895 32.7754 60.8727 32.5497C61.184 32.4308 63.2261 31.1261 64.903 30.0431C66.0652 29.2903 66.1254 27.6205 65.0109 26.8C65.0005 26.7938 64.9902 26.7856 64.9798 26.7795Z" fill="#9964E2"/>
<path opacity="0.31" d="M52.665 32.1436C53.9538 32.2523 60.2898 32.7754 60.873 32.5497C61.0162 32.4943 61.5205 32.1928 62.1888 31.7764" stroke="#ECF1F7" stroke-miterlimit="10" stroke-linecap="round"/>
<path opacity="0.31" d="M64.9799 26.7795C64.3676 26.3323 63.5168 26.4082 62.9896 26.9518L62.9875 26.9538C62.5061 27.4461 60.4805 29.881 59.9513 30.0144C59.418 30.1477 53.8975 30.3877 52.6855 30.439" stroke="#ECF1F7" stroke-miterlimit="10" stroke-linecap="round"/>
<path d="M56.8587 37.7743C56.8628 37.5282 57.0621 37.5343 57.3111 37.5282L64.552 37.3456C64.8031 37.3395 65.021 37.5179 65.0584 37.7641C65.0584 37.7641 65.4423 40.88 65.4672 42.2872L65.5855 60.5825C65.5876 60.8513 65.3655 61.0707 65.0936 61.0707L63.5517 61.0687C63.2611 61.0687 63.0183 60.8492 62.9913 60.5641L61.4867 44.4841C61.4701 44.2441 61.2688 44.0574 61.0239 44.0574C60.7686 44.0574 60.5611 44.2605 60.559 44.5148L60.0775 60.6646C60.0713 60.8902 59.8825 61.0707 59.6542 61.0707L58.1143 61.0687C57.8943 61.0687 57.7116 60.8964 57.7013 60.6789L56.7196 41.0133C56.6989 40.4533 56.8587 37.7743 56.8587 37.7743Z" fill="#373449"/>
<path d="M64.2674 21.1671C64.2757 21.1364 64.2902 21.1056 64.3047 21.0769C64.4521 20.7692 64.6451 20.4615 64.589 20.1066C64.5496 19.8584 64.3919 19.6553 64.203 19.4933C63.981 19.3025 63.8627 19.1425 63.817 18.841C63.7797 18.5805 63.7817 18.3015 63.6489 18.0718C63.5555 17.9097 63.404 17.7887 63.2484 17.6841C62.8333 17.4071 62.3352 17.2184 61.8309 17.2164C61.5632 17.2164 61.3557 17.321 61.1045 17.3661C60.9551 17.3928 60.87 17.3292 60.7185 17.2964C60.5795 17.2656 60.4384 17.2492 60.2972 17.2451C59.9756 17.2369 59.6539 17.3025 59.3571 17.4256C58.7324 17.6841 57.9002 18.2974 57.73 18.9846C57.6699 19.2307 57.6968 19.4933 57.6034 19.7292C57.4187 20.1948 56.8626 20.2769 56.5326 20.6112C56.323 20.8225 56.186 21.1302 56.2566 21.4194C56.296 21.5794 56.3935 21.723 56.4143 21.8851C56.435 22.043 56.379 22.203 56.3064 22.3446C56.1237 22.7015 55.827 23.0359 55.8477 23.4338C55.856 23.602 55.9245 23.76 56.0034 23.9097C56.9705 25.7312 59.5045 25.9446 61.3349 25.7005C62.4452 25.5528 63.6136 25.2287 64.4998 24.5251C64.8547 24.2441 65.1722 23.8728 65.2407 23.4297C65.3611 22.6482 64.7385 22.0041 64.3338 21.4051C64.2964 21.3518 64.2591 21.2923 64.257 21.2287C64.257 21.2082 64.2611 21.1877 64.2674 21.1671Z" fill="#373449"/>
<path d="M62.6219 20.802L62.7527 20.8102C63.0536 20.8287 63.2819 21.083 63.2632 21.3805L63.23 21.9179C63.2113 22.2153 62.954 22.441 62.6531 22.4225L62.4186 22.4082C62.404 22.4102 62.3916 22.4164 62.377 22.4184L62.1114 25.9897C61.9557 26.7569 61.3269 27.28 60.6732 27.1877C59.9717 27.0892 59.511 26.322 59.6521 25.4953L59.6666 24.7651C58.6933 24.7056 57.5892 23.7948 57.7138 22.5928L57.9649 20.1682C57.9794 20.0369 58.0209 19.9159 58.0811 19.8071C59.0316 20.6194 59.6812 19.36 60.256 19.3046C61.5739 19.1774 62.1571 19.6553 62.4435 20.8041C62.4704 20.9107 62.6219 20.8082 62.6219 20.802Z" fill="#F9DCD2"/>
<path opacity="0.37" d="M61.4164 24.7754L59.6648 24.8041L59.6523 25.4236L61.4164 24.7754Z" fill="#EF929C"/>
<path d="M60.1109 18.121C59.949 18.3036 59.866 18.601 59.8971 18.8369C59.9863 19.522 60.777 19.5959 61.2212 19.961C61.4204 20.1251 61.5719 20.3651 61.5636 20.6215C61.5491 21.081 61.051 21.4031 60.9825 21.8605C60.9265 22.2359 61.2668 22.4287 61.3374 22.7672C61.3913 23.0297 61.2295 23.282 61.0863 23.5118C60.9306 23.762 60.6899 23.9138 60.721 24.2461C60.7438 24.482 60.9016 24.6933 61.1029 24.8225C61.3042 24.9518 61.5449 25.0092 61.7856 25.0297C62.2464 25.0687 62.7029 25.0297 63.1554 24.9395C63.9544 24.7795 64.8655 24.2277 65.2349 23.4831C65.6873 22.5723 64.1121 21.4872 64.2657 21.1713C64.4193 20.8554 64.9754 20.1087 64.1889 19.4954C63.4791 18.9436 64.2927 18.7405 63.3733 17.7805C62.9748 17.362 61.5989 16.4431 60.1109 18.121Z" fill="#373449"/>
<path d="M58.7033 21.1159C58.6618 21.1343 58.612 21.1241 58.5622 21.1179C58.5124 21.1097 58.4626 21.1036 58.4169 21.1015C58.3734 21.0974 58.3215 21.0974 58.2717 21.0974C58.2219 21.0954 58.17 21.0995 58.1326 21.0748C58.0953 21.0523 58.0849 20.9928 58.1326 20.9251C58.1783 20.8595 58.2924 20.7918 58.4398 20.8041C58.585 20.8143 58.6888 20.8984 58.7262 20.9702C58.7635 21.0441 58.7428 21.0995 58.7033 21.1159Z" fill="#373449"/>
<path d="M60.4445 21.2225C60.403 21.241 60.3532 21.2307 60.3034 21.2246C60.2536 21.2164 60.2038 21.2102 60.1581 21.2082C60.1146 21.2041 60.0627 21.2041 60.0129 21.2041C59.9631 21.202 59.9112 21.2061 59.8738 21.1815C59.8365 21.1589 59.8261 21.0995 59.8738 21.0318C59.9195 20.9661 60.0336 20.8984 60.181 20.9087C60.3262 20.9189 60.43 21.003 60.4674 21.0748C60.5026 21.1487 60.484 21.2041 60.4445 21.2225Z" fill="#373449"/>
<path d="M58.3112 21.8215C58.249 21.8154 58.2033 21.762 58.2096 21.7005L58.2324 21.4789C58.2386 21.4174 58.2926 21.3723 58.3548 21.3784C58.4171 21.3846 58.4627 21.44 58.4565 21.4995L58.4337 21.721C58.4295 21.7825 58.3735 21.8277 58.3112 21.8215Z" fill="#373449"/>
<path d="M59.9958 21.9836C59.9336 21.9774 59.8879 21.922 59.8941 21.8625L59.9169 21.641C59.9232 21.5795 59.9792 21.5343 60.0394 21.5405C60.1017 21.5466 60.1473 21.602 60.1411 21.6615L60.1183 21.883C60.112 21.9446 60.0581 21.9897 59.9958 21.9836Z" fill="#373449"/>
<path d="M59.187 21.4482L58.8508 21.9446C58.7512 22.1148 58.8674 22.3282 59.0666 22.3405L59.2472 22.3507" stroke="#EF929C" stroke-width="0.5" stroke-miterlimit="10" stroke-linecap="round"/>
<path d="M59.9026 23.3415L59.4647 23.3149C59.363 23.3087 59.2842 23.2205 59.2904 23.12L59.3174 22.6892L60.353 22.7507L60.3405 22.9579C60.326 23.1836 60.1309 23.3559 59.9026 23.3415Z" fill="#373449"/>
<path d="M59.9024 23.3415L59.8796 23.3395C59.7779 23.3333 59.7011 23.2103 59.7052 23.1446C59.7198 22.919 60.3403 22.958 60.3403 22.958C60.3258 23.1836 60.1307 23.3559 59.9024 23.3415Z" fill="#EF929C"/>
</svg>
