<svg id="SvgjsSvg1001" width="288" height="288" xmlns="http://www.w3.org/2000/svg" version="1.1" xmlns:xlink="http://www.w3.org/1999/xlink" xmlns:svgjs="http://svgjs.com/svgjs"><defs id="SvgjsDefs1002"></defs><g id="SvgjsG1008"><svg xmlns="http://www.w3.org/2000/svg" width="288" height="288" fill="none" viewBox="0 0 24 24"><g clip-path="url(#clip0_1573_1535)" fill="#8833ff" class="color000 svgShape"><path fill="#8833ff" d="M5.10937 0.070322C2.82656 0.45001 1.00781 1.98751 0.309375 4.1297C0.0890625 4.81407 0.0234375 5.2172 0.0234375 6.00001C0.0234375 6.77813 0.0890625 7.18595 0.304687 7.85626C0.614062 8.79845 1.04062 9.48751 1.77656 10.2234C2.5125 10.9594 3.19687 11.3859 4.14844 11.6953C5.90625 12.2719 7.80937 12 9.375 10.9547C10.1203 10.4531 10.9547 9.49688 11.3859 8.63438C11.8922 7.63126 12.1031 6.29532 11.9344 5.16095C11.8125 4.33595 11.4656 3.35157 11.2594 3.23907C11.0766 3.14063 10.8328 3.17813 10.6828 3.32345C10.5094 3.50157 10.5094 3.64688 10.6875 4.0922C10.9594 4.77657 11.0344 5.19376 11.0344 6.02345C11.0297 6.6797 11.0156 6.8297 10.9031 7.2422C10.7578 7.80001 10.3641 8.62032 10.0359 9.05157C8.59687 10.9453 6.00469 11.5875 3.87187 10.5797C3.09844 10.2141 2.45625 9.69845 1.96406 9.05157C1.63594 8.62032 1.24219 7.80001 1.09219 7.2422C0.984375 6.82501 0.970312 6.68907 0.970312 6.00001C0.970312 5.31095 0.984375 5.17501 1.09219 4.75782C1.33125 3.85782 1.8375 2.99063 2.47969 2.37657C3.13125 1.75782 3.9 1.32188 4.76719 1.0922C5.17031 0.984384 5.32031 0.970322 5.97656 0.965634C6.80625 0.965634 7.22344 1.04063 7.9125 1.3172C8.31562 1.47657 8.49844 1.47188 8.6625 1.29845C8.87812 1.06876 8.82656 0.773446 8.54062 0.576571C8.35781 0.454696 7.65937 0.220321 7.17187 0.112509C6.67969 0.00938378 5.60625 -0.014053 5.10937 0.070322Z" class="color000 svgShape"></path><path fill="#8833ff" d="M9.59033 1.76251C9.35127 2.00626 9.44502 2.43751 9.76377 2.52189 9.97002 2.57345 10.1013 2.54064 10.2419 2.4047 10.4106 2.23595 10.406 1.95001 10.2325 1.77189 10.0591 1.58908 9.76846 1.58908 9.59033 1.76251zM5.75156 2.02033C5.54063 2.14221 5.53125 2.22658 5.53125 4.22815 5.53594 5.62502 5.55 6.14065 5.59219 6.21096 5.70469 6.40315 6.87656 7.49533 6.99844 7.52346 7.35 7.61252 7.65938 7.29846 7.57031 6.95158 7.55156 6.87658 7.32656 6.62346 7.00313 6.31408L6.46875 5.80315V4.0219 2.24065L6.33281 2.10471C6.225 2.00158 6.15 1.96877 6.01406 1.96877 5.91563 1.96877 5.79844 1.99221 5.75156 2.02033zM1.84686 5.58282C1.57967 5.71407 1.5328 6.1172 1.7578 6.32814 2.00155 6.55782 2.67186 6.49689 2.81249 6.23907 2.90624 6.05626 2.86874 5.81251 2.72342 5.6672 2.59686 5.54064 2.55936 5.53126 2.26405 5.53595 2.09061 5.53595 1.90311 5.55939 1.84686 5.58282zM9.39392 5.57812C9.11267 5.69062 9.05173 6.10312 9.27673 6.33281 9.40329 6.45937 9.44079 6.46875 9.74548 6.46875 10.0455 6.46875 10.0924 6.45469 10.2283 6.33281 10.3549 6.22031 10.383 6.16406 10.383 6 10.383 5.83594 10.3549 5.77969 10.2283 5.66719 10.0924 5.54531 10.0408 5.53125 9.78298 5.53594 9.62361 5.53594 9.44548 5.55469 9.39392 5.57812zM17.2547 6.51563C16.1484 6.81563 15.3047 7.60313 14.9203 8.69532 14.7938 9.07032 14.7891 9.07501 14.775 10.5 14.7563 12.1781 14.7844 12.3891 15.1219 13.0781 15.3 13.4391 15.4125 13.5938 15.7266 13.9031L16.1063 14.2875 15.7547 14.4328C15.2625 14.6344 14.7656 14.9344 14.2922 15.3188L13.8891 15.6469 13.7344 14.9344C13.65 14.5453 13.5563 14.175 13.5234 14.1094 13.4297 13.9266 13.2141 13.7297 13.0078 13.6359 12.8297 13.5516 12.5766 13.5469 8.08594 13.5469H3.35156L3.11719 13.6594C2.99063 13.7203 2.84531 13.8094 2.80313 13.8563 2.67656 13.9969 2.53125 14.3531 2.53125 14.5219 2.53125 14.6391 3.87188 20.7938 3.96563 21.1031 3.98906 21.1828 3.88125 21.1875 2.18438 21.1875.885938 21.1875.346875 21.2016.257813 21.2438.0234375 21.3516 0 21.4688 0 22.5938 0 23.7188.0234375 23.8359.257813 23.9438.351563 23.9859 3.08906 24 12.0047 24 24.6563 24 23.8172 24.0188 23.9438 23.7422 24.0328 23.5453 24.0188 19.6172 23.9297 19.0078 23.6297 17.0344 22.3922 15.3703 20.5688 14.5078 20.325 14.3906 20.0953 14.2969 20.0625 14.2969 20.025 14.2969 20.1281 14.1797 20.2875 14.0391 20.7891 13.5797 21.1172 13.0406 21.2859 12.3891 21.3656 12.075 21.375 11.8641 21.375 10.7109 21.375 9.96563 21.3516 9.27188 21.3234 9.11251 21.1172 7.97813 20.2313 6.96094 19.1203 6.58594 18.5859 6.40782 17.775 6.37501 17.2547 6.51563zM18.7594 7.45313C19.3406 7.63126 19.9125 8.10938 20.1797 8.63907L20.3016 8.88282 20.0578 9.10313C19.9266 9.22501 19.6641 9.39844 19.4813 9.48751 18.8625 9.79219 18.7406 9.81094 17.1469 9.83438L15.7031 9.85313V9.66094C15.7031 8.68126 16.4719 7.69219 17.4422 7.43438 17.8172 7.33126 18.3984 7.34063 18.7594 7.45313zM20.4281 11.0953C20.4094 12.075 20.4 12.1875 20.3016 12.4313 20.0719 13.0172 19.575 13.5188 18.9797 13.7672 18.6281 13.9125 17.9391 13.9688 17.5266 13.8797 16.6969 13.7016 15.9938 13.0219 15.7734 12.1828 15.7313 12.0281 15.7031 11.7047 15.7031 11.3578V10.7906L17.1938 10.7719C18.5344 10.7531 18.7172 10.7391 19.0547 10.65 19.425 10.5469 20.0906 10.2516 20.2734 10.1063 20.325 10.0688 20.3859 10.0313 20.4047 10.0313 20.4281 10.0313 20.4375 10.5094 20.4281 11.0953zM13.3922 17.6953C13.7813 19.4484 14.1141 20.9531 14.1328 21.0328L14.1609 21.1875H9.54844 4.93594L4.41563 18.8297C4.125 17.5359 3.89063 16.4484 3.89063 16.4156 3.89063 16.3734 4.425 16.3594 6.39844 16.3594 9.08438 16.3594 9.10781 16.3594 9.23438 16.1297 9.29531 16.0125 9.29531 15.7688 9.23438 15.6516 9.10781 15.4219 9.09375 15.4219 6.28594 15.4219H3.65625L3.63281 15.3141C3.50156 14.7375 3.46875 14.5688 3.49219 14.5313 3.51094 14.4984 5.20781 14.4891 8.1 14.4938L12.6797 14.5078 13.3922 17.6953zM18.9938 14.9719C20.8875 15.3328 22.4109 16.7625 22.9078 18.6469 23.0156 19.05 23.0297 19.2188 23.0484 20.1469L23.0719 21.1875 19.0969 21.1781 15.1172 21.1641 14.6297 18.9703 14.1422 16.7719 14.4656 16.4438C15.225 15.6703 16.0641 15.2063 17.1094 14.9813 17.5125 14.8922 18.5578 14.8875 18.9938 14.9719zM23.0625 22.5938V23.0625H12 .9375V22.5938 22.125H12 23.0625V22.5938zM5.66719 9.27658C5.54062 9.40314 5.53125 9.44064 5.53125 9.74533 5.53125 10.0453 5.54531 10.0922 5.66719 10.2281 5.85 10.4344 6.12656 10.4438 6.31406 10.2563 6.55781 10.0125 6.50625 9.33283 6.23906 9.18752 6.05625 9.09377 5.8125 9.13127 5.66719 9.27658z" class="color000 svgShape"></path></g><defs><clipPath id="clip0_1573_1535"><rect width="24" height="24" fill="#ffffff" class="colorfff svgShape"></rect></clipPath></defs></svg></g></svg>