<svg width="48" height="48" viewBox="0 0 48 48" fill="none" xmlns="http://www.w3.org/2000/svg">
<path d="M13.6406 0.159367C11.3063 0.496866 9.5625 2.47499 9.5625 4.77187C9.5625 6.92812 10.9969 8.78437 13.0781 9.32812C15.4594 9.94687 18 8.47499 18.6938 6.07499C18.8906 5.39999 18.8906 4.20937 18.6938 3.55312C18.2344 1.99687 17.0344 0.787492 15.4969 0.328116C15.0188 0.178117 14.0531 0.0937414 13.6406 0.159367Z" fill="#2DE05F"/>
<path d="M9.26289 11.7562C7.87539 12.2531 7.15352 13.2469 7.06914 14.7937C7.04102 15.2437 7.05977 19.0687 7.09727 23.2969L7.17227 30.9937L7.46289 31.575L7.75352 32.1562H6.68477C5.90664 32.1562 5.62539 32.1281 5.62539 32.0437C5.62539 31.9781 5.11914 27.8906 4.49102 22.9687C3.23477 12.9844 3.30977 13.3781 2.53164 12.9469C2.06289 12.6844 1.38789 12.6562 0.956643 12.8812C0.506643 13.1156 0.112893 13.6312 0.0472677 14.0812C0.00976766 14.3438 0.422268 17.8875 1.25664 24.4594C2.45664 33.8906 2.54102 34.4531 2.76602 34.7906C3.21602 35.4844 3.20664 35.475 6.93789 35.5312L10.266 35.5781L10.2848 39.0469L10.3035 42.5156L8.24102 44.1844C7.10664 45.1031 6.11289 45.9656 6.01914 46.0969C5.83164 46.3969 5.81289 46.9594 6.00039 47.2969C6.07539 47.4469 6.30039 47.6344 6.49727 47.7187C7.12539 48 7.41602 47.8781 8.91602 46.6406L10.266 45.5437L10.3129 46.3219C10.341 46.7531 10.4066 47.1937 10.4723 47.3062C10.7629 47.8031 11.5504 48 12.0285 47.6906C12.4504 47.4187 12.6004 47.0906 12.6566 46.3125L12.7035 45.5812L14.0066 46.65C15.4035 47.8031 15.741 47.9625 16.2941 47.7844C16.6879 47.6531 17.0629 47.1656 17.0629 46.7812C17.0629 46.1812 16.9035 46.0031 14.766 44.2594L12.6566 42.5344V39.0375V35.5312H15.6848C18.5723 35.5312 18.7129 35.5219 19.0223 35.3344C19.4254 35.0906 19.6504 34.8187 19.7816 34.425C19.8473 34.2656 19.9223 34.125 19.9598 34.125C20.2691 34.125 20.3254 34.4062 20.9535 39.375C21.7504 45.7312 21.7973 46.05 22.0223 46.4812C22.2473 46.9219 22.8473 47.475 23.316 47.6812C23.8316 47.9062 24.6941 47.8781 25.2941 47.625C26.1473 47.2594 26.8129 46.2656 26.8129 45.3656C26.8129 45.0844 25.1629 32.0719 25.0691 31.6406C24.9285 30.975 24.4035 30.3094 23.766 29.9812C23.5598 29.8687 22.1441 29.4656 20.6254 29.0719L17.8598 28.35L17.8879 27.5062L17.916 26.6625L17.391 26.4469C16.8191 26.2125 16.2191 25.6594 15.9379 25.125C15.7316 24.7125 12.6566 17.475 12.6566 17.3906C12.6566 17.3531 13.8191 18.8156 15.2535 20.625C17.6348 23.6625 17.8785 23.9437 18.3191 24.15C18.891 24.4125 19.2191 24.4219 21.4223 24.2344C22.3035 24.1594 23.1941 24.0937 23.4004 24.0937C23.7566 24.0937 23.7848 24.1125 23.7473 24.3187C23.691 24.6 23.9254 25.05 24.2441 25.3031C24.4879 25.5 24.5535 25.5 30.1973 25.5H35.8879L36.1785 25.2656C36.3379 25.125 36.516 24.8344 36.6004 24.5812C37.0035 23.325 39.5629 13.575 39.5629 13.3031C39.5629 12.9375 39.3004 12.4875 38.9816 12.3187C38.5129 12.0562 37.6598 12.2719 37.4254 12.7219C37.3691 12.8156 36.7316 15.1219 36.0004 17.8594C35.2691 20.5875 34.6316 22.9219 34.5848 23.0344L34.5004 23.25H31.8285C29.3441 23.25 28.9316 23.2125 29.2598 23.0062C29.4285 22.9031 29.8129 22.0125 29.8129 21.7219C29.8129 21.1125 29.5973 20.5875 29.166 20.1562C28.4348 19.425 28.4441 19.425 24.0379 19.7812C20.8598 20.025 20.2035 20.0531 20.1098 19.95C20.0535 19.8844 19.1441 18.7312 18.0941 17.3906C17.0441 16.05 16.1254 14.8687 16.041 14.7656C15.8723 14.5594 15.9473 14.6156 17.5785 15.8344L18.6098 16.6125L18.6848 15.7969C18.8066 14.4094 18.3754 13.2937 17.4566 12.6281C16.6691 12.0656 16.5941 12.0469 13.4066 11.8125C10.4629 11.5969 9.74102 11.5875 9.26289 11.7562Z" fill="#2DE05F"/>
<path d="M26.2321 27.2812C25.2477 27.8063 25.0696 29.2031 25.8946 29.9719C26.4477 30.4875 26.0633 30.4688 35.7196 30.4688H44.6258V37.4438V44.4281L40.4352 44.4563L36.2352 44.4844L35.8133 44.7188C35.2696 45.0188 34.9696 45.5438 34.9696 46.1719C34.9696 47.0719 35.5789 47.7469 36.4977 47.8594C36.7696 47.8875 39.1789 47.9063 41.8602 47.8875L46.7352 47.8594L47.1102 47.6438C47.3164 47.5219 47.5977 47.2781 47.7196 47.0906L47.9539 46.7438L47.9821 37.6969C48.0008 31.4438 47.9821 28.5375 47.9071 28.2938C47.7758 27.8438 47.3914 27.3844 46.9977 27.225C46.7446 27.1125 44.9258 27.0938 36.6383 27.0938C26.8696 27.1031 26.5696 27.1031 26.2321 27.2812Z" fill="#2DE05F"/>
</svg>
