<svg xmlns="http://www.w3.org/2000/svg" width="20.921" height="23.91" viewBox="0 0 20.921 23.91">
  <path id="available-from-iconE" d="M20.361,7.472H.56A.56.56,0,0,1,0,6.912V5.23A2.242,2.242,0,0,1,2.242,2.989H4.483V.56A.56.56,0,0,1,5.043,0H6.911a.56.56,0,0,1,.56.56V2.989h5.977V.56A.56.56,0,0,1,14.01,0h1.868a.56.56,0,0,1,.56.56V2.989H18.68A2.242,2.242,0,0,1,20.921,5.23V6.912A.56.56,0,0,1,20.361,7.472ZM.56,8.966h19.8a.56.56,0,0,1,.56.56V21.669A2.242,2.242,0,0,1,18.68,23.91H2.242A2.242,2.242,0,0,1,0,21.669V9.527A.56.56,0,0,1,.56,8.966Zm15.565,4.481L14.81,12.121a.56.56,0,0,0-.792,0L9.065,17.03,6.918,14.865a.56.56,0,0,0-.793,0L4.8,16.177a.56.56,0,0,0,0,.792l3.857,3.889a.56.56,0,0,0,.792,0l6.676-6.622a.56.56,0,0,0,0-.792Z" fill="#03a9f5"/>
</svg>
