<svg id="currentcy-icon" xmlns="http://www.w3.org/2000/svg" width="16.318" height="16.877" viewBox="0 0 16.318 16.877">
  <ellipse id="Ellipse_139" data-name="Ellipse 139" cx="4.911" cy="2.913" rx="4.911" ry="2.913" transform="translate(0.121)" fill="#949ea7"/>
  <ellipse id="Ellipse_140" data-name="Ellipse 140" cx="4.911" cy="2.913" rx="4.911" ry="2.913" transform="translate(6.453 7.271)" fill="#949ea7"/>
  <path id="Path_7783" data-name="Path 7783" d="M263.024,456c-.024.939-.024,1.059-.024,1.83,0,.409.385.7.746.987a6.165,6.165,0,0,0,4.213,1.228c1.95.048,4.55-.915,4.935-2.239.169-.554.048-.626.072-1.661a2.745,2.745,0,0,1-.241.457C270.9,459.178,263.794,458.985,263.024,456Z" transform="translate(-256.668 -445.022)" fill="#949ea7"/>
  <path id="Path_7784" data-name="Path 7784" d="M264,557.024c.072,1.132.024.674.072,1.541.048.963,2.528,1.926,4.911,1.9,2.046-.024,4.671-.794,4.743-1.926a6.974,6.974,0,0,0,.144-1.541C272.089,559.48,265.613,559.5,264,557.024Z" transform="translate(-257.644 -543.59)" fill="#949ea7"/>
  <path id="Path_7785" data-name="Path 7785" d="M.027,153a5.378,5.378,0,0,0,0,1.4c.385,1.685,2.865,2.624,5.032,2.72,2.552.072,4.743-1.348,4.791-2.287.024-.578.12-1.156.12-1.782-.409,1.324-2.456,2.359-4.959,2.383C3.036,155.432.725,154.83.027,153Z" transform="translate(0.022 -149.317)" fill="#949ea7"/>
  <path id="Path_7786" data-name="Path 7786" d="M.7,238a8.019,8.019,0,0,0,0,1.348c.361,1.709,2.889,2.745,5.056,2.745.072,0,1.083.048,1.107.024a2.035,2.035,0,0,1,.385-.963,5.994,5.994,0,0,1,3.082-1.685c.072-.024.217-1.276.072-1.011-.313.554-1.757,1.95-4.719,1.926C3.516,240.359,1.445,239.517.7,238Z" transform="translate(-0.65 -232.27)" fill="#949ea7"/>
  <path id="Path_7787" data-name="Path 7787" d="M.7,330a7.917,7.917,0,0,0,0,1.348c.578,2.889,6.019,2.624,6.019,2.6.072-.794.048-1.107.12-1.782,0,0-.794.024-1.18,0C4,332.095,1.878,331.637.7,330Z" transform="translate(-0.65 -322.055)" fill="#949ea7"/>
  <path id="Path_7788" data-name="Path 7788" d="M2,422s.024,1.637.048,1.637c.7,2.263,5.995,2.143,5.995,2.119.024-.722-.048-1.685-.048-1.685C6.045,424.119,3.276,423.806,2,422Z" transform="translate(-1.951 -411.84)" fill="#949ea7"/>
</svg>
