<svg xmlns="http://www.w3.org/2000/svg" width="33" height="26" viewBox="0 0 33 26">
  <g id="looking-for-job" transform="translate(-1143 -231)">
    <rect id="Rectangle_751" data-name="Rectangle 751" width="33" height="26" rx="10" transform="translate(1143 231)" fill="#32b4ce" opacity="0.05"/>
    <g id="Group_1856" data-name="Group 1856" transform="translate(1151.809 236.118)">
      <path id="Path_8100" data-name="Path 8100" d="M12.11,3.6a6.909,6.909,0,1,0,0,13.819,6.847,6.847,0,0,0,3.543-.987l.264-.159,3.173,3.173a1.094,1.094,0,0,0,.776.317,1.107,1.107,0,0,0,.776-.317,1.094,1.094,0,0,0,.317-.776,1.14,1.14,0,0,0-.317-.776l-3.067-3.1.282-.405A6.921,6.921,0,0,0,12.11,3.6Zm0,11.951a5.041,5.041,0,1,1,5.041-5.041A5.04,5.04,0,0,1,12.11,15.551Z" transform="translate(-5.2 -3.6)" fill="#32b4ce"/>
      <path id="Path_8101" data-name="Path 8101" d="M32.54,27.752H30.954v-.723a.233.233,0,0,0-.229-.229H28.768a.233.233,0,0,0-.229.229v.723H26.953a.354.354,0,0,0-.353.353v3.649a.354.354,0,0,0,.353.353h5.57a.354.354,0,0,0,.353-.353V28.1A.35.35,0,0,0,32.54,27.752ZM29,27.258h1.533v.511H29Z" transform="translate(-22.828 -22.711)" fill="#32b4ce"/>
    </g>
  </g>
</svg>
