<svg xmlns="http://www.w3.org/2000/svg" width="33" height="26" viewBox="0 0 33 26">
  <g id="new-profiles" transform="translate(-762 -231)">
    <rect id="Rectangle_749" data-name="Rectangle 749" width="33" height="26" rx="10" transform="translate(762 231)" fill="#4ca9de" opacity="0.05"/>
    <path id="Icon_material-recent-actors" data-name="Icon material-recent-actors" d="M19.31,7.5V19.967H21.09V7.5ZM15.748,19.967h1.781V7.5H15.748ZM13.076,7.5H2.39a.893.893,0,0,0-.89.89V19.076a.893.893,0,0,0,.89.89H13.076a.893.893,0,0,0,.89-.89V8.39A.893.893,0,0,0,13.076,7.5ZM7.733,9.949a2,2,0,1,1-2,2A2.007,2.007,0,0,1,7.733,9.949Zm4.007,8.237H3.726v-.668c0-1.336,2.671-2,4.007-2s4.007.668,4.007,2Z" transform="translate(768.232 230.467)" fill="#4ca9de"/>
  </g>
</svg>
