<svg xmlns="http://www.w3.org/2000/svg" width="26.087" height="26.087" viewBox="0 0 26.087 26.087">
  <g id="pro-icon" transform="translate(-123.25 -316.25)">
    <path id="Path_8324" data-name="Path 8324" d="M64.093,16l1.39,4.784L70.24,20.7l-1.55,4.729,3.9,2.868-3.9,2.868,1.55,4.729L65.483,35.8l-1.39,4.784-3.8-3.011-3.8,3.011L55.1,35.8l-4.757.088,1.55-4.729L48,28.294l3.9-2.868L50.348,20.7l4.757.088L56.495,16l3.8,3.011Z" transform="translate(76 301)" fill="#fcfeff" stroke="#287cc4" stroke-linecap="round" stroke-linejoin="round" stroke-width="1.5"/>
    <path id="Icon_awesome-user-alt" data-name="Icon awesome-user-alt" d="M5.54,6.356A3.148,3.148,0,0,0,8.657,3.178,3.148,3.148,0,0,0,5.54,0,3.148,3.148,0,0,0,2.424,3.178,3.148,3.148,0,0,0,5.54,6.356Zm2.77.706H7.118a3.7,3.7,0,0,1-3.155,0H2.77A2.8,2.8,0,0,0,0,9.887v.353A1.049,1.049,0,0,0,1.039,11.3h9A1.049,1.049,0,0,0,11.08,10.24V9.887A2.8,2.8,0,0,0,8.31,7.062Z" transform="translate(130.839 322.35)" fill="#287cc4"/>
  </g>
</svg>
