<svg width="34" height="36" viewBox="0 0 34 36" fill="none" xmlns="http://www.w3.org/2000/svg">
<circle cx="17" cy="17" r="17" fill="#E7E7E7"/>
<mask id="mask0_138_312" style="mask-type:alpha" maskUnits="userSpaceOnUse" x="3" y="5" width="28" height="31">
<path d="M21.7574 13.6284C21.4684 15.0737 21.4887 16.7751 20.9283 17.8629C20.1296 19.4147 18.3825 20.3706 16.9651 20.3706C15.4565 20.3706 13.7855 19.3411 13.002 17.6195C12.5304 16.5875 12.0004 13.9454 11.8686 12.6116C11.4933 8.79049 13.2226 6.62761 17.0235 6.54647C21.2376 6.46026 22.4852 9.98729 21.7574 13.6284Z" fill="black"/>
<path d="M12.099 12.3558C11.5057 12.0313 10.9656 12.087 11.0747 12.7869C11.1837 13.4867 11.3434 15.3757 11.7212 15.6977C12.099 16.0223 12.4768 16.1288 12.6924 15.751C12.9079 15.3757 12.099 12.3558 12.099 12.3558Z" fill="black"/>
<path d="M21.5366 12.058C22.1299 11.7334 22.67 11.7892 22.561 12.489C22.4519 13.1888 22.2922 15.0779 21.9144 15.3999C21.5366 15.7245 21.1588 15.8309 20.9433 15.4531C20.7277 15.0779 21.5366 12.058 21.5366 12.058Z" fill="black"/>
<path d="M13.6027 17.3596C13.765 18.8709 13.7118 21.1352 13.3872 22.2686C13.4405 22.3218 14.7742 25.0654 17.325 24.9107C19.7186 24.7662 20.6137 22.1063 20.6137 22.1063C20.6137 22.1063 20.066 19.2715 20.4514 17.5219C20.7912 15.9803 13.6027 17.3596 13.6027 17.3596Z" fill="black"/>
<path d="M29.7445 25.7347C29.4072 24.7636 27.8428 24.2134 27.8428 24.2134L21.4403 21.551L20.3095 19.847L17.0436 21.84L13.7575 19.8242L12.7331 21.5281L6.39405 23.937C6.39405 23.937 5.40009 24.3173 4.76619 25.0349C4.49742 25.3392 3.45274 28.9372 3.17383 35.0455H30.8272C30.5508 28.9397 29.8763 26.1176 29.7445 25.7347Z" fill="black"/>
<path d="M13.77 7.50912C13.6001 6.11453 14.414 5.52374 17.1297 5.97761C18.7677 6.25146 20.6364 6.99185 20.8063 6.06128C20.8697 5.70883 21.6938 7.62575 20.6364 8.21655C20.0431 8.54871 14.3811 7.87932 14.3811 7.87932L13.77 7.50912Z" fill="black"/>
<path d="M13.9605 7.37217C13.7501 7.11861 13.0731 6.94872 12.6927 7.32906C12.3124 7.7094 11.0978 9.22063 11.6886 12.2634C12.2794 15.3061 13.0731 12.6538 13.0731 12.6538L13.9174 7.53952L13.9605 7.37217Z" fill="black"/>
<path d="M20.5095 7.52001C20.7631 7.42366 21.2271 7.26646 21.5237 7.79386C21.8813 8.43283 22.4543 10.1824 21.9142 12.3782C21.2803 14.962 21.0572 12.221 21.0572 12.221L19.8198 8.0677L20.5095 7.52001Z" fill="black"/>
</mask>
<g mask="url(#mask0_138_312)">
<circle cx="17.1743" cy="16.7832" r="16.4355" fill="white"/>
</g>
</svg>
