<svg xmlns="http://www.w3.org/2000/svg" width="25.538" height="20.588" viewBox="0 0 25.538 20.588">
  <g id="reset" transform="translate(-1445.006 -365.657)">
    <g id="reset-icon" transform="translate(1445.006 365.657)">
      <path id="Path_7780" data-name="Path 7780" d="M10.054,33.28a7.406,7.406,0,0,1-2.07-6.371l2.581.86L8.656,20,2.5,25.108l2.688.887A10.283,10.283,0,0,0,19.193,37.581l-.7-2.876A7.368,7.368,0,0,1,10.054,33.28Z" transform="translate(-2.5 -17.771)" fill="#03a9f5"/>
      <path id="Path_7781" data-name="Path 7781" d="M49.405,24.071A10.283,10.283,0,0,0,35.4,12.485l.7,2.876a7.382,7.382,0,0,1,10.511,7.8l-2.581-.86,1.909,7.769,6.156-5.108Z" transform="translate(-26.556 -11.707)" fill="#03a9f5"/>
    </g>
  </g>
</svg>
