<svg xmlns="http://www.w3.org/2000/svg" width="24" height="23" viewBox="0 0 24 23">
  <g id="salary-icon" transform="translate(-1662 -396)">
    <rect id="Rectangle_759" data-name="Rectangle 759" width="24" height="23" rx="3" transform="translate(1662 396)" fill="#03a9f5"/>
    <path id="Icon_metro-dollar2" data-name="Icon metro-dollar2" d="M17.252,11.468a2.974,2.974,0,0,1-.778,2.06A3.358,3.358,0,0,1,14.453,14.6v1.368a.241.241,0,0,1-.25.25H13.147a.254.254,0,0,1-.25-.25V14.6a4.928,4.928,0,0,1-1-.242,4.8,4.8,0,0,1-1.372-.723,4.456,4.456,0,0,1-.364-.293q-.1-.094-.137-.141a.237.237,0,0,1-.016-.321l.805-1.055a.243.243,0,0,1,.18-.094.194.194,0,0,1,.188.07l.016.016a4.083,4.083,0,0,0,1.9.977,2.731,2.731,0,0,0,.579.063,1.9,1.9,0,0,0,1.114-.336,1.1,1.1,0,0,0,.481-.954.793.793,0,0,0-.117-.414,1.465,1.465,0,0,0-.262-.328,2.146,2.146,0,0,0-.457-.293q-.313-.16-.516-.25t-.625-.254l-.481-.2q-.176-.07-.481-.207t-.489-.242q-.184-.106-.442-.278a2.753,2.753,0,0,1-.418-.332,4.873,4.873,0,0,1-.34-.383,1.913,1.913,0,0,1-.278-.453,3.136,3.136,0,0,1-.164-.52,2.714,2.714,0,0,1-.066-.61A2.673,2.673,0,0,1,10.9,4.908,3.577,3.577,0,0,1,12.9,3.861V2.454a.254.254,0,0,1,.25-.25H14.2a.241.241,0,0,1,.25.25V3.83a4.349,4.349,0,0,1,.864.18,5.009,5.009,0,0,1,.68.262,3.767,3.767,0,0,1,.5.293q.235.164.3.227t.117.109a.226.226,0,0,1,.039.3l-.633,1.141a.213.213,0,0,1-.18.125.249.249,0,0,1-.211-.055q-.023-.023-.113-.094t-.3-.207a4.035,4.035,0,0,0-.457-.25,3.492,3.492,0,0,0-.582-.2,2.608,2.608,0,0,0-.668-.09,2.032,2.032,0,0,0-1.212.336,1.051,1.051,0,0,0-.4,1.243.88.88,0,0,0,.231.324,3.445,3.445,0,0,0,.309.258,2.754,2.754,0,0,0,.438.242q.293.137.473.211t.547.215q.414.156.633.246t.594.274a4.723,4.723,0,0,1,.59.332,4.992,4.992,0,0,1,.485.391,2.024,2.024,0,0,1,.414.5,2.833,2.833,0,0,1,.246.6,2.579,2.579,0,0,1,.1.735Z" transform="translate(1660.165 398.301)" fill="#fbfdff"/>
  </g>
</svg>
