<svg xmlns="http://www.w3.org/2000/svg" width="33" height="26" viewBox="0 0 33 26">
  <g id="total-profiles" transform="translate(-1524 -231)">
    <rect id="Rectangle_753" data-name="Rectangle 753" width="33" height="26" rx="10" transform="translate(1524 231)" fill="#528abc" opacity="0.05"/>
    <path id="Icon_awesome-users" data-name="Icon awesome-users" d="M2.786,7.821A1.857,1.857,0,1,0,.929,5.964,1.859,1.859,0,0,0,2.786,7.821Zm13,0a1.857,1.857,0,1,0-1.857-1.857A1.859,1.859,0,0,0,15.786,7.821Zm.929.929H14.857a1.852,1.852,0,0,0-1.309.54,4.245,4.245,0,0,1,2.179,3.175h1.915a.928.928,0,0,0,.929-.929v-.929A1.859,1.859,0,0,0,16.714,8.75Zm-7.429,0A3.25,3.25,0,1,0,6.036,5.5,3.248,3.248,0,0,0,9.286,8.75Zm2.229.929h-.241a4.487,4.487,0,0,1-3.975,0H7.057a3.344,3.344,0,0,0-3.343,3.343v.836A1.393,1.393,0,0,0,5.107,15.25h8.357a1.393,1.393,0,0,0,1.393-1.393v-.836A3.344,3.344,0,0,0,11.514,9.679ZM5.023,9.29a1.852,1.852,0,0,0-1.309-.54H1.857A1.859,1.859,0,0,0,0,10.607v.929a.928.928,0,0,0,.929.929H2.841A4.255,4.255,0,0,1,5.023,9.29Z" transform="translate(1530.964 235.25)" fill="#528abc"/>
  </g>
</svg>
